M48
;Layer_Color=9474304
;FILE_FORMAT=4:4
METRIC,LZ
;TYPE=PLATED
T1F00S00C0.2000
T2F00S00C0.5000
T4F00S00C0.8000
T5F00S00C1.8300
T6F00S00C3.0000
;TYPE=NON_PLATED
T7F00S00C0.8000
T8F00S00C3.0000
%
T01
X-0016Y0003
Y0007
Y0011
Y0015
Y0023
Y0027
Y0031
Y0035
X-0012
X-0008
X-0007975Y0033147
X-0007325
X-0006675
X-0006025
X-0005375
X-0004725
X-00040465Y00331755
X-00086536
X-0007975Y002882
X-0008Y0027
X-0012
Y0031
Y0023
Y0019
Y0015
X-0008
Y0019
Y0023
X-0004Y0027
X-000179Y0027147
X-0000625Y0027785
X0000625Y0027785
X0004Y0027
X0008
Y0023
Y0019
X0004
X0
Y0023
X-0004Y0019
Y0015
X0
X0004
X0008
X0008215Y0011875
Y0010625
X0008Y0007
Y0003
Y-0001
X0004
X000343Y000025
X0002045Y-000014
X0002032Y0000762
X0004Y0003
X0
X-0004
Y-0001
X-000176Y-000025
X-0008Y-0001
X-0012
Y0003
Y0007
X-0008
X-0007975Y000905
Y001095
X-000657Y001
X-0004Y0007
X0
X0004
X0012
X0011785Y0008125
X0012Y0003
Y-0001
X0016Y0003
Y0007
Y0011
Y0015
X0012
Y0019
Y0023
X0016
Y0027
X0012
Y0031
X0011905Y0033347
X0013175
X0010635
X0009365
X0008095
X0008Y0035
X0004
X0
X0005555Y0031315
X0006825
X0014445
X0016Y0031
Y0035
X-0008Y0003
X0036Y0047
X004
X00400146Y005057
X00350146
X0032Y0051
X0033Y00527385
X0032Y0055
X0036
X00400275Y005847
X0044Y0059
X0048
Y0063
X0050595Y0063053
X0051865
X0053Y0063
X0054377Y0063053
X0054405Y006718
X0056Y0067
X00600001
Y0063
Y0059
Y0055
Y0051
X0056377Y005057
X0056Y0047
X0052
X00500146Y005057
X0048Y00527385
X0044Y0055
Y0063
X0039405Y0063053
X0036865
X0035595
X0032Y0063
Y0059
X0028
Y0063
Y0071
X0032
X0036
X004
X004111Y0071785
X004365
X0044958Y0072009
X004619Y0071785
X004746
X004873
X0048Y0075
X0052
Y0071
X0056
X00600001
Y0075
X0056
X0044
X004
X0039405Y006718
X0044958Y0067818
X00500733Y00678633
X00550275Y005847
X0053Y0055
X0031353Y007507
X0024Y0075
Y0071
Y0067
X002
X0016
Y0063
Y0059
X0012
Y0063
Y0067
Y0071
Y0075
X0016
X002
X0008
Y0071
X0004
Y0075
X0Y0075
X-0004
X-0008
X-0012
Y0067
X-0008
X-0004
X0
X0004
X0008
Y0063
Y0059
Y0051
Y0047
Y0043
X0004
Y0047
Y0051
X0
Y0055
X-0004
Y0051
Y0047
Y0043
X-0004075Y0039147
X-0003425
X-0004725
X-0005375
X-0006025
X-0006675
X-0007325
X-0007975
X-0009275
X-0009925
X-0010575Y0038785
X-0012Y0039
Y0043
Y0047
Y0055
Y0059
X-0008
X-0004
Y0063
X-0008
X-0012
X0Y0039
X0006075Y004043
X0008095Y0038685
X0009365Y0036653
X0010635
X0011905
X0013175
X0014445
X0016Y0039
Y0043
Y0047
X-0016
Y0043
Y0039
Y0055
X-002
X-0024
Y0059
Y0063
Y0067
X-002
X-0016
Y0075
X-002
X-0024
X-0028
X-0032
Y0071
Y0067
X-0035595Y006718
X-0035595Y0063053
X-0038135
X-0039405
X-004Y0067
X-0044
Y0063
Y0059
Y0055
Y0051
X-0042Y00527385
X-00399854Y005057
X-00349854
X-0032Y0051
Y0055
X-0028
Y0059
Y0063
Y0067
X-0032Y0063
Y0059
X-00349725Y005847
X-0048Y0059
X-00499725Y005847
X-0050595Y0063053
X-0053135
X-0048Y0063
Y0067
X-0050595Y006718
X-0052Y0071
X-0048
Y0075
X-0052
X-0044Y0075
Y0071
X-004
X-0036
Y0075
X-004
X-0048Y0055
Y0051
X-00499854Y005057
X-00549854
X-0057Y00527385
X-006Y0055
Y0059
X-0056
Y0063
X-0054405Y0063053
X-0056Y0067
Y0071
Y0075
Y0079
X-006
Y0083
Y0087
Y0091
Y0095
Y0099
Y0103
X-00575Y01095
X-00565
X-00555
X-00545
X-00535
X-0053Y010875
X-00524Y0106934
X-00516
X-00505Y010775
X-005Y010825
X-005Y0109
Y0106
X-005Y0103
X-00512
X-00518Y010157
X-0052Y0099
X-0048
X-0044
Y0095
X-0048
X-0052
X-004
Y0091
X-0044
Y0087
X-004
X-0036
Y0091
X-0032
X-0028
X-0024
X-002
Y0095
X-0016
Y0099
X-0016Y010142
X-001905Y0101065
X-001848Y01043
X-002Y0104935
X-0022098Y01040765
X-0024Y01013
X-0025
X-0026
X-0027
X-0028
X-0030607Y0104013
Y0106934
Y0112776
X-0033521Y0111776
X-00342513
X-00349815
X-00357118
X-0036442
X-0038Y011
Y0107
X-00385Y0105
X-00395
Y0104
X-00385
Y0103
X-00375
X-00395
X-004Y0108
X-0042Y0106
X-0044958Y0106045
X-0044951Y0105426
Y0106696
X-0047Y01053225
X-0045Y0103
X-0044443Y0109998
X-0043808
X-0046Y01129
X-003568Y01006635
X-0032Y0099
Y0095
X-0028
X-0024
Y0087
X-002
X-0016
Y0083
X-002
X-0024
X-0028
Y0087
X-0032
Y0083
X-0036
X-004
X-0044
Y0079
X-0048
X-0052
X-004
X-0036
X-0032
X-0028
X-0024
X-002
X-0016
X-0016002Y01095
X-0017
X-0015
X-002095Y0109065
X-0018542Y0114173
X-001375Y0114677
X-001275
X-001125
X-001025
X-0006223Y01143
X-0003553Y0111
Y01085
Y01075
X-0003Y0107
Y0108
Y01045
Y01035
X-0003553Y0103
Y0104
Y0102
Y0101
X-0003Y01015
Y0100447
X-0002
X-0001
X0
X0001
X00005Y0101
X00015
X00035
X00045
X0004Y0100447
X0005
X0003
X-00005Y0101
X-00015
X0Y0103
Y0107
X0002Y0107
Y0106
X0003
X0004
Y0107
Y0108
X0003
X0002
X0003Y0107
X0006985Y0107442
X0009Y0107
X0009553Y01065
Y01075
X0012Y0107
Y0111
X0008
X0008Y0113
X00085Y0113553
X0004Y0111
X0
X-00005Y0113
X-00015
X-0001Y0113553
X-0006525Y01045
X-00095Y010475
Y0104
X-0012Y010285
X-00113896Y00945
X-00101396
X-00088896
X-00126396
X-00138896
X-0008Y0091
X-00035
Y0087
Y0095
X0
X0004
X0009
Y009
X0012Y0087
X0016
X0017675Y008675
X0018325
X0018975Y008525
X0019625
X0020275
X0021575Y0084
X0023114Y0084709
X0021575Y008675
X0020275Y0089
X0018975
X0017675
X0015075Y008918
X0016Y0083
X0017025Y008075
X0017675
X0018325
X0018975
X0020275
X0022733Y0080772
X0021336Y0091313
X0024511Y0091821
X0024Y0103
X002
X0016
X0012954Y0103632
X0012065Y0099695
X0010668Y0099441
X0009Y0100447
X00085Y0101
X0009Y01015
X0009553Y0102
Y0101
X0008763Y0104902
X0006096Y0102489
X-00035Y0099
X-0012Y0087
Y0083
Y0079
X-0004
X0
X0004
X0008
X0012
Y0083
X00155964Y010757
X00181491
X002Y0111
X0024
X0024Y011
X0024Y0107
X0029945Y010895
X0028Y0111
X0032
X0036
X004
X0039065Y011205
X00433Y01105
X0044Y0111
X00469486Y0111
Y011175
Y01125
Y011325
Y0114
X00486513
Y011325
Y01125
Y011175
Y0111
X0052Y0111
X00541Y01105
X00559
X00577
X0058Y011248
X0056
X0054
X00505Y01087
X00487Y01051
X00469Y01033
X00433
X00397Y00997
X0032Y00997486
X003125
X0030353Y0099441
X00298514Y00985
Y0097
Y009625
Y00955
Y009475
Y009325
X00281486
Y0094
Y009475
Y00955
Y009625
Y0097
Y009775
Y00985
X0028321Y0099314
X0028702Y0100076
X002921Y0100711
X0029845Y0101092
X00305287Y01013447
X003125Y01014513
X0032
X0029435Y0103435
X0028Y0103
X0026289Y008382
X0027559Y0081153
X0028956Y0076962
X0031353Y007707
X0030988Y0078232
X0031353Y007907
X004Y0079
X003937Y0081153
X0041021
X00415Y00835
X00433
X00451
X00397
X00379
X0044Y0079
X004425Y007707
X0048Y0079
X0052
X0056083Y0079
Y0078
Y0077
Y0076
X00559Y00835
X00595Y00853
Y00871
X00577Y00889
Y00907
X00559Y00943
X00577Y00961
X00559Y00979
Y00997
X00577
X00577Y01015
X00595
X0061Y0101
X0063Y0102
X006244Y009756
X006243Y0087853
X00469Y00889
X00577Y01033
Y01051
X006243Y011057
X005757Y011757
X005557
X005357
X0052Y0115
X0044
X004
X0036
X0028Y0116
X0024Y0115
X002
X0012
X-0025375Y0116
X-0026625
X-0047Y0115085
T02
X-0019Y00009999
Y00019999
Y00029999
Y00039999
Y00049999
Y00059999
Y00069999
Y00079999
Y00089999
Y00099999
Y00109999
Y00119999
Y00129999
Y00139999
Y00149999
Y00159999
Y00169999
Y00179999
Y00219999
Y00229999
Y00239999
Y00249999
Y00259999
Y00269999
Y00279999
Y00289999
Y00299999
Y00309999
Y00319999
Y00329999
Y00339999
Y00349999
X-00149999Y-0003
X-00139999
X-00129999
X-00119999
X-00109999
X-00099999
X-00089999
X-00079999
X-00069999
X-00059999
X-00049999
X-00039999
X-00029999
X-00019999
X-00009999
X00000001
X00010001
X00020001
X00030001
X00040001
X00050001
X00060001
X00070001
X00080001
X00090001
X00100001
X00110001
X00120001
X00130001
X00140001
X00150001
X0019Y00010001
Y00020001
Y00030001
Y00040001
Y00050001
Y00060001
Y00070001
Y00080001
Y00090001
Y00100001
Y00110001
Y00120001
Y00130001
Y00140001
Y00150001
Y00160001
Y00170001
Y00180001
Y00220001
Y00230001
Y00240001
Y00250001
Y00260001
Y00270001
Y00280001
Y00290001
Y00300001
Y00310001
Y00320001
Y00330001
Y0034
Y0035
X00260001Y0045
X00270001
X00280001
X00290001
X00300001
X0064Y00490001
Y00500001
Y00510001
Y00520001
Y00530001
Y00540001
Y00550001
Y00560001
Y00570001
Y00580001
Y00590001
Y00600001
Y00610001
Y00620001
Y00630001
Y00640001
Y00650001
Y00660001
Y00670001
Y00680001
Y00690001
Y00700001
Y00710001
Y00720001
Y00750001
X00250001Y0045
X00240002
X00224711Y004495
X00212012Y0044569
X00200581Y004368
X00192962Y004241
X0019Y0041
Y004
Y0039
Y0038
Y0037
Y0036
X-0019Y00359999
Y00369999
Y00379999
Y00389999
Y00399999
X-001905Y0041529
X-0019431Y0042799
X-002032Y0043942
X-002159Y0044704
X-00230124Y0044971
X-0024Y0045
X-0025
X-0026
X-0027
X-0028
X-0029
X-003
X-0064Y0049
Y005
Y0051
Y0052
Y0053
Y0054
Y0055
Y0056
Y0057
Y0058
Y0059
Y006
Y0061
Y0062
Y0063
Y0064
Y0065
Y0066
Y0067
Y0068
Y0069
Y007
Y0071
Y0072
Y0073
Y0074
Y0075
Y0076
Y0077
Y0078
Y0079
Y008
Y0081
Y0082
Y0083
Y0084
Y0085
Y0086
Y0087
Y0088
Y0089
Y009
Y0091
Y0092
Y0093
Y0094
Y00949999
Y00959999
Y00969999
Y00979999
Y00989999
Y00999999
Y01009999
Y01019999
Y01029999
Y01129999
Y01139999
X0064Y0114
Y0113
Y0112
Y0111
Y011
Y0109
Y0108
Y0107
Y0106
Y0105
Y0104
Y0103
Y0102
Y0101
Y01
Y0099
Y0098
Y0097
Y0096
Y0095
Y0094
Y0093
Y0092
Y0091
Y009
Y0089
Y0088
Y0087
Y00860001
Y00850001
Y00840001
Y00830001
Y00800001
Y00790001
Y00780001
Y00770001
Y00760001
Y0115
X00599999Y0119
X00589999
X00579999
X00569999
X00559999
X00549999
X00539999
X00529999
X00519999
X00509999
X00499999
X00489999
X00479999
X00469999
X00459999
X00449999
X00439999
X00429999
X00419999
X00409999
X00399999
X00389999
X00379999
X00369999
X00359999
X00349999
X00339999
X00329999
X00319999
X00309999
X00299999
X00289999
X00279999
X0027
X0026
X0025
X0024
X0023
X0022
X0021
X002
X0019
X0018
X0017
X0016
X0015
X0014
X0013
X0012
X0011
X001
X0009
X0008
X0007
X0006
X0005
X0004
X0003
X0002
X0001
X0
X-0001
X-0002
X-0003
X-0004
X-0005
X-0006
X-0018
X-0019
X-002
X-0021
X-00309999
X-00319999
X-00329999
X-00339999
X-00349999
X-00359999
X-00369999
X-00379999
X-00389999
X-00399999
X-00409999
X-00419999
X-00429999
X-00439999
X-00449999
X-00459999
X-00469999
X-00479999
X-00489999
X-00499999
X-00509999
X-00519999
X-00529999
X-00539999
X-00549999
X-00559999
X-00569999
X-00579999
X-00589999
X-00599999
X-0064Y01149999
T04
X000275Y0057
Y0059
Y0061
Y0063
X002275
Y0061
Y0059
Y0057
X-001725
Y0059
Y0061
Y0063
T05
X-00565Y0087
X-004888Y008954
Y008446
X-000112
Y008954
X00065Y0087
T06
X-0017Y-0001
Y002
X0017
Y-0001
X0062Y0047
X-0062
X0062Y0117
X-0062
T07
X0003Y00487
X0023
X0017Y00713
X-0003
X-0023
X-0017Y00487
T08
X002595Y00489
Y00711
X002Y0072
X001405Y00711
X000595
X0Y0072
X-000595Y00711
X-001405
Y00489
X-000445
X0Y0048
X000595Y00489
X001555
X002Y0048
X-002
X-002445Y00489
X-002595Y00711
X-002Y0072
M30
