G04*
G04 #@! TF.GenerationSoftware,Altium Limited,Altium Designer,20.0.13 (296)*
G04*
G04 Layer_Physical_Order=4*
G04 Layer_Color=16711680*
%FSLAX25Y25*%
%MOIN*%
G70*
G01*
G75*
%ADD13R,0.01850X0.02047*%
%ADD17C,0.01181*%
%ADD18C,0.19685*%
%ADD19C,0.01968*%
%ADD20R,0.11811X0.08268*%
G04:AMPARAMS|DCode=21|XSize=62.99mil|YSize=31.89mil|CornerRadius=3.19mil|HoleSize=0mil|Usage=FLASHONLY|Rotation=180.000|XOffset=0mil|YOffset=0mil|HoleType=Round|Shape=RoundedRectangle|*
%AMROUNDEDRECTD21*
21,1,0.06299,0.02551,0,0,180.0*
21,1,0.05661,0.03189,0,0,180.0*
1,1,0.00638,-0.02831,0.01276*
1,1,0.00638,0.02831,0.01276*
1,1,0.00638,0.02831,-0.01276*
1,1,0.00638,-0.02831,-0.01276*
%
%ADD21ROUNDEDRECTD21*%
G36*
X108412Y57867D02*
X109781Y57500D01*
X111090Y56958D01*
X112316Y56249D01*
X113440Y55387D01*
X114442Y54385D01*
X115305Y53261D01*
X116013Y52034D01*
X116555Y50726D01*
X116922Y49357D01*
X117107Y47952D01*
Y47244D01*
Y11811D01*
Y11103D01*
X116922Y9698D01*
X116555Y8330D01*
X116013Y7021D01*
X115305Y5794D01*
X114442Y4670D01*
X113440Y3668D01*
X112316Y2806D01*
X111090Y2097D01*
X109781Y1555D01*
X108412Y1188D01*
X107008Y1003D01*
X106299Y1003D01*
X11103D01*
X9698Y1188D01*
X8330Y1555D01*
X7021Y2097D01*
X5794Y2806D01*
X4670Y3668D01*
X3668Y4670D01*
X2806Y5794D01*
X2097Y7021D01*
X1555Y8330D01*
X1188Y9698D01*
X1003Y11103D01*
Y11811D01*
Y47244D01*
Y47952D01*
X1188Y49357D01*
X1555Y50726D01*
X2097Y52034D01*
X2806Y53261D01*
X3668Y54385D01*
X4670Y55387D01*
X5794Y56249D01*
X7021Y56958D01*
X8330Y57500D01*
X9698Y57867D01*
X11103Y58052D01*
X11811Y58052D01*
X107008D01*
X108412Y57867D01*
D02*
G37*
%LPC*%
G36*
X109449Y56340D02*
X103543D01*
Y52206D01*
X109449D01*
Y56340D01*
D02*
G37*
G36*
X102756D02*
X96850D01*
Y52206D01*
X102756D01*
Y56340D01*
D02*
G37*
G36*
X68392Y49233D02*
X68392D01*
D01*
X58860D01*
D01*
X58860D01*
X58476Y49157D01*
X57752Y48857D01*
X57557Y48727D01*
X57426Y48640D01*
X56872Y48085D01*
Y48085D01*
X56872D01*
X56764Y47924D01*
X56655Y47760D01*
Y47760D01*
X56655Y47760D01*
X56618Y47670D01*
X45744D01*
X45707Y47760D01*
X45577Y47955D01*
X45490Y48085D01*
X44936Y48640D01*
X44610Y48857D01*
X43886Y49157D01*
X43502Y49233D01*
X43502D01*
D01*
X33970D01*
D01*
X33970D01*
X33586Y49157D01*
X32862Y48857D01*
X32667Y48727D01*
X32537Y48640D01*
X31982Y48085D01*
Y48085D01*
X31982D01*
X31874Y47924D01*
X31765Y47760D01*
Y47760D01*
X31765Y47760D01*
X31465Y47036D01*
X31389Y46652D01*
Y46260D01*
Y12795D01*
Y12403D01*
X31465Y12019D01*
X31765Y11295D01*
X31873Y11134D01*
X31982Y10970D01*
X32537Y10416D01*
X32537D01*
Y10416D01*
X32698Y10308D01*
X32862Y10198D01*
X32862D01*
X32862Y10198D01*
X33586Y9898D01*
X33970Y9822D01*
X43502D01*
X43886Y9898D01*
X44610Y10198D01*
X44772Y10306D01*
X44936Y10416D01*
X45490Y10970D01*
X45707Y11295D01*
X45745Y11385D01*
X56618D01*
X56655Y11295D01*
X56763Y11134D01*
X56872Y10970D01*
X57426Y10416D01*
X57427D01*
Y10416D01*
X57588Y10308D01*
X57752Y10198D01*
X57752D01*
X57752Y10198D01*
X58476Y9898D01*
X58860Y9822D01*
X68392D01*
X68776Y9898D01*
X69500Y10198D01*
X69662Y10306D01*
X69826Y10416D01*
X70380Y10970D01*
X70597Y11295D01*
X70897Y12019D01*
X70973Y12403D01*
Y12403D01*
D01*
Y12795D01*
Y46260D01*
Y46652D01*
D01*
Y46652D01*
X70897Y47036D01*
X70597Y47760D01*
X70467Y47955D01*
X70380Y48085D01*
X69826Y48640D01*
X69500Y48857D01*
X68776Y49157D01*
X68392Y49233D01*
D02*
G37*
G36*
X109449Y51419D02*
X103543D01*
Y47285D01*
X109449D01*
Y51419D01*
D02*
G37*
G36*
X102756D02*
X96850D01*
Y47285D01*
X102756D01*
Y51419D01*
D02*
G37*
G36*
X94563Y43775D02*
X88902D01*
X88623Y43720D01*
X88388Y43563D01*
X88230Y43327D01*
X88175Y43049D01*
Y40498D01*
X88230Y40220D01*
X88388Y39984D01*
X88623Y39826D01*
X88902Y39771D01*
X94563D01*
X94841Y39826D01*
X95077Y39984D01*
X95234Y40220D01*
X95289Y40498D01*
Y40770D01*
X97447D01*
X97887Y40475D01*
X98425Y40368D01*
X98963Y40475D01*
X99419Y40780D01*
X99723Y41236D01*
X99830Y41773D01*
X99723Y42311D01*
X99419Y42767D01*
X98963Y43071D01*
X98425Y43178D01*
X97887Y43071D01*
X97447Y42777D01*
X95289D01*
Y43049D01*
X95234Y43327D01*
X95077Y43563D01*
X94841Y43720D01*
X94563Y43775D01*
D02*
G37*
G36*
Y38854D02*
X88902D01*
X88623Y38799D01*
X88388Y38641D01*
X88230Y38406D01*
X88175Y38128D01*
Y35576D01*
X88230Y35298D01*
X88388Y35063D01*
X88623Y34905D01*
X88902Y34850D01*
X94563D01*
X94841Y34905D01*
X95077Y35063D01*
X95234Y35298D01*
X95289Y35576D01*
Y38128D01*
X95234Y38406D01*
X95077Y38641D01*
X94841Y38799D01*
X94563Y38854D01*
D02*
G37*
G36*
Y33933D02*
X88902D01*
X88623Y33878D01*
X88388Y33720D01*
X88230Y33484D01*
X88175Y33206D01*
Y32934D01*
X85689D01*
Y33348D01*
X83051D01*
Y30513D01*
X85689D01*
Y30927D01*
X88175D01*
Y30655D01*
X88230Y30377D01*
X88388Y30141D01*
X88623Y29984D01*
X88902Y29929D01*
X94563D01*
X94841Y29984D01*
X95077Y30141D01*
X95234Y30377D01*
X95289Y30655D01*
Y30927D01*
X97447D01*
X97887Y30633D01*
X98425Y30526D01*
X98963Y30633D01*
X99419Y30937D01*
X99723Y31393D01*
X99830Y31931D01*
X99723Y32468D01*
X99419Y32924D01*
X98963Y33229D01*
X98425Y33336D01*
X97887Y33229D01*
X97447Y32934D01*
X95289D01*
Y33206D01*
X95234Y33484D01*
X95077Y33720D01*
X94841Y33878D01*
X94563Y33933D01*
D02*
G37*
G36*
X82303Y33348D02*
X81378D01*
Y32324D01*
X82303D01*
Y33348D01*
D02*
G37*
G36*
X80590D02*
X79665D01*
Y32324D01*
X80590D01*
Y33348D01*
D02*
G37*
G36*
X82303Y31537D02*
X81378D01*
Y30513D01*
X82303D01*
Y31537D01*
D02*
G37*
G36*
X80590D02*
X79665D01*
Y30513D01*
X80590D01*
Y31537D01*
D02*
G37*
G36*
X94563Y29012D02*
X88902D01*
X88623Y28956D01*
X88388Y28799D01*
X88230Y28563D01*
X88175Y28285D01*
Y28013D01*
X85689D01*
Y28427D01*
X83051D01*
Y25592D01*
X85689D01*
Y26006D01*
X88175D01*
Y25734D01*
X88230Y25456D01*
X88388Y25220D01*
X88623Y25063D01*
X88902Y25007D01*
X94563D01*
X94841Y25063D01*
X95077Y25220D01*
X95234Y25456D01*
X95289Y25734D01*
Y26006D01*
X97447D01*
X97887Y25712D01*
X98425Y25605D01*
X98963Y25712D01*
X99419Y26016D01*
X99723Y26472D01*
X99830Y27009D01*
X99723Y27547D01*
X99419Y28003D01*
X98963Y28308D01*
X98425Y28414D01*
X97887Y28308D01*
X97447Y28013D01*
X95289D01*
Y28285D01*
X95234Y28563D01*
X95077Y28799D01*
X94841Y28956D01*
X94563Y29012D01*
D02*
G37*
G36*
X82303Y28427D02*
X81378D01*
Y27403D01*
X82303D01*
Y28427D01*
D02*
G37*
G36*
X80590D02*
X79665D01*
Y27403D01*
X80590D01*
Y28427D01*
D02*
G37*
G36*
X82303Y26616D02*
X81378D01*
Y25592D01*
X82303D01*
Y26616D01*
D02*
G37*
G36*
X80590D02*
X79665D01*
Y25592D01*
X80590D01*
Y26616D01*
D02*
G37*
G36*
X94563Y24090D02*
X88902D01*
X88623Y24035D01*
X88388Y23877D01*
X88230Y23642D01*
X88175Y23364D01*
Y23092D01*
X85689D01*
Y23505D01*
X83051D01*
Y20671D01*
X85689D01*
Y21085D01*
X88175D01*
Y20813D01*
X88230Y20535D01*
X88388Y20299D01*
X88623Y20141D01*
X88902Y20086D01*
X94563D01*
X94841Y20141D01*
X95077Y20299D01*
X95234Y20535D01*
X95289Y20813D01*
Y21085D01*
X97447D01*
X97887Y20790D01*
X98425Y20683D01*
X98963Y20790D01*
X99419Y21095D01*
X99723Y21551D01*
X99830Y22088D01*
X99723Y22626D01*
X99419Y23082D01*
X98963Y23386D01*
X98425Y23493D01*
X97887Y23386D01*
X97447Y23092D01*
X95289D01*
Y23364D01*
X95234Y23642D01*
X95077Y23877D01*
X94841Y24035D01*
X94563Y24090D01*
D02*
G37*
G36*
X82303Y23505D02*
X81378D01*
Y22482D01*
X82303D01*
Y23505D01*
D02*
G37*
G36*
X80590D02*
X79665D01*
Y22482D01*
X80590D01*
Y23505D01*
D02*
G37*
G36*
X82303Y21695D02*
X81378D01*
Y20671D01*
X82303D01*
Y21695D01*
D02*
G37*
G36*
X80590D02*
X79665D01*
Y20671D01*
X80590D01*
Y21695D01*
D02*
G37*
G36*
X94563Y19169D02*
X92126D01*
Y17561D01*
X95289D01*
Y18442D01*
X95234Y18721D01*
X95077Y18956D01*
X94841Y19114D01*
X94563Y19169D01*
D02*
G37*
G36*
X91338D02*
X88902D01*
X88623Y19114D01*
X88388Y18956D01*
X88230Y18721D01*
X88175Y18442D01*
Y17561D01*
X91338D01*
Y19169D01*
D02*
G37*
G36*
X95289Y16773D02*
X92126D01*
Y15165D01*
X94563D01*
X94841Y15220D01*
X95077Y15378D01*
X95234Y15613D01*
X95289Y15891D01*
Y16773D01*
D02*
G37*
G36*
X91338D02*
X88175D01*
Y15891D01*
X88230Y15613D01*
X88388Y15378D01*
X88623Y15220D01*
X88902Y15165D01*
X91338D01*
Y16773D01*
D02*
G37*
G36*
X109449Y11655D02*
X103543D01*
Y7521D01*
X109449D01*
Y11655D01*
D02*
G37*
G36*
X102756D02*
X96850D01*
Y7521D01*
X102756D01*
Y11655D01*
D02*
G37*
G36*
X109449Y6734D02*
X103543D01*
Y2600D01*
X109449D01*
Y6734D01*
D02*
G37*
G36*
X102756D02*
X96850D01*
Y2600D01*
X102756D01*
Y6734D01*
D02*
G37*
%LPD*%
D13*
X84370Y31931D02*
D03*
X80984D02*
D03*
X84370Y22088D02*
D03*
X80984D02*
D03*
X84370Y27009D02*
D03*
X80984D02*
D03*
D17*
X91732Y22088D02*
X98425D01*
X84370D02*
X91732D01*
Y27009D02*
X98425D01*
X84370D02*
X91732D01*
Y31931D02*
X98425D01*
X84370D02*
X91732D01*
Y41773D02*
X98425D01*
D18*
X15748Y29528D02*
D03*
D19*
X14500Y12000D02*
D03*
X33500Y6000D02*
D03*
X39500Y55000D02*
D03*
X107000Y18500D02*
D03*
X106500Y43000D02*
D03*
X84000Y55000D02*
D03*
X74500Y46500D02*
D03*
X80000Y12000D02*
D03*
X55118Y7874D02*
D03*
Y23622D02*
D03*
X47244D02*
D03*
X55118Y35433D02*
D03*
X51181D02*
D03*
X47244D02*
D03*
X98425Y41773D02*
D03*
Y22088D02*
D03*
Y27009D02*
D03*
Y31931D02*
D03*
D20*
X103150Y51813D02*
D03*
Y7128D02*
D03*
D21*
X91732Y36852D02*
D03*
Y41773D02*
D03*
Y31931D02*
D03*
Y22088D02*
D03*
Y27009D02*
D03*
Y17167D02*
D03*
M02*
