G04*
G04 #@! TF.GenerationSoftware,Altium Limited,Altium Designer,20.0.13 (296)*
G04*
G04 Layer_Color=32768*
%FSLAX25Y25*%
%MOIN*%
G70*
G01*
G75*
%ADD11C,0.00197*%
%ADD26C,0.00079*%
D11*
X47281Y25528D02*
Y33528D01*
X55081D01*
X47281Y25528D02*
X55081D01*
Y33528D01*
X88069Y2528D02*
Y56428D01*
X112069Y2528D02*
Y56428D01*
X88069D02*
X112069D01*
X88069Y2528D02*
X112069D01*
D26*
X85630Y30381D02*
Y33531D01*
X79724Y30381D02*
Y33531D01*
Y33505D02*
X85630D01*
X79724Y30356D02*
X85630D01*
X79724Y40224D02*
Y43373D01*
X85630Y40224D02*
Y43373D01*
X79724Y43348D02*
X85630D01*
X79724Y40198D02*
X85630D01*
Y20488D02*
Y23638D01*
X79724Y20488D02*
Y23638D01*
Y20513D02*
X85630D01*
X79724Y23663D02*
X85630D01*
Y25409D02*
Y28559D01*
X79724Y25409D02*
Y28559D01*
Y25435D02*
X85630D01*
X79724Y28584D02*
X85630D01*
Y30331D02*
Y33480D01*
X79724Y30331D02*
Y33480D01*
Y30356D02*
X85630D01*
X79724Y33505D02*
X85630D01*
Y20539D02*
Y23688D01*
X79724Y20539D02*
Y23688D01*
Y23663D02*
X85630D01*
X79724Y20513D02*
X85630D01*
Y25460D02*
Y28609D01*
X79724Y25460D02*
Y28609D01*
Y28584D02*
X85630D01*
X79724Y25435D02*
X85630D01*
M02*
