M48
;Layer_Color=9474304
;FILE_FORMAT=2:5
INCH,LZ
;TYPE=PLATED
T1F00S00C0.00787
%
T01
X0164567Y-0015354
X02075Y-00445
X01345Y-00475
X0135Y-0023
X0082Y-00235
X00835Y-00485
X0044Y-0049
X00305Y-0024
X-00285Y-00245
X-003187Y-001378
X-004687
X-00545Y-00195
Y-0028
X-0073Y-00285
Y-00195
X-0065236Y-0018898
X-0068Y-00075
X-0069291Y-000315
X-0071653Y-0004134
X-0074803
X-0077953
X-0081102
X-0084252Y-0004051
X-0080984Y-0018898
X-00885Y-00195
X-0096732Y-0018898
X-01035Y-0012
X-011248Y-0014961
X-011811Y-0023622
X-011811Y-0035433
X-01205Y-00475
X-0128228Y-0048031
X-01375Y-0042
X-0133858Y-0035433
Y-0023622
X-0128228Y-0014961
X-0124Y-0012
Y-00055
X-011248Y-0048031
X-0105Y-00475
X-0096732Y-0048031
X-0089Y-0048
X-0080984Y-0048031
X-0073Y-0048
X-0065236Y-0048031
X-00545Y-0048
X-0021Y-00475
Y-0033
X-0058Y-00005
X-00885Y-00295
X-0164567Y-0015354
X-0172Y-0043
X-02115Y-00455
Y00005
X-0211Y0046
X-01705Y0048
X-01205Y0049
X-00905Y00495
X-0083Y0033
X-0084252Y0019882
X-0087402
X-0090551
X-0093701Y0019985
X-0094685Y0009449
Y000315
X-01115Y00065
Y00125
X-0111279Y0018898
X-01115Y0027
X-00815Y00115
X-0070669Y0015748
Y0006299
X-0061Y00225
X-0062Y0033
X-00515Y0018
X-004687Y001378
X-004187
X-003687
X-00405Y0009
X-004187Y0001969
X-003687
X-003187
X-004687
X-0025Y0017
X-0033Y0033
X-00275Y0047
X-0034998Y0059055
X-003992
X-0044841
X-00425Y00615
X-0049762Y0059055
X-0054684
X-006Y00615
X-00175Y00675
X-0007874Y0064764
Y0061221
X-00005Y00565
Y00485
X-01465Y00035
X00445Y0003779
X00495
X0055Y0003937
X00465Y00295
X00305Y00375
X00195Y0037
X0022Y0053
X0019Y0068
X0007874Y0064764
Y0061221
X00465Y0063
X0054626Y0059055
X0066Y0038
X00835Y005
X0083Y0016
X0135
X01355Y0049
X02095Y0045
X02055Y00045
M30
