G04*
G04 #@! TF.GenerationSoftware,Altium Limited,Altium Designer,20.0.13 (296)*
G04*
G04 Layer_Physical_Order=1*
G04 Layer_Color=255*
%FSLAX25Y25*%
%MOIN*%
G70*
G01*
G75*
%ADD11R,0.03937X0.02362*%
%ADD12R,0.03937X0.07874*%
%ADD15C,0.03937*%
%ADD16R,0.07087X0.03937*%
G36*
X41339Y59449D02*
X33465D01*
Y90551D01*
X33465Y90551D01*
X13780D01*
Y11811D01*
X33465D01*
Y42913D01*
X41339D01*
Y11811D01*
X46063D01*
Y3937D01*
X5906D01*
Y98425D01*
X5906Y98425D01*
X41339D01*
Y59449D01*
D02*
G37*
G36*
X43701Y98425D02*
X58661D01*
Y57087D01*
X71260D01*
X71260Y57087D01*
Y88189D01*
X86221D01*
X86221Y88189D01*
Y14173D01*
X71260D01*
X71260Y14173D01*
Y45276D01*
X58661D01*
X58661Y45276D01*
Y13805D01*
X53081D01*
Y17742D01*
X54724D01*
X54724Y17743D01*
Y49213D01*
X75197D01*
X75197Y49213D01*
Y18110D01*
X82284D01*
Y84252D01*
X75197D01*
Y53150D01*
X54724D01*
X54724Y53150D01*
Y94488D01*
X47638D01*
X47638Y94488D01*
Y53150D01*
X27165D01*
X27165Y53150D01*
Y84252D01*
X20079D01*
X20079Y84252D01*
Y18110D01*
X27165D01*
X27165Y18110D01*
Y49213D01*
X47638D01*
X47638Y49213D01*
X47638Y49213D01*
Y17742D01*
X49281D01*
Y13805D01*
X43701D01*
Y45276D01*
X43701Y45276D01*
X31102D01*
Y14173D01*
X31102Y14173D01*
X31102Y14173D01*
X16142D01*
Y88189D01*
X16142Y88189D01*
X31102D01*
Y57087D01*
X31102Y57087D01*
X31102Y57087D01*
X43701D01*
Y98425D01*
X43701Y98425D01*
D02*
G37*
G36*
X61024Y98425D02*
X96457D01*
Y3937D01*
X96457Y3937D01*
X56299D01*
Y11811D01*
X61024D01*
Y42913D01*
X68898D01*
Y11811D01*
X88583D01*
Y90551D01*
X68898D01*
Y59449D01*
X68898Y59449D01*
X61024D01*
Y98425D01*
X61024Y98425D01*
D02*
G37*
D11*
X51181Y13780D02*
D03*
Y13805D02*
D03*
D12*
X46063Y7874D02*
D03*
X56299D02*
D03*
Y7900D02*
D03*
X46063D02*
D03*
D15*
Y7874D02*
X56299D01*
D16*
X51181Y96457D02*
D03*
Y15774D02*
D03*
M02*
