G04*
G04 #@! TF.GenerationSoftware,Altium Limited,Altium Designer,20.0.13 (296)*
G04*
G04 Layer_Color=32768*
%FSLAX25Y25*%
%MOIN*%
G70*
G01*
G75*
%ADD16C,0.00197*%
D16*
X571850Y286516D02*
X577756D01*
X571850Y283366D02*
X577756D01*
Y286516D01*
X571850Y283366D02*
Y286516D01*
X607776Y390523D02*
Y443923D01*
X587476Y390523D02*
Y443923D01*
Y390523D02*
X607776D01*
X587476Y443923D02*
X607776D01*
X607732Y267520D02*
Y307323D01*
X587432Y267520D02*
Y307323D01*
Y267520D02*
X607732D01*
X587432Y307323D02*
X607732D01*
X153291Y86398D02*
Y116498D01*
X173591Y86398D02*
Y116498D01*
X153291D02*
X173591D01*
X153291Y86398D02*
X173591D01*
X256235Y310624D02*
Y425424D01*
X177135Y310624D02*
Y425424D01*
X256235D01*
X177135Y310624D02*
X256235D01*
X181986Y96179D02*
X458886D01*
X181986Y20779D02*
X458886D01*
Y96179D01*
X181986Y20779D02*
Y96179D01*
Y106224D02*
Y181624D01*
X458886Y106224D02*
Y181624D01*
X181986Y106224D02*
X458886D01*
X181986Y181624D02*
X458886D01*
X181496Y104350D02*
X184646D01*
X181496Y98445D02*
X184646D01*
X181496D02*
Y104350D01*
X184646Y98445D02*
Y104350D01*
X41625Y331747D02*
X44775D01*
X41625Y337653D02*
X44775D01*
Y331747D02*
Y337653D01*
X41625Y331747D02*
Y337653D01*
X41732Y304134D02*
X44882D01*
X41732Y310039D02*
X44882D01*
Y304134D02*
Y310039D01*
X41732Y304134D02*
Y310039D01*
X177559Y104350D02*
X180709D01*
X177559Y98445D02*
X180709D01*
X177559D02*
Y104350D01*
X180709Y98445D02*
Y104350D01*
X571850Y341379D02*
Y344529D01*
X577756Y341379D02*
Y344529D01*
X571850Y341379D02*
X577756D01*
X571850Y344529D02*
X577756D01*
X571850Y346301D02*
Y349450D01*
X577756Y346301D02*
Y349450D01*
X571850Y346301D02*
X577756D01*
X571850Y349450D02*
X577756D01*
X571850Y351222D02*
Y354372D01*
X577756Y351222D02*
Y354372D01*
X571850Y351222D02*
X577756D01*
X571850Y354372D02*
X577756D01*
X571850Y215395D02*
Y218545D01*
X577756Y215395D02*
Y218545D01*
X571850Y215395D02*
X577756D01*
X571850Y218545D02*
X577756D01*
X571850Y220317D02*
Y223466D01*
X577756Y220317D02*
Y223466D01*
X571850Y220317D02*
X577756D01*
X571850Y223466D02*
X577756D01*
X571850Y225238D02*
Y228387D01*
X577756Y225238D02*
Y228387D01*
X571850Y225238D02*
X577756D01*
X571850Y228387D02*
X577756D01*
X571850Y408309D02*
Y411458D01*
X577756Y408309D02*
Y411458D01*
X571850Y408309D02*
X577756D01*
X571850Y411458D02*
X577756D01*
X571850Y413230D02*
Y416379D01*
X577756Y413230D02*
Y416379D01*
X571850Y413230D02*
X577756D01*
X571850Y416379D02*
X577756D01*
X571850Y418151D02*
Y421301D01*
X577756Y418151D02*
Y421301D01*
X571850Y418151D02*
X577756D01*
X571850Y421301D02*
X577756D01*
X607776Y323594D02*
Y376994D01*
X587476Y323594D02*
Y376994D01*
Y323594D02*
X607776D01*
X587476Y376994D02*
X607776D01*
Y197609D02*
Y251009D01*
X587476Y197609D02*
Y251009D01*
Y197609D02*
X607776D01*
X587476Y251009D02*
X607776D01*
X571850Y356143D02*
Y359293D01*
X577756Y356143D02*
Y359293D01*
X571850Y356143D02*
X577756D01*
X571850Y359293D02*
X577756D01*
X571850Y361065D02*
Y364214D01*
X577756Y361065D02*
Y364214D01*
X571850Y361065D02*
X577756D01*
X571850Y364214D02*
X577756D01*
X571850Y230159D02*
Y233309D01*
X577756Y230159D02*
Y233309D01*
X571850Y230159D02*
X577756D01*
X571850Y233309D02*
X577756D01*
X571850Y235080D02*
Y238230D01*
X577756Y235080D02*
Y238230D01*
X571850Y235080D02*
X577756D01*
X571850Y238230D02*
X577756D01*
X571850Y423072D02*
Y426222D01*
X577756Y423072D02*
Y426222D01*
X571850Y423072D02*
X577756D01*
X571850Y426222D02*
X577756D01*
X571850Y427994D02*
Y431143D01*
X577756Y427994D02*
Y431143D01*
X571850Y427994D02*
X577756D01*
X571850Y431143D02*
X577756D01*
X25396Y340446D02*
X37596D01*
X25396Y328746D02*
X37596D01*
X25396D02*
Y340446D01*
X37596Y328746D02*
Y340446D01*
X25392Y312887D02*
X37592D01*
X25392Y301187D02*
X37592D01*
X25392D02*
Y312887D01*
X37592Y301187D02*
Y312887D01*
M02*
