G04*
G04 #@! TF.GenerationSoftware,Altium Limited,Altium Designer,20.0.13 (296)*
G04*
G04 Layer_Color=8421504*
%FSLAX25Y25*%
%MOIN*%
G70*
G01*
G75*
%ADD18R,0.03543X0.00984*%
%ADD19R,0.05118X0.00984*%
%ADD20R,0.02362X0.00984*%
G04:AMPARAMS|DCode=21|XSize=23.62mil|YSize=9.45mil|CornerRadius=0.94mil|HoleSize=0mil|Usage=FLASHONLY|Rotation=0.000|XOffset=0mil|YOffset=0mil|HoleType=Round|Shape=RoundedRectangle|*
%AMROUNDEDRECTD21*
21,1,0.02362,0.00756,0,0,0.0*
21,1,0.02173,0.00945,0,0,0.0*
1,1,0.00189,0.01087,-0.00378*
1,1,0.00189,-0.01087,-0.00378*
1,1,0.00189,-0.01087,0.00378*
1,1,0.00189,0.01087,0.00378*
%
%ADD21ROUNDEDRECTD21*%
G04:AMPARAMS|DCode=22|XSize=23.62mil|YSize=9.45mil|CornerRadius=0.94mil|HoleSize=0mil|Usage=FLASHONLY|Rotation=90.000|XOffset=0mil|YOffset=0mil|HoleType=Round|Shape=RoundedRectangle|*
%AMROUNDEDRECTD22*
21,1,0.02362,0.00756,0,0,90.0*
21,1,0.02173,0.00945,0,0,90.0*
1,1,0.00189,0.00378,0.01087*
1,1,0.00189,0.00378,-0.01087*
1,1,0.00189,-0.00378,-0.01087*
1,1,0.00189,-0.00378,0.01087*
%
%ADD22ROUNDEDRECTD22*%
%ADD23R,0.08071X0.12008*%
%ADD24R,0.10039X0.08071*%
%ADD25R,0.00984X0.02362*%
%ADD26R,0.03937X0.01772*%
%ADD27R,0.01772X0.03937*%
%ADD28R,0.05118X0.01968*%
%ADD29R,0.01968X0.05118*%
%ADD30R,0.10236X0.11811*%
%ADD31R,0.02362X0.00984*%
%ADD32C,0.03937*%
%ADD33R,0.00984X0.01968*%
%ADD34R,0.05512X0.05118*%
%ADD35R,0.03150X0.01968*%
%ADD36R,0.01575X0.01575*%
%ADD37R,0.01575X0.01575*%
%ADD38R,0.02756X0.01968*%
%ADD39R,0.25591X0.12520*%
%ADD40R,0.02047X0.01850*%
%ADD41R,0.11024X0.11024*%
%ADD42R,0.01181X0.01968*%
%ADD43R,0.01968X0.01181*%
%ADD44R,0.01575X0.03150*%
%ADD45R,0.15748X0.11811*%
%ADD46R,0.02362X0.01575*%
%ADD47R,0.01968X0.02362*%
%ADD48R,0.13386X0.03858*%
%ADD49R,0.03150X0.03150*%
G04:AMPARAMS|DCode=50|XSize=27.56mil|YSize=27.56mil|CornerRadius=2.76mil|HoleSize=0mil|Usage=FLASHONLY|Rotation=0.000|XOffset=0mil|YOffset=0mil|HoleType=Round|Shape=RoundedRectangle|*
%AMROUNDEDRECTD50*
21,1,0.02756,0.02205,0,0,0.0*
21,1,0.02205,0.02756,0,0,0.0*
1,1,0.00551,0.01102,-0.01102*
1,1,0.00551,-0.01102,-0.01102*
1,1,0.00551,-0.01102,0.01102*
1,1,0.00551,0.01102,0.01102*
%
%ADD50ROUNDEDRECTD50*%
%ADD51R,0.11811X0.08268*%
G04:AMPARAMS|DCode=52|XSize=62.99mil|YSize=31.89mil|CornerRadius=3.19mil|HoleSize=0mil|Usage=FLASHONLY|Rotation=0.000|XOffset=0mil|YOffset=0mil|HoleType=Round|Shape=RoundedRectangle|*
%AMROUNDEDRECTD52*
21,1,0.06299,0.02551,0,0,0.0*
21,1,0.05661,0.03189,0,0,0.0*
1,1,0.00638,0.02831,-0.01276*
1,1,0.00638,-0.02831,-0.01276*
1,1,0.00638,-0.02831,0.01276*
1,1,0.00638,0.02831,0.01276*
%
%ADD52ROUNDEDRECTD52*%
%ADD53R,0.07874X0.03937*%
%ADD54R,0.02362X0.03937*%
%ADD55R,0.11024X0.08661*%
%ADD56R,0.04724X0.08661*%
%ADD57R,0.05709X0.07677*%
%ADD58R,0.05906X0.03150*%
%ADD59R,0.07874X0.05709*%
%ADD60R,0.03937X0.07874*%
%ADD61R,0.07087X0.07087*%
%ADD62R,0.01968X0.02953*%
%ADD63R,0.01968X0.01575*%
%ADD64R,0.05512X0.07087*%
%ADD65R,0.03150X0.03150*%
%ADD66R,0.01850X0.02047*%
%ADD67R,0.01968X0.03150*%
%ADD68R,0.19685X0.11811*%
D18*
X323819Y137795D02*
D03*
Y135827D02*
D03*
Y131890D02*
D03*
Y129921D02*
D03*
D19*
X324606Y133858D02*
D03*
D20*
X330315Y129921D02*
D03*
Y131890D02*
D03*
Y133858D02*
D03*
Y135827D02*
D03*
Y137795D02*
D03*
X232382Y577756D02*
D03*
X247933D02*
D03*
Y571850D02*
D03*
X232382D02*
D03*
D21*
X347835Y355315D02*
D03*
Y353346D02*
D03*
Y351378D02*
D03*
Y349410D02*
D03*
Y347441D02*
D03*
Y357283D02*
D03*
Y359252D02*
D03*
Y361221D02*
D03*
X360827D02*
D03*
Y359252D02*
D03*
Y357283D02*
D03*
Y347441D02*
D03*
Y349410D02*
D03*
Y351378D02*
D03*
Y353346D02*
D03*
Y355315D02*
D03*
D22*
X351378Y345866D02*
D03*
X357283D02*
D03*
X351378Y362795D02*
D03*
X357283D02*
D03*
D23*
X354331Y354331D02*
D03*
D24*
X240158Y574803D02*
D03*
D25*
X235236Y581595D02*
D03*
X237205D02*
D03*
X239173D02*
D03*
X241142D02*
D03*
X243110D02*
D03*
X245079D02*
D03*
Y568012D02*
D03*
X243110D02*
D03*
X241142D02*
D03*
X239173D02*
D03*
X237205D02*
D03*
X235236D02*
D03*
D26*
X365748Y394980D02*
D03*
Y397539D02*
D03*
Y400098D02*
D03*
Y392421D02*
D03*
Y389862D02*
D03*
Y387303D02*
D03*
Y384744D02*
D03*
Y402658D02*
D03*
X342913Y394980D02*
D03*
Y397539D02*
D03*
Y400098D02*
D03*
Y392421D02*
D03*
Y389862D02*
D03*
Y387303D02*
D03*
Y384744D02*
D03*
Y402658D02*
D03*
Y405217D02*
D03*
Y382185D02*
D03*
X365748Y405217D02*
D03*
Y382185D02*
D03*
X342913Y407776D02*
D03*
Y379626D02*
D03*
X365748D02*
D03*
Y407776D02*
D03*
X343307Y307480D02*
D03*
X365354Y292126D02*
D03*
X343307D02*
D03*
Y294685D02*
D03*
Y297244D02*
D03*
Y304921D02*
D03*
Y302362D02*
D03*
Y299803D02*
D03*
X365354Y294685D02*
D03*
Y297244D02*
D03*
Y299803D02*
D03*
Y302362D02*
D03*
Y307480D02*
D03*
Y304921D02*
D03*
X343307Y252362D02*
D03*
X365354Y237008D02*
D03*
X343307D02*
D03*
Y239567D02*
D03*
Y242126D02*
D03*
Y249803D02*
D03*
Y247244D02*
D03*
Y244685D02*
D03*
X365354Y239567D02*
D03*
Y242126D02*
D03*
Y244685D02*
D03*
Y247244D02*
D03*
Y252362D02*
D03*
Y249803D02*
D03*
X343307Y279921D02*
D03*
X365354Y264567D02*
D03*
X343307D02*
D03*
Y267126D02*
D03*
Y269685D02*
D03*
Y277362D02*
D03*
Y274803D02*
D03*
Y272244D02*
D03*
X365354Y267126D02*
D03*
Y269685D02*
D03*
Y272244D02*
D03*
Y274803D02*
D03*
Y279921D02*
D03*
Y277362D02*
D03*
D27*
X286319Y299606D02*
D03*
X304232D02*
D03*
X301673D02*
D03*
X299114D02*
D03*
X296555D02*
D03*
X288878D02*
D03*
X291437D02*
D03*
X293996D02*
D03*
X286319Y322441D02*
D03*
X304232D02*
D03*
X301673D02*
D03*
X299114D02*
D03*
X296555D02*
D03*
X288878D02*
D03*
X291437D02*
D03*
X293996D02*
D03*
D28*
X274606Y266929D02*
D03*
Y263779D02*
D03*
Y260630D02*
D03*
Y257480D02*
D03*
Y254331D02*
D03*
Y251181D02*
D03*
Y248031D02*
D03*
Y244882D02*
D03*
X308071D02*
D03*
Y248031D02*
D03*
Y251181D02*
D03*
Y254331D02*
D03*
Y257480D02*
D03*
Y260630D02*
D03*
Y263779D02*
D03*
Y266929D02*
D03*
Y404724D02*
D03*
Y401575D02*
D03*
Y398425D02*
D03*
Y395276D02*
D03*
Y392126D02*
D03*
Y388976D02*
D03*
Y385827D02*
D03*
Y382677D02*
D03*
X274606D02*
D03*
Y385827D02*
D03*
Y388976D02*
D03*
Y392126D02*
D03*
Y395276D02*
D03*
Y398425D02*
D03*
Y401575D02*
D03*
Y404724D02*
D03*
D29*
X280315Y239173D02*
D03*
X283465D02*
D03*
X286614D02*
D03*
X289764D02*
D03*
X292913D02*
D03*
X296063D02*
D03*
X299213D02*
D03*
X302362D02*
D03*
Y272638D02*
D03*
X299213D02*
D03*
X296063D02*
D03*
X292913D02*
D03*
X289764D02*
D03*
X286614D02*
D03*
X283465D02*
D03*
X280315D02*
D03*
Y410433D02*
D03*
X283465D02*
D03*
X286614D02*
D03*
X289764D02*
D03*
X292913D02*
D03*
X296063D02*
D03*
X299213D02*
D03*
X302362D02*
D03*
Y376969D02*
D03*
X299213D02*
D03*
X296063D02*
D03*
X292913D02*
D03*
X289764D02*
D03*
X286614D02*
D03*
X283465D02*
D03*
X280315D02*
D03*
D30*
X76300Y321000D02*
D03*
D31*
X83780Y320016D02*
D03*
Y318047D02*
D03*
Y316079D02*
D03*
Y321984D02*
D03*
Y323953D02*
D03*
Y325921D02*
D03*
X68820Y320016D02*
D03*
Y318047D02*
D03*
Y316079D02*
D03*
Y321984D02*
D03*
Y323953D02*
D03*
Y325921D02*
D03*
D32*
X360236Y421300D02*
D03*
X216535Y101400D02*
D03*
X423764Y101397D02*
D03*
X303150Y74803D02*
D03*
Y59055D02*
D03*
X283465Y43307D02*
D03*
Y74803D02*
D03*
Y59055D02*
D03*
X507874Y161201D02*
D03*
X263779Y120866D02*
D03*
X275590D02*
D03*
X275590Y169291D02*
D03*
X251969D02*
D03*
X263779D02*
D03*
X358268Y137598D02*
D03*
X240158Y492126D02*
D03*
X251969D02*
D03*
X228346D02*
D03*
X324803Y324300D02*
D03*
X440945Y259842D02*
D03*
X287402Y350394D02*
D03*
X299213D02*
D03*
X440945Y307087D02*
D03*
Y295276D02*
D03*
Y283465D02*
D03*
X429134Y271654D02*
D03*
Y283465D02*
D03*
Y295276D02*
D03*
Y307087D02*
D03*
X204724Y606299D02*
D03*
X192913D02*
D03*
X228346Y468504D02*
D03*
X240158D02*
D03*
X311024Y350394D02*
D03*
X275590D02*
D03*
X251969Y539370D02*
D03*
X240158D02*
D03*
X228346D02*
D03*
X240158Y515748D02*
D03*
X228346D02*
D03*
X251969D02*
D03*
X226378Y590551D02*
D03*
X248031Y287402D02*
D03*
X236221D02*
D03*
X259842D02*
D03*
X181102D02*
D03*
X204724D02*
D03*
X192913D02*
D03*
X372047Y324300D02*
D03*
X360236D02*
D03*
X348425D02*
D03*
X336614D02*
D03*
X397638Y464567D02*
D03*
X433071D02*
D03*
X429134Y421260D02*
D03*
X440945D02*
D03*
X429134Y409449D02*
D03*
X440945D02*
D03*
X429134Y397638D02*
D03*
X440945D02*
D03*
X429134Y385827D02*
D03*
X440945D02*
D03*
X429134Y374016D02*
D03*
X440945D02*
D03*
X429134Y362205D02*
D03*
X440945D02*
D03*
X429134Y350394D02*
D03*
X440945D02*
D03*
X429134Y338583D02*
D03*
X440945D02*
D03*
X342520Y216535D02*
D03*
X330709D02*
D03*
X318898Y216500D02*
D03*
X307087Y216535D02*
D03*
X440945Y271654D02*
D03*
X348425Y421200D02*
D03*
D33*
X343307Y54724D02*
D03*
X344882D02*
D03*
X346457D02*
D03*
X348031D02*
D03*
X349606D02*
D03*
Y63386D02*
D03*
X348031D02*
D03*
X346457D02*
D03*
X344882D02*
D03*
X343307D02*
D03*
D34*
X346457Y59055D02*
D03*
D35*
X192520Y247835D02*
D03*
Y244094D02*
D03*
Y240354D02*
D03*
X201181D02*
D03*
Y247835D02*
D03*
Y244094D02*
D03*
X379134Y137598D02*
D03*
Y130118D02*
D03*
X368898D02*
D03*
Y133858D02*
D03*
Y137598D02*
D03*
X192913Y414370D02*
D03*
Y409449D02*
D03*
Y404528D02*
D03*
Y399606D02*
D03*
X200787Y414370D02*
D03*
Y409449D02*
D03*
Y404528D02*
D03*
Y399606D02*
D03*
X188583Y586417D02*
D03*
Y582677D02*
D03*
Y578937D02*
D03*
X197244D02*
D03*
Y586417D02*
D03*
Y582677D02*
D03*
X379134Y161221D02*
D03*
Y153740D02*
D03*
X368898D02*
D03*
Y157480D02*
D03*
Y161221D02*
D03*
X201181Y259842D02*
D03*
Y263583D02*
D03*
Y256102D02*
D03*
X192520D02*
D03*
Y259842D02*
D03*
Y263583D02*
D03*
D36*
X186811Y394193D02*
D03*
Y397146D02*
D03*
X260039Y41831D02*
D03*
Y44783D02*
D03*
X196850Y554921D02*
D03*
Y527362D02*
D03*
Y499803D02*
D03*
X200787Y212402D02*
D03*
X240158D02*
D03*
X279528D02*
D03*
X415551Y466043D02*
D03*
Y463091D02*
D03*
X450984Y466043D02*
D03*
Y463091D02*
D03*
D37*
X183268Y395669D02*
D03*
X256496Y43307D02*
D03*
X195374Y551378D02*
D03*
X198327D02*
D03*
X195374Y523819D02*
D03*
X198327D02*
D03*
X195374Y496260D02*
D03*
X198327D02*
D03*
X199311Y208858D02*
D03*
X202264D02*
D03*
X238681D02*
D03*
X241634D02*
D03*
X278051D02*
D03*
X281004D02*
D03*
X419095Y464567D02*
D03*
X454528D02*
D03*
D38*
X199213Y388583D02*
D03*
Y385039D02*
D03*
Y381496D02*
D03*
Y377953D02*
D03*
X194488D02*
D03*
Y381496D02*
D03*
Y385039D02*
D03*
Y388583D02*
D03*
D39*
X374016Y46457D02*
D03*
Y71653D02*
D03*
D40*
X228346Y552874D02*
D03*
Y549488D02*
D03*
X287402Y606299D02*
D03*
Y609685D02*
D03*
X240158Y596732D02*
D03*
Y600118D02*
D03*
X364173Y111260D02*
D03*
Y107874D02*
D03*
X342520Y73110D02*
D03*
Y76496D02*
D03*
X320866Y68622D02*
D03*
Y65236D02*
D03*
Y49488D02*
D03*
Y52874D02*
D03*
X350394Y76496D02*
D03*
Y73110D02*
D03*
X334547Y76496D02*
D03*
Y73110D02*
D03*
X255906Y60000D02*
D03*
Y63386D02*
D03*
X267717Y76496D02*
D03*
Y73110D02*
D03*
X263779Y76496D02*
D03*
Y73110D02*
D03*
X267717Y115866D02*
D03*
Y112480D02*
D03*
X263779Y115866D02*
D03*
Y112480D02*
D03*
X275590Y115866D02*
D03*
Y112480D02*
D03*
X271654Y115866D02*
D03*
Y112480D02*
D03*
X255906Y115866D02*
D03*
Y112480D02*
D03*
X259842Y115866D02*
D03*
Y112480D02*
D03*
X183071Y99704D02*
D03*
Y103090D02*
D03*
X267717Y151850D02*
D03*
Y155236D02*
D03*
X259842Y151850D02*
D03*
Y155236D02*
D03*
X263779Y151850D02*
D03*
Y155236D02*
D03*
X350394Y118386D02*
D03*
Y121772D02*
D03*
X346457D02*
D03*
Y118386D02*
D03*
X350443Y145945D02*
D03*
Y149331D02*
D03*
X346506D02*
D03*
Y145945D02*
D03*
X210630Y583032D02*
D03*
Y586417D02*
D03*
X206693D02*
D03*
Y583032D02*
D03*
X179134Y575551D02*
D03*
Y578937D02*
D03*
X183071Y586417D02*
D03*
Y583032D02*
D03*
X179134D02*
D03*
Y586417D02*
D03*
X364173Y157835D02*
D03*
Y161221D02*
D03*
X387795D02*
D03*
Y157835D02*
D03*
X391732D02*
D03*
Y161221D02*
D03*
X364173Y134213D02*
D03*
Y137598D02*
D03*
X387795D02*
D03*
Y134213D02*
D03*
X391732D02*
D03*
Y137598D02*
D03*
X385827Y554843D02*
D03*
Y551457D02*
D03*
X226378Y568465D02*
D03*
Y571850D02*
D03*
X251969Y549488D02*
D03*
Y552874D02*
D03*
X244094Y549488D02*
D03*
Y552874D02*
D03*
X236221Y549488D02*
D03*
Y552874D02*
D03*
X248031Y600118D02*
D03*
Y596732D02*
D03*
X244094Y600118D02*
D03*
Y596732D02*
D03*
X236221Y600118D02*
D03*
Y596732D02*
D03*
X286614Y419567D02*
D03*
Y422953D02*
D03*
X279528Y319173D02*
D03*
Y322559D02*
D03*
X275590Y299488D02*
D03*
Y302874D02*
D03*
X407480Y466260D02*
D03*
Y462874D02*
D03*
X442913Y466260D02*
D03*
Y462874D02*
D03*
X179134Y99704D02*
D03*
Y103090D02*
D03*
X364173Y116417D02*
D03*
Y119803D02*
D03*
X383858Y107874D02*
D03*
Y111260D02*
D03*
X346457Y73110D02*
D03*
Y76496D02*
D03*
X350394Y45000D02*
D03*
Y41614D02*
D03*
X346457Y45000D02*
D03*
Y41614D02*
D03*
X329429Y76496D02*
D03*
Y73110D02*
D03*
X263779Y41614D02*
D03*
Y45000D02*
D03*
X267520Y41614D02*
D03*
Y45000D02*
D03*
X271654Y76496D02*
D03*
Y73110D02*
D03*
X259842Y76496D02*
D03*
Y73110D02*
D03*
X202756Y586417D02*
D03*
Y583032D02*
D03*
X183071Y575551D02*
D03*
Y578937D02*
D03*
X261811Y563937D02*
D03*
Y567323D02*
D03*
X232283Y552874D02*
D03*
Y549488D02*
D03*
Y596732D02*
D03*
Y600118D02*
D03*
X248031Y549488D02*
D03*
Y552874D02*
D03*
X289764Y422953D02*
D03*
Y419567D02*
D03*
X279528Y299488D02*
D03*
Y302874D02*
D03*
X403543Y466260D02*
D03*
Y462874D02*
D03*
X438976Y466260D02*
D03*
Y462874D02*
D03*
X411417D02*
D03*
Y466260D02*
D03*
X446850Y462874D02*
D03*
Y466260D02*
D03*
X296063Y419567D02*
D03*
Y422953D02*
D03*
X292913Y419567D02*
D03*
Y422953D02*
D03*
X329429Y41614D02*
D03*
Y45000D02*
D03*
X334547Y41614D02*
D03*
Y45000D02*
D03*
X222441Y571850D02*
D03*
Y568465D02*
D03*
X226378Y577756D02*
D03*
Y581142D02*
D03*
X307087Y609685D02*
D03*
Y606299D02*
D03*
X291339Y609685D02*
D03*
Y606299D02*
D03*
X311024D02*
D03*
Y609685D02*
D03*
X240158Y552874D02*
D03*
Y549488D02*
D03*
D41*
X263779Y133858D02*
D03*
D42*
X267717Y125984D02*
D03*
X265748D02*
D03*
X263779D02*
D03*
X261811D02*
D03*
X259842D02*
D03*
Y141732D02*
D03*
X261811D02*
D03*
X263779D02*
D03*
X265748D02*
D03*
X267717D02*
D03*
D43*
X255906Y129921D02*
D03*
Y131890D02*
D03*
Y133858D02*
D03*
Y135827D02*
D03*
Y137795D02*
D03*
X271654D02*
D03*
Y135827D02*
D03*
Y133858D02*
D03*
Y131890D02*
D03*
Y129921D02*
D03*
D44*
X326870Y67716D02*
D03*
X329429D02*
D03*
X331988D02*
D03*
X334547D02*
D03*
Y50394D02*
D03*
X331988D02*
D03*
X329429D02*
D03*
X326870D02*
D03*
D45*
X413386Y610236D02*
D03*
D46*
X424016Y602736D02*
D03*
Y607736D02*
D03*
Y612736D02*
D03*
Y617736D02*
D03*
X402756D02*
D03*
Y612736D02*
D03*
Y607736D02*
D03*
Y602736D02*
D03*
D47*
X183268Y405512D02*
D03*
X186811D02*
D03*
X187205Y555118D02*
D03*
X190748D02*
D03*
Y527559D02*
D03*
X187205D02*
D03*
Y500000D02*
D03*
X190748D02*
D03*
X194685Y212598D02*
D03*
X191142D02*
D03*
X230512D02*
D03*
X234055D02*
D03*
X273425D02*
D03*
X269882D02*
D03*
D48*
X303150Y138524D02*
D03*
Y129193D02*
D03*
D49*
X361161Y611073D02*
D03*
Y617274D02*
D03*
X383858Y131398D02*
D03*
Y137598D02*
D03*
Y155020D02*
D03*
Y161221D02*
D03*
X355374Y611073D02*
D03*
Y617274D02*
D03*
D50*
X273228Y492913D02*
D03*
X280315D02*
D03*
X273228Y507087D02*
D03*
Y500000D02*
D03*
X280315Y485827D02*
D03*
X287402D02*
D03*
X280315Y500000D02*
D03*
X287402Y492913D02*
D03*
Y500000D02*
D03*
X273228Y528346D02*
D03*
Y514173D02*
D03*
Y521260D02*
D03*
X280315Y514173D02*
D03*
Y507087D02*
D03*
Y528346D02*
D03*
X287402Y514173D02*
D03*
X280315Y521260D02*
D03*
X294488Y492913D02*
D03*
Y485827D02*
D03*
X301575D02*
D03*
X308661D02*
D03*
X301575Y492913D02*
D03*
X315748Y485827D02*
D03*
X308661Y492913D02*
D03*
X287402Y521260D02*
D03*
X294488Y500000D02*
D03*
X287402Y507087D02*
D03*
X301575Y500000D02*
D03*
X315748Y492913D02*
D03*
X294488Y507087D02*
D03*
X315748Y500000D02*
D03*
X308661D02*
D03*
X273228Y542520D02*
D03*
Y535433D02*
D03*
Y556693D02*
D03*
Y549606D02*
D03*
X280315Y535433D02*
D03*
X287402Y528346D02*
D03*
X280315Y556693D02*
D03*
Y542520D02*
D03*
Y549606D02*
D03*
X273228Y563779D02*
D03*
X280315D02*
D03*
X273228Y570866D02*
D03*
Y577953D02*
D03*
X287402Y563779D02*
D03*
Y556693D02*
D03*
X280315Y585039D02*
D03*
Y570866D02*
D03*
Y577953D02*
D03*
X287402Y542520D02*
D03*
Y535433D02*
D03*
Y577953D02*
D03*
Y549606D02*
D03*
Y570866D02*
D03*
X294488D02*
D03*
Y563779D02*
D03*
X301575Y570866D02*
D03*
X315748D02*
D03*
X308661D02*
D03*
X287402Y585039D02*
D03*
X294488Y577953D02*
D03*
Y585039D02*
D03*
X301575Y577953D02*
D03*
X308661D02*
D03*
X301575Y585039D02*
D03*
X315748D02*
D03*
X308661D02*
D03*
X322835Y485827D02*
D03*
X329921D02*
D03*
X322835Y492913D02*
D03*
X329921D02*
D03*
X337008Y485827D02*
D03*
X344094D02*
D03*
X337008Y492913D02*
D03*
X351181Y485827D02*
D03*
X358268Y492913D02*
D03*
X329921Y500000D02*
D03*
X344094Y492913D02*
D03*
X322835Y500000D02*
D03*
X344094D02*
D03*
X337008D02*
D03*
X351181D02*
D03*
Y492913D02*
D03*
Y507087D02*
D03*
X358268Y500000D02*
D03*
Y528346D02*
D03*
Y485827D02*
D03*
X365354Y492913D02*
D03*
X358268Y514173D02*
D03*
X365354Y500000D02*
D03*
X358268Y507087D02*
D03*
X365354Y485827D02*
D03*
X372441Y492913D02*
D03*
X365354Y507087D02*
D03*
X372441Y500000D02*
D03*
Y507087D02*
D03*
X358268Y521260D02*
D03*
X365354Y514173D02*
D03*
Y535433D02*
D03*
Y521260D02*
D03*
Y528346D02*
D03*
X372441D02*
D03*
Y514173D02*
D03*
Y521260D02*
D03*
X322835Y570866D02*
D03*
X329921D02*
D03*
X322835Y577953D02*
D03*
X337008Y570866D02*
D03*
X358268Y542520D02*
D03*
Y535433D02*
D03*
X344094Y570866D02*
D03*
X351181Y563779D02*
D03*
Y570866D02*
D03*
X315748Y577953D02*
D03*
X329921D02*
D03*
X322835Y585039D02*
D03*
X337008Y577953D02*
D03*
X329921Y585039D02*
D03*
X344094Y577953D02*
D03*
X351181D02*
D03*
X337008Y585039D02*
D03*
X351181D02*
D03*
X344094D02*
D03*
X358268Y549606D02*
D03*
X365354Y542520D02*
D03*
X358268Y563779D02*
D03*
X365354Y549606D02*
D03*
X358268Y556693D02*
D03*
X372441Y542520D02*
D03*
Y535433D02*
D03*
X365354Y556693D02*
D03*
X372441Y549606D02*
D03*
Y556693D02*
D03*
X358268Y570866D02*
D03*
X365354Y563779D02*
D03*
X358268Y585039D02*
D03*
X365354Y570866D02*
D03*
X358268Y577953D02*
D03*
X372441Y570866D02*
D03*
Y563779D02*
D03*
X365354Y577953D02*
D03*
X372441D02*
D03*
X365354Y585039D02*
D03*
D51*
X161811Y88897D02*
D03*
Y113897D02*
D03*
D52*
X173228Y98936D02*
D03*
Y103858D02*
D03*
D53*
X275590Y601181D02*
D03*
Y611417D02*
D03*
D54*
X281496Y606299D02*
D03*
D55*
X445827Y554331D02*
D03*
X420315Y554331D02*
D03*
X445827Y488189D02*
D03*
X420315D02*
D03*
D56*
X433071Y554331D02*
D03*
Y488189D02*
D03*
D57*
X461496Y505236D02*
D03*
X393937Y505236D02*
D03*
D58*
X219291Y334272D02*
D03*
Y329941D02*
D03*
Y338602D02*
D03*
Y342933D02*
D03*
Y347264D02*
D03*
Y325610D02*
D03*
Y321280D02*
D03*
Y316949D02*
D03*
D59*
X196850Y361713D02*
D03*
Y307579D02*
D03*
X229528D02*
D03*
Y361713D02*
D03*
D60*
X332677Y167323D02*
D03*
Y147638D02*
D03*
Y100394D02*
D03*
Y120079D02*
D03*
D61*
X374016Y110236D02*
D03*
D62*
X368701Y107874D02*
D03*
X379331D02*
D03*
D63*
X368701Y110925D02*
D03*
Y113287D02*
D03*
X379331D02*
D03*
Y110925D02*
D03*
D64*
X231496Y243307D02*
D03*
Y260630D02*
D03*
X240945D02*
D03*
Y243307D02*
D03*
Y381102D02*
D03*
Y398425D02*
D03*
X231496D02*
D03*
Y381102D02*
D03*
D65*
X355374Y606299D02*
D03*
X349173D02*
D03*
X361161D02*
D03*
X367362D02*
D03*
D66*
X352638Y602362D02*
D03*
X356024D02*
D03*
X352638Y598425D02*
D03*
X356024D02*
D03*
X363898Y602362D02*
D03*
X360512D02*
D03*
X363898Y598425D02*
D03*
X360512D02*
D03*
X422953Y480315D02*
D03*
X419567D02*
D03*
X432795D02*
D03*
X429410D02*
D03*
X449094D02*
D03*
X452480D02*
D03*
X444606D02*
D03*
X441221D02*
D03*
X190669Y547244D02*
D03*
X187284D02*
D03*
X190669Y559055D02*
D03*
X187284D02*
D03*
Y551181D02*
D03*
X190669D02*
D03*
Y519685D02*
D03*
X187284D02*
D03*
X190669Y531496D02*
D03*
X187284D02*
D03*
Y523622D02*
D03*
X190669D02*
D03*
Y492126D02*
D03*
X187284D02*
D03*
X190669Y503937D02*
D03*
X187284D02*
D03*
Y496063D02*
D03*
X190669D02*
D03*
X332953Y252362D02*
D03*
X336339D02*
D03*
X332953Y242126D02*
D03*
X336339D02*
D03*
X375709Y237008D02*
D03*
X372323D02*
D03*
X375709Y247244D02*
D03*
X372323D02*
D03*
X265472Y395276D02*
D03*
X262087D02*
D03*
X265472Y388976D02*
D03*
X262087D02*
D03*
X317205Y385827D02*
D03*
X320590D02*
D03*
X229803Y404724D02*
D03*
X233189D02*
D03*
X242638Y374803D02*
D03*
X239252D02*
D03*
X186732Y263583D02*
D03*
X183346D02*
D03*
X206968Y259842D02*
D03*
X210354D02*
D03*
X183346Y247835D02*
D03*
X186732D02*
D03*
Y244094D02*
D03*
X183346D02*
D03*
X246339Y338602D02*
D03*
X249724D02*
D03*
X262087Y257480D02*
D03*
X265472D02*
D03*
X262087Y251181D02*
D03*
X265472D02*
D03*
X320590Y248031D02*
D03*
X317205D02*
D03*
X233189Y266929D02*
D03*
X229803D02*
D03*
X239252Y237008D02*
D03*
X242638D02*
D03*
X293150Y279528D02*
D03*
X289764D02*
D03*
X194606Y204724D02*
D03*
X191220D02*
D03*
X194606Y216535D02*
D03*
X191220D02*
D03*
Y208661D02*
D03*
X194606D02*
D03*
X233976Y204724D02*
D03*
X230591D02*
D03*
X233976Y216535D02*
D03*
X230591D02*
D03*
Y208661D02*
D03*
X233976D02*
D03*
X273346Y204724D02*
D03*
X269961D02*
D03*
X273346Y216535D02*
D03*
X269961D02*
D03*
Y208661D02*
D03*
X273346D02*
D03*
X375709Y407776D02*
D03*
X372323D02*
D03*
X332953D02*
D03*
X336339D02*
D03*
X576496Y342954D02*
D03*
X573110D02*
D03*
X576496Y347876D02*
D03*
X573110D02*
D03*
X576496Y352797D02*
D03*
X573110D02*
D03*
X576496Y216970D02*
D03*
X573110D02*
D03*
X576496Y221891D02*
D03*
X573110D02*
D03*
X576496Y226813D02*
D03*
X573110D02*
D03*
X210354Y404528D02*
D03*
X206968D02*
D03*
X183346Y409449D02*
D03*
X186732D02*
D03*
X183346Y414370D02*
D03*
X186732D02*
D03*
X576496Y409883D02*
D03*
X573110D02*
D03*
X576496Y414805D02*
D03*
X573110D02*
D03*
X576496Y419726D02*
D03*
X573110D02*
D03*
X72093Y331200D02*
D03*
X68707D02*
D03*
X96181Y323953D02*
D03*
X92795D02*
D03*
X332953Y353346D02*
D03*
X336339D02*
D03*
X210354Y381890D02*
D03*
X206968D02*
D03*
X210354Y385827D02*
D03*
X206968D02*
D03*
X186732D02*
D03*
X183346D02*
D03*
X186732Y389764D02*
D03*
X183346D02*
D03*
X573110Y284941D02*
D03*
X576496D02*
D03*
X375709Y307480D02*
D03*
X372323D02*
D03*
X332953Y307480D02*
D03*
X336339D02*
D03*
X332953Y297244D02*
D03*
X336339D02*
D03*
X332953Y292126D02*
D03*
X336339D02*
D03*
X246339Y133858D02*
D03*
X249724D02*
D03*
X246339Y137795D02*
D03*
X249724D02*
D03*
X281221D02*
D03*
X277835D02*
D03*
X340827D02*
D03*
X344213D02*
D03*
X340827Y133858D02*
D03*
X344213D02*
D03*
Y129921D02*
D03*
X340827D02*
D03*
X337165Y476378D02*
D03*
X340551D02*
D03*
X308780D02*
D03*
X305394D02*
D03*
X198543Y559055D02*
D03*
X195158D02*
D03*
X198543Y531496D02*
D03*
X195158D02*
D03*
X198543Y503937D02*
D03*
X195158D02*
D03*
X198543Y547244D02*
D03*
X195158D02*
D03*
X198543Y519685D02*
D03*
X195158D02*
D03*
X198543Y492126D02*
D03*
X195158D02*
D03*
X336339Y247244D02*
D03*
X332953D02*
D03*
X336339Y237008D02*
D03*
X332953D02*
D03*
X372323Y242126D02*
D03*
X375709D02*
D03*
X372323Y252362D02*
D03*
X375709D02*
D03*
Y279921D02*
D03*
X372323D02*
D03*
X375709Y274803D02*
D03*
X372323D02*
D03*
X375709Y269685D02*
D03*
X372323D02*
D03*
X375709Y264567D02*
D03*
X372323D02*
D03*
X332953Y264567D02*
D03*
X336339D02*
D03*
X332953Y269685D02*
D03*
X336339D02*
D03*
X332953Y274803D02*
D03*
X336339D02*
D03*
X332953Y279921D02*
D03*
X336339D02*
D03*
X186732Y256102D02*
D03*
X183346D02*
D03*
X206968D02*
D03*
X210354D02*
D03*
X206968Y244094D02*
D03*
X210354D02*
D03*
X186732Y240354D02*
D03*
X183346D02*
D03*
X249724Y325610D02*
D03*
X246339D02*
D03*
X249724Y342933D02*
D03*
X246339D02*
D03*
X249724Y334272D02*
D03*
X246339D02*
D03*
Y321280D02*
D03*
X249724D02*
D03*
X246339Y347264D02*
D03*
X249724D02*
D03*
X246339Y329941D02*
D03*
X249724D02*
D03*
X286614Y279528D02*
D03*
X283228D02*
D03*
X202480Y216535D02*
D03*
X199094D02*
D03*
X241850D02*
D03*
X238465D02*
D03*
X281221D02*
D03*
X277835D02*
D03*
X202480Y204724D02*
D03*
X199094D02*
D03*
X241850D02*
D03*
X238465D02*
D03*
X281221D02*
D03*
X277835D02*
D03*
X206968Y414370D02*
D03*
X210354D02*
D03*
X206968Y409449D02*
D03*
X210354D02*
D03*
X92795Y316079D02*
D03*
X96181D02*
D03*
X92795Y320016D02*
D03*
X96181D02*
D03*
X332953Y361221D02*
D03*
X336339D02*
D03*
X332953Y357283D02*
D03*
X336339D02*
D03*
X183346Y381890D02*
D03*
X186732D02*
D03*
X183346Y377953D02*
D03*
X186732D02*
D03*
X336339Y402658D02*
D03*
X332953D02*
D03*
X183346Y401575D02*
D03*
X186732D02*
D03*
X332953Y302362D02*
D03*
X336339D02*
D03*
X375709Y286024D02*
D03*
X372323D02*
D03*
X332953Y286024D02*
D03*
X336339D02*
D03*
X297520Y606299D02*
D03*
X300905D02*
D03*
X434764Y617736D02*
D03*
X431378D02*
D03*
X434764Y621673D02*
D03*
X431378D02*
D03*
X434764Y612736D02*
D03*
X431378D02*
D03*
X434764Y607736D02*
D03*
X431378D02*
D03*
X392008Y607800D02*
D03*
X395394D02*
D03*
D67*
X263779Y63386D02*
D03*
X260039D02*
D03*
X267520D02*
D03*
Y54724D02*
D03*
X263779D02*
D03*
X260039D02*
D03*
D68*
X441218Y101397D02*
D03*
X199182D02*
D03*
M02*
