G04*
G04 #@! TF.GenerationSoftware,Altium Limited,Altium Designer,20.0.13 (296)*
G04*
G04 Layer_Color=16711935*
%FSLAX25Y25*%
%MOIN*%
G70*
G01*
G75*
%ADD10C,0.00394*%
%ADD11C,0.00787*%
D10*
X321372Y127758D02*
X332172D01*
Y139958D01*
X321372D02*
X332172D01*
X321372Y127758D02*
Y139958D01*
X346331Y364231D02*
X362331D01*
X346331Y344431D02*
Y364231D01*
Y344431D02*
X362331D01*
Y364231D01*
X232382Y568012D02*
Y581595D01*
Y568012D02*
X247933D01*
Y581595D01*
X232382D02*
X247933D01*
X340931Y377901D02*
Y409501D01*
Y377901D02*
X367731D01*
Y409501D01*
X340931D02*
X367731D01*
X285376Y297624D02*
Y324424D01*
X305176D01*
Y297624D02*
Y324424D01*
X285376Y297624D02*
X305176D01*
X340931Y309003D02*
X367731D01*
Y290703D02*
Y309003D01*
X340931Y290703D02*
X367731D01*
X340931D02*
Y309003D01*
X277559Y269685D02*
X305118D01*
Y242126D02*
Y269685D01*
X277559Y242126D02*
X305118D01*
X277559D02*
Y269685D01*
Y266535D02*
X280709Y269685D01*
X85600Y312900D02*
Y329100D01*
X67000D02*
X85600D01*
X67000Y312900D02*
Y329100D01*
Y312900D02*
X85600D01*
X342257Y53455D02*
Y64655D01*
X350657D01*
Y53455D02*
Y64655D01*
X342257Y53455D02*
X350657D01*
X193701Y249803D02*
X200000D01*
Y238386D02*
Y249803D01*
X193701Y238386D02*
X200000D01*
X193701D02*
Y249803D01*
Y246063D02*
X197441Y249803D01*
X370866Y135827D02*
X374606Y139567D01*
X370866Y128150D02*
Y139567D01*
Y128150D02*
X377165D01*
Y139567D01*
X370866D02*
X377165D01*
X187008Y393504D02*
Y397835D01*
X183071Y393504D02*
X187008D01*
X183071D02*
Y397835D01*
X187008D01*
X269685Y125984D02*
X271654Y127953D01*
Y125984D02*
Y141732D01*
X255906D02*
X271654D01*
X255906Y125984D02*
Y141732D01*
Y125984D02*
X271654D01*
X324809Y48355D02*
Y69855D01*
Y48355D02*
X336609D01*
Y69855D01*
X324809D02*
X336609D01*
X190650Y396888D02*
Y417088D01*
Y396888D02*
X203050D01*
Y417088D01*
X190650D02*
X203050D01*
X311850Y125158D02*
Y142558D01*
X294450Y125158D02*
X311850D01*
X294450Y142558D02*
X311850D01*
X294450Y125158D02*
Y142558D01*
X59318Y301200D02*
Y312400D01*
X50918D02*
X59318D01*
X50918Y301200D02*
Y312400D01*
Y301200D02*
X59318D01*
X269488Y601181D02*
Y611417D01*
X281693D01*
Y601181D02*
Y611417D01*
X269488Y601181D02*
X281693D01*
X322244Y167913D02*
X343110D01*
Y152264D02*
Y167913D01*
X337894Y147047D02*
X343110Y152264D01*
X327461Y147047D02*
X337894D01*
X322244Y152264D02*
X327461Y147047D01*
X322244Y152264D02*
Y167913D01*
X228720Y239769D02*
X243721D01*
Y264268D01*
X228720D02*
X243721D01*
X228720Y239769D02*
Y264268D01*
X322244Y99803D02*
X343110D01*
X322244D02*
Y115453D01*
X327461Y120669D01*
X337894D01*
X343110Y115453D01*
Y99803D02*
Y115453D01*
X260236Y41142D02*
Y45472D01*
X256299Y41142D02*
X260236D01*
X256299D02*
Y45472D01*
X260236D01*
X194685Y551181D02*
X199016D01*
X194685D02*
Y555118D01*
X199016D01*
Y551181D02*
Y555118D01*
X194685Y523622D02*
X199016D01*
X194685D02*
Y527559D01*
X199016D01*
Y523622D02*
Y527559D01*
X194685Y496063D02*
X199016D01*
X194685D02*
Y500000D01*
X199016D01*
Y496063D02*
Y500000D01*
X198622Y208661D02*
X202953D01*
X198622D02*
Y212598D01*
X202953D01*
Y208661D02*
Y212598D01*
X237992Y208661D02*
X242323D01*
X237992D02*
Y212598D01*
X242323D01*
Y208661D02*
Y212598D01*
X277362Y208661D02*
X281693D01*
X277362D02*
Y212598D01*
X281693D01*
Y208661D02*
Y212598D01*
X415354Y462402D02*
Y466732D01*
X419291D01*
Y462402D02*
Y466732D01*
X415354Y462402D02*
X419291D01*
X450787D02*
Y466732D01*
X454724D01*
Y462402D02*
Y466732D01*
X450787Y462402D02*
X454724D01*
X25394Y329528D02*
Y339764D01*
Y329528D02*
X37598D01*
Y339764D01*
X25394D02*
X37598D01*
X25390Y301969D02*
Y312205D01*
Y301969D02*
X37595D01*
Y312205D01*
X25390D02*
X37595D01*
X258071Y59646D02*
X261811Y55905D01*
X258071D02*
X269488D01*
Y62205D01*
X258071D02*
X269488D01*
X258071Y55905D02*
Y62205D01*
X189764Y588386D02*
X196063D01*
Y576968D02*
Y588386D01*
X189764Y576968D02*
X196063D01*
X189764D02*
Y588386D01*
Y584646D02*
X193504Y588386D01*
X370866Y159449D02*
X374606Y163189D01*
X370866Y151772D02*
Y163189D01*
Y151772D02*
X377165D01*
Y163189D01*
X370866D02*
X377165D01*
X340931Y253885D02*
X367731D01*
Y235585D02*
Y253885D01*
X340931Y235585D02*
X367731D01*
X340931D02*
Y253885D01*
Y281444D02*
X367731D01*
Y263144D02*
Y281444D01*
X340931Y263144D02*
X367731D01*
X340931D02*
Y281444D01*
X277559Y404331D02*
X280709Y407480D01*
X277559Y379921D02*
Y407480D01*
Y379921D02*
X305118D01*
Y407480D01*
X277559D02*
X305118D01*
X193701Y261811D02*
X197441Y265551D01*
X193701Y254134D02*
Y265551D01*
Y254134D02*
X200000D01*
Y265551D01*
X193701D02*
X200000D01*
X228720Y377564D02*
Y402064D01*
X243721D01*
Y377564D02*
Y402064D01*
X228720Y377564D02*
X243721D01*
X59318Y329046D02*
Y340246D01*
X50918D02*
X59318D01*
X50918Y329046D02*
Y340246D01*
Y329046D02*
X59318D01*
D11*
X192950Y389668D02*
X200950D01*
X192950Y376768D02*
Y389668D01*
Y376768D02*
X200950D01*
Y389668D01*
X587432Y444223D02*
X607268D01*
Y390323D02*
Y444223D01*
X587432Y390323D02*
X607268D01*
X587432D02*
Y444223D01*
Y307323D02*
X607268D01*
Y267520D02*
Y307323D01*
X587432Y267520D02*
X607268D01*
X587432D02*
Y307323D01*
X153756Y86398D02*
X173591D01*
X153756D02*
Y116457D01*
X173591D01*
Y86398D02*
Y116457D01*
X153756Y116397D02*
X173591D01*
X153756Y86338D02*
Y116397D01*
Y86338D02*
X173591D01*
Y116397D01*
X390371Y483189D02*
Y585489D01*
X465071D01*
Y483189D02*
Y585489D01*
X390371Y483189D02*
X465071Y483189D01*
X182391Y304746D02*
Y364546D01*
X239491D01*
Y304746D02*
Y364546D01*
X182391Y304746D02*
X239491D01*
X177035Y425224D02*
X256135D01*
X177035Y310624D02*
Y425224D01*
Y310624D02*
X256135D01*
Y425224D01*
X181986Y20680D02*
Y96179D01*
X458886D01*
Y20680D02*
Y96179D01*
X181986Y20680D02*
X458886D01*
X181986Y106124D02*
X458886D01*
Y181624D01*
X181986D02*
X458886D01*
X181986Y106124D02*
Y181624D01*
X587432Y377294D02*
X607268D01*
Y323394D02*
Y377294D01*
X587432Y323394D02*
X607268D01*
X587432D02*
Y377294D01*
Y251309D02*
X607268D01*
Y197409D02*
Y251309D01*
X587432Y197409D02*
X607268D01*
X587432D02*
Y251309D01*
M02*
