G04*
G04 #@! TF.GenerationSoftware,Altium Limited,Altium Designer,20.0.13 (296)*
G04*
G04 Layer_Color=8388736*
%FSLAX25Y25*%
%MOIN*%
G70*
G01*
G75*
%ADD69C,0.03937*%
%ADD70C,0.01000*%
%ADD71R,0.03622X0.01063*%
%ADD72R,0.05197X0.01063*%
%ADD73R,0.02441X0.01063*%
G04:AMPARAMS|DCode=74|XSize=24.41mil|YSize=10.24mil|CornerRadius=1.34mil|HoleSize=0mil|Usage=FLASHONLY|Rotation=0.000|XOffset=0mil|YOffset=0mil|HoleType=Round|Shape=RoundedRectangle|*
%AMROUNDEDRECTD74*
21,1,0.02441,0.00756,0,0,0.0*
21,1,0.02173,0.01024,0,0,0.0*
1,1,0.00268,0.01087,-0.00378*
1,1,0.00268,-0.01087,-0.00378*
1,1,0.00268,-0.01087,0.00378*
1,1,0.00268,0.01087,0.00378*
%
%ADD74ROUNDEDRECTD74*%
G04:AMPARAMS|DCode=75|XSize=24.41mil|YSize=10.24mil|CornerRadius=1.34mil|HoleSize=0mil|Usage=FLASHONLY|Rotation=90.000|XOffset=0mil|YOffset=0mil|HoleType=Round|Shape=RoundedRectangle|*
%AMROUNDEDRECTD75*
21,1,0.02441,0.00756,0,0,90.0*
21,1,0.02173,0.01024,0,0,90.0*
1,1,0.00268,0.00378,0.01087*
1,1,0.00268,0.00378,-0.01087*
1,1,0.00268,-0.00378,-0.01087*
1,1,0.00268,-0.00378,0.01087*
%
%ADD75ROUNDEDRECTD75*%
%ADD76R,0.08465X0.12402*%
%ADD77R,0.10118X0.08150*%
%ADD78R,0.01063X0.02441*%
%ADD79R,0.04016X0.01850*%
%ADD80R,0.01850X0.04016*%
%ADD81R,0.05197X0.02047*%
%ADD82R,0.02047X0.05197*%
%ADD83R,0.10315X0.11890*%
%ADD84R,0.02441X0.01063*%
%ADD85C,0.04016*%
%ADD86R,0.01063X0.02047*%
%ADD87R,0.05591X0.05197*%
%ADD88R,0.03228X0.02047*%
%ADD89R,0.01654X0.01654*%
%ADD90R,0.01654X0.01654*%
%ADD91R,0.02835X0.02047*%
%ADD92R,0.25669X0.12598*%
%ADD93R,0.02126X0.01929*%
%ADD94R,0.11102X0.11102*%
%ADD95R,0.01260X0.02047*%
%ADD96R,0.02047X0.01260*%
%ADD97R,0.01654X0.03228*%
%ADD98R,0.15827X0.11890*%
%ADD99R,0.02441X0.01654*%
%ADD100R,0.02047X0.02441*%
%ADD101R,0.13465X0.03937*%
%ADD102R,0.03228X0.03228*%
G04:AMPARAMS|DCode=103|XSize=28.35mil|YSize=28.35mil|CornerRadius=3.15mil|HoleSize=0mil|Usage=FLASHONLY|Rotation=0.000|XOffset=0mil|YOffset=0mil|HoleType=Round|Shape=RoundedRectangle|*
%AMROUNDEDRECTD103*
21,1,0.02835,0.02205,0,0,0.0*
21,1,0.02205,0.02835,0,0,0.0*
1,1,0.00630,0.01102,-0.01102*
1,1,0.00630,-0.01102,-0.01102*
1,1,0.00630,-0.01102,0.01102*
1,1,0.00630,0.01102,0.01102*
%
%ADD103ROUNDEDRECTD103*%
%ADD104R,0.11890X0.08346*%
G04:AMPARAMS|DCode=105|XSize=63.78mil|YSize=32.68mil|CornerRadius=3.58mil|HoleSize=0mil|Usage=FLASHONLY|Rotation=0.000|XOffset=0mil|YOffset=0mil|HoleType=Round|Shape=RoundedRectangle|*
%AMROUNDEDRECTD105*
21,1,0.06378,0.02551,0,0,0.0*
21,1,0.05661,0.03268,0,0,0.0*
1,1,0.00717,0.02831,-0.01276*
1,1,0.00717,-0.02831,-0.01276*
1,1,0.00717,-0.02831,0.01276*
1,1,0.00717,0.02831,0.01276*
%
%ADD105ROUNDEDRECTD105*%
%ADD106R,0.07953X0.04016*%
%ADD107R,0.02441X0.04016*%
%ADD108R,0.11102X0.08740*%
%ADD109R,0.04803X0.08740*%
%ADD110R,0.05787X0.07756*%
%ADD111R,0.05984X0.03228*%
%ADD112R,0.07953X0.05787*%
%ADD113R,0.04016X0.07953*%
%ADD114R,0.07165X0.07165*%
%ADD115R,0.02047X0.03032*%
%ADD116R,0.02047X0.01654*%
%ADD117R,0.05591X0.07165*%
%ADD118R,0.03228X0.03228*%
%ADD119R,0.01929X0.02126*%
%ADD120R,0.02047X0.03228*%
%ADD121R,0.19764X0.11890*%
%ADD122C,0.09921*%
%ADD123C,0.02953*%
%ADD124C,0.19764*%
%ADD125C,0.04803*%
D69*
X7873Y172799D02*
G03*
X10179Y167231I7874J0D01*
G01*
X167230Y10179D02*
G03*
X172798Y7873I5568J5568D01*
G01*
X172799Y633000D02*
G03*
X167231Y630694I0J-7874D01*
G01*
X10179Y473643D02*
G03*
X7873Y468075I5568J-5568D01*
G01*
X468074Y7873D02*
G03*
X473642Y10179I0J7874D01*
G01*
X630694Y167230D02*
G03*
X633000Y172798I-5568J5568D01*
G01*
X633000Y468074D02*
G03*
X630694Y473642I-7874J0D01*
G01*
X473643Y630694D02*
G03*
X468075Y633000I-5568J-5568D01*
G01*
X172897Y194573D02*
X468173Y194573D01*
X172700Y446300D02*
X467976Y446300D01*
X476000Y625499D02*
X476000Y15800D01*
X164900Y625499D02*
X164900Y14900D01*
X7873Y468074D02*
X7873Y172799D01*
X7873Y468074D02*
X7873Y172799D01*
X633000Y468074D02*
X633000Y172799D01*
X172799Y633000D02*
X468074Y633000D01*
X172799Y7873D02*
X468074Y7873D01*
X172799Y7873D02*
X468074Y7873D01*
X10179Y167231D02*
X167230Y10180D01*
X10180Y473643D02*
X167231Y630694D01*
X473642Y10179D02*
X630693Y167230D01*
X473643Y630693D02*
X630694Y473642D01*
D70*
X10179Y473643D02*
X10180D01*
X167230Y630694D02*
X167231D01*
D71*
X323819Y137795D02*
D03*
Y135827D02*
D03*
Y131890D02*
D03*
Y129921D02*
D03*
D72*
X324606Y133858D02*
D03*
D73*
X330315Y129921D02*
D03*
Y131890D02*
D03*
Y133858D02*
D03*
Y135827D02*
D03*
Y137795D02*
D03*
X232382Y577756D02*
D03*
X247933D02*
D03*
Y571850D02*
D03*
X232382D02*
D03*
D74*
X347835Y355315D02*
D03*
Y353346D02*
D03*
Y351378D02*
D03*
Y349410D02*
D03*
Y347441D02*
D03*
Y357283D02*
D03*
Y359252D02*
D03*
Y361221D02*
D03*
X360827D02*
D03*
Y359252D02*
D03*
Y357283D02*
D03*
Y347441D02*
D03*
Y349410D02*
D03*
Y351378D02*
D03*
Y353346D02*
D03*
Y355315D02*
D03*
D75*
X351378Y345866D02*
D03*
X357283D02*
D03*
X351378Y362795D02*
D03*
X357283D02*
D03*
D76*
X354331Y354331D02*
D03*
D77*
X240158Y574803D02*
D03*
D78*
X235236Y581595D02*
D03*
X237205D02*
D03*
X239173D02*
D03*
X241142D02*
D03*
X243110D02*
D03*
X245079D02*
D03*
Y568012D02*
D03*
X243110D02*
D03*
X241142D02*
D03*
X239173D02*
D03*
X237205D02*
D03*
X235236D02*
D03*
D79*
X365748Y394980D02*
D03*
Y397539D02*
D03*
Y400098D02*
D03*
Y392421D02*
D03*
Y389862D02*
D03*
Y387303D02*
D03*
Y384744D02*
D03*
Y402658D02*
D03*
X342913Y394980D02*
D03*
Y397539D02*
D03*
Y400098D02*
D03*
Y392421D02*
D03*
Y389862D02*
D03*
Y387303D02*
D03*
Y384744D02*
D03*
Y402658D02*
D03*
Y405217D02*
D03*
Y382185D02*
D03*
X365748Y405217D02*
D03*
Y382185D02*
D03*
X342913Y407776D02*
D03*
Y379626D02*
D03*
X365748D02*
D03*
Y407776D02*
D03*
X343307Y307480D02*
D03*
X365354Y292126D02*
D03*
X343307D02*
D03*
Y294685D02*
D03*
Y297244D02*
D03*
Y304921D02*
D03*
Y302362D02*
D03*
Y299803D02*
D03*
X365354Y294685D02*
D03*
Y297244D02*
D03*
Y299803D02*
D03*
Y302362D02*
D03*
Y307480D02*
D03*
Y304921D02*
D03*
X343307Y252362D02*
D03*
X365354Y237008D02*
D03*
X343307D02*
D03*
Y239567D02*
D03*
Y242126D02*
D03*
Y249803D02*
D03*
Y247244D02*
D03*
Y244685D02*
D03*
X365354Y239567D02*
D03*
Y242126D02*
D03*
Y244685D02*
D03*
Y247244D02*
D03*
Y252362D02*
D03*
Y249803D02*
D03*
X343307Y279921D02*
D03*
X365354Y264567D02*
D03*
X343307D02*
D03*
Y267126D02*
D03*
Y269685D02*
D03*
Y277362D02*
D03*
Y274803D02*
D03*
Y272244D02*
D03*
X365354Y267126D02*
D03*
Y269685D02*
D03*
Y272244D02*
D03*
Y274803D02*
D03*
Y279921D02*
D03*
Y277362D02*
D03*
D80*
X286319Y299606D02*
D03*
X304232D02*
D03*
X301673D02*
D03*
X299114D02*
D03*
X296555D02*
D03*
X288878D02*
D03*
X291437D02*
D03*
X293996D02*
D03*
X286319Y322441D02*
D03*
X304232D02*
D03*
X301673D02*
D03*
X299114D02*
D03*
X296555D02*
D03*
X288878D02*
D03*
X291437D02*
D03*
X293996D02*
D03*
D81*
X274606Y266929D02*
D03*
Y263779D02*
D03*
Y260630D02*
D03*
Y257480D02*
D03*
Y254331D02*
D03*
Y251181D02*
D03*
Y248031D02*
D03*
Y244882D02*
D03*
X308071D02*
D03*
Y248031D02*
D03*
Y251181D02*
D03*
Y254331D02*
D03*
Y257480D02*
D03*
Y260630D02*
D03*
Y263779D02*
D03*
Y266929D02*
D03*
Y404724D02*
D03*
Y401575D02*
D03*
Y398425D02*
D03*
Y395276D02*
D03*
Y392126D02*
D03*
Y388976D02*
D03*
Y385827D02*
D03*
Y382677D02*
D03*
X274606D02*
D03*
Y385827D02*
D03*
Y388976D02*
D03*
Y392126D02*
D03*
Y395276D02*
D03*
Y398425D02*
D03*
Y401575D02*
D03*
Y404724D02*
D03*
D82*
X280315Y239173D02*
D03*
X283465D02*
D03*
X286614D02*
D03*
X289764D02*
D03*
X292913D02*
D03*
X296063D02*
D03*
X299213D02*
D03*
X302362D02*
D03*
Y272638D02*
D03*
X299213D02*
D03*
X296063D02*
D03*
X292913D02*
D03*
X289764D02*
D03*
X286614D02*
D03*
X283465D02*
D03*
X280315D02*
D03*
Y410433D02*
D03*
X283465D02*
D03*
X286614D02*
D03*
X289764D02*
D03*
X292913D02*
D03*
X296063D02*
D03*
X299213D02*
D03*
X302362D02*
D03*
Y376969D02*
D03*
X299213D02*
D03*
X296063D02*
D03*
X292913D02*
D03*
X289764D02*
D03*
X286614D02*
D03*
X283465D02*
D03*
X280315D02*
D03*
D83*
X76300Y321000D02*
D03*
D84*
X83780Y320016D02*
D03*
Y318047D02*
D03*
Y316079D02*
D03*
Y321984D02*
D03*
Y323953D02*
D03*
Y325921D02*
D03*
X68820Y320016D02*
D03*
Y318047D02*
D03*
Y316079D02*
D03*
Y321984D02*
D03*
Y323953D02*
D03*
Y325921D02*
D03*
D85*
X360236Y421300D02*
D03*
X216535Y101400D02*
D03*
X423764Y101397D02*
D03*
X303150Y74803D02*
D03*
Y59055D02*
D03*
X283465Y43307D02*
D03*
Y74803D02*
D03*
Y59055D02*
D03*
X507874Y161201D02*
D03*
X263779Y120866D02*
D03*
X275590D02*
D03*
X275590Y169291D02*
D03*
X251969D02*
D03*
X263779D02*
D03*
X358268Y137598D02*
D03*
X240158Y492126D02*
D03*
X251969D02*
D03*
X228346D02*
D03*
X324803Y324300D02*
D03*
X440945Y259842D02*
D03*
X287402Y350394D02*
D03*
X299213D02*
D03*
X440945Y307087D02*
D03*
Y295276D02*
D03*
Y283465D02*
D03*
X429134Y271654D02*
D03*
Y283465D02*
D03*
Y295276D02*
D03*
Y307087D02*
D03*
X204724Y606299D02*
D03*
X192913D02*
D03*
X228346Y468504D02*
D03*
X240158D02*
D03*
X311024Y350394D02*
D03*
X275590D02*
D03*
X251969Y539370D02*
D03*
X240158D02*
D03*
X228346D02*
D03*
X240158Y515748D02*
D03*
X228346D02*
D03*
X251969D02*
D03*
X226378Y590551D02*
D03*
X248031Y287402D02*
D03*
X236221D02*
D03*
X259842D02*
D03*
X181102D02*
D03*
X204724D02*
D03*
X192913D02*
D03*
X372047Y324300D02*
D03*
X360236D02*
D03*
X348425D02*
D03*
X336614D02*
D03*
X397638Y464567D02*
D03*
X433071D02*
D03*
X429134Y421260D02*
D03*
X440945D02*
D03*
X429134Y409449D02*
D03*
X440945D02*
D03*
X429134Y397638D02*
D03*
X440945D02*
D03*
X429134Y385827D02*
D03*
X440945D02*
D03*
X429134Y374016D02*
D03*
X440945D02*
D03*
X429134Y362205D02*
D03*
X440945D02*
D03*
X429134Y350394D02*
D03*
X440945D02*
D03*
X429134Y338583D02*
D03*
X440945D02*
D03*
X342520Y216535D02*
D03*
X330709D02*
D03*
X318898Y216500D02*
D03*
X307087Y216535D02*
D03*
X440945Y271654D02*
D03*
X348425Y421200D02*
D03*
D86*
X343307Y54724D02*
D03*
X344882D02*
D03*
X346457D02*
D03*
X348031D02*
D03*
X349606D02*
D03*
Y63386D02*
D03*
X348031D02*
D03*
X346457D02*
D03*
X344882D02*
D03*
X343307D02*
D03*
D87*
X346457Y59055D02*
D03*
D88*
X192520Y247835D02*
D03*
Y244094D02*
D03*
Y240354D02*
D03*
X201181D02*
D03*
Y247835D02*
D03*
Y244094D02*
D03*
X379134Y137598D02*
D03*
Y130118D02*
D03*
X368898D02*
D03*
Y133858D02*
D03*
Y137598D02*
D03*
X192913Y414370D02*
D03*
Y409449D02*
D03*
Y404528D02*
D03*
Y399606D02*
D03*
X200787Y414370D02*
D03*
Y409449D02*
D03*
Y404528D02*
D03*
Y399606D02*
D03*
X188583Y586417D02*
D03*
Y582677D02*
D03*
Y578937D02*
D03*
X197244D02*
D03*
Y586417D02*
D03*
Y582677D02*
D03*
X379134Y161221D02*
D03*
Y153740D02*
D03*
X368898D02*
D03*
Y157480D02*
D03*
Y161221D02*
D03*
X201181Y259842D02*
D03*
Y263583D02*
D03*
Y256102D02*
D03*
X192520D02*
D03*
Y259842D02*
D03*
Y263583D02*
D03*
D89*
X186811Y394193D02*
D03*
Y397146D02*
D03*
X260039Y41831D02*
D03*
Y44783D02*
D03*
X196850Y554921D02*
D03*
Y527362D02*
D03*
Y499803D02*
D03*
X200787Y212402D02*
D03*
X240158D02*
D03*
X279528D02*
D03*
X415551Y466043D02*
D03*
Y463091D02*
D03*
X450984Y466043D02*
D03*
Y463091D02*
D03*
D90*
X183268Y395669D02*
D03*
X256496Y43307D02*
D03*
X195374Y551378D02*
D03*
X198327D02*
D03*
X195374Y523819D02*
D03*
X198327D02*
D03*
X195374Y496260D02*
D03*
X198327D02*
D03*
X199311Y208858D02*
D03*
X202264D02*
D03*
X238681D02*
D03*
X241634D02*
D03*
X278051D02*
D03*
X281004D02*
D03*
X419095Y464567D02*
D03*
X454528D02*
D03*
D91*
X199213Y388583D02*
D03*
Y385039D02*
D03*
Y381496D02*
D03*
Y377953D02*
D03*
X194488D02*
D03*
Y381496D02*
D03*
Y385039D02*
D03*
Y388583D02*
D03*
D92*
X374016Y46457D02*
D03*
Y71653D02*
D03*
D93*
X228346Y552874D02*
D03*
Y549488D02*
D03*
X287402Y606299D02*
D03*
Y609685D02*
D03*
X240158Y596732D02*
D03*
Y600118D02*
D03*
X364173Y111260D02*
D03*
Y107874D02*
D03*
X342520Y73110D02*
D03*
Y76496D02*
D03*
X320866Y68622D02*
D03*
Y65236D02*
D03*
Y49488D02*
D03*
Y52874D02*
D03*
X350394Y76496D02*
D03*
Y73110D02*
D03*
X334547Y76496D02*
D03*
Y73110D02*
D03*
X255906Y60000D02*
D03*
Y63386D02*
D03*
X267717Y76496D02*
D03*
Y73110D02*
D03*
X263779Y76496D02*
D03*
Y73110D02*
D03*
X267717Y115866D02*
D03*
Y112480D02*
D03*
X263779Y115866D02*
D03*
Y112480D02*
D03*
X275590Y115866D02*
D03*
Y112480D02*
D03*
X271654Y115866D02*
D03*
Y112480D02*
D03*
X255906Y115866D02*
D03*
Y112480D02*
D03*
X259842Y115866D02*
D03*
Y112480D02*
D03*
X183071Y99704D02*
D03*
Y103090D02*
D03*
X267717Y151850D02*
D03*
Y155236D02*
D03*
X259842Y151850D02*
D03*
Y155236D02*
D03*
X263779Y151850D02*
D03*
Y155236D02*
D03*
X350394Y118386D02*
D03*
Y121772D02*
D03*
X346457D02*
D03*
Y118386D02*
D03*
X350443Y145945D02*
D03*
Y149331D02*
D03*
X346506D02*
D03*
Y145945D02*
D03*
X210630Y583032D02*
D03*
Y586417D02*
D03*
X206693D02*
D03*
Y583032D02*
D03*
X179134Y575551D02*
D03*
Y578937D02*
D03*
X183071Y586417D02*
D03*
Y583032D02*
D03*
X179134D02*
D03*
Y586417D02*
D03*
X364173Y157835D02*
D03*
Y161221D02*
D03*
X387795D02*
D03*
Y157835D02*
D03*
X391732D02*
D03*
Y161221D02*
D03*
X364173Y134213D02*
D03*
Y137598D02*
D03*
X387795D02*
D03*
Y134213D02*
D03*
X391732D02*
D03*
Y137598D02*
D03*
X385827Y554843D02*
D03*
Y551457D02*
D03*
X226378Y568465D02*
D03*
Y571850D02*
D03*
X251969Y549488D02*
D03*
Y552874D02*
D03*
X244094Y549488D02*
D03*
Y552874D02*
D03*
X236221Y549488D02*
D03*
Y552874D02*
D03*
X248031Y600118D02*
D03*
Y596732D02*
D03*
X244094Y600118D02*
D03*
Y596732D02*
D03*
X236221Y600118D02*
D03*
Y596732D02*
D03*
X286614Y419567D02*
D03*
Y422953D02*
D03*
X279528Y319173D02*
D03*
Y322559D02*
D03*
X275590Y299488D02*
D03*
Y302874D02*
D03*
X407480Y466260D02*
D03*
Y462874D02*
D03*
X442913Y466260D02*
D03*
Y462874D02*
D03*
X179134Y99704D02*
D03*
Y103090D02*
D03*
X364173Y116417D02*
D03*
Y119803D02*
D03*
X383858Y107874D02*
D03*
Y111260D02*
D03*
X346457Y73110D02*
D03*
Y76496D02*
D03*
X350394Y45000D02*
D03*
Y41614D02*
D03*
X346457Y45000D02*
D03*
Y41614D02*
D03*
X329429Y76496D02*
D03*
Y73110D02*
D03*
X263779Y41614D02*
D03*
Y45000D02*
D03*
X267520Y41614D02*
D03*
Y45000D02*
D03*
X271654Y76496D02*
D03*
Y73110D02*
D03*
X259842Y76496D02*
D03*
Y73110D02*
D03*
X202756Y586417D02*
D03*
Y583032D02*
D03*
X183071Y575551D02*
D03*
Y578937D02*
D03*
X261811Y563937D02*
D03*
Y567323D02*
D03*
X232283Y552874D02*
D03*
Y549488D02*
D03*
Y596732D02*
D03*
Y600118D02*
D03*
X248031Y549488D02*
D03*
Y552874D02*
D03*
X289764Y422953D02*
D03*
Y419567D02*
D03*
X279528Y299488D02*
D03*
Y302874D02*
D03*
X403543Y466260D02*
D03*
Y462874D02*
D03*
X438976Y466260D02*
D03*
Y462874D02*
D03*
X411417D02*
D03*
Y466260D02*
D03*
X446850Y462874D02*
D03*
Y466260D02*
D03*
X296063Y419567D02*
D03*
Y422953D02*
D03*
X292913Y419567D02*
D03*
Y422953D02*
D03*
X329429Y41614D02*
D03*
Y45000D02*
D03*
X334547Y41614D02*
D03*
Y45000D02*
D03*
X222441Y571850D02*
D03*
Y568465D02*
D03*
X226378Y577756D02*
D03*
Y581142D02*
D03*
X307087Y609685D02*
D03*
Y606299D02*
D03*
X291339Y609685D02*
D03*
Y606299D02*
D03*
X311024D02*
D03*
Y609685D02*
D03*
X240158Y552874D02*
D03*
Y549488D02*
D03*
D94*
X263779Y133858D02*
D03*
D95*
X267717Y125984D02*
D03*
X265748D02*
D03*
X263779D02*
D03*
X261811D02*
D03*
X259842D02*
D03*
Y141732D02*
D03*
X261811D02*
D03*
X263779D02*
D03*
X265748D02*
D03*
X267717D02*
D03*
D96*
X255906Y129921D02*
D03*
Y131890D02*
D03*
Y133858D02*
D03*
Y135827D02*
D03*
Y137795D02*
D03*
X271654D02*
D03*
Y135827D02*
D03*
Y133858D02*
D03*
Y131890D02*
D03*
Y129921D02*
D03*
D97*
X326870Y67716D02*
D03*
X329429D02*
D03*
X331988D02*
D03*
X334547D02*
D03*
Y50394D02*
D03*
X331988D02*
D03*
X329429D02*
D03*
X326870D02*
D03*
D98*
X413386Y610236D02*
D03*
D99*
X424016Y602736D02*
D03*
Y607736D02*
D03*
Y612736D02*
D03*
Y617736D02*
D03*
X402756D02*
D03*
Y612736D02*
D03*
Y607736D02*
D03*
Y602736D02*
D03*
D100*
X183268Y405512D02*
D03*
X186811D02*
D03*
X187205Y555118D02*
D03*
X190748D02*
D03*
Y527559D02*
D03*
X187205D02*
D03*
Y500000D02*
D03*
X190748D02*
D03*
X194685Y212598D02*
D03*
X191142D02*
D03*
X230512D02*
D03*
X234055D02*
D03*
X273425D02*
D03*
X269882D02*
D03*
D101*
X303150Y138524D02*
D03*
Y129193D02*
D03*
D102*
X361161Y611073D02*
D03*
Y617274D02*
D03*
X383858Y131398D02*
D03*
Y137598D02*
D03*
Y155020D02*
D03*
Y161221D02*
D03*
X355374Y611073D02*
D03*
Y617274D02*
D03*
D103*
X273228Y492913D02*
D03*
X280315D02*
D03*
X273228Y507087D02*
D03*
Y500000D02*
D03*
X280315Y485827D02*
D03*
X287402D02*
D03*
X280315Y500000D02*
D03*
X287402Y492913D02*
D03*
Y500000D02*
D03*
X273228Y528346D02*
D03*
Y514173D02*
D03*
Y521260D02*
D03*
X280315Y514173D02*
D03*
Y507087D02*
D03*
Y528346D02*
D03*
X287402Y514173D02*
D03*
X280315Y521260D02*
D03*
X294488Y492913D02*
D03*
Y485827D02*
D03*
X301575D02*
D03*
X308661D02*
D03*
X301575Y492913D02*
D03*
X315748Y485827D02*
D03*
X308661Y492913D02*
D03*
X287402Y521260D02*
D03*
X294488Y500000D02*
D03*
X287402Y507087D02*
D03*
X301575Y500000D02*
D03*
X315748Y492913D02*
D03*
X294488Y507087D02*
D03*
X315748Y500000D02*
D03*
X308661D02*
D03*
X273228Y542520D02*
D03*
Y535433D02*
D03*
Y556693D02*
D03*
Y549606D02*
D03*
X280315Y535433D02*
D03*
X287402Y528346D02*
D03*
X280315Y556693D02*
D03*
Y542520D02*
D03*
Y549606D02*
D03*
X273228Y563779D02*
D03*
X280315D02*
D03*
X273228Y570866D02*
D03*
Y577953D02*
D03*
X287402Y563779D02*
D03*
Y556693D02*
D03*
X280315Y585039D02*
D03*
Y570866D02*
D03*
Y577953D02*
D03*
X287402Y542520D02*
D03*
Y535433D02*
D03*
Y577953D02*
D03*
Y549606D02*
D03*
Y570866D02*
D03*
X294488D02*
D03*
Y563779D02*
D03*
X301575Y570866D02*
D03*
X315748D02*
D03*
X308661D02*
D03*
X287402Y585039D02*
D03*
X294488Y577953D02*
D03*
Y585039D02*
D03*
X301575Y577953D02*
D03*
X308661D02*
D03*
X301575Y585039D02*
D03*
X315748D02*
D03*
X308661D02*
D03*
X322835Y485827D02*
D03*
X329921D02*
D03*
X322835Y492913D02*
D03*
X329921D02*
D03*
X337008Y485827D02*
D03*
X344094D02*
D03*
X337008Y492913D02*
D03*
X351181Y485827D02*
D03*
X358268Y492913D02*
D03*
X329921Y500000D02*
D03*
X344094Y492913D02*
D03*
X322835Y500000D02*
D03*
X344094D02*
D03*
X337008D02*
D03*
X351181D02*
D03*
Y492913D02*
D03*
Y507087D02*
D03*
X358268Y500000D02*
D03*
Y528346D02*
D03*
Y485827D02*
D03*
X365354Y492913D02*
D03*
X358268Y514173D02*
D03*
X365354Y500000D02*
D03*
X358268Y507087D02*
D03*
X365354Y485827D02*
D03*
X372441Y492913D02*
D03*
X365354Y507087D02*
D03*
X372441Y500000D02*
D03*
Y507087D02*
D03*
X358268Y521260D02*
D03*
X365354Y514173D02*
D03*
Y535433D02*
D03*
Y521260D02*
D03*
Y528346D02*
D03*
X372441D02*
D03*
Y514173D02*
D03*
Y521260D02*
D03*
X322835Y570866D02*
D03*
X329921D02*
D03*
X322835Y577953D02*
D03*
X337008Y570866D02*
D03*
X358268Y542520D02*
D03*
Y535433D02*
D03*
X344094Y570866D02*
D03*
X351181Y563779D02*
D03*
Y570866D02*
D03*
X315748Y577953D02*
D03*
X329921D02*
D03*
X322835Y585039D02*
D03*
X337008Y577953D02*
D03*
X329921Y585039D02*
D03*
X344094Y577953D02*
D03*
X351181D02*
D03*
X337008Y585039D02*
D03*
X351181D02*
D03*
X344094D02*
D03*
X358268Y549606D02*
D03*
X365354Y542520D02*
D03*
X358268Y563779D02*
D03*
X365354Y549606D02*
D03*
X358268Y556693D02*
D03*
X372441Y542520D02*
D03*
Y535433D02*
D03*
X365354Y556693D02*
D03*
X372441Y549606D02*
D03*
Y556693D02*
D03*
X358268Y570866D02*
D03*
X365354Y563779D02*
D03*
X358268Y585039D02*
D03*
X365354Y570866D02*
D03*
X358268Y577953D02*
D03*
X372441Y570866D02*
D03*
Y563779D02*
D03*
X365354Y577953D02*
D03*
X372441D02*
D03*
X365354Y585039D02*
D03*
D104*
X161811Y88897D02*
D03*
Y113897D02*
D03*
D105*
X173228Y98936D02*
D03*
Y103858D02*
D03*
D106*
X275590Y601181D02*
D03*
Y611417D02*
D03*
D107*
X281496Y606299D02*
D03*
D108*
X445827Y554331D02*
D03*
X420315Y554331D02*
D03*
X445827Y488189D02*
D03*
X420315D02*
D03*
D109*
X433071Y554331D02*
D03*
Y488189D02*
D03*
D110*
X461496Y505236D02*
D03*
X393937Y505236D02*
D03*
D111*
X219291Y334272D02*
D03*
Y329941D02*
D03*
Y338602D02*
D03*
Y342933D02*
D03*
Y347264D02*
D03*
Y325610D02*
D03*
Y321280D02*
D03*
Y316949D02*
D03*
D112*
X196850Y361713D02*
D03*
Y307579D02*
D03*
X229528D02*
D03*
Y361713D02*
D03*
D113*
X332677Y167323D02*
D03*
Y147638D02*
D03*
Y100394D02*
D03*
Y120079D02*
D03*
D114*
X374016Y110236D02*
D03*
D115*
X368701Y107874D02*
D03*
X379331D02*
D03*
D116*
X368701Y110925D02*
D03*
Y113287D02*
D03*
X379331D02*
D03*
Y110925D02*
D03*
D117*
X231496Y243307D02*
D03*
Y260630D02*
D03*
X240945D02*
D03*
Y243307D02*
D03*
Y381102D02*
D03*
Y398425D02*
D03*
X231496D02*
D03*
Y381102D02*
D03*
D118*
X355374Y606299D02*
D03*
X349173D02*
D03*
X361161D02*
D03*
X367362D02*
D03*
D119*
X352638Y602362D02*
D03*
X356024D02*
D03*
X352638Y598425D02*
D03*
X356024D02*
D03*
X363898Y602362D02*
D03*
X360512D02*
D03*
X363898Y598425D02*
D03*
X360512D02*
D03*
X422953Y480315D02*
D03*
X419567D02*
D03*
X432795D02*
D03*
X429410D02*
D03*
X449094D02*
D03*
X452480D02*
D03*
X444606D02*
D03*
X441221D02*
D03*
X190669Y547244D02*
D03*
X187284D02*
D03*
X190669Y559055D02*
D03*
X187284D02*
D03*
Y551181D02*
D03*
X190669D02*
D03*
Y519685D02*
D03*
X187284D02*
D03*
X190669Y531496D02*
D03*
X187284D02*
D03*
Y523622D02*
D03*
X190669D02*
D03*
Y492126D02*
D03*
X187284D02*
D03*
X190669Y503937D02*
D03*
X187284D02*
D03*
Y496063D02*
D03*
X190669D02*
D03*
X332953Y252362D02*
D03*
X336339D02*
D03*
X332953Y242126D02*
D03*
X336339D02*
D03*
X375709Y237008D02*
D03*
X372323D02*
D03*
X375709Y247244D02*
D03*
X372323D02*
D03*
X265472Y395276D02*
D03*
X262087D02*
D03*
X265472Y388976D02*
D03*
X262087D02*
D03*
X317205Y385827D02*
D03*
X320590D02*
D03*
X229803Y404724D02*
D03*
X233189D02*
D03*
X242638Y374803D02*
D03*
X239252D02*
D03*
X186732Y263583D02*
D03*
X183346D02*
D03*
X206968Y259842D02*
D03*
X210354D02*
D03*
X183346Y247835D02*
D03*
X186732D02*
D03*
Y244094D02*
D03*
X183346D02*
D03*
X246339Y338602D02*
D03*
X249724D02*
D03*
X262087Y257480D02*
D03*
X265472D02*
D03*
X262087Y251181D02*
D03*
X265472D02*
D03*
X320590Y248031D02*
D03*
X317205D02*
D03*
X233189Y266929D02*
D03*
X229803D02*
D03*
X239252Y237008D02*
D03*
X242638D02*
D03*
X293150Y279528D02*
D03*
X289764D02*
D03*
X194606Y204724D02*
D03*
X191220D02*
D03*
X194606Y216535D02*
D03*
X191220D02*
D03*
Y208661D02*
D03*
X194606D02*
D03*
X233976Y204724D02*
D03*
X230591D02*
D03*
X233976Y216535D02*
D03*
X230591D02*
D03*
Y208661D02*
D03*
X233976D02*
D03*
X273346Y204724D02*
D03*
X269961D02*
D03*
X273346Y216535D02*
D03*
X269961D02*
D03*
Y208661D02*
D03*
X273346D02*
D03*
X375709Y407776D02*
D03*
X372323D02*
D03*
X332953D02*
D03*
X336339D02*
D03*
X576496Y342954D02*
D03*
X573110D02*
D03*
X576496Y347876D02*
D03*
X573110D02*
D03*
X576496Y352797D02*
D03*
X573110D02*
D03*
X576496Y216970D02*
D03*
X573110D02*
D03*
X576496Y221891D02*
D03*
X573110D02*
D03*
X576496Y226813D02*
D03*
X573110D02*
D03*
X210354Y404528D02*
D03*
X206968D02*
D03*
X183346Y409449D02*
D03*
X186732D02*
D03*
X183346Y414370D02*
D03*
X186732D02*
D03*
X576496Y409883D02*
D03*
X573110D02*
D03*
X576496Y414805D02*
D03*
X573110D02*
D03*
X576496Y419726D02*
D03*
X573110D02*
D03*
X72093Y331200D02*
D03*
X68707D02*
D03*
X96181Y323953D02*
D03*
X92795D02*
D03*
X332953Y353346D02*
D03*
X336339D02*
D03*
X210354Y381890D02*
D03*
X206968D02*
D03*
X210354Y385827D02*
D03*
X206968D02*
D03*
X186732D02*
D03*
X183346D02*
D03*
X186732Y389764D02*
D03*
X183346D02*
D03*
X573110Y284941D02*
D03*
X576496D02*
D03*
X375709Y307480D02*
D03*
X372323D02*
D03*
X332953Y307480D02*
D03*
X336339D02*
D03*
X332953Y297244D02*
D03*
X336339D02*
D03*
X332953Y292126D02*
D03*
X336339D02*
D03*
X246339Y133858D02*
D03*
X249724D02*
D03*
X246339Y137795D02*
D03*
X249724D02*
D03*
X281221D02*
D03*
X277835D02*
D03*
X340827D02*
D03*
X344213D02*
D03*
X340827Y133858D02*
D03*
X344213D02*
D03*
Y129921D02*
D03*
X340827D02*
D03*
X337165Y476378D02*
D03*
X340551D02*
D03*
X308780D02*
D03*
X305394D02*
D03*
X198543Y559055D02*
D03*
X195158D02*
D03*
X198543Y531496D02*
D03*
X195158D02*
D03*
X198543Y503937D02*
D03*
X195158D02*
D03*
X198543Y547244D02*
D03*
X195158D02*
D03*
X198543Y519685D02*
D03*
X195158D02*
D03*
X198543Y492126D02*
D03*
X195158D02*
D03*
X336339Y247244D02*
D03*
X332953D02*
D03*
X336339Y237008D02*
D03*
X332953D02*
D03*
X372323Y242126D02*
D03*
X375709D02*
D03*
X372323Y252362D02*
D03*
X375709D02*
D03*
Y279921D02*
D03*
X372323D02*
D03*
X375709Y274803D02*
D03*
X372323D02*
D03*
X375709Y269685D02*
D03*
X372323D02*
D03*
X375709Y264567D02*
D03*
X372323D02*
D03*
X332953Y264567D02*
D03*
X336339D02*
D03*
X332953Y269685D02*
D03*
X336339D02*
D03*
X332953Y274803D02*
D03*
X336339D02*
D03*
X332953Y279921D02*
D03*
X336339D02*
D03*
X186732Y256102D02*
D03*
X183346D02*
D03*
X206968D02*
D03*
X210354D02*
D03*
X206968Y244094D02*
D03*
X210354D02*
D03*
X186732Y240354D02*
D03*
X183346D02*
D03*
X249724Y325610D02*
D03*
X246339D02*
D03*
X249724Y342933D02*
D03*
X246339D02*
D03*
X249724Y334272D02*
D03*
X246339D02*
D03*
Y321280D02*
D03*
X249724D02*
D03*
X246339Y347264D02*
D03*
X249724D02*
D03*
X246339Y329941D02*
D03*
X249724D02*
D03*
X286614Y279528D02*
D03*
X283228D02*
D03*
X202480Y216535D02*
D03*
X199094D02*
D03*
X241850D02*
D03*
X238465D02*
D03*
X281221D02*
D03*
X277835D02*
D03*
X202480Y204724D02*
D03*
X199094D02*
D03*
X241850D02*
D03*
X238465D02*
D03*
X281221D02*
D03*
X277835D02*
D03*
X206968Y414370D02*
D03*
X210354D02*
D03*
X206968Y409449D02*
D03*
X210354D02*
D03*
X92795Y316079D02*
D03*
X96181D02*
D03*
X92795Y320016D02*
D03*
X96181D02*
D03*
X332953Y361221D02*
D03*
X336339D02*
D03*
X332953Y357283D02*
D03*
X336339D02*
D03*
X183346Y381890D02*
D03*
X186732D02*
D03*
X183346Y377953D02*
D03*
X186732D02*
D03*
X336339Y402658D02*
D03*
X332953D02*
D03*
X183346Y401575D02*
D03*
X186732D02*
D03*
X332953Y302362D02*
D03*
X336339D02*
D03*
X375709Y286024D02*
D03*
X372323D02*
D03*
X332953Y286024D02*
D03*
X336339D02*
D03*
X297520Y606299D02*
D03*
X300905D02*
D03*
X434764Y617736D02*
D03*
X431378D02*
D03*
X434764Y621673D02*
D03*
X431378D02*
D03*
X434764Y612736D02*
D03*
X431378D02*
D03*
X434764Y607736D02*
D03*
X431378D02*
D03*
X392008Y607800D02*
D03*
X395394D02*
D03*
D120*
X263779Y63386D02*
D03*
X260039D02*
D03*
X267520D02*
D03*
Y54724D02*
D03*
X263779D02*
D03*
X260039D02*
D03*
D121*
X441218Y101397D02*
D03*
X199182D02*
D03*
D122*
X444202Y58479D02*
D03*
X414202Y68480D02*
D03*
Y48480D02*
D03*
X226171D02*
D03*
Y68480D02*
D03*
X196171Y58479D02*
D03*
Y143924D02*
D03*
X226171Y153924D02*
D03*
Y133924D02*
D03*
X414202D02*
D03*
Y153924D02*
D03*
X444202Y143924D02*
D03*
D123*
X475948Y68197D02*
D03*
Y60717D02*
D03*
Y53237D02*
D03*
Y45757D02*
D03*
Y38277D02*
D03*
Y23317D02*
D03*
Y30797D02*
D03*
Y165437D02*
D03*
Y83157D02*
D03*
Y75677D02*
D03*
Y120557D02*
D03*
Y128037D02*
D03*
Y135517D02*
D03*
Y142997D02*
D03*
Y150477D02*
D03*
Y157957D02*
D03*
Y172917D02*
D03*
X459221Y194573D02*
D03*
X443363Y194573D02*
D03*
X435434D02*
D03*
X427505D02*
D03*
X419577D02*
D03*
X411648D02*
D03*
X403719D02*
D03*
X395791D02*
D03*
X387862D02*
D03*
X372004D02*
D03*
X332360D02*
D03*
X340289D02*
D03*
X350100Y194600D02*
D03*
X357800D02*
D03*
X364075Y194573D02*
D03*
X451292D02*
D03*
X316503D02*
D03*
X308574D02*
D03*
X300645D02*
D03*
X292717D02*
D03*
X284788D02*
D03*
X276859D02*
D03*
X268930D02*
D03*
X261002D02*
D03*
X253073D02*
D03*
X245144D02*
D03*
X205500D02*
D03*
X213429D02*
D03*
X221358D02*
D03*
X229287D02*
D03*
X237215D02*
D03*
X324432D02*
D03*
X189643D02*
D03*
X181714D02*
D03*
X197572D02*
D03*
X476000Y463000D02*
D03*
X164800D02*
D03*
X443301Y446300D02*
D03*
X459159D02*
D03*
X451230D02*
D03*
X316441D02*
D03*
X403658D02*
D03*
X411586D02*
D03*
X419515D02*
D03*
X427444D02*
D03*
X435373D02*
D03*
X395729D02*
D03*
X387800D02*
D03*
X379871D02*
D03*
X371943D02*
D03*
X364014D02*
D03*
X356085D02*
D03*
X348156D02*
D03*
X340228D02*
D03*
X332299D02*
D03*
X324370D02*
D03*
X189581D02*
D03*
X276798D02*
D03*
X284726D02*
D03*
X292655D02*
D03*
X300584D02*
D03*
X308512D02*
D03*
X268869D02*
D03*
X260940D02*
D03*
X253011D02*
D03*
X245082D02*
D03*
X237154D02*
D03*
X229225D02*
D03*
X221296D02*
D03*
X205439D02*
D03*
X197510D02*
D03*
X181652Y446300D02*
D03*
X164900Y616200D02*
D03*
X164873Y601609D02*
D03*
Y594314D02*
D03*
Y579724D02*
D03*
Y572428D02*
D03*
Y565133D02*
D03*
Y557838D02*
D03*
Y550543D02*
D03*
Y543248D02*
D03*
Y535952D02*
D03*
Y521362D02*
D03*
Y528657D02*
D03*
Y608905D02*
D03*
Y477591D02*
D03*
X164873Y470295D02*
D03*
X164873Y484886D02*
D03*
Y492181D02*
D03*
Y499476D02*
D03*
Y506771D02*
D03*
Y514067D02*
D03*
X476001Y572428D02*
D03*
Y579724D02*
D03*
Y587019D02*
D03*
Y594314D02*
D03*
Y601609D02*
D03*
X476001Y616200D02*
D03*
X476001Y608905D02*
D03*
Y477591D02*
D03*
Y557838D02*
D03*
Y565133D02*
D03*
Y550543D02*
D03*
Y543248D02*
D03*
Y535952D02*
D03*
Y528657D02*
D03*
Y521362D02*
D03*
Y514067D02*
D03*
Y506771D02*
D03*
Y499476D02*
D03*
Y492181D02*
D03*
Y484886D02*
D03*
X476001Y470295D02*
D03*
X164872Y157957D02*
D03*
Y150477D02*
D03*
Y142997D02*
D03*
Y135517D02*
D03*
Y128037D02*
D03*
Y120557D02*
D03*
Y75677D02*
D03*
X164900Y81400D02*
D03*
X164872Y165437D02*
D03*
X164872Y23317D02*
D03*
X164872Y38277D02*
D03*
Y45757D02*
D03*
Y53237D02*
D03*
Y60717D02*
D03*
Y68197D02*
D03*
X7873Y196761D02*
D03*
Y180800D02*
D03*
Y188780D02*
D03*
Y324448D02*
D03*
Y236663D02*
D03*
Y228683D02*
D03*
Y220702D02*
D03*
Y212722D02*
D03*
Y204741D02*
D03*
Y244643D02*
D03*
Y252624D02*
D03*
Y260604D02*
D03*
Y268585D02*
D03*
Y276565D02*
D03*
Y284545D02*
D03*
Y292526D02*
D03*
Y300506D02*
D03*
Y308487D02*
D03*
Y316467D02*
D03*
Y452134D02*
D03*
Y364350D02*
D03*
Y356369D02*
D03*
Y348389D02*
D03*
Y340408D02*
D03*
Y332428D02*
D03*
Y372330D02*
D03*
Y380311D02*
D03*
Y388291D02*
D03*
Y396271D02*
D03*
Y404252D02*
D03*
Y412232D02*
D03*
Y420213D02*
D03*
Y428193D02*
D03*
Y436173D02*
D03*
Y444154D02*
D03*
Y460115D02*
D03*
X633000Y444112D02*
D03*
Y460073D02*
D03*
Y452093D02*
D03*
Y316425D02*
D03*
Y404210D02*
D03*
Y412190D02*
D03*
Y420171D02*
D03*
Y428151D02*
D03*
Y436132D02*
D03*
Y396230D02*
D03*
Y388249D02*
D03*
Y380269D02*
D03*
Y372288D02*
D03*
Y364308D02*
D03*
Y356328D02*
D03*
Y348347D02*
D03*
Y340367D02*
D03*
Y332386D02*
D03*
Y324406D02*
D03*
Y188739D02*
D03*
Y276523D02*
D03*
Y284504D02*
D03*
Y292484D02*
D03*
Y300465D02*
D03*
Y308445D02*
D03*
Y268543D02*
D03*
Y260562D02*
D03*
Y252582D02*
D03*
Y244602D02*
D03*
Y236621D02*
D03*
Y228641D02*
D03*
Y220660D02*
D03*
Y212680D02*
D03*
Y204700D02*
D03*
Y196719D02*
D03*
Y180758D02*
D03*
X444112Y7873D02*
D03*
X460073D02*
D03*
X452093D02*
D03*
X316425D02*
D03*
X404210D02*
D03*
X412190D02*
D03*
X420171D02*
D03*
X428151D02*
D03*
X436132D02*
D03*
X396230D02*
D03*
X388249D02*
D03*
X380269D02*
D03*
X372288D02*
D03*
X364308D02*
D03*
X356328D02*
D03*
X348347D02*
D03*
X340367D02*
D03*
X332386D02*
D03*
X324406D02*
D03*
X188739D02*
D03*
X276523D02*
D03*
X284504D02*
D03*
X292484D02*
D03*
X300465D02*
D03*
X308445D02*
D03*
X268543D02*
D03*
X260562D02*
D03*
X252582D02*
D03*
X244602D02*
D03*
X236621D02*
D03*
X228641D02*
D03*
X220660D02*
D03*
X212680D02*
D03*
X204699D02*
D03*
X196719D02*
D03*
X180758D02*
D03*
X459159Y633000D02*
D03*
X443301Y633000D02*
D03*
X435373D02*
D03*
X427444D02*
D03*
X419515D02*
D03*
X411586D02*
D03*
X403658D02*
D03*
X395729D02*
D03*
X387800D02*
D03*
X379871D02*
D03*
X371943D02*
D03*
X332299D02*
D03*
X340228D02*
D03*
X348156D02*
D03*
X356085D02*
D03*
X364014D02*
D03*
X451230D02*
D03*
X316441D02*
D03*
X308512D02*
D03*
X300584D02*
D03*
X292655D02*
D03*
X284726D02*
D03*
X276798D02*
D03*
X268869D02*
D03*
X260940D02*
D03*
X253011D02*
D03*
X245082D02*
D03*
X205439D02*
D03*
X213367D02*
D03*
X221296D02*
D03*
X229225D02*
D03*
X237154D02*
D03*
X324370D02*
D03*
X189581D02*
D03*
X181652Y633000D02*
D03*
X197510Y633000D02*
D03*
D124*
X468074Y186647D02*
D03*
X172798D02*
D03*
X468075Y454226D02*
D03*
X172799D02*
D03*
X15747Y468075D02*
D03*
X15746Y172799D02*
D03*
X625126Y172798D02*
D03*
X625126Y468074D02*
D03*
X172798Y15747D02*
D03*
X468074Y15747D02*
D03*
X172799Y625127D02*
D03*
X468075Y625126D02*
D03*
D125*
X360236Y421300D02*
D03*
X216535Y101400D02*
D03*
X423764Y101397D02*
D03*
X303150Y74803D02*
D03*
Y59055D02*
D03*
X283465Y43307D02*
D03*
Y74803D02*
D03*
Y59055D02*
D03*
X507874Y161201D02*
D03*
X263779Y120866D02*
D03*
X275590D02*
D03*
X275590Y169291D02*
D03*
X251969D02*
D03*
X263779D02*
D03*
X358268Y137598D02*
D03*
X240158Y492126D02*
D03*
X251969D02*
D03*
X228346D02*
D03*
X324803Y324300D02*
D03*
X440945Y259842D02*
D03*
X287402Y350394D02*
D03*
X299213D02*
D03*
X440945Y307087D02*
D03*
Y295276D02*
D03*
Y283465D02*
D03*
X429134Y271654D02*
D03*
Y283465D02*
D03*
Y295276D02*
D03*
Y307087D02*
D03*
X204724Y606299D02*
D03*
X192913D02*
D03*
X228346Y468504D02*
D03*
X240158D02*
D03*
X311024Y350394D02*
D03*
X275590D02*
D03*
X251969Y539370D02*
D03*
X240158D02*
D03*
X228346D02*
D03*
X240158Y515748D02*
D03*
X228346D02*
D03*
X251969D02*
D03*
X226378Y590551D02*
D03*
X248031Y287402D02*
D03*
X236221D02*
D03*
X259842D02*
D03*
X181102D02*
D03*
X204724D02*
D03*
X192913D02*
D03*
X372047Y324300D02*
D03*
X360236D02*
D03*
X348425D02*
D03*
X336614D02*
D03*
X397638Y464567D02*
D03*
X433071D02*
D03*
X429134Y421260D02*
D03*
X440945D02*
D03*
X429134Y409449D02*
D03*
X440945D02*
D03*
X429134Y397638D02*
D03*
X440945D02*
D03*
X429134Y385827D02*
D03*
X440945D02*
D03*
X429134Y374016D02*
D03*
X440945D02*
D03*
X429134Y362205D02*
D03*
X440945D02*
D03*
X429134Y350394D02*
D03*
X440945D02*
D03*
X429134Y338583D02*
D03*
X440945D02*
D03*
X342520Y216535D02*
D03*
X330709D02*
D03*
X318898Y216500D02*
D03*
X307087Y216535D02*
D03*
X440945Y271654D02*
D03*
X348425Y421200D02*
D03*
M02*
