G04*
G04 #@! TF.GenerationSoftware,Altium Limited,Altium Designer,20.0.13 (296)*
G04*
G04 Layer_Color=16711935*
%FSLAX25Y25*%
%MOIN*%
G70*
G01*
G75*
%ADD10C,0.00394*%
%ADD70C,0.01000*%
D10*
X409449Y190584D02*
G03*
X409449Y182710I0J-3937D01*
G01*
X231102D02*
G03*
X231102Y190584I0J3937D01*
G01*
X448819Y11810D02*
G03*
X448819Y19684I0J3937D01*
G01*
X409449D02*
G03*
X409449Y11810I0J-3937D01*
G01*
X191732Y19684D02*
G03*
X191732Y11810I0J-3937D01*
G01*
X231102D02*
G03*
X231102Y19684I0J3937D01*
G01*
X448819Y182710D02*
G03*
X448819Y190584I0J3937D01*
G01*
X191732D02*
G03*
X191732Y182710I0J-3937D01*
G01*
X409449Y190584D02*
X448819D01*
X191732D02*
X231102D01*
X409449Y11810D02*
X448819D01*
X191732Y11810D02*
X231102D01*
D70*
X172799Y640873D02*
G03*
X158879Y635107I0J-19685D01*
G01*
X481994Y635107D02*
G03*
X468074Y640873I-13919J-13919D01*
G01*
X-0Y172799D02*
G03*
X5766Y158879I19685J0D01*
G01*
X5766Y481994D02*
G03*
X-0Y468074I13919J-13919D01*
G01*
X640873Y468074D02*
G03*
X635107Y481994I-19685J0D01*
G01*
X635107Y158879D02*
G03*
X640873Y172799I-13919J13919D01*
G01*
X158879Y5766D02*
G03*
X172799Y0I13919J13919D01*
G01*
X468074Y0D02*
G03*
X481994Y5766I0J19685D01*
G01*
X172799Y640873D02*
X468074Y640873D01*
X5766Y481994D02*
X158879Y635107D01*
X481994Y635107D02*
X635107Y481994D01*
X-0Y468074D02*
X-0Y172799D01*
X640873Y468074D02*
X640873Y172799D01*
X5766Y158879D02*
X158879Y5766D01*
X481994Y5766D02*
X635107Y158879D01*
X172799Y0D02*
X468074Y0D01*
M02*
