G04*
G04 #@! TF.GenerationSoftware,Altium Limited,Altium Designer,20.0.13 (296)*
G04*
G04 Layer_Color=128*
%FSLAX25Y25*%
%MOIN*%
G70*
G01*
G75*
%ADD40R,0.02047X0.01850*%
%ADD51R,0.11811X0.08268*%
G04:AMPARAMS|DCode=52|XSize=62.99mil|YSize=31.89mil|CornerRadius=3.19mil|HoleSize=0mil|Usage=FLASHONLY|Rotation=0.000|XOffset=0mil|YOffset=0mil|HoleType=Round|Shape=RoundedRectangle|*
%AMROUNDEDRECTD52*
21,1,0.06299,0.02551,0,0,0.0*
21,1,0.05661,0.03189,0,0,0.0*
1,1,0.00638,0.02831,-0.01276*
1,1,0.00638,-0.02831,-0.01276*
1,1,0.00638,-0.02831,0.01276*
1,1,0.00638,0.02831,0.01276*
%
%ADD52ROUNDEDRECTD52*%
%ADD53R,0.07874X0.03937*%
%ADD54R,0.02362X0.03937*%
%ADD66R,0.01850X0.02047*%
%ADD135R,0.07874X0.02362*%
%ADD136R,0.06299X0.03189*%
%ADD137R,0.15748X0.15748*%
%ADD138R,0.43307X0.31496*%
D40*
X183071Y103091D02*
D03*
Y99705D02*
D03*
X43200Y333007D02*
D03*
Y336393D02*
D03*
X43307Y305394D02*
D03*
Y308780D02*
D03*
X179134Y103091D02*
D03*
Y99705D02*
D03*
D51*
X599213Y439608D02*
D03*
Y394923D02*
D03*
Y304823D02*
D03*
Y269980D02*
D03*
X161811Y113898D02*
D03*
Y88898D02*
D03*
X599213Y372679D02*
D03*
Y327994D02*
D03*
Y246694D02*
D03*
Y202009D02*
D03*
D52*
X587795Y424647D02*
D03*
Y429568D02*
D03*
Y419726D02*
D03*
Y409883D02*
D03*
Y414805D02*
D03*
Y404962D02*
D03*
Y289862D02*
D03*
Y294783D02*
D03*
Y284941D02*
D03*
Y280020D02*
D03*
Y357718D02*
D03*
Y362639D02*
D03*
Y352797D02*
D03*
Y342954D02*
D03*
Y347876D02*
D03*
Y338033D02*
D03*
Y231734D02*
D03*
Y236655D02*
D03*
Y226813D02*
D03*
Y216970D02*
D03*
Y221891D02*
D03*
Y212049D02*
D03*
D53*
X31496Y339764D02*
D03*
Y329528D02*
D03*
X31492Y312205D02*
D03*
Y301969D02*
D03*
D54*
X37402Y334646D02*
D03*
X37398Y307087D02*
D03*
D66*
X576496Y284941D02*
D03*
X573110D02*
D03*
Y342954D02*
D03*
X576496D02*
D03*
X573110Y347876D02*
D03*
X576496D02*
D03*
X573110Y352797D02*
D03*
X576496D02*
D03*
X573110Y216970D02*
D03*
X576496D02*
D03*
X573110Y221891D02*
D03*
X576496D02*
D03*
X573110Y226813D02*
D03*
X576496D02*
D03*
X573110Y409883D02*
D03*
X576496D02*
D03*
X573110Y414805D02*
D03*
X576496D02*
D03*
X573110Y419726D02*
D03*
X576496D02*
D03*
X573110Y357718D02*
D03*
X576496D02*
D03*
X573110Y362639D02*
D03*
X576496D02*
D03*
X573110Y231734D02*
D03*
X576496D02*
D03*
X573110Y236655D02*
D03*
X576496D02*
D03*
X573110Y424647D02*
D03*
X576496D02*
D03*
X573110Y429568D02*
D03*
X576496D02*
D03*
D135*
X55118Y302666D02*
D03*
Y310934D02*
D03*
Y330512D02*
D03*
Y338779D02*
D03*
D136*
X173228Y103858D02*
D03*
Y98937D02*
D03*
D137*
X216535Y332480D02*
D03*
Y417323D02*
D03*
D138*
X429242Y58479D02*
D03*
X211131D02*
D03*
Y143924D02*
D03*
X429242D02*
D03*
M02*
