G04*
G04 #@! TF.GenerationSoftware,Altium Limited,Altium Designer,20.0.13 (296)*
G04*
G04 Layer_Color=32896*
%FSLAX25Y25*%
%MOIN*%
G70*
G01*
G75*
%ADD16C,0.00197*%
D16*
X353150Y354331D02*
X355512D01*
X354331Y353150D02*
Y355512D01*
X362331Y344431D02*
Y364231D01*
X346331Y344431D02*
X362331D01*
X346331D02*
Y364231D01*
X362331D01*
X230258Y565903D02*
Y583703D01*
Y565903D02*
X250058D01*
Y583703D01*
X230258D02*
X250058D01*
X238976Y574703D02*
X241339D01*
X240158Y573522D02*
Y575884D01*
X270639Y235206D02*
Y276606D01*
Y235206D02*
X312039D01*
Y276606D01*
X270639D02*
X312039D01*
X290158Y255906D02*
X292520D01*
X291339Y254724D02*
Y257087D01*
X196850Y242913D02*
Y245276D01*
X195669Y244094D02*
X198031D01*
X190350Y250095D02*
X203250D01*
Y238094D02*
Y250095D01*
X190350Y238094D02*
X203250D01*
X190350D02*
Y250095D01*
X367016Y127858D02*
Y139858D01*
Y127858D02*
X381016D01*
Y139858D01*
X367016D02*
X381016D01*
X372835Y133858D02*
X375197D01*
X374016Y132677D02*
Y135039D01*
X182039Y398169D02*
X188039D01*
X182039Y393169D02*
Y398169D01*
Y393169D02*
X188039D01*
Y398169D01*
X185039Y394488D02*
Y396850D01*
X183858Y395669D02*
X186221D01*
X196850Y382087D02*
Y384449D01*
X195669Y383268D02*
X198031D01*
X192450Y390068D02*
X201250D01*
X192450Y376468D02*
Y390068D01*
Y376468D02*
X201250D01*
Y390068D01*
X372835Y59055D02*
X375197D01*
X374016Y57874D02*
Y60236D01*
X387016Y35055D02*
Y83155D01*
X361016Y35055D02*
Y83155D01*
X387016D01*
X361016Y35055D02*
X387016D01*
X226772Y554134D02*
X229921D01*
X226772Y548228D02*
X229921D01*
Y554134D01*
X226772Y548228D02*
Y554134D01*
X228346Y550000D02*
Y552362D01*
X227165Y551181D02*
X229528D01*
X185039Y404331D02*
Y406693D01*
X183858Y405512D02*
X186221D01*
X182087Y407087D02*
X187992D01*
X182087Y403937D02*
X187992D01*
X182087D02*
Y407087D01*
X187992Y403937D02*
Y407087D01*
X286221Y607992D02*
X288583D01*
X287402Y606811D02*
Y609173D01*
X285827Y605039D02*
Y610945D01*
X288976Y605039D02*
Y610945D01*
X285827Y605039D02*
X288976D01*
X285827Y610945D02*
X288976D01*
X359261Y609173D02*
Y619173D01*
Y609173D02*
X363061D01*
X359261Y619173D02*
X363061D01*
Y609173D02*
Y619173D01*
X361161Y612992D02*
Y615354D01*
X359980Y614173D02*
X362343D01*
X322835Y534252D02*
Y536614D01*
X321654Y535433D02*
X324016D01*
X267335Y590933D02*
X378335D01*
Y479933D02*
Y590933D01*
X267335Y479933D02*
X378335D01*
X267335D02*
Y590933D01*
X152891Y118397D02*
X176891D01*
X152891Y84397D02*
Y118397D01*
Y84397D02*
X176891D01*
Y118397D01*
X169291Y100216D02*
Y102578D01*
X168110Y101397D02*
X170472D01*
X274410Y606299D02*
X276772D01*
X275590Y605118D02*
Y607480D01*
X269491Y596899D02*
Y615699D01*
X285191D01*
Y596899D02*
Y615699D01*
X269491Y596899D02*
X285191D01*
X390871Y483689D02*
X390871Y584889D01*
X464471D01*
Y483689D02*
Y584889D01*
X390871Y483689D02*
X464471D01*
X218110Y334646D02*
X220472D01*
X219291Y333465D02*
Y335827D01*
X182391Y304746D02*
Y364546D01*
X239591D01*
Y304746D02*
Y364546D01*
X182391Y304746D02*
X239591D01*
X381958Y129498D02*
Y139498D01*
Y129498D02*
X385758D01*
X381958Y139498D02*
X385758D01*
Y129498D02*
Y139498D01*
X383858Y133317D02*
Y135679D01*
X382677Y134498D02*
X385039D01*
X238976Y598425D02*
X241339D01*
X240158Y597244D02*
Y599606D01*
X238583Y595472D02*
Y601378D01*
X241732Y595472D02*
Y601378D01*
X238583Y595472D02*
X241732D01*
X238583Y601378D02*
X241732D01*
X228720Y239769D02*
X243721D01*
Y264268D01*
X228720D02*
X243721D01*
X228720Y239769D02*
Y264268D01*
X236320Y250787D02*
Y253150D01*
X235139Y251969D02*
X237502D01*
X362598Y112520D02*
X365748D01*
X362598Y106614D02*
X365748D01*
Y112520D01*
X362598Y106614D02*
Y112520D01*
X364173Y108386D02*
Y110748D01*
X362992Y109567D02*
X365354D01*
X340945Y71850D02*
X344094D01*
X340945Y77756D02*
X344094D01*
X340945Y71850D02*
Y77756D01*
X344094Y71850D02*
Y77756D01*
X342520Y73622D02*
Y75984D01*
X341339Y74803D02*
X343701D01*
X319291Y69882D02*
X322441D01*
X319291Y63976D02*
X322441D01*
Y69882D01*
X319291Y63976D02*
Y69882D01*
X320866Y65748D02*
Y68110D01*
X319685Y66929D02*
X322047D01*
X319291Y48228D02*
X322441D01*
X319291Y54134D02*
X322441D01*
X319291Y48228D02*
Y54134D01*
X322441Y48228D02*
Y54134D01*
X320866Y50000D02*
Y52362D01*
X319685Y51181D02*
X322047D01*
X348819Y77756D02*
X351969D01*
X348819Y71850D02*
X351969D01*
Y77756D01*
X348819Y71850D02*
Y77756D01*
X350394Y73622D02*
Y75984D01*
X349213Y74803D02*
X351575D01*
X332972Y77756D02*
X336122D01*
X332972Y71850D02*
X336122D01*
Y77756D01*
X332972Y71850D02*
Y77756D01*
X334547Y73622D02*
Y75984D01*
X333366Y74803D02*
X335728D01*
X254331Y58740D02*
X257480D01*
X254331Y64646D02*
X257480D01*
X254331Y58740D02*
Y64646D01*
X257480Y58740D02*
Y64646D01*
X255906Y60512D02*
Y62874D01*
X254724Y61693D02*
X257087D01*
X266142Y77756D02*
X269291D01*
X266142Y71850D02*
X269291D01*
Y77756D01*
X266142Y71850D02*
Y77756D01*
X267717Y73622D02*
Y75984D01*
X266535Y74803D02*
X268898D01*
X262205Y77756D02*
X265354D01*
X262205Y71850D02*
X265354D01*
Y77756D01*
X262205Y71850D02*
Y77756D01*
X263779Y73622D02*
Y75984D01*
X262598Y74803D02*
X264961D01*
X266142Y117126D02*
X269291D01*
X266142Y111221D02*
X269291D01*
Y117126D01*
X266142Y111221D02*
Y117126D01*
X267717Y112992D02*
Y115354D01*
X266535Y114173D02*
X268898D01*
X262205Y117126D02*
X265354D01*
X262205Y111221D02*
X265354D01*
Y117126D01*
X262205Y111221D02*
Y117126D01*
X263779Y112992D02*
Y115354D01*
X262598Y114173D02*
X264961D01*
X274016Y117126D02*
X277165D01*
X274016Y111221D02*
X277165D01*
Y117126D01*
X274016Y111221D02*
Y117126D01*
X275590Y112992D02*
Y115354D01*
X274410Y114173D02*
X276772D01*
X270079Y117126D02*
X273228D01*
X270079Y111221D02*
X273228D01*
Y117126D01*
X270079Y111221D02*
Y117126D01*
X271654Y112992D02*
Y115354D01*
X270472Y114173D02*
X272835D01*
X254331Y117126D02*
X257480D01*
X254331Y111221D02*
X257480D01*
Y117126D01*
X254331Y111221D02*
Y117126D01*
X255906Y112992D02*
Y115354D01*
X254724Y114173D02*
X257087D01*
X258268Y117126D02*
X261417D01*
X258268Y111221D02*
X261417D01*
Y117126D01*
X258268Y111221D02*
Y117126D01*
X259842Y112992D02*
Y115354D01*
X258661Y114173D02*
X261024D01*
X181496Y98444D02*
X184646D01*
X181496Y104350D02*
X184646D01*
X181496Y98444D02*
Y104350D01*
X184646Y98444D02*
Y104350D01*
X183071Y100216D02*
Y102578D01*
X181890Y101397D02*
X184252D01*
X266142Y150591D02*
X269291D01*
X266142Y156496D02*
X269291D01*
X266142Y150591D02*
Y156496D01*
X269291Y150591D02*
Y156496D01*
X267717Y152362D02*
Y154724D01*
X266535Y153543D02*
X268898D01*
X258268Y150591D02*
X261417D01*
X258268Y156496D02*
X261417D01*
X258268Y150591D02*
Y156496D01*
X261417Y150591D02*
Y156496D01*
X259842Y152362D02*
Y154724D01*
X258661Y153543D02*
X261024D01*
X262205Y150591D02*
X265354D01*
X262205Y156496D02*
X265354D01*
X262205Y150591D02*
Y156496D01*
X265354Y150591D02*
Y156496D01*
X263779Y152362D02*
Y154724D01*
X262598Y153543D02*
X264961D01*
X348819Y117126D02*
X351969D01*
X348819Y123031D02*
X351969D01*
X348819Y117126D02*
Y123031D01*
X351969Y117126D02*
Y123031D01*
X350394Y118898D02*
Y121260D01*
X349213Y120079D02*
X351575D01*
X344882Y123031D02*
X348031D01*
X344882Y117126D02*
X348031D01*
Y123031D01*
X344882Y117126D02*
Y123031D01*
X346457Y118898D02*
Y121260D01*
X345276Y120079D02*
X347638D01*
X348868Y144685D02*
X352018D01*
X348868Y150591D02*
X352018D01*
X348868Y144685D02*
Y150591D01*
X352018Y144685D02*
Y150591D01*
X350443Y146457D02*
Y148819D01*
X349262Y147638D02*
X351624D01*
X344932Y150591D02*
X348081D01*
X344932Y144685D02*
X348081D01*
Y150591D01*
X344932Y144685D02*
Y150591D01*
X346506Y146457D02*
Y148819D01*
X345325Y147638D02*
X347687D01*
X209055Y581772D02*
X212205D01*
X209055Y587677D02*
X212205D01*
X209055Y581772D02*
Y587677D01*
X212205Y581772D02*
Y587677D01*
X210630Y583543D02*
Y585906D01*
X209449Y584724D02*
X211811D01*
X205118Y587677D02*
X208268D01*
X205118Y581772D02*
X208268D01*
Y587677D01*
X205118Y581772D02*
Y587677D01*
X206693Y583543D02*
Y585906D01*
X205512Y584724D02*
X207874D01*
X352274Y605118D02*
Y607480D01*
X351093Y606299D02*
X353455D01*
X347274Y604399D02*
X357274D01*
Y608199D01*
X347274Y604399D02*
Y608199D01*
X357274D01*
X351378Y600787D02*
Y603937D01*
X357283Y600787D02*
Y603937D01*
X351378D02*
X357283D01*
X351378Y600787D02*
X357283D01*
X353150Y602362D02*
X355512D01*
X354331Y601181D02*
Y603543D01*
X351378Y596850D02*
Y600000D01*
X357283Y596850D02*
Y600000D01*
X351378D02*
X357283D01*
X351378Y596850D02*
X357283D01*
X353150Y598425D02*
X355512D01*
X354331Y597244D02*
Y599606D01*
X177559Y574291D02*
X180709D01*
X177559Y580197D02*
X180709D01*
X177559Y574291D02*
Y580197D01*
X180709Y574291D02*
Y580197D01*
X179134Y576063D02*
Y578425D01*
X177953Y577244D02*
X180315D01*
X181496Y587677D02*
X184646D01*
X181496Y581772D02*
X184646D01*
Y587677D01*
X181496Y581772D02*
Y587677D01*
X183071Y583543D02*
Y585906D01*
X181890Y584724D02*
X184252D01*
X177559Y581772D02*
X180709D01*
X177559Y587677D02*
X180709D01*
X177559Y581772D02*
Y587677D01*
X180709Y581772D02*
Y587677D01*
X179134Y583543D02*
Y585906D01*
X177953Y584724D02*
X180315D01*
X364262Y605118D02*
Y607480D01*
X363081Y606299D02*
X365443D01*
X359262Y608199D02*
X369262D01*
X359262Y604399D02*
Y608199D01*
X369262Y604399D02*
Y608199D01*
X359262Y604399D02*
X369262D01*
X365158Y600787D02*
Y603937D01*
X359252Y600787D02*
Y603937D01*
Y600787D02*
X365158D01*
X359252Y603937D02*
X365158D01*
X361024Y602362D02*
X363386D01*
X362205Y601181D02*
Y603543D01*
X365158Y596850D02*
Y600000D01*
X359252Y596850D02*
Y600000D01*
Y596850D02*
X365158D01*
X359252Y600000D02*
X365158D01*
X361024Y598425D02*
X363386D01*
X362205Y597244D02*
Y599606D01*
X362992Y159528D02*
X365354D01*
X364173Y158346D02*
Y160709D01*
X362598Y156575D02*
Y162480D01*
X365748Y156575D02*
Y162480D01*
X362598Y156575D02*
X365748D01*
X362598Y162480D02*
X365748D01*
X381958Y153120D02*
Y163120D01*
Y153120D02*
X385758D01*
X381958Y163120D02*
X385758D01*
Y153120D02*
Y163120D01*
X383858Y156939D02*
Y159301D01*
X382677Y158120D02*
X385039D01*
X386614Y159528D02*
X388976D01*
X387795Y158346D02*
Y160709D01*
X389370Y156575D02*
Y162480D01*
X386221Y156575D02*
Y162480D01*
X389370D01*
X386221Y156575D02*
X389370D01*
X390551Y159528D02*
X392913D01*
X391732Y158346D02*
Y160709D01*
X390158Y156575D02*
Y162480D01*
X393307Y156575D02*
Y162480D01*
X390158Y156575D02*
X393307D01*
X390158Y162480D02*
X393307D01*
X362992Y135906D02*
X365354D01*
X364173Y134724D02*
Y137087D01*
X362598Y132953D02*
Y138858D01*
X365748Y132953D02*
Y138858D01*
X362598Y132953D02*
X365748D01*
X362598Y138858D02*
X365748D01*
X386614Y135906D02*
X388976D01*
X387795Y134724D02*
Y137087D01*
X389370Y132953D02*
Y138858D01*
X386221Y132953D02*
Y138858D01*
X389370D01*
X386221Y132953D02*
X389370D01*
X390551Y135906D02*
X392913D01*
X391732Y134724D02*
Y137087D01*
X390158Y132953D02*
Y138858D01*
X393307Y132953D02*
Y138858D01*
X390158Y132953D02*
X393307D01*
X390158Y138858D02*
X393307D01*
X384646Y553150D02*
X387008D01*
X385827Y551968D02*
Y554331D01*
X387402Y550197D02*
Y556102D01*
X384252Y550197D02*
Y556102D01*
X387402D01*
X384252Y550197D02*
X387402D01*
X421260Y479134D02*
Y481496D01*
X420079Y480315D02*
X422441D01*
X418307Y478740D02*
X424213D01*
X418307Y481890D02*
X424213D01*
Y478740D02*
Y481890D01*
X418307Y478740D02*
Y481890D01*
X431102Y479134D02*
Y481496D01*
X429921Y480315D02*
X432283D01*
X428150Y478740D02*
X434055D01*
X428150Y481890D02*
X434055D01*
Y478740D02*
Y481890D01*
X428150Y478740D02*
Y481890D01*
X450787Y479134D02*
Y481496D01*
X449606Y480315D02*
X451968D01*
X447835Y481890D02*
X453740D01*
X447835Y478740D02*
X453740D01*
X447835D02*
Y481890D01*
X453740Y478740D02*
Y481890D01*
X442913Y479134D02*
Y481496D01*
X441732Y480315D02*
X444095D01*
X439961Y478740D02*
X445866D01*
X439961Y481890D02*
X445866D01*
Y478740D02*
Y481890D01*
X439961Y478740D02*
Y481890D01*
X191929Y545669D02*
Y548819D01*
X186024Y545669D02*
Y548819D01*
Y545669D02*
X191929D01*
X186024Y548819D02*
X191929D01*
X187795Y547244D02*
X190157D01*
X188976Y546063D02*
Y548425D01*
X191929Y557480D02*
Y560630D01*
X186024Y557480D02*
Y560630D01*
Y557480D02*
X191929D01*
X186024Y560630D02*
X191929D01*
X187795Y559055D02*
X190157D01*
X188976Y557874D02*
Y560236D01*
X186024Y549606D02*
Y552756D01*
X191929Y549606D02*
Y552756D01*
X186024D02*
X191929D01*
X186024Y549606D02*
X191929D01*
X187795Y551181D02*
X190157D01*
X188976Y550000D02*
Y552362D01*
X191929Y518110D02*
Y521260D01*
X186024Y518110D02*
Y521260D01*
Y518110D02*
X191929D01*
X186024Y521260D02*
X191929D01*
X187795Y519685D02*
X190157D01*
X188976Y518504D02*
Y520866D01*
X191929Y529921D02*
Y533071D01*
X186024Y529921D02*
Y533071D01*
Y529921D02*
X191929D01*
X186024Y533071D02*
X191929D01*
X187795Y531496D02*
X190157D01*
X188976Y530315D02*
Y532677D01*
X186024Y522047D02*
Y525197D01*
X191929Y522047D02*
Y525197D01*
X186024D02*
X191929D01*
X186024Y522047D02*
X191929D01*
X187795Y523622D02*
X190157D01*
X188976Y522441D02*
Y524803D01*
X191929Y490551D02*
Y493701D01*
X186024Y490551D02*
Y493701D01*
Y490551D02*
X191929D01*
X186024Y493701D02*
X191929D01*
X187795Y492126D02*
X190157D01*
X188976Y490945D02*
Y493307D01*
X191929Y502362D02*
Y505512D01*
X186024Y502362D02*
Y505512D01*
Y502362D02*
X191929D01*
X186024Y505512D02*
X191929D01*
X187795Y503937D02*
X190157D01*
X188976Y502756D02*
Y505118D01*
X186024Y494488D02*
Y497638D01*
X191929Y494488D02*
Y497638D01*
X186024D02*
X191929D01*
X186024Y494488D02*
X191929D01*
X187795Y496063D02*
X190157D01*
X188976Y494882D02*
Y497244D01*
X331693Y250787D02*
Y253937D01*
X337598Y250787D02*
Y253937D01*
X331693D02*
X337598D01*
X331693Y250787D02*
X337598D01*
X333465Y252362D02*
X335827D01*
X334646Y251181D02*
Y253543D01*
X331693Y240551D02*
Y243701D01*
X337598Y240551D02*
Y243701D01*
X331693D02*
X337598D01*
X331693Y240551D02*
X337598D01*
X333465Y242126D02*
X335827D01*
X334646Y240945D02*
Y243307D01*
X376969Y235433D02*
Y238583D01*
X371063Y235433D02*
Y238583D01*
Y235433D02*
X376969D01*
X371063Y238583D02*
X376969D01*
X372835Y237008D02*
X375197D01*
X374016Y235827D02*
Y238189D01*
X376969Y245669D02*
Y248819D01*
X371063Y245669D02*
Y248819D01*
Y245669D02*
X376969D01*
X371063Y248819D02*
X376969D01*
X372835Y247244D02*
X375197D01*
X374016Y246063D02*
Y248425D01*
X224803Y567205D02*
X227953D01*
X224803Y573110D02*
X227953D01*
X224803Y567205D02*
Y573110D01*
X227953Y567205D02*
Y573110D01*
X226378Y568976D02*
Y571339D01*
X225197Y570157D02*
X227559D01*
X250394Y548228D02*
X253543D01*
X250394Y554134D02*
X253543D01*
X250394Y548228D02*
Y554134D01*
X253543Y548228D02*
Y554134D01*
X251969Y550000D02*
Y552362D01*
X250787Y551181D02*
X253150D01*
X242520Y548228D02*
X245669D01*
X242520Y554134D02*
X245669D01*
X242520Y548228D02*
Y554134D01*
X245669Y548228D02*
Y554134D01*
X244094Y550000D02*
Y552362D01*
X242913Y551181D02*
X245276D01*
X234646Y548228D02*
X237795D01*
X234646Y554134D02*
X237795D01*
X234646Y548228D02*
Y554134D01*
X237795Y548228D02*
Y554134D01*
X236221Y550000D02*
Y552362D01*
X235039Y551181D02*
X237402D01*
X246457Y601378D02*
X249606D01*
X246457Y595472D02*
X249606D01*
Y601378D01*
X246457Y595472D02*
Y601378D01*
X248031Y597244D02*
Y599606D01*
X246850Y598425D02*
X249213D01*
X242520Y601378D02*
X245669D01*
X242520Y595472D02*
X245669D01*
Y601378D01*
X242520Y595472D02*
Y601378D01*
X244094Y597244D02*
Y599606D01*
X242913Y598425D02*
X245276D01*
X234646Y601378D02*
X237795D01*
X234646Y595472D02*
X237795D01*
Y601378D01*
X234646Y595472D02*
Y601378D01*
X236221Y597244D02*
Y599606D01*
X235039Y598425D02*
X237402D01*
X263779Y394094D02*
Y396457D01*
X262598Y395276D02*
X264961D01*
X260827Y393701D02*
X266732D01*
X260827Y396850D02*
X266732D01*
Y393701D02*
Y396850D01*
X260827Y393701D02*
Y396850D01*
X263779Y387795D02*
Y390158D01*
X262598Y388976D02*
X264961D01*
X260827Y387402D02*
X266732D01*
X260827Y390551D02*
X266732D01*
Y387402D02*
Y390551D01*
X260827Y387402D02*
Y390551D01*
X318898Y384646D02*
Y387008D01*
X317717Y385827D02*
X320079D01*
X315945Y387402D02*
X321850D01*
X315945Y384252D02*
X321850D01*
X315945D02*
Y387402D01*
X321850Y384252D02*
Y387402D01*
X231496Y403543D02*
Y405905D01*
X230315Y404724D02*
X232677D01*
X228543Y406299D02*
X234449D01*
X228543Y403150D02*
X234449D01*
X228543D02*
Y406299D01*
X234449Y403150D02*
Y406299D01*
X240945Y373622D02*
Y375984D01*
X239764Y374803D02*
X242126D01*
X237992Y373228D02*
X243898D01*
X237992Y376378D02*
X243898D01*
Y373228D02*
Y376378D01*
X237992Y373228D02*
Y376378D01*
X285433Y421260D02*
X287795D01*
X286614Y420079D02*
Y422441D01*
X285039Y418307D02*
Y424213D01*
X288189Y418307D02*
Y424213D01*
X285039Y418307D02*
X288189D01*
X285039Y424213D02*
X288189D01*
X185039Y262402D02*
Y264764D01*
X183858Y263583D02*
X186221D01*
X182087Y262008D02*
X187992D01*
X182087Y265158D02*
X187992D01*
Y262008D02*
Y265158D01*
X182087Y262008D02*
Y265158D01*
X208661Y258661D02*
Y261024D01*
X207480Y259842D02*
X209842D01*
X205709Y261417D02*
X211614D01*
X205709Y258268D02*
X211614D01*
X205709D02*
Y261417D01*
X211614Y258268D02*
Y261417D01*
X185039Y246654D02*
Y249016D01*
X183858Y247835D02*
X186221D01*
X182087Y249410D02*
X187992D01*
X182087Y246260D02*
X187992D01*
X182087D02*
Y249410D01*
X187992Y246260D02*
Y249410D01*
X185039Y242913D02*
Y245276D01*
X183858Y244094D02*
X186221D01*
X182087Y242520D02*
X187992D01*
X182087Y245669D02*
X187992D01*
Y242520D02*
Y245669D01*
X182087Y242520D02*
Y245669D01*
X278346Y320866D02*
X280709D01*
X279528Y319685D02*
Y322047D01*
X277953Y317913D02*
Y323819D01*
X281102Y317913D02*
Y323819D01*
X277953Y317913D02*
X281102D01*
X277953Y323819D02*
X281102D01*
X274410Y301181D02*
X276772D01*
X275590Y300000D02*
Y302362D01*
X274016Y298228D02*
Y304134D01*
X277165Y298228D02*
Y304134D01*
X274016Y298228D02*
X277165D01*
X274016Y304134D02*
X277165D01*
X248031Y337421D02*
Y339784D01*
X246850Y338602D02*
X249213D01*
X245079Y340177D02*
X250984D01*
X245079Y337028D02*
X250984D01*
X245079D02*
Y340177D01*
X250984Y337028D02*
Y340177D01*
X260827Y255906D02*
Y259055D01*
X266732Y255906D02*
Y259055D01*
X260827D02*
X266732D01*
X260827Y255906D02*
X266732D01*
X262598Y257480D02*
X264961D01*
X263779Y256299D02*
Y258661D01*
X260827Y249606D02*
Y252756D01*
X266732Y249606D02*
Y252756D01*
X260827D02*
X266732D01*
X260827Y249606D02*
X266732D01*
X262598Y251181D02*
X264961D01*
X263779Y250000D02*
Y252362D01*
X321850Y246457D02*
Y249606D01*
X315945Y246457D02*
Y249606D01*
Y246457D02*
X321850D01*
X315945Y249606D02*
X321850D01*
X317717Y248031D02*
X320079D01*
X318898Y246850D02*
Y249213D01*
X234449Y265354D02*
Y268504D01*
X228543Y265354D02*
Y268504D01*
Y265354D02*
X234449D01*
X228543Y268504D02*
X234449D01*
X230315Y266929D02*
X232677D01*
X231496Y265748D02*
Y268110D01*
X237992Y235433D02*
Y238583D01*
X243898Y235433D02*
Y238583D01*
X237992D02*
X243898D01*
X237992Y235433D02*
X243898D01*
X239764Y237008D02*
X242126D01*
X240945Y235827D02*
Y238189D01*
X294409Y277953D02*
Y281102D01*
X288504Y277953D02*
Y281102D01*
Y277953D02*
X294409D01*
X288504Y281102D02*
X294409D01*
X290276Y279528D02*
X292638D01*
X291457Y278346D02*
Y280709D01*
X195866Y203150D02*
Y206299D01*
X189961Y203150D02*
Y206299D01*
Y203150D02*
X195866D01*
X189961Y206299D02*
X195866D01*
X191732Y204724D02*
X194095D01*
X192913Y203543D02*
Y205906D01*
X195866Y214961D02*
Y218110D01*
X189961Y214961D02*
Y218110D01*
Y214961D02*
X195866D01*
X189961Y218110D02*
X195866D01*
X191732Y216535D02*
X194095D01*
X192913Y215354D02*
Y217717D01*
X189961Y207087D02*
Y210236D01*
X195866Y207087D02*
Y210236D01*
X189961D02*
X195866D01*
X189961Y207087D02*
X195866D01*
X191732Y208661D02*
X194095D01*
X192913Y207480D02*
Y209842D01*
X235236Y203150D02*
Y206299D01*
X229331Y203150D02*
Y206299D01*
Y203150D02*
X235236D01*
X229331Y206299D02*
X235236D01*
X231102Y204724D02*
X233465D01*
X232283Y203543D02*
Y205906D01*
X235236Y214961D02*
Y218110D01*
X229331Y214961D02*
Y218110D01*
Y214961D02*
X235236D01*
X229331Y218110D02*
X235236D01*
X231102Y216535D02*
X233465D01*
X232283Y215354D02*
Y217717D01*
X229331Y207087D02*
Y210236D01*
X235236Y207087D02*
Y210236D01*
X229331D02*
X235236D01*
X229331Y207087D02*
X235236D01*
X231102Y208661D02*
X233465D01*
X232283Y207480D02*
Y209842D01*
X274606Y203150D02*
Y206299D01*
X268701Y203150D02*
Y206299D01*
Y203150D02*
X274606D01*
X268701Y206299D02*
X274606D01*
X270472Y204724D02*
X272835D01*
X271654Y203543D02*
Y205906D01*
X274606Y214961D02*
Y218110D01*
X268701Y214961D02*
Y218110D01*
Y214961D02*
X274606D01*
X268701Y218110D02*
X274606D01*
X270472Y216535D02*
X272835D01*
X271654Y215354D02*
Y217717D01*
X268701Y207087D02*
Y210236D01*
X274606Y207087D02*
Y210236D01*
X268701D02*
X274606D01*
X268701Y207087D02*
X274606D01*
X270472Y208661D02*
X272835D01*
X271654Y207480D02*
Y209842D01*
X405905Y467520D02*
X409055D01*
X405905Y461614D02*
X409055D01*
Y467520D01*
X405905Y461614D02*
Y467520D01*
X407480Y463386D02*
Y465748D01*
X406299Y464567D02*
X408661D01*
X441339Y467520D02*
X444488D01*
X441339Y461614D02*
X444488D01*
Y467520D01*
X441339Y461614D02*
Y467520D01*
X442913Y463386D02*
Y465748D01*
X441732Y464567D02*
X444095D01*
X376969Y406201D02*
Y409350D01*
X371063Y406201D02*
Y409350D01*
Y406201D02*
X376969D01*
X371063Y409350D02*
X376969D01*
X372835Y407776D02*
X375197D01*
X374016Y406595D02*
Y408957D01*
X331693Y406201D02*
Y409350D01*
X337598Y406201D02*
Y409350D01*
X331693D02*
X337598D01*
X331693Y406201D02*
X337598D01*
X333465Y407776D02*
X335827D01*
X334646Y406595D02*
Y408957D01*
X574803Y341773D02*
Y344135D01*
X573622Y342954D02*
X575984D01*
X571850Y341379D02*
X577756D01*
X571850Y344529D02*
X577756D01*
Y341379D02*
Y344529D01*
X571850Y341379D02*
Y344529D01*
X574803Y346694D02*
Y349057D01*
X573622Y347876D02*
X575984D01*
X571850Y346301D02*
X577756D01*
X571850Y349450D02*
X577756D01*
Y346301D02*
Y349450D01*
X571850Y346301D02*
Y349450D01*
X574803Y351616D02*
Y353978D01*
X573622Y352797D02*
X575984D01*
X571850Y351222D02*
X577756D01*
X571850Y354372D02*
X577756D01*
Y351222D02*
Y354372D01*
X571850Y351222D02*
Y354372D01*
X574803Y215789D02*
Y218151D01*
X573622Y216970D02*
X575984D01*
X571850Y215395D02*
X577756D01*
X571850Y218545D02*
X577756D01*
Y215395D02*
Y218545D01*
X571850Y215395D02*
Y218545D01*
X574803Y220710D02*
Y223072D01*
X573622Y221891D02*
X575984D01*
X571850Y220317D02*
X577756D01*
X571850Y223466D02*
X577756D01*
Y220317D02*
Y223466D01*
X571850Y220317D02*
Y223466D01*
X574803Y225631D02*
Y227994D01*
X573622Y226813D02*
X575984D01*
X571850Y225238D02*
X577756D01*
X571850Y228387D02*
X577756D01*
Y225238D02*
Y228387D01*
X571850Y225238D02*
Y228387D01*
X211614Y402953D02*
Y406102D01*
X205709Y402953D02*
Y406102D01*
Y402953D02*
X211614D01*
X205709Y406102D02*
X211614D01*
X207480Y404528D02*
X209842D01*
X208661Y403346D02*
Y405709D01*
X182087Y407874D02*
Y411024D01*
X187992Y407874D02*
Y411024D01*
X182087D02*
X187992D01*
X182087Y407874D02*
X187992D01*
X183858Y409449D02*
X186221D01*
X185039Y408268D02*
Y410630D01*
X182087Y412795D02*
Y415945D01*
X187992Y412795D02*
Y415945D01*
X182087D02*
X187992D01*
X182087Y412795D02*
X187992D01*
X183858Y414370D02*
X186221D01*
X185039Y413189D02*
Y415551D01*
X574803Y408702D02*
Y411065D01*
X573622Y409883D02*
X575984D01*
X571850Y408309D02*
X577756D01*
X571850Y411458D02*
X577756D01*
Y408309D02*
Y411458D01*
X571850Y408309D02*
Y411458D01*
X574803Y413624D02*
Y415986D01*
X573622Y414805D02*
X575984D01*
X571850Y413230D02*
X577756D01*
X571850Y416379D02*
X577756D01*
Y413230D02*
Y416379D01*
X571850Y413230D02*
Y416379D01*
X574803Y418545D02*
Y420907D01*
X573622Y419726D02*
X575984D01*
X571850Y418151D02*
X577756D01*
X571850Y421301D02*
X577756D01*
Y418151D02*
Y421301D01*
X571850Y418151D02*
Y421301D01*
X73353Y329625D02*
Y332775D01*
X67447Y329625D02*
Y332775D01*
Y329625D02*
X73353D01*
X67447Y332775D02*
X73353D01*
X69219Y331200D02*
X71581D01*
X70400Y330019D02*
Y332381D01*
X97441Y322378D02*
Y325528D01*
X91535Y322378D02*
Y325528D01*
Y322378D02*
X97441D01*
X91535Y325528D02*
X97441D01*
X93307Y323953D02*
X95669D01*
X94488Y322772D02*
Y325134D01*
X331693Y351772D02*
Y354921D01*
X337598Y351772D02*
Y354921D01*
X331693D02*
X337598D01*
X331693Y351772D02*
X337598D01*
X333465Y353346D02*
X335827D01*
X334646Y352165D02*
Y354528D01*
X211614Y380315D02*
Y383465D01*
X205709Y380315D02*
Y383465D01*
Y380315D02*
X211614D01*
X205709Y383465D02*
X211614D01*
X207480Y381890D02*
X209842D01*
X208661Y380709D02*
Y383071D01*
X211614Y384252D02*
Y387402D01*
X205709Y384252D02*
Y387402D01*
Y384252D02*
X211614D01*
X205709Y387402D02*
X211614D01*
X207480Y385827D02*
X209842D01*
X208661Y384646D02*
Y387008D01*
X187992Y384252D02*
Y387402D01*
X182087Y384252D02*
Y387402D01*
Y384252D02*
X187992D01*
X182087Y387402D02*
X187992D01*
X183858Y385827D02*
X186221D01*
X185039Y384646D02*
Y387008D01*
X187992Y388189D02*
Y391339D01*
X182087Y388189D02*
Y391339D01*
Y388189D02*
X187992D01*
X182087Y391339D02*
X187992D01*
X183858Y389764D02*
X186221D01*
X185039Y388583D02*
Y390945D01*
X571850Y283366D02*
Y286516D01*
X577756Y283366D02*
Y286516D01*
X571850D02*
X577756D01*
X571850Y283366D02*
X577756D01*
X573622Y284941D02*
X575984D01*
X574803Y283760D02*
Y286122D01*
X376969Y305906D02*
Y309055D01*
X371063Y305906D02*
Y309055D01*
Y305906D02*
X376969D01*
X371063Y309055D02*
X376969D01*
X372835Y307480D02*
X375197D01*
X374016Y306299D02*
Y308661D01*
X331693Y305906D02*
Y309055D01*
X337598Y305906D02*
Y309055D01*
X331693D02*
X337598D01*
X331693Y305906D02*
X337598D01*
X333465Y307480D02*
X335827D01*
X334646Y306299D02*
Y308661D01*
X331693Y295669D02*
Y298819D01*
X337598Y295669D02*
Y298819D01*
X331693D02*
X337598D01*
X331693Y295669D02*
X337598D01*
X333465Y297244D02*
X335827D01*
X334646Y296063D02*
Y298425D01*
X331693Y290551D02*
Y293701D01*
X337598Y290551D02*
Y293701D01*
X331693D02*
X337598D01*
X331693Y290551D02*
X337598D01*
X333465Y292126D02*
X335827D01*
X334646Y290945D02*
Y293307D01*
X177559Y98444D02*
X180709D01*
X177559Y104350D02*
X180709D01*
X177559Y98444D02*
Y104350D01*
X180709Y98444D02*
Y104350D01*
X179134Y100216D02*
Y102578D01*
X177953Y101397D02*
X180315D01*
X188976Y553937D02*
Y556299D01*
X187795Y555118D02*
X190157D01*
X186024Y556693D02*
X191929D01*
X186024Y553543D02*
X191929D01*
X186024D02*
Y556693D01*
X191929Y553543D02*
Y556693D01*
Y525984D02*
Y529134D01*
X186024Y525984D02*
Y529134D01*
Y525984D02*
X191929D01*
X186024Y529134D02*
X191929D01*
X187795Y527559D02*
X190157D01*
X188976Y526378D02*
Y528740D01*
Y498819D02*
Y501181D01*
X187795Y500000D02*
X190157D01*
X186024Y501575D02*
X191929D01*
X186024Y498425D02*
X191929D01*
X186024D02*
Y501575D01*
X191929Y498425D02*
Y501575D01*
X195866Y211024D02*
Y214173D01*
X189961Y211024D02*
Y214173D01*
Y211024D02*
X195866D01*
X189961Y214173D02*
X195866D01*
X191732Y212598D02*
X194095D01*
X192913Y211417D02*
Y213779D01*
X232283Y211417D02*
Y213779D01*
X231102Y212598D02*
X233465D01*
X229331Y214173D02*
X235236D01*
X229331Y211024D02*
X235236D01*
X229331D02*
Y214173D01*
X235236Y211024D02*
Y214173D01*
X274606Y211024D02*
Y214173D01*
X268701Y211024D02*
Y214173D01*
Y211024D02*
X274606D01*
X268701Y214173D02*
X274606D01*
X270472Y212598D02*
X272835D01*
X271654Y211417D02*
Y213779D01*
X353474Y609173D02*
Y619173D01*
Y609173D02*
X357274D01*
X353474Y619173D02*
X357274D01*
Y609173D02*
Y619173D01*
X355374Y612992D02*
Y615354D01*
X354193Y614173D02*
X356555D01*
X255268Y45807D02*
X261268D01*
X255268Y40807D02*
Y45807D01*
Y40807D02*
X261268D01*
Y45807D01*
X258268Y42126D02*
Y44488D01*
X257087Y43307D02*
X259449D01*
X199350Y550150D02*
Y556150D01*
X194350D02*
X199350D01*
X194350Y550150D02*
Y556150D01*
Y550150D02*
X199350D01*
X195669Y553150D02*
X198031D01*
X196850Y551968D02*
Y554331D01*
X199350Y522590D02*
Y528590D01*
X194350D02*
X199350D01*
X194350Y522590D02*
Y528590D01*
Y522590D02*
X199350D01*
X195669Y525591D02*
X198031D01*
X196850Y524409D02*
Y526772D01*
X199350Y495031D02*
Y501031D01*
X194350D02*
X199350D01*
X194350Y495031D02*
Y501031D01*
Y495031D02*
X199350D01*
X195669Y498032D02*
X198031D01*
X196850Y496850D02*
Y499213D01*
X203287Y207630D02*
Y213630D01*
X198287D02*
X203287D01*
X198287Y207630D02*
Y213630D01*
Y207630D02*
X203287D01*
X199606Y210630D02*
X201969D01*
X200787Y209449D02*
Y211811D01*
X242657Y207630D02*
Y213630D01*
X237657D02*
X242657D01*
X237657Y207630D02*
Y213630D01*
Y207630D02*
X242657D01*
X238976Y210630D02*
X241339D01*
X240158Y209449D02*
Y211811D01*
X282028Y207630D02*
Y213630D01*
X277028D02*
X282028D01*
X277028Y207630D02*
Y213630D01*
Y207630D02*
X282028D01*
X278346Y210630D02*
X280709D01*
X279528Y209449D02*
Y211811D01*
X414323Y462067D02*
X420323D01*
Y467067D01*
X414323D02*
X420323D01*
X414323Y462067D02*
Y467067D01*
X417323Y463386D02*
Y465748D01*
X416142Y464567D02*
X418504D01*
X449756Y462067D02*
X455756D01*
Y467067D01*
X449756D02*
X455756D01*
X449756Y462067D02*
Y467067D01*
X452756Y463386D02*
Y465748D01*
X451575Y464567D02*
X453937D01*
X362598Y115157D02*
X365748D01*
X362598Y121063D02*
X365748D01*
X362598Y115157D02*
Y121063D01*
X365748Y115157D02*
Y121063D01*
X364173Y116929D02*
Y119291D01*
X362992Y118110D02*
X365354D01*
X382283Y106614D02*
X385433D01*
X382283Y112520D02*
X385433D01*
X382283Y106614D02*
Y112520D01*
X385433Y106614D02*
Y112520D01*
X383858Y108386D02*
Y110748D01*
X382677Y109567D02*
X385039D01*
X344882Y71850D02*
X348031D01*
X344882Y77756D02*
X348031D01*
X344882Y71850D02*
Y77756D01*
X348031Y71850D02*
Y77756D01*
X346457Y73622D02*
Y75984D01*
X345276Y74803D02*
X347638D01*
X348819Y46260D02*
X351969D01*
X348819Y40354D02*
X351969D01*
Y46260D01*
X348819Y40354D02*
Y46260D01*
X350394Y42126D02*
Y44488D01*
X349213Y43307D02*
X351575D01*
X344882Y46260D02*
X348031D01*
X344882Y40354D02*
X348031D01*
Y46260D01*
X344882Y40354D02*
Y46260D01*
X346457Y42126D02*
Y44488D01*
X345276Y43307D02*
X347638D01*
X327854Y77756D02*
X331004D01*
X327854Y71850D02*
X331004D01*
Y77756D01*
X327854Y71850D02*
Y77756D01*
X329429Y73622D02*
Y75984D01*
X328248Y74803D02*
X330610D01*
X262205Y40354D02*
X265354D01*
X262205Y46260D02*
X265354D01*
X262205Y40354D02*
Y46260D01*
X265354Y40354D02*
Y46260D01*
X263779Y42126D02*
Y44488D01*
X262598Y43307D02*
X264961D01*
X265945Y40354D02*
X269094D01*
X265945Y46260D02*
X269094D01*
X265945Y40354D02*
Y46260D01*
X269094Y40354D02*
Y46260D01*
X267520Y42126D02*
Y44488D01*
X266339Y43307D02*
X268701D01*
X270079Y77756D02*
X273228D01*
X270079Y71850D02*
X273228D01*
Y77756D01*
X270079Y71850D02*
Y77756D01*
X271654Y73622D02*
Y75984D01*
X270472Y74803D02*
X272835D01*
X258268Y77756D02*
X261417D01*
X258268Y71850D02*
X261417D01*
Y77756D01*
X258268Y71850D02*
Y77756D01*
X259842Y73622D02*
Y75984D01*
X258661Y74803D02*
X261024D01*
X245079Y132283D02*
Y135433D01*
X250984Y132283D02*
Y135433D01*
X245079D02*
X250984D01*
X245079Y132283D02*
X250984D01*
X246850Y133858D02*
X249213D01*
X248031Y132677D02*
Y135039D01*
X245079Y136221D02*
Y139370D01*
X250984Y136221D02*
Y139370D01*
X245079D02*
X250984D01*
X245079Y136221D02*
X250984D01*
X246850Y137795D02*
X249213D01*
X248031Y136614D02*
Y138976D01*
X282480Y136221D02*
Y139370D01*
X276575Y136221D02*
Y139370D01*
Y136221D02*
X282480D01*
X276575Y139370D02*
X282480D01*
X278346Y137795D02*
X280709D01*
X279528Y136614D02*
Y138976D01*
X339567Y136221D02*
Y139370D01*
X345472Y136221D02*
Y139370D01*
X339567D02*
X345472D01*
X339567Y136221D02*
X345472D01*
X341339Y137795D02*
X343701D01*
X342520Y136614D02*
Y138976D01*
X339567Y132283D02*
Y135433D01*
X345472Y132283D02*
Y135433D01*
X339567D02*
X345472D01*
X339567Y132283D02*
X345472D01*
X341339Y133858D02*
X343701D01*
X342520Y132677D02*
Y135039D01*
X345472Y128347D02*
Y131496D01*
X339567Y128347D02*
Y131496D01*
Y128347D02*
X345472D01*
X339567Y131496D02*
X345472D01*
X341339Y129921D02*
X343701D01*
X342520Y128740D02*
Y131102D01*
X201181Y587677D02*
X204331D01*
X201181Y581772D02*
X204331D01*
Y587677D01*
X201181Y581772D02*
Y587677D01*
X202756Y583543D02*
Y585906D01*
X201575Y584724D02*
X203937D01*
X181496Y574291D02*
X184646D01*
X181496Y580197D02*
X184646D01*
X181496Y574291D02*
Y580197D01*
X184646Y574291D02*
Y580197D01*
X183071Y576063D02*
Y578425D01*
X181890Y577244D02*
X184252D01*
X335906Y474803D02*
Y477953D01*
X341811Y474803D02*
Y477953D01*
X335906D02*
X341811D01*
X335906Y474803D02*
X341811D01*
X337677Y476378D02*
X340039D01*
X338858Y475197D02*
Y477559D01*
X260236Y562677D02*
X263386D01*
X260236Y568583D02*
X263386D01*
X260236Y562677D02*
Y568583D01*
X263386Y562677D02*
Y568583D01*
X261811Y564449D02*
Y566811D01*
X260630Y565630D02*
X262992D01*
X310039Y474803D02*
Y477953D01*
X304134Y474803D02*
Y477953D01*
Y474803D02*
X310039D01*
X304134Y477953D02*
X310039D01*
X305906Y476378D02*
X308268D01*
X307087Y475197D02*
Y477559D01*
X199803Y557480D02*
Y560630D01*
X193898Y557480D02*
Y560630D01*
Y557480D02*
X199803D01*
X193898Y560630D02*
X199803D01*
X195669Y559055D02*
X198031D01*
X196850Y557874D02*
Y560236D01*
X199803Y529921D02*
Y533071D01*
X193898Y529921D02*
Y533071D01*
Y529921D02*
X199803D01*
X193898Y533071D02*
X199803D01*
X195669Y531496D02*
X198031D01*
X196850Y530315D02*
Y532677D01*
X199803Y502362D02*
Y505512D01*
X193898Y502362D02*
Y505512D01*
Y502362D02*
X199803D01*
X193898Y505512D02*
X199803D01*
X195669Y503937D02*
X198031D01*
X196850Y502756D02*
Y505118D01*
X199803Y545669D02*
Y548819D01*
X193898Y545669D02*
Y548819D01*
Y545669D02*
X199803D01*
X193898Y548819D02*
X199803D01*
X195669Y547244D02*
X198031D01*
X196850Y546063D02*
Y548425D01*
X199803Y518110D02*
Y521260D01*
X193898Y518110D02*
Y521260D01*
Y518110D02*
X199803D01*
X193898Y521260D02*
X199803D01*
X195669Y519685D02*
X198031D01*
X196850Y518504D02*
Y520866D01*
X199803Y490551D02*
Y493701D01*
X193898Y490551D02*
Y493701D01*
Y490551D02*
X199803D01*
X193898Y493701D02*
X199803D01*
X195669Y492126D02*
X198031D01*
X196850Y490945D02*
Y493307D01*
X337598Y245669D02*
Y248819D01*
X331693Y245669D02*
Y248819D01*
Y245669D02*
X337598D01*
X331693Y248819D02*
X337598D01*
X333465Y247244D02*
X335827D01*
X334646Y246063D02*
Y248425D01*
X337598Y235433D02*
Y238583D01*
X331693Y235433D02*
Y238583D01*
Y235433D02*
X337598D01*
X331693Y238583D02*
X337598D01*
X333465Y237008D02*
X335827D01*
X334646Y235827D02*
Y238189D01*
X371063Y240551D02*
Y243701D01*
X376969Y240551D02*
Y243701D01*
X371063D02*
X376969D01*
X371063Y240551D02*
X376969D01*
X372835Y242126D02*
X375197D01*
X374016Y240945D02*
Y243307D01*
X371063Y250787D02*
Y253937D01*
X376969Y250787D02*
Y253937D01*
X371063D02*
X376969D01*
X371063Y250787D02*
X376969D01*
X372835Y252362D02*
X375197D01*
X374016Y251181D02*
Y253543D01*
X376969Y278346D02*
Y281496D01*
X371063Y278346D02*
Y281496D01*
Y278346D02*
X376969D01*
X371063Y281496D02*
X376969D01*
X372835Y279921D02*
X375197D01*
X374016Y278740D02*
Y281102D01*
X376969Y273228D02*
Y276378D01*
X371063Y273228D02*
Y276378D01*
Y273228D02*
X376969D01*
X371063Y276378D02*
X376969D01*
X372835Y274803D02*
X375197D01*
X374016Y273622D02*
Y275984D01*
X376969Y268110D02*
Y271260D01*
X371063Y268110D02*
Y271260D01*
Y268110D02*
X376969D01*
X371063Y271260D02*
X376969D01*
X372835Y269685D02*
X375197D01*
X374016Y268504D02*
Y270866D01*
X376969Y262992D02*
Y266142D01*
X371063Y262992D02*
Y266142D01*
Y262992D02*
X376969D01*
X371063Y266142D02*
X376969D01*
X372835Y264567D02*
X375197D01*
X374016Y263386D02*
Y265748D01*
X331693Y262992D02*
Y266142D01*
X337598Y262992D02*
Y266142D01*
X331693D02*
X337598D01*
X331693Y262992D02*
X337598D01*
X333465Y264567D02*
X335827D01*
X334646Y263386D02*
Y265748D01*
X331693Y268110D02*
Y271260D01*
X337598Y268110D02*
Y271260D01*
X331693D02*
X337598D01*
X331693Y268110D02*
X337598D01*
X333465Y269685D02*
X335827D01*
X334646Y268504D02*
Y270866D01*
X331693Y273228D02*
Y276378D01*
X337598Y273228D02*
Y276378D01*
X331693D02*
X337598D01*
X331693Y273228D02*
X337598D01*
X333465Y274803D02*
X335827D01*
X334646Y273622D02*
Y275984D01*
X331693Y278346D02*
Y281496D01*
X337598Y278346D02*
Y281496D01*
X331693D02*
X337598D01*
X331693Y278346D02*
X337598D01*
X333465Y279921D02*
X335827D01*
X334646Y278740D02*
Y281102D01*
X230709Y554134D02*
X233858D01*
X230709Y548228D02*
X233858D01*
Y554134D01*
X230709Y548228D02*
Y554134D01*
X232283Y550000D02*
Y552362D01*
X231102Y551181D02*
X233465D01*
X230709Y595472D02*
X233858D01*
X230709Y601378D02*
X233858D01*
X230709Y595472D02*
Y601378D01*
X233858Y595472D02*
Y601378D01*
X232283Y597244D02*
Y599606D01*
X231102Y598425D02*
X233465D01*
X246457Y548228D02*
X249606D01*
X246457Y554134D02*
X249606D01*
X246457Y548228D02*
Y554134D01*
X249606Y548228D02*
Y554134D01*
X248031Y550000D02*
Y552362D01*
X246850Y551181D02*
X249213D01*
X288583Y421260D02*
X290945D01*
X289764Y420079D02*
Y422441D01*
X291339Y418307D02*
Y424213D01*
X288189Y418307D02*
Y424213D01*
X291339D01*
X288189Y418307D02*
X291339D01*
X185039Y254921D02*
Y257283D01*
X183858Y256102D02*
X186221D01*
X182087Y254528D02*
X187992D01*
X182087Y257677D02*
X187992D01*
Y254528D02*
Y257677D01*
X182087Y254528D02*
Y257677D01*
X208661Y254921D02*
Y257283D01*
X207480Y256102D02*
X209842D01*
X205709Y257677D02*
X211614D01*
X205709Y254528D02*
X211614D01*
X205709D02*
Y257677D01*
X211614Y254528D02*
Y257677D01*
X208661Y242913D02*
Y245276D01*
X207480Y244094D02*
X209842D01*
X205709Y245669D02*
X211614D01*
X205709Y242520D02*
X211614D01*
X205709D02*
Y245669D01*
X211614Y242520D02*
Y245669D01*
X185039Y239173D02*
Y241535D01*
X183858Y240354D02*
X186221D01*
X182087Y238779D02*
X187992D01*
X182087Y241929D02*
X187992D01*
Y238779D02*
Y241929D01*
X182087Y238779D02*
Y241929D01*
X278346Y301181D02*
X280709D01*
X279528Y300000D02*
Y302362D01*
X277953Y298228D02*
Y304134D01*
X281102Y298228D02*
Y304134D01*
X277953Y298228D02*
X281102D01*
X277953Y304134D02*
X281102D01*
X248031Y324429D02*
Y326791D01*
X246850Y325610D02*
X249213D01*
X245079Y324035D02*
X250984D01*
X245079Y327185D02*
X250984D01*
Y324035D02*
Y327185D01*
X245079Y324035D02*
Y327185D01*
X248031Y341752D02*
Y344114D01*
X246850Y342933D02*
X249213D01*
X245079Y341358D02*
X250984D01*
X245079Y344508D02*
X250984D01*
Y341358D02*
Y344508D01*
X245079Y341358D02*
Y344508D01*
X248031Y333091D02*
Y335453D01*
X246850Y334272D02*
X249213D01*
X245079Y332697D02*
X250984D01*
X245079Y335846D02*
X250984D01*
Y332697D02*
Y335846D01*
X245079Y332697D02*
Y335846D01*
X248031Y320098D02*
Y322461D01*
X246850Y321280D02*
X249213D01*
X245079Y322854D02*
X250984D01*
X245079Y319705D02*
X250984D01*
X245079D02*
Y322854D01*
X250984Y319705D02*
Y322854D01*
X248031Y346083D02*
Y348445D01*
X246850Y347264D02*
X249213D01*
X245079Y348839D02*
X250984D01*
X245079Y345689D02*
X250984D01*
X245079D02*
Y348839D01*
X250984Y345689D02*
Y348839D01*
X248031Y328760D02*
Y331122D01*
X246850Y329941D02*
X249213D01*
X245079Y331516D02*
X250984D01*
X245079Y328366D02*
X250984D01*
X245079D02*
Y331516D01*
X250984Y328366D02*
Y331516D01*
X287874Y277953D02*
Y281102D01*
X281968Y277953D02*
Y281102D01*
Y277953D02*
X287874D01*
X281968Y281102D02*
X287874D01*
X283740Y279528D02*
X286102D01*
X284921Y278346D02*
Y280709D01*
X203740Y214961D02*
Y218110D01*
X197835Y214961D02*
Y218110D01*
Y214961D02*
X203740D01*
X197835Y218110D02*
X203740D01*
X199606Y216535D02*
X201969D01*
X200787Y215354D02*
Y217717D01*
X243110Y214961D02*
Y218110D01*
X237205Y214961D02*
Y218110D01*
Y214961D02*
X243110D01*
X237205Y218110D02*
X243110D01*
X238976Y216535D02*
X241339D01*
X240158Y215354D02*
Y217717D01*
X282480Y214961D02*
Y218110D01*
X276575Y214961D02*
Y218110D01*
Y214961D02*
X282480D01*
X276575Y218110D02*
X282480D01*
X278346Y216535D02*
X280709D01*
X279528Y215354D02*
Y217717D01*
X203740Y203150D02*
Y206299D01*
X197835Y203150D02*
Y206299D01*
Y203150D02*
X203740D01*
X197835Y206299D02*
X203740D01*
X199606Y204724D02*
X201969D01*
X200787Y203543D02*
Y205906D01*
X243110Y203150D02*
Y206299D01*
X237205Y203150D02*
Y206299D01*
Y203150D02*
X243110D01*
X237205Y206299D02*
X243110D01*
X238976Y204724D02*
X241339D01*
X240158Y203543D02*
Y205906D01*
X282480Y203150D02*
Y206299D01*
X276575Y203150D02*
Y206299D01*
Y203150D02*
X282480D01*
X276575Y206299D02*
X282480D01*
X278346Y204724D02*
X280709D01*
X279528Y203543D02*
Y205906D01*
X401968Y467520D02*
X405118D01*
X401968Y461614D02*
X405118D01*
Y467520D01*
X401968Y461614D02*
Y467520D01*
X403543Y463386D02*
Y465748D01*
X402362Y464567D02*
X404724D01*
X437402Y467520D02*
X440551D01*
X437402Y461614D02*
X440551D01*
Y467520D01*
X437402Y461614D02*
Y467520D01*
X438976Y463386D02*
Y465748D01*
X437795Y464567D02*
X440158D01*
X409842Y461614D02*
X412992D01*
X409842Y467520D02*
X412992D01*
X409842Y461614D02*
Y467520D01*
X412992Y461614D02*
Y467520D01*
X411417Y463386D02*
Y465748D01*
X410236Y464567D02*
X412598D01*
X445276Y461614D02*
X448425D01*
X445276Y467520D02*
X448425D01*
X445276Y461614D02*
Y467520D01*
X448425Y461614D02*
Y467520D01*
X446850Y463386D02*
Y465748D01*
X445669Y464567D02*
X448032D01*
X294488Y418307D02*
X297638D01*
X294488Y424213D02*
X297638D01*
X294488Y418307D02*
Y424213D01*
X297638Y418307D02*
Y424213D01*
X296063Y420079D02*
Y422441D01*
X294882Y421260D02*
X297244D01*
X291339Y418307D02*
X294488D01*
X291339Y424213D02*
X294488D01*
X291339Y418307D02*
Y424213D01*
X294488Y418307D02*
Y424213D01*
X292913Y420079D02*
Y422441D01*
X291732Y421260D02*
X294094D01*
X205709Y412795D02*
Y415945D01*
X211614Y412795D02*
Y415945D01*
X205709D02*
X211614D01*
X205709Y412795D02*
X211614D01*
X207480Y414370D02*
X209842D01*
X208661Y413189D02*
Y415551D01*
X205709Y407874D02*
Y411024D01*
X211614Y407874D02*
Y411024D01*
X205709D02*
X211614D01*
X205709Y407874D02*
X211614D01*
X207480Y409449D02*
X209842D01*
X208661Y408268D02*
Y410630D01*
X91535Y314504D02*
Y317653D01*
X97441Y314504D02*
Y317653D01*
X91535D02*
X97441D01*
X91535Y314504D02*
X97441D01*
X93307Y316079D02*
X95669D01*
X94488Y314898D02*
Y317260D01*
X91535Y318441D02*
Y321590D01*
X97441Y318441D02*
Y321590D01*
X91535D02*
X97441D01*
X91535Y318441D02*
X97441D01*
X93307Y320016D02*
X95669D01*
X94488Y318835D02*
Y321197D01*
X334646Y360039D02*
Y362402D01*
X333465Y361221D02*
X335827D01*
X331693Y362795D02*
X337598D01*
X331693Y359646D02*
X337598D01*
X331693D02*
Y362795D01*
X337598Y359646D02*
Y362795D01*
X334646Y356102D02*
Y358465D01*
X333465Y357283D02*
X335827D01*
X331693Y358858D02*
X337598D01*
X331693Y355709D02*
X337598D01*
X331693D02*
Y358858D01*
X337598Y355709D02*
Y358858D01*
X185039Y380709D02*
Y383071D01*
X183858Y381890D02*
X186221D01*
X182087Y383465D02*
X187992D01*
X182087Y380315D02*
X187992D01*
X182087D02*
Y383465D01*
X187992Y380315D02*
Y383465D01*
X185039Y376772D02*
Y379134D01*
X183858Y377953D02*
X186221D01*
X182087Y379528D02*
X187992D01*
X182087Y376378D02*
X187992D01*
X182087D02*
Y379528D01*
X187992Y376378D02*
Y379528D01*
X328248Y43307D02*
X330610D01*
X329429Y42126D02*
Y44488D01*
X327854Y40354D02*
Y46260D01*
X331004Y40354D02*
Y46260D01*
X327854Y40354D02*
X331004D01*
X327854Y46260D02*
X331004D01*
X333366Y43307D02*
X335728D01*
X334547Y42126D02*
Y44488D01*
X332972Y40354D02*
Y46260D01*
X336122Y40354D02*
Y46260D01*
X332972Y40354D02*
X336122D01*
X332972Y46260D02*
X336122D01*
X337598Y401083D02*
Y404232D01*
X331693Y401083D02*
Y404232D01*
Y401083D02*
X337598D01*
X331693Y404232D02*
X337598D01*
X333465Y402658D02*
X335827D01*
X334646Y401476D02*
Y403839D01*
X182087Y400000D02*
Y403150D01*
X187992Y400000D02*
Y403150D01*
X182087D02*
X187992D01*
X182087Y400000D02*
X187992D01*
X183858Y401575D02*
X186221D01*
X185039Y400394D02*
Y402756D01*
X331693Y300787D02*
Y303937D01*
X337598Y300787D02*
Y303937D01*
X331693D02*
X337598D01*
X331693Y300787D02*
X337598D01*
X333465Y302362D02*
X335827D01*
X334646Y301181D02*
Y303543D01*
X376969Y284449D02*
Y287598D01*
X371063Y284449D02*
Y287598D01*
Y284449D02*
X376969D01*
X371063Y287598D02*
X376969D01*
X372835Y286024D02*
X375197D01*
X374016Y284842D02*
Y287205D01*
X331693Y284449D02*
Y287598D01*
X337598Y284449D02*
Y287598D01*
X331693D02*
X337598D01*
X331693Y284449D02*
X337598D01*
X333465Y286024D02*
X335827D01*
X334646Y284842D02*
Y287205D01*
X257780Y52555D02*
X269779D01*
Y65455D01*
X257780D02*
X269779D01*
X257780Y52555D02*
Y65455D01*
X263779Y57874D02*
Y60236D01*
X262598Y59055D02*
X264961D01*
X192913Y581496D02*
Y583858D01*
X191732Y582677D02*
X194095D01*
X186413Y588677D02*
X199313D01*
Y576677D02*
Y588677D01*
X186413Y576677D02*
X199313D01*
X186413D02*
Y588677D01*
X367016Y151480D02*
Y163480D01*
Y151480D02*
X381016D01*
Y163480D01*
X367016D02*
X381016D01*
X372835Y157480D02*
X375197D01*
X374016Y156299D02*
Y158661D01*
X291339Y392520D02*
Y394882D01*
X290158Y393701D02*
X292520D01*
X270639Y414401D02*
X312039D01*
Y373001D02*
Y414401D01*
X270639Y373001D02*
X312039D01*
X270639D02*
Y414401D01*
X190350Y253842D02*
Y265843D01*
Y253842D02*
X203250D01*
Y265843D01*
X190350D02*
X203250D01*
X195669Y259842D02*
X198031D01*
X196850Y258661D02*
Y261024D01*
X235139Y389764D02*
X237502D01*
X236320Y388583D02*
Y390945D01*
X228720Y377564D02*
Y402064D01*
X243721D01*
Y377564D02*
Y402064D01*
X228720Y377564D02*
X243721D01*
X221260Y570157D02*
X223622D01*
X222441Y568976D02*
Y571339D01*
X224016Y567205D02*
Y573110D01*
X220866Y567205D02*
Y573110D01*
X224016D01*
X220866Y567205D02*
X224016D01*
X225197Y579449D02*
X227559D01*
X226378Y578268D02*
Y580630D01*
X224803Y576496D02*
Y582402D01*
X227953Y576496D02*
Y582402D01*
X224803Y576496D02*
X227953D01*
X224803Y582402D02*
X227953D01*
X305512Y610945D02*
X308661D01*
X305512Y605039D02*
X308661D01*
Y610945D01*
X305512Y605039D02*
Y610945D01*
X307087Y606811D02*
Y609173D01*
X305906Y607992D02*
X308268D01*
X289764Y610945D02*
X292913D01*
X289764Y605039D02*
X292913D01*
Y610945D01*
X289764Y605039D02*
Y610945D01*
X291339Y606811D02*
Y609173D01*
X290158Y607992D02*
X292520D01*
X309842D02*
X312205D01*
X311024Y606811D02*
Y609173D01*
X309449Y605039D02*
Y610945D01*
X312598Y605039D02*
Y610945D01*
X309449Y605039D02*
X312598D01*
X309449Y610945D02*
X312598D01*
X296260Y604724D02*
Y607874D01*
X302165Y604724D02*
Y607874D01*
X296260D02*
X302165D01*
X296260Y604724D02*
X302165D01*
X298031Y606299D02*
X300394D01*
X299213Y605118D02*
Y607480D01*
X436024Y616161D02*
Y619311D01*
X430118Y616161D02*
Y619311D01*
Y616161D02*
X436024D01*
X430118Y619311D02*
X436024D01*
X431890Y617736D02*
X434252D01*
X433071Y616555D02*
Y618917D01*
X436024Y620098D02*
Y623248D01*
X430118Y620098D02*
Y623248D01*
Y620098D02*
X436024D01*
X430118Y623248D02*
X436024D01*
X431890Y621673D02*
X434252D01*
X433071Y620492D02*
Y622854D01*
X436024Y611161D02*
Y614311D01*
X430118Y611161D02*
Y614311D01*
Y611161D02*
X436024D01*
X430118Y614311D02*
X436024D01*
X431890Y612736D02*
X434252D01*
X433071Y611555D02*
Y613917D01*
X436024Y606161D02*
Y609311D01*
X430118Y606161D02*
Y609311D01*
Y606161D02*
X436024D01*
X430118Y609311D02*
X436024D01*
X431890Y607736D02*
X434252D01*
X433071Y606555D02*
Y608917D01*
X390748Y606225D02*
Y609375D01*
X396654Y606225D02*
Y609375D01*
X390748D02*
X396654D01*
X390748Y606225D02*
X396654D01*
X392520Y607800D02*
X394882D01*
X393701Y606619D02*
Y608981D01*
X238976Y551181D02*
X241339D01*
X240158Y550000D02*
Y552362D01*
X241732Y548228D02*
Y554134D01*
X238583Y548228D02*
Y554134D01*
X241732D01*
X238583Y548228D02*
X241732D01*
M02*
