M48
;Layer_Color=9474304
;FILE_FORMAT=2:5
INCH,LZ
;TYPE=PLATED
T1F00S00C0.00787
T2F00S00C0.01968
T3F00S00C0.11811
%
T01
X0164567Y-0021929
X0171264Y-0016224
X0190949
X0210634
X0181106Y-0035909
X0151579Y-0016224
X0131894
X0112209
X0092524
X0072839
X0054744Y-0022441
X0047244Y-0025866
X0039744Y-0022441
X0035807Y-0029252
X0033468Y-0016224
X0013783
X-0012992Y-00075
Y-00035
X-0026575Y-000315
Y0
Y-0006299
Y-0009449
X-0025587Y-0016224
X-0045272
X-004252Y-0028051
X-0048819
X-0067895Y-0018871
X-0067968Y-0015748
X-0067913Y-0012598
X-0067421Y-0009449
X-0070866Y-0002126
X-0088967Y-0002067
X-010001Y-0005807
X-0104327Y-0016224
X-0092244Y-0015748
X-0094484Y-0035909
X-0114169
X-0133854
X-0153539
X-0143697Y-0016224
X-0124012
X-0012992Y-0028051
X-0164567Y-0021929
X-0173224Y-0035909
X-0192909
X-0183067Y-0016224
X-0202752
X-0192909Y0003461
X-0212595
X-0202752Y0023146
X-0183067
X-0173224Y0042831
X-0192909
X-0153539
X-0133854
X-0114169
X-0094484
X-0074799
X-0064957Y0062516
X-0054684Y0066929
X-0049762
X-0044841
X-003992
X-0034998
X-0025587Y0062516
X-0007874Y006437
X-0005902Y0062516
X-000315Y006437
X-0010118Y0043307
X-0015744Y0042831
X-0005902Y0023146
X-0010118Y0015748
X-0025587Y0023146
X-0026575Y000315
X-003622Y0012795
X-0045669Y0012303
X-0055118Y0012795
X-0055114Y0003461
X-0074799
X-0092244Y0001969
X-0096732Y0007874
X-0114169Y0003461
X-0133854
X-0153539
X-0143697Y0023146
X-0124012
X-0104327
X-0084642
X-0064957
X-0054684Y0024213
X0001693Y0015748
X0013504
X0033468Y0023146
X0043307Y0031496
X0051181
X0068898Y0030236
X0072839Y0023146
X0092524
X0112209
X0131894
X0151579
X0141736Y0042831
X0122051
X0102366
X0082681
X0062996
X005949Y0066929
X0049647
X0044726
X0072839Y0062516
X0013783
X0007874Y006437
X000315
X0001693Y0043307
X0013504
X0023626Y0042831
X0033327Y0001122
X0039744Y0006437
X0044744Y0006693
X0049744
X0062996Y0003461
X0082681
X0102366
X0122051
X0141736
X0181106
X0200791
X0210634Y0023146
X0190949
X0181106Y0042831
T02
X015748Y-0051181
X0161417
X0165354
X0169291
X0173228
X0177165
X0181102
X0185039
X0188976
X0192913
X019685
X0200787
X0216535Y-0035433
Y-0031496
Y-0027559
Y-0023622
Y-0019685
Y-0015748
Y-0011811
Y-0007874
Y-0003937
Y0
X0153543Y-0051181
X0149606
X0145669
X0141732
X0137795
X0133858
X0129921
X0125984
X0122047
X011811
X0114173
X0110236
X0106299
X0102362
X0098425
X0094488
X0090551
X0086614
X0082677
X007874
X0074803
X0070866
X0066929
X0062992
X0059055
X0055118
X0051181
X0047244
X0043307
X003937
X0035433
X0031496
X0027559
X0023622
X0019685
X0015748
X0011811
X0007874
X0003937
X0
X-0003937
X-0007874
X-0011811
X-0015748
X-0019685
X-0023622
X-0027559
X-0031496
X-0035433
X-003937
X-0043307
X-0047244
X-0051181
X-0055118
X-0059055
X-0062992
X-0066929
X-0070866
X-0074803
X-007874
X-0082677
X-0086614
X-0090551
X-0094488
X-0098425
X-0102362
X-0106299
X-0110236
X-0114173
X-011811
X-0122047
X-0125984
X-0129921
X-0133858
X-0137795
X-0141732
X-0145669
X-0149606
X-0153543
X-015748
X-0161417
X-0165354
X-0169291
X-0173228
X-0177165
X-0181102
X-0185039
X-0188976
X-0192913
X-019685
X-0200787
X-0216535Y-0035433
Y-0031496
Y-0027559
Y-0023622
Y-0019685
Y-0015748
Y-0011811
Y-0007874
Y-0003937
Y-0
Y0003937
Y0007874
Y0011811
Y0015748
Y0019685
Y0023622
Y0027559
Y0031496
Y0035433
X-0200788Y0051181
X-0196851
X-0192914
X-0188977
X-018504
X-0181103
X-0177166
X-0173229
X-0169292
X-0157481
X-0153544
X-0149607
X-014567
X-0141733
X-0137796
X-0133859
X-0129922
X-0125985
X-0122048
X-0118111
X-0114174
X-0110237
X-01063
X-0102363
X-0098426
X-0094489
X-0090552
X0090551
X0094488
X0098425
X0102362
X0106299
X0110236
X0114173
X011811
X0122047
X0125984
X0129921
X0133858
X0137795
X0141732
X0145669
X0149606
X0153543
X015748
X0169291
X0173228
X0177165
X0181102
X0185039
X0188976
X0192913
X019685
X0200787
X0216535Y0035433
Y0031496
Y0027559
Y0023622
Y0019685
Y0015748
Y0011811
Y0007874
Y0003937
T03
X0208661Y-0043307
X-0208661
Y0043307
X0208661
M30
