G04*
G04 #@! TF.GenerationSoftware,Altium Limited,Altium Designer,23.3.1 (30)*
G04*
G04 Layer_Color=16711935*
%FSLAX25Y25*%
%MOIN*%
G70*
G04*
G04 #@! TF.SameCoordinates,AEED621E-3CD5-435C-AC93-41C8B311E913*
G04*
G04*
G04 #@! TF.FilePolarity,Positive*
G04*
G01*
G75*
%ADD14C,0.01000*%
D14*
X-172441Y3543D02*
G03*
X-156693Y3543I7874J0D01*
G01*
Y36614D02*
G03*
X-172441Y36614I-7874J0D01*
G01*
X83437Y70866D02*
G03*
X75563Y78740I-7874J0D01*
G01*
X83437Y62992D02*
G03*
X91311Y55118I7874J0D01*
G01*
X-74803Y78740D02*
G03*
X-82677Y70866I0J-7874D01*
G01*
X-90551Y55118D02*
G03*
X-82677Y62992I0J7874D01*
G01*
X172441Y36614D02*
G03*
X156693Y36614I-7874J0D01*
G01*
Y3543D02*
G03*
X172441Y3543I7874J0D01*
G01*
X208661Y-55118D02*
G03*
X220472Y-43307I0J11811D01*
G01*
Y43307D02*
G03*
X208661Y55118I-11811J0D01*
G01*
X-208661D02*
G03*
X-220472Y43307I0J-11811D01*
G01*
Y-43307D02*
G03*
X-208661Y-55118I11811J0D01*
G01*
X-82677Y62992D02*
Y70866D01*
X83437Y62992D02*
Y70866D01*
X-172441Y3543D02*
Y36614D01*
X-156693Y3543D02*
Y36614D01*
X156693Y3543D02*
Y36614D01*
X172441Y3543D02*
Y36614D01*
X-208661Y55118D02*
X-90551Y55118D01*
X-74803Y78740D02*
X75563D01*
X-208661Y-55118D02*
X208661D01*
X-220472Y-43307D02*
Y43307D01*
X91311Y55118D02*
X208661Y55118D01*
X220472Y-43028D02*
Y43307D01*
M02*
