G04*
G04 #@! TF.GenerationSoftware,Altium Limited,Altium Designer,23.3.1 (30)*
G04*
G04 Layer_Physical_Order=1*
G04 Layer_Color=255*
%FSLAX25Y25*%
%MOIN*%
G70*
G04*
G04 #@! TF.SameCoordinates,AEED621E-3CD5-435C-AC93-41C8B311E913*
G04*
G04*
G04 #@! TF.FilePolarity,Positive*
G04*
G01*
G75*
%ADD11C,0.01575*%
%ADD15R,0.01850X0.02047*%
%ADD16R,0.02047X0.01850*%
%ADD17R,0.01575X0.01575*%
%ADD18R,0.03937X0.02756*%
%ADD19R,0.03937X0.01968*%
%ADD20R,0.01968X0.04724*%
%ADD21R,0.04724X0.01968*%
%ADD22R,0.22441X0.21654*%
%ADD23R,0.06890X0.03937*%
%ADD24R,0.02362X0.04724*%
%ADD25R,0.07047X0.12598*%
%ADD26R,0.07874X0.11811*%
%ADD27R,0.02953X0.05906*%
%ADD28R,0.04724X0.07284*%
%ADD29R,0.03150X0.01968*%
%ADD52C,0.01181*%
%ADD53C,0.19685*%
%ADD54C,0.02953*%
%ADD55C,0.01968*%
G36*
X75563Y77737D02*
X76240D01*
X77567Y77473D01*
X78817Y76955D01*
X79943Y76203D01*
X80900Y75246D01*
X81652Y74121D01*
X82170Y72870D01*
X82433Y71543D01*
X82433Y70866D01*
X82433Y62992D01*
X82438Y62968D01*
X82435Y62943D01*
X82473Y62171D01*
X82491Y62099D01*
Y62024D01*
X82792Y60511D01*
X82830Y60419D01*
X82849Y60322D01*
X83440Y58896D01*
X83495Y58814D01*
X83532Y58723D01*
X84390Y57439D01*
X84460Y57370D01*
X84515Y57287D01*
X85606Y56196D01*
X85688Y56141D01*
X85758Y56071D01*
X87042Y55213D01*
X87133Y55176D01*
X87215Y55121D01*
X88641Y54530D01*
X88738Y54511D01*
X88829Y54473D01*
X90343Y54172D01*
X90418D01*
X90490Y54154D01*
X91262Y54116D01*
X91286Y54119D01*
X91311Y54115D01*
X209370D01*
X210774Y53930D01*
X212143Y53563D01*
X213452Y53021D01*
X214679Y52312D01*
X215803Y51450D01*
X216804Y50448D01*
X217667Y49324D01*
X218375Y48097D01*
X218917Y46788D01*
X219284Y45420D01*
X219469Y44015D01*
X219469Y43307D01*
X219469Y-43307D01*
Y-44015D01*
X219284Y-45420D01*
X218917Y-46788D01*
X218375Y-48097D01*
X217667Y-49324D01*
X216804Y-50448D01*
X215803Y-51450D01*
X214679Y-52312D01*
X213452Y-53021D01*
X212143Y-53563D01*
X210774Y-53930D01*
X209370Y-54115D01*
X208661Y-54115D01*
X-208661Y-54115D01*
X-209370D01*
X-210774Y-53930D01*
X-212143Y-53563D01*
X-213452Y-53021D01*
X-214679Y-52312D01*
X-215803Y-51450D01*
X-216804Y-50448D01*
X-217667Y-49324D01*
X-218375Y-48097D01*
X-218917Y-46788D01*
X-219284Y-45420D01*
X-219469Y-44015D01*
X-219469Y-43307D01*
X-219469Y43307D01*
Y44015D01*
X-219284Y45420D01*
X-218917Y46788D01*
X-218375Y48097D01*
X-217667Y49324D01*
X-216804Y50448D01*
X-215803Y51450D01*
X-214679Y52312D01*
X-213452Y53021D01*
X-212143Y53563D01*
X-210774Y53930D01*
X-209370Y54115D01*
X-208661Y54115D01*
X-90551D01*
X-90527Y54119D01*
X-90502Y54116D01*
X-89730Y54154D01*
X-89658Y54172D01*
X-89584D01*
X-88070Y54473D01*
X-87978Y54511D01*
X-87881Y54530D01*
X-86455Y55121D01*
X-86373Y55176D01*
X-86282Y55213D01*
X-84999Y56071D01*
X-84929Y56141D01*
X-84846Y56196D01*
X-83755Y57287D01*
X-83700Y57370D01*
X-83630Y57439D01*
X-82773Y58723D01*
X-82735Y58814D01*
X-82680Y58896D01*
X-82089Y60322D01*
X-82070Y60419D01*
X-82032Y60511D01*
X-81731Y62025D01*
Y62099D01*
X-81713Y62171D01*
X-81675Y62943D01*
X-81679Y62968D01*
X-81674Y62992D01*
X-81674Y71543D01*
X-81410Y72870D01*
X-80892Y74121D01*
X-80140Y75246D01*
X-79183Y76203D01*
X-78058Y76955D01*
X-76807Y77473D01*
X-75480Y77737D01*
X-74803Y77737D01*
X75563Y77737D01*
D02*
G37*
%LPC*%
G36*
X4712Y74036D02*
X4690Y74027D01*
X4644Y74031D01*
X4620Y74016D01*
X4618Y74016D01*
X1181D01*
Y71260D01*
X4618D01*
X4620Y71260D01*
X4644Y71245D01*
X4690Y71249D01*
X4712Y71239D01*
X5118Y71260D01*
Y71487D01*
X5118Y71487D01*
Y71487D01*
X5570Y71608D01*
X5690Y71618D01*
X5835Y71620D01*
X6870Y70584D01*
Y65783D01*
X6857Y65752D01*
X6856Y65648D01*
X6849Y65475D01*
X6836Y65348D01*
X6831Y65314D01*
X6826Y65294D01*
X6822Y65286D01*
X6822Y65281D01*
X6817Y65268D01*
X6817Y65262D01*
X6706Y65151D01*
X6496Y64644D01*
Y64096D01*
X6706Y63590D01*
X7094Y63202D01*
X7600Y62992D01*
X8148D01*
X8655Y63202D01*
X9042Y63590D01*
X9252Y64096D01*
Y64644D01*
X9042Y65151D01*
X8931Y65262D01*
X8931Y65268D01*
X8926Y65281D01*
X8926Y65286D01*
X8922Y65294D01*
X8918Y65314D01*
X8913Y65341D01*
X8892Y65654D01*
X8891Y65752D01*
X8878Y65783D01*
Y71000D01*
X8801Y71384D01*
X8584Y71710D01*
X6946Y73347D01*
X6620Y73565D01*
X6236Y73641D01*
X5937D01*
X5909Y73654D01*
X5570Y73666D01*
X5118Y73789D01*
Y73789D01*
X5118Y73789D01*
X5118Y74016D01*
X4712Y74036D01*
D02*
G37*
G36*
X-4712D02*
X-5118Y74016D01*
Y73789D01*
X-5118Y73789D01*
Y73789D01*
X-5570Y73668D01*
X-5690Y73658D01*
X-5901Y73654D01*
X-5931Y73641D01*
X-6736D01*
X-7120Y73565D01*
X-7446Y73347D01*
X-8584Y72210D01*
X-8801Y71884D01*
X-8878Y71500D01*
Y65783D01*
X-8891Y65752D01*
X-8892Y65648D01*
X-8899Y65475D01*
X-8912Y65348D01*
X-8918Y65314D01*
X-8922Y65294D01*
X-8926Y65286D01*
X-8926Y65281D01*
X-8931Y65268D01*
X-8931Y65262D01*
X-9042Y65151D01*
X-9252Y64644D01*
Y64096D01*
X-9042Y63590D01*
X-8655Y63202D01*
X-8148Y62992D01*
X-7600D01*
X-7094Y63202D01*
X-6706Y63590D01*
X-6496Y64096D01*
Y64644D01*
X-6706Y65151D01*
X-6817Y65262D01*
X-6817Y65268D01*
X-6822Y65281D01*
X-6822Y65286D01*
X-6826Y65294D01*
X-6831Y65314D01*
X-6835Y65341D01*
X-6857Y65654D01*
X-6857Y65752D01*
X-6870Y65783D01*
Y71084D01*
X-6321Y71634D01*
X-5937D01*
X-5909Y71621D01*
X-5570Y71609D01*
X-5118Y71487D01*
Y71487D01*
X-5118Y71487D01*
X-5118Y71260D01*
X-4712Y71239D01*
X-4690Y71249D01*
X-4644Y71245D01*
X-4620Y71260D01*
X-4618Y71260D01*
X-1181D01*
Y74016D01*
X-4618D01*
X-4620Y74016D01*
X-4644Y74031D01*
X-4690Y74027D01*
X-4712Y74036D01*
D02*
G37*
G36*
X-20628Y76772D02*
X-24565D01*
Y70866D01*
X-20628D01*
Y76772D01*
D02*
G37*
G36*
X-65313D02*
X-69250D01*
Y70866D01*
X-65313D01*
Y76772D01*
D02*
G37*
G36*
X29175D02*
X25238D01*
Y70866D01*
X29175D01*
Y76772D01*
D02*
G37*
G36*
X73860D02*
X69923D01*
Y70866D01*
X73860D01*
Y76772D01*
D02*
G37*
G36*
X24450D02*
X20513D01*
Y70866D01*
X24450D01*
Y76772D01*
D02*
G37*
G36*
X69135D02*
X65198D01*
Y70866D01*
X69135D01*
Y76772D01*
D02*
G37*
G36*
X-25353D02*
X-29290D01*
Y70866D01*
X-25353D01*
Y76772D01*
D02*
G37*
G36*
X-70038D02*
X-73975D01*
Y70866D01*
X-70038D01*
Y76772D01*
D02*
G37*
G36*
X73860Y70079D02*
X69923D01*
Y64173D01*
X73860D01*
Y70079D01*
D02*
G37*
G36*
X69135D02*
X65198D01*
Y64173D01*
X69135D01*
Y70079D01*
D02*
G37*
G36*
X29175D02*
X25238D01*
Y64173D01*
X29175D01*
Y70079D01*
D02*
G37*
G36*
X24450D02*
X20513D01*
Y64173D01*
X24450D01*
Y70079D01*
D02*
G37*
G36*
X-20628D02*
X-24565D01*
Y64173D01*
X-20628D01*
Y70079D01*
D02*
G37*
G36*
X-25353D02*
X-29290D01*
Y64173D01*
X-25353D01*
Y70079D01*
D02*
G37*
G36*
X-65313D02*
X-69250D01*
Y64173D01*
X-65313D01*
Y70079D01*
D02*
G37*
G36*
X-70038D02*
X-73975D01*
Y64173D01*
X-70038D01*
Y70079D01*
D02*
G37*
G36*
X5118Y70473D02*
X1181D01*
Y67716D01*
X1912D01*
X1924Y67711D01*
X1985Y67704D01*
X1987Y67703D01*
X1990Y67702D01*
X2004Y67686D01*
X2029Y67645D01*
X2060Y67569D01*
X2089Y67460D01*
X2112Y67317D01*
X2128Y67144D01*
X2133Y66930D01*
X2146Y66901D01*
Y65783D01*
X2133Y65752D01*
X2132Y65648D01*
X2125Y65475D01*
X2112Y65348D01*
X2106Y65314D01*
X2101Y65294D01*
X2097Y65286D01*
X2097Y65281D01*
X2093Y65268D01*
X2093Y65262D01*
X1981Y65151D01*
X1772Y64644D01*
Y64096D01*
X1981Y63590D01*
X2369Y63202D01*
X2875Y62992D01*
X3424D01*
X3930Y63202D01*
X4318Y63590D01*
X4528Y64096D01*
Y64644D01*
X4318Y65151D01*
X4206Y65262D01*
X4207Y65268D01*
X4202Y65281D01*
X4202Y65286D01*
X4198Y65294D01*
X4193Y65314D01*
X4188Y65341D01*
X4167Y65654D01*
X4166Y65752D01*
X4153Y65783D01*
Y66901D01*
X4166Y66930D01*
X4172Y67144D01*
X4187Y67317D01*
X4210Y67460D01*
X4240Y67569D01*
X4270Y67645D01*
X4295Y67686D01*
X4309Y67702D01*
X4312Y67703D01*
X4314Y67704D01*
X4376Y67711D01*
X4387Y67716D01*
X5118D01*
Y70473D01*
D02*
G37*
G36*
X-1181D02*
X-5118D01*
Y67716D01*
X-4387D01*
X-4376Y67711D01*
X-4314Y67704D01*
X-4312Y67703D01*
X-4309Y67702D01*
X-4295Y67686D01*
X-4270Y67645D01*
X-4240Y67569D01*
X-4210Y67460D01*
X-4187Y67317D01*
X-4172Y67144D01*
X-4166Y66930D01*
X-4153Y66901D01*
Y65783D01*
X-4166Y65752D01*
X-4167Y65648D01*
X-4174Y65475D01*
X-4187Y65348D01*
X-4193Y65314D01*
X-4198Y65294D01*
X-4202Y65286D01*
X-4202Y65281D01*
X-4207Y65268D01*
X-4206Y65262D01*
X-4318Y65151D01*
X-4528Y64644D01*
Y64096D01*
X-4318Y63590D01*
X-3930Y63202D01*
X-3424Y62992D01*
X-2875D01*
X-2369Y63202D01*
X-1981Y63590D01*
X-1772Y64096D01*
Y64644D01*
X-1981Y65151D01*
X-2093Y65262D01*
X-2093Y65268D01*
X-2097Y65281D01*
X-2097Y65286D01*
X-2101Y65294D01*
X-2106Y65314D01*
X-2111Y65341D01*
X-2132Y65654D01*
X-2133Y65752D01*
X-2146Y65783D01*
Y66901D01*
X-2133Y66930D01*
X-2128Y67144D01*
X-2112Y67317D01*
X-2089Y67460D01*
X-2060Y67569D01*
X-2029Y67645D01*
X-2004Y67686D01*
X-1990Y67702D01*
X-1987Y67703D01*
X-1985Y67704D01*
X-1924Y67711D01*
X-1912Y67716D01*
X-1181D01*
Y70473D01*
D02*
G37*
G36*
X-57735Y62401D02*
X-59211D01*
Y59449D01*
X-57735D01*
Y62401D01*
D02*
G37*
G36*
X36753D02*
X35277D01*
Y59449D01*
X36753D01*
Y62401D01*
D02*
G37*
G36*
X34490D02*
X33013D01*
Y59449D01*
X34490D01*
Y62401D01*
D02*
G37*
G36*
X-59998D02*
X-61475D01*
Y59449D01*
X-59998D01*
Y62401D01*
D02*
G37*
G36*
X49921Y68307D02*
X49373D01*
X48867Y68097D01*
X48479Y67710D01*
X48269Y67203D01*
Y66655D01*
X48443Y66236D01*
Y63601D01*
X48434Y63580D01*
X48427Y63292D01*
X48409Y63050D01*
X48380Y62846D01*
X48348Y62711D01*
X48004Y62402D01*
X47777D01*
X47757Y61996D01*
X47761Y61985D01*
X47760Y61944D01*
X47777Y61914D01*
Y55709D01*
X51517D01*
Y61901D01*
X51517Y61914D01*
X51535Y61944D01*
X51533Y61985D01*
X51538Y61996D01*
X51517Y62402D01*
X51290Y62402D01*
X50946Y62711D01*
X50915Y62846D01*
X50886Y63050D01*
X50867Y63292D01*
X50861Y63580D01*
X50852Y63601D01*
Y66236D01*
X51025Y66655D01*
Y67203D01*
X50815Y67710D01*
X50428Y68097D01*
X49921Y68307D01*
D02*
G37*
G36*
X45000D02*
X44452D01*
X43945Y68097D01*
X43558Y67710D01*
X43348Y67203D01*
Y66655D01*
X43522Y66236D01*
Y63601D01*
X43512Y63580D01*
X43506Y63292D01*
X43488Y63050D01*
X43458Y62846D01*
X43427Y62711D01*
X43083Y62402D01*
X42856D01*
X42835Y61996D01*
X42840Y61985D01*
X42839Y61944D01*
X42856Y61914D01*
Y55709D01*
X46596D01*
Y61901D01*
X46596Y61914D01*
X46613Y61944D01*
X46612Y61985D01*
X46617Y61996D01*
X46596Y62402D01*
X46369Y62402D01*
X46025Y62711D01*
X45994Y62846D01*
X45964Y63050D01*
X45946Y63292D01*
X45939Y63580D01*
X45930Y63601D01*
Y66236D01*
X46104Y66655D01*
Y67203D01*
X45894Y67710D01*
X45507Y68097D01*
X45000Y68307D01*
D02*
G37*
G36*
X41675Y62401D02*
X37935D01*
Y55709D01*
X41675D01*
Y62401D01*
D02*
G37*
G36*
X36753Y58661D02*
X35277D01*
Y55709D01*
X36753D01*
Y58661D01*
D02*
G37*
G36*
X34490D02*
X33013D01*
Y55709D01*
X34490D01*
Y58661D01*
D02*
G37*
G36*
X-34724Y68307D02*
X-35272D01*
X-35779Y68097D01*
X-36167Y67710D01*
X-36376Y67203D01*
Y66655D01*
X-36203Y66236D01*
Y63601D01*
X-36212Y63580D01*
X-36218Y63292D01*
X-36237Y63050D01*
X-36266Y62846D01*
X-36297Y62711D01*
X-36641Y62402D01*
X-36869D01*
X-36889Y61996D01*
X-36884Y61985D01*
X-36886Y61944D01*
X-36869Y61914D01*
Y55709D01*
X-33128D01*
Y61901D01*
X-33128Y61914D01*
X-33111Y61944D01*
X-33113Y61985D01*
X-33108Y61996D01*
X-33128Y62402D01*
X-33356Y62402D01*
X-33700Y62711D01*
X-33731Y62846D01*
X-33760Y63050D01*
X-33779Y63292D01*
X-33785Y63580D01*
X-33794Y63601D01*
Y66236D01*
X-33621Y66655D01*
Y67203D01*
X-33830Y67710D01*
X-34218Y68097D01*
X-34724Y68307D01*
D02*
G37*
G36*
X-39646D02*
X-40194D01*
X-40700Y68097D01*
X-41088Y67710D01*
X-41298Y67203D01*
Y66655D01*
X-41124Y66236D01*
Y63601D01*
X-41133Y63580D01*
X-41140Y63292D01*
X-41158Y63050D01*
X-41187Y62846D01*
X-41219Y62711D01*
X-41563Y62402D01*
X-41790D01*
X-41810Y61996D01*
X-41805Y61985D01*
X-41807Y61944D01*
X-41790Y61914D01*
Y55709D01*
X-38050D01*
Y61901D01*
X-38050Y61914D01*
X-38032Y61944D01*
X-38034Y61985D01*
X-38029Y61996D01*
X-38050Y62402D01*
X-38277Y62402D01*
X-38621Y62711D01*
X-38652Y62846D01*
X-38681Y63050D01*
X-38700Y63292D01*
X-38706Y63580D01*
X-38715Y63601D01*
Y66236D01*
X-38542Y66655D01*
Y67203D01*
X-38752Y67710D01*
X-39139Y68097D01*
X-39646Y68307D01*
D02*
G37*
G36*
X-44567D02*
X-45115D01*
X-45621Y68097D01*
X-46009Y67710D01*
X-46219Y67203D01*
Y66655D01*
X-46045Y66236D01*
Y63601D01*
X-46054Y63580D01*
X-46061Y63292D01*
X-46079Y63050D01*
X-46108Y62846D01*
X-46140Y62711D01*
X-46484Y62402D01*
X-46711D01*
X-46731Y61996D01*
X-46727Y61985D01*
X-46728Y61944D01*
X-46711Y61914D01*
Y55709D01*
X-42971D01*
Y61901D01*
X-42971Y61914D01*
X-42954Y61944D01*
X-42955Y61985D01*
X-42950Y61996D01*
X-42971Y62402D01*
X-43198Y62402D01*
X-43542Y62711D01*
X-43573Y62846D01*
X-43603Y63050D01*
X-43621Y63292D01*
X-43628Y63580D01*
X-43637Y63601D01*
Y66236D01*
X-43463Y66655D01*
Y67203D01*
X-43673Y67710D01*
X-44060Y68097D01*
X-44567Y68307D01*
D02*
G37*
G36*
X-49488D02*
X-50036D01*
X-50543Y68097D01*
X-50930Y67710D01*
X-51140Y67203D01*
Y66655D01*
X-50966Y66236D01*
Y63601D01*
X-50976Y63580D01*
X-50982Y63292D01*
X-51000Y63050D01*
X-51030Y62846D01*
X-51061Y62711D01*
X-51405Y62402D01*
X-51632D01*
X-51653Y61996D01*
X-51648Y61985D01*
X-51650Y61944D01*
X-51632Y61914D01*
Y55709D01*
X-47892D01*
Y61901D01*
X-47892Y61914D01*
X-47875Y61944D01*
X-47876Y61985D01*
X-47872Y61996D01*
X-47892Y62402D01*
X-48119Y62402D01*
X-48463Y62711D01*
X-48495Y62846D01*
X-48524Y63050D01*
X-48542Y63292D01*
X-48549Y63580D01*
X-48558Y63601D01*
Y66236D01*
X-48384Y66655D01*
Y67203D01*
X-48594Y67710D01*
X-48982Y68097D01*
X-49488Y68307D01*
D02*
G37*
G36*
X-54409D02*
X-54958D01*
X-55464Y68097D01*
X-55852Y67710D01*
X-56061Y67203D01*
Y66655D01*
X-55888Y66236D01*
Y63601D01*
X-55897Y63580D01*
X-55903Y63292D01*
X-55922Y63050D01*
X-55951Y62846D01*
X-55982Y62711D01*
X-56326Y62402D01*
X-56554D01*
X-56574Y61996D01*
X-56569Y61985D01*
X-56571Y61944D01*
X-56554Y61914D01*
Y55709D01*
X-52813D01*
Y61901D01*
X-52813Y61914D01*
X-52796Y61944D01*
X-52798Y61985D01*
X-52793Y61996D01*
X-52813Y62402D01*
X-53040Y62402D01*
X-53385Y62711D01*
X-53416Y62846D01*
X-53445Y63050D01*
X-53464Y63292D01*
X-53470Y63580D01*
X-53479Y63601D01*
Y66236D01*
X-53306Y66655D01*
Y67203D01*
X-53515Y67710D01*
X-53903Y68097D01*
X-54409Y68307D01*
D02*
G37*
G36*
X-57735Y58661D02*
X-59211D01*
Y55709D01*
X-57735D01*
Y58661D01*
D02*
G37*
G36*
X-59998D02*
X-61475D01*
Y55709D01*
X-59998D01*
Y58661D01*
D02*
G37*
G36*
X167323Y53445D02*
X164961D01*
Y49803D01*
X167323D01*
Y53445D01*
D02*
G37*
G36*
X164173D02*
X161811D01*
Y49803D01*
X164173D01*
Y53445D01*
D02*
G37*
G36*
X-161811D02*
X-164173D01*
Y49803D01*
X-161811D01*
Y53445D01*
D02*
G37*
G36*
X-164961D02*
X-167323D01*
Y49803D01*
X-164961D01*
Y53445D01*
D02*
G37*
G36*
X59764Y68307D02*
X59216D01*
X58709Y68097D01*
X58322Y67710D01*
X58112Y67203D01*
Y66655D01*
X58285Y66236D01*
Y63601D01*
X58276Y63580D01*
X58270Y63292D01*
X58251Y63050D01*
X58222Y62846D01*
X58191Y62711D01*
X57847Y62402D01*
X57620D01*
X57599Y61996D01*
X57604Y61985D01*
X57602Y61944D01*
X57620Y61914D01*
Y55709D01*
X58253D01*
X58264Y55703D01*
X58325Y55696D01*
X58328Y55695D01*
X58330Y55694D01*
X58344Y55678D01*
X58369Y55637D01*
X58400Y55562D01*
X58429Y55452D01*
X58452Y55309D01*
X58468Y55136D01*
X58473Y54922D01*
X58486Y54893D01*
Y49101D01*
X58473Y49071D01*
X58469Y48856D01*
X58461Y48735D01*
X58300Y48287D01*
X58072D01*
X58052Y47882D01*
X57761Y47683D01*
X57619Y47618D01*
X57334Y47561D01*
X57008Y47344D01*
X56448Y46783D01*
X55986Y46974D01*
Y47787D01*
X55986Y47793D01*
X56002Y47820D01*
X56000Y47867D01*
X56006Y47882D01*
X55986Y48287D01*
X55759D01*
X55759Y48287D01*
X55759D01*
X55600Y48736D01*
X55589Y48861D01*
X55585Y49071D01*
X55572Y49101D01*
Y54893D01*
X55585Y54922D01*
X55591Y55136D01*
X55606Y55309D01*
X55629Y55452D01*
X55659Y55562D01*
X55689Y55637D01*
X55714Y55678D01*
X55728Y55694D01*
X55731Y55695D01*
X55733Y55696D01*
X55795Y55703D01*
X55806Y55709D01*
X56439D01*
Y62401D01*
X52698D01*
Y55709D01*
X53331D01*
X53342Y55703D01*
X53404Y55696D01*
X53406Y55695D01*
X53409Y55694D01*
X53423Y55678D01*
X53448Y55637D01*
X53478Y55562D01*
X53508Y55452D01*
X53531Y55309D01*
X53546Y55136D01*
X53552Y54922D01*
X53565Y54893D01*
Y49101D01*
X53552Y49071D01*
X53548Y48856D01*
X53540Y48735D01*
X53378Y48287D01*
X53378D01*
X53378Y48287D01*
X53151Y48287D01*
X53131Y47882D01*
X53137Y47867D01*
X53135Y47820D01*
X53151Y47793D01*
Y45650D01*
X54452D01*
X54650Y45186D01*
X54358Y44902D01*
X53930D01*
X53910Y44910D01*
X53889Y44902D01*
X53855D01*
X53842Y44905D01*
X53837Y44902D01*
X53151D01*
Y42264D01*
X55986D01*
Y42753D01*
X55989Y42758D01*
X55986Y42771D01*
Y42805D01*
X55994Y42825D01*
X55986Y42846D01*
Y43310D01*
X56035Y43395D01*
X56148Y43556D01*
X56496Y43966D01*
X56722Y44200D01*
X56734Y44230D01*
X57691Y45187D01*
X58062Y44870D01*
X58072Y44855D01*
X58072Y44418D01*
Y43976D01*
X59096D01*
Y44902D01*
X58571D01*
X58165Y44902D01*
X57867Y45300D01*
X58143Y45620D01*
X58359Y45621D01*
X58366Y45624D01*
X58372Y45622D01*
X58464Y45625D01*
X58473Y45630D01*
X58474Y45629D01*
X58476Y45630D01*
X58486Y45627D01*
X58508Y45629D01*
X58512Y45630D01*
X59155D01*
X59252Y45650D01*
X60907D01*
Y47787D01*
X60907Y47793D01*
X60923Y47820D01*
X60921Y47867D01*
X60927Y47882D01*
X60907Y48287D01*
X60680D01*
X60680Y48287D01*
X60680D01*
X60522Y48736D01*
X60510Y48861D01*
X60506Y49071D01*
X60493Y49101D01*
Y54893D01*
X60506Y54922D01*
X60512Y55136D01*
X60527Y55309D01*
X60550Y55452D01*
X60580Y55562D01*
X60610Y55637D01*
X60636Y55678D01*
X60649Y55694D01*
X60652Y55695D01*
X60654Y55696D01*
X60716Y55703D01*
X60727Y55709D01*
X61360D01*
Y61901D01*
X61360Y61914D01*
X61377Y61944D01*
X61376Y61985D01*
X61380Y61996D01*
X61360Y62402D01*
X61133Y62402D01*
X60789Y62711D01*
X60757Y62846D01*
X60728Y63050D01*
X60710Y63292D01*
X60703Y63580D01*
X60694Y63601D01*
Y66236D01*
X60868Y66655D01*
Y67203D01*
X60658Y67710D01*
X60270Y68097D01*
X59764Y68307D01*
D02*
G37*
G36*
X59883Y44902D02*
Y43976D01*
X60907D01*
Y44902D01*
X59883D01*
D02*
G37*
G36*
X209670Y53543D02*
X209055D01*
Y43701D01*
X218898D01*
Y44315D01*
X218504Y46293D01*
X217733Y48156D01*
X216612Y49832D01*
X215187Y51258D01*
X213510Y52378D01*
X211647Y53150D01*
X209670Y53543D01*
D02*
G37*
G36*
X208268D02*
X207653D01*
X205676Y53150D01*
X203813Y52378D01*
X202136Y51258D01*
X200710Y49832D01*
X199590Y48156D01*
X198819Y46293D01*
X198425Y44315D01*
Y43701D01*
X208268D01*
Y53543D01*
D02*
G37*
G36*
X-207653D02*
X-208268D01*
Y43701D01*
X-198425D01*
Y44315D01*
X-198819Y46293D01*
X-199590Y48156D01*
X-200710Y49832D01*
X-202136Y51258D01*
X-203813Y52378D01*
X-205676Y53150D01*
X-207653Y53543D01*
D02*
G37*
G36*
X-209055D02*
X-209670D01*
X-211647Y53150D01*
X-213510Y52378D01*
X-215187Y51258D01*
X-216612Y49832D01*
X-217733Y48156D01*
X-218504Y46293D01*
X-218898Y44315D01*
Y43701D01*
X-209055D01*
Y53543D01*
D02*
G37*
G36*
X60907Y43189D02*
X59883D01*
Y42264D01*
X60907D01*
Y43189D01*
D02*
G37*
G36*
X59096D02*
X58072D01*
Y42264D01*
X59096D01*
Y43189D01*
D02*
G37*
G36*
X13778Y44685D02*
X13230D01*
X12723Y44475D01*
X12336Y44088D01*
X12126Y43581D01*
Y43033D01*
X12336Y42527D01*
X12447Y42415D01*
X12447Y42409D01*
X12451Y42396D01*
X12452Y42391D01*
X12456Y42383D01*
X12460Y42364D01*
X12465Y42336D01*
X12486Y42024D01*
X12487Y41925D01*
X12500Y41894D01*
Y41605D01*
X12487Y41576D01*
X12477Y41245D01*
X12412Y40787D01*
X12412D01*
Y40787D01*
X12185D01*
X12165Y40382D01*
X12180Y40345D01*
X12172Y40301D01*
X12185Y40282D01*
Y37953D01*
X14823D01*
Y40282D01*
X14836Y40301D01*
X14828Y40345D01*
X14843Y40382D01*
X14823Y40787D01*
X14596D01*
Y40787D01*
X14596D01*
X14531Y41245D01*
X14524Y41356D01*
X14521Y41569D01*
X14507Y41599D01*
Y41894D01*
X14521Y41925D01*
X14522Y42030D01*
X14529Y42202D01*
X14541Y42329D01*
X14547Y42364D01*
X14552Y42383D01*
X14556Y42391D01*
X14556Y42396D01*
X14561Y42409D01*
X14560Y42415D01*
X14672Y42527D01*
X14882Y43033D01*
Y43581D01*
X14672Y44088D01*
X14285Y44475D01*
X13778Y44685D01*
D02*
G37*
G36*
X1967D02*
X1419D01*
X912Y44475D01*
X525Y44088D01*
X315Y43581D01*
Y43033D01*
X525Y42527D01*
X636Y42415D01*
X636Y42409D01*
X641Y42396D01*
X641Y42391D01*
X645Y42383D01*
X649Y42364D01*
X654Y42336D01*
X675Y42024D01*
X676Y41925D01*
X689Y41894D01*
Y41605D01*
X676Y41576D01*
X666Y41245D01*
X601Y40787D01*
X601D01*
Y40787D01*
X374D01*
X353Y40382D01*
X369Y40345D01*
X361Y40301D01*
X374Y40282D01*
Y37953D01*
X3012D01*
Y40282D01*
X3025Y40301D01*
X3017Y40345D01*
X3032Y40382D01*
X3012Y40787D01*
X2785D01*
Y40787D01*
X2785D01*
X2720Y41245D01*
X2713Y41356D01*
X2710Y41569D01*
X2696Y41599D01*
Y41894D01*
X2710Y41925D01*
X2710Y42030D01*
X2718Y42202D01*
X2730Y42329D01*
X2736Y42364D01*
X2741Y42383D01*
X2745Y42391D01*
X2745Y42396D01*
X2750Y42409D01*
X2750Y42415D01*
X2861Y42527D01*
X3071Y43033D01*
Y43581D01*
X2861Y44088D01*
X2473Y44475D01*
X1967Y44685D01*
D02*
G37*
G36*
X-9844D02*
X-10392D01*
X-10899Y44475D01*
X-11286Y44088D01*
X-11496Y43581D01*
Y43033D01*
X-11286Y42527D01*
X-11175Y42415D01*
X-11175Y42409D01*
X-11170Y42396D01*
X-11170Y42391D01*
X-11166Y42383D01*
X-11162Y42364D01*
X-11157Y42336D01*
X-11136Y42024D01*
X-11135Y41925D01*
X-11122Y41894D01*
Y41605D01*
X-11135Y41576D01*
X-11145Y41245D01*
X-11210Y40787D01*
X-11210D01*
Y40787D01*
X-11437D01*
X-11457Y40382D01*
X-11442Y40345D01*
X-11450Y40301D01*
X-11437Y40282D01*
Y37953D01*
X-8799D01*
Y40282D01*
X-8786Y40301D01*
X-8794Y40345D01*
X-8779Y40382D01*
X-8799Y40787D01*
X-9026D01*
Y40787D01*
X-9026D01*
X-9091Y41245D01*
X-9098Y41356D01*
X-9102Y41569D01*
X-9115Y41599D01*
Y41894D01*
X-9101Y41925D01*
X-9100Y42030D01*
X-9093Y42202D01*
X-9081Y42329D01*
X-9075Y42364D01*
X-9070Y42383D01*
X-9066Y42391D01*
X-9066Y42396D01*
X-9061Y42409D01*
X-9061Y42415D01*
X-8950Y42527D01*
X-8740Y43033D01*
Y43581D01*
X-8950Y44088D01*
X-9338Y44475D01*
X-9844Y44685D01*
D02*
G37*
G36*
X-56693Y40157D02*
X-58661D01*
Y39173D01*
X-56693D01*
Y40157D01*
D02*
G37*
G36*
X-33071D02*
X-35039D01*
Y39173D01*
X-33071D01*
Y40157D01*
D02*
G37*
G36*
X-59449D02*
X-61417D01*
Y39173D01*
X-59449D01*
Y40157D01*
D02*
G37*
G36*
X-35827D02*
X-37795D01*
Y39173D01*
X-35827D01*
Y40157D01*
D02*
G37*
G36*
X11437Y40787D02*
X8799D01*
Y38458D01*
X8786Y38439D01*
X8794Y38395D01*
X8779Y38359D01*
X8799Y37953D01*
X9026D01*
Y37953D01*
X9026D01*
X9091Y37495D01*
X9098Y37384D01*
X9102Y37171D01*
X9115Y37141D01*
Y36929D01*
X9191Y36545D01*
X9409Y36219D01*
X9881Y35747D01*
X9893Y35717D01*
X10044Y35559D01*
X10172Y35412D01*
X10282Y35270D01*
X10375Y35134D01*
X10451Y35005D01*
X10511Y34882D01*
X10556Y34766D01*
X10586Y34658D01*
X10603Y34557D01*
X10610Y34436D01*
X10630Y34395D01*
X10630Y34055D01*
X11036Y34035D01*
X11040Y34036D01*
X11060Y34035D01*
X11101Y34055D01*
X11130Y34055D01*
X12992D01*
Y35917D01*
X12992Y35946D01*
X13012Y35987D01*
X13011Y36008D01*
X13013Y36012D01*
X12992Y36417D01*
X12652Y36417D01*
X12611Y36437D01*
X12490Y36444D01*
X12389Y36461D01*
X12281Y36492D01*
X12165Y36536D01*
X12043Y36596D01*
X11913Y36672D01*
X11782Y36762D01*
X11485Y37007D01*
X11330Y37155D01*
X11300Y37166D01*
X11140Y37327D01*
X11145Y37495D01*
X11210Y37953D01*
X11210D01*
Y37953D01*
X11437D01*
X11457Y38359D01*
X11442Y38395D01*
X11450Y38439D01*
X11437Y38458D01*
Y40787D01*
D02*
G37*
G36*
X-374D02*
X-3012D01*
Y38458D01*
X-3025Y38439D01*
X-3017Y38395D01*
X-3032Y38359D01*
X-3012Y37953D01*
X-2785D01*
Y37953D01*
X-2785D01*
X-2720Y37495D01*
X-2713Y37384D01*
X-2710Y37171D01*
X-2696Y37141D01*
Y36929D01*
X-2620Y36545D01*
X-2403Y36219D01*
X-1930Y35747D01*
X-1918Y35717D01*
X-1767Y35559D01*
X-1639Y35412D01*
X-1529Y35270D01*
X-1436Y35134D01*
X-1360Y35005D01*
X-1300Y34882D01*
X-1255Y34766D01*
X-1225Y34658D01*
X-1208Y34557D01*
X-1201Y34436D01*
X-1181Y34395D01*
X-1181Y34055D01*
X-775Y34035D01*
X-771Y34036D01*
X-751Y34035D01*
X-710Y34055D01*
X-681Y34055D01*
X1181D01*
Y35917D01*
X1181Y35946D01*
X1201Y35987D01*
X1200Y36008D01*
X1202Y36012D01*
X1181Y36417D01*
X841Y36417D01*
X800Y36437D01*
X679Y36444D01*
X578Y36461D01*
X470Y36492D01*
X354Y36536D01*
X232Y36596D01*
X102Y36672D01*
X-29Y36762D01*
X-326Y37007D01*
X-481Y37155D01*
X-511Y37166D01*
X-672Y37327D01*
X-666Y37495D01*
X-601Y37953D01*
X-601D01*
Y37953D01*
X-374D01*
X-353Y38359D01*
X-369Y38395D01*
X-361Y38439D01*
X-374Y38458D01*
Y40787D01*
D02*
G37*
G36*
X-12185D02*
X-14823D01*
Y38458D01*
X-14836Y38439D01*
X-14828Y38395D01*
X-14843Y38359D01*
X-14823Y37953D01*
X-14596D01*
Y37953D01*
X-14596D01*
X-14531Y37495D01*
X-14524Y37384D01*
X-14521Y37171D01*
X-14507Y37141D01*
Y36929D01*
X-14431Y36545D01*
X-14213Y36219D01*
X-13741Y35747D01*
X-13729Y35717D01*
X-13578Y35559D01*
X-13450Y35412D01*
X-13340Y35270D01*
X-13247Y35134D01*
X-13171Y35005D01*
X-13111Y34882D01*
X-13066Y34766D01*
X-13036Y34658D01*
X-13019Y34557D01*
X-13012Y34436D01*
X-12992Y34395D01*
X-12992Y34055D01*
X-12586Y34035D01*
X-12583Y34036D01*
X-12562Y34035D01*
X-12521Y34055D01*
X-12492Y34055D01*
X-10630D01*
Y35917D01*
X-10630Y35946D01*
X-10610Y35987D01*
X-10611Y36008D01*
X-10609Y36012D01*
X-10630Y36417D01*
X-10970Y36417D01*
X-11011Y36437D01*
X-11132Y36444D01*
X-11233Y36461D01*
X-11341Y36492D01*
X-11457Y36536D01*
X-11579Y36596D01*
X-11709Y36672D01*
X-11840Y36762D01*
X-12137Y37007D01*
X-12292Y37155D01*
X-12322Y37166D01*
X-12483Y37327D01*
X-12477Y37495D01*
X-12412Y37953D01*
X-12412D01*
Y37953D01*
X-12185D01*
X-12165Y38359D01*
X-12180Y38395D01*
X-12172Y38439D01*
X-12185Y38458D01*
Y40787D01*
D02*
G37*
G36*
X-33071Y38386D02*
X-35039D01*
Y37402D01*
X-33071D01*
Y38386D01*
D02*
G37*
G36*
X-35827D02*
X-37795D01*
Y37402D01*
X-35827D01*
Y38386D01*
D02*
G37*
G36*
X-56693D02*
X-58661D01*
Y37402D01*
X-56693D01*
Y38386D01*
D02*
G37*
G36*
X-59449D02*
X-61417D01*
Y37402D01*
X-59449D01*
Y38386D01*
D02*
G37*
G36*
X218898Y42913D02*
X209055D01*
Y33071D01*
X209670D01*
X211647Y33464D01*
X213510Y34236D01*
X215187Y35356D01*
X216612Y36782D01*
X217733Y38458D01*
X218504Y40321D01*
X218898Y42299D01*
Y42913D01*
D02*
G37*
G36*
X208268D02*
X198425D01*
Y42299D01*
X198819Y40321D01*
X199590Y38458D01*
X200710Y36782D01*
X202136Y35356D01*
X203813Y34236D01*
X205676Y33464D01*
X207653Y33071D01*
X208268D01*
Y42913D01*
D02*
G37*
G36*
X-198425D02*
X-208268D01*
Y33071D01*
X-207653D01*
X-205676Y33464D01*
X-203813Y34236D01*
X-202136Y35356D01*
X-200710Y36782D01*
X-199590Y38458D01*
X-198819Y40321D01*
X-198425Y42299D01*
Y42913D01*
D02*
G37*
G36*
X-209055D02*
X-218898D01*
Y42299D01*
X-218504Y40321D01*
X-217733Y38458D01*
X-216612Y36782D01*
X-215187Y35356D01*
X-213510Y34236D01*
X-211647Y33464D01*
X-209670Y33071D01*
X-209055D01*
Y42913D01*
D02*
G37*
G36*
X62185Y38189D02*
X54350D01*
Y32733D01*
X54344Y32722D01*
X54338Y32660D01*
X54337Y32658D01*
X54335Y32656D01*
X54320Y32642D01*
X54278Y32616D01*
X54203Y32586D01*
X54094Y32557D01*
X53951Y32533D01*
X53778Y32518D01*
X53564Y32513D01*
X53535Y32500D01*
X52594D01*
X52563Y32513D01*
X52459Y32514D01*
X52286Y32521D01*
X52159Y32534D01*
X52125Y32540D01*
X52105Y32544D01*
X52097Y32548D01*
X52092Y32548D01*
X52079Y32553D01*
X52073Y32553D01*
X51962Y32664D01*
X51455Y32874D01*
X50907D01*
X50401Y32664D01*
X50013Y32277D01*
X49803Y31770D01*
Y31222D01*
X50013Y30716D01*
X50401Y30328D01*
X50907Y30118D01*
X51455D01*
X51962Y30328D01*
X52073Y30439D01*
X52079Y30439D01*
X52092Y30444D01*
X52097Y30444D01*
X52105Y30448D01*
X52125Y30453D01*
X52152Y30457D01*
X52465Y30479D01*
X52563Y30479D01*
X52594Y30492D01*
X53535D01*
X53564Y30479D01*
X53778Y30474D01*
X53951Y30459D01*
X54094Y30435D01*
X54203Y30406D01*
X54278Y30376D01*
X54320Y30350D01*
X54335Y30336D01*
X54337Y30334D01*
X54338Y30332D01*
X54344Y30270D01*
X54350Y30259D01*
Y24803D01*
X62185D01*
Y25220D01*
X62191Y25231D01*
X62202Y25330D01*
X62214Y25366D01*
X62236Y25398D01*
X62279Y25437D01*
X62356Y25484D01*
X62474Y25532D01*
X62635Y25575D01*
X62836Y25608D01*
X63035Y25626D01*
X63359Y25617D01*
X63543Y25602D01*
Y25532D01*
X63949Y25511D01*
X63998Y25532D01*
X66378D01*
Y28169D01*
X64043D01*
X63998Y28169D01*
X63949Y28190D01*
X63543Y28169D01*
Y28123D01*
X62938Y28083D01*
X62836Y28092D01*
X62635Y28126D01*
X62474Y28169D01*
X62356Y28217D01*
X62279Y28264D01*
X62236Y28303D01*
X62214Y28335D01*
X62202Y28371D01*
X62191Y28470D01*
X62185Y28481D01*
Y38189D01*
D02*
G37*
G36*
X2657Y32874D02*
X1870D01*
Y32087D01*
X2657D01*
Y32874D01*
D02*
G37*
G36*
X-9154D02*
X-9941D01*
Y32087D01*
X-9154D01*
Y32874D01*
D02*
G37*
G36*
X14469D02*
X13681D01*
Y32087D01*
X14469D01*
Y32874D01*
D02*
G37*
G36*
X-10728D02*
X-11516D01*
Y32087D01*
X-10728D01*
Y32874D01*
D02*
G37*
G36*
X12894D02*
X12106D01*
Y32087D01*
X12894D01*
Y32874D01*
D02*
G37*
G36*
X1083D02*
X295D01*
Y32087D01*
X1083D01*
Y32874D01*
D02*
G37*
G36*
X69172Y31614D02*
X68624D01*
X68117Y31404D01*
X68006Y31293D01*
X68000Y31293D01*
X67986Y31289D01*
X67981Y31288D01*
X67974Y31284D01*
X67954Y31280D01*
X67927Y31275D01*
X67614Y31254D01*
X67516Y31253D01*
X67485Y31240D01*
X67195D01*
X67166Y31253D01*
X66836Y31263D01*
X66378Y31328D01*
Y31328D01*
X66378D01*
Y31555D01*
X65972Y31576D01*
X65936Y31560D01*
X65892Y31568D01*
X65872Y31555D01*
X63543D01*
Y28917D01*
X65872D01*
X65892Y28905D01*
X65936Y28912D01*
X65972Y28897D01*
X66378Y28917D01*
Y29144D01*
X66378D01*
Y29144D01*
X66836Y29209D01*
X66947Y29217D01*
X67159Y29220D01*
X67190Y29233D01*
X67485D01*
X67516Y29219D01*
X67620Y29219D01*
X67793Y29212D01*
X67920Y29199D01*
X67954Y29193D01*
X67974Y29188D01*
X67981Y29184D01*
X67986Y29184D01*
X68000Y29179D01*
X68006Y29180D01*
X68117Y29068D01*
X68624Y28858D01*
X69172D01*
X69678Y29068D01*
X70066Y29456D01*
X70276Y29962D01*
Y30510D01*
X70066Y31017D01*
X69678Y31404D01*
X69172Y31614D01*
D02*
G37*
G36*
X30945Y31555D02*
X29921D01*
Y30630D01*
X30945D01*
Y31555D01*
D02*
G37*
G36*
X29134D02*
X28110D01*
Y30630D01*
X29134D01*
Y31555D01*
D02*
G37*
G36*
X14469Y31299D02*
X13681D01*
Y30512D01*
X14469D01*
Y31299D01*
D02*
G37*
G36*
X12894D02*
X12106D01*
Y30512D01*
X12894D01*
Y31299D01*
D02*
G37*
G36*
X2657D02*
X1870D01*
Y30512D01*
X2657D01*
Y31299D01*
D02*
G37*
G36*
X1083D02*
X295D01*
Y30512D01*
X1083D01*
Y31299D01*
D02*
G37*
G36*
X-9154D02*
X-9941D01*
Y30512D01*
X-9154D01*
Y31299D01*
D02*
G37*
G36*
X-10728D02*
X-11516D01*
Y30512D01*
X-10728D01*
Y31299D01*
D02*
G37*
G36*
X40138Y38189D02*
X32303D01*
Y28481D01*
X32297Y28470D01*
X32287Y28371D01*
X32274Y28335D01*
X32252Y28303D01*
X32210Y28264D01*
X32132Y28217D01*
X32014Y28169D01*
X31853Y28126D01*
X31652Y28092D01*
X31453Y28075D01*
X31129Y28084D01*
X30945Y28098D01*
Y28169D01*
X30539Y28190D01*
X30490Y28169D01*
X28110D01*
Y25532D01*
X30445D01*
X30490Y25532D01*
X30539Y25511D01*
X30945Y25532D01*
Y25578D01*
X31550Y25617D01*
X31652Y25608D01*
X31853Y25575D01*
X32014Y25532D01*
X32132Y25484D01*
X32210Y25437D01*
X32252Y25398D01*
X32274Y25366D01*
X32287Y25330D01*
X32297Y25231D01*
X32303Y25220D01*
Y24803D01*
X40138D01*
Y30259D01*
X40144Y30270D01*
X40150Y30332D01*
X40151Y30334D01*
X40153Y30336D01*
X40168Y30350D01*
X40210Y30376D01*
X40285Y30406D01*
X40394Y30435D01*
X40537Y30459D01*
X40710Y30474D01*
X40924Y30479D01*
X40953Y30492D01*
X41894D01*
X41925Y30479D01*
X42030Y30479D01*
X42202Y30471D01*
X42329Y30458D01*
X42364Y30453D01*
X42383Y30448D01*
X42391Y30444D01*
X42396Y30444D01*
X42409Y30439D01*
X42415Y30439D01*
X42527Y30328D01*
X43033Y30118D01*
X43581D01*
X44088Y30328D01*
X44475Y30716D01*
X44685Y31222D01*
Y31770D01*
X44475Y32277D01*
X44088Y32664D01*
X43581Y32874D01*
X43033D01*
X42527Y32664D01*
X42415Y32553D01*
X42409Y32553D01*
X42396Y32548D01*
X42391Y32548D01*
X42383Y32544D01*
X42364Y32540D01*
X42336Y32535D01*
X42024Y32514D01*
X41925Y32513D01*
X41894Y32500D01*
X40953D01*
X40924Y32513D01*
X40710Y32518D01*
X40537Y32533D01*
X40395Y32557D01*
X40285Y32586D01*
X40210Y32616D01*
X40168Y32642D01*
X40153Y32656D01*
X40151Y32658D01*
X40150Y32660D01*
X40144Y32722D01*
X40138Y32733D01*
Y38189D01*
D02*
G37*
G36*
X30945Y29842D02*
X29921D01*
Y28917D01*
X30945D01*
Y29842D01*
D02*
G37*
G36*
X29134D02*
X28110D01*
Y28917D01*
X29134D01*
Y29842D01*
D02*
G37*
G36*
X3012Y28976D02*
X2087D01*
Y27953D01*
X3012D01*
Y28976D01*
D02*
G37*
G36*
X14823D02*
X13898D01*
Y27953D01*
X14823D01*
Y28976D01*
D02*
G37*
G36*
X-8799D02*
X-9724D01*
Y27953D01*
X-8799D01*
Y28976D01*
D02*
G37*
G36*
X13110D02*
X12185D01*
Y27953D01*
X13110D01*
Y28976D01*
D02*
G37*
G36*
X-10512D02*
X-11437D01*
Y27953D01*
X-10512D01*
Y28976D01*
D02*
G37*
G36*
X1299D02*
X374D01*
Y27953D01*
X1299D01*
Y28976D01*
D02*
G37*
G36*
X14823Y27165D02*
X13898D01*
Y26142D01*
X14823D01*
Y27165D01*
D02*
G37*
G36*
X13110D02*
X12185D01*
Y26142D01*
X13110D01*
Y27165D01*
D02*
G37*
G36*
X3012D02*
X2087D01*
Y26142D01*
X3012D01*
Y27165D01*
D02*
G37*
G36*
X1299D02*
X374D01*
Y26142D01*
X1299D01*
Y27165D01*
D02*
G37*
G36*
X-8799D02*
X-9724D01*
Y26142D01*
X-8799D01*
Y27165D01*
D02*
G37*
G36*
X-10512D02*
X-11437D01*
Y26142D01*
X-10512D01*
Y27165D01*
D02*
G37*
G36*
X11516Y32874D02*
X9154D01*
Y31012D01*
X9154Y30967D01*
X9133Y30918D01*
X9154Y30512D01*
X9278D01*
X9316Y29945D01*
X9318Y29751D01*
X9313Y29550D01*
X9299Y29376D01*
X9299Y29376D01*
X9026Y28976D01*
X8799D01*
X8779Y28571D01*
X8783Y28560D01*
X8782Y28522D01*
X8799Y28490D01*
Y26647D01*
X8786Y26628D01*
X8794Y26584D01*
X8779Y26547D01*
X8799Y26142D01*
X9026D01*
Y26142D01*
X9026D01*
X9091Y25684D01*
X9095Y25619D01*
X9092Y25497D01*
X9026Y25039D01*
X9026D01*
Y25039D01*
X8799D01*
X8779Y24634D01*
X8794Y24597D01*
X8787Y24553D01*
X8799Y24534D01*
Y22710D01*
X8786Y22691D01*
X8794Y22647D01*
X8779Y22610D01*
X8799Y22205D01*
X9026D01*
Y22205D01*
X9026D01*
X9091Y21747D01*
X9095Y21682D01*
X9092Y21560D01*
X9026Y21102D01*
X9026D01*
Y21102D01*
X8799D01*
X8779Y20697D01*
X8794Y20660D01*
X8787Y20616D01*
X8799Y20597D01*
Y18268D01*
X11437D01*
Y20597D01*
X11450Y20616D01*
X11442Y20660D01*
X11457Y20697D01*
X11437Y21102D01*
X11210D01*
Y21102D01*
X11210D01*
X11145Y21560D01*
X11141Y21625D01*
X11145Y21747D01*
X11210Y22205D01*
X11210D01*
Y22205D01*
X11437D01*
X11457Y22610D01*
X11442Y22647D01*
X11450Y22691D01*
X11437Y22710D01*
Y24534D01*
X11450Y24553D01*
X11442Y24597D01*
X11457Y24634D01*
X11437Y25039D01*
X11210D01*
Y25039D01*
X11210D01*
X11145Y25497D01*
X11141Y25562D01*
X11145Y25684D01*
X11210Y26142D01*
X11210D01*
Y26142D01*
X11437D01*
X11457Y26547D01*
X11442Y26584D01*
X11450Y26628D01*
X11437Y26647D01*
Y28476D01*
X11437Y28521D01*
X11457Y28571D01*
X11437Y28976D01*
X11386D01*
X11352Y29541D01*
X11351Y29737D01*
X11359Y30144D01*
X11379Y30451D01*
X11387Y30512D01*
X11516Y30512D01*
X11536Y30918D01*
X11516Y30967D01*
X11516Y31012D01*
Y32874D01*
D02*
G37*
G36*
X-295D02*
X-2657D01*
Y31012D01*
X-2657Y30967D01*
X-2678Y30918D01*
X-2657Y30512D01*
X-2533D01*
X-2495Y29945D01*
X-2493Y29751D01*
X-2498Y29550D01*
X-2512Y29376D01*
X-2512Y29376D01*
X-2785Y28976D01*
X-3012D01*
X-3032Y28571D01*
X-3028Y28560D01*
X-3029Y28522D01*
X-3012Y28490D01*
Y26647D01*
X-3025Y26628D01*
X-3017Y26584D01*
X-3032Y26547D01*
X-3012Y26142D01*
X-2785D01*
Y26142D01*
X-2785D01*
X-2720Y25684D01*
X-2716Y25619D01*
X-2719Y25497D01*
X-2785Y25039D01*
X-2785D01*
Y25039D01*
X-3012D01*
X-3032Y24634D01*
X-3017Y24597D01*
X-3025Y24553D01*
X-3012Y24534D01*
Y22710D01*
X-3025Y22691D01*
X-3017Y22647D01*
X-3032Y22610D01*
X-3012Y22205D01*
X-2785D01*
Y22205D01*
X-2785D01*
X-2720Y21747D01*
X-2716Y21682D01*
X-2719Y21560D01*
X-2785Y21102D01*
X-2785D01*
Y21102D01*
X-3012D01*
X-3032Y20697D01*
X-3017Y20660D01*
X-3025Y20616D01*
X-3012Y20597D01*
Y18268D01*
X-374D01*
Y20597D01*
X-361Y20616D01*
X-369Y20660D01*
X-353Y20697D01*
X-374Y21102D01*
X-601D01*
Y21102D01*
X-601D01*
X-666Y21560D01*
X-670Y21625D01*
X-666Y21747D01*
X-601Y22205D01*
X-601D01*
Y22205D01*
X-374D01*
X-353Y22610D01*
X-369Y22647D01*
X-361Y22691D01*
X-374Y22710D01*
Y24534D01*
X-361Y24553D01*
X-369Y24597D01*
X-353Y24634D01*
X-374Y25039D01*
X-601D01*
Y25039D01*
X-601D01*
X-666Y25497D01*
X-670Y25562D01*
X-666Y25684D01*
X-601Y26142D01*
X-601D01*
Y26142D01*
X-374D01*
X-353Y26547D01*
X-369Y26584D01*
X-361Y26628D01*
X-374Y26647D01*
Y28476D01*
X-374Y28521D01*
X-353Y28571D01*
X-374Y28976D01*
X-425D01*
X-459Y29541D01*
X-460Y29737D01*
X-453Y30144D01*
X-432Y30451D01*
X-424Y30512D01*
X-295Y30512D01*
X-275Y30918D01*
X-295Y30967D01*
X-295Y31012D01*
Y32874D01*
D02*
G37*
G36*
X-12106D02*
X-14469D01*
Y31012D01*
X-14469Y30967D01*
X-14489Y30918D01*
X-14469Y30512D01*
X-14344D01*
X-14306Y29945D01*
X-14304Y29751D01*
X-14309Y29550D01*
X-14323Y29376D01*
X-14323Y29376D01*
X-14596Y28976D01*
X-14823D01*
X-14843Y28571D01*
X-14839Y28560D01*
X-14841Y28522D01*
X-14823Y28490D01*
Y26647D01*
X-14836Y26628D01*
X-14828Y26584D01*
X-14843Y26547D01*
X-14823Y26142D01*
X-14596D01*
Y26142D01*
X-14596D01*
X-14531Y25684D01*
X-14527Y25619D01*
X-14530Y25497D01*
X-14596Y25039D01*
X-14596D01*
Y25039D01*
X-14823D01*
X-14843Y24634D01*
X-14828Y24597D01*
X-14836Y24553D01*
X-14823Y24534D01*
Y22710D01*
X-14836Y22691D01*
X-14828Y22647D01*
X-14843Y22610D01*
X-14823Y22205D01*
X-14596D01*
Y22205D01*
X-14596D01*
X-14531Y21747D01*
X-14527Y21682D01*
X-14530Y21560D01*
X-14596Y21102D01*
X-14596D01*
Y21102D01*
X-14823D01*
X-14843Y20697D01*
X-14828Y20660D01*
X-14836Y20616D01*
X-14823Y20597D01*
Y18268D01*
X-12185D01*
Y20597D01*
X-12172Y20616D01*
X-12180Y20660D01*
X-12165Y20697D01*
X-12185Y21102D01*
X-12412D01*
Y21102D01*
X-12412D01*
X-12477Y21560D01*
X-12481Y21625D01*
X-12477Y21747D01*
X-12412Y22205D01*
X-12412D01*
Y22205D01*
X-12185D01*
X-12165Y22610D01*
X-12180Y22647D01*
X-12172Y22691D01*
X-12185Y22710D01*
Y24534D01*
X-12172Y24553D01*
X-12180Y24597D01*
X-12165Y24634D01*
X-12185Y25039D01*
X-12412D01*
Y25039D01*
X-12412D01*
X-12477Y25497D01*
X-12481Y25562D01*
X-12477Y25684D01*
X-12412Y26142D01*
X-12412D01*
Y26142D01*
X-12185D01*
X-12165Y26547D01*
X-12180Y26584D01*
X-12172Y26628D01*
X-12185Y26647D01*
Y28476D01*
X-12185Y28521D01*
X-12165Y28571D01*
X-12185Y28976D01*
X-12236D01*
X-12270Y29541D01*
X-12271Y29737D01*
X-12264Y30144D01*
X-12243Y30451D01*
X-12235Y30512D01*
X-12106Y30512D01*
X-12086Y30918D01*
X-12106Y30967D01*
X-12106Y31012D01*
Y32874D01*
D02*
G37*
G36*
X-57099Y25611D02*
X-57121Y25602D01*
X-57167Y25605D01*
X-57191Y25591D01*
X-57193Y25591D01*
X-61417D01*
Y22835D01*
X-57193D01*
X-57191Y22835D01*
X-57167Y22820D01*
X-57121Y22823D01*
X-57099Y22814D01*
X-56693Y22835D01*
Y23062D01*
X-56693Y23062D01*
Y23062D01*
X-56240Y23183D01*
X-56121Y23192D01*
X-55965Y23195D01*
X-55961Y23195D01*
X-55788Y23188D01*
X-55661Y23175D01*
X-55627Y23169D01*
X-55607Y23164D01*
X-55600Y23160D01*
X-55595Y23160D01*
X-55581Y23156D01*
X-55576Y23156D01*
X-55464Y23044D01*
X-54958Y22835D01*
X-54409D01*
X-53903Y23044D01*
X-53791Y23156D01*
X-53786Y23156D01*
X-53772Y23160D01*
X-53767Y23160D01*
X-53759Y23164D01*
X-53740Y23169D01*
X-53713Y23174D01*
X-53400Y23195D01*
X-53302Y23196D01*
X-53271Y23209D01*
X-38614D01*
X-38586Y23196D01*
X-38248Y23184D01*
X-37795Y23062D01*
Y23062D01*
X-37795Y23062D01*
X-37795Y22835D01*
X-37390Y22814D01*
X-37367Y22823D01*
X-37321Y22820D01*
X-37297Y22835D01*
X-37295Y22835D01*
X-33071D01*
Y25591D01*
X-37295D01*
X-37297Y25591D01*
X-37321Y25605D01*
X-37367Y25602D01*
X-37390Y25611D01*
X-37795Y25591D01*
Y25363D01*
X-37795Y25363D01*
Y25363D01*
X-38248Y25242D01*
X-38367Y25233D01*
X-38578Y25229D01*
X-38608Y25216D01*
X-53271D01*
X-53302Y25229D01*
X-53406Y25230D01*
X-53579Y25237D01*
X-53706Y25250D01*
X-53740Y25256D01*
X-53759Y25261D01*
X-53767Y25265D01*
X-53772Y25265D01*
X-53786Y25270D01*
X-53791Y25269D01*
X-53903Y25381D01*
X-54409Y25591D01*
X-54958D01*
X-55464Y25381D01*
X-55576Y25269D01*
X-55581Y25270D01*
X-55595Y25265D01*
X-55600Y25265D01*
X-55607Y25261D01*
X-55627Y25256D01*
X-55654Y25251D01*
X-55955Y25231D01*
X-56241Y25241D01*
X-56693Y25363D01*
Y25363D01*
X-56693Y25363D01*
X-56693Y25591D01*
X-57099Y25611D01*
D02*
G37*
G36*
X3012Y25039D02*
X2087D01*
Y24016D01*
X3012D01*
Y25039D01*
D02*
G37*
G36*
X-8799D02*
X-9724D01*
Y24016D01*
X-8799D01*
Y25039D01*
D02*
G37*
G36*
X14823D02*
X13898D01*
Y24016D01*
X14823D01*
Y25039D01*
D02*
G37*
G36*
X-10512D02*
X-11437D01*
Y24016D01*
X-10512D01*
Y25039D01*
D02*
G37*
G36*
X13110D02*
X12185D01*
Y24016D01*
X13110D01*
Y25039D01*
D02*
G37*
G36*
X1299D02*
X374D01*
Y24016D01*
X1299D01*
Y25039D01*
D02*
G37*
G36*
X14823Y23228D02*
X13898D01*
Y22205D01*
X14823D01*
Y23228D01*
D02*
G37*
G36*
X13110D02*
X12185D01*
Y22205D01*
X13110D01*
Y23228D01*
D02*
G37*
G36*
X3012D02*
X2087D01*
Y22205D01*
X3012D01*
Y23228D01*
D02*
G37*
G36*
X1299D02*
X374D01*
Y22205D01*
X1299D01*
Y23228D01*
D02*
G37*
G36*
X-8799D02*
X-9724D01*
Y22205D01*
X-8799D01*
Y23228D01*
D02*
G37*
G36*
X-10512D02*
X-11437D01*
Y22205D01*
X-10512D01*
Y23228D01*
D02*
G37*
G36*
X14823Y21102D02*
X12185D01*
Y18773D01*
X12172Y18754D01*
X12180Y18710D01*
X12165Y18673D01*
X12185Y18268D01*
X12412D01*
Y18268D01*
X12412D01*
X12477Y17810D01*
X12484Y17699D01*
X12487Y17486D01*
X12500Y17456D01*
Y17161D01*
X12487Y17130D01*
X12486Y17026D01*
X12479Y16853D01*
X12466Y16726D01*
X12460Y16692D01*
X12456Y16672D01*
X12452Y16664D01*
X12451Y16659D01*
X12447Y16646D01*
X12447Y16640D01*
X12336Y16529D01*
X12126Y16022D01*
Y15474D01*
X12336Y14967D01*
X12723Y14580D01*
X13230Y14370D01*
X13778D01*
X14285Y14580D01*
X14672Y14967D01*
X14882Y15474D01*
Y16022D01*
X14672Y16529D01*
X14560Y16640D01*
X14561Y16646D01*
X14556Y16659D01*
X14556Y16664D01*
X14552Y16672D01*
X14547Y16692D01*
X14543Y16719D01*
X14522Y17032D01*
X14521Y17130D01*
X14507Y17161D01*
Y17451D01*
X14520Y17479D01*
X14530Y17810D01*
X14596Y18268D01*
X14596D01*
Y18268D01*
X14823D01*
X14843Y18673D01*
X14828Y18710D01*
X14836Y18754D01*
X14823Y18773D01*
Y21102D01*
D02*
G37*
G36*
X3012D02*
X374D01*
Y18773D01*
X361Y18754D01*
X369Y18710D01*
X353Y18673D01*
X374Y18268D01*
X601D01*
Y18268D01*
X601D01*
X666Y17810D01*
X673Y17699D01*
X676Y17486D01*
X689Y17456D01*
Y17161D01*
X676Y17130D01*
X675Y17026D01*
X668Y16853D01*
X655Y16726D01*
X649Y16692D01*
X645Y16672D01*
X641Y16664D01*
X641Y16659D01*
X636Y16646D01*
X636Y16640D01*
X525Y16529D01*
X315Y16022D01*
Y15474D01*
X525Y14967D01*
X912Y14580D01*
X1419Y14370D01*
X1967D01*
X2473Y14580D01*
X2861Y14967D01*
X3071Y15474D01*
Y16022D01*
X2861Y16529D01*
X2750Y16640D01*
X2750Y16646D01*
X2745Y16659D01*
X2745Y16664D01*
X2741Y16672D01*
X2736Y16692D01*
X2732Y16719D01*
X2710Y17032D01*
X2710Y17130D01*
X2696Y17161D01*
Y17451D01*
X2709Y17479D01*
X2719Y17810D01*
X2785Y18268D01*
X2785D01*
Y18268D01*
X3012D01*
X3032Y18673D01*
X3017Y18710D01*
X3025Y18754D01*
X3012Y18773D01*
Y21102D01*
D02*
G37*
G36*
X-8799D02*
X-11437D01*
Y18773D01*
X-11450Y18754D01*
X-11442Y18710D01*
X-11457Y18673D01*
X-11437Y18268D01*
X-11210D01*
Y18268D01*
X-11210D01*
X-11145Y17810D01*
X-11138Y17699D01*
X-11135Y17486D01*
X-11122Y17456D01*
Y17161D01*
X-11135Y17130D01*
X-11136Y17026D01*
X-11143Y16853D01*
X-11156Y16726D01*
X-11162Y16692D01*
X-11166Y16672D01*
X-11170Y16664D01*
X-11170Y16659D01*
X-11175Y16646D01*
X-11175Y16640D01*
X-11286Y16529D01*
X-11496Y16022D01*
Y15474D01*
X-11286Y14967D01*
X-10899Y14580D01*
X-10392Y14370D01*
X-9844D01*
X-9338Y14580D01*
X-8950Y14967D01*
X-8740Y15474D01*
Y16022D01*
X-8950Y16529D01*
X-9061Y16640D01*
X-9061Y16646D01*
X-9066Y16659D01*
X-9066Y16664D01*
X-9070Y16672D01*
X-9075Y16692D01*
X-9079Y16719D01*
X-9101Y17032D01*
X-9101Y17130D01*
X-9115Y17161D01*
Y17451D01*
X-9102Y17479D01*
X-9092Y17810D01*
X-9026Y18268D01*
X-9026D01*
Y18268D01*
X-8799D01*
X-8779Y18673D01*
X-8794Y18710D01*
X-8787Y18754D01*
X-8799Y18773D01*
Y21102D01*
D02*
G37*
G36*
X-47736Y17165D02*
X-48661D01*
Y16142D01*
X-47736D01*
Y17165D01*
D02*
G37*
G36*
X-49449D02*
X-50374D01*
Y16142D01*
X-49449D01*
Y17165D01*
D02*
G37*
G36*
X-47736Y15354D02*
X-48661D01*
Y14331D01*
X-47736D01*
Y15354D01*
D02*
G37*
G36*
X-49449D02*
X-50374D01*
Y14331D01*
X-49449D01*
Y15354D01*
D02*
G37*
G36*
X-44350Y17165D02*
X-46988D01*
Y14836D01*
X-47001Y14817D01*
X-46993Y14773D01*
X-47009Y14736D01*
X-46988Y14331D01*
X-46761D01*
Y14331D01*
X-46761D01*
X-46697Y13873D01*
X-46689Y13762D01*
X-46687Y13602D01*
X-46687Y13581D01*
X-46694Y13408D01*
X-46707Y13281D01*
X-46713Y13247D01*
X-46718Y13227D01*
X-46721Y13219D01*
X-46722Y13215D01*
X-46726Y13201D01*
X-46726Y13195D01*
X-46837Y13084D01*
X-47047Y12577D01*
Y12029D01*
X-47417Y11614D01*
X-47547Y11614D01*
X-48425D01*
Y8858D01*
Y6102D01*
X-47547D01*
X-47441Y6102D01*
X-47047D01*
X-46941Y6102D01*
X-44398D01*
X-44291Y6102D01*
X-43898D01*
X-43791Y6102D01*
X-41248D01*
X-41142Y6102D01*
X-40748D01*
X-40642Y6102D01*
X-38098D01*
X-37992Y6102D01*
X-37598D01*
X-37492Y6102D01*
X-34843D01*
Y11116D01*
X-34828Y11140D01*
X-34831Y11186D01*
X-34822Y11208D01*
X-34843Y11614D01*
X-35011Y12114D01*
X-34843Y12521D01*
Y13069D01*
X-35052Y13576D01*
X-35440Y13963D01*
X-35946Y14173D01*
X-36495D01*
X-37001Y13963D01*
X-37389Y13576D01*
X-37598Y13069D01*
Y12521D01*
X-37430Y12114D01*
X-37598Y11614D01*
X-37992D01*
X-38098Y11614D01*
X-40642D01*
X-40748Y11614D01*
X-41142D01*
X-41248Y11614D01*
X-43791D01*
X-43922Y11614D01*
X-44226Y11956D01*
X-44291Y12114D01*
Y12577D01*
X-44501Y13084D01*
X-44613Y13195D01*
X-44612Y13201D01*
X-44617Y13215D01*
X-44617Y13219D01*
X-44621Y13227D01*
X-44626Y13247D01*
X-44631Y13274D01*
X-44651Y13584D01*
X-44643Y13873D01*
X-44578Y14331D01*
X-44578D01*
Y14331D01*
X-44350D01*
X-44330Y14736D01*
X-44345Y14773D01*
X-44338Y14817D01*
X-44350Y14836D01*
Y17165D01*
D02*
G37*
G36*
X41161Y14823D02*
X40138D01*
Y13898D01*
X41161D01*
Y14823D01*
D02*
G37*
G36*
X39350D02*
X38327D01*
Y13898D01*
X39350D01*
Y14823D01*
D02*
G37*
G36*
X41161Y13110D02*
X40138D01*
Y12185D01*
X41161D01*
Y13110D01*
D02*
G37*
G36*
X39350D02*
X38327D01*
Y12185D01*
X39350D01*
Y13110D01*
D02*
G37*
G36*
X-54844Y14173D02*
X-55392D01*
X-55899Y13963D01*
X-56286Y13576D01*
X-56496Y13069D01*
Y12521D01*
X-56327Y12114D01*
X-56496Y11614D01*
X-56890D01*
X-56996Y11614D01*
X-59646D01*
Y6102D01*
X-56996D01*
X-56890Y6102D01*
X-56496D01*
X-56390Y6102D01*
X-53847D01*
X-53740Y6102D01*
X-53347D01*
X-53240Y6102D01*
X-50697D01*
X-50591Y6102D01*
X-50197D01*
X-50090Y6102D01*
X-49213D01*
Y8858D01*
Y11614D01*
X-50090D01*
X-50197Y11614D01*
X-50591D01*
X-50697Y11614D01*
X-53240D01*
X-53347Y11614D01*
X-53740D01*
X-53909Y12114D01*
X-53740Y12521D01*
Y13069D01*
X-53950Y13576D01*
X-54338Y13963D01*
X-54844Y14173D01*
D02*
G37*
G36*
X41161Y11437D02*
X38327D01*
Y9299D01*
X38327Y9294D01*
X38311Y9267D01*
X38313Y9220D01*
X38306Y9205D01*
X38327Y8799D01*
X38554D01*
X38554Y8799D01*
X38554D01*
X38712Y8351D01*
X38723Y8225D01*
X38728Y8016D01*
X38741Y7986D01*
Y7850D01*
X38727Y7819D01*
X38726Y7715D01*
X38719Y7542D01*
X38706Y7415D01*
X38701Y7381D01*
X38696Y7361D01*
X38692Y7353D01*
X38692Y7348D01*
X38687Y7335D01*
X38688Y7329D01*
X38576Y7218D01*
X38366Y6711D01*
Y6163D01*
X38429Y6012D01*
X38169Y5512D01*
X38149Y5106D01*
X38153Y5097D01*
X38151Y5061D01*
X38169Y5028D01*
Y0D01*
X41319D01*
Y5028D01*
X41337Y5061D01*
X41335Y5097D01*
X41339Y5106D01*
X41319Y5512D01*
X41059Y6012D01*
X41122Y6163D01*
Y6711D01*
X40912Y7218D01*
X40801Y7329D01*
X40801Y7335D01*
X40797Y7348D01*
X40796Y7353D01*
X40792Y7361D01*
X40788Y7381D01*
X40783Y7408D01*
X40762Y7721D01*
X40761Y7819D01*
X40748Y7850D01*
Y7986D01*
X40761Y8016D01*
X40765Y8231D01*
X40772Y8351D01*
X40934Y8799D01*
X40934D01*
X40934Y8799D01*
X41161Y8799D01*
X41182Y9205D01*
X41176Y9220D01*
X41177Y9267D01*
X41161Y9294D01*
Y11437D01*
D02*
G37*
G36*
X-96458Y9252D02*
X-97006D01*
X-97513Y9042D01*
X-97900Y8655D01*
X-98110Y8148D01*
Y7600D01*
X-97900Y7094D01*
X-97789Y6982D01*
X-97789Y6976D01*
X-97785Y6963D01*
X-97784Y6958D01*
X-97781Y6950D01*
X-97776Y6931D01*
X-97771Y6903D01*
X-97750Y6590D01*
X-97749Y6492D01*
X-97736Y6461D01*
Y6171D01*
X-97749Y6143D01*
X-97759Y5812D01*
X-97824Y5354D01*
X-97824D01*
Y5354D01*
X-98051D01*
X-98072Y4949D01*
X-98057Y4912D01*
X-98064Y4868D01*
X-98051Y4849D01*
Y2520D01*
X-95413D01*
Y4849D01*
X-95401Y4868D01*
X-95408Y4912D01*
X-95393Y4949D01*
X-95413Y5354D01*
X-95640D01*
Y5354D01*
X-95640D01*
X-95705Y5812D01*
X-95713Y5923D01*
X-95716Y6136D01*
X-95729Y6166D01*
Y6461D01*
X-95716Y6492D01*
X-95715Y6596D01*
X-95708Y6769D01*
X-95695Y6896D01*
X-95689Y6931D01*
X-95684Y6950D01*
X-95680Y6958D01*
X-95680Y6963D01*
X-95675Y6976D01*
X-95676Y6982D01*
X-95564Y7094D01*
X-95354Y7600D01*
Y8148D01*
X-95564Y8655D01*
X-95952Y9042D01*
X-96458Y9252D01*
D02*
G37*
G36*
X-28162Y4548D02*
X-28184Y4539D01*
X-28230Y4543D01*
X-28254Y4528D01*
X-33268D01*
Y1878D01*
X-33268Y1772D01*
Y1378D01*
X-33268Y1272D01*
Y-1272D01*
X-33268Y-1378D01*
Y-1772D01*
X-33268Y-1878D01*
Y-4421D01*
X-33268Y-4528D01*
Y-4921D01*
X-33268Y-5028D01*
Y-7571D01*
X-33268Y-7677D01*
Y-8071D01*
X-33268Y-8177D01*
Y-10721D01*
X-33268Y-10827D01*
Y-11220D01*
X-33268Y-11327D01*
Y-13870D01*
X-33268Y-13976D01*
Y-14370D01*
X-33268Y-14476D01*
Y-17020D01*
X-33268Y-17126D01*
Y-17520D01*
X-33268Y-17626D01*
Y-20276D01*
X-27756D01*
Y-17626D01*
X-27756Y-17520D01*
Y-17126D01*
X-27756Y-17020D01*
Y-14476D01*
X-27756Y-14370D01*
Y-13976D01*
X-27756Y-13870D01*
Y-11327D01*
X-27756Y-11220D01*
Y-10827D01*
X-27256Y-10658D01*
X-26849Y-10827D01*
X-26301D01*
X-25794Y-10617D01*
X-25407Y-10229D01*
X-25197Y-9723D01*
Y-9175D01*
X-25407Y-8668D01*
X-25794Y-8281D01*
X-26136Y-8139D01*
Y-7609D01*
X-25794Y-7467D01*
X-25407Y-7080D01*
X-25197Y-6573D01*
Y-6025D01*
X-25407Y-5519D01*
X-25794Y-5131D01*
X-26136Y-4989D01*
Y-4459D01*
X-25794Y-4318D01*
X-25407Y-3930D01*
X-25197Y-3424D01*
Y-2875D01*
X-25407Y-2369D01*
X-25794Y-1981D01*
X-26136Y-1840D01*
Y-1310D01*
X-25794Y-1168D01*
X-25407Y-781D01*
X-25197Y-274D01*
Y274D01*
X-25407Y781D01*
X-25794Y1168D01*
X-26136Y1310D01*
Y1840D01*
X-25794Y1981D01*
X-25407Y2369D01*
X-25197Y2875D01*
Y3424D01*
X-25407Y3930D01*
X-25794Y4318D01*
X-26301Y4528D01*
X-26849D01*
X-27256Y4359D01*
X-27756Y4528D01*
X-28162Y4548D01*
D02*
G37*
G36*
X-87539Y5354D02*
X-88465D01*
Y4331D01*
X-87539D01*
Y5354D01*
D02*
G37*
G36*
X-89252D02*
X-90177D01*
Y4331D01*
X-89252D01*
Y5354D01*
D02*
G37*
G36*
X56319Y5512D02*
X55138D01*
Y3150D01*
X56319D01*
Y5512D01*
D02*
G37*
G36*
X54350D02*
X53169D01*
Y3150D01*
X54350D01*
Y5512D01*
D02*
G37*
G36*
X-87539Y3543D02*
X-88465D01*
Y2520D01*
X-87539D01*
Y3543D01*
D02*
G37*
G36*
X-89252D02*
X-90177D01*
Y2520D01*
X-89252D01*
Y3543D01*
D02*
G37*
G36*
X-90925Y5354D02*
X-93563D01*
Y3020D01*
X-93563Y3016D01*
X-93578Y2991D01*
X-93576Y2944D01*
X-93583Y2925D01*
X-93563Y2520D01*
X-93597Y2360D01*
X-93622Y2243D01*
X-93622Y2044D01*
Y1694D01*
X-93563Y1417D01*
X-93722Y983D01*
X-93723Y980D01*
X-93816Y958D01*
X-93961Y937D01*
X-94135Y923D01*
X-94348Y918D01*
X-94378Y905D01*
X-96431D01*
X-96461Y918D01*
X-97205Y932D01*
X-97244Y935D01*
Y984D01*
X-97581Y999D01*
X-97604Y994D01*
X-97625Y1004D01*
X-97746Y1011D01*
X-97847Y1028D01*
X-97956Y1059D01*
X-98071Y1103D01*
X-98194Y1163D01*
X-98323Y1239D01*
X-98454Y1329D01*
X-98752Y1574D01*
X-98906Y1722D01*
X-98936Y1733D01*
X-99097Y1894D01*
X-99092Y2062D01*
X-99026Y2520D01*
X-99026D01*
Y2520D01*
X-98799D01*
X-98779Y2925D01*
X-98794Y2962D01*
X-98786Y3006D01*
X-98799Y3025D01*
Y5354D01*
X-101437D01*
Y3025D01*
X-101450Y3006D01*
X-101442Y2962D01*
X-101458Y2925D01*
X-101437Y2520D01*
X-101210D01*
Y2520D01*
X-101210D01*
X-101145Y2062D01*
X-101138Y1951D01*
X-101135Y1738D01*
X-101122Y1708D01*
Y1496D01*
X-101045Y1112D01*
X-100828Y786D01*
X-100355Y314D01*
X-100344Y284D01*
X-100192Y126D01*
X-100064Y-22D01*
X-99954Y-163D01*
X-99861Y-299D01*
X-99785Y-428D01*
X-99725Y-551D01*
X-99681Y-667D01*
X-99650Y-775D01*
X-99633Y-876D01*
X-99626Y-997D01*
X-99606Y-1038D01*
X-99606Y-1378D01*
X-99201Y-1398D01*
X-99197Y-1397D01*
X-99176Y-1398D01*
X-99135Y-1378D01*
X-99106Y-1378D01*
X-97756D01*
X-97741Y-1388D01*
X-97694Y-1380D01*
X-97650Y-1398D01*
X-97244Y-1378D01*
Y-1172D01*
X-97167Y-1157D01*
X-96674Y-1118D01*
X-96463Y-1115D01*
X-96433Y-1102D01*
X-94380D01*
X-94351Y-1115D01*
X-94021Y-1125D01*
X-93563Y-1190D01*
Y-1190D01*
X-93563D01*
Y-1417D01*
X-93157Y-1438D01*
X-93121Y-1423D01*
X-93077Y-1430D01*
X-93057Y-1417D01*
X-90925D01*
Y917D01*
X-90925Y921D01*
X-90910Y946D01*
X-90912Y993D01*
X-90905Y1012D01*
X-90925Y1417D01*
X-90891Y1577D01*
X-90866Y1694D01*
X-90866Y1893D01*
X-90866Y2243D01*
X-90891Y2360D01*
X-90925Y2520D01*
X-90905Y2925D01*
X-90912Y2944D01*
X-90910Y2991D01*
X-90925Y3016D01*
X-90925Y3020D01*
Y5354D01*
D02*
G37*
G36*
X-14331Y3347D02*
X-15354D01*
Y2421D01*
X-14331D01*
Y3347D01*
D02*
G37*
G36*
X-16142D02*
X-17165D01*
Y2421D01*
X-16142D01*
Y3347D01*
D02*
G37*
G36*
X11500Y3426D02*
X-11500D01*
X-11801Y3301D01*
X-11801Y3301D01*
X-13869Y1234D01*
X-14331Y1425D01*
Y1634D01*
X-15354D01*
Y663D01*
X-15087Y209D01*
X-15174Y52D01*
X-16909D01*
X-17165Y158D01*
X-18000D01*
X-18301Y34D01*
X-18426Y-268D01*
Y-9646D01*
X-18301Y-9947D01*
X-18110Y-10026D01*
Y-13189D01*
X-13781D01*
X-13687Y-13416D01*
X-12426Y-14676D01*
Y-19000D01*
X-12301Y-19301D01*
X-12000Y-19426D01*
X11500D01*
X11801Y-19301D01*
X11926Y-19000D01*
Y3000D01*
X11801Y3301D01*
X11500Y3426D01*
D02*
G37*
G36*
X-16142Y1634D02*
X-17165D01*
Y709D01*
X-16142D01*
Y1634D01*
D02*
G37*
G36*
X56319Y2362D02*
X55138D01*
Y0D01*
X56319D01*
Y2362D01*
D02*
G37*
G36*
X54350D02*
X53169D01*
Y0D01*
X54350D01*
Y2362D01*
D02*
G37*
G36*
X50018Y8071D02*
X49470D01*
X48963Y7861D01*
X48576Y7474D01*
X48366Y6967D01*
Y6419D01*
X48526Y6032D01*
X48527Y5958D01*
X48403Y5686D01*
X48269Y5512D01*
X48169Y5512D01*
X48149Y5106D01*
X48153Y5097D01*
X48151Y5061D01*
X48169Y5028D01*
Y0D01*
X51319D01*
Y5012D01*
X51319Y5028D01*
X51337Y5061D01*
X51336Y5097D01*
X51339Y5106D01*
X51319Y5512D01*
X51219D01*
X51086Y5686D01*
X50962Y5958D01*
X50962Y6032D01*
X51122Y6419D01*
Y6967D01*
X50912Y7474D01*
X50525Y7861D01*
X50018Y8071D01*
D02*
G37*
G36*
X45018D02*
X44470D01*
X43964Y7861D01*
X43576Y7474D01*
X43366Y6967D01*
Y6419D01*
X43526Y6032D01*
X43527Y5958D01*
X43403Y5686D01*
X43269Y5512D01*
X43169Y5512D01*
X43149Y5106D01*
X43153Y5097D01*
X43151Y5061D01*
X43169Y5028D01*
Y0D01*
X46319D01*
Y5012D01*
X46319Y5028D01*
X46337Y5061D01*
X46336Y5097D01*
X46339Y5106D01*
X46319Y5512D01*
X46219D01*
X46086Y5686D01*
X45961Y5958D01*
X45962Y6032D01*
X46122Y6419D01*
Y6967D01*
X45912Y7474D01*
X45525Y7861D01*
X45018Y8071D01*
D02*
G37*
G36*
X30079Y3484D02*
X22402D01*
Y-1240D01*
X30079D01*
Y-137D01*
X30097Y-104D01*
X30103Y-41D01*
X30104Y-38D01*
X30106Y-36D01*
X30121Y-22D01*
X30161Y2D01*
X30235Y32D01*
X30343Y61D01*
X30483Y85D01*
X30654Y100D01*
X30865Y106D01*
X30895Y118D01*
X31914D01*
X31945Y105D01*
X32049Y104D01*
X32222Y97D01*
X32349Y84D01*
X32383Y78D01*
X32403Y74D01*
X32411Y70D01*
X32415Y70D01*
X32429Y65D01*
X32435Y65D01*
X32546Y-46D01*
X33053Y-256D01*
X33601D01*
X34107Y-46D01*
X34495Y341D01*
X34705Y848D01*
Y1396D01*
X34495Y1903D01*
X34107Y2290D01*
X33601Y2500D01*
X33053D01*
X32546Y2290D01*
X32435Y2179D01*
X32429Y2179D01*
X32415Y2175D01*
X32411Y2174D01*
X32403Y2170D01*
X32383Y2166D01*
X32356Y2161D01*
X32043Y2140D01*
X31945Y2139D01*
X31914Y2126D01*
X30895D01*
X30865Y2139D01*
X30654Y2144D01*
X30483Y2159D01*
X30343Y2183D01*
X30235Y2212D01*
X30161Y2242D01*
X30121Y2266D01*
X30106Y2280D01*
X30104Y2283D01*
X30103Y2285D01*
X30097Y2348D01*
X30079Y2381D01*
Y3484D01*
D02*
G37*
G36*
X-95768Y-2559D02*
X-96555D01*
Y-3347D01*
X-95768D01*
Y-2559D01*
D02*
G37*
G36*
X-97342D02*
X-98130D01*
Y-3347D01*
X-97342D01*
Y-2559D01*
D02*
G37*
G36*
X-90847Y-2953D02*
X-91634D01*
Y-3740D01*
X-90847D01*
Y-2953D01*
D02*
G37*
G36*
X-92421D02*
X-93209D01*
Y-3740D01*
X-92421D01*
Y-2953D01*
D02*
G37*
G36*
X-70592Y-748D02*
X-71140D01*
X-71647Y-958D01*
X-72034Y-1345D01*
X-72244Y-1852D01*
Y-2400D01*
X-72034Y-2906D01*
X-71923Y-3018D01*
X-71923Y-3024D01*
X-71919Y-3037D01*
X-71918Y-3042D01*
X-71914Y-3050D01*
X-71910Y-3070D01*
X-71905Y-3097D01*
X-71884Y-3410D01*
X-71883Y-3508D01*
X-71870Y-3539D01*
Y-3931D01*
X-71883Y-3961D01*
X-71887Y-4176D01*
X-71894Y-4296D01*
X-72056Y-4744D01*
X-72056D01*
X-72056Y-4744D01*
X-72284Y-4744D01*
X-72304Y-5150D01*
X-72298Y-5165D01*
X-72299Y-5212D01*
X-72284Y-5239D01*
Y-7382D01*
X-69449D01*
Y-5244D01*
X-69449Y-5239D01*
X-69433Y-5212D01*
X-69434Y-5165D01*
X-69428Y-5150D01*
X-69449Y-4744D01*
X-69676D01*
X-69676Y-4744D01*
X-69676D01*
X-69834Y-4296D01*
X-69846Y-4170D01*
X-69849Y-3961D01*
X-69863Y-3931D01*
Y-3539D01*
X-69849Y-3508D01*
X-69849Y-3404D01*
X-69841Y-3231D01*
X-69828Y-3104D01*
X-69823Y-3070D01*
X-69818Y-3050D01*
X-69814Y-3042D01*
X-69814Y-3037D01*
X-69809Y-3024D01*
X-69810Y-3018D01*
X-69698Y-2906D01*
X-69488Y-2400D01*
Y-1852D01*
X-69698Y-1345D01*
X-70086Y-958D01*
X-70592Y-748D01*
D02*
G37*
G36*
X-95768Y-4134D02*
X-96555D01*
Y-4921D01*
X-95768D01*
Y-4134D01*
D02*
G37*
G36*
X-97342D02*
X-98130D01*
Y-4921D01*
X-97342D01*
Y-4134D01*
D02*
G37*
G36*
X-87539Y1417D02*
X-90177D01*
Y-896D01*
X-90184Y-905D01*
X-90177Y-953D01*
Y-962D01*
X-90198Y-1012D01*
X-90177Y-1061D01*
Y-1389D01*
X-90345Y-1793D01*
Y-2341D01*
X-90292Y-2468D01*
X-90256Y-2953D01*
X-90276Y-3359D01*
X-90259Y-3401D01*
X-90267Y-3447D01*
X-90256Y-3463D01*
Y-5315D01*
X-87894D01*
Y-3408D01*
X-87873Y-3359D01*
X-87894Y-2953D01*
X-87894Y-2953D01*
X-87882Y-2931D01*
X-87798Y-2847D01*
X-87589Y-2341D01*
Y-1793D01*
X-87666Y-1606D01*
X-87539Y-1417D01*
X-87519Y-1012D01*
X-87524Y-999D01*
X-87522Y-957D01*
X-87539Y-928D01*
Y1417D01*
D02*
G37*
G36*
X-90847Y-4528D02*
X-91634D01*
Y-5315D01*
X-90847D01*
Y-4528D01*
D02*
G37*
G36*
X-92421D02*
X-93209D01*
Y-5315D01*
X-92421D01*
Y-4528D01*
D02*
G37*
G36*
X-95819Y-6436D02*
X-95834Y-6442D01*
X-95881Y-6441D01*
X-95908Y-6457D01*
X-98051D01*
Y-8786D01*
X-98064Y-8805D01*
X-98057Y-8849D01*
X-98072Y-8886D01*
X-98051Y-9291D01*
X-97824D01*
Y-9291D01*
X-97824D01*
X-97760Y-9749D01*
X-97755Y-9814D01*
X-97759Y-9936D01*
X-97824Y-10394D01*
X-97824D01*
Y-10394D01*
X-98051D01*
X-98072Y-10799D01*
X-98057Y-10836D01*
X-98064Y-10880D01*
X-98051Y-10899D01*
Y-13228D01*
X-95413D01*
Y-10899D01*
X-95401Y-10880D01*
X-95408Y-10836D01*
X-95393Y-10799D01*
X-95413Y-10394D01*
X-95640D01*
Y-10394D01*
X-95640D01*
X-95705Y-9936D01*
X-95710Y-9871D01*
X-95703Y-9667D01*
X-95689Y-9515D01*
X-95671Y-9388D01*
X-95650Y-9295D01*
X-95649Y-9291D01*
X-95413D01*
Y-8987D01*
X-95379Y-8971D01*
X-95294Y-8947D01*
X-95181Y-8925D01*
X-94840Y-8895D01*
X-94630Y-8891D01*
X-94600Y-8878D01*
X-92539D01*
X-92508Y-8891D01*
X-92506Y-8890D01*
X-92503Y-8891D01*
X-91337Y-8879D01*
X-91231Y-8885D01*
X-91129Y-8902D01*
X-91021Y-8933D01*
X-90905Y-8977D01*
X-90783Y-9037D01*
X-90653Y-9113D01*
X-90522Y-9203D01*
X-90225Y-9448D01*
X-90070Y-9596D01*
X-90040Y-9607D01*
X-89880Y-9768D01*
X-89885Y-9936D01*
X-89950Y-10394D01*
X-89950D01*
Y-10394D01*
X-90177D01*
X-90198Y-10799D01*
X-90183Y-10836D01*
X-90190Y-10880D01*
X-90177Y-10899D01*
Y-13228D01*
X-87539D01*
Y-10899D01*
X-87527Y-10880D01*
X-87534Y-10836D01*
X-87519Y-10799D01*
X-87539Y-10394D01*
X-87766D01*
Y-10394D01*
X-87766D01*
X-87831Y-9936D01*
X-87839Y-9825D01*
X-87842Y-9612D01*
X-87855Y-9582D01*
Y-9370D01*
X-87931Y-8986D01*
X-88149Y-8660D01*
X-88621Y-8188D01*
X-88633Y-8158D01*
X-88784Y-7999D01*
X-88912Y-7852D01*
X-89022Y-7711D01*
X-89115Y-7575D01*
X-89191Y-7446D01*
X-89251Y-7323D01*
X-89296Y-7207D01*
X-89326Y-7099D01*
X-89343Y-6998D01*
X-89350Y-6877D01*
X-89370Y-6836D01*
X-89370Y-6496D01*
X-89776Y-6476D01*
X-89780Y-6477D01*
X-89800Y-6476D01*
X-89841Y-6496D01*
X-89870Y-6496D01*
X-91232D01*
X-91234Y-6496D01*
X-91258Y-6481D01*
X-91304Y-6485D01*
X-91327Y-6476D01*
X-91732Y-6496D01*
Y-6723D01*
X-91732Y-6723D01*
Y-6723D01*
X-92185Y-6844D01*
X-92304Y-6854D01*
X-92515Y-6857D01*
X-92545Y-6870D01*
X-94600D01*
X-94630Y-6857D01*
X-94845Y-6853D01*
X-94966Y-6846D01*
X-95413Y-6684D01*
Y-6684D01*
X-95413Y-6684D01*
X-95413Y-6457D01*
X-95819Y-6436D01*
D02*
G37*
G36*
X-61221Y4528D02*
X-66732D01*
Y1878D01*
X-66732Y1772D01*
Y1378D01*
X-66732Y1272D01*
Y-1272D01*
X-66732Y-1378D01*
Y-1772D01*
X-66732Y-1878D01*
Y-4421D01*
X-66732Y-4528D01*
Y-4921D01*
X-66732Y-5028D01*
Y-7571D01*
X-66732Y-7701D01*
X-67074Y-8006D01*
X-67232Y-8071D01*
X-67695D01*
X-68202Y-8281D01*
X-68313Y-8392D01*
X-68319Y-8392D01*
X-68333Y-8396D01*
X-68338Y-8397D01*
X-68345Y-8401D01*
X-68365Y-8405D01*
X-68392Y-8410D01*
X-68702Y-8431D01*
X-68991Y-8422D01*
X-69449Y-8357D01*
Y-8357D01*
X-69449D01*
Y-8130D01*
X-69854Y-8110D01*
X-69891Y-8125D01*
X-69935Y-8117D01*
X-69955Y-8130D01*
X-72284D01*
Y-10268D01*
X-72284Y-10273D01*
X-72299Y-10300D01*
X-72298Y-10347D01*
X-72304Y-10362D01*
X-72284Y-10768D01*
X-72267Y-11261D01*
X-72284Y-11280D01*
X-72304Y-11685D01*
X-72298Y-11700D01*
X-72299Y-11748D01*
X-72284Y-11774D01*
Y-13917D01*
X-69449D01*
Y-13699D01*
X-68949Y-13512D01*
X-68694Y-13767D01*
X-68352Y-13908D01*
X-68393Y-14432D01*
X-68749Y-14580D01*
X-68949Y-14780D01*
X-69449Y-14665D01*
X-69511Y-14665D01*
X-70473D01*
Y-15984D01*
Y-17303D01*
X-69449D01*
Y-16924D01*
X-68949Y-16716D01*
X-68749Y-16916D01*
X-68416Y-17054D01*
X-68399Y-17588D01*
X-68676Y-17703D01*
X-69063Y-18090D01*
X-69273Y-18597D01*
Y-19145D01*
X-69063Y-19651D01*
X-68676Y-20039D01*
X-68169Y-20249D01*
X-67621D01*
X-67232Y-20088D01*
X-66732Y-20276D01*
X-66327Y-20296D01*
X-66307Y-20288D01*
X-66260Y-20291D01*
X-66235Y-20276D01*
X-61221D01*
Y-17626D01*
X-61221Y-17520D01*
Y-17126D01*
X-61221Y-17020D01*
Y-14476D01*
X-61221Y-14370D01*
Y-13976D01*
X-61221Y-13870D01*
Y-11327D01*
X-61221Y-11220D01*
Y-10827D01*
X-61221Y-10721D01*
Y-8177D01*
X-61221Y-8071D01*
Y-7677D01*
X-61221Y-7571D01*
Y-5028D01*
X-61221Y-4921D01*
Y-4528D01*
X-61221Y-4421D01*
Y-1878D01*
X-61221Y-1772D01*
Y-1378D01*
X-61221Y-1272D01*
Y1272D01*
X-61221Y1378D01*
Y1772D01*
X-61221Y1878D01*
Y4528D01*
D02*
G37*
G36*
X-98721Y-2559D02*
X-101083D01*
Y-4466D01*
X-101103Y-4516D01*
X-101083Y-4921D01*
X-101083Y-4921D01*
X-101094Y-4943D01*
X-101178Y-5026D01*
X-101388Y-5533D01*
Y-6081D01*
X-101311Y-6267D01*
X-101437Y-6457D01*
X-101457Y-6862D01*
X-101452Y-6875D01*
X-101454Y-6917D01*
X-101437Y-6946D01*
Y-9291D01*
X-98799D01*
Y-6978D01*
X-98792Y-6969D01*
X-98799Y-6921D01*
Y-6912D01*
X-98779Y-6862D01*
X-98799Y-6813D01*
Y-6485D01*
X-98632Y-6081D01*
Y-5533D01*
X-98684Y-5406D01*
X-98721Y-4921D01*
X-98700Y-4516D01*
X-98718Y-4473D01*
X-98709Y-4427D01*
X-98721Y-4411D01*
Y-2559D01*
D02*
G37*
G36*
X-98799Y-10394D02*
X-99724D01*
Y-11417D01*
X-98799D01*
Y-10394D01*
D02*
G37*
G36*
X-100512D02*
X-101437D01*
Y-11417D01*
X-100512D01*
Y-10394D01*
D02*
G37*
G36*
X-98799Y-12205D02*
X-99724D01*
Y-13228D01*
X-98799D01*
Y-12205D01*
D02*
G37*
G36*
X-100512D02*
X-101437D01*
Y-13228D01*
X-100512D01*
Y-12205D01*
D02*
G37*
G36*
X-90925Y-10394D02*
X-93563D01*
Y-12723D01*
X-93576Y-12742D01*
X-93568Y-12786D01*
X-93584Y-12823D01*
X-93563Y-13228D01*
X-93336D01*
Y-13228D01*
X-93336D01*
X-93271Y-13686D01*
X-93264Y-13797D01*
X-93261Y-14010D01*
X-93248Y-14040D01*
Y-14335D01*
X-93261Y-14366D01*
X-93262Y-14470D01*
X-93269Y-14643D01*
X-93282Y-14770D01*
X-93288Y-14805D01*
X-93292Y-14824D01*
X-93296Y-14832D01*
X-93296Y-14837D01*
X-93301Y-14850D01*
X-93301Y-14856D01*
X-93412Y-14967D01*
X-93622Y-15474D01*
Y-16022D01*
X-93412Y-16529D01*
X-93025Y-16916D01*
X-92518Y-17126D01*
X-91970D01*
X-91464Y-16916D01*
X-91076Y-16529D01*
X-90866Y-16022D01*
Y-15474D01*
X-91076Y-14967D01*
X-91188Y-14856D01*
X-91187Y-14850D01*
X-91192Y-14837D01*
X-91192Y-14832D01*
X-91196Y-14824D01*
X-91201Y-14805D01*
X-91205Y-14777D01*
X-91227Y-14465D01*
X-91227Y-14366D01*
X-91241Y-14335D01*
Y-14045D01*
X-91228Y-14017D01*
X-91218Y-13686D01*
X-91152Y-13228D01*
X-91152D01*
Y-13228D01*
X-90925D01*
X-90905Y-12823D01*
X-90920Y-12786D01*
X-90912Y-12742D01*
X-90925Y-12723D01*
Y-10394D01*
D02*
G37*
G36*
X-71260Y-14665D02*
X-72284D01*
Y-15590D01*
X-71260D01*
Y-14665D01*
D02*
G37*
G36*
X30079Y-14508D02*
X26634D01*
Y-16476D01*
X30079D01*
Y-14508D01*
D02*
G37*
G36*
X25846D02*
X22402D01*
Y-16476D01*
X25846D01*
Y-14508D01*
D02*
G37*
G36*
X-13386Y-15551D02*
X-15354D01*
Y-16929D01*
X-13386D01*
Y-15551D01*
D02*
G37*
G36*
X-16142D02*
X-18110D01*
Y-16929D01*
X-16142D01*
Y-15551D01*
D02*
G37*
G36*
X-71260Y-16378D02*
X-72284D01*
Y-17303D01*
X-71260D01*
Y-16378D01*
D02*
G37*
G36*
X-13386Y-17717D02*
X-15354D01*
Y-19094D01*
X-13386D01*
Y-17717D01*
D02*
G37*
G36*
X-16142D02*
X-18110D01*
Y-19094D01*
X-16142D01*
Y-17717D01*
D02*
G37*
G36*
X30079Y-17264D02*
X26634D01*
Y-19232D01*
X30079D01*
Y-17264D01*
D02*
G37*
G36*
X25846D02*
X22402D01*
Y-19232D01*
X25846D01*
Y-17264D01*
D02*
G37*
G36*
X167323Y49016D02*
X164567D01*
X161811D01*
Y45374D01*
X161560Y44978D01*
X160453Y44519D01*
X160371Y44464D01*
X160280Y44426D01*
X158990Y43565D01*
X158920Y43495D01*
X158838Y43440D01*
X157741Y42343D01*
X157686Y42261D01*
X157616Y42191D01*
X156755Y40901D01*
X156717Y40810D01*
X156662Y40728D01*
X156068Y39295D01*
X156049Y39198D01*
X156011Y39107D01*
X155709Y37585D01*
Y37487D01*
X155689Y37390D01*
Y36614D01*
Y3543D01*
Y2768D01*
X155709Y2671D01*
Y2572D01*
X156011Y1051D01*
X156049Y959D01*
X156068Y862D01*
X156662Y-570D01*
X156717Y-653D01*
X156755Y-744D01*
X157616Y-2034D01*
X157686Y-2104D01*
X157741Y-2186D01*
X158838Y-3283D01*
X158920Y-3337D01*
X158990Y-3407D01*
X160280Y-4269D01*
X160371Y-4307D01*
X160453Y-4362D01*
X161886Y-4955D01*
X161983Y-4975D01*
X162074Y-5012D01*
X162566Y-5110D01*
X162517Y-5610D01*
X161811D01*
Y-13681D01*
X162936D01*
X162947Y-13687D01*
X163047Y-13698D01*
X163082Y-13711D01*
X163114Y-13732D01*
X163154Y-13775D01*
X163201Y-13852D01*
X163249Y-13970D01*
X163292Y-14131D01*
X163325Y-14333D01*
X163346Y-14573D01*
X163354Y-14861D01*
X163363Y-14882D01*
Y-20906D01*
X163283Y-20912D01*
X163185Y-20912D01*
X163154Y-20926D01*
X162864D01*
X162836Y-20913D01*
X162505Y-20903D01*
X162047Y-20837D01*
Y-20837D01*
X162047D01*
Y-20610D01*
X161642Y-20590D01*
X161605Y-20605D01*
X161561Y-20597D01*
X161542Y-20610D01*
X159213D01*
Y-23248D01*
X161542D01*
X161561Y-23261D01*
X161605Y-23253D01*
X161642Y-23268D01*
X162047Y-23248D01*
Y-23021D01*
X162047D01*
Y-23021D01*
X162505Y-22956D01*
X162616Y-22949D01*
X162829Y-22946D01*
X162859Y-22933D01*
X163154D01*
X163185Y-22946D01*
X163289Y-22947D01*
X163462Y-22954D01*
X163589Y-22967D01*
X163623Y-22973D01*
X163643Y-22977D01*
X163651Y-22981D01*
X163655Y-22982D01*
X163669Y-22986D01*
X163675Y-22986D01*
X163786Y-23097D01*
X164293Y-23307D01*
X164841D01*
X165348Y-23097D01*
X165459Y-22986D01*
X165465Y-22986D01*
X165478Y-22982D01*
X165483Y-22981D01*
X165491Y-22977D01*
X165510Y-22973D01*
X165538Y-22968D01*
X165850Y-22947D01*
X165949Y-22946D01*
X165980Y-22933D01*
X166270D01*
X166298Y-22946D01*
X166629Y-22956D01*
X167087Y-23021D01*
Y-23021D01*
X167087D01*
Y-23248D01*
X167492Y-23268D01*
X167529Y-23253D01*
X167573Y-23261D01*
X167592Y-23248D01*
X169921D01*
Y-20610D01*
X167592D01*
X167573Y-20597D01*
X167529Y-20605D01*
X167492Y-20590D01*
X167087Y-20610D01*
Y-20837D01*
X167087D01*
Y-20837D01*
X166629Y-20902D01*
X166518Y-20909D01*
X166305Y-20912D01*
X166275Y-20926D01*
X165980D01*
X165949Y-20912D01*
X165845Y-20911D01*
X165771Y-20909D01*
Y-14882D01*
X165780Y-14861D01*
X165788Y-14573D01*
X165809Y-14333D01*
X165842Y-14131D01*
X165885Y-13970D01*
X165933Y-13852D01*
X165980Y-13775D01*
X166019Y-13732D01*
X166051Y-13711D01*
X166087Y-13698D01*
X166187Y-13687D01*
X166198Y-13681D01*
X167323D01*
Y-5610D01*
X166617D01*
X166568Y-5110D01*
X167060Y-5012D01*
X167151Y-4975D01*
X167248Y-4955D01*
X168681Y-4362D01*
X168763Y-4307D01*
X168854Y-4269D01*
X170144Y-3407D01*
X170214Y-3337D01*
X170296Y-3283D01*
X171393Y-2186D01*
X171448Y-2104D01*
X171518Y-2034D01*
X172379Y-744D01*
X172417Y-653D01*
X172472Y-570D01*
X173065Y862D01*
X173085Y959D01*
X173123Y1051D01*
X173425Y2572D01*
Y2671D01*
X173444Y2768D01*
Y3543D01*
Y36614D01*
Y37390D01*
X173425Y37487D01*
Y37585D01*
X173123Y39107D01*
X173085Y39198D01*
X173065Y39295D01*
X172472Y40728D01*
X172417Y40810D01*
X172379Y40901D01*
X171518Y42191D01*
X171448Y42261D01*
X171393Y42343D01*
X170296Y43440D01*
X170214Y43495D01*
X170144Y43565D01*
X168854Y44426D01*
X168763Y44464D01*
X168681Y44519D01*
X167573Y44978D01*
X167323Y45374D01*
Y49016D01*
D02*
G37*
G36*
X-161811Y49016D02*
X-164567D01*
X-167323D01*
Y45374D01*
X-167573Y44978D01*
X-168681Y44519D01*
X-168763Y44464D01*
X-168854Y44426D01*
X-170144Y43565D01*
X-170214Y43495D01*
X-170296Y43440D01*
X-171393Y42343D01*
X-171448Y42261D01*
X-171518Y42191D01*
X-172379Y40901D01*
X-172417Y40810D01*
X-172472Y40728D01*
X-173065Y39295D01*
X-173085Y39198D01*
X-173123Y39107D01*
X-173425Y37585D01*
Y37487D01*
X-173444Y37390D01*
Y36614D01*
Y3543D01*
Y2768D01*
X-173425Y2671D01*
Y2572D01*
X-173123Y1051D01*
X-173085Y959D01*
X-173065Y862D01*
X-172472Y-570D01*
X-172417Y-653D01*
X-172379Y-744D01*
X-171518Y-2034D01*
X-171448Y-2104D01*
X-171393Y-2186D01*
X-170296Y-3283D01*
X-170214Y-3337D01*
X-170144Y-3407D01*
X-168854Y-4269D01*
X-168763Y-4307D01*
X-168681Y-4362D01*
X-167248Y-4955D01*
X-167151Y-4975D01*
X-167060Y-5012D01*
X-166568Y-5110D01*
X-166617Y-5610D01*
X-167323D01*
Y-13681D01*
X-166198D01*
X-166187Y-13687D01*
X-166087Y-13698D01*
X-166051Y-13711D01*
X-166019Y-13732D01*
X-165980Y-13775D01*
X-165933Y-13852D01*
X-165885Y-13970D01*
X-165842Y-14131D01*
X-165809Y-14333D01*
X-165788Y-14573D01*
X-165780Y-14861D01*
X-165771Y-14882D01*
Y-20906D01*
X-165850Y-20912D01*
X-165949Y-20912D01*
X-165980Y-20926D01*
X-166270D01*
X-166298Y-20913D01*
X-166629Y-20903D01*
X-167087Y-20837D01*
Y-20837D01*
X-167087D01*
Y-20610D01*
X-167492Y-20590D01*
X-167529Y-20605D01*
X-167573Y-20597D01*
X-167592Y-20610D01*
X-169921D01*
Y-23248D01*
X-167592D01*
X-167573Y-23261D01*
X-167529Y-23253D01*
X-167492Y-23268D01*
X-167087Y-23248D01*
Y-23021D01*
X-167087D01*
Y-23021D01*
X-166629Y-22956D01*
X-166518Y-22949D01*
X-166305Y-22946D01*
X-166275Y-22933D01*
X-165980D01*
X-165949Y-22946D01*
X-165845Y-22947D01*
X-165672Y-22954D01*
X-165545Y-22967D01*
X-165510Y-22973D01*
X-165491Y-22977D01*
X-165483Y-22981D01*
X-165478Y-22982D01*
X-165465Y-22986D01*
X-165459Y-22986D01*
X-165348Y-23097D01*
X-164841Y-23307D01*
X-164293D01*
X-163786Y-23097D01*
X-163675Y-22986D01*
X-163669Y-22986D01*
X-163655Y-22982D01*
X-163651Y-22981D01*
X-163643Y-22977D01*
X-163623Y-22973D01*
X-163596Y-22968D01*
X-163283Y-22947D01*
X-163185Y-22946D01*
X-163154Y-22933D01*
X-162864D01*
X-162836Y-22946D01*
X-162505Y-22956D01*
X-162047Y-23021D01*
Y-23021D01*
X-162047D01*
Y-23248D01*
X-161642Y-23268D01*
X-161605Y-23253D01*
X-161561Y-23261D01*
X-161542Y-23248D01*
X-159213D01*
Y-20610D01*
X-161542D01*
X-161561Y-20597D01*
X-161605Y-20605D01*
X-161642Y-20590D01*
X-162047Y-20610D01*
Y-20837D01*
X-162047D01*
Y-20837D01*
X-162505Y-20902D01*
X-162616Y-20909D01*
X-162829Y-20912D01*
X-162859Y-20926D01*
X-163154D01*
X-163185Y-20912D01*
X-163289Y-20911D01*
X-163363Y-20909D01*
Y-14882D01*
X-163354Y-14861D01*
X-163346Y-14573D01*
X-163325Y-14333D01*
X-163292Y-14131D01*
X-163249Y-13970D01*
X-163201Y-13852D01*
X-163154Y-13775D01*
X-163114Y-13732D01*
X-163082Y-13711D01*
X-163047Y-13698D01*
X-162947Y-13687D01*
X-162936Y-13681D01*
X-161811D01*
Y-5610D01*
X-162517D01*
X-162566Y-5110D01*
X-162074Y-5012D01*
X-161983Y-4975D01*
X-161886Y-4955D01*
X-160453Y-4362D01*
X-160371Y-4307D01*
X-160280Y-4269D01*
X-158990Y-3407D01*
X-158920Y-3337D01*
X-158838Y-3283D01*
X-157741Y-2186D01*
X-157686Y-2104D01*
X-157616Y-2034D01*
X-156755Y-744D01*
X-156717Y-653D01*
X-156662Y-570D01*
X-156068Y862D01*
X-156049Y959D01*
X-156011Y1051D01*
X-155709Y2572D01*
Y2671D01*
X-155689Y2768D01*
Y3543D01*
Y36614D01*
Y37390D01*
X-155709Y37487D01*
Y37585D01*
X-156011Y39107D01*
X-156049Y39198D01*
X-156068Y39295D01*
X-156662Y40728D01*
X-156717Y40810D01*
X-156755Y40901D01*
X-157616Y42191D01*
X-157686Y42261D01*
X-157741Y42343D01*
X-158838Y43440D01*
X-158920Y43495D01*
X-158990Y43565D01*
X-160280Y44426D01*
X-160371Y44464D01*
X-160453Y44519D01*
X-161560Y44978D01*
X-161811Y45374D01*
Y49016D01*
D02*
G37*
G36*
X-37598Y-21850D02*
X-37992D01*
X-38098Y-21850D01*
X-40642D01*
X-40748Y-21850D01*
X-41142D01*
X-41248Y-21850D01*
X-43791D01*
X-43898Y-21850D01*
X-44291D01*
X-44398Y-21850D01*
X-45276D01*
Y-24606D01*
Y-27362D01*
X-44398D01*
X-44267Y-27362D01*
X-43963Y-27704D01*
X-43898Y-27862D01*
Y-28325D01*
X-43688Y-28832D01*
X-43576Y-28943D01*
X-43577Y-28949D01*
X-43572Y-28963D01*
X-43572Y-28967D01*
X-43568Y-28975D01*
X-43563Y-28995D01*
X-43558Y-29022D01*
X-43537Y-29332D01*
X-43546Y-29621D01*
X-43611Y-30079D01*
X-43611D01*
Y-30079D01*
X-43839D01*
X-43859Y-30484D01*
X-43844Y-30521D01*
X-43851Y-30565D01*
X-43839Y-30584D01*
Y-32913D01*
X-41201D01*
Y-30584D01*
X-41188Y-30565D01*
X-41195Y-30521D01*
X-41180Y-30484D01*
X-41201Y-30079D01*
X-41428D01*
Y-30079D01*
X-41428D01*
X-41492Y-29621D01*
X-41500Y-29510D01*
X-41502Y-29350D01*
X-41502Y-29329D01*
X-41495Y-29156D01*
X-41482Y-29029D01*
X-41476Y-28995D01*
X-41471Y-28975D01*
X-41468Y-28967D01*
X-41467Y-28963D01*
X-41463Y-28949D01*
X-41463Y-28943D01*
X-41352Y-28832D01*
X-41142Y-28325D01*
Y-27777D01*
X-40772Y-27362D01*
X-40642Y-27362D01*
X-38098D01*
X-37992Y-27362D01*
X-37598D01*
X-37492Y-27362D01*
X-34843D01*
Y-21850D01*
X-37492D01*
X-37598Y-21850D01*
D02*
G37*
G36*
X-47047D02*
X-47441D01*
X-47547Y-21850D01*
X-50090D01*
X-50197Y-21850D01*
X-50591D01*
X-50697Y-21850D01*
X-51575D01*
Y-24606D01*
Y-27362D01*
X-50697D01*
X-50566Y-27362D01*
X-50262Y-27704D01*
X-50197Y-27862D01*
Y-28325D01*
X-49987Y-28832D01*
X-49876Y-28943D01*
X-49876Y-28949D01*
X-49871Y-28963D01*
X-49871Y-28967D01*
X-49867Y-28975D01*
X-49862Y-28995D01*
X-49858Y-29022D01*
X-49837Y-29332D01*
X-49845Y-29621D01*
X-49911Y-30079D01*
X-49911D01*
Y-30079D01*
X-50138D01*
X-50158Y-30484D01*
X-50143Y-30521D01*
X-50151Y-30565D01*
X-50138Y-30584D01*
Y-32913D01*
X-47500D01*
Y-30584D01*
X-47487Y-30565D01*
X-47495Y-30521D01*
X-47480Y-30484D01*
X-47500Y-30079D01*
X-47727D01*
Y-30079D01*
X-47727D01*
X-47792Y-29621D01*
X-47799Y-29510D01*
X-47802Y-29350D01*
X-47801Y-29329D01*
X-47794Y-29156D01*
X-47781Y-29029D01*
X-47775Y-28995D01*
X-47771Y-28975D01*
X-47767Y-28967D01*
X-47767Y-28963D01*
X-47762Y-28949D01*
X-47762Y-28943D01*
X-47651Y-28832D01*
X-47441Y-28325D01*
Y-27777D01*
X-47072Y-27362D01*
X-46941Y-27362D01*
X-46063D01*
Y-24606D01*
Y-21850D01*
X-46941D01*
X-47047Y-21850D01*
D02*
G37*
G36*
X-53347D02*
X-53740D01*
X-53847Y-21850D01*
X-56390D01*
X-56496Y-21850D01*
X-56890D01*
X-56996Y-21850D01*
X-59646D01*
Y-27362D01*
X-56996D01*
X-56890Y-27362D01*
X-56496D01*
X-56390Y-27362D01*
X-53847D01*
X-53740Y-27362D01*
X-53347D01*
X-53240Y-27362D01*
X-52362D01*
Y-24606D01*
Y-21850D01*
X-53240D01*
X-53347Y-21850D01*
D02*
G37*
G36*
X56319Y-15748D02*
X53169D01*
Y-20760D01*
X53169Y-20776D01*
X53151Y-20809D01*
X53153Y-20845D01*
X53149Y-20854D01*
X53169Y-21260D01*
X53269D01*
X53403Y-21434D01*
X53527Y-21706D01*
X53526Y-21780D01*
X53366Y-22167D01*
Y-22715D01*
X53576Y-23222D01*
X53964Y-23609D01*
X54470Y-23819D01*
X55018D01*
X55525Y-23609D01*
X55912Y-23222D01*
X56122Y-22715D01*
Y-22167D01*
X55962Y-21780D01*
X55962Y-21706D01*
X56085Y-21434D01*
X56219Y-21260D01*
X56319Y-21260D01*
X56339Y-20854D01*
X56336Y-20845D01*
X56337Y-20809D01*
X56319Y-20776D01*
Y-15748D01*
D02*
G37*
G36*
X41319D02*
X38169D01*
Y-20760D01*
X38169Y-20776D01*
X38151Y-20809D01*
X38153Y-20845D01*
X38149Y-20854D01*
X38169Y-21260D01*
X38269D01*
X38403Y-21434D01*
X38527Y-21706D01*
X38526Y-21780D01*
X38366Y-22167D01*
Y-22715D01*
X38576Y-23222D01*
X38688Y-23333D01*
X38687Y-23339D01*
X38692Y-23352D01*
X38692Y-23357D01*
X38696Y-23365D01*
X38701Y-23384D01*
X38705Y-23412D01*
X38726Y-23724D01*
X38727Y-23785D01*
X38723Y-23979D01*
X38716Y-24099D01*
X38554Y-24547D01*
X38554D01*
X38554Y-24547D01*
X38327Y-24547D01*
X38306Y-24953D01*
X38313Y-24968D01*
X38311Y-25015D01*
X38327Y-25042D01*
Y-27185D01*
X41161D01*
Y-25047D01*
X41161Y-25042D01*
X41177Y-25015D01*
X41176Y-24968D01*
X41182Y-24953D01*
X41161Y-24547D01*
X40934D01*
X40934Y-24547D01*
X40934D01*
X40776Y-24099D01*
X40765Y-23973D01*
X40761Y-23785D01*
X40762Y-23719D01*
X40769Y-23546D01*
X40782Y-23419D01*
X40788Y-23384D01*
X40792Y-23365D01*
X40796Y-23357D01*
X40797Y-23352D01*
X40801Y-23339D01*
X40801Y-23333D01*
X40912Y-23222D01*
X41122Y-22715D01*
Y-22167D01*
X40962Y-21780D01*
X40962Y-21706D01*
X41085Y-21434D01*
X41219Y-21260D01*
X41319Y-21260D01*
X41339Y-20854D01*
X41335Y-20845D01*
X41337Y-20809D01*
X41319Y-20776D01*
Y-15748D01*
D02*
G37*
G36*
X51319D02*
X48169D01*
Y-20760D01*
X48169Y-20776D01*
X48151Y-20809D01*
X48153Y-20845D01*
X48149Y-20854D01*
X48169Y-21260D01*
X48396Y-21260D01*
X48700Y-21620D01*
X48707Y-21663D01*
X48722Y-21835D01*
X48728Y-22046D01*
X48741Y-22075D01*
Y-23734D01*
X48728Y-23764D01*
X48723Y-23979D01*
X48712Y-24159D01*
X48702Y-24246D01*
X48327Y-24547D01*
X47827Y-24616D01*
X47518Y-24488D01*
X46970D01*
X46661Y-24616D01*
X46161Y-24547D01*
X45787Y-24223D01*
X45765Y-23973D01*
X45761Y-23764D01*
X45748Y-23734D01*
Y-22075D01*
X45761Y-22046D01*
X45766Y-21835D01*
X45781Y-21663D01*
X45788Y-21620D01*
X46092Y-21260D01*
X46319D01*
X46339Y-20854D01*
X46336Y-20845D01*
X46337Y-20809D01*
X46319Y-20776D01*
Y-15748D01*
X43169D01*
Y-20760D01*
X43169Y-20776D01*
X43151Y-20809D01*
X43153Y-20845D01*
X43149Y-20854D01*
X43169Y-21260D01*
X43396Y-21260D01*
X43700Y-21620D01*
X43707Y-21663D01*
X43722Y-21835D01*
X43727Y-22046D01*
X43741Y-22075D01*
Y-23734D01*
X43727Y-23764D01*
X43723Y-23979D01*
X43716Y-24099D01*
X43554Y-24547D01*
X43554D01*
X43554Y-24547D01*
X43327Y-24547D01*
X43306Y-24953D01*
X43312Y-24968D01*
X43311Y-25015D01*
X43327Y-25042D01*
Y-27185D01*
X45656D01*
X45675Y-27198D01*
X45719Y-27190D01*
X45756Y-27206D01*
X46161Y-27185D01*
X46661Y-27116D01*
X46970Y-27244D01*
X47518D01*
X47827Y-27116D01*
X48327Y-27185D01*
X48733Y-27206D01*
X48769Y-27190D01*
X48813Y-27198D01*
X48832Y-27185D01*
X51161D01*
Y-25047D01*
X51161Y-25042D01*
X51177Y-25015D01*
X51176Y-24968D01*
X51182Y-24953D01*
X51161Y-24547D01*
X50934D01*
X50934Y-24547D01*
X50934D01*
X50776Y-24099D01*
X50765Y-23973D01*
X50761Y-23764D01*
X50748Y-23734D01*
Y-22075D01*
X50761Y-22046D01*
X50766Y-21835D01*
X50781Y-21663D01*
X50788Y-21620D01*
X51092Y-21260D01*
X51319D01*
X51339Y-20854D01*
X51336Y-20845D01*
X51337Y-20809D01*
X51319Y-20776D01*
Y-15748D01*
D02*
G37*
G36*
X169921Y-23996D02*
X168898D01*
Y-24921D01*
X169921D01*
Y-23996D01*
D02*
G37*
G36*
X168110D02*
X167087D01*
Y-24921D01*
X168110D01*
Y-23996D01*
D02*
G37*
G36*
X162047D02*
X161024D01*
Y-24921D01*
X162047D01*
Y-23996D01*
D02*
G37*
G36*
X-159213D02*
X-160236D01*
Y-24921D01*
X-159213D01*
Y-23996D01*
D02*
G37*
G36*
X-167087D02*
X-168110D01*
Y-24921D01*
X-167087D01*
Y-23996D01*
D02*
G37*
G36*
X-161024D02*
X-162047D01*
Y-24921D01*
X-161024D01*
Y-23996D01*
D02*
G37*
G36*
X-168898D02*
X-169921D01*
Y-24921D01*
X-168898D01*
Y-23996D01*
D02*
G37*
G36*
X160236D02*
X159213D01*
Y-24921D01*
X160236D01*
Y-23996D01*
D02*
G37*
G36*
X169921Y-25709D02*
X168898D01*
Y-26634D01*
X169921D01*
Y-25709D01*
D02*
G37*
G36*
X168110D02*
X167087D01*
Y-26634D01*
X168110D01*
Y-25709D01*
D02*
G37*
G36*
X162047Y-25709D02*
X161024D01*
Y-26634D01*
X162047D01*
Y-25709D01*
D02*
G37*
G36*
X160236D02*
X159213D01*
Y-26634D01*
X160236D01*
Y-25709D01*
D02*
G37*
G36*
X-159213D02*
X-160236D01*
Y-26634D01*
X-159213D01*
Y-25709D01*
D02*
G37*
G36*
X-161024D02*
X-162047D01*
Y-26634D01*
X-161024D01*
Y-25709D01*
D02*
G37*
G36*
X-167087D02*
X-168110D01*
Y-26634D01*
X-167087D01*
Y-25709D01*
D02*
G37*
G36*
X-168898D02*
X-169921D01*
Y-26634D01*
X-168898D01*
Y-25709D01*
D02*
G37*
G36*
X51161Y-27933D02*
X50138D01*
Y-28858D01*
X51161D01*
Y-27933D01*
D02*
G37*
G36*
X49350D02*
X48327D01*
Y-28858D01*
X49350D01*
Y-27933D01*
D02*
G37*
G36*
X46161D02*
X45138D01*
Y-28858D01*
X46161D01*
Y-27933D01*
D02*
G37*
G36*
X44350D02*
X43327D01*
Y-28858D01*
X44350D01*
Y-27933D01*
D02*
G37*
G36*
X-12718Y-26673D02*
X-13266D01*
X-13773Y-26883D01*
X-14160Y-27271D01*
X-14370Y-27777D01*
Y-28325D01*
X-14160Y-28832D01*
X-13773Y-29219D01*
X-13266Y-29429D01*
X-12718D01*
X-12212Y-29219D01*
X-11824Y-28832D01*
X-11614Y-28325D01*
Y-27777D01*
X-11824Y-27271D01*
X-12212Y-26883D01*
X-12718Y-26673D01*
D02*
G37*
G36*
X36081Y-27874D02*
X35533D01*
X35026Y-28084D01*
X34639Y-28471D01*
X34429Y-28978D01*
Y-29526D01*
X34639Y-30033D01*
X35026Y-30420D01*
X35533Y-30630D01*
X36081D01*
X36588Y-30420D01*
X36699Y-30309D01*
X36705Y-30309D01*
X36718Y-30304D01*
X36723Y-30304D01*
X36731Y-30300D01*
X36751Y-30296D01*
X36778Y-30291D01*
X37091Y-30270D01*
X37189Y-30269D01*
X37220Y-30255D01*
X37510D01*
X37538Y-30268D01*
X37869Y-30279D01*
X38327Y-30344D01*
Y-30344D01*
X38327D01*
Y-30571D01*
X38732Y-30591D01*
X38769Y-30576D01*
X38813Y-30584D01*
X38832Y-30571D01*
X41161D01*
Y-27933D01*
X38832D01*
X38813Y-27920D01*
X38769Y-27928D01*
X38732Y-27913D01*
X38327Y-27933D01*
Y-28160D01*
X38327D01*
Y-28160D01*
X37869Y-28225D01*
X37758Y-28232D01*
X37545Y-28235D01*
X37515Y-28248D01*
X37220D01*
X37189Y-28235D01*
X37085Y-28234D01*
X36912Y-28227D01*
X36785Y-28214D01*
X36751Y-28209D01*
X36731Y-28204D01*
X36723Y-28200D01*
X36718Y-28199D01*
X36705Y-28195D01*
X36699Y-28195D01*
X36588Y-28084D01*
X36081Y-27874D01*
D02*
G37*
G36*
X51161Y-29646D02*
X50138D01*
Y-30571D01*
X51161D01*
Y-29646D01*
D02*
G37*
G36*
X49350D02*
X48327D01*
Y-30571D01*
X49350D01*
Y-29646D01*
D02*
G37*
G36*
X46161Y-29646D02*
X45138D01*
Y-30571D01*
X46161D01*
Y-29646D01*
D02*
G37*
G36*
X44350D02*
X43327D01*
Y-30571D01*
X44350D01*
Y-29646D01*
D02*
G37*
G36*
X-37815Y-30079D02*
X-38740D01*
Y-31102D01*
X-37815D01*
Y-30079D01*
D02*
G37*
G36*
X-50886D02*
X-51811D01*
Y-31102D01*
X-50886D01*
Y-30079D01*
D02*
G37*
G36*
X-52598D02*
X-53524D01*
Y-31102D01*
X-52598D01*
Y-30079D01*
D02*
G37*
G36*
X-39527D02*
X-40453D01*
Y-31102D01*
X-39527D01*
Y-30079D01*
D02*
G37*
G36*
X-37815Y-31890D02*
X-38740D01*
Y-32913D01*
X-37815D01*
Y-31890D01*
D02*
G37*
G36*
X-39527D02*
X-40453D01*
Y-32913D01*
X-39527D01*
Y-31890D01*
D02*
G37*
G36*
X-50886D02*
X-51811D01*
Y-32913D01*
X-50886D01*
Y-31890D01*
D02*
G37*
G36*
X-52598D02*
X-53524D01*
Y-32913D01*
X-52598D01*
Y-31890D01*
D02*
G37*
G36*
X209670Y-33071D02*
X209055D01*
Y-42913D01*
X218898D01*
Y-42299D01*
X218504Y-40321D01*
X217733Y-38458D01*
X216612Y-36782D01*
X215187Y-35356D01*
X213510Y-34236D01*
X211647Y-33464D01*
X209670Y-33071D01*
D02*
G37*
G36*
X208268D02*
X207653D01*
X205676Y-33464D01*
X203813Y-34236D01*
X202136Y-35356D01*
X200710Y-36782D01*
X199590Y-38458D01*
X198819Y-40321D01*
X198425Y-42299D01*
Y-42913D01*
X208268D01*
Y-33071D01*
D02*
G37*
G36*
X-207653D02*
X-208268D01*
Y-42913D01*
X-198425D01*
Y-42299D01*
X-198819Y-40321D01*
X-199590Y-38458D01*
X-200710Y-36782D01*
X-202136Y-35356D01*
X-203813Y-34236D01*
X-205676Y-33464D01*
X-207653Y-33071D01*
D02*
G37*
G36*
X-209055D02*
X-209670D01*
X-211647Y-33464D01*
X-213510Y-34236D01*
X-215187Y-35356D01*
X-216612Y-36782D01*
X-217733Y-38458D01*
X-218504Y-40321D01*
X-218898Y-42299D01*
Y-42913D01*
X-209055D01*
Y-33071D01*
D02*
G37*
G36*
X218898Y-43701D02*
X209055D01*
Y-53543D01*
X209670D01*
X211647Y-53150D01*
X213510Y-52378D01*
X215187Y-51258D01*
X216612Y-49832D01*
X217733Y-48156D01*
X218504Y-46293D01*
X218898Y-44315D01*
Y-43701D01*
D02*
G37*
G36*
X208268D02*
X198425D01*
Y-44315D01*
X198819Y-46293D01*
X199590Y-48156D01*
X200710Y-49832D01*
X202136Y-51258D01*
X203813Y-52378D01*
X205676Y-53150D01*
X207653Y-53543D01*
X208268D01*
Y-43701D01*
D02*
G37*
G36*
X-198425D02*
X-208268D01*
Y-53543D01*
X-207653D01*
X-205676Y-53150D01*
X-203813Y-52378D01*
X-202136Y-51258D01*
X-200710Y-49832D01*
X-199590Y-48156D01*
X-198819Y-46293D01*
X-198425Y-44315D01*
Y-43701D01*
D02*
G37*
G36*
X-209055D02*
X-218898D01*
Y-44315D01*
X-218504Y-46293D01*
X-217733Y-48156D01*
X-216612Y-49832D01*
X-215187Y-51258D01*
X-213510Y-52378D01*
X-211647Y-53150D01*
X-209670Y-53543D01*
X-209055D01*
Y-43701D01*
D02*
G37*
%LPD*%
G36*
X4724Y73537D02*
X4760Y73473D01*
X4819Y73415D01*
X4901Y73366D01*
X5008Y73324D01*
X5138Y73289D01*
X5291Y73263D01*
X5468Y73244D01*
X5894Y73228D01*
Y72047D01*
X5669Y72043D01*
X5291Y72013D01*
X5138Y71986D01*
X5008Y71952D01*
X4901Y71910D01*
X4819Y71860D01*
X4760Y71803D01*
X4724Y71738D01*
X4712Y71666D01*
Y73610D01*
X4724Y73537D01*
D02*
G37*
G36*
X8466Y65637D02*
X8489Y65290D01*
X8500Y65227D01*
X8513Y65174D01*
X8528Y65131D01*
X8544Y65097D01*
X8563Y65073D01*
X7185D01*
X7204Y65097D01*
X7220Y65131D01*
X7235Y65174D01*
X7248Y65227D01*
X7259Y65290D01*
X7275Y65444D01*
X7282Y65637D01*
X7283Y65748D01*
X8465D01*
X8466Y65637D01*
D02*
G37*
G36*
X-4712Y71666D02*
X-4724Y71738D01*
X-4760Y71803D01*
X-4819Y71860D01*
X-4901Y71910D01*
X-5008Y71952D01*
X-5138Y71986D01*
X-5291Y72013D01*
X-5468Y72032D01*
X-5894Y72047D01*
Y73228D01*
X-5669Y73232D01*
X-5291Y73263D01*
X-5138Y73289D01*
X-5008Y73324D01*
X-4901Y73366D01*
X-4819Y73415D01*
X-4760Y73473D01*
X-4724Y73537D01*
X-4712Y73610D01*
Y71666D01*
D02*
G37*
G36*
X-7282Y65637D02*
X-7259Y65290D01*
X-7248Y65227D01*
X-7235Y65174D01*
X-7220Y65131D01*
X-7204Y65097D01*
X-7185Y65073D01*
X-8563D01*
X-8544Y65097D01*
X-8528Y65131D01*
X-8513Y65174D01*
X-8500Y65227D01*
X-8489Y65290D01*
X-8473Y65444D01*
X-8466Y65637D01*
X-8465Y65748D01*
X-7283D01*
X-7282Y65637D01*
D02*
G37*
G36*
X4219Y68122D02*
X4118Y68086D01*
X4030Y68027D01*
X3953Y67943D01*
X3888Y67836D01*
X3835Y67705D01*
X3793Y67550D01*
X3764Y67371D01*
X3746Y67168D01*
X3740Y66941D01*
X2559D01*
X2553Y67168D01*
X2535Y67371D01*
X2506Y67550D01*
X2465Y67705D01*
X2411Y67836D01*
X2347Y67943D01*
X2270Y68027D01*
X2181Y68086D01*
X2081Y68122D01*
X1969Y68134D01*
X4331D01*
X4219Y68122D01*
D02*
G37*
G36*
X3741Y65637D02*
X3765Y65290D01*
X3776Y65227D01*
X3788Y65174D01*
X3803Y65131D01*
X3820Y65097D01*
X3839Y65073D01*
X2461D01*
X2479Y65097D01*
X2496Y65131D01*
X2511Y65174D01*
X2524Y65227D01*
X2534Y65290D01*
X2550Y65444D01*
X2558Y65637D01*
X2559Y65748D01*
X3740D01*
X3741Y65637D01*
D02*
G37*
G36*
X-2081Y68122D02*
X-2181Y68086D01*
X-2270Y68027D01*
X-2347Y67943D01*
X-2411Y67836D01*
X-2465Y67705D01*
X-2506Y67550D01*
X-2535Y67371D01*
X-2553Y67168D01*
X-2559Y66941D01*
X-3740D01*
X-3746Y67168D01*
X-3764Y67371D01*
X-3793Y67550D01*
X-3835Y67705D01*
X-3888Y67836D01*
X-3953Y67943D01*
X-4030Y68027D01*
X-4118Y68086D01*
X-4219Y68122D01*
X-4331Y68134D01*
X-1969D01*
X-2081Y68122D01*
D02*
G37*
G36*
X-2558Y65637D02*
X-2534Y65290D01*
X-2524Y65227D01*
X-2511Y65174D01*
X-2496Y65131D01*
X-2479Y65097D01*
X-2461Y65073D01*
X-3839D01*
X-3820Y65097D01*
X-3803Y65131D01*
X-3788Y65174D01*
X-3776Y65227D01*
X-3765Y65290D01*
X-3749Y65444D01*
X-3741Y65637D01*
X-3740Y65748D01*
X-2559D01*
X-2558Y65637D01*
D02*
G37*
G36*
X50441Y63271D02*
X50462Y63004D01*
X50496Y62767D01*
X50543Y62563D01*
X50604Y62389D01*
X50678Y62248D01*
X50766Y62138D01*
X50868Y62059D01*
X50983Y62012D01*
X51112Y61996D01*
X48183D01*
X48311Y62012D01*
X48427Y62059D01*
X48528Y62138D01*
X48616Y62248D01*
X48691Y62389D01*
X48752Y62563D01*
X48799Y62767D01*
X48833Y63004D01*
X48853Y63271D01*
X48860Y63571D01*
X50435D01*
X50441Y63271D01*
D02*
G37*
G36*
X45520D02*
X45540Y63004D01*
X45574Y62767D01*
X45622Y62563D01*
X45683Y62389D01*
X45757Y62248D01*
X45845Y62138D01*
X45947Y62059D01*
X46062Y62012D01*
X46190Y61996D01*
X43262D01*
X43390Y62012D01*
X43505Y62059D01*
X43607Y62138D01*
X43695Y62248D01*
X43769Y62389D01*
X43830Y62563D01*
X43878Y62767D01*
X43911Y63004D01*
X43932Y63271D01*
X43939Y63571D01*
X45513D01*
X45520Y63271D01*
D02*
G37*
G36*
X-34204D02*
X-34184Y63004D01*
X-34150Y62767D01*
X-34103Y62563D01*
X-34042Y62389D01*
X-33967Y62248D01*
X-33879Y62138D01*
X-33778Y62059D01*
X-33663Y62012D01*
X-33534Y61996D01*
X-36463D01*
X-36334Y62012D01*
X-36219Y62059D01*
X-36118Y62138D01*
X-36029Y62248D01*
X-35955Y62389D01*
X-35894Y62563D01*
X-35847Y62767D01*
X-35813Y63004D01*
X-35793Y63271D01*
X-35786Y63571D01*
X-34211D01*
X-34204Y63271D01*
D02*
G37*
G36*
X-39125D02*
X-39105Y63004D01*
X-39071Y62767D01*
X-39024Y62563D01*
X-38963Y62389D01*
X-38889Y62248D01*
X-38801Y62138D01*
X-38699Y62059D01*
X-38584Y62012D01*
X-38455Y61996D01*
X-41384D01*
X-41255Y62012D01*
X-41140Y62059D01*
X-41039Y62138D01*
X-40951Y62248D01*
X-40876Y62389D01*
X-40815Y62563D01*
X-40768Y62767D01*
X-40734Y63004D01*
X-40714Y63271D01*
X-40707Y63571D01*
X-39132D01*
X-39125Y63271D01*
D02*
G37*
G36*
X-44047D02*
X-44026Y63004D01*
X-43993Y62767D01*
X-43945Y62563D01*
X-43884Y62389D01*
X-43810Y62248D01*
X-43722Y62138D01*
X-43620Y62059D01*
X-43505Y62012D01*
X-43377Y61996D01*
X-46305D01*
X-46177Y62012D01*
X-46062Y62059D01*
X-45960Y62138D01*
X-45872Y62248D01*
X-45798Y62389D01*
X-45737Y62563D01*
X-45689Y62767D01*
X-45655Y63004D01*
X-45635Y63271D01*
X-45628Y63571D01*
X-44054D01*
X-44047Y63271D01*
D02*
G37*
G36*
X-48968D02*
X-48948Y63004D01*
X-48914Y62767D01*
X-48867Y62563D01*
X-48806Y62389D01*
X-48731Y62248D01*
X-48643Y62138D01*
X-48542Y62059D01*
X-48426Y62012D01*
X-48298Y61996D01*
X-51227D01*
X-51098Y62012D01*
X-50983Y62059D01*
X-50881Y62138D01*
X-50793Y62248D01*
X-50719Y62389D01*
X-50658Y62563D01*
X-50611Y62767D01*
X-50577Y63004D01*
X-50556Y63271D01*
X-50550Y63571D01*
X-48975D01*
X-48968Y63271D01*
D02*
G37*
G36*
X-53889D02*
X-53869Y63004D01*
X-53835Y62767D01*
X-53788Y62563D01*
X-53727Y62389D01*
X-53652Y62248D01*
X-53564Y62138D01*
X-53463Y62059D01*
X-53348Y62012D01*
X-53219Y61996D01*
X-56148D01*
X-56019Y62012D01*
X-55904Y62059D01*
X-55803Y62138D01*
X-55715Y62248D01*
X-55640Y62389D01*
X-55579Y62563D01*
X-55532Y62767D01*
X-55498Y63004D01*
X-55478Y63271D01*
X-55471Y63571D01*
X-53896D01*
X-53889Y63271D01*
D02*
G37*
G36*
X60284D02*
X60304Y63004D01*
X60338Y62767D01*
X60386Y62563D01*
X60446Y62389D01*
X60521Y62248D01*
X60609Y62138D01*
X60710Y62059D01*
X60826Y62012D01*
X60954Y61996D01*
X58025D01*
X58154Y62012D01*
X58269Y62059D01*
X58371Y62138D01*
X58459Y62248D01*
X58533Y62389D01*
X58594Y62563D01*
X58641Y62767D01*
X58675Y63004D01*
X58696Y63271D01*
X58702Y63571D01*
X60277D01*
X60284Y63271D01*
D02*
G37*
G36*
X60559Y56114D02*
X60458Y56079D01*
X60370Y56019D01*
X60293Y55936D01*
X60228Y55828D01*
X60175Y55697D01*
X60133Y55542D01*
X60104Y55363D01*
X60086Y55160D01*
X60080Y54933D01*
X58899D01*
X58893Y55160D01*
X58876Y55363D01*
X58846Y55542D01*
X58805Y55697D01*
X58752Y55828D01*
X58687Y55936D01*
X58610Y56019D01*
X58521Y56079D01*
X58421Y56114D01*
X58309Y56126D01*
X60671D01*
X60559Y56114D01*
D02*
G37*
G36*
X55637D02*
X55537Y56079D01*
X55448Y56019D01*
X55372Y55936D01*
X55307Y55828D01*
X55253Y55697D01*
X55212Y55542D01*
X55183Y55363D01*
X55165Y55160D01*
X55159Y54933D01*
X53978D01*
X53972Y55160D01*
X53954Y55363D01*
X53925Y55542D01*
X53883Y55697D01*
X53830Y55828D01*
X53765Y55936D01*
X53689Y56019D01*
X53600Y56079D01*
X53500Y56114D01*
X53387Y56126D01*
X55750D01*
X55637Y56114D01*
D02*
G37*
G36*
X60084Y48838D02*
X60118Y48460D01*
X60148Y48307D01*
X60186Y48177D01*
X60232Y48071D01*
X60287Y47988D01*
X60350Y47929D01*
X60421Y47894D01*
X60501Y47882D01*
X58478D01*
X58558Y47894D01*
X58630Y47929D01*
X58693Y47988D01*
X58748Y48071D01*
X58794Y48177D01*
X58832Y48307D01*
X58861Y48460D01*
X58882Y48638D01*
X58895Y48838D01*
X58899Y49063D01*
X60080D01*
X60084Y48838D01*
D02*
G37*
G36*
X55163D02*
X55197Y48460D01*
X55226Y48307D01*
X55264Y48177D01*
X55311Y48071D01*
X55365Y47988D01*
X55428Y47929D01*
X55500Y47894D01*
X55580Y47882D01*
X53557D01*
X53637Y47894D01*
X53708Y47929D01*
X53772Y47988D01*
X53826Y48071D01*
X53873Y48177D01*
X53911Y48307D01*
X53940Y48460D01*
X53961Y48638D01*
X53974Y48838D01*
X53978Y49063D01*
X55159D01*
X55163Y48838D01*
D02*
G37*
G36*
X58478Y46055D02*
X58470Y46053D01*
X58448Y46051D01*
X58356Y46048D01*
X57718Y46043D01*
Y47224D01*
X57864Y47226D01*
X58211Y47251D01*
X58296Y47267D01*
X58366Y47285D01*
X58420Y47308D01*
X58459Y47333D01*
X58482Y47362D01*
X58490Y47394D01*
X58478Y46055D01*
D02*
G37*
G36*
X56415Y44496D02*
X56180Y44253D01*
X55810Y43817D01*
X55676Y43624D01*
X55574Y43449D01*
X55506Y43290D01*
X55471Y43149D01*
X55470Y43024D01*
X55502Y42916D01*
X55568Y42825D01*
X53910Y44484D01*
X54001Y44418D01*
X54108Y44386D01*
X54233Y44387D01*
X54375Y44422D01*
X54533Y44490D01*
X54709Y44591D01*
X54901Y44726D01*
X55111Y44894D01*
X55580Y45331D01*
X56415Y44496D01*
D02*
G37*
G36*
X14174Y42580D02*
X14157Y42546D01*
X14143Y42503D01*
X14130Y42450D01*
X14119Y42387D01*
X14103Y42233D01*
X14096Y42040D01*
X14095Y41929D01*
X12913D01*
X12912Y42040D01*
X12889Y42387D01*
X12878Y42450D01*
X12865Y42503D01*
X12850Y42546D01*
X12834Y42580D01*
X12815Y42604D01*
X14193D01*
X14174Y42580D01*
D02*
G37*
G36*
X14098Y41338D02*
X14123Y40960D01*
X14146Y40807D01*
X14175Y40677D01*
X14211Y40571D01*
X14253Y40488D01*
X14301Y40429D01*
X14356Y40393D01*
X14417Y40382D01*
X12591D01*
X12652Y40393D01*
X12707Y40429D01*
X12755Y40488D01*
X12797Y40571D01*
X12833Y40677D01*
X12862Y40807D01*
X12884Y40960D01*
X12900Y41138D01*
X12913Y41563D01*
X14095D01*
X14098Y41338D01*
D02*
G37*
G36*
X2363Y42580D02*
X2347Y42546D01*
X2332Y42503D01*
X2319Y42450D01*
X2308Y42387D01*
X2292Y42233D01*
X2284Y42040D01*
X2283Y41929D01*
X1102D01*
X1101Y42040D01*
X1078Y42387D01*
X1067Y42450D01*
X1054Y42503D01*
X1039Y42546D01*
X1023Y42580D01*
X1004Y42604D01*
X2382D01*
X2363Y42580D01*
D02*
G37*
G36*
X2287Y41338D02*
X2313Y40960D01*
X2335Y40807D01*
X2364Y40677D01*
X2400Y40571D01*
X2442Y40488D01*
X2490Y40429D01*
X2545Y40393D01*
X2606Y40382D01*
X780D01*
X841Y40393D01*
X896Y40429D01*
X944Y40488D01*
X986Y40571D01*
X1022Y40677D01*
X1051Y40807D01*
X1073Y40960D01*
X1089Y41138D01*
X1102Y41563D01*
X2283D01*
X2287Y41338D01*
D02*
G37*
G36*
X-9448Y42580D02*
X-9465Y42546D01*
X-9479Y42503D01*
X-9492Y42450D01*
X-9503Y42387D01*
X-9519Y42233D01*
X-9527Y42040D01*
X-9528Y41929D01*
X-10709D01*
X-10710Y42040D01*
X-10733Y42387D01*
X-10744Y42450D01*
X-10757Y42503D01*
X-10772Y42546D01*
X-10788Y42580D01*
X-10807Y42604D01*
X-9429D01*
X-9448Y42580D01*
D02*
G37*
G36*
X-9524Y41338D02*
X-9499Y40960D01*
X-9476Y40807D01*
X-9447Y40677D01*
X-9411Y40571D01*
X-9369Y40488D01*
X-9321Y40429D01*
X-9266Y40393D01*
X-9205Y40382D01*
X-11031D01*
X-10970Y40393D01*
X-10915Y40429D01*
X-10867Y40488D01*
X-10825Y40571D01*
X-10789Y40677D01*
X-10760Y40807D01*
X-10738Y40960D01*
X-10722Y41138D01*
X-10709Y41563D01*
X-9528D01*
X-9524Y41338D01*
D02*
G37*
G36*
X10970Y38347D02*
X10915Y38311D01*
X10867Y38252D01*
X10825Y38170D01*
X10789Y38063D01*
X10760Y37933D01*
X10738Y37780D01*
X10722Y37603D01*
X10709Y37177D01*
X9528D01*
X9524Y37402D01*
X9499Y37780D01*
X9476Y37933D01*
X9447Y38063D01*
X9411Y38170D01*
X9369Y38252D01*
X9321Y38311D01*
X9266Y38347D01*
X9205Y38359D01*
X11031D01*
X10970Y38347D01*
D02*
G37*
G36*
X11202Y36688D02*
X11526Y36421D01*
X11685Y36312D01*
X11841Y36220D01*
X11995Y36145D01*
X12146Y36087D01*
X12295Y36045D01*
X12442Y36020D01*
X12586Y36012D01*
X11036Y34461D01*
X11027Y34605D01*
X11002Y34752D01*
X10960Y34901D01*
X10902Y35052D01*
X10827Y35206D01*
X10735Y35363D01*
X10626Y35521D01*
X10501Y35682D01*
X10359Y35846D01*
X10200Y36012D01*
X11036Y36847D01*
X11202Y36688D01*
D02*
G37*
G36*
X-841Y38347D02*
X-896Y38311D01*
X-944Y38252D01*
X-986Y38170D01*
X-1022Y38063D01*
X-1051Y37933D01*
X-1073Y37780D01*
X-1089Y37603D01*
X-1102Y37177D01*
X-2283D01*
X-2287Y37402D01*
X-2313Y37780D01*
X-2335Y37933D01*
X-2364Y38063D01*
X-2400Y38170D01*
X-2442Y38252D01*
X-2490Y38311D01*
X-2545Y38347D01*
X-2606Y38359D01*
X-780D01*
X-841Y38347D01*
D02*
G37*
G36*
X-610Y36688D02*
X-285Y36421D01*
X-126Y36312D01*
X30Y36220D01*
X184Y36145D01*
X335Y36087D01*
X484Y36045D01*
X631Y36020D01*
X775Y36012D01*
X-775Y34461D01*
X-784Y34605D01*
X-809Y34752D01*
X-851Y34901D01*
X-909Y35052D01*
X-984Y35206D01*
X-1076Y35363D01*
X-1185Y35521D01*
X-1310Y35682D01*
X-1452Y35846D01*
X-1611Y36012D01*
X-775Y36847D01*
X-610Y36688D01*
D02*
G37*
G36*
X-12652Y38347D02*
X-12707Y38311D01*
X-12755Y38252D01*
X-12797Y38170D01*
X-12833Y38063D01*
X-12862Y37933D01*
X-12884Y37780D01*
X-12900Y37603D01*
X-12913Y37177D01*
X-14095D01*
X-14098Y37402D01*
X-14123Y37780D01*
X-14146Y37933D01*
X-14175Y38063D01*
X-14211Y38170D01*
X-14253Y38252D01*
X-14301Y38311D01*
X-14356Y38347D01*
X-14417Y38359D01*
X-12591D01*
X-12652Y38347D01*
D02*
G37*
G36*
X-12421Y36688D02*
X-12096Y36421D01*
X-11937Y36312D01*
X-11781Y36220D01*
X-11627Y36145D01*
X-11476Y36087D01*
X-11327Y36045D01*
X-11180Y36020D01*
X-11036Y36012D01*
X-12586Y34461D01*
X-12595Y34605D01*
X-12620Y34752D01*
X-12662Y34901D01*
X-12720Y35052D01*
X-12795Y35206D01*
X-12887Y35363D01*
X-12996Y35521D01*
X-13121Y35682D01*
X-13263Y35846D01*
X-13422Y36012D01*
X-12586Y36847D01*
X-12421Y36688D01*
D02*
G37*
G36*
X51908Y32166D02*
X51942Y32150D01*
X51985Y32135D01*
X52038Y32122D01*
X52101Y32111D01*
X52255Y32096D01*
X52448Y32088D01*
X52559Y32087D01*
Y30906D01*
X52448Y30904D01*
X52101Y30881D01*
X52038Y30870D01*
X51985Y30857D01*
X51942Y30843D01*
X51908Y30826D01*
X51884Y30807D01*
Y32185D01*
X51908Y32166D01*
D02*
G37*
G36*
X54768Y30315D02*
X54756Y30427D01*
X54720Y30528D01*
X54661Y30616D01*
X54577Y30693D01*
X54470Y30758D01*
X54339Y30811D01*
X54184Y30852D01*
X54005Y30882D01*
X53802Y30900D01*
X53575Y30906D01*
Y32087D01*
X53802Y32092D01*
X54005Y32110D01*
X54184Y32140D01*
X54339Y32181D01*
X54470Y32234D01*
X54577Y32299D01*
X54661Y32376D01*
X54720Y32465D01*
X54756Y32565D01*
X54768Y32677D01*
Y30315D01*
D02*
G37*
G36*
X61783Y28276D02*
X61831Y28142D01*
X61910Y28024D01*
X62021Y27921D01*
X62164Y27835D01*
X62339Y27764D01*
X62545Y27709D01*
X62783Y27669D01*
X62934Y27656D01*
X63886Y27718D01*
X63933Y27740D01*
X63949Y27764D01*
Y25937D01*
X63933Y25961D01*
X63886Y25982D01*
X63807Y26001D01*
X63697Y26018D01*
X63382Y26043D01*
X63022Y26052D01*
X62783Y26032D01*
X62545Y25992D01*
X62339Y25937D01*
X62164Y25866D01*
X62021Y25780D01*
X61910Y25677D01*
X61831Y25559D01*
X61783Y25425D01*
X61767Y25276D01*
Y28425D01*
X61783Y28276D01*
D02*
G37*
G36*
X68195Y29547D02*
X68171Y29566D01*
X68137Y29583D01*
X68094Y29597D01*
X68040Y29610D01*
X67978Y29621D01*
X67823Y29637D01*
X67631Y29645D01*
X67520Y29646D01*
Y30827D01*
X67631Y30828D01*
X67978Y30851D01*
X68040Y30862D01*
X68094Y30875D01*
X68137Y30890D01*
X68171Y30907D01*
X68195Y30925D01*
Y29547D01*
D02*
G37*
G36*
X65984Y31088D02*
X66019Y31033D01*
X66079Y30985D01*
X66161Y30943D01*
X66268Y30907D01*
X66398Y30878D01*
X66551Y30856D01*
X66728Y30840D01*
X67153Y30827D01*
Y29646D01*
X66929Y29642D01*
X66551Y29617D01*
X66398Y29594D01*
X66268Y29565D01*
X66161Y29530D01*
X66079Y29488D01*
X66019Y29439D01*
X65984Y29384D01*
X65972Y29323D01*
Y31149D01*
X65984Y31088D01*
D02*
G37*
G36*
X42604Y30807D02*
X42580Y30826D01*
X42546Y30843D01*
X42503Y30857D01*
X42450Y30870D01*
X42387Y30881D01*
X42233Y30897D01*
X42040Y30904D01*
X41929Y30906D01*
Y32087D01*
X42040Y32088D01*
X42387Y32111D01*
X42450Y32122D01*
X42503Y32135D01*
X42546Y32150D01*
X42580Y32166D01*
X42604Y32185D01*
Y30807D01*
D02*
G37*
G36*
X39732Y32565D02*
X39768Y32465D01*
X39827Y32376D01*
X39911Y32299D01*
X40018Y32234D01*
X40150Y32181D01*
X40305Y32140D01*
X40484Y32110D01*
X40687Y32092D01*
X40913Y32087D01*
Y30906D01*
X40687Y30900D01*
X40484Y30882D01*
X40305Y30852D01*
X40150Y30811D01*
X40018Y30758D01*
X39911Y30693D01*
X39827Y30616D01*
X39768Y30528D01*
X39732Y30427D01*
X39720Y30315D01*
Y32677D01*
X39732Y32565D01*
D02*
G37*
G36*
X32721Y25276D02*
X32705Y25425D01*
X32657Y25559D01*
X32578Y25677D01*
X32467Y25780D01*
X32324Y25866D01*
X32150Y25937D01*
X31943Y25992D01*
X31705Y26032D01*
X31554Y26045D01*
X30602Y25982D01*
X30555Y25961D01*
X30539Y25937D01*
Y27764D01*
X30555Y27740D01*
X30602Y27718D01*
X30681Y27699D01*
X30791Y27683D01*
X31106Y27658D01*
X31466Y27648D01*
X31705Y27669D01*
X31943Y27709D01*
X32150Y27764D01*
X32324Y27835D01*
X32467Y27921D01*
X32578Y28024D01*
X32657Y28142D01*
X32705Y28276D01*
X32721Y28425D01*
Y25276D01*
D02*
G37*
G36*
X11075Y30906D02*
X11044Y30870D01*
X11016Y30811D01*
X10992Y30729D01*
X10971Y30622D01*
X10955Y30492D01*
X10933Y30162D01*
X10925Y29740D01*
X10926Y29527D01*
X10977Y28677D01*
X10993Y28618D01*
X11011Y28583D01*
X11031Y28571D01*
X9205D01*
X9307Y28583D01*
X9399Y28618D01*
X9480Y28677D01*
X9550Y28760D01*
X9609Y28866D01*
X9658Y28996D01*
X9696Y29149D01*
X9723Y29327D01*
X9739Y29527D01*
X9744Y29748D01*
X9742Y29961D01*
X9698Y30622D01*
X9678Y30729D01*
X9653Y30811D01*
X9626Y30870D01*
X9594Y30906D01*
X9559Y30918D01*
X11110D01*
X11075Y30906D01*
D02*
G37*
G36*
X10970Y26536D02*
X10915Y26500D01*
X10867Y26441D01*
X10825Y26359D01*
X10789Y26252D01*
X10760Y26122D01*
X10738Y25969D01*
X10722Y25791D01*
X10714Y25554D01*
X10738Y25212D01*
X10760Y25059D01*
X10789Y24929D01*
X10825Y24823D01*
X10867Y24740D01*
X10915Y24681D01*
X10970Y24645D01*
X11031Y24634D01*
X9205D01*
X9266Y24645D01*
X9321Y24681D01*
X9369Y24740D01*
X9411Y24823D01*
X9447Y24929D01*
X9476Y25059D01*
X9499Y25212D01*
X9515Y25390D01*
X9522Y25627D01*
X9499Y25969D01*
X9476Y26122D01*
X9447Y26252D01*
X9411Y26359D01*
X9369Y26441D01*
X9321Y26500D01*
X9266Y26536D01*
X9205Y26547D01*
X11031D01*
X10970Y26536D01*
D02*
G37*
G36*
Y22599D02*
X10915Y22563D01*
X10867Y22504D01*
X10825Y22421D01*
X10789Y22315D01*
X10760Y22185D01*
X10738Y22032D01*
X10722Y21855D01*
X10714Y21617D01*
X10738Y21275D01*
X10760Y21122D01*
X10789Y20992D01*
X10825Y20886D01*
X10867Y20803D01*
X10915Y20744D01*
X10970Y20708D01*
X11031Y20697D01*
X9205D01*
X9266Y20708D01*
X9321Y20744D01*
X9369Y20803D01*
X9411Y20886D01*
X9447Y20992D01*
X9476Y21122D01*
X9499Y21275D01*
X9515Y21453D01*
X9522Y21690D01*
X9499Y22032D01*
X9476Y22185D01*
X9447Y22315D01*
X9411Y22421D01*
X9369Y22504D01*
X9321Y22563D01*
X9266Y22599D01*
X9205Y22610D01*
X11031D01*
X10970Y22599D01*
D02*
G37*
G36*
X-736Y30906D02*
X-768Y30870D01*
X-795Y30811D01*
X-819Y30729D01*
X-840Y30622D01*
X-856Y30492D01*
X-878Y30162D01*
X-886Y29740D01*
X-885Y29527D01*
X-834Y28677D01*
X-818Y28618D01*
X-800Y28583D01*
X-780Y28571D01*
X-2606D01*
X-2504Y28583D01*
X-2412Y28618D01*
X-2331Y28677D01*
X-2261Y28760D01*
X-2202Y28866D01*
X-2153Y28996D01*
X-2115Y29149D01*
X-2089Y29327D01*
X-2072Y29527D01*
X-2067Y29748D01*
X-2069Y29961D01*
X-2113Y30622D01*
X-2134Y30729D01*
X-2158Y30811D01*
X-2185Y30870D01*
X-2217Y30906D01*
X-2252Y30918D01*
X-701D01*
X-736Y30906D01*
D02*
G37*
G36*
X-841Y26536D02*
X-896Y26500D01*
X-944Y26441D01*
X-986Y26359D01*
X-1022Y26252D01*
X-1051Y26122D01*
X-1073Y25969D01*
X-1089Y25791D01*
X-1097Y25554D01*
X-1073Y25212D01*
X-1051Y25059D01*
X-1022Y24929D01*
X-986Y24823D01*
X-944Y24740D01*
X-896Y24681D01*
X-841Y24645D01*
X-780Y24634D01*
X-2606D01*
X-2545Y24645D01*
X-2490Y24681D01*
X-2442Y24740D01*
X-2400Y24823D01*
X-2364Y24929D01*
X-2335Y25059D01*
X-2313Y25212D01*
X-2296Y25390D01*
X-2289Y25627D01*
X-2313Y25969D01*
X-2335Y26122D01*
X-2364Y26252D01*
X-2400Y26359D01*
X-2442Y26441D01*
X-2490Y26500D01*
X-2545Y26536D01*
X-2606Y26547D01*
X-780D01*
X-841Y26536D01*
D02*
G37*
G36*
Y22599D02*
X-896Y22563D01*
X-944Y22504D01*
X-986Y22421D01*
X-1022Y22315D01*
X-1051Y22185D01*
X-1073Y22032D01*
X-1089Y21855D01*
X-1097Y21617D01*
X-1073Y21275D01*
X-1051Y21122D01*
X-1022Y20992D01*
X-986Y20886D01*
X-944Y20803D01*
X-896Y20744D01*
X-841Y20708D01*
X-780Y20697D01*
X-2606D01*
X-2545Y20708D01*
X-2490Y20744D01*
X-2442Y20803D01*
X-2400Y20886D01*
X-2364Y20992D01*
X-2335Y21122D01*
X-2313Y21275D01*
X-2296Y21453D01*
X-2289Y21690D01*
X-2313Y22032D01*
X-2335Y22185D01*
X-2364Y22315D01*
X-2400Y22421D01*
X-2442Y22504D01*
X-2490Y22563D01*
X-2545Y22599D01*
X-2606Y22610D01*
X-780D01*
X-841Y22599D01*
D02*
G37*
G36*
X-12547Y30906D02*
X-12578Y30870D01*
X-12606Y30811D01*
X-12630Y30729D01*
X-12651Y30622D01*
X-12667Y30492D01*
X-12689Y30162D01*
X-12697Y29740D01*
X-12696Y29527D01*
X-12645Y28677D01*
X-12629Y28618D01*
X-12611Y28583D01*
X-12591Y28571D01*
X-14417D01*
X-14315Y28583D01*
X-14223Y28618D01*
X-14142Y28677D01*
X-14072Y28760D01*
X-14013Y28866D01*
X-13964Y28996D01*
X-13927Y29149D01*
X-13900Y29327D01*
X-13883Y29527D01*
X-13878Y29748D01*
X-13880Y29961D01*
X-13924Y30622D01*
X-13945Y30729D01*
X-13969Y30811D01*
X-13996Y30870D01*
X-14028Y30906D01*
X-14063Y30918D01*
X-12512D01*
X-12547Y30906D01*
D02*
G37*
G36*
X-12652Y26536D02*
X-12707Y26500D01*
X-12755Y26441D01*
X-12797Y26359D01*
X-12833Y26252D01*
X-12862Y26122D01*
X-12884Y25969D01*
X-12900Y25791D01*
X-12908Y25554D01*
X-12884Y25212D01*
X-12862Y25059D01*
X-12833Y24929D01*
X-12797Y24823D01*
X-12755Y24740D01*
X-12707Y24681D01*
X-12652Y24645D01*
X-12591Y24634D01*
X-14417D01*
X-14356Y24645D01*
X-14301Y24681D01*
X-14253Y24740D01*
X-14211Y24823D01*
X-14175Y24929D01*
X-14146Y25059D01*
X-14123Y25212D01*
X-14107Y25390D01*
X-14100Y25627D01*
X-14123Y25969D01*
X-14146Y26122D01*
X-14175Y26252D01*
X-14211Y26359D01*
X-14253Y26441D01*
X-14301Y26500D01*
X-14356Y26536D01*
X-14417Y26547D01*
X-12591D01*
X-12652Y26536D01*
D02*
G37*
G36*
Y22599D02*
X-12707Y22563D01*
X-12755Y22504D01*
X-12797Y22421D01*
X-12833Y22315D01*
X-12862Y22185D01*
X-12884Y22032D01*
X-12900Y21855D01*
X-12908Y21617D01*
X-12884Y21275D01*
X-12862Y21122D01*
X-12833Y20992D01*
X-12797Y20886D01*
X-12755Y20803D01*
X-12707Y20744D01*
X-12652Y20708D01*
X-12591Y20697D01*
X-14417D01*
X-14356Y20708D01*
X-14301Y20744D01*
X-14253Y20803D01*
X-14211Y20886D01*
X-14175Y20992D01*
X-14146Y21122D01*
X-14123Y21275D01*
X-14107Y21453D01*
X-14100Y21690D01*
X-14123Y22032D01*
X-14146Y22185D01*
X-14175Y22315D01*
X-14211Y22421D01*
X-14253Y22504D01*
X-14301Y22563D01*
X-14356Y22599D01*
X-14417Y22610D01*
X-12591D01*
X-12652Y22599D01*
D02*
G37*
G36*
X-53956Y24883D02*
X-53923Y24866D01*
X-53879Y24851D01*
X-53826Y24839D01*
X-53764Y24828D01*
X-53609Y24812D01*
X-53416Y24804D01*
X-53306Y24803D01*
Y23622D01*
X-53416Y23621D01*
X-53764Y23597D01*
X-53826Y23587D01*
X-53879Y23574D01*
X-53923Y23559D01*
X-53956Y23542D01*
X-53981Y23524D01*
Y24902D01*
X-53956Y24883D01*
D02*
G37*
G36*
X-57087Y25112D02*
X-57051Y25047D01*
X-56992Y24990D01*
X-56910Y24941D01*
X-56803Y24899D01*
X-56673Y24864D01*
X-56520Y24837D01*
X-56343Y24818D01*
X-55949Y24804D01*
X-55603Y24828D01*
X-55541Y24839D01*
X-55488Y24851D01*
X-55444Y24866D01*
X-55410Y24883D01*
X-55386Y24902D01*
Y23524D01*
X-55410Y23542D01*
X-55444Y23559D01*
X-55488Y23574D01*
X-55541Y23587D01*
X-55603Y23597D01*
X-55758Y23613D01*
X-55950Y23621D01*
X-55967Y23621D01*
X-56142Y23618D01*
X-56520Y23588D01*
X-56673Y23561D01*
X-56803Y23527D01*
X-56910Y23485D01*
X-56992Y23435D01*
X-57051Y23378D01*
X-57087Y23313D01*
X-57099Y23240D01*
Y25185D01*
X-57087Y25112D01*
D02*
G37*
G36*
X-37390Y23240D02*
X-37401Y23313D01*
X-37437Y23378D01*
X-37496Y23435D01*
X-37579Y23485D01*
X-37685Y23527D01*
X-37815Y23561D01*
X-37968Y23588D01*
X-38146Y23607D01*
X-38571Y23622D01*
Y24803D01*
X-38346Y24807D01*
X-37968Y24837D01*
X-37815Y24864D01*
X-37685Y24899D01*
X-37579Y24941D01*
X-37496Y24990D01*
X-37437Y25047D01*
X-37401Y25112D01*
X-37390Y25185D01*
Y23240D01*
D02*
G37*
G36*
X14356Y18662D02*
X14301Y18626D01*
X14253Y18567D01*
X14211Y18484D01*
X14175Y18378D01*
X14146Y18248D01*
X14123Y18095D01*
X14107Y17918D01*
X14095Y17492D01*
X12913D01*
X12910Y17717D01*
X12884Y18095D01*
X12862Y18248D01*
X12833Y18378D01*
X12797Y18484D01*
X12755Y18567D01*
X12707Y18626D01*
X12652Y18662D01*
X12591Y18673D01*
X14417D01*
X14356Y18662D01*
D02*
G37*
G36*
X14096Y17015D02*
X14119Y16668D01*
X14130Y16605D01*
X14143Y16552D01*
X14157Y16509D01*
X14174Y16475D01*
X14193Y16451D01*
X12815D01*
X12834Y16475D01*
X12850Y16509D01*
X12865Y16552D01*
X12878Y16605D01*
X12889Y16668D01*
X12904Y16822D01*
X12912Y17015D01*
X12913Y17126D01*
X14095D01*
X14096Y17015D01*
D02*
G37*
G36*
X2545Y18662D02*
X2490Y18626D01*
X2442Y18567D01*
X2400Y18484D01*
X2364Y18378D01*
X2335Y18248D01*
X2313Y18095D01*
X2296Y17918D01*
X2283Y17492D01*
X1102D01*
X1099Y17717D01*
X1073Y18095D01*
X1051Y18248D01*
X1022Y18378D01*
X986Y18484D01*
X944Y18567D01*
X896Y18626D01*
X841Y18662D01*
X780Y18673D01*
X2606D01*
X2545Y18662D01*
D02*
G37*
G36*
X2284Y17015D02*
X2308Y16668D01*
X2319Y16605D01*
X2332Y16552D01*
X2347Y16509D01*
X2363Y16475D01*
X2382Y16451D01*
X1004D01*
X1023Y16475D01*
X1039Y16509D01*
X1054Y16552D01*
X1067Y16605D01*
X1078Y16668D01*
X1094Y16822D01*
X1101Y17015D01*
X1102Y17126D01*
X2283D01*
X2284Y17015D01*
D02*
G37*
G36*
X-9266Y18662D02*
X-9321Y18626D01*
X-9369Y18567D01*
X-9411Y18484D01*
X-9447Y18378D01*
X-9476Y18248D01*
X-9499Y18095D01*
X-9515Y17918D01*
X-9528Y17492D01*
X-10709D01*
X-10712Y17717D01*
X-10738Y18095D01*
X-10760Y18248D01*
X-10789Y18378D01*
X-10825Y18484D01*
X-10867Y18567D01*
X-10915Y18626D01*
X-10970Y18662D01*
X-11031Y18673D01*
X-9205D01*
X-9266Y18662D01*
D02*
G37*
G36*
X-9527Y17015D02*
X-9503Y16668D01*
X-9492Y16605D01*
X-9479Y16552D01*
X-9465Y16509D01*
X-9448Y16475D01*
X-9429Y16451D01*
X-10807D01*
X-10788Y16475D01*
X-10772Y16509D01*
X-10757Y16552D01*
X-10744Y16605D01*
X-10733Y16668D01*
X-10718Y16822D01*
X-10710Y17015D01*
X-10709Y17126D01*
X-9528D01*
X-9527Y17015D01*
D02*
G37*
G36*
X-44817Y14725D02*
X-44872Y14689D01*
X-44921Y14630D01*
X-44963Y14547D01*
X-44998Y14441D01*
X-45027Y14311D01*
X-45050Y14158D01*
X-45066Y13981D01*
X-45078Y13584D01*
X-45078Y13570D01*
X-45054Y13223D01*
X-45043Y13160D01*
X-45031Y13107D01*
X-45016Y13064D01*
X-44999Y13030D01*
X-44980Y13006D01*
X-46358D01*
X-46340Y13030D01*
X-46323Y13064D01*
X-46308Y13107D01*
X-46295Y13160D01*
X-46284Y13223D01*
X-46269Y13377D01*
X-46261Y13570D01*
X-46260Y13603D01*
X-46263Y13780D01*
X-46289Y14158D01*
X-46312Y14311D01*
X-46341Y14441D01*
X-46376Y14547D01*
X-46418Y14630D01*
X-46466Y14689D01*
X-46521Y14725D01*
X-46582Y14736D01*
X-44756D01*
X-44817Y14725D01*
D02*
G37*
G36*
X-35626Y12165D02*
X-35620Y12092D01*
X-35531D01*
X-35550Y12068D01*
X-35567Y12034D01*
X-35582Y11991D01*
X-35594Y11938D01*
X-35603Y11886D01*
X-35596Y11787D01*
X-35569Y11634D01*
X-35535Y11504D01*
X-35493Y11397D01*
X-35443Y11315D01*
X-35386Y11256D01*
X-35321Y11220D01*
X-35248Y11208D01*
X-37193D01*
X-37120Y11220D01*
X-37055Y11256D01*
X-36998Y11315D01*
X-36948Y11397D01*
X-36906Y11504D01*
X-36872Y11634D01*
X-36845Y11787D01*
X-36836Y11876D01*
X-36846Y11938D01*
X-36859Y11991D01*
X-36874Y12034D01*
X-36891Y12068D01*
X-36909Y12092D01*
X-36822D01*
X-36811Y12390D01*
X-35630D01*
X-35626Y12165D01*
D02*
G37*
G36*
X-45075Y12095D02*
X-45044Y11745D01*
X-45018Y11603D01*
X-45017Y11600D01*
X-44980D01*
X-44999Y11576D01*
X-45006Y11562D01*
X-44983Y11482D01*
X-44941Y11384D01*
X-44892Y11307D01*
X-44834Y11252D01*
X-44770Y11219D01*
X-44697Y11208D01*
X-45071D01*
X-45078Y11036D01*
X-45079Y10925D01*
X-46260D01*
X-46261Y11036D01*
X-46273Y11208D01*
X-46641D01*
X-46569Y11219D01*
X-46504Y11252D01*
X-46447Y11307D01*
X-46397Y11384D01*
X-46355Y11482D01*
X-46332Y11562D01*
X-46340Y11576D01*
X-46358Y11600D01*
X-46322D01*
X-46321Y11603D01*
X-46294Y11745D01*
X-46275Y11909D01*
X-46264Y12095D01*
X-46260Y12303D01*
X-45079D01*
X-45075Y12095D01*
D02*
G37*
G36*
X-54524Y12165D02*
X-54518Y12092D01*
X-54429D01*
X-54448Y12068D01*
X-54465Y12034D01*
X-54479Y11991D01*
X-54492Y11938D01*
X-54501Y11886D01*
X-54493Y11787D01*
X-54466Y11634D01*
X-54432Y11504D01*
X-54390Y11397D01*
X-54340Y11315D01*
X-54283Y11256D01*
X-54218Y11220D01*
X-54146Y11208D01*
X-56090D01*
X-56018Y11220D01*
X-55953Y11256D01*
X-55896Y11315D01*
X-55846Y11397D01*
X-55804Y11504D01*
X-55770Y11634D01*
X-55743Y11787D01*
X-55733Y11876D01*
X-55744Y11938D01*
X-55757Y11991D01*
X-55772Y12034D01*
X-55788Y12068D01*
X-55807Y12092D01*
X-55719D01*
X-55709Y12390D01*
X-54528D01*
X-54524Y12165D01*
D02*
G37*
G36*
X40676Y9193D02*
X40604Y9158D01*
X40541Y9099D01*
X40486Y9016D01*
X40440Y8910D01*
X40402Y8780D01*
X40372Y8626D01*
X40352Y8449D01*
X40339Y8248D01*
X40335Y8024D01*
X39154D01*
X39149Y8248D01*
X39116Y8626D01*
X39086Y8780D01*
X39048Y8910D01*
X39002Y9016D01*
X38947Y9099D01*
X38884Y9158D01*
X38813Y9193D01*
X38732Y9205D01*
X40756D01*
X40676Y9193D01*
D02*
G37*
G36*
X40336Y7704D02*
X40359Y7357D01*
X40370Y7294D01*
X40383Y7241D01*
X40398Y7198D01*
X40414Y7164D01*
X40433Y7140D01*
X39055D01*
X39074Y7164D01*
X39090Y7198D01*
X39105Y7241D01*
X39118Y7294D01*
X39129Y7357D01*
X39145Y7511D01*
X39153Y7704D01*
X39154Y7815D01*
X40335D01*
X40336Y7704D01*
D02*
G37*
G36*
X40340Y6063D02*
X40358Y5862D01*
X40379Y5734D01*
X40433D01*
X40414Y5710D01*
X40398Y5676D01*
X40393Y5662D01*
X40427Y5531D01*
X40479Y5401D01*
X40543Y5295D01*
X40618Y5212D01*
X40705Y5153D01*
X40803Y5118D01*
X40913Y5106D01*
X40335D01*
X40335Y5059D01*
X39154D01*
X39153Y5106D01*
X38575D01*
X38685Y5118D01*
X38783Y5153D01*
X38870Y5212D01*
X38945Y5295D01*
X39009Y5401D01*
X39061Y5531D01*
X39095Y5662D01*
X39090Y5676D01*
X39074Y5710D01*
X39055Y5734D01*
X39110D01*
X39130Y5862D01*
X39148Y6063D01*
X39154Y6287D01*
X40335D01*
X40340Y6063D01*
D02*
G37*
G36*
X-96062Y7147D02*
X-96079Y7113D01*
X-96093Y7070D01*
X-96106Y7017D01*
X-96117Y6954D01*
X-96133Y6800D01*
X-96141Y6607D01*
X-96142Y6496D01*
X-97323D01*
X-97324Y6607D01*
X-97347Y6954D01*
X-97358Y7017D01*
X-97371Y7070D01*
X-97386Y7113D01*
X-97403Y7147D01*
X-97421Y7171D01*
X-96043D01*
X-96062Y7147D01*
D02*
G37*
G36*
X-96139Y5905D02*
X-96113Y5527D01*
X-96090Y5374D01*
X-96061Y5244D01*
X-96026Y5138D01*
X-95984Y5055D01*
X-95935Y4996D01*
X-95880Y4960D01*
X-95819Y4949D01*
X-97645D01*
X-97584Y4960D01*
X-97529Y4996D01*
X-97481Y5055D01*
X-97439Y5138D01*
X-97404Y5244D01*
X-97374Y5374D01*
X-97352Y5527D01*
X-97336Y5705D01*
X-97323Y6130D01*
X-96142D01*
X-96139Y5905D01*
D02*
G37*
G36*
X-28150Y4049D02*
X-28114Y3984D01*
X-28055Y3927D01*
X-27973Y3878D01*
X-27866Y3836D01*
X-27736Y3801D01*
X-27583Y3774D01*
X-27494Y3765D01*
X-27432Y3776D01*
X-27379Y3788D01*
X-27336Y3803D01*
X-27302Y3820D01*
X-27278Y3839D01*
Y3751D01*
X-26981Y3740D01*
Y2559D01*
X-27205Y2555D01*
X-27278Y2549D01*
Y2461D01*
X-27302Y2479D01*
X-27336Y2496D01*
X-27379Y2511D01*
X-27432Y2524D01*
X-27484Y2533D01*
X-27583Y2525D01*
X-27736Y2498D01*
X-27866Y2464D01*
X-27973Y2422D01*
X-28055Y2372D01*
X-28114Y2315D01*
X-28150Y2250D01*
X-28162Y2177D01*
Y4122D01*
X-28150Y4049D01*
D02*
G37*
G36*
Y900D02*
X-28114Y835D01*
X-28055Y778D01*
X-27973Y728D01*
X-27866Y686D01*
X-27736Y652D01*
X-27583Y625D01*
X-27494Y615D01*
X-27432Y626D01*
X-27379Y639D01*
X-27336Y654D01*
X-27302Y670D01*
X-27278Y689D01*
Y601D01*
X-26981Y591D01*
Y-591D01*
X-27205Y-594D01*
X-27278Y-600D01*
Y-689D01*
X-27302Y-670D01*
X-27336Y-654D01*
X-27379Y-639D01*
X-27432Y-626D01*
X-27484Y-617D01*
X-27583Y-625D01*
X-27736Y-652D01*
X-27866Y-686D01*
X-27973Y-728D01*
X-28055Y-778D01*
X-28114Y-835D01*
X-28150Y-900D01*
X-28162Y-972D01*
Y972D01*
X-28150Y900D01*
D02*
G37*
G36*
Y-2250D02*
X-28114Y-2315D01*
X-28055Y-2372D01*
X-27973Y-2422D01*
X-27866Y-2464D01*
X-27736Y-2498D01*
X-27583Y-2525D01*
X-27494Y-2534D01*
X-27432Y-2524D01*
X-27379Y-2511D01*
X-27336Y-2496D01*
X-27302Y-2479D01*
X-27278Y-2461D01*
Y-2548D01*
X-26981Y-2559D01*
Y-3740D01*
X-27205Y-3744D01*
X-27278Y-3750D01*
Y-3839D01*
X-27302Y-3820D01*
X-27336Y-3803D01*
X-27379Y-3788D01*
X-27432Y-3776D01*
X-27484Y-3767D01*
X-27583Y-3774D01*
X-27736Y-3801D01*
X-27866Y-3836D01*
X-27973Y-3878D01*
X-28055Y-3927D01*
X-28114Y-3984D01*
X-28150Y-4049D01*
X-28162Y-4122D01*
Y-2177D01*
X-28150Y-2250D01*
D02*
G37*
G36*
Y-5399D02*
X-28114Y-5464D01*
X-28055Y-5522D01*
X-27973Y-5571D01*
X-27866Y-5613D01*
X-27736Y-5648D01*
X-27583Y-5674D01*
X-27494Y-5684D01*
X-27432Y-5673D01*
X-27379Y-5660D01*
X-27336Y-5646D01*
X-27302Y-5629D01*
X-27278Y-5610D01*
Y-5698D01*
X-26981Y-5709D01*
Y-6890D01*
X-27205Y-6894D01*
X-27278Y-6899D01*
Y-6988D01*
X-27302Y-6970D01*
X-27336Y-6953D01*
X-27379Y-6938D01*
X-27432Y-6925D01*
X-27484Y-6916D01*
X-27583Y-6924D01*
X-27736Y-6951D01*
X-27866Y-6985D01*
X-27973Y-7027D01*
X-28055Y-7077D01*
X-28114Y-7134D01*
X-28150Y-7199D01*
X-28162Y-7271D01*
Y-5327D01*
X-28150Y-5399D01*
D02*
G37*
G36*
Y-8549D02*
X-28114Y-8614D01*
X-28055Y-8671D01*
X-27973Y-8721D01*
X-27866Y-8763D01*
X-27736Y-8797D01*
X-27583Y-8824D01*
X-27494Y-8833D01*
X-27432Y-8823D01*
X-27379Y-8810D01*
X-27336Y-8795D01*
X-27302Y-8778D01*
X-27278Y-8760D01*
Y-8848D01*
X-26981Y-8858D01*
Y-10039D01*
X-27205Y-10043D01*
X-27278Y-10049D01*
Y-10138D01*
X-27302Y-10119D01*
X-27336Y-10102D01*
X-27379Y-10088D01*
X-27432Y-10075D01*
X-27484Y-10066D01*
X-27583Y-10074D01*
X-27736Y-10100D01*
X-27866Y-10135D01*
X-27973Y-10177D01*
X-28055Y-10226D01*
X-28114Y-10284D01*
X-28150Y-10349D01*
X-28162Y-10421D01*
Y-8477D01*
X-28150Y-8549D01*
D02*
G37*
G36*
X-99266Y2914D02*
X-99321Y2878D01*
X-99370Y2819D01*
X-99411Y2736D01*
X-99447Y2630D01*
X-99476Y2500D01*
X-99498Y2347D01*
X-99515Y2169D01*
X-99528Y1744D01*
X-100709D01*
X-100712Y1969D01*
X-100738Y2347D01*
X-100760Y2500D01*
X-100789Y2630D01*
X-100825Y2736D01*
X-100867Y2819D01*
X-100915Y2878D01*
X-100970Y2914D01*
X-101031Y2925D01*
X-99205D01*
X-99266Y2914D01*
D02*
G37*
G36*
X-91653Y3236D02*
X-91631Y2925D01*
X-91331D01*
X-91392Y2916D01*
X-91447Y2887D01*
X-91496Y2839D01*
X-91537Y2772D01*
X-91571Y2692D01*
X-91555Y2671D01*
X-91577D01*
X-91602Y2581D01*
X-91624Y2457D01*
X-91641Y2313D01*
X-91650Y2150D01*
X-91654Y1969D01*
X-91650Y1787D01*
X-91624Y1481D01*
X-91602Y1356D01*
X-91577Y1266D01*
X-91555D01*
X-91571Y1245D01*
X-91537Y1165D01*
X-91496Y1098D01*
X-91447Y1050D01*
X-91392Y1021D01*
X-91331Y1012D01*
X-91633D01*
X-91645Y894D01*
X-91653Y701D01*
X-91654Y591D01*
X-92835D01*
X-92836Y701D01*
X-92857Y1012D01*
X-93157D01*
X-93096Y1021D01*
X-93041Y1050D01*
X-92993Y1098D01*
X-92951Y1165D01*
X-92918Y1245D01*
X-92933Y1266D01*
X-92911D01*
X-92886Y1356D01*
X-92864Y1481D01*
X-92848Y1624D01*
X-92838Y1787D01*
X-92835Y1969D01*
X-92838Y2150D01*
X-92864Y2457D01*
X-92886Y2581D01*
X-92911Y2671D01*
X-92933D01*
X-92918Y2692D01*
X-92951Y2772D01*
X-92993Y2839D01*
X-93041Y2887D01*
X-93096Y2916D01*
X-93157Y2925D01*
X-92856D01*
X-92844Y3043D01*
X-92836Y3236D01*
X-92835Y3347D01*
X-91654D01*
X-91653Y3236D01*
D02*
G37*
G36*
X-97638Y562D02*
X-97603Y547D01*
X-97544Y534D01*
X-97461Y523D01*
X-97225Y506D01*
X-96469Y492D01*
Y-689D01*
X-96693Y-692D01*
X-97225Y-734D01*
X-97355Y-760D01*
X-97461Y-791D01*
X-97544Y-828D01*
X-97603Y-870D01*
X-97638Y-918D01*
X-97650Y-972D01*
Y579D01*
X-97638Y562D01*
D02*
G37*
G36*
X-99035Y1255D02*
X-98710Y988D01*
X-98552Y879D01*
X-98395Y787D01*
X-98241Y712D01*
X-98090Y654D01*
X-97941Y612D01*
X-97794Y587D01*
X-97650Y579D01*
X-99201Y-972D01*
X-99209Y-828D01*
X-99234Y-681D01*
X-99276Y-532D01*
X-99334Y-381D01*
X-99409Y-227D01*
X-99501Y-71D01*
X-99610Y88D01*
X-99735Y249D01*
X-99877Y413D01*
X-100036Y579D01*
X-99201Y1414D01*
X-99035Y1255D01*
D02*
G37*
G36*
X-93157Y-1012D02*
X-93169Y-950D01*
X-93204Y-895D01*
X-93264Y-847D01*
X-93346Y-805D01*
X-93453Y-770D01*
X-93582Y-741D01*
X-93736Y-718D01*
X-93913Y-702D01*
X-94338Y-689D01*
Y492D01*
X-94114Y497D01*
X-93913Y513D01*
X-93736Y539D01*
X-93582Y575D01*
X-93453Y622D01*
X-93346Y679D01*
X-93264Y747D01*
X-93204Y825D01*
X-93169Y913D01*
X-93157Y1012D01*
Y-1012D01*
D02*
G37*
G36*
X11500Y-19000D02*
X-12000D01*
Y-14500D01*
X-13386Y-13114D01*
Y-12402D01*
X-15748D01*
Y-11417D01*
X-16732D01*
Y-9646D01*
X-18000D01*
Y-268D01*
X-17165D01*
Y-374D01*
X-15748D01*
X-14331D01*
Y-39D01*
X-14331Y-39D01*
X-14331D01*
X-14124Y376D01*
X-11500Y3000D01*
X11500D01*
Y-19000D01*
D02*
G37*
%LPC*%
G36*
X-14331Y-2342D02*
X-14764D01*
Y-2677D01*
X-14331D01*
Y-2342D01*
D02*
G37*
G36*
X-16732D02*
X-17165D01*
Y-2677D01*
X-16732D01*
Y-2342D01*
D02*
G37*
G36*
X-13386Y-9646D02*
X-14764D01*
Y-10433D01*
X-13386D01*
Y-9646D01*
D02*
G37*
%LPD*%
G36*
X50340Y6063D02*
X50347Y5990D01*
X50433D01*
X50414Y5966D01*
X50398Y5932D01*
X50383Y5889D01*
X50370Y5836D01*
X50366Y5812D01*
X50387Y5685D01*
X50427Y5531D01*
X50479Y5401D01*
X50543Y5295D01*
X50618Y5212D01*
X50705Y5153D01*
X50803Y5118D01*
X50913Y5106D01*
X48575D01*
X48685Y5118D01*
X48783Y5153D01*
X48870Y5212D01*
X48945Y5295D01*
X49009Y5401D01*
X49061Y5531D01*
X49101Y5685D01*
X49122Y5812D01*
X49118Y5836D01*
X49105Y5889D01*
X49090Y5932D01*
X49074Y5966D01*
X49055Y5990D01*
X49141D01*
X49148Y6063D01*
X49154Y6287D01*
X50335D01*
X50340Y6063D01*
D02*
G37*
G36*
X45340D02*
X45347Y5990D01*
X45433D01*
X45414Y5966D01*
X45398Y5932D01*
X45383Y5889D01*
X45370Y5836D01*
X45366Y5812D01*
X45387Y5685D01*
X45427Y5531D01*
X45479Y5401D01*
X45543Y5295D01*
X45618Y5212D01*
X45705Y5153D01*
X45803Y5118D01*
X45913Y5106D01*
X43575D01*
X43685Y5118D01*
X43783Y5153D01*
X43870Y5212D01*
X43945Y5295D01*
X44009Y5401D01*
X44061Y5531D01*
X44102Y5685D01*
X44122Y5812D01*
X44118Y5836D01*
X44105Y5889D01*
X44091Y5932D01*
X44074Y5966D01*
X44055Y5990D01*
X44141D01*
X44148Y6063D01*
X44153Y6287D01*
X45335D01*
X45340Y6063D01*
D02*
G37*
G36*
X32624Y433D02*
X32600Y452D01*
X32566Y469D01*
X32523Y483D01*
X32470Y496D01*
X32407Y507D01*
X32253Y523D01*
X32060Y531D01*
X31949Y532D01*
Y1713D01*
X32060Y1714D01*
X32407Y1737D01*
X32470Y1748D01*
X32523Y1761D01*
X32566Y1776D01*
X32600Y1792D01*
X32624Y1811D01*
Y433D01*
D02*
G37*
G36*
X29685Y2191D02*
X29720Y2090D01*
X29779Y2002D01*
X29862Y1925D01*
X29968Y1860D01*
X30098Y1807D01*
X30252Y1766D01*
X30429Y1736D01*
X30630Y1719D01*
X30854Y1713D01*
Y532D01*
X30630Y526D01*
X30429Y508D01*
X30252Y478D01*
X30098Y437D01*
X29968Y384D01*
X29862Y319D01*
X29779Y242D01*
X29720Y154D01*
X29685Y53D01*
X29673Y-59D01*
Y2303D01*
X29685Y2191D01*
D02*
G37*
G36*
X-70196Y-2853D02*
X-70213Y-2887D01*
X-70227Y-2930D01*
X-70240Y-2983D01*
X-70251Y-3046D01*
X-70267Y-3200D01*
X-70275Y-3393D01*
X-70276Y-3504D01*
X-71457D01*
X-71458Y-3393D01*
X-71481Y-3046D01*
X-71492Y-2983D01*
X-71505Y-2930D01*
X-71520Y-2887D01*
X-71536Y-2853D01*
X-71555Y-2829D01*
X-70177D01*
X-70196Y-2853D01*
D02*
G37*
G36*
X-70271Y-4193D02*
X-70238Y-4571D01*
X-70208Y-4725D01*
X-70170Y-4854D01*
X-70124Y-4961D01*
X-70069Y-5043D01*
X-70006Y-5103D01*
X-69934Y-5138D01*
X-69854Y-5150D01*
X-71878D01*
X-71798Y-5138D01*
X-71726Y-5103D01*
X-71663Y-5043D01*
X-71608Y-4961D01*
X-71562Y-4854D01*
X-71524Y-4725D01*
X-71495Y-4571D01*
X-71473Y-4394D01*
X-71461Y-4193D01*
X-71457Y-3969D01*
X-70276D01*
X-70271Y-4193D01*
D02*
G37*
G36*
X-88375Y-800D02*
X-88361Y-1012D01*
X-87945D01*
X-88027Y-1022D01*
X-88100Y-1054D01*
X-88165Y-1107D01*
X-88221Y-1180D01*
X-88268Y-1275D01*
X-88292Y-1346D01*
X-88278Y-1364D01*
X-88298D01*
X-88307Y-1391D01*
X-88337Y-1529D01*
X-88359Y-1687D01*
X-88372Y-1866D01*
X-88376Y-2067D01*
X-89557D01*
X-89559Y-1866D01*
X-89591Y-1391D01*
X-89596Y-1364D01*
X-89656D01*
X-89637Y-1340D01*
X-89620Y-1306D01*
X-89610Y-1278D01*
X-89611Y-1275D01*
X-89634Y-1180D01*
X-89662Y-1107D01*
X-89694Y-1054D01*
X-89731Y-1022D01*
X-89771Y-1012D01*
X-89568D01*
X-89566Y-993D01*
X-89558Y-800D01*
X-89557Y-689D01*
X-88376D01*
X-88375Y-800D01*
D02*
G37*
G36*
X-88375Y-2402D02*
X-88351Y-2770D01*
X-88278D01*
X-88296Y-2794D01*
X-88313Y-2828D01*
X-88328Y-2871D01*
X-88341Y-2924D01*
X-88341Y-2928D01*
X-88314Y-3347D01*
X-88299Y-3359D01*
X-88375D01*
X-88376Y-3445D01*
X-89557D01*
X-89558Y-3359D01*
X-89850D01*
X-89794Y-3347D01*
X-89745Y-3311D01*
X-89701Y-3252D01*
X-89663Y-3170D01*
X-89630Y-3063D01*
X-89604Y-2933D01*
X-89599Y-2897D01*
X-89605Y-2871D01*
X-89620Y-2828D01*
X-89637Y-2794D01*
X-89656Y-2770D01*
X-89583D01*
X-89560Y-2402D01*
X-89557Y-2177D01*
X-88376D01*
X-88375Y-2402D01*
D02*
G37*
G36*
X-91327Y-8453D02*
X-92508Y-8465D01*
Y-7283D01*
X-92283Y-7280D01*
X-91905Y-7249D01*
X-91752Y-7222D01*
X-91622Y-7188D01*
X-91516Y-7146D01*
X-91433Y-7096D01*
X-91374Y-7039D01*
X-91338Y-6974D01*
X-91327Y-6902D01*
Y-8453D01*
D02*
G37*
G36*
X-89767Y-7046D02*
X-89742Y-7193D01*
X-89701Y-7342D01*
X-89642Y-7493D01*
X-89567Y-7647D01*
X-89475Y-7803D01*
X-89367Y-7962D01*
X-89241Y-8123D01*
X-89099Y-8287D01*
X-88941Y-8453D01*
X-89776Y-9288D01*
X-89942Y-9129D01*
X-90266Y-8862D01*
X-90425Y-8753D01*
X-90581Y-8661D01*
X-90735Y-8586D01*
X-90886Y-8528D01*
X-91035Y-8486D01*
X-91182Y-8461D01*
X-91327Y-8453D01*
X-89776Y-6902D01*
X-89767Y-7046D01*
D02*
G37*
G36*
X-88265Y-9843D02*
X-88239Y-10221D01*
X-88216Y-10374D01*
X-88187Y-10504D01*
X-88152Y-10610D01*
X-88110Y-10693D01*
X-88061Y-10752D01*
X-88006Y-10788D01*
X-87945Y-10799D01*
X-89771D01*
X-89710Y-10788D01*
X-89655Y-10752D01*
X-89607Y-10693D01*
X-89565Y-10610D01*
X-89530Y-10504D01*
X-89500Y-10374D01*
X-89478Y-10221D01*
X-89462Y-10044D01*
X-89449Y-9618D01*
X-88268D01*
X-88265Y-9843D01*
D02*
G37*
G36*
X-95807Y-6942D02*
X-95772Y-7014D01*
X-95713Y-7077D01*
X-95630Y-7132D01*
X-95524Y-7178D01*
X-95394Y-7216D01*
X-95240Y-7246D01*
X-95063Y-7267D01*
X-94862Y-7279D01*
X-94638Y-7283D01*
Y-8465D01*
X-94862Y-8469D01*
X-95240Y-8502D01*
X-95394Y-8532D01*
X-95524Y-8570D01*
X-95630Y-8616D01*
X-95713Y-8671D01*
X-95772Y-8734D01*
X-95807Y-8806D01*
X-95819Y-8886D01*
X-95880Y-8897D01*
X-95935Y-8933D01*
X-95984Y-8992D01*
X-96026Y-9075D01*
X-96061Y-9181D01*
X-96090Y-9311D01*
X-96113Y-9464D01*
X-96129Y-9641D01*
X-96136Y-9879D01*
X-96113Y-10221D01*
X-96090Y-10374D01*
X-96061Y-10504D01*
X-96026Y-10610D01*
X-95984Y-10693D01*
X-95935Y-10752D01*
X-95880Y-10788D01*
X-95819Y-10799D01*
X-97645D01*
X-97584Y-10788D01*
X-97529Y-10752D01*
X-97481Y-10693D01*
X-97439Y-10610D01*
X-97404Y-10504D01*
X-97374Y-10374D01*
X-97352Y-10221D01*
X-97336Y-10044D01*
X-97329Y-9806D01*
X-97352Y-9464D01*
X-97374Y-9311D01*
X-97404Y-9181D01*
X-97439Y-9075D01*
X-97481Y-8992D01*
X-97529Y-8933D01*
X-97584Y-8897D01*
X-97645Y-8886D01*
X-95819D01*
Y-6862D01*
X-95807Y-6942D01*
D02*
G37*
G36*
X-66327Y-8850D02*
X-66154Y-8857D01*
X-66043Y-8858D01*
Y-10039D01*
X-66154Y-10040D01*
X-66327Y-10052D01*
Y-10421D01*
X-66338Y-10349D01*
X-66370Y-10284D01*
X-66425Y-10226D01*
X-66502Y-10177D01*
X-66600Y-10135D01*
X-66680Y-10112D01*
X-66694Y-10119D01*
X-66718Y-10138D01*
Y-10101D01*
X-66721Y-10100D01*
X-66863Y-10074D01*
X-67027Y-10055D01*
X-67213Y-10043D01*
X-67421Y-10039D01*
Y-8858D01*
X-67213Y-8854D01*
X-66863Y-8824D01*
X-66721Y-8797D01*
X-66718Y-8796D01*
Y-8760D01*
X-66694Y-8778D01*
X-66680Y-8786D01*
X-66600Y-8763D01*
X-66502Y-8721D01*
X-66425Y-8671D01*
X-66370Y-8614D01*
X-66338Y-8549D01*
X-66327Y-8477D01*
Y-8850D01*
D02*
G37*
G36*
X-69843Y-8597D02*
X-69807Y-8652D01*
X-69748Y-8700D01*
X-69665Y-8742D01*
X-69559Y-8778D01*
X-69429Y-8807D01*
X-69276Y-8829D01*
X-69099Y-8845D01*
X-68702Y-8857D01*
X-68688Y-8857D01*
X-68341Y-8834D01*
X-68278Y-8823D01*
X-68225Y-8810D01*
X-68182Y-8795D01*
X-68148Y-8778D01*
X-68124Y-8760D01*
Y-10138D01*
X-68148Y-10119D01*
X-68182Y-10102D01*
X-68225Y-10088D01*
X-68278Y-10075D01*
X-68341Y-10064D01*
X-68495Y-10048D01*
X-68688Y-10040D01*
X-68721Y-10040D01*
X-68898Y-10043D01*
X-69276Y-10068D01*
X-69429Y-10091D01*
X-69559Y-10120D01*
X-69665Y-10155D01*
X-69748Y-10198D01*
X-69807Y-10246D01*
X-69843Y-10301D01*
X-69854Y-10362D01*
X-69934Y-10374D01*
X-70006Y-10409D01*
X-70069Y-10468D01*
X-70124Y-10551D01*
X-70170Y-10657D01*
X-70208Y-10787D01*
X-70238Y-10941D01*
X-70246Y-11012D01*
X-70238Y-11107D01*
X-70208Y-11260D01*
X-70170Y-11390D01*
X-70124Y-11496D01*
X-70069Y-11579D01*
X-70006Y-11638D01*
X-69934Y-11673D01*
X-69854Y-11685D01*
X-71878D01*
X-71798Y-11673D01*
X-71726Y-11638D01*
X-71663Y-11579D01*
X-71608Y-11496D01*
X-71562Y-11390D01*
X-71524Y-11260D01*
X-71495Y-11107D01*
X-71486Y-11035D01*
X-71495Y-10941D01*
X-71524Y-10787D01*
X-71562Y-10657D01*
X-71608Y-10551D01*
X-71663Y-10468D01*
X-71726Y-10409D01*
X-71798Y-10374D01*
X-71878Y-10362D01*
X-69854D01*
Y-8536D01*
X-69843Y-8597D01*
D02*
G37*
G36*
X-66327Y-13571D02*
X-66338Y-13498D01*
X-66374Y-13433D01*
X-66433Y-13376D01*
X-66515Y-13326D01*
X-66622Y-13284D01*
X-66752Y-13250D01*
X-66905Y-13223D01*
X-66994Y-13214D01*
X-67056Y-13224D01*
X-67109Y-13237D01*
X-67153Y-13252D01*
X-67186Y-13269D01*
X-67211Y-13287D01*
Y-13200D01*
X-67508Y-13189D01*
Y-12008D01*
X-67283Y-12004D01*
X-67211Y-11998D01*
Y-11909D01*
X-67186Y-11928D01*
X-67153Y-11945D01*
X-67109Y-11960D01*
X-67056Y-11972D01*
X-67004Y-11981D01*
X-66905Y-11974D01*
X-66752Y-11947D01*
X-66622Y-11913D01*
X-66515Y-11870D01*
X-66433Y-11821D01*
X-66374Y-11764D01*
X-66338Y-11699D01*
X-66327Y-11626D01*
Y-13571D01*
D02*
G37*
G36*
Y-16720D02*
X-66338Y-16648D01*
X-66374Y-16583D01*
X-66433Y-16526D01*
X-66515Y-16476D01*
X-66622Y-16434D01*
X-66752Y-16400D01*
X-66905Y-16373D01*
X-67016Y-16361D01*
X-67049Y-16363D01*
X-67111Y-16374D01*
X-67164Y-16387D01*
X-67208Y-16402D01*
X-67242Y-16418D01*
X-67266Y-16437D01*
Y-16347D01*
X-67508Y-16339D01*
Y-15157D01*
X-67283Y-15154D01*
X-67266Y-15152D01*
Y-15059D01*
X-67242Y-15078D01*
X-67208Y-15094D01*
X-67164Y-15109D01*
X-67111Y-15122D01*
X-67049Y-15133D01*
X-67039Y-15134D01*
X-66905Y-15123D01*
X-66752Y-15096D01*
X-66622Y-15062D01*
X-66515Y-15020D01*
X-66433Y-14970D01*
X-66374Y-14913D01*
X-66338Y-14848D01*
X-66327Y-14776D01*
Y-16720D01*
D02*
G37*
G36*
Y-19870D02*
X-66338Y-19795D01*
X-66374Y-19728D01*
X-66433Y-19668D01*
X-66515Y-19617D01*
X-66622Y-19573D01*
X-66752Y-19538D01*
X-66905Y-19510D01*
X-66996Y-19500D01*
X-67048Y-19509D01*
X-67101Y-19521D01*
X-67144Y-19535D01*
X-67178Y-19551D01*
X-67202Y-19569D01*
X-67201Y-19486D01*
X-67508Y-19475D01*
Y-18294D01*
X-67283Y-18290D01*
X-67184Y-18282D01*
X-67183Y-18192D01*
X-67159Y-18211D01*
X-67125Y-18228D01*
X-67081Y-18244D01*
X-67028Y-18257D01*
X-66977Y-18266D01*
X-66905Y-18260D01*
X-66752Y-18235D01*
X-66622Y-18202D01*
X-66515Y-18161D01*
X-66433Y-18113D01*
X-66374Y-18058D01*
X-66338Y-17995D01*
X-66327Y-17925D01*
Y-19870D01*
D02*
G37*
G36*
X-99418Y-4516D02*
X-99126D01*
X-99182Y-4527D01*
X-99232Y-4563D01*
X-99276Y-4622D01*
X-99314Y-4704D01*
X-99346Y-4811D01*
X-99372Y-4941D01*
X-99377Y-4977D01*
X-99371Y-5003D01*
X-99356Y-5046D01*
X-99340Y-5080D01*
X-99321Y-5104D01*
X-99393D01*
X-99416Y-5472D01*
X-99419Y-5697D01*
X-100600D01*
X-100601Y-5472D01*
X-100625Y-5104D01*
X-100699D01*
X-100680Y-5080D01*
X-100663Y-5046D01*
X-100649Y-5003D01*
X-100636Y-4950D01*
X-100635Y-4947D01*
X-100662Y-4527D01*
X-100677Y-4516D01*
X-100601D01*
X-100600Y-4429D01*
X-99419D01*
X-99418Y-4516D01*
D02*
G37*
G36*
X-99417Y-6008D02*
X-99385Y-6482D01*
X-99380Y-6510D01*
X-99321D01*
X-99340Y-6534D01*
X-99356Y-6568D01*
X-99366Y-6596D01*
X-99366Y-6599D01*
X-99342Y-6694D01*
X-99314Y-6767D01*
X-99282Y-6820D01*
X-99246Y-6852D01*
X-99205Y-6862D01*
X-99409D01*
X-99410Y-6881D01*
X-99418Y-7074D01*
X-99419Y-7185D01*
X-100600D01*
X-100601Y-7074D01*
X-100616Y-6862D01*
X-101031D01*
X-100949Y-6852D01*
X-100876Y-6820D01*
X-100812Y-6767D01*
X-100756Y-6694D01*
X-100708Y-6599D01*
X-100685Y-6528D01*
X-100699Y-6510D01*
X-100679D01*
X-100669Y-6482D01*
X-100639Y-6345D01*
X-100618Y-6187D01*
X-100605Y-6008D01*
X-100600Y-5807D01*
X-99419D01*
X-99417Y-6008D01*
D02*
G37*
G36*
X-91392Y-12834D02*
X-91447Y-12870D01*
X-91496Y-12929D01*
X-91537Y-13012D01*
X-91573Y-13118D01*
X-91602Y-13248D01*
X-91624Y-13401D01*
X-91641Y-13578D01*
X-91654Y-14004D01*
X-92835D01*
X-92838Y-13779D01*
X-92864Y-13401D01*
X-92886Y-13248D01*
X-92915Y-13118D01*
X-92951Y-13012D01*
X-92993Y-12929D01*
X-93041Y-12870D01*
X-93096Y-12834D01*
X-93157Y-12823D01*
X-91331D01*
X-91392Y-12834D01*
D02*
G37*
G36*
X-91653Y-14481D02*
X-91629Y-14828D01*
X-91618Y-14891D01*
X-91605Y-14944D01*
X-91590Y-14987D01*
X-91574Y-15021D01*
X-91555Y-15045D01*
X-92933D01*
X-92914Y-15021D01*
X-92898Y-14987D01*
X-92883Y-14944D01*
X-92870Y-14891D01*
X-92859Y-14828D01*
X-92844Y-14674D01*
X-92836Y-14481D01*
X-92835Y-14370D01*
X-91654D01*
X-91653Y-14481D01*
D02*
G37*
G36*
X165992Y-13279D02*
X165858Y-13327D01*
X165740Y-13406D01*
X165638Y-13517D01*
X165551Y-13660D01*
X165480Y-13835D01*
X165425Y-14041D01*
X165386Y-14279D01*
X165362Y-14549D01*
X165354Y-14850D01*
X163779D01*
X163772Y-14549D01*
X163748Y-14279D01*
X163709Y-14041D01*
X163654Y-13835D01*
X163583Y-13660D01*
X163496Y-13517D01*
X163394Y-13406D01*
X163276Y-13327D01*
X163142Y-13279D01*
X162992Y-13263D01*
X166142D01*
X165992Y-13279D01*
D02*
G37*
G36*
X165294Y-21259D02*
X165328Y-21276D01*
X165371Y-21290D01*
X165424Y-21303D01*
X165487Y-21314D01*
X165641Y-21330D01*
X165834Y-21338D01*
X165945Y-21339D01*
Y-22520D01*
X165834Y-22521D01*
X165487Y-22544D01*
X165424Y-22555D01*
X165371Y-22568D01*
X165328Y-22583D01*
X165294Y-22599D01*
X165270Y-22618D01*
Y-21240D01*
X165294Y-21259D01*
D02*
G37*
G36*
X163864Y-22618D02*
X163840Y-22599D01*
X163806Y-22583D01*
X163763Y-22568D01*
X163710Y-22555D01*
X163647Y-22544D01*
X163493Y-22529D01*
X163300Y-22521D01*
X163189Y-22520D01*
Y-21339D01*
X163300Y-21338D01*
X163647Y-21314D01*
X163710Y-21303D01*
X163763Y-21290D01*
X163806Y-21276D01*
X163840Y-21259D01*
X163864Y-21240D01*
Y-22618D01*
D02*
G37*
G36*
X167492Y-22842D02*
X167481Y-22781D01*
X167445Y-22726D01*
X167386Y-22678D01*
X167303Y-22636D01*
X167197Y-22600D01*
X167067Y-22571D01*
X166914Y-22549D01*
X166736Y-22533D01*
X166311Y-22520D01*
Y-21339D01*
X166536Y-21335D01*
X166914Y-21309D01*
X167067Y-21287D01*
X167197Y-21258D01*
X167303Y-21222D01*
X167386Y-21181D01*
X167445Y-21132D01*
X167481Y-21077D01*
X167492Y-21016D01*
Y-22842D01*
D02*
G37*
G36*
X161653Y-21077D02*
X161689Y-21132D01*
X161748Y-21181D01*
X161830Y-21222D01*
X161937Y-21258D01*
X162067Y-21287D01*
X162220Y-21309D01*
X162397Y-21326D01*
X162823Y-21339D01*
Y-22520D01*
X162598Y-22523D01*
X162220Y-22549D01*
X162067Y-22571D01*
X161937Y-22600D01*
X161830Y-22636D01*
X161748Y-22678D01*
X161689Y-22726D01*
X161653Y-22781D01*
X161642Y-22842D01*
Y-21016D01*
X161653Y-21077D01*
D02*
G37*
G36*
X-163142Y-13279D02*
X-163276Y-13327D01*
X-163394Y-13406D01*
X-163496Y-13517D01*
X-163583Y-13660D01*
X-163654Y-13835D01*
X-163709Y-14041D01*
X-163748Y-14279D01*
X-163772Y-14549D01*
X-163779Y-14850D01*
X-165354D01*
X-165362Y-14549D01*
X-165386Y-14279D01*
X-165425Y-14041D01*
X-165480Y-13835D01*
X-165551Y-13660D01*
X-165638Y-13517D01*
X-165740Y-13406D01*
X-165858Y-13327D01*
X-165992Y-13279D01*
X-166142Y-13263D01*
X-162992D01*
X-163142Y-13279D01*
D02*
G37*
G36*
X-163840Y-21259D02*
X-163806Y-21276D01*
X-163763Y-21290D01*
X-163710Y-21303D01*
X-163647Y-21314D01*
X-163493Y-21330D01*
X-163300Y-21338D01*
X-163189Y-21339D01*
Y-22520D01*
X-163300Y-22521D01*
X-163647Y-22544D01*
X-163710Y-22555D01*
X-163763Y-22568D01*
X-163806Y-22583D01*
X-163840Y-22599D01*
X-163864Y-22618D01*
Y-21240D01*
X-163840Y-21259D01*
D02*
G37*
G36*
X-165270Y-22618D02*
X-165294Y-22599D01*
X-165328Y-22583D01*
X-165371Y-22568D01*
X-165424Y-22555D01*
X-165487Y-22544D01*
X-165641Y-22529D01*
X-165834Y-22521D01*
X-165945Y-22520D01*
Y-21339D01*
X-165834Y-21338D01*
X-165487Y-21314D01*
X-165424Y-21303D01*
X-165371Y-21290D01*
X-165328Y-21276D01*
X-165294Y-21259D01*
X-165270Y-21240D01*
Y-22618D01*
D02*
G37*
G36*
X-161642Y-22842D02*
X-161653Y-22781D01*
X-161689Y-22726D01*
X-161748Y-22678D01*
X-161830Y-22636D01*
X-161937Y-22600D01*
X-162067Y-22571D01*
X-162220Y-22549D01*
X-162397Y-22533D01*
X-162823Y-22520D01*
Y-21339D01*
X-162598Y-21335D01*
X-162220Y-21309D01*
X-162067Y-21287D01*
X-161937Y-21258D01*
X-161830Y-21222D01*
X-161748Y-21181D01*
X-161689Y-21132D01*
X-161653Y-21077D01*
X-161642Y-21016D01*
Y-22842D01*
D02*
G37*
G36*
X-167481Y-21077D02*
X-167445Y-21132D01*
X-167386Y-21181D01*
X-167303Y-21222D01*
X-167197Y-21258D01*
X-167067Y-21287D01*
X-166914Y-21309D01*
X-166736Y-21326D01*
X-166311Y-21339D01*
Y-22520D01*
X-166536Y-22523D01*
X-166914Y-22549D01*
X-167067Y-22571D01*
X-167197Y-22600D01*
X-167303Y-22636D01*
X-167386Y-22678D01*
X-167445Y-22726D01*
X-167481Y-22781D01*
X-167492Y-22842D01*
Y-21016D01*
X-167481Y-21077D01*
D02*
G37*
G36*
X-41928Y-26784D02*
X-41916Y-26956D01*
X-41547D01*
X-41620Y-26967D01*
X-41685Y-27000D01*
X-41742Y-27055D01*
X-41792Y-27132D01*
X-41834Y-27230D01*
X-41857Y-27310D01*
X-41849Y-27324D01*
X-41831Y-27348D01*
X-41867D01*
X-41868Y-27351D01*
X-41895Y-27493D01*
X-41914Y-27657D01*
X-41925Y-27843D01*
X-41929Y-28051D01*
X-43110D01*
X-43114Y-27843D01*
X-43145Y-27493D01*
X-43171Y-27351D01*
X-43172Y-27348D01*
X-43209D01*
X-43190Y-27324D01*
X-43183Y-27310D01*
X-43206Y-27230D01*
X-43248Y-27132D01*
X-43297Y-27055D01*
X-43354Y-27000D01*
X-43419Y-26967D01*
X-43492Y-26956D01*
X-43118D01*
X-43111Y-26784D01*
X-43110Y-26673D01*
X-41929D01*
X-41928Y-26784D01*
D02*
G37*
G36*
X-41849Y-28778D02*
X-41866Y-28812D01*
X-41881Y-28855D01*
X-41894Y-28908D01*
X-41905Y-28971D01*
X-41920Y-29125D01*
X-41928Y-29318D01*
X-41928Y-29351D01*
X-41926Y-29528D01*
X-41900Y-29906D01*
X-41877Y-30059D01*
X-41848Y-30189D01*
X-41813Y-30296D01*
X-41771Y-30378D01*
X-41723Y-30437D01*
X-41668Y-30473D01*
X-41607Y-30484D01*
X-43433D01*
X-43372Y-30473D01*
X-43317Y-30437D01*
X-43268Y-30378D01*
X-43226Y-30296D01*
X-43191Y-30189D01*
X-43162Y-30059D01*
X-43139Y-29906D01*
X-43123Y-29728D01*
X-43111Y-29332D01*
X-43111Y-29318D01*
X-43135Y-28971D01*
X-43146Y-28908D01*
X-43159Y-28855D01*
X-43173Y-28812D01*
X-43190Y-28778D01*
X-43209Y-28754D01*
X-41831D01*
X-41849Y-28778D01*
D02*
G37*
G36*
X-48227Y-26784D02*
X-48216Y-26956D01*
X-47847D01*
X-47919Y-26967D01*
X-47984Y-27000D01*
X-48041Y-27055D01*
X-48091Y-27132D01*
X-48133Y-27230D01*
X-48156Y-27310D01*
X-48149Y-27324D01*
X-48130Y-27348D01*
X-48167D01*
X-48167Y-27351D01*
X-48194Y-27493D01*
X-48213Y-27657D01*
X-48224Y-27843D01*
X-48228Y-28051D01*
X-49409D01*
X-49413Y-27843D01*
X-49444Y-27493D01*
X-49470Y-27351D01*
X-49471Y-27348D01*
X-49508D01*
X-49489Y-27324D01*
X-49482Y-27310D01*
X-49505Y-27230D01*
X-49547Y-27132D01*
X-49597Y-27055D01*
X-49654Y-27000D01*
X-49719Y-26967D01*
X-49791Y-26956D01*
X-49417D01*
X-49410Y-26784D01*
X-49409Y-26673D01*
X-48228D01*
X-48227Y-26784D01*
D02*
G37*
G36*
X-48149Y-28778D02*
X-48165Y-28812D01*
X-48180Y-28855D01*
X-48193Y-28908D01*
X-48204Y-28971D01*
X-48219Y-29125D01*
X-48227Y-29318D01*
X-48228Y-29351D01*
X-48225Y-29528D01*
X-48199Y-29906D01*
X-48177Y-30059D01*
X-48148Y-30189D01*
X-48112Y-30296D01*
X-48070Y-30378D01*
X-48022Y-30437D01*
X-47967Y-30473D01*
X-47906Y-30484D01*
X-49732D01*
X-49671Y-30473D01*
X-49616Y-30437D01*
X-49567Y-30378D01*
X-49526Y-30296D01*
X-49490Y-30189D01*
X-49461Y-30059D01*
X-49439Y-29906D01*
X-49422Y-29728D01*
X-49410Y-29332D01*
X-49410Y-29318D01*
X-49434Y-28971D01*
X-49445Y-28908D01*
X-49458Y-28855D01*
X-49472Y-28812D01*
X-49489Y-28778D01*
X-49508Y-28754D01*
X-48130D01*
X-48149Y-28778D01*
D02*
G37*
G36*
X55803Y-20866D02*
X55705Y-20901D01*
X55618Y-20960D01*
X55543Y-21043D01*
X55479Y-21149D01*
X55427Y-21279D01*
X55387Y-21433D01*
X55366Y-21560D01*
X55370Y-21584D01*
X55383Y-21637D01*
X55398Y-21680D01*
X55414Y-21714D01*
X55433Y-21738D01*
X55347D01*
X55340Y-21811D01*
X55335Y-22035D01*
X54154D01*
X54148Y-21811D01*
X54141Y-21738D01*
X54055D01*
X54074Y-21714D01*
X54090Y-21680D01*
X54105Y-21637D01*
X54118Y-21584D01*
X54122Y-21560D01*
X54102Y-21433D01*
X54061Y-21279D01*
X54009Y-21149D01*
X53945Y-21043D01*
X53870Y-20960D01*
X53783Y-20901D01*
X53685Y-20866D01*
X53575Y-20854D01*
X55913D01*
X55803Y-20866D01*
D02*
G37*
G36*
X40803D02*
X40705Y-20901D01*
X40618Y-20960D01*
X40543Y-21043D01*
X40479Y-21149D01*
X40427Y-21279D01*
X40387Y-21433D01*
X40366Y-21560D01*
X40370Y-21584D01*
X40383Y-21637D01*
X40398Y-21680D01*
X40414Y-21714D01*
X40433Y-21738D01*
X40347D01*
X40340Y-21811D01*
X40335Y-22035D01*
X39154D01*
X39148Y-21811D01*
X39141Y-21738D01*
X39055D01*
X39074Y-21714D01*
X39090Y-21680D01*
X39105Y-21637D01*
X39118Y-21584D01*
X39122Y-21560D01*
X39101Y-21433D01*
X39061Y-21279D01*
X39009Y-21149D01*
X38945Y-21043D01*
X38870Y-20960D01*
X38783Y-20901D01*
X38685Y-20866D01*
X38575Y-20854D01*
X40913D01*
X40803Y-20866D01*
D02*
G37*
G36*
X40414Y-23168D02*
X40398Y-23202D01*
X40383Y-23245D01*
X40370Y-23298D01*
X40359Y-23361D01*
X40343Y-23515D01*
X40336Y-23708D01*
X40335Y-23787D01*
X40339Y-23996D01*
X40372Y-24374D01*
X40402Y-24528D01*
X40440Y-24658D01*
X40486Y-24764D01*
X40541Y-24847D01*
X40604Y-24906D01*
X40676Y-24941D01*
X40756Y-24953D01*
X38732D01*
X38813Y-24941D01*
X38884Y-24906D01*
X38947Y-24847D01*
X39002Y-24764D01*
X39048Y-24658D01*
X39086Y-24528D01*
X39116Y-24374D01*
X39137Y-24197D01*
X39149Y-23996D01*
X39153Y-23787D01*
X39153Y-23708D01*
X39129Y-23361D01*
X39118Y-23298D01*
X39105Y-23245D01*
X39090Y-23202D01*
X39074Y-23168D01*
X39055Y-23144D01*
X40433D01*
X40414Y-23168D01*
D02*
G37*
G36*
X50803Y-20866D02*
X50705Y-20901D01*
X50618Y-20960D01*
X50543Y-21043D01*
X50479Y-21149D01*
X50427Y-21279D01*
X50387Y-21433D01*
X50358Y-21610D01*
X50340Y-21811D01*
X50335Y-22035D01*
X49154D01*
X49148Y-21811D01*
X49130Y-21610D01*
X49101Y-21433D01*
X49061Y-21279D01*
X49009Y-21149D01*
X48945Y-21043D01*
X48870Y-20960D01*
X48783Y-20901D01*
X48685Y-20866D01*
X48575Y-20854D01*
X50913D01*
X50803Y-20866D01*
D02*
G37*
G36*
X45803D02*
X45705Y-20901D01*
X45618Y-20960D01*
X45543Y-21043D01*
X45479Y-21149D01*
X45427Y-21279D01*
X45387Y-21433D01*
X45358Y-21610D01*
X45340Y-21811D01*
X45335Y-22035D01*
X44153D01*
X44148Y-21811D01*
X44130Y-21610D01*
X44102Y-21433D01*
X44061Y-21279D01*
X44009Y-21149D01*
X43945Y-21043D01*
X43870Y-20960D01*
X43783Y-20901D01*
X43685Y-20866D01*
X43575Y-20854D01*
X45913D01*
X45803Y-20866D01*
D02*
G37*
G36*
X50339Y-23996D02*
X50372Y-24374D01*
X50402Y-24528D01*
X50440Y-24658D01*
X50486Y-24764D01*
X50541Y-24847D01*
X50604Y-24906D01*
X50676Y-24941D01*
X50756Y-24953D01*
X48733D01*
X48812Y-24941D01*
X48884Y-24906D01*
X48947Y-24847D01*
X49002Y-24764D01*
X49048Y-24658D01*
X49086Y-24528D01*
X49116Y-24374D01*
X49137Y-24197D01*
X49149Y-23996D01*
X49154Y-23772D01*
X50335D01*
X50339Y-23996D01*
D02*
G37*
G36*
X45339D02*
X45373Y-24374D01*
X45402Y-24528D01*
X45440Y-24658D01*
X45486Y-24764D01*
X45541Y-24847D01*
X45604Y-24906D01*
X45676Y-24941D01*
X45756Y-24953D01*
X43733D01*
X43813Y-24941D01*
X43884Y-24906D01*
X43947Y-24847D01*
X44002Y-24764D01*
X44048Y-24658D01*
X44086Y-24528D01*
X44116Y-24374D01*
X44137Y-24197D01*
X44149Y-23996D01*
X44153Y-23772D01*
X45335D01*
X45339Y-23996D01*
D02*
G37*
G36*
X48733Y-26779D02*
X48721Y-26718D01*
X48685Y-26663D01*
X48626Y-26615D01*
X48544Y-26573D01*
X48437Y-26537D01*
X48307Y-26508D01*
X48154Y-26486D01*
X48144Y-26485D01*
X48101Y-26492D01*
X48048Y-26505D01*
X48005Y-26520D01*
X47971Y-26536D01*
X47947Y-26555D01*
Y-26469D01*
X47551Y-26457D01*
Y-25276D01*
X47776Y-25272D01*
X47947Y-25261D01*
Y-25177D01*
X47971Y-25196D01*
X48005Y-25213D01*
X48048Y-25227D01*
X48101Y-25240D01*
X48143Y-25247D01*
X48154Y-25247D01*
X48307Y-25224D01*
X48437Y-25195D01*
X48544Y-25159D01*
X48626Y-25117D01*
X48685Y-25069D01*
X48721Y-25014D01*
X48733Y-24953D01*
Y-26779D01*
D02*
G37*
G36*
X45768Y-25014D02*
X45803Y-25069D01*
X45862Y-25117D01*
X45945Y-25159D01*
X46051Y-25195D01*
X46181Y-25224D01*
X46334Y-25247D01*
X46345Y-25247D01*
X46387Y-25240D01*
X46440Y-25227D01*
X46483Y-25213D01*
X46517Y-25196D01*
X46541Y-25177D01*
Y-25264D01*
X46937Y-25276D01*
Y-26457D01*
X46712Y-26460D01*
X46541Y-26472D01*
Y-26555D01*
X46517Y-26536D01*
X46483Y-26520D01*
X46440Y-26505D01*
X46387Y-26492D01*
X46345Y-26485D01*
X46334Y-26486D01*
X46181Y-26508D01*
X46051Y-26537D01*
X45945Y-26573D01*
X45862Y-26615D01*
X45803Y-26663D01*
X45768Y-26718D01*
X45756Y-26779D01*
Y-24953D01*
X45768Y-25014D01*
D02*
G37*
G36*
X36534Y-28582D02*
X36568Y-28598D01*
X36611Y-28613D01*
X36664Y-28626D01*
X36727Y-28637D01*
X36881Y-28653D01*
X37074Y-28660D01*
X37185Y-28661D01*
Y-29842D01*
X37074Y-29844D01*
X36727Y-29867D01*
X36664Y-29878D01*
X36611Y-29891D01*
X36568Y-29906D01*
X36534Y-29922D01*
X36510Y-29941D01*
Y-28563D01*
X36534Y-28582D01*
D02*
G37*
G36*
X38732Y-30165D02*
X38721Y-30104D01*
X38685Y-30049D01*
X38626Y-30001D01*
X38543Y-29959D01*
X38437Y-29923D01*
X38307Y-29894D01*
X38154Y-29872D01*
X37977Y-29855D01*
X37551Y-29842D01*
Y-28661D01*
X37776Y-28658D01*
X38154Y-28632D01*
X38307Y-28610D01*
X38437Y-28581D01*
X38543Y-28545D01*
X38626Y-28503D01*
X38685Y-28455D01*
X38721Y-28400D01*
X38732Y-28339D01*
Y-30165D01*
D02*
G37*
D11*
X33484Y26850D02*
X36220Y29587D01*
Y31496D01*
X29528Y26850D02*
X33484D01*
X61004D02*
X64961D01*
X58268Y29587D02*
X61004Y26850D01*
X58268Y29587D02*
Y31496D01*
X164567Y-21929D02*
Y-9646D01*
X-164567Y-21929D02*
Y-9646D01*
X59490Y59055D02*
Y66929D01*
X49647Y59055D02*
Y66929D01*
X44726Y59055D02*
Y66929D01*
X-34998Y59055D02*
Y66929D01*
X-39920Y59055D02*
Y66929D01*
X-44841Y59055D02*
Y66929D01*
X-49762Y59055D02*
Y66929D01*
X-54684Y59055D02*
Y66929D01*
D15*
X-45669Y15748D02*
D03*
X-49055D02*
D03*
X-42520Y-31496D02*
D03*
X-39134D02*
D03*
X-48819D02*
D03*
X-52205D02*
D03*
X-96732Y3937D02*
D03*
X-100118D02*
D03*
X-92244D02*
D03*
X-88858D02*
D03*
X-92244Y0D02*
D03*
X-88858D02*
D03*
X-100118Y-7874D02*
D03*
X-96732D02*
D03*
Y-11811D02*
D03*
X-100118D02*
D03*
X-92244D02*
D03*
X-88858D02*
D03*
X13504Y19685D02*
D03*
X10118D02*
D03*
Y23622D02*
D03*
X13504D02*
D03*
X10118Y27559D02*
D03*
X13504D02*
D03*
Y39370D02*
D03*
X10118D02*
D03*
X1693D02*
D03*
X-1693D02*
D03*
Y27559D02*
D03*
X1693D02*
D03*
X-1693Y23622D02*
D03*
X1693D02*
D03*
Y19685D02*
D03*
X-1693D02*
D03*
X-10118D02*
D03*
X-13504D02*
D03*
Y23622D02*
D03*
X-10118D02*
D03*
X-13504Y27559D02*
D03*
X-10118D02*
D03*
Y39370D02*
D03*
X-13504D02*
D03*
D16*
X-70866Y-6063D02*
D03*
Y-9449D02*
D03*
Y-12598D02*
D03*
Y-15984D02*
D03*
X-168504Y-21929D02*
D03*
Y-25315D02*
D03*
X-160630Y-21929D02*
D03*
Y-25315D02*
D03*
X168504Y-21929D02*
D03*
Y-25315D02*
D03*
X160630Y-21929D02*
D03*
Y-25315D02*
D03*
X-15748Y-1358D02*
D03*
Y2028D02*
D03*
X59490Y46968D02*
D03*
Y43583D02*
D03*
X54568D02*
D03*
Y46968D02*
D03*
X49744Y-25866D02*
D03*
Y-29252D02*
D03*
X44744Y-25866D02*
D03*
Y-29252D02*
D03*
X39744D02*
D03*
Y-25866D02*
D03*
Y10118D02*
D03*
Y13504D02*
D03*
X64961Y30236D02*
D03*
Y26850D02*
D03*
X29528D02*
D03*
Y30236D02*
D03*
D17*
X-99902Y-3740D02*
D03*
X-96949D02*
D03*
X-98425Y-197D02*
D03*
X-89075Y-4134D02*
D03*
X-92028D02*
D03*
X-90551Y-7677D02*
D03*
X10335Y31693D02*
D03*
X13287D02*
D03*
X11811Y35236D02*
D03*
X-1476Y31693D02*
D03*
X1476D02*
D03*
X0Y35236D02*
D03*
X-13287Y31693D02*
D03*
X-10335D02*
D03*
X-11811Y35236D02*
D03*
D18*
X-15748Y-17323D02*
D03*
Y-11417D02*
D03*
D19*
X-59055Y24213D02*
D03*
Y38780D02*
D03*
X-35433Y24213D02*
D03*
Y38780D02*
D03*
D20*
X-58268Y-24606D02*
D03*
X-55118D02*
D03*
X-51968D02*
D03*
X-48819D02*
D03*
X-45669D02*
D03*
X-42520D02*
D03*
X-39370D02*
D03*
X-36220D02*
D03*
Y8858D02*
D03*
X-39370D02*
D03*
X-42520D02*
D03*
X-45669D02*
D03*
X-48819D02*
D03*
X-51968D02*
D03*
X-55118D02*
D03*
X-58268D02*
D03*
D21*
X-30512Y-18898D02*
D03*
Y-15748D02*
D03*
Y-12598D02*
D03*
Y-9449D02*
D03*
Y-6299D02*
D03*
Y-3150D02*
D03*
Y0D02*
D03*
Y3150D02*
D03*
X-63976D02*
D03*
Y0D02*
D03*
Y-3150D02*
D03*
Y-6299D02*
D03*
Y-9449D02*
D03*
Y-12598D02*
D03*
Y-15748D02*
D03*
Y-18898D02*
D03*
D22*
X0Y-7874D02*
D03*
D23*
X26240Y1122D02*
D03*
Y-16870D02*
D03*
D24*
X44744Y2756D02*
D03*
X39744D02*
D03*
X49744D02*
D03*
X54744D02*
D03*
X44744Y-18504D02*
D03*
X39744D02*
D03*
X49744D02*
D03*
X54744D02*
D03*
D25*
X58268Y31496D02*
D03*
X36220D02*
D03*
D26*
X69529Y70472D02*
D03*
X24844D02*
D03*
X-24959D02*
D03*
X-69644D02*
D03*
D27*
X54568Y59055D02*
D03*
X59490D02*
D03*
X49647D02*
D03*
X39805D02*
D03*
X44726D02*
D03*
X34883D02*
D03*
X-39920D02*
D03*
X-34998D02*
D03*
X-44841D02*
D03*
X-54684D02*
D03*
X-49762D02*
D03*
X-59605D02*
D03*
D28*
X164567Y-9646D02*
D03*
Y49409D02*
D03*
X-164567Y-9646D02*
D03*
Y49409D02*
D03*
D29*
X3150Y72638D02*
D03*
X-3150D02*
D03*
Y69095D02*
D03*
X3150D02*
D03*
D52*
X26240Y1122D02*
X33327D01*
X39744Y6437D02*
Y10118D01*
Y2756D02*
Y6437D01*
X35807Y-29252D02*
X39744D01*
X-45669Y12303D02*
Y15748D01*
Y8858D02*
Y12303D01*
X-42520Y-28051D02*
Y-24606D01*
Y-31496D02*
Y-28051D01*
X-48819D02*
Y-24606D01*
Y-31496D02*
Y-28051D01*
X-88967Y-2067D02*
Y-108D01*
Y-4026D02*
Y-2067D01*
X-100010Y-5807D02*
Y-3848D01*
Y-7766D02*
Y-5807D01*
X-54684Y24213D02*
X-35433D01*
X-59055D02*
X-54684D01*
X-67421Y-9449D02*
X-63976D01*
X-70866D02*
X-67421D01*
X51181Y31496D02*
X58268D01*
X36220D02*
X43307D01*
X39744Y-22441D02*
Y-18504D01*
Y-25866D02*
Y-22441D01*
X-67968Y-15748D02*
X-63976D01*
X-67895Y-18871D02*
X-67882Y-18884D01*
X-63990D01*
X-63976Y-18898D01*
X47244Y-25866D02*
X49744D01*
X44744D02*
X47244D01*
X-92244Y1969D02*
Y3937D01*
Y0D02*
Y1969D01*
X1693Y15748D02*
Y19685D01*
X64961Y30236D02*
X68898D01*
X54667Y43583D02*
X57718Y46634D01*
X54568Y43583D02*
X54667D01*
X57718Y46634D02*
X59155D01*
X59490Y46968D01*
Y59055D01*
X54568Y46968D02*
Y59055D01*
X54744Y-22441D02*
Y-18504D01*
X49744Y2756D02*
Y6693D01*
X44744Y2756D02*
Y6693D01*
X13504Y39370D02*
Y43307D01*
X1693Y39370D02*
Y43307D01*
X-10118Y39370D02*
Y43307D01*
X13504Y15748D02*
Y19685D01*
X-10118Y15748D02*
Y19685D01*
X-30512Y3150D02*
X-26575D01*
X-30512Y0D02*
X-26575D01*
X-30512Y-3150D02*
X-26575D01*
X-30512Y-6299D02*
X-26575D01*
X-30512Y-9449D02*
X-26575D01*
X-67913Y-12598D02*
X-63976D01*
X-36220Y8858D02*
Y12795D01*
X-55118Y8858D02*
Y12795D01*
X-70866Y-6063D02*
Y-2126D01*
X-92244Y-15748D02*
Y-11811D01*
X-96732Y3937D02*
Y7874D01*
X-92343Y-98D02*
X-92244Y0D01*
X-98425Y-197D02*
X-98327Y-98D01*
X-92343D01*
X-90748Y-7874D02*
X-90551Y-7677D01*
X-96732Y-7874D02*
X-90748D01*
X-89075Y-4134D02*
X-88967Y-4026D01*
Y-108D02*
X-88858Y0D01*
X-90551Y-7677D02*
X-88858Y-9370D01*
Y-11811D02*
Y-9370D01*
X-96732Y-11811D02*
Y-7874D01*
X-100118D02*
X-100010Y-7766D01*
Y-3848D02*
X-99902Y-3740D01*
X-100118Y1496D02*
Y3937D01*
Y1496D02*
X-98425Y-197D01*
X-70866Y-12598D02*
Y-9449D01*
X10118Y36929D02*
X11811Y35236D01*
X10118Y36929D02*
Y39370D01*
Y19685D02*
Y23622D01*
Y27559D01*
X10335Y27776D01*
Y31693D01*
X-1693Y36929D02*
X0Y35236D01*
X-1693Y36929D02*
Y39370D01*
Y19685D02*
Y23622D01*
Y27559D01*
X-1476Y27776D01*
Y31693D01*
X-13287Y27776D02*
Y31693D01*
X-13504Y27559D02*
X-13287Y27776D01*
X-13504Y23622D02*
Y27559D01*
Y19685D02*
Y23622D01*
Y36929D02*
Y39370D01*
Y36929D02*
X-11811Y35236D01*
X49744Y-25866D02*
Y-18504D01*
Y-25866D02*
X49744Y-25866D01*
X44744D02*
Y-18504D01*
X160630Y-21929D02*
X164567D01*
X168504D01*
X-164567D02*
X-160630D01*
X-168504D02*
X-164567D01*
X-6736Y72638D02*
X-3150D01*
X-7874Y71500D02*
X-6736Y72638D01*
X-7874Y64370D02*
Y71500D01*
X3150Y72638D02*
X6236D01*
X7874Y64370D02*
Y71000D01*
X6236Y72638D02*
X7874Y71000D01*
X3150Y64370D02*
Y69095D01*
X-3150Y64370D02*
Y69095D01*
D53*
X-208661Y43307D02*
D03*
Y-43307D02*
D03*
X208661D02*
D03*
Y43307D02*
D03*
D54*
X-90552Y51181D02*
D03*
X-98426D02*
D03*
X-94489D02*
D03*
X-106300D02*
D03*
X-102363D02*
D03*
X-114174D02*
D03*
X-110237D02*
D03*
X-122048D02*
D03*
X-118111D02*
D03*
X-129922D02*
D03*
X-125985D02*
D03*
X-137796D02*
D03*
X-133859D02*
D03*
X-145670D02*
D03*
X-141733D02*
D03*
X-149607D02*
D03*
X-157481D02*
D03*
X-153544D02*
D03*
X-169292D02*
D03*
X-173229D02*
D03*
X-177166D02*
D03*
X-181103D02*
D03*
X-185040D02*
D03*
X-188977D02*
D03*
X-200788D02*
D03*
X-192914D02*
D03*
X-196851D02*
D03*
X90551D02*
D03*
X94488D02*
D03*
X98425D02*
D03*
X102362D02*
D03*
X106299D02*
D03*
X110236D02*
D03*
X114173D02*
D03*
X118110D02*
D03*
X122047D02*
D03*
X125984D02*
D03*
X129921D02*
D03*
X133858D02*
D03*
X137795D02*
D03*
X141732D02*
D03*
X145669D02*
D03*
X157480D02*
D03*
X149606D02*
D03*
X153543D02*
D03*
X200787D02*
D03*
X169291D02*
D03*
X173228D02*
D03*
X177165D02*
D03*
X181102D02*
D03*
X185039D02*
D03*
X188976D02*
D03*
X192913D02*
D03*
X196850D02*
D03*
X216535Y-35433D02*
D03*
Y27559D02*
D03*
Y31496D02*
D03*
Y35433D02*
D03*
Y11811D02*
D03*
Y15748D02*
D03*
Y19685D02*
D03*
Y23622D02*
D03*
Y-3937D02*
D03*
Y0D02*
D03*
Y3937D02*
D03*
Y7874D02*
D03*
Y-19685D02*
D03*
Y-15748D02*
D03*
Y-11811D02*
D03*
Y-7874D02*
D03*
Y-31496D02*
D03*
Y-27559D02*
D03*
Y-23622D02*
D03*
X-216535Y-35433D02*
D03*
Y-23622D02*
D03*
Y-27559D02*
D03*
Y-31496D02*
D03*
Y-7874D02*
D03*
Y-11811D02*
D03*
Y-15748D02*
D03*
Y-19685D02*
D03*
Y7874D02*
D03*
Y3937D02*
D03*
Y-0D02*
D03*
Y-3937D02*
D03*
Y23622D02*
D03*
Y19685D02*
D03*
Y15748D02*
D03*
Y11811D02*
D03*
Y35433D02*
D03*
Y31496D02*
D03*
Y27559D02*
D03*
X-196850Y-51181D02*
D03*
X-192913D02*
D03*
X-188976D02*
D03*
X-200787D02*
D03*
X-122047D02*
D03*
X-118110D02*
D03*
X-114173D02*
D03*
X-137795D02*
D03*
X-133858D02*
D03*
X-129921D02*
D03*
X-125984D02*
D03*
X-153543D02*
D03*
X-149606D02*
D03*
X-145669D02*
D03*
X-141732D02*
D03*
X-169291D02*
D03*
X-165354D02*
D03*
X-161417D02*
D03*
X-157480D02*
D03*
X-185039D02*
D03*
X-181102D02*
D03*
X-177165D02*
D03*
X-173228D02*
D03*
X-47244D02*
D03*
X-43307D02*
D03*
X-39370D02*
D03*
X-62992D02*
D03*
X-59055D02*
D03*
X-55118D02*
D03*
X-51181D02*
D03*
X-78740D02*
D03*
X-74803D02*
D03*
X-70866D02*
D03*
X-66929D02*
D03*
X-94488D02*
D03*
X-90551D02*
D03*
X-86614D02*
D03*
X-82677D02*
D03*
X-110236D02*
D03*
X-106299D02*
D03*
X-102362D02*
D03*
X-98425D02*
D03*
X173228D02*
D03*
X169291D02*
D03*
X165354D02*
D03*
X188976D02*
D03*
X185039D02*
D03*
X181102D02*
D03*
X177165D02*
D03*
X200787D02*
D03*
X196850D02*
D03*
X192913D02*
D03*
X98425D02*
D03*
X94488D02*
D03*
X90551D02*
D03*
X114173D02*
D03*
X110236D02*
D03*
X106299D02*
D03*
X102362D02*
D03*
X129921D02*
D03*
X125984D02*
D03*
X122047D02*
D03*
X118110D02*
D03*
X145669D02*
D03*
X141732D02*
D03*
X137795D02*
D03*
X133858D02*
D03*
X161417D02*
D03*
X157480D02*
D03*
X153543D02*
D03*
X149606D02*
D03*
X74803D02*
D03*
X78740D02*
D03*
X82677D02*
D03*
X86614D02*
D03*
X59055D02*
D03*
X62992D02*
D03*
X66929D02*
D03*
X70866D02*
D03*
X43307D02*
D03*
X47244D02*
D03*
X51181D02*
D03*
X55118D02*
D03*
X27559D02*
D03*
X31496D02*
D03*
X35433D02*
D03*
X39370D02*
D03*
X11811D02*
D03*
X15748D02*
D03*
X19685D02*
D03*
X23622D02*
D03*
X-3937D02*
D03*
X0D02*
D03*
X3937D02*
D03*
X7874D02*
D03*
X-19685D02*
D03*
X-15748D02*
D03*
X-11811D02*
D03*
X-7874D02*
D03*
X-23622D02*
D03*
X-27559D02*
D03*
X-31496D02*
D03*
X-35433D02*
D03*
D55*
X210634Y23146D02*
D03*
X200791Y3461D02*
D03*
X210634Y-16224D02*
D03*
X181106Y42831D02*
D03*
X190949Y23146D02*
D03*
X181106Y3461D02*
D03*
X190949Y-16224D02*
D03*
X181106Y-35909D02*
D03*
X171264Y-16224D02*
D03*
X141736Y42831D02*
D03*
X151579Y23146D02*
D03*
X141736Y3461D02*
D03*
X151579Y-16224D02*
D03*
X122051Y42831D02*
D03*
X131894Y23146D02*
D03*
X122051Y3461D02*
D03*
X131894Y-16224D02*
D03*
X102366Y42831D02*
D03*
X112209Y23146D02*
D03*
X102366Y3461D02*
D03*
X112209Y-16224D02*
D03*
X82681Y42831D02*
D03*
X92524Y23146D02*
D03*
X82681Y3461D02*
D03*
X92524Y-16224D02*
D03*
X72839Y62516D02*
D03*
X62996Y42831D02*
D03*
X72839Y23146D02*
D03*
X62996Y3461D02*
D03*
X72839Y-16224D02*
D03*
X23626Y42831D02*
D03*
X33468Y23146D02*
D03*
Y-16224D02*
D03*
X13783Y62516D02*
D03*
Y-16224D02*
D03*
X-5902Y62516D02*
D03*
X-15744Y42831D02*
D03*
X-5902Y23146D02*
D03*
X-25587Y62516D02*
D03*
Y23146D02*
D03*
Y-16224D02*
D03*
X-55114Y3461D02*
D03*
X-45272Y-16224D02*
D03*
X-64957Y62516D02*
D03*
X-74799Y42831D02*
D03*
X-64957Y23146D02*
D03*
X-74799Y3461D02*
D03*
X-94484Y42831D02*
D03*
X-84642Y23146D02*
D03*
X-94484Y-35909D02*
D03*
X-114169Y42831D02*
D03*
X-104327Y23146D02*
D03*
X-114169Y3461D02*
D03*
X-104327Y-16224D02*
D03*
X-114169Y-35909D02*
D03*
X-133854Y42831D02*
D03*
X-124012Y23146D02*
D03*
X-133854Y3461D02*
D03*
X-124012Y-16224D02*
D03*
X-133854Y-35909D02*
D03*
X-153539Y42831D02*
D03*
X-143697Y23146D02*
D03*
X-153539Y3461D02*
D03*
X-143697Y-16224D02*
D03*
X-153539Y-35909D02*
D03*
X-173224Y42831D02*
D03*
Y-35909D02*
D03*
X-192909Y42831D02*
D03*
X-183067Y23146D02*
D03*
X-192909Y3461D02*
D03*
X-183067Y-16224D02*
D03*
X-192909Y-35909D02*
D03*
X-202752Y23146D02*
D03*
X-212595Y3461D02*
D03*
X-202752Y-16224D02*
D03*
X-12992Y-7500D02*
D03*
Y-28051D02*
D03*
X33327Y1122D02*
D03*
X-12992Y-3500D02*
D03*
X35807Y-29252D02*
D03*
X-54684Y24213D02*
D03*
X51181Y31496D02*
D03*
X43307D02*
D03*
X-67968Y-15748D02*
D03*
X-67895Y-18871D02*
D03*
X1693Y15748D02*
D03*
X68898Y30236D02*
D03*
X54744Y-22441D02*
D03*
X49744Y6693D02*
D03*
X44744D02*
D03*
X39744Y-22441D02*
D03*
X47244Y-25866D02*
D03*
X39744Y6437D02*
D03*
X13504Y43307D02*
D03*
X1693D02*
D03*
X-10118D02*
D03*
X13504Y15748D02*
D03*
X-10118D02*
D03*
X-26575Y3150D02*
D03*
Y0D02*
D03*
Y-3150D02*
D03*
Y-6299D02*
D03*
Y-9449D02*
D03*
X-67913Y-12598D02*
D03*
X-36220Y12795D02*
D03*
X-55118D02*
D03*
X-45669Y12303D02*
D03*
X-42520Y-28051D02*
D03*
X-48819D02*
D03*
X-67421Y-9449D02*
D03*
X-70866Y-2126D02*
D03*
X-92244Y-15748D02*
D03*
X-96732Y7874D02*
D03*
X-88967Y-2067D02*
D03*
X-92244Y1969D02*
D03*
X-100010Y-5807D02*
D03*
X164567Y-21929D02*
D03*
X-164567D02*
D03*
X59490Y66929D02*
D03*
X49647D02*
D03*
X44726D02*
D03*
X7874Y64370D02*
D03*
X-7874D02*
D03*
X3150D02*
D03*
X-3150D02*
D03*
X-34998Y66929D02*
D03*
X-39920D02*
D03*
X-44841D02*
D03*
X-49762D02*
D03*
X-54684D02*
D03*
M02*
