G04*
G04 #@! TF.GenerationSoftware,Altium Limited,Altium Designer,23.3.1 (30)*
G04*
G04 Layer_Color=32896*
%FSLAX25Y25*%
%MOIN*%
G70*
G04*
G04 #@! TF.SameCoordinates,AEED621E-3CD5-435C-AC93-41C8B311E913*
G04*
G04*
G04 #@! TF.FilePolarity,Positive*
G04*
G01*
G75*
G36*
X98425Y-19685D02*
X-98425D01*
Y19685D01*
X98425D01*
Y-19685D01*
D02*
G37*
G36*
X62992Y76772D02*
Y68898D01*
X31496D01*
Y76772D01*
X62992D01*
D02*
G37*
G36*
X-31496Y68898D02*
X-62992D01*
Y76772D01*
X-31496D01*
Y68898D01*
D02*
G37*
%LPC*%
G36*
X33862Y6541D02*
X33643D01*
D01*
D01*
D01*
X28669D01*
X33643D01*
X33479Y6523D01*
X33279Y6504D01*
X33042Y6486D01*
X32805Y6450D01*
X32532Y6413D01*
X31949Y6286D01*
X31657Y6195D01*
X31366Y6104D01*
X31074Y5976D01*
X30801Y5830D01*
X30546Y5666D01*
X30309Y5484D01*
X30291Y5466D01*
X30254Y5429D01*
X30200Y5375D01*
X30127Y5302D01*
X30036Y5193D01*
X29926Y5065D01*
X29817Y4919D01*
X29689Y4755D01*
X29580Y4555D01*
X29471Y4355D01*
X29362Y4118D01*
X29270Y3863D01*
X29179Y3607D01*
X29107Y3316D01*
X29052Y3025D01*
X29034Y2696D01*
X31584Y2606D01*
Y2624D01*
Y2642D01*
X31621Y2769D01*
X31657Y2933D01*
X31730Y3134D01*
X31821Y3371D01*
X31949Y3589D01*
X32113Y3808D01*
X32295Y3990D01*
X32313Y4008D01*
X32386Y4063D01*
X32514Y4136D01*
X32696Y4209D01*
X32914Y4282D01*
X33188Y4355D01*
X33516Y4409D01*
X33898Y4428D01*
X34080D01*
X34281Y4409D01*
X34518Y4373D01*
X34791Y4318D01*
X35083Y4227D01*
X35356Y4118D01*
X35611Y3954D01*
X35629Y3935D01*
X35666Y3899D01*
X35739Y3844D01*
X35811Y3753D01*
X35884Y3644D01*
X35957Y3498D01*
X35994Y3353D01*
X36012Y3170D01*
Y3152D01*
Y3097D01*
X35994Y3006D01*
X35957Y2915D01*
X35921Y2788D01*
X35866Y2660D01*
X35775Y2533D01*
X35647Y2405D01*
X35629Y2387D01*
X35538Y2332D01*
X35483Y2296D01*
X35392Y2259D01*
X35301Y2205D01*
X35174Y2150D01*
X35028Y2095D01*
X34864Y2022D01*
X34664Y1949D01*
X34463Y1877D01*
X34208Y1804D01*
X33935Y1731D01*
X33643Y1658D01*
X33315Y1567D01*
X33297D01*
X33224Y1549D01*
X33133Y1531D01*
X33005Y1494D01*
X32860Y1458D01*
X32678Y1403D01*
X32477Y1348D01*
X32277Y1294D01*
X31839Y1148D01*
X31384Y1002D01*
X30947Y838D01*
X30764Y747D01*
X30582Y656D01*
X30564D01*
X30546Y638D01*
X30437Y565D01*
X30272Y455D01*
X30072Y310D01*
X29853Y128D01*
X29617Y-91D01*
X29380Y-346D01*
X29179Y-638D01*
X29161Y-674D01*
X29107Y-783D01*
X29015Y-948D01*
X28924Y-1184D01*
X28833Y-1476D01*
X28742Y-1822D01*
X28687Y-2205D01*
X28669Y-2642D01*
Y-2824D01*
X28687Y-2915D01*
X28706Y-3043D01*
X28742Y-3298D01*
X28815Y-3626D01*
X28924Y-3972D01*
X29088Y-4318D01*
X29289Y-4682D01*
Y-4701D01*
X29325Y-4719D01*
X29398Y-4828D01*
X29544Y-5011D01*
X29726Y-5211D01*
X29963Y-5448D01*
X30272Y-5666D01*
X30601Y-5885D01*
X31001Y-6086D01*
X31019D01*
X31056Y-6104D01*
X31111Y-6122D01*
X31202Y-6158D01*
X31311Y-6195D01*
X31439Y-6231D01*
X31584Y-6268D01*
X31748Y-6304D01*
X31949Y-6359D01*
X32149Y-6395D01*
X32623Y-6468D01*
X33151Y-6523D01*
X33734Y-6541D01*
X33971D01*
X34135Y-6523D01*
X34336Y-6505D01*
X34554Y-6486D01*
X34809Y-6450D01*
X35083Y-6395D01*
X35684Y-6268D01*
X35994Y-6177D01*
X36285Y-6086D01*
X36595Y-5958D01*
X36886Y-5812D01*
X37160Y-5648D01*
X37415Y-5448D01*
X37433Y-5430D01*
X37469Y-5393D01*
X37542Y-5339D01*
X37615Y-5247D01*
X37725Y-5120D01*
X37834Y-4974D01*
X37961Y-4810D01*
X38089Y-4628D01*
X38216Y-4409D01*
X38344Y-4172D01*
X38471Y-3899D01*
X38599Y-3608D01*
X38690Y-3298D01*
X38800Y-2952D01*
X38872Y-2587D01*
X38927Y-2205D01*
X36449Y-1968D01*
Y-1986D01*
X36431Y-2022D01*
Y-2095D01*
X36413Y-2168D01*
X36340Y-2387D01*
X36249Y-2660D01*
X36139Y-2970D01*
X35975Y-3280D01*
X35793Y-3553D01*
X35556Y-3808D01*
X35520Y-3826D01*
X35429Y-3899D01*
X35283Y-3990D01*
X35064Y-4100D01*
X34791Y-4209D01*
X34481Y-4300D01*
X34117Y-4373D01*
X33698Y-4391D01*
X33498D01*
X33279Y-4355D01*
X33005Y-4318D01*
X32714Y-4264D01*
X32404Y-4172D01*
X32113Y-4045D01*
X31858Y-3881D01*
X31821Y-3863D01*
X31748Y-3790D01*
X31657Y-3680D01*
X31530Y-3535D01*
X31420Y-3353D01*
X31311Y-3134D01*
X31238Y-2915D01*
X31220Y-2660D01*
Y-2642D01*
Y-2587D01*
X31238Y-2496D01*
X31256Y-2387D01*
X31293Y-2277D01*
X31329Y-2150D01*
X31402Y-2022D01*
X31493Y-1895D01*
X31512Y-1877D01*
X31548Y-1840D01*
X31603Y-1786D01*
X31694Y-1713D01*
X31821Y-1622D01*
X31985Y-1531D01*
X32167Y-1439D01*
X32404Y-1348D01*
X32423D01*
X32495Y-1312D01*
X32623Y-1275D01*
X32714Y-1239D01*
X32823Y-1221D01*
X32951Y-1184D01*
X33097Y-1130D01*
X33261Y-1093D01*
X33443Y-1039D01*
X33661Y-984D01*
X33898Y-929D01*
X34153Y-856D01*
X34445Y-783D01*
X34463D01*
X34536Y-765D01*
X34645Y-729D01*
X34773Y-692D01*
X34937Y-638D01*
X35137Y-583D01*
X35338Y-510D01*
X35574Y-437D01*
X36048Y-255D01*
X36504Y-36D01*
X36741Y73D01*
X36941Y200D01*
X37141Y328D01*
X37306Y455D01*
X37324Y474D01*
X37360Y510D01*
X37415Y565D01*
X37488Y638D01*
X37579Y747D01*
X37670Y874D01*
X37779Y1002D01*
X37870Y1166D01*
X38089Y1549D01*
X38271Y1986D01*
X38344Y2223D01*
X38399Y2460D01*
X38435Y2733D01*
X38453Y3006D01*
Y3025D01*
Y3043D01*
Y3097D01*
Y3170D01*
X38417Y3353D01*
X38380Y3589D01*
X38326Y3863D01*
X38235Y4172D01*
X38107Y4500D01*
X37925Y4810D01*
Y4828D01*
X37907Y4846D01*
X37816Y4956D01*
X37706Y5102D01*
X37524Y5284D01*
X37306Y5484D01*
X37032Y5703D01*
X36722Y5903D01*
X36358Y6086D01*
X36340D01*
X36303Y6104D01*
X36249Y6122D01*
X36176Y6158D01*
X36066Y6195D01*
X35957Y6231D01*
X35811Y6268D01*
X35647Y6322D01*
X35283Y6395D01*
X34864Y6468D01*
X34390Y6523D01*
X33862Y6541D01*
D02*
G37*
G36*
X-20379Y6304D02*
X-29325D01*
X-22802D01*
Y1767D01*
X-22821Y1785D01*
X-22857Y1822D01*
X-22912Y1877D01*
X-23003Y1968D01*
X-23112Y2059D01*
X-23240Y2168D01*
X-23385Y2296D01*
X-23549Y2405D01*
X-23932Y2642D01*
X-24387Y2842D01*
X-24624Y2933D01*
X-24898Y2988D01*
X-25171Y3025D01*
X-25444Y3043D01*
X-25608D01*
X-25717Y3025D01*
X-25863Y3006D01*
X-26027Y2970D01*
X-26210Y2933D01*
X-26428Y2897D01*
X-26865Y2751D01*
X-27084Y2642D01*
X-27321Y2533D01*
X-27558Y2387D01*
X-27776Y2223D01*
X-27995Y2041D01*
X-28214Y1822D01*
X-28232Y1804D01*
X-28268Y1767D01*
X-28323Y1694D01*
X-28396Y1603D01*
X-28469Y1476D01*
X-28560Y1330D01*
X-28669Y1148D01*
X-28778Y947D01*
X-28870Y711D01*
X-28979Y455D01*
X-29070Y164D01*
X-29161Y-146D01*
X-29216Y-474D01*
X-29270Y-838D01*
X-29307Y-1221D01*
X-29325Y-1640D01*
Y-6505D01*
Y-1859D01*
X-29307Y-2022D01*
X-29289Y-2223D01*
X-29270Y-2441D01*
X-29234Y-2697D01*
X-29179Y-2970D01*
X-29052Y-3553D01*
X-28961Y-3844D01*
X-28851Y-4154D01*
X-28724Y-4446D01*
X-28560Y-4737D01*
X-28396Y-4992D01*
X-28195Y-5247D01*
X-28177Y-5266D01*
X-28141Y-5302D01*
X-28086Y-5357D01*
X-27995Y-5448D01*
X-27886Y-5539D01*
X-27758Y-5648D01*
X-27612Y-5757D01*
X-27448Y-5867D01*
X-27248Y-5994D01*
X-27048Y-6104D01*
X-26574Y-6304D01*
X-26319Y-6395D01*
X-26064Y-6450D01*
X-25772Y-6486D01*
X-25481Y-6505D01*
X-25353D01*
X-25189Y-6486D01*
X-24989Y-6450D01*
X-24752Y-6414D01*
X-24497Y-6341D01*
X-24224Y-6250D01*
X-23932Y-6122D01*
X-23896Y-6104D01*
X-23804Y-6049D01*
X-23659Y-5958D01*
X-23476Y-5830D01*
X-23276Y-5666D01*
X-23057Y-5484D01*
X-22839Y-5247D01*
X-22620Y-4974D01*
Y-6304D01*
X-20379D01*
Y6304D01*
D02*
G37*
G36*
X-13911Y3043D02*
X-14512D01*
X-14640Y3025D01*
X-14785D01*
X-15150Y2988D01*
X-15533Y2952D01*
X-15933Y2879D01*
X-16316Y2769D01*
X-16480Y2715D01*
X-16644Y2642D01*
X-16662D01*
X-16680Y2624D01*
X-16771Y2569D01*
X-16917Y2496D01*
X-17081Y2387D01*
X-17282Y2241D01*
X-17464Y2077D01*
X-17628Y1877D01*
X-17774Y1676D01*
X-17792Y1640D01*
X-17828Y1567D01*
X-17883Y1403D01*
X-17901Y1312D01*
X-17938Y1184D01*
X-17974Y1057D01*
X-17992Y893D01*
X-18029Y711D01*
X-18047Y510D01*
X-18065Y292D01*
X-18083Y55D01*
X-18102Y-200D01*
Y-492D01*
X-18065Y-3316D01*
Y-3334D01*
Y-3371D01*
Y-3425D01*
Y-3517D01*
Y-3735D01*
X-18083Y-3990D01*
Y-4282D01*
X-18120Y-4573D01*
X-18138Y-4865D01*
X-18174Y-5102D01*
Y-5120D01*
X-18193Y-5193D01*
X-18229Y-5320D01*
X-18266Y-5466D01*
X-18338Y-5648D01*
X-18411Y-5849D01*
X-18502Y-6067D01*
X-18612Y-6304D01*
X-16225D01*
Y-6286D01*
X-16207Y-6268D01*
X-16188Y-6195D01*
X-16152Y-6122D01*
X-16116Y-6031D01*
X-16079Y-5903D01*
X-16043Y-5757D01*
X-15988Y-5594D01*
Y-5575D01*
X-15970Y-5557D01*
X-15952Y-5484D01*
X-15915Y-5393D01*
X-15897Y-5320D01*
X-15860Y-5339D01*
X-15788Y-5411D01*
X-15660Y-5521D01*
X-15496Y-5648D01*
X-15296Y-5794D01*
X-15077Y-5958D01*
X-14822Y-6086D01*
X-14567Y-6213D01*
X-14530Y-6231D01*
X-14439Y-6250D01*
X-14294Y-6304D01*
X-14111Y-6359D01*
X-13893Y-6414D01*
X-13638Y-6450D01*
X-13346Y-6486D01*
X-13055Y-6505D01*
X-18612D01*
X-12927D01*
X-12818Y-6486D01*
X-12709D01*
X-12563Y-6468D01*
X-12253Y-6414D01*
X-11889Y-6322D01*
X-11524Y-6195D01*
X-11160Y-6013D01*
X-10832Y-5757D01*
Y-5739D01*
X-10795Y-5721D01*
X-10704Y-5612D01*
X-10577Y-5448D01*
X-10431Y-5229D01*
X-10285Y-4956D01*
X-10158Y-4628D01*
X-10067Y-4245D01*
X-10048Y-4045D01*
X-10030Y-3826D01*
Y-3699D01*
X-10048Y-3553D01*
X-10085Y-3371D01*
X-10121Y-3152D01*
X-10176Y-2933D01*
X-10267Y-2697D01*
X-10395Y-2460D01*
X-10413Y-2423D01*
X-10467Y-2350D01*
X-10540Y-2241D01*
X-10668Y-2114D01*
X-10795Y-1968D01*
X-10977Y-1804D01*
X-11178Y-1658D01*
X-11415Y-1531D01*
X-11451Y-1512D01*
X-11542Y-1476D01*
X-11688Y-1421D01*
X-11907Y-1330D01*
X-12180Y-1239D01*
X-12508Y-1148D01*
X-12909Y-1057D01*
X-13346Y-966D01*
X-13364D01*
X-13419Y-948D01*
X-13510Y-929D01*
X-13620Y-911D01*
X-13765Y-893D01*
X-13929Y-856D01*
X-14294Y-765D01*
X-14676Y-674D01*
X-15077Y-583D01*
X-15423Y-474D01*
X-15587Y-419D01*
X-15715Y-364D01*
Y-128D01*
Y-91D01*
Y-18D01*
X-15697Y109D01*
X-15678Y273D01*
X-15624Y437D01*
X-15569Y601D01*
X-15478Y747D01*
X-15350Y874D01*
X-15332Y893D01*
X-15278Y929D01*
X-15186Y966D01*
X-15059Y1039D01*
X-14877Y1093D01*
X-14658Y1130D01*
X-14385Y1166D01*
X-14057Y1184D01*
X-13947D01*
X-13838Y1166D01*
X-13692Y1148D01*
X-13528Y1111D01*
X-13346Y1075D01*
X-13182Y1002D01*
X-13036Y911D01*
X-13018Y893D01*
X-12982Y856D01*
X-12909Y802D01*
X-12836Y711D01*
X-12727Y583D01*
X-12636Y419D01*
X-12544Y237D01*
X-12453Y18D01*
X-10285Y419D01*
Y437D01*
X-10303Y474D01*
X-10322Y547D01*
X-10358Y638D01*
X-10395Y747D01*
X-10449Y874D01*
X-10577Y1166D01*
X-10759Y1476D01*
X-10977Y1804D01*
X-11233Y2114D01*
X-11542Y2387D01*
X-11561D01*
X-11579Y2423D01*
X-11633Y2441D01*
X-11706Y2496D01*
X-11816Y2533D01*
X-11925Y2587D01*
X-12071Y2660D01*
X-12217Y2715D01*
X-12399Y2769D01*
X-12599Y2842D01*
X-12818Y2897D01*
X-13073Y2933D01*
X-13328Y2988D01*
X-13620Y3006D01*
X-13911Y3043D01*
D02*
G37*
G36*
X-30400D02*
X-38927D01*
X-34882D01*
X-35028Y3025D01*
X-35210Y3006D01*
X-35411Y2988D01*
X-35629Y2970D01*
X-36085Y2897D01*
X-36540Y2788D01*
X-36977Y2624D01*
X-37178Y2533D01*
X-37360Y2423D01*
X-37378D01*
X-37397Y2387D01*
X-37506Y2314D01*
X-37670Y2168D01*
X-37852Y1968D01*
X-38071Y1731D01*
X-38271Y1421D01*
X-38471Y1057D01*
X-38617Y638D01*
X-36340Y219D01*
Y237D01*
X-36303Y310D01*
X-36267Y401D01*
X-36212Y510D01*
X-36139Y656D01*
X-36030Y783D01*
X-35921Y911D01*
X-35775Y1020D01*
X-35757Y1039D01*
X-35702Y1075D01*
X-35611Y1111D01*
X-35483Y1166D01*
X-35320Y1221D01*
X-35119Y1275D01*
X-34882Y1294D01*
X-34609Y1312D01*
X-34445D01*
X-34281Y1294D01*
X-34080Y1275D01*
X-33844Y1239D01*
X-33625Y1202D01*
X-33425Y1130D01*
X-33242Y1039D01*
X-33224D01*
X-33206Y1002D01*
X-33115Y911D01*
X-33005Y747D01*
X-32987Y656D01*
X-32969Y547D01*
Y528D01*
Y510D01*
X-33005Y401D01*
X-33078Y255D01*
X-33133Y182D01*
X-33206Y109D01*
X-33224Y91D01*
X-33297Y73D01*
X-33334Y36D01*
X-33406Y18D01*
X-33498Y-18D01*
X-33607Y-73D01*
X-33753Y-109D01*
X-33898Y-164D01*
X-34080Y-219D01*
X-34299Y-273D01*
X-34536Y-346D01*
X-34809Y-419D01*
X-35119Y-492D01*
X-35465Y-583D01*
X-35483D01*
X-35556Y-601D01*
X-35647Y-619D01*
X-35775Y-656D01*
X-35939Y-711D01*
X-36121Y-747D01*
X-36522Y-875D01*
X-36977Y-1039D01*
X-37415Y-1221D01*
X-37633Y-1330D01*
X-37834Y-1421D01*
X-37998Y-1549D01*
X-38162Y-1658D01*
X-38198Y-1695D01*
X-38289Y-1767D01*
X-38399Y-1913D01*
X-38544Y-2114D01*
X-38690Y-2369D01*
X-38800Y-2678D01*
X-38891Y-3043D01*
X-38927Y-3444D01*
D01*
D01*
Y-6505D01*
Y-3571D01*
X-38909Y-3662D01*
X-38891Y-3753D01*
X-38872Y-3881D01*
X-38800Y-4191D01*
X-38672Y-4519D01*
X-38581Y-4701D01*
X-38490Y-4883D01*
X-38362Y-5065D01*
X-38216Y-5247D01*
X-38052Y-5430D01*
X-37870Y-5612D01*
X-37852Y-5630D01*
X-37816Y-5648D01*
X-37761Y-5685D01*
X-37670Y-5757D01*
X-37560Y-5812D01*
X-37433Y-5885D01*
X-37269Y-5976D01*
X-37087Y-6049D01*
X-36886Y-6140D01*
X-36650Y-6213D01*
X-36395Y-6304D01*
X-36121Y-6359D01*
X-35811Y-6414D01*
X-35483Y-6468D01*
X-35137Y-6486D01*
X-34773Y-6505D01*
X-34591D01*
X-34463Y-6486D01*
X-34299D01*
X-34117Y-6468D01*
X-33917Y-6450D01*
X-33698Y-6414D01*
X-33224Y-6322D01*
X-32732Y-6195D01*
X-32240Y-6013D01*
X-32022Y-5885D01*
X-31803Y-5757D01*
X-31785Y-5739D01*
X-31748Y-5721D01*
X-31694Y-5685D01*
X-31639Y-5612D01*
X-31439Y-5448D01*
X-31220Y-5211D01*
X-30983Y-4919D01*
X-30764Y-4573D01*
X-30564Y-4154D01*
X-30400Y-3699D01*
X-32823Y-3334D01*
Y-3371D01*
X-32860Y-3444D01*
X-32896Y-3571D01*
X-32951Y-3735D01*
X-33042Y-3917D01*
X-33151Y-4081D01*
X-33279Y-4264D01*
X-33443Y-4409D01*
X-33461Y-4428D01*
X-33534Y-4464D01*
X-33643Y-4519D01*
X-33789Y-4573D01*
X-33971Y-4646D01*
X-34208Y-4701D01*
X-34463Y-4737D01*
X-34773Y-4755D01*
X-34919D01*
X-35101Y-4737D01*
X-35301Y-4719D01*
X-35520Y-4683D01*
X-35757Y-4610D01*
X-35975Y-4537D01*
X-36176Y-4428D01*
X-36194Y-4409D01*
X-36230Y-4373D01*
X-36285Y-4318D01*
X-36340Y-4245D01*
X-36395Y-4154D01*
X-36449Y-4045D01*
X-36486Y-3917D01*
X-36504Y-3772D01*
Y-3753D01*
Y-3717D01*
X-36486Y-3608D01*
X-36431Y-3462D01*
X-36322Y-3316D01*
X-36285Y-3280D01*
X-36230Y-3261D01*
X-36158Y-3207D01*
X-36048Y-3170D01*
X-35903Y-3116D01*
X-35739Y-3061D01*
X-35520Y-3006D01*
X-35483D01*
X-35392Y-2970D01*
X-35247Y-2933D01*
X-35046Y-2897D01*
X-34809Y-2842D01*
X-34554Y-2770D01*
X-34263Y-2697D01*
X-33953Y-2606D01*
X-33315Y-2423D01*
X-33005Y-2332D01*
X-32714Y-2223D01*
X-32441Y-2132D01*
X-32186Y-2022D01*
X-31967Y-1913D01*
X-31803Y-1822D01*
X-31785Y-1804D01*
X-31748Y-1786D01*
X-31712Y-1749D01*
X-31639Y-1676D01*
X-31457Y-1512D01*
X-31275Y-1275D01*
X-31074Y-984D01*
X-30892Y-638D01*
X-30819Y-437D01*
X-30783Y-219D01*
X-30746Y-0D01*
X-30728Y237D01*
Y255D01*
Y292D01*
Y346D01*
X-30746Y437D01*
X-30764Y528D01*
X-30783Y656D01*
X-30837Y929D01*
X-30947Y1239D01*
X-31129Y1567D01*
X-31220Y1749D01*
X-31348Y1913D01*
X-31493Y2077D01*
X-31657Y2223D01*
X-31675Y2241D01*
X-31694Y2259D01*
X-31748Y2296D01*
X-31839Y2350D01*
X-31931Y2405D01*
X-32058Y2478D01*
X-32204Y2551D01*
X-32368Y2642D01*
X-32568Y2715D01*
X-32787Y2788D01*
X-33024Y2860D01*
X-33279Y2915D01*
X-33570Y2970D01*
X-33880Y3006D01*
X-34208Y3043D01*
X-30400D01*
D02*
G37*
G36*
X27394Y6304D02*
X17391D01*
Y-6304D01*
Y4172D01*
X21108D01*
Y-6304D01*
X17391D01*
X27394D01*
X23659D01*
Y4172D01*
X27394D01*
Y6304D01*
D02*
G37*
G36*
X15733D02*
X7079Y6304D01*
Y-6304D01*
Y4172D01*
X13182Y4172D01*
Y1184D01*
X7917Y1184D01*
Y-948D01*
X13182Y-948D01*
Y-6304D01*
X15733D01*
Y6304D01*
D02*
G37*
G36*
X9Y6213D02*
X-8882D01*
X-2542D01*
Y-4172D01*
X-8882D01*
Y-6304D01*
X9D01*
Y6213D01*
D02*
G37*
%LPD*%
G36*
X-24661Y1166D02*
X-24497Y1148D01*
X-24296Y1093D01*
X-24059Y1020D01*
X-23804Y893D01*
X-23568Y729D01*
X-23331Y510D01*
X-23313Y474D01*
X-23240Y383D01*
X-23148Y219D01*
X-23057Y-0D01*
X-22948Y-292D01*
X-22857Y-638D01*
X-22784Y-1057D01*
X-22766Y-1549D01*
Y-1567D01*
Y-1603D01*
Y-1676D01*
Y-1786D01*
X-22784Y-1895D01*
Y-2041D01*
X-22821Y-2350D01*
X-22875Y-2678D01*
X-22948Y-3025D01*
X-23057Y-3353D01*
X-23203Y-3644D01*
Y-3662D01*
X-23240Y-3681D01*
X-23313Y-3790D01*
X-23458Y-3935D01*
X-23659Y-4118D01*
X-23896Y-4300D01*
X-24187Y-4446D01*
X-24515Y-4555D01*
X-24697Y-4573D01*
X-24898Y-4592D01*
X-24934D01*
X-25025Y-4573D01*
X-25189Y-4555D01*
X-25371Y-4500D01*
X-25590Y-4428D01*
X-25809Y-4300D01*
X-26046Y-4136D01*
X-26264Y-3917D01*
X-26282Y-3881D01*
X-26355Y-3790D01*
X-26446Y-3626D01*
X-26556Y-3389D01*
X-26665Y-3097D01*
X-26756Y-2733D01*
X-26792Y-2514D01*
X-26829Y-2277D01*
X-26847Y-2041D01*
Y-1767D01*
Y-1749D01*
Y-1695D01*
Y-1622D01*
Y-1512D01*
X-26829Y-1385D01*
X-26811Y-1239D01*
X-26774Y-893D01*
X-26701Y-528D01*
X-26610Y-146D01*
X-26465Y200D01*
X-26373Y346D01*
X-26264Y492D01*
X-26246Y528D01*
X-26155Y601D01*
X-26046Y711D01*
X-25863Y838D01*
X-25663Y966D01*
X-25408Y1075D01*
X-25135Y1148D01*
X-24806Y1184D01*
X-24770D01*
X-24661Y1166D01*
D02*
G37*
G36*
X-15624Y-1968D02*
X-15514Y-1986D01*
X-15350Y-2041D01*
X-15150Y-2095D01*
X-14877Y-2168D01*
X-14585Y-2241D01*
X-14221Y-2314D01*
X-14184D01*
X-14130Y-2332D01*
X-14057Y-2350D01*
X-13893Y-2387D01*
X-13674Y-2441D01*
X-13455Y-2496D01*
X-13237Y-2569D01*
X-13055Y-2660D01*
X-12909Y-2733D01*
X-12891Y-2751D01*
X-12836Y-2788D01*
X-12763Y-2861D01*
X-12690Y-2952D01*
X-12599Y-3079D01*
X-12526Y-3225D01*
X-12472Y-3389D01*
X-12453Y-3571D01*
Y-3589D01*
Y-3662D01*
X-12472Y-3753D01*
X-12508Y-3863D01*
X-12544Y-4008D01*
X-12599Y-4154D01*
X-12690Y-4300D01*
X-12818Y-4446D01*
X-12836Y-4464D01*
X-12891Y-4500D01*
X-12964Y-4555D01*
X-13091Y-4628D01*
X-13219Y-4701D01*
X-13383Y-4755D01*
X-13583Y-4792D01*
X-13783Y-4810D01*
X-13893D01*
X-14020Y-4792D01*
X-14184Y-4755D01*
X-14385Y-4701D01*
X-14585Y-4628D01*
X-14822Y-4537D01*
X-15041Y-4391D01*
X-15059Y-4373D01*
X-15113Y-4336D01*
X-15186Y-4264D01*
X-15278Y-4172D01*
X-15369Y-4045D01*
X-15460Y-3917D01*
X-15551Y-3753D01*
X-15605Y-3589D01*
Y-3571D01*
X-15624Y-3535D01*
X-15642Y-3444D01*
X-15660Y-3334D01*
X-15678Y-3170D01*
X-15697Y-2970D01*
X-15715Y-2715D01*
Y-2423D01*
Y-1931D01*
X-15697D01*
X-15624Y-1968D01*
D02*
G37*
%LPC*%
G36*
X43741Y74061D02*
X42157D01*
Y73610D01*
X43071D01*
X43147Y73180D01*
X43144D01*
X43140Y73184D01*
X43118Y73195D01*
X43085Y73206D01*
X43045Y73224D01*
X42994Y73239D01*
X42940Y73250D01*
X42878Y73260D01*
X42816Y73264D01*
X42783D01*
X42761Y73260D01*
X42736Y73257D01*
X42703Y73253D01*
X42667Y73246D01*
X42627Y73235D01*
X42543Y73206D01*
X42496Y73188D01*
X42452Y73166D01*
X42405Y73137D01*
X42357Y73104D01*
X42314Y73068D01*
X42270Y73028D01*
X42266Y73024D01*
X42259Y73017D01*
X42248Y73002D01*
X42234Y72984D01*
X42219Y72962D01*
X42197Y72933D01*
X42179Y72900D01*
X42157Y72864D01*
X42135Y72824D01*
X42117Y72776D01*
X42095Y72725D01*
X42081Y72675D01*
X42066Y72616D01*
X42055Y72554D01*
X42048Y72489D01*
X42044Y72420D01*
Y72391D01*
X42048Y72369D01*
Y72340D01*
X42055Y72307D01*
X42059Y72271D01*
X42066Y72234D01*
X42088Y72147D01*
X42121Y72052D01*
X42143Y72001D01*
X42164Y71954D01*
X42194Y71906D01*
X42226Y71859D01*
X42230Y71855D01*
X42237Y71845D01*
X42252Y71830D01*
X42270Y71808D01*
X42296Y71783D01*
X42328Y71754D01*
X42365Y71724D01*
X42405Y71695D01*
X42452Y71663D01*
X42503Y71633D01*
X42558Y71604D01*
X42619Y71579D01*
X42685Y71557D01*
X42754Y71542D01*
X42831Y71531D01*
X42911Y71528D01*
X42943D01*
D01*
X43741D01*
Y71575D01*
Y71528D01*
X42943D01*
X42969Y71531D01*
X42998Y71535D01*
X43034Y71539D01*
X43071Y71542D01*
X43115Y71550D01*
X43202Y71572D01*
X43300Y71608D01*
X43347Y71626D01*
X43395Y71652D01*
X43439Y71681D01*
X43482Y71714D01*
X43486Y71717D01*
X43493Y71721D01*
X43504Y71732D01*
X43518Y71746D01*
X43533Y71768D01*
X43555Y71790D01*
X43573Y71815D01*
X43595Y71845D01*
X43620Y71881D01*
X43642Y71917D01*
X43682Y72005D01*
X43719Y72103D01*
X43730Y72158D01*
X43741Y72216D01*
X43260Y72267D01*
Y72259D01*
X43257Y72241D01*
X43249Y72209D01*
X43238Y72172D01*
X43224Y72132D01*
X43202Y72088D01*
X43173Y72048D01*
X43140Y72008D01*
X43136Y72005D01*
X43122Y71994D01*
X43100Y71979D01*
X43071Y71961D01*
X43038Y71943D01*
X42998Y71928D01*
X42951Y71917D01*
X42903Y71914D01*
X42896D01*
X42878Y71917D01*
X42849Y71921D01*
X42812Y71928D01*
X42772Y71943D01*
X42729Y71965D01*
X42685Y71997D01*
X42645Y72038D01*
X42641Y72045D01*
X42627Y72059D01*
X42612Y72088D01*
X42590Y72132D01*
X42572Y72183D01*
X42554Y72245D01*
X42543Y72321D01*
X42539Y72409D01*
Y72412D01*
Y72420D01*
Y72431D01*
Y72449D01*
X42543Y72489D01*
X42554Y72540D01*
X42565Y72598D01*
X42583Y72656D01*
X42608Y72711D01*
X42645Y72758D01*
X42649Y72762D01*
X42663Y72776D01*
X42689Y72795D01*
X42718Y72820D01*
X42758Y72842D01*
X42805Y72860D01*
X42860Y72875D01*
X42918Y72878D01*
X42940D01*
X42954Y72875D01*
X42991Y72867D01*
X43042Y72856D01*
X43100Y72835D01*
X43162Y72802D01*
X43195Y72780D01*
X43227Y72755D01*
X43260Y72725D01*
X43293Y72693D01*
X43682Y72747D01*
X43435Y74061D01*
X43741D01*
D02*
G37*
G36*
X46656Y74105D02*
X46248D01*
Y72503D01*
X45935D01*
D01*
Y71575D01*
X47748D01*
D01*
X46714D01*
Y72081D01*
X47748D01*
Y72500D01*
X46656Y74105D01*
D02*
G37*
G36*
X45713Y74109D02*
Y72329D01*
X45710Y72369D01*
X45702Y72416D01*
X45688Y72474D01*
X45673Y72540D01*
X45648Y72605D01*
X45615Y72671D01*
Y72675D01*
X45612Y72678D01*
X45597Y72700D01*
X45572Y72729D01*
X45535Y72769D01*
X45491Y72813D01*
X45437Y72856D01*
X45371Y72896D01*
X45295Y72937D01*
X45298D01*
X45302Y72940D01*
X45324Y72951D01*
X45357Y72969D01*
X45397Y72991D01*
X45444Y73024D01*
X45488Y73060D01*
X45531Y73104D01*
X45568Y73151D01*
X45572Y73159D01*
X45582Y73177D01*
X45593Y73202D01*
X45608Y73242D01*
X45626Y73286D01*
X45637Y73341D01*
X45648Y73395D01*
X45652Y73457D01*
Y73461D01*
Y73468D01*
Y73483D01*
X45648Y73504D01*
X45644Y73526D01*
X45641Y73555D01*
X45626Y73621D01*
X45604Y73694D01*
X45568Y73774D01*
X45546Y73810D01*
X45520Y73850D01*
X45488Y73887D01*
X45455Y73923D01*
X45451Y73927D01*
X45444Y73930D01*
X45433Y73941D01*
X45419Y73952D01*
X45397Y73967D01*
X45375Y73981D01*
X45346Y74000D01*
X45309Y74018D01*
X45273Y74032D01*
X45233Y74050D01*
X45186Y74065D01*
X45135Y74080D01*
X45080Y74090D01*
X45022Y74101D01*
X44960Y74105D01*
X44894Y74109D01*
X44858D01*
X44836Y74105D01*
X44804Y74101D01*
X44771Y74098D01*
X44731Y74094D01*
X44691Y74087D01*
X44600Y74065D01*
X44505Y74032D01*
X44461Y74010D01*
X44414Y73985D01*
X44374Y73956D01*
X44334Y73923D01*
X44330Y73919D01*
X44327Y73916D01*
X44316Y73905D01*
X44301Y73890D01*
X44287Y73872D01*
X44272Y73850D01*
X44232Y73796D01*
X44196Y73726D01*
X44166Y73650D01*
X44141Y73559D01*
X44137Y73508D01*
X44134Y73457D01*
Y73453D01*
Y73450D01*
Y73428D01*
X44137Y73395D01*
X44145Y73352D01*
X44155Y73304D01*
X44174Y73253D01*
X44196Y73199D01*
X44228Y73144D01*
X44232Y73137D01*
X44247Y73122D01*
X44265Y73097D01*
X44294Y73068D01*
X44330Y73031D01*
X44374Y72998D01*
X44425Y72966D01*
X44483Y72937D01*
X44480D01*
X44472Y72933D01*
X44461Y72929D01*
X44447Y72922D01*
X44410Y72900D01*
X44363Y72871D01*
X44312Y72838D01*
X44258Y72795D01*
X44207Y72744D01*
X44163Y72685D01*
X44159Y72678D01*
X44145Y72656D01*
X44126Y72623D01*
X44108Y72580D01*
X44086Y72525D01*
X44072Y72460D01*
X44057Y72391D01*
X44054Y72314D01*
Y72318D01*
Y72314D01*
Y72281D01*
X44057Y72256D01*
X44061Y72227D01*
X44065Y72190D01*
X44072Y72154D01*
X44083Y72114D01*
X44108Y72023D01*
X44126Y71976D01*
X44148Y71928D01*
X44174Y71881D01*
X44207Y71834D01*
X44239Y71790D01*
X44279Y71746D01*
X44283Y71743D01*
X44290Y71735D01*
X44301Y71724D01*
X44319Y71714D01*
X44341Y71695D01*
X44370Y71677D01*
X44399Y71659D01*
X44436Y71637D01*
X44476Y71615D01*
X44523Y71597D01*
X44570Y71579D01*
X44622Y71561D01*
X44680Y71550D01*
X44742Y71539D01*
X44804Y71531D01*
X44873Y71528D01*
X44054D01*
D01*
X45713D01*
X44905D01*
X44931Y71531D01*
X44960Y71535D01*
X44993Y71539D01*
X45029Y71542D01*
X45073Y71550D01*
X45164Y71572D01*
X45259Y71604D01*
X45306Y71623D01*
X45353Y71648D01*
X45400Y71674D01*
X45444Y71706D01*
X45448Y71710D01*
X45455Y71717D01*
X45470Y71728D01*
X45488Y71746D01*
X45506Y71768D01*
X45528Y71794D01*
X45553Y71826D01*
X45579Y71859D01*
X45604Y71899D01*
X45630Y71943D01*
X45652Y71990D01*
X45670Y72045D01*
X45688Y72099D01*
X45702Y72161D01*
X45710Y72223D01*
X45713Y72292D01*
Y74109D01*
D02*
G37*
G36*
X50038Y74141D02*
X48982D01*
X48949Y74138D01*
X48909Y74134D01*
X48862Y74130D01*
X48815Y74123D01*
X48760Y74116D01*
X48644Y74090D01*
X48585Y74072D01*
X48527Y74054D01*
X48469Y74029D01*
X48414Y74000D01*
X48363Y73967D01*
X48316Y73930D01*
X48312Y73927D01*
X48305Y73919D01*
X48294Y73909D01*
X48280Y73894D01*
X48261Y73872D01*
X48240Y73847D01*
X48218Y73817D01*
X48192Y73785D01*
X48171Y73745D01*
X48149Y73705D01*
X48127Y73657D01*
X48109Y73606D01*
X48090Y73555D01*
X48076Y73497D01*
X48065Y73439D01*
X48061Y73373D01*
X48571Y73355D01*
Y73359D01*
Y73362D01*
X48578Y73388D01*
X48585Y73421D01*
X48600Y73461D01*
X48618Y73508D01*
X48644Y73552D01*
X48676Y73595D01*
X48713Y73632D01*
X48717Y73636D01*
X48731Y73646D01*
X48757Y73661D01*
X48793Y73676D01*
X48837Y73690D01*
X48891Y73705D01*
X48957Y73716D01*
X49033Y73719D01*
X49069D01*
X49110Y73716D01*
X49157Y73708D01*
X49211Y73697D01*
X49270Y73679D01*
X49324Y73657D01*
X49375Y73624D01*
X49379Y73621D01*
X49386Y73614D01*
X49401Y73603D01*
X49415Y73585D01*
X49430Y73563D01*
X49444Y73533D01*
X49452Y73504D01*
X49455Y73468D01*
Y73464D01*
Y73453D01*
X49452Y73435D01*
X49444Y73417D01*
X49437Y73392D01*
X49426Y73366D01*
X49408Y73341D01*
X49383Y73315D01*
X49379Y73312D01*
X49361Y73301D01*
X49350Y73293D01*
X49332Y73286D01*
X49313Y73275D01*
X49288Y73264D01*
X49259Y73253D01*
X49226Y73239D01*
X49186Y73224D01*
X49146Y73210D01*
X49095Y73195D01*
X49040Y73180D01*
X48982Y73166D01*
X48917Y73148D01*
X48913D01*
X48899Y73144D01*
X48880Y73140D01*
X48855Y73133D01*
X48826Y73126D01*
X48789Y73115D01*
X48749Y73104D01*
X48709Y73093D01*
X48622Y73064D01*
X48531Y73035D01*
X48443Y73002D01*
X48407Y72984D01*
X48371Y72966D01*
X48367D01*
X48363Y72962D01*
X48342Y72948D01*
X48309Y72926D01*
X48269Y72896D01*
X48225Y72860D01*
X48178Y72816D01*
X48130Y72765D01*
X48090Y72707D01*
X48087Y72700D01*
X48076Y72678D01*
X48058Y72645D01*
X48039Y72598D01*
X48021Y72540D01*
X48003Y72471D01*
X47992Y72394D01*
X47989Y72307D01*
D01*
Y72271D01*
X47992Y72252D01*
X47996Y72227D01*
X48003Y72176D01*
X48018Y72110D01*
X48039Y72041D01*
X48072Y71972D01*
X48112Y71899D01*
Y71895D01*
X48120Y71892D01*
X48134Y71870D01*
X48163Y71834D01*
X48200Y71794D01*
X48247Y71746D01*
X48309Y71703D01*
X48374Y71659D01*
X48454Y71619D01*
X48458D01*
X48465Y71615D01*
X48476Y71612D01*
X48494Y71604D01*
X48516Y71597D01*
X48542Y71590D01*
X48571Y71583D01*
X48604Y71575D01*
X48644Y71564D01*
X48684Y71557D01*
X48778Y71542D01*
X48884Y71531D01*
X49000Y71528D01*
X47989D01*
X49048D01*
X49081Y71531D01*
X49121Y71535D01*
X49164Y71539D01*
X49215Y71546D01*
X49270Y71557D01*
X49390Y71583D01*
X49452Y71601D01*
X49510Y71619D01*
X49572Y71644D01*
X49630Y71674D01*
X49685Y71706D01*
X49736Y71746D01*
X49739Y71750D01*
X49747Y71757D01*
X49761Y71768D01*
X49776Y71786D01*
X49797Y71812D01*
X49819Y71841D01*
X49845Y71874D01*
X49870Y71910D01*
X49896Y71954D01*
X49921Y72001D01*
X49947Y72056D01*
X49972Y72114D01*
X49990Y72176D01*
X50012Y72245D01*
X50027Y72318D01*
X50038Y72394D01*
X49543Y72442D01*
Y72438D01*
X49539Y72431D01*
Y72416D01*
X49536Y72401D01*
X49521Y72358D01*
X49503Y72303D01*
X49481Y72241D01*
X49448Y72179D01*
X49412Y72125D01*
X49364Y72074D01*
X49357Y72070D01*
X49339Y72056D01*
X49310Y72038D01*
X49266Y72016D01*
X49211Y71994D01*
X49150Y71976D01*
X49077Y71961D01*
X48993Y71957D01*
X48953D01*
X48909Y71965D01*
X48855Y71972D01*
X48796Y71983D01*
X48735Y72001D01*
X48676Y72027D01*
X48625Y72059D01*
X48618Y72063D01*
X48604Y72078D01*
X48585Y72099D01*
X48560Y72128D01*
X48538Y72165D01*
X48516Y72209D01*
X48502Y72252D01*
X48498Y72303D01*
Y72307D01*
Y72318D01*
X48502Y72336D01*
X48505Y72358D01*
X48513Y72380D01*
X48520Y72405D01*
X48535Y72431D01*
X48553Y72456D01*
X48556Y72460D01*
X48564Y72467D01*
X48575Y72478D01*
X48593Y72492D01*
X48618Y72511D01*
X48651Y72529D01*
X48687Y72547D01*
X48735Y72565D01*
X48738D01*
X48753Y72573D01*
X48778Y72580D01*
X48796Y72587D01*
X48818Y72591D01*
X48844Y72598D01*
X48873Y72609D01*
X48906Y72616D01*
X48942Y72627D01*
X48986Y72638D01*
X49033Y72649D01*
X49084Y72664D01*
X49142Y72678D01*
X49146D01*
X49161Y72682D01*
X49182Y72689D01*
X49208Y72696D01*
X49241Y72707D01*
X49281Y72718D01*
X49321Y72733D01*
X49368Y72747D01*
X49463Y72784D01*
X49554Y72827D01*
X49601Y72849D01*
X49641Y72875D01*
X49681Y72900D01*
X49714Y72926D01*
X49718Y72929D01*
X49725Y72937D01*
X49736Y72948D01*
X49750Y72962D01*
X49768Y72984D01*
X49787Y73009D01*
X49808Y73035D01*
X49827Y73068D01*
X49870Y73144D01*
X49907Y73231D01*
X49921Y73279D01*
X49932Y73326D01*
X49940Y73381D01*
X49943Y73435D01*
Y73439D01*
Y73443D01*
Y73453D01*
Y73468D01*
X49936Y73504D01*
X49929Y73552D01*
X49918Y73606D01*
X49900Y73668D01*
X49874Y73734D01*
X49838Y73796D01*
Y73799D01*
X49834Y73803D01*
X49816Y73825D01*
X49794Y73854D01*
X49758Y73890D01*
X49714Y73930D01*
X49659Y73974D01*
X49597Y74014D01*
X49525Y74050D01*
X49521D01*
X49514Y74054D01*
X49503Y74058D01*
X49488Y74065D01*
X49466Y74072D01*
X49444Y74080D01*
X49415Y74087D01*
X49383Y74098D01*
X49310Y74112D01*
X49226Y74127D01*
X49131Y74138D01*
X49026Y74141D01*
X50038D01*
D02*
G37*
G36*
X43741Y74061D02*
D01*
Y71575D01*
Y74061D01*
D02*
G37*
G36*
X52444Y74094D02*
X51308D01*
X51275Y74090D01*
X51235D01*
X51195Y74087D01*
X51148D01*
X51053Y74076D01*
X50955Y74065D01*
X50864Y74047D01*
X50824Y74036D01*
X50788Y74025D01*
X50784D01*
X50780Y74021D01*
X50758Y74010D01*
X50726Y73992D01*
X50682Y73970D01*
X50635Y73934D01*
X50587Y73894D01*
X50540Y73843D01*
X50496Y73781D01*
Y73777D01*
X50493Y73774D01*
X50485Y73763D01*
X50478Y73752D01*
X50460Y73716D01*
X50438Y73668D01*
X50420Y73610D01*
X50402Y73544D01*
X50387Y73468D01*
X50384Y73388D01*
Y73384D01*
Y73377D01*
Y73359D01*
X50387Y73341D01*
Y73315D01*
X50391Y73290D01*
X50405Y73224D01*
X50424Y73148D01*
X50453Y73071D01*
X50496Y72991D01*
X50522Y72955D01*
X50551Y72918D01*
X50555Y72915D01*
X50558Y72911D01*
X50569Y72900D01*
X50584Y72889D01*
X50598Y72875D01*
X50620Y72856D01*
X50646Y72838D01*
X50675Y72820D01*
X50708Y72798D01*
X50748Y72780D01*
X50788Y72762D01*
X50831Y72744D01*
X50882Y72725D01*
X50933Y72711D01*
X50988Y72696D01*
X51050Y72685D01*
X51046D01*
X51042Y72682D01*
X51021Y72667D01*
X50991Y72649D01*
X50955Y72623D01*
X50911Y72591D01*
X50868Y72558D01*
X50820Y72518D01*
X50780Y72474D01*
X50777Y72471D01*
X50758Y72452D01*
X50737Y72423D01*
X50704Y72380D01*
X50660Y72325D01*
X50638Y72289D01*
X50613Y72252D01*
X50584Y72212D01*
X50555Y72168D01*
X50522Y72118D01*
X50489Y72067D01*
X50180Y71575D01*
X52444D01*
Y74094D01*
D02*
G37*
%LPD*%
G36*
X47300Y72503D02*
X46714D01*
Y73370D01*
X47300Y72503D01*
D02*
G37*
G36*
X46248Y71575D02*
X45935D01*
Y72081D01*
X46248D01*
Y71575D01*
D02*
G37*
G36*
X44938Y73723D02*
X44971Y73716D01*
X45007Y73705D01*
X45044Y73690D01*
X45080Y73672D01*
X45113Y73643D01*
X45116Y73639D01*
X45124Y73628D01*
X45138Y73610D01*
X45153Y73585D01*
X45167Y73552D01*
X45182Y73515D01*
X45189Y73472D01*
X45193Y73421D01*
Y73413D01*
Y73395D01*
X45189Y73370D01*
X45182Y73337D01*
X45175Y73301D01*
X45160Y73264D01*
X45138Y73228D01*
X45113Y73195D01*
X45109Y73191D01*
X45098Y73184D01*
X45080Y73169D01*
X45055Y73155D01*
X45022Y73140D01*
X44985Y73126D01*
X44942Y73119D01*
X44894Y73115D01*
X44873D01*
X44847Y73119D01*
X44814Y73126D01*
X44778Y73133D01*
X44742Y73148D01*
X44705Y73169D01*
X44672Y73195D01*
X44669Y73199D01*
X44658Y73210D01*
X44647Y73228D01*
X44629Y73257D01*
X44614Y73290D01*
X44603Y73326D01*
X44592Y73373D01*
X44589Y73424D01*
Y73432D01*
Y73446D01*
X44592Y73472D01*
X44600Y73501D01*
X44611Y73537D01*
X44625Y73574D01*
X44643Y73610D01*
X44672Y73643D01*
X44676Y73646D01*
X44687Y73657D01*
X44705Y73668D01*
X44731Y73686D01*
X44763Y73701D01*
X44800Y73712D01*
X44844Y73723D01*
X44891Y73726D01*
X44913D01*
X44938Y73723D01*
D02*
G37*
G36*
X44949Y72725D02*
X44985Y72718D01*
X45029Y72704D01*
X45073Y72682D01*
X45116Y72649D01*
X45153Y72609D01*
X45156Y72602D01*
X45167Y72587D01*
X45178Y72562D01*
X45193Y72529D01*
X45211Y72489D01*
X45222Y72445D01*
X45233Y72394D01*
X45237Y72343D01*
Y72340D01*
Y72336D01*
Y72325D01*
Y72311D01*
X45229Y72274D01*
X45222Y72227D01*
X45211Y72176D01*
X45193Y72125D01*
X45167Y72074D01*
X45135Y72027D01*
X45131Y72023D01*
X45116Y72008D01*
X45095Y71994D01*
X45066Y71972D01*
X45029Y71954D01*
X44985Y71936D01*
X44934Y71921D01*
X44880Y71917D01*
X44854D01*
X44829Y71925D01*
X44793Y71932D01*
X44752Y71943D01*
X44712Y71961D01*
X44672Y71987D01*
X44632Y72023D01*
X44629Y72027D01*
X44618Y72045D01*
X44600Y72067D01*
X44581Y72103D01*
X44563Y72147D01*
X44545Y72201D01*
X44534Y72263D01*
X44530Y72336D01*
Y72340D01*
Y72343D01*
Y72365D01*
X44534Y72398D01*
X44541Y72438D01*
X44556Y72485D01*
X44574Y72532D01*
X44600Y72580D01*
X44632Y72623D01*
X44636Y72627D01*
X44651Y72642D01*
X44672Y72660D01*
X44701Y72678D01*
X44738Y72700D01*
X44782Y72715D01*
X44833Y72729D01*
X44887Y72733D01*
X44916D01*
X44949Y72725D01*
D02*
G37*
G36*
X51934Y73028D02*
X51439D01*
X51366Y73031D01*
X51290Y73035D01*
X51214Y73039D01*
X51181Y73042D01*
X51152Y73046D01*
X51122Y73053D01*
X51104Y73057D01*
X51101D01*
X51090Y73064D01*
X51072Y73071D01*
X51053Y73082D01*
X51006Y73115D01*
X50984Y73137D01*
X50962Y73162D01*
X50959Y73166D01*
X50955Y73177D01*
X50944Y73191D01*
X50933Y73213D01*
X50926Y73242D01*
X50915Y73275D01*
X50911Y73312D01*
X50908Y73352D01*
Y73359D01*
Y73373D01*
X50911Y73395D01*
X50915Y73424D01*
X50926Y73457D01*
X50937Y73490D01*
X50955Y73526D01*
X50977Y73555D01*
X50981Y73559D01*
X50988Y73570D01*
X51006Y73581D01*
X51028Y73599D01*
X51053Y73617D01*
X51086Y73632D01*
X51126Y73646D01*
X51170Y73657D01*
X51174D01*
X51184Y73661D01*
X51206D01*
X51239Y73665D01*
X51319D01*
X51352Y73668D01*
X51934D01*
Y73028D01*
D02*
G37*
G36*
Y71575D02*
X50791D01*
X51155Y72121D01*
X51159Y72125D01*
X51162Y72136D01*
X51174Y72150D01*
X51188Y72168D01*
X51203Y72190D01*
X51221Y72220D01*
X51261Y72278D01*
X51308Y72343D01*
X51352Y72401D01*
X51392Y72456D01*
X51410Y72474D01*
X51425Y72492D01*
X51428Y72496D01*
X51436Y72503D01*
X51450Y72518D01*
X51468Y72536D01*
X51494Y72551D01*
X51519Y72569D01*
X51548Y72584D01*
X51578Y72598D01*
X51581D01*
X51592Y72602D01*
X51610Y72609D01*
X51639Y72613D01*
X51676Y72620D01*
X51719Y72623D01*
X51770Y72627D01*
X51934D01*
Y71575D01*
D02*
G37*
%LPC*%
G36*
X-46740Y74141D02*
X-47796D01*
X-47828Y74138D01*
X-47868Y74134D01*
X-47916Y74130D01*
X-47963Y74123D01*
X-48018Y74116D01*
X-48134Y74090D01*
X-48192Y74072D01*
X-48251Y74054D01*
X-48309Y74029D01*
X-48363Y74000D01*
X-48414Y73967D01*
X-48462Y73930D01*
X-48465Y73927D01*
X-48473Y73919D01*
X-48483Y73909D01*
X-48498Y73894D01*
X-48516Y73872D01*
X-48538Y73847D01*
X-48560Y73817D01*
X-48585Y73785D01*
X-48607Y73745D01*
X-48629Y73705D01*
X-48651Y73657D01*
X-48669Y73606D01*
X-48687Y73555D01*
X-48702Y73497D01*
X-48713Y73439D01*
X-48717Y73373D01*
X-48207Y73355D01*
Y73359D01*
Y73362D01*
X-48200Y73388D01*
X-48192Y73421D01*
X-48178Y73461D01*
X-48160Y73508D01*
X-48134Y73552D01*
X-48101Y73595D01*
X-48065Y73632D01*
X-48061Y73636D01*
X-48047Y73646D01*
X-48021Y73661D01*
X-47985Y73676D01*
X-47941Y73690D01*
X-47887Y73705D01*
X-47821Y73716D01*
X-47745Y73719D01*
X-47708D01*
X-47668Y73716D01*
X-47621Y73708D01*
X-47566Y73697D01*
X-47508Y73679D01*
X-47453Y73657D01*
X-47402Y73624D01*
X-47399Y73621D01*
X-47392Y73614D01*
X-47377Y73603D01*
X-47362Y73585D01*
X-47348Y73563D01*
X-47333Y73533D01*
X-47326Y73504D01*
X-47322Y73468D01*
Y73464D01*
Y73453D01*
X-47326Y73435D01*
X-47333Y73417D01*
X-47341Y73392D01*
X-47352Y73366D01*
X-47370Y73341D01*
X-47395Y73315D01*
X-47399Y73312D01*
X-47417Y73301D01*
X-47428Y73293D01*
X-47446Y73286D01*
X-47464Y73275D01*
X-47490Y73264D01*
X-47519Y73253D01*
X-47552Y73239D01*
X-47592Y73224D01*
X-47632Y73210D01*
X-47683Y73195D01*
X-47737Y73180D01*
X-47796Y73166D01*
X-47861Y73148D01*
X-47865D01*
X-47879Y73144D01*
X-47897Y73140D01*
X-47923Y73133D01*
X-47952Y73126D01*
X-47989Y73115D01*
X-48028Y73104D01*
X-48069Y73093D01*
X-48156Y73064D01*
X-48247Y73035D01*
X-48334Y73002D01*
X-48371Y72984D01*
X-48407Y72966D01*
X-48411D01*
X-48414Y72962D01*
X-48436Y72948D01*
X-48469Y72926D01*
X-48509Y72896D01*
X-48553Y72860D01*
X-48600Y72816D01*
X-48647Y72765D01*
X-48687Y72707D01*
X-48691Y72700D01*
X-48702Y72678D01*
X-48720Y72645D01*
X-48738Y72598D01*
X-48757Y72540D01*
X-48775Y72471D01*
X-48786Y72394D01*
X-48789Y72307D01*
D01*
Y72271D01*
X-48786Y72252D01*
X-48782Y72227D01*
X-48775Y72176D01*
X-48760Y72110D01*
X-48738Y72041D01*
X-48706Y71972D01*
X-48665Y71899D01*
Y71895D01*
X-48658Y71892D01*
X-48644Y71870D01*
X-48615Y71834D01*
X-48578Y71794D01*
X-48531Y71746D01*
X-48469Y71703D01*
X-48403Y71659D01*
X-48323Y71619D01*
X-48320D01*
X-48312Y71615D01*
X-48302Y71612D01*
X-48283Y71604D01*
X-48261Y71597D01*
X-48236Y71590D01*
X-48207Y71583D01*
X-48174Y71575D01*
X-48134Y71564D01*
X-48094Y71557D01*
X-47999Y71542D01*
X-47894Y71531D01*
X-47777Y71528D01*
X-48789D01*
X-47730D01*
X-47697Y71531D01*
X-47657Y71535D01*
X-47614Y71539D01*
X-47563Y71546D01*
X-47508Y71557D01*
X-47388Y71583D01*
X-47326Y71601D01*
X-47268Y71619D01*
X-47206Y71644D01*
X-47148Y71674D01*
X-47093Y71706D01*
X-47042Y71746D01*
X-47038Y71750D01*
X-47031Y71757D01*
X-47017Y71768D01*
X-47002Y71786D01*
X-46980Y71812D01*
X-46958Y71841D01*
X-46933Y71874D01*
X-46907Y71910D01*
X-46882Y71954D01*
X-46856Y72001D01*
X-46831Y72056D01*
X-46806Y72114D01*
X-46787Y72176D01*
X-46765Y72245D01*
X-46751Y72318D01*
X-46740Y72394D01*
X-47235Y72442D01*
Y72438D01*
X-47239Y72431D01*
Y72416D01*
X-47242Y72401D01*
X-47257Y72358D01*
X-47275Y72303D01*
X-47297Y72241D01*
X-47330Y72179D01*
X-47366Y72125D01*
X-47413Y72074D01*
X-47421Y72070D01*
X-47439Y72056D01*
X-47468Y72038D01*
X-47512Y72016D01*
X-47566Y71994D01*
X-47628Y71976D01*
X-47701Y71961D01*
X-47785Y71957D01*
X-47825D01*
X-47868Y71965D01*
X-47923Y71972D01*
X-47981Y71983D01*
X-48043Y72001D01*
X-48101Y72027D01*
X-48152Y72059D01*
X-48160Y72063D01*
X-48174Y72078D01*
X-48192Y72099D01*
X-48218Y72128D01*
X-48240Y72165D01*
X-48261Y72209D01*
X-48276Y72252D01*
X-48280Y72303D01*
Y72307D01*
Y72318D01*
X-48276Y72336D01*
X-48272Y72358D01*
X-48265Y72380D01*
X-48258Y72405D01*
X-48243Y72431D01*
X-48225Y72456D01*
X-48221Y72460D01*
X-48214Y72467D01*
X-48203Y72478D01*
X-48185Y72492D01*
X-48160Y72511D01*
X-48127Y72529D01*
X-48090Y72547D01*
X-48043Y72565D01*
X-48039D01*
X-48025Y72573D01*
X-47999Y72580D01*
X-47981Y72587D01*
X-47959Y72591D01*
X-47934Y72598D01*
X-47905Y72609D01*
X-47872Y72616D01*
X-47836Y72627D01*
X-47792Y72638D01*
X-47745Y72649D01*
X-47694Y72664D01*
X-47635Y72678D01*
X-47632D01*
X-47617Y72682D01*
X-47595Y72689D01*
X-47570Y72696D01*
X-47537Y72707D01*
X-47497Y72718D01*
X-47457Y72733D01*
X-47410Y72747D01*
X-47315Y72784D01*
X-47224Y72827D01*
X-47177Y72849D01*
X-47137Y72875D01*
X-47097Y72900D01*
X-47064Y72926D01*
X-47060Y72929D01*
X-47053Y72937D01*
X-47042Y72948D01*
X-47028Y72962D01*
X-47009Y72984D01*
X-46991Y73009D01*
X-46969Y73035D01*
X-46951Y73068D01*
X-46907Y73144D01*
X-46871Y73231D01*
X-46856Y73279D01*
X-46845Y73326D01*
X-46838Y73381D01*
X-46835Y73435D01*
Y73439D01*
Y73443D01*
Y73453D01*
Y73468D01*
X-46842Y73504D01*
X-46849Y73552D01*
X-46860Y73606D01*
X-46878Y73668D01*
X-46904Y73734D01*
X-46940Y73796D01*
Y73799D01*
X-46944Y73803D01*
X-46962Y73825D01*
X-46984Y73854D01*
X-47020Y73890D01*
X-47064Y73930D01*
X-47118Y73974D01*
X-47180Y74014D01*
X-47253Y74050D01*
X-47257D01*
X-47264Y74054D01*
X-47275Y74058D01*
X-47290Y74065D01*
X-47311Y74072D01*
X-47333Y74080D01*
X-47362Y74087D01*
X-47395Y74098D01*
X-47468Y74112D01*
X-47552Y74127D01*
X-47646Y74138D01*
X-47752Y74141D01*
X-46740D01*
D02*
G37*
G36*
X-43337Y74094D02*
X-43846D01*
Y71575D01*
X-43337D01*
Y74094D01*
D02*
G37*
G36*
X-49222D02*
X-51152D01*
X-50151D01*
X-50191Y74090D01*
X-50285D01*
X-50387Y74083D01*
X-50489Y74076D01*
X-50533Y74072D01*
X-50577Y74069D01*
X-50613Y74061D01*
X-50642Y74054D01*
X-50646D01*
X-50653Y74050D01*
X-50664Y74047D01*
X-50678Y74043D01*
X-50718Y74025D01*
X-50769Y74003D01*
X-50824Y73970D01*
X-50886Y73927D01*
X-50944Y73872D01*
X-51002Y73807D01*
Y73803D01*
X-51010Y73799D01*
X-51017Y73788D01*
X-51024Y73774D01*
X-51039Y73752D01*
X-51050Y73730D01*
X-51064Y73705D01*
X-51079Y73676D01*
X-51104Y73603D01*
X-51130Y73523D01*
X-51144Y73424D01*
X-51152Y73319D01*
Y73279D01*
X-51148Y73260D01*
Y73235D01*
X-51141Y73184D01*
X-51130Y73122D01*
X-51115Y73053D01*
X-51093Y72988D01*
X-51064Y72926D01*
X-51061Y72918D01*
X-51050Y72900D01*
X-51032Y72871D01*
X-51006Y72835D01*
X-50977Y72798D01*
X-50937Y72755D01*
X-50897Y72715D01*
X-50849Y72678D01*
X-50842Y72675D01*
X-50828Y72664D01*
X-50802Y72649D01*
X-50769Y72631D01*
X-50729Y72609D01*
X-50686Y72591D01*
X-50638Y72573D01*
X-50587Y72558D01*
X-50580D01*
X-50569Y72554D01*
X-50555D01*
X-50537Y72551D01*
X-50511Y72547D01*
X-50485Y72543D01*
X-50453D01*
X-50420Y72540D01*
X-50380Y72536D01*
X-50336Y72532D01*
X-50289Y72529D01*
X-50238D01*
X-50183Y72525D01*
X-49732D01*
Y71575D01*
X-49222D01*
Y74094D01*
D02*
G37*
G36*
X-44243Y74141D02*
X-46434D01*
X-45462D01*
X-45495Y74138D01*
X-45535Y74134D01*
X-45579Y74127D01*
X-45630Y74120D01*
X-45684Y74109D01*
X-45743Y74094D01*
X-45805Y74076D01*
X-45866Y74054D01*
X-45932Y74025D01*
X-45994Y73996D01*
X-46052Y73959D01*
X-46114Y73916D01*
X-46169Y73868D01*
X-46172D01*
X-46176Y73861D01*
X-46187Y73850D01*
X-46198Y73839D01*
X-46212Y73821D01*
X-46227Y73799D01*
X-46267Y73748D01*
X-46307Y73683D01*
X-46350Y73603D01*
X-46391Y73512D01*
X-46427Y73406D01*
X-45925Y73286D01*
Y73290D01*
X-45921Y73293D01*
Y73304D01*
X-45914Y73319D01*
X-45903Y73352D01*
X-45885Y73395D01*
X-45859Y73446D01*
X-45826Y73497D01*
X-45783Y73548D01*
X-45735Y73592D01*
X-45728Y73595D01*
X-45710Y73610D01*
X-45681Y73628D01*
X-45641Y73650D01*
X-45590Y73672D01*
X-45531Y73690D01*
X-45466Y73705D01*
X-45393Y73708D01*
X-45368D01*
X-45346Y73705D01*
X-45324Y73701D01*
X-45295Y73697D01*
X-45233Y73683D01*
X-45160Y73657D01*
X-45084Y73621D01*
X-45044Y73599D01*
X-45007Y73574D01*
X-44971Y73541D01*
X-44938Y73504D01*
Y73501D01*
X-44931Y73493D01*
X-44924Y73483D01*
X-44913Y73464D01*
X-44898Y73443D01*
X-44884Y73417D01*
X-44869Y73384D01*
X-44854Y73348D01*
X-44836Y73304D01*
X-44822Y73257D01*
X-44807Y73202D01*
X-44793Y73144D01*
X-44782Y73079D01*
X-44774Y73009D01*
X-44771Y72933D01*
X-44767Y72849D01*
Y72846D01*
Y72827D01*
Y72802D01*
X-44771Y72773D01*
Y72733D01*
X-44778Y72685D01*
X-44782Y72638D01*
X-44789Y72584D01*
X-44811Y72471D01*
X-44840Y72358D01*
X-44858Y72303D01*
X-44884Y72252D01*
X-44909Y72205D01*
X-44938Y72165D01*
X-44942Y72161D01*
X-44945Y72158D01*
X-44956Y72147D01*
X-44971Y72132D01*
X-45007Y72103D01*
X-45058Y72067D01*
X-45120Y72027D01*
X-45197Y71997D01*
X-45284Y71972D01*
X-45331Y71968D01*
X-45382Y71965D01*
X-45400D01*
X-45415Y71968D01*
X-45455Y71972D01*
X-45502Y71979D01*
X-45553Y71997D01*
X-45612Y72019D01*
X-45670Y72048D01*
X-45728Y72092D01*
X-45735Y72099D01*
X-45753Y72118D01*
X-45779Y72147D01*
X-45808Y72190D01*
X-45845Y72249D01*
X-45877Y72318D01*
X-45910Y72401D01*
X-45939Y72500D01*
X-46434Y72347D01*
Y72343D01*
X-46431Y72329D01*
X-46423Y72307D01*
X-46412Y72278D01*
X-46398Y72245D01*
X-46383Y72205D01*
X-46365Y72161D01*
X-46343Y72114D01*
X-46292Y72016D01*
X-46227Y71914D01*
X-46147Y71815D01*
X-46103Y71772D01*
X-46056Y71732D01*
X-46052Y71728D01*
X-46045Y71724D01*
X-46030Y71714D01*
X-46008Y71699D01*
X-45983Y71684D01*
X-45950Y71670D01*
X-45914Y71652D01*
X-45874Y71633D01*
X-45826Y71612D01*
X-45775Y71593D01*
X-45721Y71579D01*
X-45663Y71564D01*
X-45601Y71550D01*
X-45531Y71539D01*
X-45462Y71535D01*
X-45386Y71531D01*
X-45364D01*
X-45339Y71535D01*
X-45302Y71539D01*
X-45262Y71542D01*
X-45211Y71550D01*
X-45157Y71561D01*
X-45095Y71575D01*
X-45033Y71593D01*
X-44967Y71615D01*
X-44898Y71644D01*
X-44829Y71677D01*
X-44760Y71714D01*
X-44691Y71761D01*
X-44625Y71812D01*
X-44563Y71874D01*
X-44560Y71877D01*
X-44549Y71888D01*
X-44534Y71910D01*
X-44512Y71936D01*
X-44490Y71972D01*
X-44461Y72012D01*
X-44432Y72063D01*
X-44403Y72121D01*
X-44374Y72183D01*
X-44345Y72252D01*
X-44316Y72332D01*
X-44294Y72416D01*
X-44272Y72503D01*
X-44258Y72602D01*
X-44247Y72704D01*
X-44243Y72813D01*
Y71531D01*
D01*
Y72842D01*
X-44247Y72875D01*
Y72918D01*
X-44254Y72969D01*
X-44261Y73031D01*
X-44268Y73097D01*
X-44283Y73173D01*
X-44301Y73250D01*
X-44323Y73330D01*
X-44348Y73410D01*
X-44381Y73493D01*
X-44418Y73574D01*
X-44461Y73650D01*
X-44509Y73723D01*
X-44567Y73792D01*
X-44570Y73796D01*
X-44581Y73807D01*
X-44600Y73825D01*
X-44625Y73847D01*
X-44658Y73872D01*
X-44698Y73901D01*
X-44742Y73934D01*
X-44796Y73967D01*
X-44854Y74000D01*
X-44916Y74032D01*
X-44989Y74061D01*
X-45062Y74087D01*
X-45146Y74109D01*
X-45229Y74127D01*
X-45324Y74138D01*
X-45419Y74141D01*
X-44243D01*
D01*
D02*
G37*
%LPD*%
G36*
X-49732Y72951D02*
X-50081D01*
X-50107Y72955D01*
X-50173D01*
X-50238Y72958D01*
X-50304Y72966D01*
X-50362Y72977D01*
X-50387Y72980D01*
X-50409Y72988D01*
X-50413Y72991D01*
X-50427Y72995D01*
X-50445Y73006D01*
X-50467Y73017D01*
X-50493Y73035D01*
X-50518Y73057D01*
X-50547Y73082D01*
X-50569Y73111D01*
X-50573Y73115D01*
X-50580Y73126D01*
X-50587Y73144D01*
X-50598Y73169D01*
X-50609Y73199D01*
X-50620Y73231D01*
X-50624Y73268D01*
X-50627Y73308D01*
Y73315D01*
Y73330D01*
X-50624Y73355D01*
X-50617Y73388D01*
X-50606Y73424D01*
X-50591Y73464D01*
X-50573Y73501D01*
X-50544Y73537D01*
X-50540Y73541D01*
X-50529Y73552D01*
X-50511Y73566D01*
X-50489Y73585D01*
X-50460Y73606D01*
X-50424Y73624D01*
X-50384Y73639D01*
X-50340Y73650D01*
X-50336D01*
X-50322Y73654D01*
X-50296Y73657D01*
X-50260Y73661D01*
X-50213D01*
X-50180Y73665D01*
X-50147D01*
X-50111Y73668D01*
X-49732D01*
Y72951D01*
D02*
G37*
M02*
