G04*
G04 #@! TF.GenerationSoftware,Altium Limited,Altium Designer,23.3.1 (30)*
G04*
G04 Layer_Color=8388736*
%FSLAX25Y25*%
%MOIN*%
G70*
G04*
G04 #@! TF.SameCoordinates,AEED621E-3CD5-435C-AC93-41C8B311E913*
G04*
G04*
G04 #@! TF.FilePolarity,Negative*
G04*
G01*
G75*
%ADD30R,3.23000X0.03937*%
%ADD31R,0.41161X0.03937*%
%ADD32R,0.03937X0.86614*%
%ADD33R,4.17323X0.03937*%
%ADD34R,0.03937X0.86614*%
%ADD35R,0.01929X0.02126*%
%ADD36R,0.02126X0.01929*%
%ADD37R,0.01654X0.01654*%
%ADD38R,0.04016X0.02835*%
%ADD39R,0.04016X0.02047*%
%ADD40R,0.02047X0.04803*%
%ADD41R,0.04803X0.02047*%
%ADD42R,0.22520X0.21732*%
%ADD43R,0.06969X0.04016*%
%ADD44R,0.02441X0.04803*%
%ADD45R,0.07126X0.12677*%
%ADD46R,0.07953X0.11890*%
%ADD47R,0.03032X0.05984*%
%ADD48R,0.04803X0.07362*%
%ADD49R,0.03228X0.02047*%
%ADD50C,0.19764*%
%ADD51C,0.03032*%
G36*
X118017Y23075D02*
X119021D01*
Y22824D01*
X121029D01*
Y23075D01*
X123540D01*
Y22824D01*
X126050D01*
Y22573D01*
X127556D01*
Y22322D01*
X128561D01*
Y22071D01*
X128812D01*
Y21820D01*
X129314D01*
Y21569D01*
X129816D01*
Y21318D01*
X130067D01*
Y21067D01*
X130318D01*
Y20816D01*
X130569D01*
Y20565D01*
X130820D01*
Y20314D01*
X131071D01*
Y20063D01*
X131322D01*
Y19812D01*
Y19561D01*
X131071D01*
Y19309D01*
Y19059D01*
X131322D01*
Y19309D01*
X131573D01*
Y19561D01*
X131824D01*
Y19309D01*
Y19059D01*
X132075D01*
Y18808D01*
Y18556D01*
X132577D01*
Y18305D01*
X132326D01*
Y18054D01*
X132828D01*
Y17803D01*
X133079D01*
Y17552D01*
Y17301D01*
Y17050D01*
X133330D01*
Y16799D01*
X133581D01*
Y16548D01*
Y16297D01*
X133833D01*
Y16046D01*
Y15795D01*
Y15544D01*
X134084D01*
Y15293D01*
Y15042D01*
X134335D01*
Y14791D01*
Y14540D01*
X134586D01*
Y14289D01*
Y14038D01*
X134837D01*
Y13787D01*
X135088D01*
Y13535D01*
Y13284D01*
X135339D01*
Y13033D01*
Y12782D01*
X135590D01*
Y12531D01*
X135841D01*
Y12280D01*
X135590D01*
Y12029D01*
X135841D01*
Y11778D01*
X136092D01*
Y11527D01*
Y11276D01*
Y11025D01*
X136343D01*
Y10774D01*
Y10523D01*
Y10272D01*
X136594D01*
Y10021D01*
Y9770D01*
Y9519D01*
Y9268D01*
Y9017D01*
X136845D01*
Y8766D01*
Y8515D01*
X140109D01*
Y8264D01*
X139858D01*
Y8012D01*
X139356D01*
Y7762D01*
X138351D01*
Y7510D01*
X139858D01*
Y7259D01*
X139607D01*
Y7008D01*
X139356D01*
Y7259D01*
X139104D01*
Y7008D01*
X138853D01*
Y6757D01*
X137096D01*
Y6506D01*
Y6255D01*
Y6004D01*
Y5753D01*
Y5502D01*
Y5251D01*
Y5000D01*
Y4749D01*
Y4498D01*
Y4247D01*
X136845D01*
Y3996D01*
Y3745D01*
Y3494D01*
Y3243D01*
X136594D01*
Y2992D01*
X136343D01*
Y2741D01*
X136594D01*
Y2489D01*
X136343D01*
Y2238D01*
X136092D01*
Y1987D01*
X135841D01*
Y1736D01*
X136092D01*
Y1485D01*
X135841D01*
Y1234D01*
Y983D01*
X135590D01*
Y1234D01*
X135339D01*
Y983D01*
X135590D01*
Y732D01*
Y481D01*
X135339D01*
Y230D01*
X135088D01*
Y-21D01*
Y-272D01*
X134837D01*
Y-523D01*
X134335D01*
Y-774D01*
Y-1025D01*
X133833D01*
Y-1276D01*
X133581D01*
Y-1527D01*
X133079D01*
Y-1778D01*
X132326D01*
Y-2029D01*
X131071D01*
Y-1778D01*
X130318D01*
Y-1527D01*
X129816D01*
Y-1276D01*
X129565D01*
Y-1025D01*
X129314D01*
Y-774D01*
X129063D01*
Y-523D01*
Y-272D01*
Y-21D01*
X128812D01*
Y230D01*
Y481D01*
X128561D01*
Y732D01*
Y983D01*
Y1234D01*
Y1485D01*
X128812D01*
Y1736D01*
X129063D01*
Y1987D01*
X128812D01*
Y2238D01*
X129063D01*
Y2489D01*
Y2741D01*
X129314D01*
Y2992D01*
X129565D01*
Y3243D01*
X129816D01*
Y3494D01*
X130569D01*
Y3243D01*
X130820D01*
Y2992D01*
Y2741D01*
X130569D01*
Y2489D01*
X130820D01*
Y2238D01*
Y1987D01*
X130569D01*
Y1736D01*
X130318D01*
Y1485D01*
Y1234D01*
Y983D01*
X130569D01*
Y732D01*
X131071D01*
Y481D01*
X131824D01*
Y732D01*
X132326D01*
Y983D01*
X132577D01*
Y1234D01*
X132828D01*
Y1485D01*
Y1736D01*
Y1987D01*
X133079D01*
Y2238D01*
X133330D01*
Y2489D01*
X133079D01*
Y2741D01*
X133330D01*
Y2992D01*
Y3243D01*
Y3494D01*
Y3745D01*
Y3996D01*
Y4247D01*
Y4498D01*
Y4749D01*
Y5000D01*
Y5251D01*
Y5502D01*
Y5753D01*
X133581D01*
Y6004D01*
X133330D01*
Y6255D01*
Y6506D01*
X133079D01*
Y6757D01*
Y7008D01*
X132828D01*
Y7259D01*
Y7510D01*
Y7762D01*
X132577D01*
Y8012D01*
Y8264D01*
X132326D01*
Y8515D01*
Y8766D01*
X132075D01*
Y9017D01*
X130569D01*
Y8766D01*
X129816D01*
Y9017D01*
X129565D01*
Y9268D01*
X129063D01*
Y9519D01*
X128812D01*
Y9770D01*
X128310D01*
Y10021D01*
X126552D01*
Y9770D01*
X126301D01*
Y9519D01*
X125799D01*
Y9268D01*
Y9017D01*
X125046D01*
Y8766D01*
Y8515D01*
X124544D01*
Y8264D01*
X124042D01*
Y8515D01*
X123791D01*
Y8264D01*
X123289D01*
Y8515D01*
X122787D01*
Y8766D01*
X122284D01*
Y9017D01*
X121782D01*
Y9268D01*
Y9519D01*
X121531D01*
Y9268D01*
X121280D01*
Y9519D01*
X121029D01*
Y9770D01*
X120778D01*
Y10021D01*
Y10272D01*
X121029D01*
Y10523D01*
X120527D01*
Y10272D01*
Y10021D01*
X120276D01*
Y10272D01*
X120025D01*
Y10523D01*
X119774D01*
Y10774D01*
X119523D01*
Y11025D01*
X119272D01*
Y11276D01*
X119021D01*
Y11527D01*
X118770D01*
Y11778D01*
X118519D01*
Y12029D01*
Y12280D01*
X118268D01*
Y12531D01*
X118017D01*
Y12782D01*
X117766D01*
Y13033D01*
Y13284D01*
X117515D01*
Y13535D01*
X117264D01*
Y13787D01*
Y14038D01*
X117013D01*
Y13787D01*
Y13535D01*
X117264D01*
Y13284D01*
Y13033D01*
X117515D01*
Y12782D01*
Y12531D01*
X117766D01*
Y12280D01*
X118017D01*
Y12029D01*
X118268D01*
Y11778D01*
Y11527D01*
X118519D01*
Y11276D01*
X118770D01*
Y11025D01*
X119021D01*
Y10774D01*
X119272D01*
Y10523D01*
X119523D01*
Y10272D01*
X120025D01*
Y10021D01*
X120276D01*
Y9770D01*
X120527D01*
Y9519D01*
X120778D01*
Y9268D01*
X121280D01*
Y9017D01*
X121531D01*
Y8766D01*
Y8515D01*
X122033D01*
Y8264D01*
Y8012D01*
Y7762D01*
Y7510D01*
Y7259D01*
Y7008D01*
Y6757D01*
Y6506D01*
X122284D01*
Y6255D01*
Y6004D01*
Y5753D01*
Y5502D01*
Y5251D01*
Y5000D01*
Y4749D01*
Y4498D01*
X122536D01*
Y4247D01*
X122787D01*
Y3996D01*
Y3745D01*
Y3494D01*
X123038D01*
Y3243D01*
Y2992D01*
X123289D01*
Y2741D01*
Y2489D01*
Y2238D01*
Y1987D01*
Y1736D01*
X123540D01*
Y1485D01*
Y1234D01*
Y983D01*
X123791D01*
Y732D01*
Y481D01*
X123540D01*
Y230D01*
X123791D01*
Y-21D01*
X124042D01*
Y-272D01*
Y-523D01*
X123791D01*
Y-774D01*
X124042D01*
Y-1025D01*
Y-1276D01*
X124293D01*
Y-1527D01*
Y-1778D01*
Y-2029D01*
X124544D01*
Y-2280D01*
Y-2531D01*
Y-2782D01*
Y-3033D01*
X124795D01*
Y-3285D01*
Y-3536D01*
Y-3787D01*
X125046D01*
Y-4038D01*
X124795D01*
Y-4289D01*
X125046D01*
Y-4540D01*
X125297D01*
Y-4791D01*
Y-5042D01*
Y-5293D01*
X125548D01*
Y-5544D01*
Y-5795D01*
Y-6046D01*
X125799D01*
Y-6297D01*
X125548D01*
Y-6548D01*
X125799D01*
Y-6799D01*
Y-7050D01*
X126050D01*
Y-7301D01*
X125799D01*
Y-7552D01*
X126050D01*
Y-7803D01*
Y-8054D01*
Y-8305D01*
Y-8556D01*
Y-8807D01*
X126301D01*
Y-9059D01*
Y-9309D01*
Y-9561D01*
X126552D01*
Y-9812D01*
Y-10063D01*
X126803D01*
Y-10314D01*
Y-10565D01*
X127054D01*
Y-10816D01*
Y-11067D01*
X127305D01*
Y-11318D01*
X127556D01*
Y-11569D01*
Y-11820D01*
X127807D01*
Y-12071D01*
X128059D01*
Y-12322D01*
X128310D01*
Y-12573D01*
Y-12824D01*
X128059D01*
Y-13075D01*
X127305D01*
Y-13326D01*
X125046D01*
Y-13577D01*
X124795D01*
Y-13326D01*
X123038D01*
Y-13075D01*
Y-12824D01*
X122787D01*
Y-12573D01*
Y-12322D01*
Y-12071D01*
Y-11820D01*
X123038D01*
Y-11569D01*
Y-11318D01*
X123289D01*
Y-11067D01*
X123540D01*
Y-10816D01*
Y-10565D01*
X123289D01*
Y-10314D01*
Y-10063D01*
Y-9812D01*
X123038D01*
Y-9561D01*
Y-9309D01*
Y-9059D01*
X122787D01*
Y-8807D01*
Y-8556D01*
Y-8305D01*
X122536D01*
Y-8054D01*
Y-7803D01*
X122284D01*
Y-7552D01*
Y-7301D01*
X122033D01*
Y-7050D01*
Y-6799D01*
X121782D01*
Y-6548D01*
Y-6297D01*
X121531D01*
Y-6046D01*
X121280D01*
Y-5795D01*
Y-5544D01*
X121029D01*
Y-5293D01*
X121280D01*
Y-5042D01*
X120778D01*
Y-4791D01*
Y-4540D01*
Y-4289D01*
X120276D01*
Y-4038D01*
Y-3787D01*
X120025D01*
Y-3536D01*
Y-3285D01*
X119774D01*
Y-3033D01*
X119523D01*
Y-2782D01*
X120025D01*
Y-2531D01*
X119272D01*
Y-2280D01*
X119021D01*
Y-2029D01*
Y-1778D01*
X118770D01*
Y-1527D01*
X118519D01*
Y-1276D01*
X118268D01*
Y-1025D01*
X118017D01*
Y-774D01*
X117766D01*
Y-523D01*
X117515D01*
Y-272D01*
X117264D01*
Y-21D01*
X117013D01*
Y230D01*
X116762D01*
Y481D01*
X116510D01*
Y732D01*
X116259D01*
Y983D01*
Y1234D01*
X116008D01*
Y1485D01*
X115757D01*
Y1736D01*
Y1987D01*
X115506D01*
Y2238D01*
X115255D01*
Y2489D01*
Y2741D01*
X115004D01*
Y2992D01*
Y3243D01*
X114753D01*
Y3494D01*
Y3745D01*
X114502D01*
Y3494D01*
Y3243D01*
X114753D01*
Y2992D01*
Y2741D01*
X115004D01*
Y2489D01*
Y2238D01*
X115255D01*
Y1987D01*
Y1736D01*
X115506D01*
Y1485D01*
X115757D01*
Y1234D01*
Y983D01*
X116008D01*
Y732D01*
X116259D01*
Y481D01*
Y230D01*
X116510D01*
Y-21D01*
Y-272D01*
Y-523D01*
Y-774D01*
X116259D01*
Y-1025D01*
Y-1276D01*
Y-1527D01*
X116008D01*
Y-1778D01*
Y-2029D01*
Y-2280D01*
X115757D01*
Y-2531D01*
Y-2782D01*
X115506D01*
Y-3033D01*
Y-3285D01*
Y-3536D01*
X115255D01*
Y-3787D01*
Y-4038D01*
Y-4289D01*
X115004D01*
Y-4540D01*
Y-4791D01*
Y-5042D01*
Y-5293D01*
X114753D01*
Y-5544D01*
Y-5795D01*
Y-6046D01*
Y-6297D01*
X114502D01*
Y-6548D01*
Y-6799D01*
Y-7050D01*
X114251D01*
Y-7301D01*
Y-7552D01*
X114000D01*
Y-7803D01*
Y-8054D01*
Y-8305D01*
X113749D01*
Y-8556D01*
Y-8807D01*
X113498D01*
Y-9059D01*
Y-9309D01*
Y-9561D01*
Y-9812D01*
Y-10063D01*
X113247D01*
Y-10314D01*
Y-10565D01*
X113498D01*
Y-10816D01*
Y-11067D01*
Y-11318D01*
X113749D01*
Y-11569D01*
X114000D01*
Y-11820D01*
X114251D01*
Y-12071D01*
X114502D01*
Y-12322D01*
X114753D01*
Y-12573D01*
Y-12824D01*
X115004D01*
Y-13075D01*
Y-13326D01*
Y-13577D01*
X114502D01*
Y-13828D01*
X111239D01*
Y-13577D01*
X110485D01*
Y-13828D01*
X109230D01*
Y-13577D01*
X108979D01*
Y-13326D01*
Y-13075D01*
Y-12824D01*
Y-12573D01*
X109230D01*
Y-12322D01*
Y-12071D01*
X109481D01*
Y-11820D01*
X109983D01*
Y-11569D01*
Y-11318D01*
Y-11067D01*
X110234D01*
Y-10816D01*
X109983D01*
Y-10565D01*
Y-10314D01*
Y-10063D01*
Y-9812D01*
Y-9561D01*
Y-9309D01*
Y-9059D01*
Y-8807D01*
Y-8556D01*
Y-8305D01*
Y-8054D01*
X110234D01*
Y-7803D01*
Y-7552D01*
Y-7301D01*
Y-7050D01*
Y-6799D01*
Y-6548D01*
Y-6297D01*
Y-6046D01*
X110485D01*
Y-5795D01*
Y-5544D01*
Y-5293D01*
Y-5042D01*
Y-4791D01*
X110736D01*
Y-4540D01*
Y-4289D01*
Y-4038D01*
Y-3787D01*
Y-3536D01*
Y-3285D01*
X110987D01*
Y-3033D01*
Y-2782D01*
Y-2531D01*
Y-2280D01*
Y-2029D01*
Y-1778D01*
Y-1527D01*
Y-1276D01*
Y-1025D01*
Y-774D01*
Y-523D01*
Y-272D01*
X111239D01*
Y-21D01*
X110987D01*
Y230D01*
Y481D01*
Y732D01*
Y983D01*
Y1234D01*
Y1485D01*
Y1736D01*
Y1987D01*
X110736D01*
Y2238D01*
Y2489D01*
Y2741D01*
X110234D01*
Y2489D01*
X109732D01*
Y2238D01*
X109230D01*
Y1987D01*
X108728D01*
Y1736D01*
X107975D01*
Y1485D01*
X107222D01*
Y1234D01*
X105967D01*
Y983D01*
X105464D01*
Y1234D01*
X104711D01*
Y983D01*
X102954D01*
Y1234D01*
X102703D01*
Y983D01*
X102954D01*
Y732D01*
X102452D01*
Y481D01*
Y230D01*
X102201D01*
Y-21D01*
X101950D01*
Y-272D01*
X101699D01*
Y-523D01*
X101448D01*
Y-774D01*
X101197D01*
Y-1025D01*
X100946D01*
Y-1276D01*
X100695D01*
Y-1527D01*
X100444D01*
Y-1778D01*
Y-2029D01*
X100192D01*
Y-2280D01*
Y-2531D01*
Y-2782D01*
X99941D01*
Y-3033D01*
Y-3285D01*
X99691D01*
Y-3536D01*
Y-3787D01*
Y-4038D01*
X99439D01*
Y-4289D01*
Y-4540D01*
Y-4791D01*
Y-5042D01*
X99691D01*
Y-5293D01*
Y-5544D01*
Y-5795D01*
Y-6046D01*
Y-6297D01*
Y-6548D01*
Y-6799D01*
Y-7050D01*
Y-7301D01*
Y-7552D01*
Y-7803D01*
Y-8054D01*
Y-8305D01*
Y-8556D01*
Y-8807D01*
Y-9059D01*
X99941D01*
Y-9309D01*
Y-9561D01*
Y-9812D01*
X100192D01*
Y-10063D01*
Y-10314D01*
X100444D01*
Y-10565D01*
X100695D01*
Y-10816D01*
X100946D01*
Y-11067D01*
X101197D01*
Y-11318D01*
X101448D01*
Y-11569D01*
X101699D01*
Y-11820D01*
X101950D01*
Y-12071D01*
X102201D01*
Y-12322D01*
Y-12573D01*
Y-12824D01*
X101950D01*
Y-13075D01*
X96427D01*
Y-12824D01*
X95925D01*
Y-12573D01*
Y-12322D01*
Y-12071D01*
Y-11820D01*
Y-11569D01*
Y-11318D01*
Y-11067D01*
Y-10816D01*
Y-10565D01*
Y-10314D01*
Y-10063D01*
Y-9812D01*
Y-9561D01*
Y-9309D01*
X96176D01*
Y-9059D01*
Y-8807D01*
Y-8556D01*
Y-8305D01*
Y-8054D01*
X96427D01*
Y-7803D01*
Y-7552D01*
Y-7301D01*
Y-7050D01*
Y-6799D01*
Y-6548D01*
Y-6297D01*
Y-6046D01*
Y-5795D01*
Y-5544D01*
Y-5293D01*
Y-5042D01*
Y-4791D01*
Y-4540D01*
Y-4289D01*
Y-4038D01*
X96176D01*
Y-3787D01*
Y-3536D01*
Y-3285D01*
Y-3033D01*
Y-2782D01*
Y-2531D01*
Y-2280D01*
X95925D01*
Y-2029D01*
X95674D01*
Y-1778D01*
X95423D01*
Y-1527D01*
X95674D01*
Y-1276D01*
X95925D01*
Y-1025D01*
X96176D01*
Y-774D01*
X96427D01*
Y-523D01*
X96678D01*
Y-272D01*
Y-21D01*
X96929D01*
Y230D01*
X97431D01*
Y481D01*
Y732D01*
Y983D01*
X97180D01*
Y732D01*
X96929D01*
Y481D01*
X96678D01*
Y230D01*
X96427D01*
Y-21D01*
Y-272D01*
X96176D01*
Y-523D01*
X95925D01*
Y-272D01*
X95423D01*
Y-523D01*
X95925D01*
Y-774D01*
X95674D01*
Y-1025D01*
X95423D01*
Y-1276D01*
X95172D01*
Y-1527D01*
Y-1778D01*
X94921D01*
Y-2029D01*
X94670D01*
Y-2280D01*
X94419D01*
Y-2531D01*
X94168D01*
Y-2782D01*
Y-3033D01*
X93916D01*
Y-3285D01*
X93665D01*
Y-3536D01*
Y-3787D01*
X93414D01*
Y-4038D01*
Y-4289D01*
X92912D01*
Y-4540D01*
X93163D01*
Y-4791D01*
X92912D01*
Y-5042D01*
X92661D01*
Y-5293D01*
Y-5544D01*
Y-5795D01*
X92410D01*
Y-6046D01*
Y-6297D01*
X92159D01*
Y-6548D01*
Y-6799D01*
X91908D01*
Y-7050D01*
X92159D01*
Y-7301D01*
X91908D01*
Y-7552D01*
Y-7803D01*
Y-8054D01*
Y-8305D01*
X91657D01*
Y-8054D01*
X91406D01*
Y-8305D01*
X91657D01*
Y-8556D01*
Y-8807D01*
Y-9059D01*
Y-9309D01*
X91406D01*
Y-9561D01*
Y-9812D01*
Y-10063D01*
X91155D01*
Y-10314D01*
Y-10565D01*
Y-10816D01*
X90904D01*
Y-11067D01*
X91155D01*
Y-11318D01*
Y-11569D01*
Y-11820D01*
X91406D01*
Y-12071D01*
X91155D01*
Y-11820D01*
X90904D01*
Y-12071D01*
X91155D01*
Y-12322D01*
Y-12573D01*
Y-12824D01*
X90653D01*
Y-13075D01*
X90402D01*
Y-12824D01*
X88142D01*
Y-12573D01*
X87891D01*
Y-12322D01*
X87640D01*
Y-12071D01*
Y-11820D01*
X87389D01*
Y-11569D01*
Y-11318D01*
Y-11067D01*
Y-10816D01*
Y-10565D01*
Y-10314D01*
X87640D01*
Y-10063D01*
Y-9812D01*
X87891D01*
Y-9561D01*
X88142D01*
Y-9309D01*
X88393D01*
Y-9059D01*
X88644D01*
Y-9309D01*
X88896D01*
Y-9059D01*
X88644D01*
Y-8807D01*
Y-8556D01*
Y-8305D01*
Y-8054D01*
X88896D01*
Y-7803D01*
Y-7552D01*
Y-7301D01*
X89147D01*
Y-7050D01*
Y-6799D01*
X89398D01*
Y-6548D01*
Y-6297D01*
X88896D01*
Y-6548D01*
X88644D01*
Y-6297D01*
Y-6046D01*
X88142D01*
Y-5795D01*
Y-5544D01*
X88393D01*
Y-5293D01*
Y-5042D01*
Y-4791D01*
Y-4540D01*
Y-4289D01*
X88644D01*
Y-4038D01*
Y-3787D01*
Y-3536D01*
X88896D01*
Y-3285D01*
Y-3033D01*
Y-2782D01*
Y-2531D01*
X89147D01*
Y-2280D01*
Y-2029D01*
Y-1778D01*
X89398D01*
Y-1527D01*
Y-1276D01*
Y-1025D01*
X89649D01*
Y-774D01*
Y-523D01*
Y-272D01*
Y-21D01*
X89900D01*
Y-272D01*
X90151D01*
Y-523D01*
Y-774D01*
Y-1025D01*
Y-1276D01*
X89900D01*
Y-1527D01*
Y-1778D01*
Y-2029D01*
Y-2280D01*
X89649D01*
Y-2531D01*
Y-2782D01*
Y-3033D01*
X89398D01*
Y-3285D01*
Y-3536D01*
Y-3787D01*
Y-4038D01*
Y-4289D01*
Y-4540D01*
Y-4791D01*
Y-5042D01*
Y-5293D01*
Y-5544D01*
Y-5795D01*
X89147D01*
Y-6046D01*
X89649D01*
Y-5795D01*
Y-5544D01*
Y-5293D01*
X89900D01*
Y-5042D01*
Y-4791D01*
Y-4540D01*
Y-4289D01*
X90151D01*
Y-4038D01*
Y-3787D01*
Y-3536D01*
Y-3285D01*
Y-3033D01*
X90402D01*
Y-2782D01*
Y-2531D01*
Y-2280D01*
Y-2029D01*
Y-1778D01*
Y-1527D01*
Y-1276D01*
Y-1025D01*
Y-774D01*
Y-523D01*
Y-272D01*
Y-21D01*
X90151D01*
Y230D01*
X89900D01*
Y481D01*
Y732D01*
Y983D01*
X90151D01*
Y1234D01*
Y1485D01*
Y1736D01*
Y1987D01*
Y2238D01*
Y2489D01*
Y2741D01*
Y2992D01*
X90402D01*
Y3243D01*
Y3494D01*
Y3745D01*
Y3996D01*
Y4247D01*
Y4498D01*
Y4749D01*
X90653D01*
Y5000D01*
Y5251D01*
Y5502D01*
Y5753D01*
Y6004D01*
Y6255D01*
Y6506D01*
Y6757D01*
Y7008D01*
Y7259D01*
Y7510D01*
Y7762D01*
Y8012D01*
Y8264D01*
Y8515D01*
Y8766D01*
Y9017D01*
Y9268D01*
Y9519D01*
X90904D01*
Y9770D01*
Y10021D01*
Y10272D01*
Y10523D01*
Y10774D01*
X91155D01*
Y11025D01*
Y11276D01*
X91406D01*
Y11527D01*
Y11778D01*
Y12029D01*
X91657D01*
Y12280D01*
X91908D01*
Y12531D01*
Y12782D01*
X92159D01*
Y13033D01*
Y13284D01*
X92661D01*
Y13535D01*
Y13787D01*
Y14038D01*
X92912D01*
Y14289D01*
X93163D01*
Y14540D01*
X93665D01*
Y14791D01*
X93414D01*
Y15042D01*
X93665D01*
Y15293D01*
X93916D01*
Y15544D01*
Y15795D01*
X94168D01*
Y16046D01*
X94419D01*
Y16297D01*
Y16548D01*
X94670D01*
Y16799D01*
X94921D01*
Y17050D01*
X95172D01*
Y16799D01*
X95423D01*
Y17050D01*
X95172D01*
Y17301D01*
Y17552D01*
X95423D01*
Y17803D01*
X95674D01*
Y18054D01*
X95925D01*
Y18305D01*
X96176D01*
Y18556D01*
X96929D01*
Y18808D01*
Y19059D01*
X97180D01*
Y18808D01*
X97431D01*
Y19059D01*
Y19309D01*
X97933D01*
Y19561D01*
X98435D01*
Y19812D01*
X99439D01*
Y20063D01*
X100192D01*
Y19812D01*
X100444D01*
Y20063D01*
X100192D01*
Y20314D01*
X102201D01*
Y20565D01*
X108226D01*
Y20816D01*
X109481D01*
Y21067D01*
X110234D01*
Y21318D01*
X110987D01*
Y21569D01*
X111741D01*
Y21820D01*
X112745D01*
Y22071D01*
X113498D01*
Y22322D01*
X114502D01*
Y22573D01*
X115004D01*
Y22824D01*
X115757D01*
Y23075D01*
X116008D01*
Y22824D01*
X116259D01*
Y23075D01*
X116510D01*
Y22824D01*
X116762D01*
Y23075D01*
X116510D01*
Y23326D01*
X118017D01*
Y23075D01*
D02*
G37*
%LPC*%
G36*
X119272Y21820D02*
X119021D01*
Y21569D01*
X119272D01*
Y21318D01*
X119523D01*
Y21569D01*
X119272D01*
Y21820D01*
D02*
G37*
G36*
Y21318D02*
X119021D01*
Y21067D01*
X119272D01*
Y21318D01*
D02*
G37*
G36*
X119021Y21067D02*
X118770D01*
Y20816D01*
X119021D01*
Y21067D01*
D02*
G37*
G36*
X118519D02*
X117766D01*
Y20816D01*
X118519D01*
Y21067D01*
D02*
G37*
G36*
X117766Y20816D02*
X117013D01*
Y20565D01*
X116510D01*
Y20314D01*
X116008D01*
Y20063D01*
X115757D01*
Y19812D01*
X115506D01*
Y19561D01*
X115255D01*
Y19309D01*
Y19059D01*
Y18808D01*
Y18556D01*
Y18305D01*
Y18054D01*
Y17803D01*
Y17552D01*
Y17301D01*
X115506D01*
Y17050D01*
Y16799D01*
Y16548D01*
Y16297D01*
X115757D01*
Y16046D01*
Y15795D01*
Y15544D01*
X116008D01*
Y15795D01*
Y16046D01*
Y16297D01*
X115757D01*
Y16548D01*
Y16799D01*
Y17050D01*
Y17301D01*
Y17552D01*
X115506D01*
Y17803D01*
Y18054D01*
Y18305D01*
Y18556D01*
Y18808D01*
Y19059D01*
Y19309D01*
X115757D01*
Y19561D01*
X116008D01*
Y19309D01*
X116259D01*
Y19561D01*
X116008D01*
Y19812D01*
X116510D01*
Y20063D01*
X116762D01*
Y20314D01*
X117264D01*
Y20565D01*
X117766D01*
Y20816D01*
D02*
G37*
G36*
X96929Y18305D02*
X96678D01*
Y18054D01*
X96929D01*
Y18305D01*
D02*
G37*
G36*
X128812Y18054D02*
X128561D01*
Y17803D01*
X128812D01*
Y17552D01*
X129565D01*
Y17301D01*
X129816D01*
Y17552D01*
X130067D01*
Y17803D01*
X128812D01*
Y18054D01*
D02*
G37*
G36*
X129816Y18556D02*
X129063D01*
Y18305D01*
X129816D01*
Y18054D01*
X130067D01*
Y17803D01*
X130318D01*
Y17552D01*
Y17301D01*
Y17050D01*
X130569D01*
Y17301D01*
Y17552D01*
Y17803D01*
X130318D01*
Y18054D01*
X130067D01*
Y18305D01*
X129816D01*
Y18556D01*
D02*
G37*
G36*
X115004Y17552D02*
X114753D01*
Y17301D01*
Y17050D01*
X115255D01*
Y17301D01*
X115004D01*
Y17552D01*
D02*
G37*
G36*
X116259Y15293D02*
X116008D01*
Y15042D01*
X116259D01*
Y15293D01*
D02*
G37*
G36*
X117013Y14540D02*
X116762D01*
Y14289D01*
X117013D01*
Y14540D01*
D02*
G37*
G36*
X127807Y14289D02*
X127556D01*
Y14038D01*
X127807D01*
Y14289D01*
D02*
G37*
G36*
X128059Y13535D02*
X127807D01*
Y13284D01*
Y13033D01*
Y12782D01*
X128059D01*
Y13033D01*
Y13284D01*
Y13535D01*
D02*
G37*
G36*
X127305Y11778D02*
X127054D01*
Y11527D01*
X127305D01*
Y11778D01*
D02*
G37*
G36*
X127807Y12280D02*
X127556D01*
Y12029D01*
Y11778D01*
Y11527D01*
X127807D01*
Y11276D01*
X128059D01*
Y11527D01*
X127807D01*
Y11778D01*
Y12029D01*
Y12280D01*
D02*
G37*
G36*
X127556Y11276D02*
X127305D01*
Y11025D01*
Y10774D01*
X127556D01*
Y11025D01*
Y11276D01*
D02*
G37*
G36*
X127305Y10774D02*
X127054D01*
Y10523D01*
Y10272D01*
X127305D01*
Y10523D01*
Y10774D01*
D02*
G37*
G36*
X130067Y9268D02*
X129816D01*
Y9017D01*
X130067D01*
Y9268D01*
D02*
G37*
G36*
X120778D02*
X120527D01*
Y9017D01*
X120778D01*
Y9268D01*
D02*
G37*
G36*
X124795Y9017D02*
X124544D01*
Y8766D01*
X124795D01*
Y9017D01*
D02*
G37*
G36*
X98937Y5753D02*
X98686D01*
Y5502D01*
X98937D01*
Y5753D01*
D02*
G37*
G36*
X114251Y5000D02*
X114000D01*
Y4749D01*
X114251D01*
Y5000D01*
D02*
G37*
G36*
X114502Y4247D02*
X114251D01*
Y3996D01*
X114502D01*
Y4247D01*
D02*
G37*
G36*
X98937Y4749D02*
X98686D01*
Y4498D01*
Y4247D01*
Y3996D01*
X98937D01*
Y4247D01*
Y4498D01*
Y4749D01*
D02*
G37*
G36*
X130569Y3243D02*
X130067D01*
Y2992D01*
X130569D01*
Y3243D01*
D02*
G37*
G36*
X98435Y3996D02*
X98184D01*
Y3745D01*
X98435D01*
Y3494D01*
Y3243D01*
Y2992D01*
X98686D01*
Y3243D01*
Y3494D01*
Y3745D01*
X98435D01*
Y3996D01*
D02*
G37*
G36*
X130569Y2489D02*
X130318D01*
Y2238D01*
X130569D01*
Y2489D01*
D02*
G37*
G36*
X123289Y1736D02*
X123038D01*
Y1485D01*
X123289D01*
Y1736D01*
D02*
G37*
G36*
X98435Y2992D02*
X98184D01*
Y2741D01*
Y2489D01*
X97933D01*
Y2238D01*
Y1987D01*
X97682D01*
Y1736D01*
Y1485D01*
X97431D01*
Y1234D01*
Y983D01*
X97682D01*
Y1234D01*
X97933D01*
Y1485D01*
Y1736D01*
X98184D01*
Y1987D01*
Y2238D01*
X98435D01*
Y2489D01*
Y2741D01*
Y2992D01*
D02*
G37*
G36*
X130318Y983D02*
X130067D01*
Y732D01*
X130318D01*
Y983D01*
D02*
G37*
G36*
X121531Y-4791D02*
X121280D01*
Y-5042D01*
X121531D01*
Y-4791D01*
D02*
G37*
G36*
X125297Y-5293D02*
X125046D01*
Y-5544D01*
X125297D01*
Y-5293D01*
D02*
G37*
G36*
X92159Y-5795D02*
X91908D01*
Y-6046D01*
X92159D01*
Y-5795D01*
D02*
G37*
G36*
X89900Y-6297D02*
X89649D01*
Y-6548D01*
X89900D01*
Y-6297D01*
D02*
G37*
G36*
X91155Y-9561D02*
X90904D01*
Y-9812D01*
X91155D01*
Y-9561D01*
D02*
G37*
G36*
X89147Y-12322D02*
X88896D01*
Y-12573D01*
X89147D01*
Y-12322D01*
D02*
G37*
%LPD*%
D30*
X0Y51181D02*
D03*
D31*
X188081Y51181D02*
D03*
X-188081Y51181D02*
D03*
D32*
X216535Y0D02*
D03*
D33*
X0Y-51181D02*
D03*
D34*
X-216535Y-0D02*
D03*
D35*
X-45669Y15748D02*
D03*
X-49055D02*
D03*
X-42520Y-31496D02*
D03*
X-39134D02*
D03*
X-48819D02*
D03*
X-52205D02*
D03*
X-96732Y3937D02*
D03*
X-100118D02*
D03*
X-92244D02*
D03*
X-88858D02*
D03*
X-92244Y0D02*
D03*
X-88858D02*
D03*
X-100118Y-7874D02*
D03*
X-96732D02*
D03*
Y-11811D02*
D03*
X-100118D02*
D03*
X-92244D02*
D03*
X-88858D02*
D03*
X13504Y19685D02*
D03*
X10118D02*
D03*
Y23622D02*
D03*
X13504D02*
D03*
X10118Y27559D02*
D03*
X13504D02*
D03*
Y39370D02*
D03*
X10118D02*
D03*
X1693D02*
D03*
X-1693D02*
D03*
Y27559D02*
D03*
X1693D02*
D03*
X-1693Y23622D02*
D03*
X1693D02*
D03*
Y19685D02*
D03*
X-1693D02*
D03*
X-10118D02*
D03*
X-13504D02*
D03*
Y23622D02*
D03*
X-10118D02*
D03*
X-13504Y27559D02*
D03*
X-10118D02*
D03*
Y39370D02*
D03*
X-13504D02*
D03*
D36*
X-70866Y-6063D02*
D03*
Y-9449D02*
D03*
Y-12598D02*
D03*
Y-15984D02*
D03*
X-168504Y-21929D02*
D03*
Y-25315D02*
D03*
X-160630Y-21929D02*
D03*
Y-25315D02*
D03*
X168504Y-21929D02*
D03*
Y-25315D02*
D03*
X160630Y-21929D02*
D03*
Y-25315D02*
D03*
X-15748Y-1358D02*
D03*
Y2028D02*
D03*
X59490Y46968D02*
D03*
Y43583D02*
D03*
X54568D02*
D03*
Y46968D02*
D03*
X49744Y-25866D02*
D03*
Y-29252D02*
D03*
X44744Y-25866D02*
D03*
Y-29252D02*
D03*
X39744D02*
D03*
Y-25866D02*
D03*
Y10118D02*
D03*
Y13504D02*
D03*
X64961Y30236D02*
D03*
Y26850D02*
D03*
X29528D02*
D03*
Y30236D02*
D03*
D37*
X-99902Y-3740D02*
D03*
X-96949D02*
D03*
X-98425Y-197D02*
D03*
X-89075Y-4134D02*
D03*
X-92028D02*
D03*
X-90551Y-7677D02*
D03*
X10335Y31693D02*
D03*
X13287D02*
D03*
X11811Y35236D02*
D03*
X-1476Y31693D02*
D03*
X1476D02*
D03*
X0Y35236D02*
D03*
X-13287Y31693D02*
D03*
X-10335D02*
D03*
X-11811Y35236D02*
D03*
D38*
X-15748Y-17323D02*
D03*
Y-11417D02*
D03*
D39*
X-59055Y24213D02*
D03*
Y38780D02*
D03*
X-35433Y24213D02*
D03*
Y38780D02*
D03*
D40*
X-58268Y-24606D02*
D03*
X-55118D02*
D03*
X-51968D02*
D03*
X-48819D02*
D03*
X-45669D02*
D03*
X-42520D02*
D03*
X-39370D02*
D03*
X-36220D02*
D03*
Y8858D02*
D03*
X-39370D02*
D03*
X-42520D02*
D03*
X-45669D02*
D03*
X-48819D02*
D03*
X-51968D02*
D03*
X-55118D02*
D03*
X-58268D02*
D03*
D41*
X-30512Y-18898D02*
D03*
Y-15748D02*
D03*
Y-12598D02*
D03*
Y-9449D02*
D03*
Y-6299D02*
D03*
Y-3150D02*
D03*
Y0D02*
D03*
Y3150D02*
D03*
X-63976D02*
D03*
Y0D02*
D03*
Y-3150D02*
D03*
Y-6299D02*
D03*
Y-9449D02*
D03*
Y-12598D02*
D03*
Y-15748D02*
D03*
Y-18898D02*
D03*
D42*
X0Y-7874D02*
D03*
D43*
X26240Y1122D02*
D03*
Y-16870D02*
D03*
D44*
X44744Y2756D02*
D03*
X39744D02*
D03*
X49744D02*
D03*
X54744D02*
D03*
X44744Y-18504D02*
D03*
X39744D02*
D03*
X49744D02*
D03*
X54744D02*
D03*
D45*
X58268Y31496D02*
D03*
X36220D02*
D03*
D46*
X69529Y70472D02*
D03*
X24844D02*
D03*
X-24959D02*
D03*
X-69644D02*
D03*
D47*
X54568Y59055D02*
D03*
X59490D02*
D03*
X49647D02*
D03*
X39805D02*
D03*
X44726D02*
D03*
X34883D02*
D03*
X-39920D02*
D03*
X-34998D02*
D03*
X-44841D02*
D03*
X-54684D02*
D03*
X-49762D02*
D03*
X-59605D02*
D03*
D48*
X164567Y-9646D02*
D03*
Y49409D02*
D03*
X-164567Y-9646D02*
D03*
Y49409D02*
D03*
D49*
X3150Y72638D02*
D03*
X-3150D02*
D03*
Y69095D02*
D03*
X3150D02*
D03*
D50*
X-208661Y43307D02*
D03*
Y-43307D02*
D03*
X208661D02*
D03*
Y43307D02*
D03*
D51*
X-90552Y51181D02*
D03*
X-98426D02*
D03*
X-94489D02*
D03*
X-106300D02*
D03*
X-102363D02*
D03*
X-114174D02*
D03*
X-110237D02*
D03*
X-122048D02*
D03*
X-118111D02*
D03*
X-129922D02*
D03*
X-125985D02*
D03*
X-137796D02*
D03*
X-133859D02*
D03*
X-145670D02*
D03*
X-141733D02*
D03*
X-149607D02*
D03*
X-157481D02*
D03*
X-153544D02*
D03*
X-169292D02*
D03*
X-173229D02*
D03*
X-177166D02*
D03*
X-181103D02*
D03*
X-185040D02*
D03*
X-188977D02*
D03*
X-200788D02*
D03*
X-192914D02*
D03*
X-196851D02*
D03*
X90551D02*
D03*
X94488D02*
D03*
X98425D02*
D03*
X102362D02*
D03*
X106299D02*
D03*
X110236D02*
D03*
X114173D02*
D03*
X118110D02*
D03*
X122047D02*
D03*
X125984D02*
D03*
X129921D02*
D03*
X133858D02*
D03*
X137795D02*
D03*
X141732D02*
D03*
X145669D02*
D03*
X157480D02*
D03*
X149606D02*
D03*
X153543D02*
D03*
X200787D02*
D03*
X169291D02*
D03*
X173228D02*
D03*
X177165D02*
D03*
X181102D02*
D03*
X185039D02*
D03*
X188976D02*
D03*
X192913D02*
D03*
X196850D02*
D03*
X216535Y-35433D02*
D03*
Y27559D02*
D03*
Y31496D02*
D03*
Y35433D02*
D03*
Y11811D02*
D03*
Y15748D02*
D03*
Y19685D02*
D03*
Y23622D02*
D03*
Y-3937D02*
D03*
Y0D02*
D03*
Y3937D02*
D03*
Y7874D02*
D03*
Y-19685D02*
D03*
Y-15748D02*
D03*
Y-11811D02*
D03*
Y-7874D02*
D03*
Y-31496D02*
D03*
Y-27559D02*
D03*
Y-23622D02*
D03*
X-216535Y-35433D02*
D03*
Y-23622D02*
D03*
Y-27559D02*
D03*
Y-31496D02*
D03*
Y-7874D02*
D03*
Y-11811D02*
D03*
Y-15748D02*
D03*
Y-19685D02*
D03*
Y7874D02*
D03*
Y3937D02*
D03*
Y-0D02*
D03*
Y-3937D02*
D03*
Y23622D02*
D03*
Y19685D02*
D03*
Y15748D02*
D03*
Y11811D02*
D03*
Y35433D02*
D03*
Y31496D02*
D03*
Y27559D02*
D03*
X-196850Y-51181D02*
D03*
X-192913D02*
D03*
X-188976D02*
D03*
X-200787D02*
D03*
X-122047D02*
D03*
X-118110D02*
D03*
X-114173D02*
D03*
X-137795D02*
D03*
X-133858D02*
D03*
X-129921D02*
D03*
X-125984D02*
D03*
X-153543D02*
D03*
X-149606D02*
D03*
X-145669D02*
D03*
X-141732D02*
D03*
X-169291D02*
D03*
X-165354D02*
D03*
X-161417D02*
D03*
X-157480D02*
D03*
X-185039D02*
D03*
X-181102D02*
D03*
X-177165D02*
D03*
X-173228D02*
D03*
X-47244D02*
D03*
X-43307D02*
D03*
X-39370D02*
D03*
X-62992D02*
D03*
X-59055D02*
D03*
X-55118D02*
D03*
X-51181D02*
D03*
X-78740D02*
D03*
X-74803D02*
D03*
X-70866D02*
D03*
X-66929D02*
D03*
X-94488D02*
D03*
X-90551D02*
D03*
X-86614D02*
D03*
X-82677D02*
D03*
X-110236D02*
D03*
X-106299D02*
D03*
X-102362D02*
D03*
X-98425D02*
D03*
X173228D02*
D03*
X169291D02*
D03*
X165354D02*
D03*
X188976D02*
D03*
X185039D02*
D03*
X181102D02*
D03*
X177165D02*
D03*
X200787D02*
D03*
X196850D02*
D03*
X192913D02*
D03*
X98425D02*
D03*
X94488D02*
D03*
X90551D02*
D03*
X114173D02*
D03*
X110236D02*
D03*
X106299D02*
D03*
X102362D02*
D03*
X129921D02*
D03*
X125984D02*
D03*
X122047D02*
D03*
X118110D02*
D03*
X145669D02*
D03*
X141732D02*
D03*
X137795D02*
D03*
X133858D02*
D03*
X161417D02*
D03*
X157480D02*
D03*
X153543D02*
D03*
X149606D02*
D03*
X74803D02*
D03*
X78740D02*
D03*
X82677D02*
D03*
X86614D02*
D03*
X59055D02*
D03*
X62992D02*
D03*
X66929D02*
D03*
X70866D02*
D03*
X43307D02*
D03*
X47244D02*
D03*
X51181D02*
D03*
X55118D02*
D03*
X27559D02*
D03*
X31496D02*
D03*
X35433D02*
D03*
X39370D02*
D03*
X11811D02*
D03*
X15748D02*
D03*
X19685D02*
D03*
X23622D02*
D03*
X-3937D02*
D03*
X0D02*
D03*
X3937D02*
D03*
X7874D02*
D03*
X-19685D02*
D03*
X-15748D02*
D03*
X-11811D02*
D03*
X-7874D02*
D03*
X-23622D02*
D03*
X-27559D02*
D03*
X-31496D02*
D03*
X-35433D02*
D03*
M02*
