G04*
G04 #@! TF.GenerationSoftware,Altium Limited,Altium Designer,23.3.1 (30)*
G04*
G04 Layer_Color=255*
%FSLAX25Y25*%
%MOIN*%
G70*
G04*
G04 #@! TF.SameCoordinates,AEED621E-3CD5-435C-AC93-41C8B311E913*
G04*
G04*
G04 #@! TF.FilePolarity,Positive*
G04*
G01*
G75*
%ADD53C,0.19685*%
%ADD54C,0.02953*%
D53*
X-208661Y43307D02*
D03*
Y-43307D02*
D03*
X208661D02*
D03*
Y43307D02*
D03*
D54*
X-90552Y51181D02*
D03*
X-98426D02*
D03*
X-94489D02*
D03*
X-106300D02*
D03*
X-102363D02*
D03*
X-114174D02*
D03*
X-110237D02*
D03*
X-122048D02*
D03*
X-118111D02*
D03*
X-129922D02*
D03*
X-125985D02*
D03*
X-137796D02*
D03*
X-133859D02*
D03*
X-145670D02*
D03*
X-141733D02*
D03*
X-149607D02*
D03*
X-157481D02*
D03*
X-153544D02*
D03*
X-169292D02*
D03*
X-173229D02*
D03*
X-177166D02*
D03*
X-181103D02*
D03*
X-185040D02*
D03*
X-188977D02*
D03*
X-200788D02*
D03*
X-192914D02*
D03*
X-196851D02*
D03*
X90551D02*
D03*
X94488D02*
D03*
X98425D02*
D03*
X102362D02*
D03*
X106299D02*
D03*
X110236D02*
D03*
X114173D02*
D03*
X118110D02*
D03*
X122047D02*
D03*
X125984D02*
D03*
X129921D02*
D03*
X133858D02*
D03*
X137795D02*
D03*
X141732D02*
D03*
X145669D02*
D03*
X157480D02*
D03*
X149606D02*
D03*
X153543D02*
D03*
X200787D02*
D03*
X169291D02*
D03*
X173228D02*
D03*
X177165D02*
D03*
X181102D02*
D03*
X185039D02*
D03*
X188976D02*
D03*
X192913D02*
D03*
X196850D02*
D03*
X216535Y-35433D02*
D03*
Y27559D02*
D03*
Y31496D02*
D03*
Y35433D02*
D03*
Y11811D02*
D03*
Y15748D02*
D03*
Y19685D02*
D03*
Y23622D02*
D03*
Y-3937D02*
D03*
Y0D02*
D03*
Y3937D02*
D03*
Y7874D02*
D03*
Y-19685D02*
D03*
Y-15748D02*
D03*
Y-11811D02*
D03*
Y-7874D02*
D03*
Y-31496D02*
D03*
Y-27559D02*
D03*
Y-23622D02*
D03*
X-216535Y-35433D02*
D03*
Y-23622D02*
D03*
Y-27559D02*
D03*
Y-31496D02*
D03*
Y-7874D02*
D03*
Y-11811D02*
D03*
Y-15748D02*
D03*
Y-19685D02*
D03*
Y7874D02*
D03*
Y3937D02*
D03*
Y-0D02*
D03*
Y-3937D02*
D03*
Y23622D02*
D03*
Y19685D02*
D03*
Y15748D02*
D03*
Y11811D02*
D03*
Y35433D02*
D03*
Y31496D02*
D03*
Y27559D02*
D03*
X-196850Y-51181D02*
D03*
X-192913D02*
D03*
X-188976D02*
D03*
X-200787D02*
D03*
X-122047D02*
D03*
X-118110D02*
D03*
X-114173D02*
D03*
X-137795D02*
D03*
X-133858D02*
D03*
X-129921D02*
D03*
X-125984D02*
D03*
X-153543D02*
D03*
X-149606D02*
D03*
X-145669D02*
D03*
X-141732D02*
D03*
X-169291D02*
D03*
X-165354D02*
D03*
X-161417D02*
D03*
X-157480D02*
D03*
X-185039D02*
D03*
X-181102D02*
D03*
X-177165D02*
D03*
X-173228D02*
D03*
X-47244D02*
D03*
X-43307D02*
D03*
X-39370D02*
D03*
X-62992D02*
D03*
X-59055D02*
D03*
X-55118D02*
D03*
X-51181D02*
D03*
X-78740D02*
D03*
X-74803D02*
D03*
X-70866D02*
D03*
X-66929D02*
D03*
X-94488D02*
D03*
X-90551D02*
D03*
X-86614D02*
D03*
X-82677D02*
D03*
X-110236D02*
D03*
X-106299D02*
D03*
X-102362D02*
D03*
X-98425D02*
D03*
X173228D02*
D03*
X169291D02*
D03*
X165354D02*
D03*
X188976D02*
D03*
X185039D02*
D03*
X181102D02*
D03*
X177165D02*
D03*
X200787D02*
D03*
X196850D02*
D03*
X192913D02*
D03*
X98425D02*
D03*
X94488D02*
D03*
X90551D02*
D03*
X114173D02*
D03*
X110236D02*
D03*
X106299D02*
D03*
X102362D02*
D03*
X129921D02*
D03*
X125984D02*
D03*
X122047D02*
D03*
X118110D02*
D03*
X145669D02*
D03*
X141732D02*
D03*
X137795D02*
D03*
X133858D02*
D03*
X161417D02*
D03*
X157480D02*
D03*
X153543D02*
D03*
X149606D02*
D03*
X74803D02*
D03*
X78740D02*
D03*
X82677D02*
D03*
X86614D02*
D03*
X59055D02*
D03*
X62992D02*
D03*
X66929D02*
D03*
X70866D02*
D03*
X43307D02*
D03*
X47244D02*
D03*
X51181D02*
D03*
X55118D02*
D03*
X27559D02*
D03*
X31496D02*
D03*
X35433D02*
D03*
X39370D02*
D03*
X11811D02*
D03*
X15748D02*
D03*
X19685D02*
D03*
X23622D02*
D03*
X-3937D02*
D03*
X0D02*
D03*
X3937D02*
D03*
X7874D02*
D03*
X-19685D02*
D03*
X-15748D02*
D03*
X-11811D02*
D03*
X-7874D02*
D03*
X-23622D02*
D03*
X-27559D02*
D03*
X-31496D02*
D03*
X-35433D02*
D03*
M02*
