G04*
G04 #@! TF.GenerationSoftware,Altium Limited,Altium Designer,23.3.1 (30)*
G04*
G04 Layer_Physical_Order=2*
G04 Layer_Color=36540*
%FSLAX25Y25*%
%MOIN*%
G70*
G04*
G04 #@! TF.SameCoordinates,AEED621E-3CD5-435C-AC93-41C8B311E913*
G04*
G04*
G04 #@! TF.FilePolarity,Positive*
G04*
G01*
G75*
%ADD11C,0.01575*%
%ADD52C,0.01181*%
%ADD53C,0.19685*%
%ADD54C,0.02953*%
%ADD55C,0.01968*%
G36*
X75563Y77737D02*
X76240D01*
X77567Y77473D01*
X78817Y76955D01*
X79943Y76203D01*
X80900Y75246D01*
X81652Y74121D01*
X82170Y72870D01*
X82433Y71543D01*
X82433Y70866D01*
X82433Y62992D01*
X82438Y62968D01*
X82435Y62943D01*
X82473Y62171D01*
X82491Y62099D01*
Y62024D01*
X82792Y60511D01*
X82830Y60419D01*
X82849Y60322D01*
X83440Y58896D01*
X83495Y58814D01*
X83532Y58723D01*
X84390Y57439D01*
X84460Y57370D01*
X84515Y57287D01*
X85606Y56196D01*
X85688Y56141D01*
X85758Y56071D01*
X87042Y55213D01*
X87133Y55176D01*
X87215Y55121D01*
X88641Y54530D01*
X88738Y54511D01*
X88829Y54473D01*
X90343Y54172D01*
X90418D01*
X90490Y54154D01*
X91262Y54116D01*
X91286Y54119D01*
X91311Y54115D01*
X209370D01*
X210774Y53930D01*
X212143Y53563D01*
X213452Y53021D01*
X214679Y52312D01*
X215803Y51450D01*
X216804Y50448D01*
X217667Y49324D01*
X218375Y48097D01*
X218917Y46788D01*
X219284Y45420D01*
X219469Y44015D01*
X219469Y43307D01*
X219469Y-43307D01*
Y-44015D01*
X219284Y-45420D01*
X218917Y-46788D01*
X218375Y-48097D01*
X217667Y-49324D01*
X216804Y-50448D01*
X215803Y-51450D01*
X214679Y-52312D01*
X213452Y-53021D01*
X212143Y-53563D01*
X210774Y-53930D01*
X209370Y-54115D01*
X208661Y-54115D01*
X-208661Y-54115D01*
X-209370D01*
X-210774Y-53930D01*
X-212143Y-53563D01*
X-213452Y-53021D01*
X-214679Y-52312D01*
X-215803Y-51450D01*
X-216804Y-50448D01*
X-217667Y-49324D01*
X-218375Y-48097D01*
X-218917Y-46788D01*
X-219284Y-45420D01*
X-219469Y-44015D01*
X-219469Y-43307D01*
X-219469Y43307D01*
Y44015D01*
X-219284Y45420D01*
X-218917Y46788D01*
X-218375Y48097D01*
X-217667Y49324D01*
X-216804Y50448D01*
X-215803Y51450D01*
X-214679Y52312D01*
X-213452Y53021D01*
X-212143Y53563D01*
X-210774Y53930D01*
X-209370Y54115D01*
X-208661Y54115D01*
X-90551D01*
X-90527Y54119D01*
X-90502Y54116D01*
X-89730Y54154D01*
X-89658Y54172D01*
X-89584D01*
X-88070Y54473D01*
X-87978Y54511D01*
X-87881Y54530D01*
X-86455Y55121D01*
X-86373Y55176D01*
X-86282Y55213D01*
X-84999Y56071D01*
X-84929Y56141D01*
X-84846Y56196D01*
X-83755Y57287D01*
X-83700Y57370D01*
X-83630Y57439D01*
X-82773Y58723D01*
X-82735Y58814D01*
X-82680Y58896D01*
X-82089Y60322D01*
X-82070Y60419D01*
X-82032Y60511D01*
X-81731Y62025D01*
Y62099D01*
X-81713Y62171D01*
X-81675Y62943D01*
X-81679Y62968D01*
X-81674Y62992D01*
X-81674Y71543D01*
X-81410Y72870D01*
X-80892Y74121D01*
X-80140Y75246D01*
X-79183Y76203D01*
X-78058Y76955D01*
X-76807Y77473D01*
X-75480Y77737D01*
X-74803Y77737D01*
X75563Y77737D01*
D02*
G37*
%LPC*%
G36*
X59646Y67716D02*
X59333D01*
X59044Y67597D01*
X58822Y67375D01*
X58702Y67086D01*
Y66773D01*
X58822Y66483D01*
X59044Y66262D01*
X59333Y66142D01*
X59646D01*
X59936Y66262D01*
X60157Y66483D01*
X60277Y66773D01*
Y67086D01*
X60157Y67375D01*
X59936Y67597D01*
X59646Y67716D01*
D02*
G37*
G36*
X-34842D02*
X-35155D01*
X-35445Y67597D01*
X-35666Y67375D01*
X-35786Y67086D01*
Y66773D01*
X-35666Y66483D01*
X-35445Y66262D01*
X-35155Y66142D01*
X-34842D01*
X-34552Y66262D01*
X-34331Y66483D01*
X-34211Y66773D01*
Y67086D01*
X-34331Y67375D01*
X-34552Y67597D01*
X-34842Y67716D01*
D02*
G37*
G36*
X-7717Y65158D02*
X-8031D01*
X-8320Y65038D01*
X-8541Y64816D01*
X-8661Y64527D01*
Y64214D01*
X-8541Y63924D01*
X-8320Y63703D01*
X-8031Y63583D01*
X-7717D01*
X-7428Y63703D01*
X-7207Y63924D01*
X-7087Y64214D01*
Y64527D01*
X-7207Y64816D01*
X-7428Y65038D01*
X-7717Y65158D01*
D02*
G37*
G36*
X-39646Y68307D02*
X-40194D01*
X-40700Y68097D01*
X-41088Y67710D01*
X-41298Y67203D01*
Y66655D01*
X-41088Y66149D01*
X-40976Y66037D01*
X-40977Y66031D01*
X-40972Y66018D01*
X-40972Y66013D01*
X-40968Y66005D01*
X-40963Y65986D01*
X-40958Y65958D01*
X-40937Y65646D01*
X-40936Y65547D01*
X-40923Y65517D01*
Y46996D01*
X-41385Y46804D01*
X-43837Y49257D01*
Y65517D01*
X-43824Y65547D01*
X-43823Y65652D01*
X-43816Y65825D01*
X-43803Y65951D01*
X-43797Y65986D01*
X-43793Y66005D01*
X-43789Y66013D01*
X-43788Y66018D01*
X-43784Y66031D01*
X-43784Y66037D01*
X-43673Y66149D01*
X-43463Y66655D01*
Y67203D01*
X-43673Y67710D01*
X-44060Y68097D01*
X-44567Y68307D01*
X-45115D01*
X-45621Y68097D01*
X-46009Y67710D01*
X-46219Y67203D01*
Y66655D01*
X-46009Y66149D01*
X-45898Y66037D01*
X-45898Y66031D01*
X-45893Y66018D01*
X-45893Y66013D01*
X-45889Y66005D01*
X-45884Y65986D01*
X-45880Y65958D01*
X-45858Y65646D01*
X-45858Y65547D01*
X-45845Y65517D01*
Y49471D01*
X-46345Y49264D01*
X-48759Y51678D01*
Y65517D01*
X-48746Y65547D01*
X-48745Y65652D01*
X-48737Y65825D01*
X-48725Y65951D01*
X-48719Y65986D01*
X-48714Y66005D01*
X-48710Y66013D01*
X-48710Y66018D01*
X-48705Y66031D01*
X-48706Y66037D01*
X-48594Y66149D01*
X-48384Y66655D01*
Y67203D01*
X-48594Y67710D01*
X-48982Y68097D01*
X-49488Y68307D01*
X-50036D01*
X-50543Y68097D01*
X-50930Y67710D01*
X-51140Y67203D01*
Y66655D01*
X-50930Y66149D01*
X-50819Y66037D01*
X-50819Y66031D01*
X-50815Y66018D01*
X-50814Y66013D01*
X-50810Y66005D01*
X-50806Y65986D01*
X-50801Y65958D01*
X-50780Y65646D01*
X-50779Y65547D01*
X-50766Y65517D01*
Y51262D01*
X-50689Y50878D01*
X-50472Y50553D01*
X-37224Y37305D01*
Y14208D01*
X-37237Y14177D01*
X-37238Y14073D01*
X-37245Y13900D01*
X-37258Y13773D01*
X-37264Y13739D01*
X-37269Y13719D01*
X-37273Y13712D01*
X-37273Y13707D01*
X-37277Y13693D01*
X-37277Y13687D01*
X-37389Y13576D01*
X-37598Y13069D01*
Y12521D01*
X-37389Y12015D01*
X-37001Y11627D01*
X-36495Y11417D01*
X-35946D01*
X-35504Y11601D01*
X-35228Y11496D01*
X-35004Y11356D01*
Y4500D01*
X-34927Y4116D01*
X-34710Y3790D01*
X-30210Y-710D01*
X-29884Y-927D01*
X-29500Y-1003D01*
X-27988D01*
X-27957Y-1017D01*
X-27852Y-1018D01*
X-27679Y-1025D01*
X-27553Y-1038D01*
X-27518Y-1044D01*
X-27499Y-1048D01*
X-27491Y-1052D01*
X-27486Y-1052D01*
X-27473Y-1057D01*
X-27467Y-1057D01*
X-27355Y-1168D01*
X-27014Y-1310D01*
Y-1840D01*
X-27355Y-1981D01*
X-27743Y-2369D01*
X-27953Y-2875D01*
Y-3424D01*
X-27743Y-3930D01*
X-27355Y-4318D01*
X-27014Y-4459D01*
Y-4989D01*
X-27355Y-5131D01*
X-27743Y-5519D01*
X-27953Y-6025D01*
Y-6573D01*
X-27743Y-7080D01*
X-27355Y-7467D01*
X-27014Y-7609D01*
Y-8139D01*
X-27355Y-8281D01*
X-27743Y-8668D01*
X-27953Y-9175D01*
Y-9723D01*
X-27743Y-10229D01*
X-27355Y-10617D01*
X-26849Y-10827D01*
X-26301D01*
X-25794Y-10617D01*
X-25538Y-10361D01*
X-25517Y-10351D01*
X-25515Y-10350D01*
X-25512Y-10350D01*
X-25511Y-10349D01*
X-25506Y-10347D01*
X-25475Y-10340D01*
X-25436Y-10334D01*
X-25196Y-10316D01*
X-25099Y-10315D01*
X-25068Y-10302D01*
X-25047D01*
X-25021Y-10307D01*
X-25014Y-10302D01*
X-24798D01*
X-24414Y-10225D01*
X-24089Y-10008D01*
X-17216Y-3135D01*
X-16998Y-2809D01*
X-16922Y-2425D01*
Y705D01*
X-7205Y10422D01*
X11425D01*
X11809Y10498D01*
X12135Y10716D01*
X14213Y12794D01*
X14431Y13120D01*
X14507Y13504D01*
Y14335D01*
X14521Y14366D01*
X14522Y14470D01*
X14529Y14643D01*
X14541Y14770D01*
X14547Y14805D01*
X14552Y14824D01*
X14556Y14832D01*
X14556Y14837D01*
X14561Y14850D01*
X14560Y14856D01*
X14672Y14967D01*
X14882Y15474D01*
Y16022D01*
X14672Y16529D01*
X14285Y16916D01*
X13778Y17126D01*
X13230D01*
X12723Y16916D01*
X12336Y16529D01*
X12126Y16022D01*
Y15474D01*
X12336Y14967D01*
X12447Y14856D01*
X12447Y14850D01*
X12451Y14837D01*
X12452Y14832D01*
X12456Y14824D01*
X12460Y14805D01*
X12465Y14777D01*
X12486Y14465D01*
X12487Y14366D01*
X12500Y14335D01*
Y13920D01*
X11010Y12429D01*
X2501D01*
X2310Y12891D01*
X2403Y12983D01*
X2620Y13309D01*
X2696Y13693D01*
Y14335D01*
X2710Y14366D01*
X2710Y14470D01*
X2718Y14643D01*
X2730Y14770D01*
X2736Y14805D01*
X2741Y14824D01*
X2745Y14832D01*
X2745Y14837D01*
X2750Y14850D01*
X2750Y14856D01*
X2861Y14967D01*
X3071Y15474D01*
Y16022D01*
X2861Y16529D01*
X2473Y16916D01*
X1967Y17126D01*
X1419D01*
X912Y16916D01*
X525Y16529D01*
X315Y16022D01*
Y15474D01*
X525Y14967D01*
X636Y14856D01*
X636Y14850D01*
X641Y14837D01*
X641Y14832D01*
X645Y14824D01*
X649Y14805D01*
X654Y14777D01*
X675Y14465D01*
X341Y14004D01*
X-8273D01*
X-8615Y13936D01*
X-8682Y13943D01*
X-9115Y14223D01*
Y14335D01*
X-9101Y14366D01*
X-9100Y14470D01*
X-9093Y14643D01*
X-9081Y14770D01*
X-9075Y14805D01*
X-9070Y14824D01*
X-9066Y14832D01*
X-9066Y14837D01*
X-9061Y14850D01*
X-9061Y14856D01*
X-8950Y14967D01*
X-8740Y15474D01*
Y16022D01*
X-8950Y16529D01*
X-9338Y16916D01*
X-9844Y17126D01*
X-10392D01*
X-10899Y16916D01*
X-11286Y16529D01*
X-11496Y16022D01*
Y15474D01*
X-11286Y14967D01*
X-11175Y14856D01*
X-11175Y14850D01*
X-11170Y14837D01*
X-11170Y14832D01*
X-11166Y14824D01*
X-11162Y14805D01*
X-11157Y14777D01*
X-11136Y14465D01*
X-11135Y14366D01*
X-11122Y14335D01*
Y13798D01*
X-21784Y3135D01*
X-22002Y2809D01*
X-22078Y2425D01*
Y-659D01*
X-23565Y-2146D01*
X-25162D01*
X-25193Y-2133D01*
X-25297Y-2132D01*
X-25470Y-2125D01*
X-25597Y-2112D01*
X-25631Y-2106D01*
X-25651Y-2101D01*
X-25659Y-2097D01*
X-25663Y-2097D01*
X-25677Y-2093D01*
X-25683Y-2093D01*
X-25794Y-1981D01*
X-26136Y-1840D01*
Y-1310D01*
X-25794Y-1168D01*
X-25407Y-781D01*
X-25197Y-274D01*
Y274D01*
X-25407Y781D01*
X-25794Y1168D01*
X-26136Y1310D01*
Y1840D01*
X-25794Y1981D01*
X-25407Y2369D01*
X-25197Y2875D01*
Y3424D01*
X-25407Y3930D01*
X-25794Y4318D01*
X-26301Y4528D01*
X-26849D01*
X-27355Y4318D01*
X-27467Y4206D01*
X-27473Y4207D01*
X-27486Y4202D01*
X-27491Y4202D01*
X-27499Y4198D01*
X-27518Y4193D01*
X-27545Y4188D01*
X-27858Y4167D01*
X-27957Y4166D01*
X-27988Y4153D01*
X-30007D01*
X-31422Y5568D01*
Y38652D01*
X-31498Y39036D01*
X-31716Y39362D01*
X-38916Y46562D01*
Y65517D01*
X-38903Y65547D01*
X-38902Y65652D01*
X-38895Y65825D01*
X-38882Y65951D01*
X-38876Y65986D01*
X-38871Y66005D01*
X-38868Y66013D01*
X-38867Y66018D01*
X-38863Y66031D01*
X-38863Y66037D01*
X-38752Y66149D01*
X-38542Y66655D01*
Y67203D01*
X-38752Y67710D01*
X-39139Y68097D01*
X-39646Y68307D01*
D02*
G37*
G36*
X209670Y53543D02*
X209055D01*
Y43701D01*
X218898D01*
Y44315D01*
X218504Y46293D01*
X217733Y48156D01*
X216612Y49832D01*
X215187Y51258D01*
X213510Y52378D01*
X211647Y53150D01*
X209670Y53543D01*
D02*
G37*
G36*
X208268D02*
X207653D01*
X205676Y53150D01*
X203813Y52378D01*
X202136Y51258D01*
X200710Y49832D01*
X199590Y48156D01*
X198819Y46293D01*
X198425Y44315D01*
Y43701D01*
X208268D01*
Y53543D01*
D02*
G37*
G36*
X-207653D02*
X-208268D01*
Y43701D01*
X-198425D01*
Y44315D01*
X-198819Y46293D01*
X-199590Y48156D01*
X-200710Y49832D01*
X-202136Y51258D01*
X-203813Y52378D01*
X-205676Y53150D01*
X-207653Y53543D01*
D02*
G37*
G36*
X-209055D02*
X-209670D01*
X-211647Y53150D01*
X-213510Y52378D01*
X-215187Y51258D01*
X-216612Y49832D01*
X-217733Y48156D01*
X-218504Y46293D01*
X-218898Y44315D01*
Y43701D01*
X-209055D01*
Y53543D01*
D02*
G37*
G36*
X8148Y65748D02*
X7600D01*
X7094Y65538D01*
X6706Y65151D01*
X6496Y64644D01*
Y64096D01*
X6706Y63590D01*
X6817Y63478D01*
X6817Y63472D01*
X6822Y63459D01*
X6822Y63454D01*
X6826Y63446D01*
X6831Y63427D01*
X6835Y63399D01*
X6857Y63086D01*
X6857Y62988D01*
X6870Y62957D01*
Y55126D01*
X6947Y54742D01*
X7164Y54416D01*
X12500Y49080D01*
Y44720D01*
X12487Y44689D01*
X12486Y44585D01*
X12479Y44412D01*
X12466Y44285D01*
X12460Y44251D01*
X12456Y44231D01*
X12452Y44223D01*
X12451Y44219D01*
X12447Y44205D01*
X12447Y44199D01*
X12336Y44088D01*
X12126Y43581D01*
Y43033D01*
X12336Y42527D01*
X12723Y42139D01*
X13230Y41929D01*
X13778D01*
X14285Y42139D01*
X14672Y42527D01*
X14882Y43033D01*
Y43581D01*
X14672Y44088D01*
X14560Y44199D01*
X14561Y44205D01*
X14556Y44219D01*
X14556Y44223D01*
X14552Y44231D01*
X14547Y44251D01*
X14543Y44278D01*
X14522Y44591D01*
X14521Y44689D01*
X14507Y44720D01*
Y49496D01*
X14431Y49880D01*
X14213Y50206D01*
X8878Y55542D01*
Y62957D01*
X8891Y62988D01*
X8892Y63092D01*
X8899Y63265D01*
X8912Y63392D01*
X8918Y63427D01*
X8922Y63446D01*
X8926Y63454D01*
X8926Y63459D01*
X8931Y63472D01*
X8931Y63478D01*
X9042Y63590D01*
X9252Y64096D01*
Y64644D01*
X9042Y65151D01*
X8655Y65538D01*
X8148Y65748D01*
D02*
G37*
G36*
X3424D02*
X2875D01*
X2369Y65538D01*
X1981Y65151D01*
X1772Y64644D01*
Y64096D01*
X1981Y63590D01*
X2093Y63478D01*
X2093Y63472D01*
X2097Y63459D01*
X2097Y63454D01*
X2101Y63446D01*
X2106Y63427D01*
X2111Y63399D01*
X2132Y63086D01*
X2133Y62988D01*
X2146Y62957D01*
Y51065D01*
X983Y49902D01*
X766Y49577D01*
X689Y49193D01*
Y44720D01*
X676Y44689D01*
X675Y44585D01*
X668Y44412D01*
X655Y44285D01*
X649Y44251D01*
X645Y44231D01*
X641Y44223D01*
X641Y44219D01*
X636Y44205D01*
X636Y44199D01*
X525Y44088D01*
X315Y43581D01*
Y43033D01*
X525Y42527D01*
X912Y42139D01*
X1419Y41929D01*
X1967D01*
X2473Y42139D01*
X2861Y42527D01*
X3071Y43033D01*
Y43581D01*
X2861Y44088D01*
X2750Y44199D01*
X2750Y44205D01*
X2745Y44219D01*
X2745Y44223D01*
X2741Y44231D01*
X2736Y44251D01*
X2732Y44278D01*
X2710Y44591D01*
X2710Y44689D01*
X2696Y44720D01*
Y48777D01*
X3859Y49940D01*
X4077Y50266D01*
X4153Y50650D01*
Y62957D01*
X4166Y62988D01*
X4167Y63092D01*
X4174Y63265D01*
X4187Y63392D01*
X4193Y63427D01*
X4198Y63446D01*
X4202Y63454D01*
X4202Y63459D01*
X4207Y63472D01*
X4206Y63478D01*
X4318Y63590D01*
X4528Y64096D01*
Y64644D01*
X4318Y65151D01*
X3930Y65538D01*
X3424Y65748D01*
D02*
G37*
G36*
X-2875D02*
X-3424D01*
X-3930Y65538D01*
X-4318Y65151D01*
X-4528Y64644D01*
Y64096D01*
X-4318Y63590D01*
X-4206Y63478D01*
X-4207Y63472D01*
X-4202Y63459D01*
X-4202Y63454D01*
X-4198Y63446D01*
X-4193Y63427D01*
X-4188Y63399D01*
X-4167Y63086D01*
X-4166Y62988D01*
X-4153Y62957D01*
Y56766D01*
X-10828Y50091D01*
X-11045Y49766D01*
X-11122Y49382D01*
Y44720D01*
X-11135Y44689D01*
X-11136Y44585D01*
X-11143Y44412D01*
X-11156Y44285D01*
X-11162Y44251D01*
X-11166Y44231D01*
X-11170Y44223D01*
X-11170Y44219D01*
X-11175Y44205D01*
X-11175Y44199D01*
X-11286Y44088D01*
X-11496Y43581D01*
Y43033D01*
X-11286Y42527D01*
X-10899Y42139D01*
X-10392Y41929D01*
X-9844D01*
X-9338Y42139D01*
X-8950Y42527D01*
X-8740Y43033D01*
Y43581D01*
X-8950Y44088D01*
X-9061Y44199D01*
X-9061Y44205D01*
X-9066Y44219D01*
X-9066Y44223D01*
X-9070Y44231D01*
X-9075Y44251D01*
X-9079Y44278D01*
X-9101Y44591D01*
X-9101Y44689D01*
X-9115Y44720D01*
Y48966D01*
X-2440Y55641D01*
X-2222Y55966D01*
X-2146Y56350D01*
Y62957D01*
X-2133Y62988D01*
X-2132Y63092D01*
X-2125Y63265D01*
X-2112Y63392D01*
X-2106Y63427D01*
X-2101Y63446D01*
X-2097Y63454D01*
X-2097Y63459D01*
X-2093Y63472D01*
X-2093Y63478D01*
X-1981Y63590D01*
X-1772Y64096D01*
Y64644D01*
X-1981Y65151D01*
X-2369Y65538D01*
X-2875Y65748D01*
D02*
G37*
G36*
X218898Y42913D02*
X209055D01*
Y33071D01*
X209670D01*
X211647Y33464D01*
X213510Y34236D01*
X215187Y35356D01*
X216612Y36782D01*
X217733Y38458D01*
X218504Y40321D01*
X218898Y42299D01*
Y42913D01*
D02*
G37*
G36*
X208268D02*
X198425D01*
Y42299D01*
X198819Y40321D01*
X199590Y38458D01*
X200710Y36782D01*
X202136Y35356D01*
X203813Y34236D01*
X205676Y33464D01*
X207653Y33071D01*
X208268D01*
Y42913D01*
D02*
G37*
G36*
X-198425D02*
X-208268D01*
Y33071D01*
X-207653D01*
X-205676Y33464D01*
X-203813Y34236D01*
X-202136Y35356D01*
X-200710Y36782D01*
X-199590Y38458D01*
X-198819Y40321D01*
X-198425Y42299D01*
Y42913D01*
D02*
G37*
G36*
X-209055D02*
X-218898D01*
Y42299D01*
X-218504Y40321D01*
X-217733Y38458D01*
X-216612Y36782D01*
X-215187Y35356D01*
X-213510Y34236D01*
X-211647Y33464D01*
X-209670Y33071D01*
X-209055D01*
Y42913D01*
D02*
G37*
G36*
X69054Y31024D02*
X68741D01*
X68452Y30904D01*
X68230Y30682D01*
X68110Y30393D01*
Y30080D01*
X68230Y29790D01*
X68452Y29569D01*
X68741Y29449D01*
X69054D01*
X69344Y29569D01*
X69565Y29790D01*
X69685Y30080D01*
Y30393D01*
X69565Y30682D01*
X69344Y30904D01*
X69054Y31024D01*
D02*
G37*
G36*
X-54844Y14173D02*
X-55392D01*
X-55899Y13963D01*
X-56010Y13852D01*
X-56016Y13852D01*
X-56029Y13848D01*
X-56034Y13847D01*
X-56042Y13844D01*
X-56062Y13839D01*
X-56089Y13834D01*
X-56402Y13813D01*
X-56500Y13812D01*
X-56531Y13799D01*
X-73705D01*
X-74089Y13722D01*
X-74414Y13505D01*
X-77710Y10210D01*
X-77927Y9884D01*
X-78004Y9500D01*
Y4916D01*
X-79947Y2972D01*
X-90831D01*
X-90862Y2985D01*
X-90966Y2986D01*
X-91139Y2993D01*
X-91266Y3006D01*
X-91300Y3012D01*
X-91320Y3017D01*
X-91328Y3021D01*
X-91333Y3021D01*
X-91346Y3025D01*
X-91352Y3025D01*
X-91464Y3137D01*
X-91970Y3347D01*
X-92518D01*
X-93025Y3137D01*
X-93412Y2749D01*
X-93622Y2243D01*
Y1694D01*
X-93412Y1188D01*
X-93025Y800D01*
X-92518Y591D01*
X-91970D01*
X-91464Y800D01*
X-91352Y912D01*
X-91346Y912D01*
X-91333Y916D01*
X-91328Y916D01*
X-91320Y920D01*
X-91300Y925D01*
X-91273Y930D01*
X-90961Y951D01*
X-90862Y952D01*
X-90831Y965D01*
X-79532D01*
X-79147Y1041D01*
X-78822Y1259D01*
X-76290Y3790D01*
X-76073Y4116D01*
X-75997Y4500D01*
Y9084D01*
X-73289Y11792D01*
X-56531D01*
X-56500Y11779D01*
X-56396Y11778D01*
X-56223Y11771D01*
X-56096Y11758D01*
X-56062Y11752D01*
X-56042Y11747D01*
X-56034Y11743D01*
X-56029Y11743D01*
X-56016Y11738D01*
X-56010Y11739D01*
X-55899Y11627D01*
X-55392Y11417D01*
X-54844D01*
X-54338Y11627D01*
X-53950Y12015D01*
X-53740Y12521D01*
Y13069D01*
X-53950Y13576D01*
X-54338Y13963D01*
X-54844Y14173D01*
D02*
G37*
G36*
X-45513Y13091D02*
X-45826D01*
X-46115Y12971D01*
X-46337Y12749D01*
X-46457Y12460D01*
Y12146D01*
X-46337Y11857D01*
X-46115Y11636D01*
X-45826Y11516D01*
X-45513D01*
X-45223Y11636D01*
X-45002Y11857D01*
X-44882Y12146D01*
Y12460D01*
X-45002Y12749D01*
X-45223Y12971D01*
X-45513Y13091D01*
D02*
G37*
G36*
X-96576Y8661D02*
X-96889D01*
X-97178Y8541D01*
X-97400Y8320D01*
X-97520Y8031D01*
Y7717D01*
X-97400Y7428D01*
X-97178Y7207D01*
X-96889Y7087D01*
X-96576D01*
X-96286Y7207D01*
X-96065Y7428D01*
X-95945Y7717D01*
Y8031D01*
X-96065Y8320D01*
X-96286Y8541D01*
X-96576Y8661D01*
D02*
G37*
G36*
X39901Y7224D02*
X39588D01*
X39298Y7104D01*
X39077Y6883D01*
X38957Y6594D01*
Y6280D01*
X39077Y5991D01*
X39298Y5770D01*
X39588Y5650D01*
X39901D01*
X40190Y5770D01*
X40412Y5991D01*
X40532Y6280D01*
Y6594D01*
X40412Y6883D01*
X40190Y7104D01*
X39901Y7224D01*
D02*
G37*
G36*
X49921Y68307D02*
X49373D01*
X48867Y68097D01*
X48479Y67710D01*
X48269Y67203D01*
Y66655D01*
X48443Y66236D01*
Y50033D01*
X48443Y50033D01*
X48535Y49572D01*
X48796Y49181D01*
X49977Y48000D01*
Y32190D01*
X49803Y31770D01*
Y31222D01*
X49977Y30803D01*
Y14680D01*
X48893Y13596D01*
X48632Y13205D01*
X48540Y12744D01*
X48540Y12744D01*
Y7386D01*
X48366Y6967D01*
Y6419D01*
X48576Y5912D01*
X48963Y5525D01*
X49470Y5315D01*
X50018D01*
X50525Y5525D01*
X50912Y5912D01*
X51122Y6419D01*
Y6967D01*
X50948Y7386D01*
Y12245D01*
X52033Y13329D01*
X52294Y13720D01*
X52385Y14181D01*
Y30803D01*
X52559Y31222D01*
Y31770D01*
X52385Y32190D01*
Y48499D01*
X52294Y48960D01*
X52033Y49351D01*
X52033Y49351D01*
X50852Y50532D01*
Y66236D01*
X51025Y66655D01*
Y67203D01*
X50815Y67710D01*
X50428Y68097D01*
X49921Y68307D01*
D02*
G37*
G36*
X45000D02*
X44452D01*
X43945Y68097D01*
X43558Y67710D01*
X43348Y67203D01*
Y66655D01*
X43522Y66236D01*
Y50474D01*
X42456Y49408D01*
X42195Y49017D01*
X42103Y48556D01*
X42103Y48556D01*
Y32190D01*
X41929Y31770D01*
Y31222D01*
X42103Y30803D01*
Y14193D01*
X42103Y14193D01*
X42195Y13732D01*
X42456Y13341D01*
X43540Y12257D01*
Y7386D01*
X43366Y6967D01*
Y6419D01*
X43576Y5912D01*
X43964Y5525D01*
X44470Y5315D01*
X45018D01*
X45525Y5525D01*
X45912Y5912D01*
X46122Y6419D01*
Y6967D01*
X45948Y7386D01*
Y12756D01*
X45857Y13217D01*
X45596Y13608D01*
X44511Y14692D01*
Y30803D01*
X44685Y31222D01*
Y31770D01*
X44511Y32190D01*
Y48058D01*
X45577Y49124D01*
X45577Y49124D01*
X45838Y49514D01*
X45930Y49975D01*
Y66236D01*
X46104Y66655D01*
Y67203D01*
X45894Y67710D01*
X45507Y68097D01*
X45000Y68307D01*
D02*
G37*
G36*
X33483Y1909D02*
X33170D01*
X32881Y1790D01*
X32659Y1568D01*
X32539Y1279D01*
Y965D01*
X32659Y676D01*
X32881Y454D01*
X33170Y335D01*
X33483D01*
X33773Y454D01*
X33994Y676D01*
X34114Y965D01*
Y1279D01*
X33994Y1568D01*
X33773Y1790D01*
X33483Y1909D01*
D02*
G37*
G36*
X-70710Y-1339D02*
X-71023D01*
X-71312Y-1459D01*
X-71534Y-1680D01*
X-71653Y-1969D01*
Y-2283D01*
X-71534Y-2572D01*
X-71312Y-2794D01*
X-71023Y-2913D01*
X-70710D01*
X-70420Y-2794D01*
X-70199Y-2572D01*
X-70079Y-2283D01*
Y-1969D01*
X-70199Y-1680D01*
X-70420Y-1459D01*
X-70710Y-1339D01*
D02*
G37*
G36*
X-12835Y-2713D02*
X-13149D01*
X-13438Y-2833D01*
X-13660Y-3054D01*
X-13780Y-3343D01*
Y-3657D01*
X-13660Y-3946D01*
X-13438Y-4168D01*
X-13149Y-4287D01*
X-12835D01*
X-12546Y-4168D01*
X-12325Y-3946D01*
X-12205Y-3657D01*
Y-3343D01*
X-12325Y-3054D01*
X-12546Y-2833D01*
X-12835Y-2713D01*
D02*
G37*
G36*
X-99736Y-4429D02*
X-100284D01*
X-100790Y-4639D01*
X-100902Y-4750D01*
X-100908Y-4750D01*
X-100921Y-4755D01*
X-100926Y-4755D01*
X-100934Y-4759D01*
X-100953Y-4764D01*
X-100980Y-4768D01*
X-101293Y-4789D01*
X-101392Y-4790D01*
X-101423Y-4803D01*
X-125807D01*
X-126191Y-4880D01*
X-126517Y-5097D01*
X-142345Y-20926D01*
X-163154D01*
X-163185Y-20912D01*
X-163289Y-20911D01*
X-163462Y-20904D01*
X-163589Y-20891D01*
X-163623Y-20886D01*
X-163643Y-20881D01*
X-163651Y-20877D01*
X-163655Y-20877D01*
X-163669Y-20872D01*
X-163675Y-20873D01*
X-163786Y-20761D01*
X-164293Y-20551D01*
X-164841D01*
X-165348Y-20761D01*
X-165735Y-21149D01*
X-165945Y-21655D01*
Y-22203D01*
X-165735Y-22710D01*
X-165348Y-23097D01*
X-164841Y-23307D01*
X-164293D01*
X-163786Y-23097D01*
X-163675Y-22986D01*
X-163669Y-22986D01*
X-163655Y-22982D01*
X-163651Y-22981D01*
X-163643Y-22977D01*
X-163623Y-22973D01*
X-163596Y-22968D01*
X-163283Y-22947D01*
X-163185Y-22946D01*
X-163154Y-22933D01*
X-141929D01*
X-141545Y-22856D01*
X-141219Y-22639D01*
X-125391Y-6811D01*
X-101423D01*
X-101391Y-6824D01*
X-101287Y-6825D01*
X-101114Y-6832D01*
X-100988Y-6845D01*
X-100953Y-6851D01*
X-100934Y-6855D01*
X-100926Y-6859D01*
X-100921Y-6859D01*
X-100908Y-6864D01*
X-100902Y-6864D01*
X-100790Y-6975D01*
X-100284Y-7185D01*
X-99736D01*
X-99229Y-6975D01*
X-98842Y-6588D01*
X-98632Y-6081D01*
Y-5533D01*
X-98842Y-5026D01*
X-99229Y-4639D01*
X-99736Y-4429D01*
D02*
G37*
G36*
X165342Y45492D02*
X163791D01*
X163695Y45472D01*
X163596D01*
X162074Y45170D01*
X161983Y45132D01*
X161886Y45113D01*
X160453Y44519D01*
X160371Y44464D01*
X160280Y44426D01*
X158990Y43565D01*
X158920Y43495D01*
X158838Y43440D01*
X157741Y42343D01*
X157686Y42261D01*
X157616Y42191D01*
X156755Y40901D01*
X156717Y40810D01*
X156662Y40728D01*
X156068Y39295D01*
X156049Y39198D01*
X156011Y39107D01*
X155709Y37585D01*
Y37487D01*
X155689Y37390D01*
Y36614D01*
Y3543D01*
Y2768D01*
X155709Y2671D01*
Y2572D01*
X156011Y1051D01*
X156049Y959D01*
X156068Y862D01*
X156662Y-570D01*
X156717Y-653D01*
X156755Y-744D01*
X157616Y-2034D01*
X157686Y-2104D01*
X157741Y-2186D01*
X158838Y-3283D01*
X158920Y-3337D01*
X158990Y-3407D01*
X160280Y-4269D01*
X160371Y-4307D01*
X160453Y-4362D01*
X161886Y-4955D01*
X161983Y-4975D01*
X162074Y-5012D01*
X163596Y-5315D01*
X163695D01*
X163791Y-5334D01*
X165342D01*
X165439Y-5315D01*
X165538D01*
X167060Y-5012D01*
X167151Y-4975D01*
X167248Y-4955D01*
X168681Y-4362D01*
X168763Y-4307D01*
X168854Y-4269D01*
X170144Y-3407D01*
X170214Y-3337D01*
X170296Y-3283D01*
X171393Y-2186D01*
X171448Y-2104D01*
X171518Y-2034D01*
X172379Y-744D01*
X172417Y-653D01*
X172472Y-570D01*
X173065Y862D01*
X173085Y959D01*
X173123Y1051D01*
X173425Y2572D01*
Y2671D01*
X173444Y2768D01*
Y3543D01*
Y36614D01*
Y37390D01*
X173425Y37487D01*
Y37585D01*
X173123Y39107D01*
X173085Y39198D01*
X173065Y39295D01*
X172472Y40728D01*
X172417Y40810D01*
X172379Y40901D01*
X171518Y42191D01*
X171448Y42261D01*
X171393Y42343D01*
X170296Y43440D01*
X170214Y43495D01*
X170144Y43565D01*
X168854Y44426D01*
X168763Y44464D01*
X168681Y44519D01*
X167248Y45113D01*
X167151Y45132D01*
X167060Y45170D01*
X165538Y45472D01*
X165439D01*
X165342Y45492D01*
D02*
G37*
G36*
X-163791D02*
X-165342D01*
X-165439Y45472D01*
X-165538D01*
X-167060Y45170D01*
X-167151Y45132D01*
X-167248Y45113D01*
X-168681Y44519D01*
X-168763Y44464D01*
X-168854Y44426D01*
X-170144Y43565D01*
X-170214Y43495D01*
X-170296Y43440D01*
X-171393Y42343D01*
X-171448Y42261D01*
X-171518Y42191D01*
X-172379Y40901D01*
X-172417Y40810D01*
X-172472Y40728D01*
X-173065Y39295D01*
X-173085Y39198D01*
X-173123Y39107D01*
X-173425Y37585D01*
Y37487D01*
X-173444Y37390D01*
Y36614D01*
Y3543D01*
Y2768D01*
X-173425Y2671D01*
Y2572D01*
X-173123Y1051D01*
X-173085Y959D01*
X-173065Y862D01*
X-172472Y-570D01*
X-172417Y-653D01*
X-172379Y-744D01*
X-171518Y-2034D01*
X-171448Y-2104D01*
X-171393Y-2186D01*
X-170296Y-3283D01*
X-170214Y-3337D01*
X-170144Y-3407D01*
X-168854Y-4269D01*
X-168763Y-4307D01*
X-168681Y-4362D01*
X-167248Y-4955D01*
X-167151Y-4975D01*
X-167060Y-5012D01*
X-165538Y-5315D01*
X-165439D01*
X-165342Y-5334D01*
X-163791D01*
X-163695Y-5315D01*
X-163596D01*
X-162074Y-5012D01*
X-161983Y-4975D01*
X-161886Y-4955D01*
X-160453Y-4362D01*
X-160371Y-4307D01*
X-160280Y-4269D01*
X-158990Y-3407D01*
X-158920Y-3337D01*
X-158838Y-3283D01*
X-157741Y-2186D01*
X-157686Y-2104D01*
X-157616Y-2034D01*
X-156755Y-744D01*
X-156717Y-653D01*
X-156662Y-570D01*
X-156068Y862D01*
X-156049Y959D01*
X-156011Y1051D01*
X-155709Y2572D01*
Y2671D01*
X-155689Y2768D01*
Y3543D01*
Y36614D01*
Y37390D01*
X-155709Y37487D01*
Y37585D01*
X-156011Y39107D01*
X-156049Y39198D01*
X-156068Y39295D01*
X-156662Y40728D01*
X-156717Y40810D01*
X-156755Y40901D01*
X-157616Y42191D01*
X-157686Y42261D01*
X-157741Y42343D01*
X-158838Y43440D01*
X-158920Y43495D01*
X-158990Y43565D01*
X-160280Y44426D01*
X-160371Y44464D01*
X-160453Y44519D01*
X-161886Y45113D01*
X-161983Y45132D01*
X-162074Y45170D01*
X-163596Y45472D01*
X-163695D01*
X-163791Y45492D01*
D02*
G37*
G36*
X-12835Y-6713D02*
X-13149D01*
X-13438Y-6832D01*
X-13660Y-7054D01*
X-13780Y-7343D01*
Y-7657D01*
X-13660Y-7946D01*
X-13438Y-8168D01*
X-13149Y-8287D01*
X-12835D01*
X-12546Y-8168D01*
X-12325Y-7946D01*
X-12205Y-7657D01*
Y-7343D01*
X-12325Y-7054D01*
X-12546Y-6832D01*
X-12835Y-6713D01*
D02*
G37*
G36*
X-54409Y68307D02*
X-54958D01*
X-55464Y68097D01*
X-55852Y67710D01*
X-56061Y67203D01*
Y66655D01*
X-55852Y66149D01*
X-55740Y66037D01*
X-55740Y66031D01*
X-55736Y66018D01*
X-55736Y66013D01*
X-55732Y66005D01*
X-55727Y65986D01*
X-55722Y65958D01*
X-55701Y65646D01*
X-55700Y65547D01*
X-55687Y65517D01*
Y25625D01*
X-55700Y25594D01*
X-55701Y25490D01*
X-55708Y25317D01*
X-55721Y25190D01*
X-55727Y25156D01*
X-55732Y25137D01*
X-55736Y25129D01*
X-55736Y25124D01*
X-55740Y25111D01*
X-55740Y25105D01*
X-55852Y24993D01*
X-56061Y24487D01*
Y23938D01*
X-55852Y23432D01*
X-55740Y23321D01*
X-55740Y23315D01*
X-55736Y23301D01*
X-55736Y23296D01*
X-55732Y23289D01*
X-55727Y23269D01*
X-55722Y23242D01*
X-55701Y22929D01*
X-55700Y22831D01*
X-55687Y22800D01*
Y20684D01*
X-55611Y20299D01*
X-55393Y19974D01*
X-53004Y17584D01*
Y-4584D01*
X-56865Y-8445D01*
X-66009D01*
X-66040Y-8432D01*
X-66144Y-8431D01*
X-66317Y-8424D01*
X-66444Y-8411D01*
X-66478Y-8405D01*
X-66497Y-8401D01*
X-66505Y-8397D01*
X-66510Y-8396D01*
X-66523Y-8392D01*
X-66529Y-8392D01*
X-66641Y-8281D01*
X-67147Y-8071D01*
X-67695D01*
X-68202Y-8281D01*
X-68589Y-8668D01*
X-68799Y-9175D01*
Y-9723D01*
X-68589Y-10229D01*
X-68202Y-10617D01*
X-67952Y-10721D01*
X-68051Y-11220D01*
X-68187D01*
X-68694Y-11430D01*
X-69082Y-11818D01*
X-69291Y-12324D01*
Y-12873D01*
X-69082Y-13379D01*
X-68694Y-13767D01*
X-68352Y-13908D01*
X-68393Y-14432D01*
X-68749Y-14580D01*
X-69137Y-14967D01*
X-69346Y-15474D01*
Y-15733D01*
X-69353Y-15739D01*
X-69360Y-15756D01*
X-69363Y-15760D01*
X-69364Y-15765D01*
X-69371Y-15777D01*
X-69390Y-15806D01*
X-69416Y-15841D01*
X-69578Y-16026D01*
X-69648Y-16097D01*
X-69655Y-16115D01*
X-69672Y-16124D01*
X-69679Y-16147D01*
X-70573Y-17041D01*
X-70791Y-17366D01*
X-70867Y-17750D01*
Y-20124D01*
X-70791Y-20508D01*
X-70573Y-20834D01*
X-70492Y-20916D01*
Y-32512D01*
X-70415Y-32896D01*
X-70198Y-33221D01*
X-67310Y-36109D01*
X-67501Y-36571D01*
X-73510D01*
X-75997Y-34084D01*
Y-3500D01*
X-76073Y-3116D01*
X-76290Y-2790D01*
X-77723Y-1357D01*
X-78049Y-1140D01*
X-78433Y-1063D01*
X-87554D01*
X-87585Y-1050D01*
X-87689Y-1049D01*
X-87862Y-1042D01*
X-87989Y-1029D01*
X-88023Y-1023D01*
X-88042Y-1019D01*
X-88050Y-1015D01*
X-88055Y-1015D01*
X-88069Y-1010D01*
X-88074Y-1010D01*
X-88186Y-899D01*
X-88692Y-689D01*
X-89241D01*
X-89747Y-899D01*
X-90135Y-1286D01*
X-90345Y-1793D01*
Y-2341D01*
X-90135Y-2847D01*
X-89747Y-3235D01*
X-89241Y-3445D01*
X-88692D01*
X-88186Y-3235D01*
X-88074Y-3124D01*
X-88069Y-3124D01*
X-88055Y-3119D01*
X-88050Y-3119D01*
X-88042Y-3115D01*
X-88023Y-3110D01*
X-87996Y-3106D01*
X-87683Y-3084D01*
X-87585Y-3084D01*
X-87554Y-3070D01*
X-78849D01*
X-78004Y-3916D01*
Y-34500D01*
X-77927Y-34884D01*
X-77710Y-35210D01*
X-74635Y-38284D01*
X-74309Y-38502D01*
X-73925Y-38578D01*
X159925D01*
X160309Y-38502D01*
X160635Y-38284D01*
X165277Y-33643D01*
X165494Y-33317D01*
X165570Y-32933D01*
Y-23342D01*
X165584Y-23311D01*
X165585Y-23207D01*
X165592Y-23034D01*
X165604Y-22907D01*
X165610Y-22873D01*
X165615Y-22853D01*
X165619Y-22845D01*
X165619Y-22840D01*
X165624Y-22827D01*
X165623Y-22821D01*
X165735Y-22710D01*
X165945Y-22203D01*
Y-21655D01*
X165735Y-21149D01*
X165348Y-20761D01*
X164841Y-20551D01*
X164293D01*
X163786Y-20761D01*
X163399Y-21149D01*
X163189Y-21655D01*
Y-22203D01*
X163399Y-22710D01*
X163510Y-22821D01*
X163510Y-22827D01*
X163514Y-22840D01*
X163515Y-22845D01*
X163519Y-22853D01*
X163523Y-22873D01*
X163528Y-22900D01*
X163549Y-23213D01*
X163550Y-23311D01*
X163563Y-23342D01*
Y-32517D01*
X159510Y-36571D01*
X53001D01*
X52810Y-36109D01*
X55454Y-33465D01*
X55671Y-33140D01*
X55748Y-32756D01*
Y-23854D01*
X55761Y-23823D01*
X55762Y-23719D01*
X55769Y-23546D01*
X55782Y-23419D01*
X55788Y-23384D01*
X55792Y-23365D01*
X55796Y-23357D01*
X55796Y-23352D01*
X55801Y-23339D01*
X55801Y-23333D01*
X55912Y-23222D01*
X56122Y-22715D01*
Y-22167D01*
X55912Y-21660D01*
X55525Y-21273D01*
X55018Y-21063D01*
X54470D01*
X53964Y-21273D01*
X53576Y-21660D01*
X53366Y-22167D01*
Y-22715D01*
X53576Y-23222D01*
X53688Y-23333D01*
X53687Y-23339D01*
X53692Y-23352D01*
X53692Y-23357D01*
X53696Y-23365D01*
X53701Y-23384D01*
X53705Y-23412D01*
X53727Y-23724D01*
X53727Y-23823D01*
X53741Y-23854D01*
Y-32340D01*
X51084Y-34997D01*
X46576D01*
X46385Y-34534D01*
X47954Y-32965D01*
X48171Y-32640D01*
X48248Y-32256D01*
Y-27279D01*
X48261Y-27248D01*
X48262Y-27144D01*
X48269Y-26971D01*
X48282Y-26844D01*
X48288Y-26810D01*
X48292Y-26790D01*
X48296Y-26782D01*
X48296Y-26778D01*
X48301Y-26764D01*
X48301Y-26758D01*
X48412Y-26647D01*
X48622Y-26140D01*
Y-25592D01*
X48412Y-25086D01*
X48025Y-24698D01*
X47518Y-24488D01*
X46970D01*
X46464Y-24698D01*
X46076Y-25086D01*
X45866Y-25592D01*
Y-26140D01*
X46076Y-26647D01*
X46187Y-26758D01*
X46187Y-26764D01*
X46192Y-26778D01*
X46192Y-26782D01*
X46196Y-26790D01*
X46201Y-26810D01*
X46205Y-26837D01*
X46227Y-27150D01*
X46227Y-27248D01*
X46241Y-27279D01*
Y-31840D01*
X44659Y-33422D01*
X38651D01*
X38460Y-32960D01*
X40454Y-30966D01*
X40671Y-30640D01*
X40748Y-30256D01*
Y-23854D01*
X40761Y-23823D01*
X40762Y-23719D01*
X40769Y-23546D01*
X40782Y-23419D01*
X40788Y-23384D01*
X40792Y-23365D01*
X40796Y-23357D01*
X40797Y-23352D01*
X40801Y-23339D01*
X40801Y-23333D01*
X40912Y-23222D01*
X41122Y-22715D01*
Y-22167D01*
X40912Y-21660D01*
X40525Y-21273D01*
X40018Y-21063D01*
X39470D01*
X38963Y-21273D01*
X38576Y-21660D01*
X38366Y-22167D01*
Y-22715D01*
X38576Y-23222D01*
X38688Y-23333D01*
X38687Y-23339D01*
X38692Y-23352D01*
X38692Y-23357D01*
X38696Y-23365D01*
X38701Y-23384D01*
X38705Y-23412D01*
X38726Y-23724D01*
X38727Y-23823D01*
X38741Y-23854D01*
Y-29840D01*
X36734Y-31847D01*
X-64280D01*
X-65335Y-30792D01*
Y-21416D01*
X-65217Y-21298D01*
X-65000Y-20972D01*
X-64923Y-20588D01*
Y-14585D01*
X-65000Y-14201D01*
X-65217Y-13875D01*
X-66205Y-12888D01*
X-66217Y-12857D01*
X-66290Y-12782D01*
X-66408Y-12655D01*
X-66488Y-12556D01*
X-66508Y-12528D01*
X-66519Y-12511D01*
X-66522Y-12502D01*
X-66525Y-12499D01*
X-66531Y-12486D01*
X-66535Y-12482D01*
Y-12324D01*
X-66745Y-11818D01*
X-67133Y-11430D01*
X-67383Y-11327D01*
X-67283Y-10827D01*
X-67147D01*
X-66641Y-10617D01*
X-66529Y-10505D01*
X-66523Y-10506D01*
X-66510Y-10501D01*
X-66505Y-10501D01*
X-66497Y-10497D01*
X-66478Y-10492D01*
X-66451Y-10488D01*
X-66138Y-10466D01*
X-66040Y-10465D01*
X-66009Y-10452D01*
X-56449D01*
X-56065Y-10376D01*
X-55739Y-10158D01*
X-51290Y-5710D01*
X-51073Y-5384D01*
X-50997Y-5000D01*
Y18000D01*
X-51073Y18384D01*
X-51290Y18710D01*
X-53680Y21099D01*
Y22800D01*
X-53667Y22831D01*
X-53666Y22935D01*
X-53659Y23108D01*
X-53646Y23235D01*
X-53640Y23269D01*
X-53635Y23289D01*
X-53631Y23296D01*
X-53631Y23301D01*
X-53627Y23315D01*
X-53627Y23321D01*
X-53515Y23432D01*
X-53306Y23938D01*
Y24487D01*
X-53515Y24993D01*
X-53627Y25105D01*
X-53627Y25111D01*
X-53631Y25124D01*
X-53631Y25129D01*
X-53635Y25137D01*
X-53640Y25156D01*
X-53645Y25183D01*
X-53666Y25496D01*
X-53667Y25594D01*
X-53680Y25625D01*
Y65517D01*
X-53667Y65547D01*
X-53666Y65652D01*
X-53659Y65825D01*
X-53646Y65951D01*
X-53640Y65986D01*
X-53635Y66005D01*
X-53631Y66013D01*
X-53631Y66018D01*
X-53627Y66031D01*
X-53627Y66037D01*
X-53515Y66149D01*
X-53306Y66655D01*
Y67203D01*
X-53515Y67710D01*
X-53903Y68097D01*
X-54409Y68307D01*
D02*
G37*
G36*
X-92088Y-14961D02*
X-92401D01*
X-92690Y-15080D01*
X-92912Y-15302D01*
X-93032Y-15591D01*
Y-15905D01*
X-92912Y-16194D01*
X-92690Y-16416D01*
X-92401Y-16535D01*
X-92088D01*
X-91798Y-16416D01*
X-91577Y-16194D01*
X-91457Y-15905D01*
Y-15591D01*
X-91577Y-15302D01*
X-91798Y-15080D01*
X-92088Y-14961D01*
D02*
G37*
G36*
X-12835Y-27264D02*
X-13149D01*
X-13438Y-27384D01*
X-13660Y-27605D01*
X-13780Y-27895D01*
Y-28208D01*
X-13660Y-28497D01*
X-13438Y-28719D01*
X-13149Y-28839D01*
X-12835D01*
X-12546Y-28719D01*
X-12325Y-28497D01*
X-12205Y-28208D01*
Y-27895D01*
X-12325Y-27605D01*
X-12546Y-27384D01*
X-12835Y-27264D01*
D02*
G37*
G36*
X-42363D02*
X-42676D01*
X-42966Y-27384D01*
X-43187Y-27605D01*
X-43307Y-27895D01*
Y-28208D01*
X-43187Y-28497D01*
X-42966Y-28719D01*
X-42676Y-28839D01*
X-42363D01*
X-42074Y-28719D01*
X-41852Y-28497D01*
X-41732Y-28208D01*
Y-27895D01*
X-41852Y-27605D01*
X-42074Y-27384D01*
X-42363Y-27264D01*
D02*
G37*
G36*
X-48662D02*
X-48976D01*
X-49265Y-27384D01*
X-49486Y-27605D01*
X-49606Y-27895D01*
Y-28208D01*
X-49486Y-28497D01*
X-49265Y-28719D01*
X-48976Y-28839D01*
X-48662D01*
X-48373Y-28719D01*
X-48151Y-28497D01*
X-48031Y-28208D01*
Y-27895D01*
X-48151Y-27605D01*
X-48373Y-27384D01*
X-48662Y-27264D01*
D02*
G37*
G36*
X35964Y-28465D02*
X35651D01*
X35361Y-28584D01*
X35140Y-28806D01*
X35020Y-29095D01*
Y-29409D01*
X35140Y-29698D01*
X35361Y-29919D01*
X35651Y-30039D01*
X35964D01*
X36253Y-29919D01*
X36475Y-29698D01*
X36595Y-29409D01*
Y-29095D01*
X36475Y-28806D01*
X36253Y-28584D01*
X35964Y-28465D01*
D02*
G37*
G36*
X209670Y-33071D02*
X209055D01*
Y-42913D01*
X218898D01*
Y-42299D01*
X218504Y-40321D01*
X217733Y-38458D01*
X216612Y-36782D01*
X215187Y-35356D01*
X213510Y-34236D01*
X211647Y-33464D01*
X209670Y-33071D01*
D02*
G37*
G36*
X208268D02*
X207653D01*
X205676Y-33464D01*
X203813Y-34236D01*
X202136Y-35356D01*
X200710Y-36782D01*
X199590Y-38458D01*
X198819Y-40321D01*
X198425Y-42299D01*
Y-42913D01*
X208268D01*
Y-33071D01*
D02*
G37*
G36*
X-207653D02*
X-208268D01*
Y-42913D01*
X-198425D01*
Y-42299D01*
X-198819Y-40321D01*
X-199590Y-38458D01*
X-200710Y-36782D01*
X-202136Y-35356D01*
X-203813Y-34236D01*
X-205676Y-33464D01*
X-207653Y-33071D01*
D02*
G37*
G36*
X-209055D02*
X-209670D01*
X-211647Y-33464D01*
X-213510Y-34236D01*
X-215187Y-35356D01*
X-216612Y-36782D01*
X-217733Y-38458D01*
X-218504Y-40321D01*
X-218898Y-42299D01*
Y-42913D01*
X-209055D01*
Y-33071D01*
D02*
G37*
G36*
X218898Y-43701D02*
X209055D01*
Y-53543D01*
X209670D01*
X211647Y-53150D01*
X213510Y-52378D01*
X215187Y-51258D01*
X216612Y-49832D01*
X217733Y-48156D01*
X218504Y-46293D01*
X218898Y-44315D01*
Y-43701D01*
D02*
G37*
G36*
X208268D02*
X198425D01*
Y-44315D01*
X198819Y-46293D01*
X199590Y-48156D01*
X200710Y-49832D01*
X202136Y-51258D01*
X203813Y-52378D01*
X205676Y-53150D01*
X207653Y-53543D01*
X208268D01*
Y-43701D01*
D02*
G37*
G36*
X-198425D02*
X-208268D01*
Y-53543D01*
X-207653D01*
X-205676Y-53150D01*
X-203813Y-52378D01*
X-202136Y-51258D01*
X-200710Y-49832D01*
X-199590Y-48156D01*
X-198819Y-46293D01*
X-198425Y-44315D01*
Y-43701D01*
D02*
G37*
G36*
X-209055D02*
X-218898D01*
Y-44315D01*
X-218504Y-46293D01*
X-217733Y-48156D01*
X-216612Y-49832D01*
X-215187Y-51258D01*
X-213510Y-52378D01*
X-211647Y-53150D01*
X-209670Y-53543D01*
X-209055D01*
Y-43701D01*
D02*
G37*
%LPD*%
G36*
X-39249Y66202D02*
X-39266Y66168D01*
X-39281Y66125D01*
X-39294Y66072D01*
X-39305Y66009D01*
X-39320Y65855D01*
X-39328Y65662D01*
X-39329Y65551D01*
X-40510D01*
X-40511Y65662D01*
X-40535Y66009D01*
X-40546Y66072D01*
X-40558Y66125D01*
X-40573Y66168D01*
X-40590Y66202D01*
X-40609Y66226D01*
X-39231D01*
X-39249Y66202D01*
D02*
G37*
G36*
X-44171D02*
X-44187Y66168D01*
X-44202Y66125D01*
X-44215Y66072D01*
X-44226Y66009D01*
X-44241Y65855D01*
X-44249Y65662D01*
X-44250Y65551D01*
X-45432D01*
X-45432Y65662D01*
X-45456Y66009D01*
X-45467Y66072D01*
X-45480Y66125D01*
X-45494Y66168D01*
X-45511Y66202D01*
X-45530Y66226D01*
X-44152D01*
X-44171Y66202D01*
D02*
G37*
G36*
X-49092D02*
X-49109Y66168D01*
X-49123Y66125D01*
X-49136Y66072D01*
X-49147Y66009D01*
X-49163Y65855D01*
X-49171Y65662D01*
X-49172Y65551D01*
X-50353D01*
X-50354Y65662D01*
X-50377Y66009D01*
X-50388Y66072D01*
X-50401Y66125D01*
X-50416Y66168D01*
X-50432Y66202D01*
X-50451Y66226D01*
X-49073D01*
X-49092Y66202D01*
D02*
G37*
G36*
X14174Y15021D02*
X14157Y14987D01*
X14143Y14944D01*
X14130Y14891D01*
X14119Y14828D01*
X14103Y14674D01*
X14096Y14481D01*
X14095Y14370D01*
X12913D01*
X12912Y14481D01*
X12889Y14828D01*
X12878Y14891D01*
X12865Y14944D01*
X12850Y14987D01*
X12834Y15021D01*
X12815Y15045D01*
X14193D01*
X14174Y15021D01*
D02*
G37*
G36*
X2363D02*
X2347Y14987D01*
X2332Y14944D01*
X2319Y14891D01*
X2308Y14828D01*
X2292Y14674D01*
X2284Y14481D01*
X2283Y14370D01*
X1102D01*
X1101Y14481D01*
X1078Y14828D01*
X1067Y14891D01*
X1054Y14944D01*
X1039Y14987D01*
X1023Y15021D01*
X1004Y15045D01*
X2382D01*
X2363Y15021D01*
D02*
G37*
G36*
X-9448D02*
X-9465Y14987D01*
X-9479Y14944D01*
X-9492Y14891D01*
X-9503Y14828D01*
X-9519Y14674D01*
X-9527Y14481D01*
X-9528Y14370D01*
X-10709D01*
X-10710Y14481D01*
X-10733Y14828D01*
X-10744Y14891D01*
X-10757Y14944D01*
X-10772Y14987D01*
X-10788Y15021D01*
X-10807Y15045D01*
X-9429D01*
X-9448Y15021D01*
D02*
G37*
G36*
X-35629Y14062D02*
X-35605Y13715D01*
X-35594Y13653D01*
X-35582Y13599D01*
X-35567Y13556D01*
X-35550Y13522D01*
X-35531Y13498D01*
X-36909D01*
X-36891Y13522D01*
X-36874Y13556D01*
X-36859Y13599D01*
X-36846Y13653D01*
X-36836Y13715D01*
X-36820Y13870D01*
X-36812Y14062D01*
X-36811Y14173D01*
X-35630D01*
X-35629Y14062D01*
D02*
G37*
G36*
X-27278Y2461D02*
X-27302Y2479D01*
X-27336Y2496D01*
X-27379Y2511D01*
X-27432Y2524D01*
X-27495Y2534D01*
X-27649Y2550D01*
X-27842Y2558D01*
X-27953Y2559D01*
Y3740D01*
X-27842Y3741D01*
X-27495Y3765D01*
X-27432Y3776D01*
X-27379Y3788D01*
X-27336Y3803D01*
X-27302Y3820D01*
X-27278Y3839D01*
Y2461D01*
D02*
G37*
G36*
Y-689D02*
X-27302Y-670D01*
X-27336Y-654D01*
X-27379Y-639D01*
X-27432Y-626D01*
X-27495Y-615D01*
X-27649Y-599D01*
X-27842Y-592D01*
X-27953Y-591D01*
Y591D01*
X-27842Y592D01*
X-27495Y615D01*
X-27432Y626D01*
X-27379Y639D01*
X-27336Y654D01*
X-27302Y670D01*
X-27278Y689D01*
Y-689D01*
D02*
G37*
G36*
X-25848Y-2479D02*
X-25814Y-2496D01*
X-25771Y-2511D01*
X-25718Y-2524D01*
X-25655Y-2534D01*
X-25501Y-2550D01*
X-25308Y-2558D01*
X-25197Y-2559D01*
Y-3740D01*
X-25308Y-3741D01*
X-25655Y-3765D01*
X-25718Y-3776D01*
X-25771Y-3788D01*
X-25814Y-3803D01*
X-25848Y-3820D01*
X-25872Y-3839D01*
Y-2461D01*
X-25848Y-2479D01*
D02*
G37*
G36*
X-25968Y-5520D02*
X-25940Y-5528D01*
X-25901Y-5535D01*
X-25852Y-5541D01*
X-25641Y-5554D01*
X-25337Y-5558D01*
X-25104Y-6739D01*
X-25214Y-6740D01*
X-25487Y-6761D01*
X-25559Y-6773D01*
X-25622Y-6787D01*
X-25674Y-6804D01*
X-25717Y-6825D01*
X-25751Y-6847D01*
X-25775Y-6872D01*
X-25986Y-5511D01*
X-25968Y-5520D01*
D02*
G37*
G36*
Y-8669D02*
X-25940Y-8677D01*
X-25901Y-8685D01*
X-25852Y-8691D01*
X-25641Y-8703D01*
X-25337Y-8708D01*
X-25104Y-9889D01*
X-25214Y-9890D01*
X-25487Y-9910D01*
X-25559Y-9922D01*
X-25622Y-9937D01*
X-25674Y-9954D01*
X-25717Y-9974D01*
X-25751Y-9997D01*
X-25775Y-10022D01*
X-25986Y-8660D01*
X-25968Y-8669D01*
D02*
G37*
G36*
X8544Y63643D02*
X8528Y63609D01*
X8513Y63566D01*
X8500Y63513D01*
X8489Y63450D01*
X8473Y63296D01*
X8466Y63103D01*
X8465Y62992D01*
X7283D01*
X7282Y63103D01*
X7259Y63450D01*
X7248Y63513D01*
X7235Y63566D01*
X7220Y63609D01*
X7204Y63643D01*
X7185Y63667D01*
X8563D01*
X8544Y63643D01*
D02*
G37*
G36*
X14096Y44574D02*
X14119Y44227D01*
X14130Y44164D01*
X14143Y44111D01*
X14157Y44068D01*
X14174Y44034D01*
X14193Y44010D01*
X12815D01*
X12834Y44034D01*
X12850Y44068D01*
X12865Y44111D01*
X12878Y44164D01*
X12889Y44227D01*
X12904Y44381D01*
X12912Y44574D01*
X12913Y44685D01*
X14095D01*
X14096Y44574D01*
D02*
G37*
G36*
X3820Y63643D02*
X3803Y63609D01*
X3788Y63566D01*
X3776Y63513D01*
X3765Y63450D01*
X3749Y63296D01*
X3741Y63103D01*
X3740Y62992D01*
X2559D01*
X2558Y63103D01*
X2534Y63450D01*
X2524Y63513D01*
X2511Y63566D01*
X2496Y63609D01*
X2479Y63643D01*
X2461Y63667D01*
X3839D01*
X3820Y63643D01*
D02*
G37*
G36*
X2284Y44574D02*
X2308Y44227D01*
X2319Y44164D01*
X2332Y44111D01*
X2347Y44068D01*
X2363Y44034D01*
X2382Y44010D01*
X1004D01*
X1023Y44034D01*
X1039Y44068D01*
X1054Y44111D01*
X1067Y44164D01*
X1078Y44227D01*
X1094Y44381D01*
X1101Y44574D01*
X1102Y44685D01*
X2283D01*
X2284Y44574D01*
D02*
G37*
G36*
X-2479Y63643D02*
X-2496Y63609D01*
X-2511Y63566D01*
X-2524Y63513D01*
X-2534Y63450D01*
X-2550Y63296D01*
X-2558Y63103D01*
X-2559Y62992D01*
X-3740D01*
X-3741Y63103D01*
X-3765Y63450D01*
X-3776Y63513D01*
X-3788Y63566D01*
X-3803Y63609D01*
X-3820Y63643D01*
X-3839Y63667D01*
X-2461D01*
X-2479Y63643D01*
D02*
G37*
G36*
X-9527Y44574D02*
X-9503Y44227D01*
X-9492Y44164D01*
X-9479Y44111D01*
X-9465Y44068D01*
X-9448Y44034D01*
X-9429Y44010D01*
X-10807D01*
X-10788Y44034D01*
X-10772Y44068D01*
X-10757Y44111D01*
X-10744Y44164D01*
X-10733Y44227D01*
X-10718Y44381D01*
X-10710Y44574D01*
X-10709Y44685D01*
X-9528D01*
X-9527Y44574D01*
D02*
G37*
G36*
X-55821Y12106D02*
X-55845Y12125D01*
X-55879Y12142D01*
X-55922Y12156D01*
X-55975Y12169D01*
X-56038Y12180D01*
X-56192Y12196D01*
X-56385Y12204D01*
X-56496Y12205D01*
Y13386D01*
X-56385Y13387D01*
X-56038Y13410D01*
X-55975Y13421D01*
X-55922Y13434D01*
X-55879Y13449D01*
X-55845Y13465D01*
X-55821Y13484D01*
Y12106D01*
D02*
G37*
G36*
X-91517Y2639D02*
X-91483Y2622D01*
X-91440Y2607D01*
X-91387Y2595D01*
X-91324Y2584D01*
X-91170Y2568D01*
X-90977Y2560D01*
X-90866Y2559D01*
Y1378D01*
X-90977Y1377D01*
X-91324Y1353D01*
X-91387Y1343D01*
X-91440Y1330D01*
X-91483Y1315D01*
X-91517Y1298D01*
X-91541Y1280D01*
Y2657D01*
X-91517Y2639D01*
D02*
G37*
G36*
X-100713Y-6496D02*
X-100737Y-6477D01*
X-100771Y-6461D01*
X-100814Y-6446D01*
X-100867Y-6433D01*
X-100930Y-6422D01*
X-101084Y-6407D01*
X-101277Y-6399D01*
X-101388Y-6398D01*
Y-5217D01*
X-101277Y-5216D01*
X-100930Y-5192D01*
X-100867Y-5181D01*
X-100814Y-5168D01*
X-100771Y-5153D01*
X-100737Y-5137D01*
X-100713Y-5118D01*
Y-6496D01*
D02*
G37*
G36*
X-163840Y-21259D02*
X-163806Y-21276D01*
X-163763Y-21290D01*
X-163710Y-21303D01*
X-163647Y-21314D01*
X-163493Y-21330D01*
X-163300Y-21338D01*
X-163189Y-21339D01*
Y-22520D01*
X-163300Y-22521D01*
X-163647Y-22544D01*
X-163710Y-22555D01*
X-163763Y-22568D01*
X-163806Y-22583D01*
X-163840Y-22599D01*
X-163864Y-22618D01*
Y-21240D01*
X-163840Y-21259D01*
D02*
G37*
G36*
X-54013Y66202D02*
X-54030Y66168D01*
X-54045Y66125D01*
X-54058Y66072D01*
X-54068Y66009D01*
X-54084Y65855D01*
X-54092Y65662D01*
X-54093Y65551D01*
X-55274D01*
X-55275Y65662D01*
X-55299Y66009D01*
X-55309Y66072D01*
X-55322Y66125D01*
X-55337Y66168D01*
X-55354Y66202D01*
X-55372Y66226D01*
X-53995D01*
X-54013Y66202D01*
D02*
G37*
G36*
X-54092Y25480D02*
X-54068Y25133D01*
X-54058Y25070D01*
X-54045Y25017D01*
X-54030Y24973D01*
X-54013Y24940D01*
X-53995Y24915D01*
X-55372D01*
X-55354Y24940D01*
X-55337Y24973D01*
X-55322Y25017D01*
X-55309Y25070D01*
X-55299Y25133D01*
X-55283Y25287D01*
X-55275Y25480D01*
X-55274Y25591D01*
X-54093D01*
X-54092Y25480D01*
D02*
G37*
G36*
X-54013Y23486D02*
X-54030Y23452D01*
X-54045Y23408D01*
X-54058Y23355D01*
X-54068Y23293D01*
X-54084Y23138D01*
X-54092Y22945D01*
X-54093Y22835D01*
X-55274D01*
X-55275Y22945D01*
X-55299Y23293D01*
X-55309Y23355D01*
X-55322Y23408D01*
X-55337Y23452D01*
X-55354Y23486D01*
X-55372Y23510D01*
X-53995D01*
X-54013Y23486D01*
D02*
G37*
G36*
X-88240Y-1397D02*
X-88206Y-1413D01*
X-88162Y-1428D01*
X-88109Y-1441D01*
X-88047Y-1452D01*
X-87892Y-1467D01*
X-87700Y-1475D01*
X-87589Y-1476D01*
Y-2657D01*
X-87700Y-2658D01*
X-88047Y-2682D01*
X-88109Y-2693D01*
X-88162Y-2706D01*
X-88206Y-2720D01*
X-88240Y-2737D01*
X-88264Y-2756D01*
Y-1378D01*
X-88240Y-1397D01*
D02*
G37*
G36*
X-66694Y-8778D02*
X-66660Y-8795D01*
X-66617Y-8810D01*
X-66564Y-8823D01*
X-66501Y-8834D01*
X-66347Y-8849D01*
X-66154Y-8857D01*
X-66043Y-8858D01*
Y-10039D01*
X-66154Y-10040D01*
X-66501Y-10064D01*
X-66564Y-10075D01*
X-66617Y-10088D01*
X-66660Y-10102D01*
X-66694Y-10119D01*
X-66718Y-10138D01*
Y-8760D01*
X-66694Y-8778D01*
D02*
G37*
G36*
X-66925Y-12639D02*
X-66913Y-12674D01*
X-66893Y-12715D01*
X-66865Y-12762D01*
X-66828Y-12814D01*
X-66730Y-12934D01*
X-66599Y-13076D01*
X-66521Y-13155D01*
X-67357Y-13990D01*
X-67436Y-13913D01*
X-67698Y-13684D01*
X-67750Y-13647D01*
X-67796Y-13619D01*
X-67838Y-13599D01*
X-67873Y-13587D01*
X-67904Y-13583D01*
X-66929Y-12608D01*
X-66925Y-12639D01*
D02*
G37*
G36*
X-67903Y-16730D02*
X-67928Y-16736D01*
X-67960Y-16749D01*
X-67997Y-16771D01*
X-68041Y-16801D01*
X-68090Y-16839D01*
X-68207Y-16939D01*
X-68427Y-17149D01*
X-69343Y-16395D01*
X-69266Y-16316D01*
X-69085Y-16109D01*
X-69041Y-16051D01*
X-69006Y-15997D01*
X-68979Y-15949D01*
X-68960Y-15905D01*
X-68951Y-15867D01*
X-68949Y-15834D01*
X-67903Y-16730D01*
D02*
G37*
G36*
X-67219Y-19586D02*
X-67239Y-19611D01*
X-67257Y-19645D01*
X-67272Y-19688D01*
X-67286Y-19741D01*
X-67297Y-19804D01*
X-67313Y-19959D01*
X-67322Y-20151D01*
X-67323Y-20262D01*
X-68504Y-20235D01*
X-68505Y-20124D01*
X-68527Y-19777D01*
X-68537Y-19714D01*
X-68550Y-19661D01*
X-68563Y-19618D01*
X-68579Y-19585D01*
X-68597Y-19561D01*
X-67219Y-19586D01*
D02*
G37*
G36*
X165237Y-22656D02*
X165220Y-22690D01*
X165206Y-22733D01*
X165193Y-22786D01*
X165182Y-22849D01*
X165166Y-23003D01*
X165158Y-23196D01*
X165157Y-23307D01*
X163976D01*
X163975Y-23196D01*
X163952Y-22849D01*
X163941Y-22786D01*
X163928Y-22733D01*
X163913Y-22690D01*
X163897Y-22656D01*
X163878Y-22632D01*
X165256D01*
X165237Y-22656D01*
D02*
G37*
G36*
X55414Y-23168D02*
X55398Y-23202D01*
X55383Y-23245D01*
X55370Y-23298D01*
X55359Y-23361D01*
X55344Y-23515D01*
X55336Y-23708D01*
X55335Y-23819D01*
X54154D01*
X54153Y-23708D01*
X54129Y-23361D01*
X54118Y-23298D01*
X54105Y-23245D01*
X54090Y-23202D01*
X54074Y-23168D01*
X54055Y-23144D01*
X55433D01*
X55414Y-23168D01*
D02*
G37*
G36*
X40414D02*
X40398Y-23202D01*
X40383Y-23245D01*
X40370Y-23298D01*
X40359Y-23361D01*
X40343Y-23515D01*
X40336Y-23708D01*
X40335Y-23819D01*
X39154D01*
X39153Y-23708D01*
X39129Y-23361D01*
X39118Y-23298D01*
X39105Y-23245D01*
X39090Y-23202D01*
X39074Y-23168D01*
X39055Y-23144D01*
X40433D01*
X40414Y-23168D01*
D02*
G37*
G36*
X47914Y-26593D02*
X47898Y-26627D01*
X47883Y-26670D01*
X47870Y-26723D01*
X47859Y-26786D01*
X47844Y-26940D01*
X47836Y-27133D01*
X47835Y-27244D01*
X46654D01*
X46653Y-27133D01*
X46629Y-26786D01*
X46618Y-26723D01*
X46605Y-26670D01*
X46591Y-26627D01*
X46574Y-26593D01*
X46555Y-26569D01*
X47933D01*
X47914Y-26593D01*
D02*
G37*
D11*
X51181Y14181D02*
Y48499D01*
X49744Y12744D02*
X51181Y14181D01*
X49744Y6693D02*
Y12744D01*
X43307Y14193D02*
Y48556D01*
Y14193D02*
X44744Y12756D01*
Y6693D02*
Y12756D01*
X49647Y50033D02*
X51181Y48499D01*
X49647Y50033D02*
Y66929D01*
X43307Y48556D02*
X44726Y49975D01*
Y66929D01*
D52*
X-73925Y-37575D02*
X159925D01*
X-77000Y-34500D02*
X-73925Y-37575D01*
X-77000Y-34500D02*
Y-3500D01*
X-78433Y-2067D02*
X-77000Y-3500D01*
X159925Y-37575D02*
X164567Y-32933D01*
Y-21929D01*
X-88967Y-2067D02*
X-78433D01*
X-164567Y-21929D02*
X-141929D01*
X-125807Y-5807D01*
X-100010D01*
X-54684Y20684D02*
Y24213D01*
X-52000Y-5000D02*
Y18000D01*
X-54684Y20684D02*
X-52000Y18000D01*
X-54684Y24213D02*
Y66929D01*
X-56449Y-9449D02*
X-52000Y-5000D01*
X-67421Y-9449D02*
X-56449D01*
X1693Y49193D02*
X3150Y50650D01*
X1693Y43307D02*
Y49193D01*
X3150Y50650D02*
Y64370D01*
X7874Y55126D02*
Y64370D01*
X13504Y43307D02*
Y49496D01*
X7874Y55126D02*
X13504Y49496D01*
X-10118Y43307D02*
Y49382D01*
X-3150Y56350D02*
Y64370D01*
X-10118Y49382D02*
X-3150Y56350D01*
X39744Y-30256D02*
Y-22441D01*
X37150Y-32850D02*
X39744Y-30256D01*
X-64695Y-32850D02*
X37150D01*
X-66339Y-31207D02*
X-64695Y-32850D01*
X-66339Y-31207D02*
Y-21000D01*
X-69488Y-32512D02*
Y-20500D01*
X-67913Y-31859D02*
Y-18889D01*
X-66000Y-36000D02*
X51500D01*
X-69864Y-20124D02*
X-69488Y-20500D01*
X51500Y-36000D02*
X54744Y-32756D01*
X-69488Y-32512D02*
X-66000Y-36000D01*
X-67913Y-31859D02*
X-65348Y-34425D01*
X45075D01*
X-69864Y-20124D02*
Y-17750D01*
X-66339Y-21000D02*
X-65927Y-20588D01*
Y-14585D01*
X-67913Y-12598D02*
X-65927Y-14585D01*
X-69864Y-17750D02*
X-67968Y-15855D01*
Y-15748D01*
X-67913Y-18889D02*
X-67895Y-18871D01*
X54744Y-32756D02*
Y-22441D01*
X45075Y-34425D02*
X47244Y-32256D01*
Y-25866D01*
X-36220Y12795D02*
Y37721D01*
X-39920Y46147D02*
X-32425Y38652D01*
Y5152D02*
Y38652D01*
X-34000Y4500D02*
Y38000D01*
X-39920Y46147D02*
Y66929D01*
X-49762Y51262D02*
X-36220Y37721D01*
X-44841Y48841D02*
X-34000Y38000D01*
X-49762Y51262D02*
Y66929D01*
X-44841Y48841D02*
Y66929D01*
X-30422Y3150D02*
X-26575D01*
X-32425Y5152D02*
X-30422Y3150D01*
X-29500Y0D02*
X-26575D01*
X-34000Y4500D02*
X-29500Y0D01*
X-77000Y9500D02*
X-73705Y12795D01*
X-55118D01*
X-77000Y4500D02*
Y9500D01*
X-92244Y1969D02*
X-79532D01*
X-77000Y4500D01*
X1693Y13693D02*
Y15748D01*
X1000Y13000D02*
X1693Y13693D01*
X-8273Y13000D02*
X1000D01*
X13504Y13504D02*
Y15748D01*
X11425Y11425D02*
X13504Y13504D01*
X-7621Y11425D02*
X11425D01*
X-19500Y1773D02*
X-8273Y13000D01*
X-17925Y1121D02*
X-7621Y11425D01*
X-21075Y-1075D02*
Y2425D01*
X-19500Y-1727D02*
Y1773D01*
X-21075Y2425D02*
X-10118Y13382D01*
Y15748D01*
X-17925Y-2425D02*
Y1121D01*
X-26424Y-6149D02*
X-23922D01*
X-23150Y-3150D02*
X-21075Y-1075D01*
X-26575Y-3150D02*
X-23150D01*
X-26575Y-6299D02*
X-26424Y-6149D01*
X-23922D02*
X-19500Y-1727D01*
X-24798Y-9298D02*
X-17925Y-2425D01*
X-26424Y-9298D02*
X-24798D01*
X-26575Y-9449D02*
X-26424Y-9298D01*
D53*
X-208661Y43307D02*
D03*
Y-43307D02*
D03*
X208661D02*
D03*
Y43307D02*
D03*
D54*
X-90552Y51181D02*
D03*
X-98426D02*
D03*
X-94489D02*
D03*
X-106300D02*
D03*
X-102363D02*
D03*
X-114174D02*
D03*
X-110237D02*
D03*
X-122048D02*
D03*
X-118111D02*
D03*
X-129922D02*
D03*
X-125985D02*
D03*
X-137796D02*
D03*
X-133859D02*
D03*
X-145670D02*
D03*
X-141733D02*
D03*
X-149607D02*
D03*
X-157481D02*
D03*
X-153544D02*
D03*
X-169292D02*
D03*
X-173229D02*
D03*
X-177166D02*
D03*
X-181103D02*
D03*
X-185040D02*
D03*
X-188977D02*
D03*
X-200788D02*
D03*
X-192914D02*
D03*
X-196851D02*
D03*
X90551D02*
D03*
X94488D02*
D03*
X98425D02*
D03*
X102362D02*
D03*
X106299D02*
D03*
X110236D02*
D03*
X114173D02*
D03*
X118110D02*
D03*
X122047D02*
D03*
X125984D02*
D03*
X129921D02*
D03*
X133858D02*
D03*
X137795D02*
D03*
X141732D02*
D03*
X145669D02*
D03*
X157480D02*
D03*
X149606D02*
D03*
X153543D02*
D03*
X200787D02*
D03*
X169291D02*
D03*
X173228D02*
D03*
X177165D02*
D03*
X181102D02*
D03*
X185039D02*
D03*
X188976D02*
D03*
X192913D02*
D03*
X196850D02*
D03*
X216535Y-35433D02*
D03*
Y27559D02*
D03*
Y31496D02*
D03*
Y35433D02*
D03*
Y11811D02*
D03*
Y15748D02*
D03*
Y19685D02*
D03*
Y23622D02*
D03*
Y-3937D02*
D03*
Y0D02*
D03*
Y3937D02*
D03*
Y7874D02*
D03*
Y-19685D02*
D03*
Y-15748D02*
D03*
Y-11811D02*
D03*
Y-7874D02*
D03*
Y-31496D02*
D03*
Y-27559D02*
D03*
Y-23622D02*
D03*
X-216535Y-35433D02*
D03*
Y-23622D02*
D03*
Y-27559D02*
D03*
Y-31496D02*
D03*
Y-7874D02*
D03*
Y-11811D02*
D03*
Y-15748D02*
D03*
Y-19685D02*
D03*
Y7874D02*
D03*
Y3937D02*
D03*
Y-0D02*
D03*
Y-3937D02*
D03*
Y23622D02*
D03*
Y19685D02*
D03*
Y15748D02*
D03*
Y11811D02*
D03*
Y35433D02*
D03*
Y31496D02*
D03*
Y27559D02*
D03*
X-196850Y-51181D02*
D03*
X-192913D02*
D03*
X-188976D02*
D03*
X-200787D02*
D03*
X-122047D02*
D03*
X-118110D02*
D03*
X-114173D02*
D03*
X-137795D02*
D03*
X-133858D02*
D03*
X-129921D02*
D03*
X-125984D02*
D03*
X-153543D02*
D03*
X-149606D02*
D03*
X-145669D02*
D03*
X-141732D02*
D03*
X-169291D02*
D03*
X-165354D02*
D03*
X-161417D02*
D03*
X-157480D02*
D03*
X-185039D02*
D03*
X-181102D02*
D03*
X-177165D02*
D03*
X-173228D02*
D03*
X-47244D02*
D03*
X-43307D02*
D03*
X-39370D02*
D03*
X-62992D02*
D03*
X-59055D02*
D03*
X-55118D02*
D03*
X-51181D02*
D03*
X-78740D02*
D03*
X-74803D02*
D03*
X-70866D02*
D03*
X-66929D02*
D03*
X-94488D02*
D03*
X-90551D02*
D03*
X-86614D02*
D03*
X-82677D02*
D03*
X-110236D02*
D03*
X-106299D02*
D03*
X-102362D02*
D03*
X-98425D02*
D03*
X173228D02*
D03*
X169291D02*
D03*
X165354D02*
D03*
X188976D02*
D03*
X185039D02*
D03*
X181102D02*
D03*
X177165D02*
D03*
X200787D02*
D03*
X196850D02*
D03*
X192913D02*
D03*
X98425D02*
D03*
X94488D02*
D03*
X90551D02*
D03*
X114173D02*
D03*
X110236D02*
D03*
X106299D02*
D03*
X102362D02*
D03*
X129921D02*
D03*
X125984D02*
D03*
X122047D02*
D03*
X118110D02*
D03*
X145669D02*
D03*
X141732D02*
D03*
X137795D02*
D03*
X133858D02*
D03*
X161417D02*
D03*
X157480D02*
D03*
X153543D02*
D03*
X149606D02*
D03*
X74803D02*
D03*
X78740D02*
D03*
X82677D02*
D03*
X86614D02*
D03*
X59055D02*
D03*
X62992D02*
D03*
X66929D02*
D03*
X70866D02*
D03*
X43307D02*
D03*
X47244D02*
D03*
X51181D02*
D03*
X55118D02*
D03*
X27559D02*
D03*
X31496D02*
D03*
X35433D02*
D03*
X39370D02*
D03*
X11811D02*
D03*
X15748D02*
D03*
X19685D02*
D03*
X23622D02*
D03*
X-3937D02*
D03*
X0D02*
D03*
X3937D02*
D03*
X7874D02*
D03*
X-19685D02*
D03*
X-15748D02*
D03*
X-11811D02*
D03*
X-7874D02*
D03*
X-23622D02*
D03*
X-27559D02*
D03*
X-31496D02*
D03*
X-35433D02*
D03*
D55*
X210634Y23146D02*
D03*
X200791Y3461D02*
D03*
X210634Y-16224D02*
D03*
X181106Y42831D02*
D03*
X190949Y23146D02*
D03*
X181106Y3461D02*
D03*
X190949Y-16224D02*
D03*
X181106Y-35909D02*
D03*
X171264Y-16224D02*
D03*
X141736Y42831D02*
D03*
X151579Y23146D02*
D03*
X141736Y3461D02*
D03*
X151579Y-16224D02*
D03*
X122051Y42831D02*
D03*
X131894Y23146D02*
D03*
X122051Y3461D02*
D03*
X131894Y-16224D02*
D03*
X102366Y42831D02*
D03*
X112209Y23146D02*
D03*
X102366Y3461D02*
D03*
X112209Y-16224D02*
D03*
X82681Y42831D02*
D03*
X92524Y23146D02*
D03*
X82681Y3461D02*
D03*
X92524Y-16224D02*
D03*
X72839Y62516D02*
D03*
X62996Y42831D02*
D03*
X72839Y23146D02*
D03*
X62996Y3461D02*
D03*
X72839Y-16224D02*
D03*
X23626Y42831D02*
D03*
X33468Y23146D02*
D03*
Y-16224D02*
D03*
X13783Y62516D02*
D03*
Y-16224D02*
D03*
X-5902Y62516D02*
D03*
X-15744Y42831D02*
D03*
X-5902Y23146D02*
D03*
X-25587Y62516D02*
D03*
Y23146D02*
D03*
Y-16224D02*
D03*
X-55114Y3461D02*
D03*
X-45272Y-16224D02*
D03*
X-64957Y62516D02*
D03*
X-74799Y42831D02*
D03*
X-64957Y23146D02*
D03*
X-74799Y3461D02*
D03*
X-94484Y42831D02*
D03*
X-84642Y23146D02*
D03*
X-94484Y-35909D02*
D03*
X-114169Y42831D02*
D03*
X-104327Y23146D02*
D03*
X-114169Y3461D02*
D03*
X-104327Y-16224D02*
D03*
X-114169Y-35909D02*
D03*
X-133854Y42831D02*
D03*
X-124012Y23146D02*
D03*
X-133854Y3461D02*
D03*
X-124012Y-16224D02*
D03*
X-133854Y-35909D02*
D03*
X-153539Y42831D02*
D03*
X-143697Y23146D02*
D03*
X-153539Y3461D02*
D03*
X-143697Y-16224D02*
D03*
X-153539Y-35909D02*
D03*
X-173224Y42831D02*
D03*
Y-35909D02*
D03*
X-192909Y42831D02*
D03*
X-183067Y23146D02*
D03*
X-192909Y3461D02*
D03*
X-183067Y-16224D02*
D03*
X-192909Y-35909D02*
D03*
X-202752Y23146D02*
D03*
X-212595Y3461D02*
D03*
X-202752Y-16224D02*
D03*
X-54684Y24213D02*
D03*
X51181Y31496D02*
D03*
X43307D02*
D03*
X-67968Y-15748D02*
D03*
X-67895Y-18871D02*
D03*
X1693Y15748D02*
D03*
X54744Y-22441D02*
D03*
X49744Y6693D02*
D03*
X44744D02*
D03*
X39744Y-22441D02*
D03*
X47244Y-25866D02*
D03*
X13504Y43307D02*
D03*
X1693D02*
D03*
X-10118D02*
D03*
X13504Y15748D02*
D03*
X-10118D02*
D03*
X-26575Y3150D02*
D03*
Y0D02*
D03*
Y-3150D02*
D03*
Y-6299D02*
D03*
Y-9449D02*
D03*
X-67913Y-12598D02*
D03*
X-36220Y12795D02*
D03*
X-55118D02*
D03*
X-67421Y-9449D02*
D03*
X-88967Y-2067D02*
D03*
X-92244Y1969D02*
D03*
X-100010Y-5807D02*
D03*
X164567Y-21929D02*
D03*
X-164567D02*
D03*
X49647Y66929D02*
D03*
X44726D02*
D03*
X7874Y64370D02*
D03*
X3150D02*
D03*
X-3150D02*
D03*
X-39920Y66929D02*
D03*
X-44841D02*
D03*
X-49762D02*
D03*
X-54684D02*
D03*
M02*
