G04*
G04 #@! TF.GenerationSoftware,Altium Limited,Altium Designer,23.3.1 (30)*
G04*
G04 Layer_Color=8421504*
%FSLAX25Y25*%
%MOIN*%
G70*
G04*
G04 #@! TF.SameCoordinates,AEED621E-3CD5-435C-AC93-41C8B311E913*
G04*
G04*
G04 #@! TF.FilePolarity,Positive*
G04*
G01*
G75*
%ADD15R,0.01850X0.02047*%
%ADD16R,0.02047X0.01850*%
%ADD17R,0.01575X0.01575*%
%ADD18R,0.03937X0.02756*%
%ADD19R,0.03937X0.01968*%
%ADD20R,0.01968X0.04724*%
%ADD21R,0.04724X0.01968*%
%ADD22R,0.22441X0.21654*%
%ADD23R,0.06890X0.03937*%
%ADD24R,0.02362X0.04724*%
%ADD25R,0.07047X0.12598*%
%ADD26R,0.07874X0.11811*%
%ADD27R,0.02953X0.05906*%
%ADD28R,0.04724X0.07284*%
%ADD29R,0.03150X0.01968*%
D15*
X-45669Y15748D02*
D03*
X-49055D02*
D03*
X-42520Y-31496D02*
D03*
X-39134D02*
D03*
X-48819D02*
D03*
X-52205D02*
D03*
X-96732Y3937D02*
D03*
X-100118D02*
D03*
X-92244D02*
D03*
X-88858D02*
D03*
X-92244Y0D02*
D03*
X-88858D02*
D03*
X-100118Y-7874D02*
D03*
X-96732D02*
D03*
Y-11811D02*
D03*
X-100118D02*
D03*
X-92244D02*
D03*
X-88858D02*
D03*
X13504Y19685D02*
D03*
X10118D02*
D03*
Y23622D02*
D03*
X13504D02*
D03*
X10118Y27559D02*
D03*
X13504D02*
D03*
Y39370D02*
D03*
X10118D02*
D03*
X1693D02*
D03*
X-1693D02*
D03*
Y27559D02*
D03*
X1693D02*
D03*
X-1693Y23622D02*
D03*
X1693D02*
D03*
Y19685D02*
D03*
X-1693D02*
D03*
X-10118D02*
D03*
X-13504D02*
D03*
Y23622D02*
D03*
X-10118D02*
D03*
X-13504Y27559D02*
D03*
X-10118D02*
D03*
Y39370D02*
D03*
X-13504D02*
D03*
D16*
X-70866Y-6063D02*
D03*
Y-9449D02*
D03*
Y-12598D02*
D03*
Y-15984D02*
D03*
X-168504Y-21929D02*
D03*
Y-25315D02*
D03*
X-160630Y-21929D02*
D03*
Y-25315D02*
D03*
X168504Y-21929D02*
D03*
Y-25315D02*
D03*
X160630Y-21929D02*
D03*
Y-25315D02*
D03*
X-15748Y-1358D02*
D03*
Y2028D02*
D03*
X59490Y46968D02*
D03*
Y43583D02*
D03*
X54568D02*
D03*
Y46968D02*
D03*
X49744Y-25866D02*
D03*
Y-29252D02*
D03*
X44744Y-25866D02*
D03*
Y-29252D02*
D03*
X39744D02*
D03*
Y-25866D02*
D03*
Y10118D02*
D03*
Y13504D02*
D03*
X64961Y30236D02*
D03*
Y26850D02*
D03*
X29528D02*
D03*
Y30236D02*
D03*
D17*
X-99902Y-3740D02*
D03*
X-96949D02*
D03*
X-98425Y-197D02*
D03*
X-89075Y-4134D02*
D03*
X-92028D02*
D03*
X-90551Y-7677D02*
D03*
X10335Y31693D02*
D03*
X13287D02*
D03*
X11811Y35236D02*
D03*
X-1476Y31693D02*
D03*
X1476D02*
D03*
X0Y35236D02*
D03*
X-13287Y31693D02*
D03*
X-10335D02*
D03*
X-11811Y35236D02*
D03*
D18*
X-15748Y-17323D02*
D03*
Y-11417D02*
D03*
D19*
X-59055Y24213D02*
D03*
Y38780D02*
D03*
X-35433Y24213D02*
D03*
Y38780D02*
D03*
D20*
X-58268Y-24606D02*
D03*
X-55118D02*
D03*
X-51968D02*
D03*
X-48819D02*
D03*
X-45669D02*
D03*
X-42520D02*
D03*
X-39370D02*
D03*
X-36220D02*
D03*
Y8858D02*
D03*
X-39370D02*
D03*
X-42520D02*
D03*
X-45669D02*
D03*
X-48819D02*
D03*
X-51968D02*
D03*
X-55118D02*
D03*
X-58268D02*
D03*
D21*
X-30512Y-18898D02*
D03*
Y-15748D02*
D03*
Y-12598D02*
D03*
Y-9449D02*
D03*
Y-6299D02*
D03*
Y-3150D02*
D03*
Y0D02*
D03*
Y3150D02*
D03*
X-63976D02*
D03*
Y0D02*
D03*
Y-3150D02*
D03*
Y-6299D02*
D03*
Y-9449D02*
D03*
Y-12598D02*
D03*
Y-15748D02*
D03*
Y-18898D02*
D03*
D22*
X0Y-7874D02*
D03*
D23*
X26240Y1122D02*
D03*
Y-16870D02*
D03*
D24*
X44744Y2756D02*
D03*
X39744D02*
D03*
X49744D02*
D03*
X54744D02*
D03*
X44744Y-18504D02*
D03*
X39744D02*
D03*
X49744D02*
D03*
X54744D02*
D03*
D25*
X58268Y31496D02*
D03*
X36220D02*
D03*
D26*
X69529Y70472D02*
D03*
X24844D02*
D03*
X-24959D02*
D03*
X-69644D02*
D03*
D27*
X54568Y59055D02*
D03*
X59490D02*
D03*
X49647D02*
D03*
X39805D02*
D03*
X44726D02*
D03*
X34883D02*
D03*
X-39920D02*
D03*
X-34998D02*
D03*
X-44841D02*
D03*
X-54684D02*
D03*
X-49762D02*
D03*
X-59605D02*
D03*
D28*
X164567Y-9646D02*
D03*
Y49409D02*
D03*
X-164567Y-9646D02*
D03*
Y49409D02*
D03*
D29*
X3150Y72638D02*
D03*
X-3150D02*
D03*
Y69095D02*
D03*
X3150D02*
D03*
M02*
