G04*
G04 #@! TF.GenerationSoftware,Altium Limited,Altium Designer,23.3.1 (30)*
G04*
G04 Layer_Color=8388736*
%FSLAX25Y25*%
%MOIN*%
G70*
G04*
G04 #@! TF.SameCoordinates,AEED621E-3CD5-435C-AC93-41C8B311E913*
G04*
G04*
G04 #@! TF.FilePolarity,Positive*
G04*
G01*
G75*
%ADD58C,0.00079*%
%ADD59C,0.00039*%
D58*
X-50315Y14272D02*
X-44409D01*
X-50315Y17224D02*
X-44409D01*
Y14272D02*
Y17224D01*
X-50315Y14272D02*
Y17224D01*
X-43780Y-30020D02*
X-37874D01*
X-43780Y-32972D02*
X-37874D01*
X-43780D02*
Y-30020D01*
X-37874Y-32972D02*
Y-30020D01*
X-53465Y-32972D02*
X-47559D01*
X-53465Y-30020D02*
X-47559D01*
Y-32972D02*
Y-30020D01*
X-53465Y-32972D02*
Y-30020D01*
X-69390Y-17244D02*
Y-11339D01*
X-72342Y-17244D02*
Y-11339D01*
X-69390D01*
X-72342Y-17244D02*
X-69390D01*
X-159153Y-26575D02*
Y-20669D01*
X-162106Y-26575D02*
Y-20669D01*
X-159153D01*
X-162106Y-26575D02*
X-159153D01*
X169980D02*
Y-20669D01*
X167028Y-26575D02*
Y-20669D01*
X169980D01*
X167028Y-26575D02*
X169980D01*
X-17224Y-2618D02*
Y3287D01*
X-14272Y-2618D02*
Y3287D01*
X-17224Y-2618D02*
X-14272D01*
X-17224Y3287D02*
X-14272D01*
X60966Y42323D02*
Y48228D01*
X58013Y42323D02*
Y48228D01*
X60966D01*
X58013Y42323D02*
X60966D01*
X46220Y-30512D02*
Y-24606D01*
X43268Y-30512D02*
Y-24606D01*
X46220D01*
X43268Y-30512D02*
X46220D01*
X38268Y8858D02*
Y14764D01*
X41221Y8858D02*
Y14764D01*
X38268Y8858D02*
X41221D01*
X38268Y14764D02*
X41221D01*
X8858Y29035D02*
X14764D01*
X8858Y26083D02*
X14764D01*
X8858D02*
Y29035D01*
X14764Y26083D02*
Y29035D01*
X-2953D02*
X2953D01*
X-2953Y26083D02*
X2953D01*
X-2953D02*
Y29035D01*
X2953Y26083D02*
Y29035D01*
X-14764D02*
X-8858D01*
X-14764Y26083D02*
X-8858D01*
X-14764D02*
Y29035D01*
X-8858Y26083D02*
Y29035D01*
D59*
X-72342Y-4803D02*
X-69390D01*
X-72342Y-10709D02*
Y-4803D01*
X-69390Y-10709D02*
Y-4803D01*
X-72342Y-10709D02*
X-69390D01*
X-95472Y2461D02*
Y5413D01*
X-101378D02*
X-95472D01*
X-101378Y2461D02*
X-95472D01*
X-101378D02*
Y5413D01*
X-93504Y2461D02*
Y5413D01*
Y2461D02*
X-87598D01*
X-93504Y5413D02*
X-87598D01*
Y2461D02*
Y5413D01*
X-93504Y-1476D02*
Y1476D01*
Y-1476D02*
X-87598D01*
X-93504Y1476D02*
X-87598D01*
Y-1476D02*
Y1476D01*
X-100787Y-4921D02*
X-96063D01*
X-100787D02*
Y984D01*
X-96063D01*
Y-4921D02*
Y984D01*
X-92913Y-2953D02*
X-88189D01*
Y-8858D02*
Y-2953D01*
X-92913Y-8858D02*
X-88189D01*
X-92913D02*
Y-2953D01*
X-101378Y-9350D02*
Y-6398D01*
Y-9350D02*
X-95472D01*
X-101378Y-6398D02*
X-95472D01*
Y-9350D02*
Y-6398D01*
Y-13287D02*
Y-10335D01*
X-101378D02*
X-95472D01*
X-101378Y-13287D02*
X-95472D01*
X-101378D02*
Y-10335D01*
X-93504Y-13287D02*
Y-10335D01*
Y-13287D02*
X-87598D01*
X-93504Y-10335D02*
X-87598D01*
Y-13287D02*
Y-10335D01*
X-169980Y-20669D02*
X-167028D01*
X-169980Y-26575D02*
Y-20669D01*
X-167028Y-26575D02*
Y-20669D01*
X-169980Y-26575D02*
X-167028D01*
X159153Y-20669D02*
X162106D01*
X159153Y-26575D02*
Y-20669D01*
X162106Y-26575D02*
Y-20669D01*
X159153Y-26575D02*
X162106D01*
X-18209Y-9449D02*
X-13287D01*
X-18209Y-19291D02*
Y-9449D01*
X-13287Y-19291D02*
Y-9449D01*
X-18209Y-19291D02*
X-13287D01*
X53092Y42323D02*
X56045D01*
Y48228D01*
X53092Y42323D02*
Y48228D01*
X56045D01*
X-61244Y41696D02*
X-33244D01*
Y21296D02*
Y41696D01*
X-61244Y21296D02*
X-33244D01*
X-61244D02*
Y41696D01*
X-27559Y-27559D02*
Y11811D01*
X-66929Y-27559D02*
Y11811D01*
X-27559D01*
X-66929Y-27559D02*
X-27559D01*
X-13780Y7874D02*
X31496D01*
Y-23622D02*
Y7874D01*
X-13780Y-23622D02*
X31496D01*
X-13780D02*
Y7874D01*
X48268Y-24606D02*
X51221D01*
X48268Y-30512D02*
Y-24606D01*
X51221Y-30512D02*
Y-24606D01*
X48268Y-30512D02*
X51221D01*
X38268D02*
X41221D01*
Y-24606D01*
X38268Y-30512D02*
Y-24606D01*
X41221D01*
X57087Y-19685D02*
Y3937D01*
X37402Y-19685D02*
Y3937D01*
X57087D01*
X37402Y-19685D02*
X57087D01*
X62992Y23622D02*
Y39370D01*
X31496Y23622D02*
X62992D01*
X31496Y39370D02*
X62992D01*
X31496Y23622D02*
Y39370D01*
X63484Y31496D02*
X66437D01*
X63484Y25591D02*
Y31496D01*
X66437Y25591D02*
Y31496D01*
X63484Y25591D02*
X66437D01*
X28051D02*
X31004D01*
Y31496D01*
X28051Y25591D02*
Y31496D01*
X31004D01*
X14764Y18209D02*
Y21161D01*
X8858D02*
X14764D01*
X8858Y18209D02*
X14764D01*
X8858D02*
Y21161D01*
Y22146D02*
Y25098D01*
Y22146D02*
X14764D01*
X8858Y25098D02*
X14764D01*
Y22146D02*
Y25098D01*
X9449Y30512D02*
X14173D01*
X9449D02*
Y36417D01*
X14173D01*
Y30512D02*
Y36417D01*
X14764Y37894D02*
Y40846D01*
X8858D02*
X14764D01*
X8858Y37894D02*
X14764D01*
X8858D02*
Y40846D01*
X2953Y37894D02*
Y40846D01*
X-2953D02*
X2953D01*
X-2953Y37894D02*
X2953D01*
X-2953D02*
Y40846D01*
X-2362Y30512D02*
X2362D01*
X-2362D02*
Y36417D01*
X2362D01*
Y30512D02*
Y36417D01*
X-2953Y22146D02*
Y25098D01*
Y22146D02*
X2953D01*
X-2953Y25098D02*
X2953D01*
Y22146D02*
Y25098D01*
Y18209D02*
Y21161D01*
X-2953D02*
X2953D01*
X-2953Y18209D02*
X2953D01*
X-2953D02*
Y21161D01*
X-8858Y18209D02*
Y21161D01*
X-14764D02*
X-8858D01*
X-14764Y18209D02*
X-8858D01*
X-14764D02*
Y21161D01*
Y22146D02*
Y25098D01*
Y22146D02*
X-8858D01*
X-14764Y25098D02*
X-8858D01*
Y22146D02*
Y25098D01*
X-14173Y30512D02*
X-9449D01*
X-14173D02*
Y36417D01*
X-9449D01*
Y30512D02*
Y36417D01*
X-8858Y37894D02*
Y40846D01*
X-14764D02*
X-8858D01*
X-14764Y37894D02*
X-8858D01*
X-14764D02*
Y40846D01*
X19685Y78740D02*
X74803D01*
X19685Y55118D02*
X74803D01*
X19685D02*
Y78740D01*
X74803Y55118D02*
Y78740D01*
X156693Y55315D02*
X172441D01*
X156693Y-15551D02*
X172441D01*
X156693D02*
Y55315D01*
X172441Y-15551D02*
Y55315D01*
X-172441D02*
X-156693D01*
X-172441Y-15551D02*
X-156693D01*
X-172441D02*
Y55315D01*
X-156693Y-15551D02*
Y55315D01*
X-74803Y78740D02*
X-19685D01*
X-74803Y55118D02*
X-19685D01*
X-74803D02*
Y78740D01*
X-19685Y55118D02*
Y78740D01*
X4900Y67566D02*
Y74166D01*
X-4900D02*
X4900D01*
X-4900Y67566D02*
Y74166D01*
Y67566D02*
X4900D01*
M02*
