G04*
G04 #@! TF.GenerationSoftware,Altium Limited,Altium Designer,23.3.1 (30)*
G04*
G04 Layer_Physical_Order=3*
G04 Layer_Color=16440176*
%FSLAX25Y25*%
%MOIN*%
G70*
G04*
G04 #@! TF.SameCoordinates,AEED621E-3CD5-435C-AC93-41C8B311E913*
G04*
G04*
G04 #@! TF.FilePolarity,Positive*
G04*
G01*
G75*
%ADD11C,0.01575*%
%ADD53C,0.19685*%
%ADD54C,0.02953*%
%ADD55C,0.01968*%
G36*
X75563Y77737D02*
X76240D01*
X77567Y77473D01*
X78817Y76955D01*
X79943Y76203D01*
X80900Y75246D01*
X81652Y74121D01*
X82170Y72870D01*
X82433Y71543D01*
X82433Y70866D01*
X82433Y62992D01*
X82438Y62968D01*
X82435Y62943D01*
X82473Y62171D01*
X82491Y62099D01*
Y62024D01*
X82792Y60511D01*
X82830Y60419D01*
X82849Y60322D01*
X83440Y58896D01*
X83495Y58814D01*
X83532Y58723D01*
X84390Y57439D01*
X84460Y57370D01*
X84515Y57287D01*
X85606Y56196D01*
X85688Y56141D01*
X85758Y56071D01*
X87042Y55213D01*
X87133Y55176D01*
X87215Y55121D01*
X88641Y54530D01*
X88738Y54511D01*
X88829Y54473D01*
X90343Y54172D01*
X90418D01*
X90490Y54154D01*
X91262Y54116D01*
X91286Y54119D01*
X91311Y54115D01*
X209370D01*
X210774Y53930D01*
X212143Y53563D01*
X213452Y53021D01*
X214679Y52312D01*
X215803Y51450D01*
X216804Y50448D01*
X217667Y49324D01*
X218375Y48097D01*
X218917Y46788D01*
X219284Y45420D01*
X219469Y44015D01*
X219469Y43307D01*
X219469Y-43307D01*
Y-44015D01*
X219284Y-45420D01*
X218917Y-46788D01*
X218375Y-48097D01*
X217667Y-49324D01*
X216804Y-50448D01*
X215803Y-51450D01*
X214679Y-52312D01*
X213452Y-53021D01*
X212143Y-53563D01*
X210774Y-53930D01*
X209370Y-54115D01*
X208661Y-54115D01*
X-208661Y-54115D01*
X-209370D01*
X-210774Y-53930D01*
X-212143Y-53563D01*
X-213452Y-53021D01*
X-214679Y-52312D01*
X-215803Y-51450D01*
X-216804Y-50448D01*
X-217667Y-49324D01*
X-218375Y-48097D01*
X-218917Y-46788D01*
X-219284Y-45420D01*
X-219469Y-44015D01*
X-219469Y-43307D01*
X-219469Y43307D01*
Y44015D01*
X-219284Y45420D01*
X-218917Y46788D01*
X-218375Y48097D01*
X-217667Y49324D01*
X-216804Y50448D01*
X-215803Y51450D01*
X-214679Y52312D01*
X-213452Y53021D01*
X-212143Y53563D01*
X-210774Y53930D01*
X-209370Y54115D01*
X-208661Y54115D01*
X-90551D01*
X-90527Y54119D01*
X-90502Y54116D01*
X-89730Y54154D01*
X-89658Y54172D01*
X-89584D01*
X-88070Y54473D01*
X-87978Y54511D01*
X-87881Y54530D01*
X-86455Y55121D01*
X-86373Y55176D01*
X-86282Y55213D01*
X-84999Y56071D01*
X-84929Y56141D01*
X-84846Y56196D01*
X-83755Y57287D01*
X-83700Y57370D01*
X-83630Y57439D01*
X-82773Y58723D01*
X-82735Y58814D01*
X-82680Y58896D01*
X-82089Y60322D01*
X-82070Y60419D01*
X-82032Y60511D01*
X-81731Y62025D01*
Y62099D01*
X-81713Y62171D01*
X-81675Y62943D01*
X-81679Y62968D01*
X-81674Y62992D01*
X-81674Y70866D01*
Y71543D01*
X-81410Y72870D01*
X-80892Y74121D01*
X-80140Y75246D01*
X-79183Y76203D01*
X-78058Y76955D01*
X-76807Y77473D01*
X-75480Y77737D01*
X-74803Y77737D01*
X75563Y77737D01*
D02*
G37*
%LPC*%
G36*
X49804Y67716D02*
X49491D01*
X49201Y67597D01*
X48980Y67375D01*
X48860Y67086D01*
Y66773D01*
X48980Y66483D01*
X49201Y66262D01*
X49491Y66142D01*
X49804D01*
X50093Y66262D01*
X50315Y66483D01*
X50435Y66773D01*
Y67086D01*
X50315Y67375D01*
X50093Y67597D01*
X49804Y67716D01*
D02*
G37*
G36*
X44883D02*
X44569D01*
X44280Y67597D01*
X44058Y67375D01*
X43939Y67086D01*
Y66773D01*
X44058Y66483D01*
X44280Y66262D01*
X44569Y66142D01*
X44883D01*
X45172Y66262D01*
X45393Y66483D01*
X45513Y66773D01*
Y67086D01*
X45393Y67375D01*
X45172Y67597D01*
X44883Y67716D01*
D02*
G37*
G36*
X-39763D02*
X-40076D01*
X-40366Y67597D01*
X-40587Y67375D01*
X-40707Y67086D01*
Y66773D01*
X-40587Y66483D01*
X-40366Y66262D01*
X-40076Y66142D01*
X-39763D01*
X-39474Y66262D01*
X-39252Y66483D01*
X-39132Y66773D01*
Y67086D01*
X-39252Y67375D01*
X-39474Y67597D01*
X-39763Y67716D01*
D02*
G37*
G36*
X-44684D02*
X-44998D01*
X-45287Y67597D01*
X-45509Y67375D01*
X-45628Y67086D01*
Y66773D01*
X-45509Y66483D01*
X-45287Y66262D01*
X-44998Y66142D01*
X-44684D01*
X-44395Y66262D01*
X-44173Y66483D01*
X-44054Y66773D01*
Y67086D01*
X-44173Y67375D01*
X-44395Y67597D01*
X-44684Y67716D01*
D02*
G37*
G36*
X-49606D02*
X-49919D01*
X-50208Y67597D01*
X-50430Y67375D01*
X-50550Y67086D01*
Y66773D01*
X-50430Y66483D01*
X-50208Y66262D01*
X-49919Y66142D01*
X-49606D01*
X-49316Y66262D01*
X-49095Y66483D01*
X-48975Y66773D01*
Y67086D01*
X-49095Y67375D01*
X-49316Y67597D01*
X-49606Y67716D01*
D02*
G37*
G36*
X-54527D02*
X-54840D01*
X-55129Y67597D01*
X-55351Y67375D01*
X-55471Y67086D01*
Y66773D01*
X-55351Y66483D01*
X-55129Y66262D01*
X-54840Y66142D01*
X-54527D01*
X-54237Y66262D01*
X-54016Y66483D01*
X-53896Y66773D01*
Y67086D01*
X-54016Y67375D01*
X-54237Y67597D01*
X-54527Y67716D01*
D02*
G37*
G36*
X8031Y65158D02*
X7717D01*
X7428Y65038D01*
X7207Y64816D01*
X7087Y64527D01*
Y64214D01*
X7207Y63924D01*
X7428Y63703D01*
X7717Y63583D01*
X8031D01*
X8320Y63703D01*
X8541Y63924D01*
X8661Y64214D01*
Y64527D01*
X8541Y64816D01*
X8320Y65038D01*
X8031Y65158D01*
D02*
G37*
G36*
X3306D02*
X2993D01*
X2704Y65038D01*
X2482Y64816D01*
X2362Y64527D01*
Y64214D01*
X2482Y63924D01*
X2704Y63703D01*
X2993Y63583D01*
X3306D01*
X3596Y63703D01*
X3817Y63924D01*
X3937Y64214D01*
Y64527D01*
X3817Y64816D01*
X3596Y65038D01*
X3306Y65158D01*
D02*
G37*
G36*
X-2993D02*
X-3306D01*
X-3596Y65038D01*
X-3817Y64816D01*
X-3937Y64527D01*
Y64214D01*
X-3817Y63924D01*
X-3596Y63703D01*
X-3306Y63583D01*
X-2993D01*
X-2704Y63703D01*
X-2482Y63924D01*
X-2362Y64214D01*
Y64527D01*
X-2482Y64816D01*
X-2704Y65038D01*
X-2993Y65158D01*
D02*
G37*
G36*
X-34724Y68307D02*
X-35272D01*
X-35779Y68097D01*
X-36167Y67710D01*
X-36376Y67203D01*
Y66655D01*
X-36203Y66236D01*
Y53000D01*
X-46521Y42682D01*
X-46782Y42292D01*
X-46874Y41831D01*
X-46874Y41831D01*
Y12997D01*
X-47047Y12577D01*
Y12029D01*
X-46874Y11610D01*
Y3330D01*
X-49670Y533D01*
X-49931Y142D01*
X-50023Y-319D01*
X-50023Y-319D01*
Y-26847D01*
X-86450D01*
X-91040Y-22257D01*
Y-16952D01*
X-80248D01*
X-80248Y-16952D01*
X-79787Y-16861D01*
X-79396Y-16600D01*
X-77649Y-14852D01*
X-77649Y-14852D01*
X-77387Y-14461D01*
X-77296Y-14000D01*
X-77296Y-14000D01*
Y-4999D01*
X-75627Y-3330D01*
X-71560D01*
X-71140Y-3504D01*
X-70592D01*
X-70086Y-3294D01*
X-69698Y-2906D01*
X-69488Y-2400D01*
Y-1852D01*
X-69698Y-1345D01*
X-70086Y-958D01*
X-70592Y-748D01*
X-71140D01*
X-71560Y-922D01*
X-76126D01*
X-76126Y-922D01*
X-76587Y-1013D01*
X-76977Y-1275D01*
X-76977Y-1275D01*
X-79352Y-3649D01*
X-79613Y-4039D01*
X-79704Y-4500D01*
X-79704Y-4500D01*
Y-13501D01*
X-80747Y-14544D01*
X-91040D01*
Y-6256D01*
X-91132Y-5795D01*
X-91236Y-5639D01*
X-91393Y-5404D01*
X-91393Y-5404D01*
X-95528Y-1269D01*
Y7181D01*
X-95354Y7600D01*
Y8148D01*
X-95564Y8655D01*
X-95952Y9042D01*
X-96458Y9252D01*
X-97006D01*
X-97513Y9042D01*
X-97900Y8655D01*
X-98110Y8148D01*
Y7600D01*
X-97936Y7181D01*
Y-1768D01*
X-97936Y-1768D01*
X-97845Y-2228D01*
X-97584Y-2619D01*
X-93448Y-6755D01*
Y-15055D01*
X-93622Y-15474D01*
Y-16022D01*
X-93448Y-16442D01*
Y-22756D01*
X-93448Y-22756D01*
X-93357Y-23217D01*
X-93096Y-23607D01*
X-87800Y-28903D01*
X-87800Y-28903D01*
X-87410Y-29164D01*
X-86949Y-29255D01*
X-49512D01*
X-49093Y-29429D01*
X-48545D01*
X-48125Y-29255D01*
X-43213D01*
X-42794Y-29429D01*
X-42246D01*
X-41826Y-29255D01*
X-13686D01*
X-13266Y-29429D01*
X-12718D01*
X-12299Y-29255D01*
X25052D01*
X25900Y-30103D01*
X25900Y-30103D01*
X26135Y-30260D01*
X26291Y-30365D01*
X26752Y-30456D01*
X35114D01*
X35533Y-30630D01*
X36081D01*
X36588Y-30420D01*
X36975Y-30033D01*
X37185Y-29526D01*
Y-28978D01*
X37011Y-28558D01*
Y-13692D01*
X40596Y-10108D01*
X40596Y-10108D01*
X40857Y-9717D01*
X40948Y-9256D01*
Y5743D01*
X41122Y6163D01*
Y6711D01*
X40912Y7218D01*
X40525Y7605D01*
X40018Y7815D01*
X39470D01*
X38963Y7605D01*
X38576Y7218D01*
X38366Y6711D01*
Y6163D01*
X38540Y5743D01*
Y-8757D01*
X34955Y-12341D01*
X34694Y-12732D01*
X34603Y-13193D01*
X34603Y-13193D01*
Y-28048D01*
X27251D01*
X26403Y-27200D01*
X26012Y-26939D01*
X25551Y-26847D01*
X25551Y-26847D01*
X-11788D01*
Y-8194D01*
X-11614Y-7774D01*
Y-7226D01*
X-11788Y-6807D01*
Y-4194D01*
X-11614Y-3774D01*
Y-3226D01*
X-11824Y-2719D01*
X-12212Y-2332D01*
X-12718Y-2122D01*
X-13266D01*
X-13773Y-2332D01*
X-14160Y-2719D01*
X-14370Y-3226D01*
Y-3774D01*
X-14196Y-4194D01*
Y-6807D01*
X-14370Y-7226D01*
Y-7774D01*
X-14196Y-8194D01*
Y-26847D01*
X-41826D01*
X-42246Y-26673D01*
X-42794D01*
X-43213Y-26847D01*
X-47615D01*
Y-818D01*
X-44818Y1979D01*
X-44818Y1979D01*
X-44557Y2370D01*
X-44465Y2831D01*
X-44465Y2831D01*
Y11610D01*
X-44291Y12029D01*
Y12577D01*
X-44465Y12997D01*
Y41332D01*
X-34147Y51650D01*
X-33886Y52041D01*
X-33794Y52502D01*
X-33794Y52502D01*
Y65725D01*
X-9570D01*
X-9078Y65233D01*
Y65064D01*
X-9252Y64644D01*
Y64096D01*
X-9042Y63590D01*
X-8655Y63202D01*
X-8148Y62992D01*
X-7600D01*
X-7094Y63202D01*
X-6706Y63590D01*
X-6496Y64096D01*
Y64644D01*
X-6670Y65064D01*
Y65732D01*
X-6670Y65732D01*
X-6762Y66193D01*
X-7023Y66584D01*
X-7023Y66584D01*
X-8219Y67781D01*
X-8610Y68042D01*
X-9071Y68133D01*
X-9071Y68133D01*
X-34305D01*
X-34724Y68307D01*
D02*
G37*
G36*
X209670Y53543D02*
X209055D01*
Y43701D01*
X218898D01*
Y44315D01*
X218504Y46293D01*
X217733Y48156D01*
X216612Y49832D01*
X215187Y51258D01*
X213510Y52378D01*
X211647Y53150D01*
X209670Y53543D01*
D02*
G37*
G36*
X208268D02*
X207653D01*
X205676Y53150D01*
X203813Y52378D01*
X202136Y51258D01*
X200710Y49832D01*
X199590Y48156D01*
X198819Y46293D01*
X198425Y44315D01*
Y43701D01*
X208268D01*
Y53543D01*
D02*
G37*
G36*
X-207653D02*
X-208268D01*
Y43701D01*
X-198425D01*
Y44315D01*
X-198819Y46293D01*
X-199590Y48156D01*
X-200710Y49832D01*
X-202136Y51258D01*
X-203813Y52378D01*
X-205676Y53150D01*
X-207653Y53543D01*
D02*
G37*
G36*
X-209055D02*
X-209670D01*
X-211647Y53150D01*
X-213510Y52378D01*
X-215187Y51258D01*
X-216612Y49832D01*
X-217733Y48156D01*
X-218504Y46293D01*
X-218898Y44315D01*
Y43701D01*
X-209055D01*
Y53543D01*
D02*
G37*
G36*
X13661Y44094D02*
X13347D01*
X13058Y43975D01*
X12836Y43753D01*
X12717Y43464D01*
Y43150D01*
X12836Y42861D01*
X13058Y42640D01*
X13347Y42520D01*
X13661D01*
X13950Y42640D01*
X14172Y42861D01*
X14291Y43150D01*
Y43464D01*
X14172Y43753D01*
X13950Y43975D01*
X13661Y44094D01*
D02*
G37*
G36*
X1850D02*
X1536D01*
X1247Y43975D01*
X1025Y43753D01*
X905Y43464D01*
Y43150D01*
X1025Y42861D01*
X1247Y42640D01*
X1536Y42520D01*
X1850D01*
X2139Y42640D01*
X2360Y42861D01*
X2480Y43150D01*
Y43464D01*
X2360Y43753D01*
X2139Y43975D01*
X1850Y44094D01*
D02*
G37*
G36*
X-9962D02*
X-10275D01*
X-10564Y43975D01*
X-10786Y43753D01*
X-10905Y43464D01*
Y43150D01*
X-10786Y42861D01*
X-10564Y42640D01*
X-10275Y42520D01*
X-9962D01*
X-9672Y42640D01*
X-9451Y42861D01*
X-9331Y43150D01*
Y43464D01*
X-9451Y43753D01*
X-9672Y43975D01*
X-9962Y44094D01*
D02*
G37*
G36*
X218898Y42913D02*
X209055D01*
Y33071D01*
X209670D01*
X211647Y33464D01*
X213510Y34236D01*
X215187Y35356D01*
X216612Y36782D01*
X217733Y38458D01*
X218504Y40321D01*
X218898Y42299D01*
Y42913D01*
D02*
G37*
G36*
X208268D02*
X198425D01*
Y42299D01*
X198819Y40321D01*
X199590Y38458D01*
X200710Y36782D01*
X202136Y35356D01*
X203813Y34236D01*
X205676Y33464D01*
X207653Y33071D01*
X208268D01*
Y42913D01*
D02*
G37*
G36*
X-198425D02*
X-208268D01*
Y33071D01*
X-207653D01*
X-205676Y33464D01*
X-203813Y34236D01*
X-202136Y35356D01*
X-200710Y36782D01*
X-199590Y38458D01*
X-198819Y40321D01*
X-198425Y42299D01*
Y42913D01*
D02*
G37*
G36*
X-209055D02*
X-218898D01*
Y42299D01*
X-218504Y40321D01*
X-217733Y38458D01*
X-216612Y36782D01*
X-215187Y35356D01*
X-213510Y34236D01*
X-211647Y33464D01*
X-209670Y33071D01*
X-209055D01*
Y42913D01*
D02*
G37*
G36*
X51338Y32283D02*
X51025D01*
X50735Y32164D01*
X50513Y31942D01*
X50394Y31653D01*
Y31339D01*
X50513Y31050D01*
X50735Y30828D01*
X51025Y30709D01*
X51338D01*
X51627Y30828D01*
X51849Y31050D01*
X51968Y31339D01*
Y31653D01*
X51849Y31942D01*
X51627Y32164D01*
X51338Y32283D01*
D02*
G37*
G36*
X43464D02*
X43150D01*
X42861Y32164D01*
X42640Y31942D01*
X42520Y31653D01*
Y31339D01*
X42640Y31050D01*
X42861Y30828D01*
X43150Y30709D01*
X43464D01*
X43753Y30828D01*
X43975Y31050D01*
X44094Y31339D01*
Y31653D01*
X43975Y31942D01*
X43753Y32164D01*
X43464Y32283D01*
D02*
G37*
G36*
X-54527Y25000D02*
X-54840D01*
X-55129Y24880D01*
X-55351Y24659D01*
X-55471Y24369D01*
Y24056D01*
X-55351Y23767D01*
X-55129Y23545D01*
X-54840Y23425D01*
X-54527D01*
X-54237Y23545D01*
X-54016Y23767D01*
X-53896Y24056D01*
Y24369D01*
X-54016Y24659D01*
X-54237Y24880D01*
X-54527Y25000D01*
D02*
G37*
G36*
X59764Y68307D02*
X59216D01*
X58709Y68097D01*
X58322Y67710D01*
X58112Y67203D01*
Y66655D01*
X58285Y66236D01*
Y60510D01*
X58285Y60510D01*
X58377Y60049D01*
X58638Y59659D01*
X67693Y50603D01*
Y30930D01*
X67520Y30510D01*
Y29962D01*
X67693Y29543D01*
Y24396D01*
X66501Y23204D01*
X39500D01*
X39500Y23204D01*
X39039Y23113D01*
X38649Y22851D01*
X38649Y22851D01*
X35149Y19352D01*
X34887Y18961D01*
X34796Y18500D01*
X34796Y18500D01*
Y2543D01*
X34579Y2326D01*
X34020D01*
X33601Y2500D01*
X33053D01*
X32546Y2290D01*
X32159Y1903D01*
X31949Y1396D01*
Y848D01*
X32159Y341D01*
X32546Y-46D01*
X33053Y-256D01*
X33601D01*
X34020Y-82D01*
X35077D01*
X35078Y-82D01*
X35538Y10D01*
X35929Y271D01*
X36852Y1193D01*
X36852Y1193D01*
X37113Y1584D01*
X37204Y2045D01*
Y18001D01*
X39999Y20796D01*
X67000D01*
X67000Y20796D01*
X67461Y20887D01*
X67852Y21148D01*
X69749Y23046D01*
X70010Y23437D01*
X70102Y23898D01*
X70102Y23898D01*
Y29543D01*
X70276Y29962D01*
Y30510D01*
X70102Y30930D01*
Y51102D01*
X70010Y51563D01*
X69749Y51954D01*
X60694Y61009D01*
Y66236D01*
X60868Y66655D01*
Y67203D01*
X60658Y67710D01*
X60270Y68097D01*
X59764Y68307D01*
D02*
G37*
G36*
X13661Y16535D02*
X13347D01*
X13058Y16416D01*
X12836Y16194D01*
X12717Y15905D01*
Y15591D01*
X12836Y15302D01*
X13058Y15080D01*
X13347Y14961D01*
X13661D01*
X13950Y15080D01*
X14172Y15302D01*
X14291Y15591D01*
Y15905D01*
X14172Y16194D01*
X13950Y16416D01*
X13661Y16535D01*
D02*
G37*
G36*
X1850D02*
X1536D01*
X1247Y16416D01*
X1025Y16194D01*
X905Y15905D01*
Y15591D01*
X1025Y15302D01*
X1247Y15080D01*
X1536Y14961D01*
X1850D01*
X2139Y15080D01*
X2360Y15302D01*
X2480Y15591D01*
Y15905D01*
X2360Y16194D01*
X2139Y16416D01*
X1850Y16535D01*
D02*
G37*
G36*
X-9962D02*
X-10275D01*
X-10564Y16416D01*
X-10786Y16194D01*
X-10905Y15905D01*
Y15591D01*
X-10786Y15302D01*
X-10564Y15080D01*
X-10275Y14961D01*
X-9962D01*
X-9672Y15080D01*
X-9451Y15302D01*
X-9331Y15591D01*
Y15905D01*
X-9451Y16194D01*
X-9672Y16416D01*
X-9962Y16535D01*
D02*
G37*
G36*
X-36064Y13583D02*
X-36377D01*
X-36667Y13463D01*
X-36888Y13241D01*
X-37008Y12952D01*
Y12639D01*
X-36888Y12349D01*
X-36667Y12128D01*
X-36377Y12008D01*
X-36064D01*
X-35774Y12128D01*
X-35553Y12349D01*
X-35433Y12639D01*
Y12952D01*
X-35553Y13241D01*
X-35774Y13463D01*
X-36064Y13583D01*
D02*
G37*
G36*
X-54962D02*
X-55275D01*
X-55564Y13463D01*
X-55786Y13241D01*
X-55905Y12952D01*
Y12639D01*
X-55786Y12349D01*
X-55564Y12128D01*
X-55275Y12008D01*
X-54962D01*
X-54672Y12128D01*
X-54451Y12349D01*
X-54331Y12639D01*
Y12952D01*
X-54451Y13241D01*
X-54672Y13463D01*
X-54962Y13583D01*
D02*
G37*
G36*
X49901Y7480D02*
X49588D01*
X49298Y7360D01*
X49077Y7139D01*
X48957Y6849D01*
Y6536D01*
X49077Y6247D01*
X49298Y6025D01*
X49588Y5906D01*
X49901D01*
X50190Y6025D01*
X50412Y6247D01*
X50532Y6536D01*
Y6849D01*
X50412Y7139D01*
X50190Y7360D01*
X49901Y7480D01*
D02*
G37*
G36*
X44901D02*
X44587D01*
X44298Y7360D01*
X44076Y7139D01*
X43957Y6849D01*
Y6536D01*
X44076Y6247D01*
X44298Y6025D01*
X44587Y5906D01*
X44901D01*
X45190Y6025D01*
X45412Y6247D01*
X45531Y6536D01*
Y6849D01*
X45412Y7139D01*
X45190Y7360D01*
X44901Y7480D01*
D02*
G37*
G36*
X-26418Y3937D02*
X-26731D01*
X-27021Y3817D01*
X-27242Y3596D01*
X-27362Y3306D01*
Y2993D01*
X-27242Y2704D01*
X-27021Y2482D01*
X-26731Y2362D01*
X-26418D01*
X-26129Y2482D01*
X-25907Y2704D01*
X-25787Y2993D01*
Y3306D01*
X-25907Y3596D01*
X-26129Y3817D01*
X-26418Y3937D01*
D02*
G37*
G36*
X-92088Y2756D02*
X-92401D01*
X-92690Y2636D01*
X-92912Y2414D01*
X-93032Y2125D01*
Y1812D01*
X-92912Y1522D01*
X-92690Y1301D01*
X-92401Y1181D01*
X-92088D01*
X-91798Y1301D01*
X-91577Y1522D01*
X-91457Y1812D01*
Y2125D01*
X-91577Y2414D01*
X-91798Y2636D01*
X-92088Y2756D01*
D02*
G37*
G36*
X-26418Y787D02*
X-26731D01*
X-27021Y667D01*
X-27242Y446D01*
X-27362Y157D01*
Y-157D01*
X-27242Y-446D01*
X-27021Y-667D01*
X-26731Y-787D01*
X-26418D01*
X-26129Y-667D01*
X-25907Y-446D01*
X-25787Y-157D01*
Y157D01*
X-25907Y446D01*
X-26129Y667D01*
X-26418Y787D01*
D02*
G37*
G36*
X-88810Y-1280D02*
X-89123D01*
X-89413Y-1399D01*
X-89634Y-1621D01*
X-89754Y-1910D01*
Y-2224D01*
X-89634Y-2513D01*
X-89413Y-2734D01*
X-89123Y-2854D01*
X-88810D01*
X-88520Y-2734D01*
X-88299Y-2513D01*
X-88179Y-2224D01*
Y-1910D01*
X-88299Y-1621D01*
X-88520Y-1399D01*
X-88810Y-1280D01*
D02*
G37*
G36*
X-26418Y-2362D02*
X-26731D01*
X-27021Y-2482D01*
X-27242Y-2704D01*
X-27362Y-2993D01*
Y-3306D01*
X-27242Y-3596D01*
X-27021Y-3817D01*
X-26731Y-3937D01*
X-26418D01*
X-26129Y-3817D01*
X-25907Y-3596D01*
X-25787Y-3306D01*
Y-2993D01*
X-25907Y-2704D01*
X-26129Y-2482D01*
X-26418Y-2362D01*
D02*
G37*
G36*
X165342Y45492D02*
X163791D01*
X163695Y45472D01*
X163596D01*
X162074Y45170D01*
X161983Y45132D01*
X161886Y45113D01*
X160453Y44519D01*
X160371Y44464D01*
X160280Y44426D01*
X158990Y43565D01*
X158920Y43495D01*
X158838Y43440D01*
X157741Y42343D01*
X157686Y42261D01*
X157616Y42191D01*
X156755Y40901D01*
X156717Y40810D01*
X156662Y40728D01*
X156068Y39295D01*
X156049Y39198D01*
X156011Y39107D01*
X155709Y37585D01*
Y37487D01*
X155689Y37390D01*
Y36614D01*
Y3543D01*
Y2768D01*
X155709Y2671D01*
Y2572D01*
X156011Y1051D01*
X156049Y959D01*
X156068Y862D01*
X156662Y-570D01*
X156717Y-653D01*
X156755Y-744D01*
X157616Y-2034D01*
X157686Y-2104D01*
X157741Y-2186D01*
X158838Y-3283D01*
X158920Y-3337D01*
X158990Y-3407D01*
X160280Y-4269D01*
X160371Y-4307D01*
X160453Y-4362D01*
X161886Y-4955D01*
X161983Y-4975D01*
X162074Y-5012D01*
X163596Y-5315D01*
X163695D01*
X163791Y-5334D01*
X165342D01*
X165439Y-5315D01*
X165538D01*
X167060Y-5012D01*
X167151Y-4975D01*
X167248Y-4955D01*
X168681Y-4362D01*
X168763Y-4307D01*
X168854Y-4269D01*
X170144Y-3407D01*
X170214Y-3337D01*
X170296Y-3283D01*
X171393Y-2186D01*
X171448Y-2104D01*
X171518Y-2034D01*
X172379Y-744D01*
X172417Y-653D01*
X172472Y-570D01*
X173065Y862D01*
X173085Y959D01*
X173123Y1051D01*
X173425Y2572D01*
Y2671D01*
X173444Y2768D01*
Y3543D01*
Y36614D01*
Y37390D01*
X173425Y37487D01*
Y37585D01*
X173123Y39107D01*
X173085Y39198D01*
X173065Y39295D01*
X172472Y40728D01*
X172417Y40810D01*
X172379Y40901D01*
X171518Y42191D01*
X171448Y42261D01*
X171393Y42343D01*
X170296Y43440D01*
X170214Y43495D01*
X170144Y43565D01*
X168854Y44426D01*
X168763Y44464D01*
X168681Y44519D01*
X167248Y45113D01*
X167151Y45132D01*
X167060Y45170D01*
X165538Y45472D01*
X165439D01*
X165342Y45492D01*
D02*
G37*
G36*
X-163791D02*
X-165342D01*
X-165439Y45472D01*
X-165538D01*
X-167060Y45170D01*
X-167151Y45132D01*
X-167248Y45113D01*
X-168681Y44519D01*
X-168763Y44464D01*
X-168854Y44426D01*
X-170144Y43565D01*
X-170214Y43495D01*
X-170296Y43440D01*
X-171393Y42343D01*
X-171448Y42261D01*
X-171518Y42191D01*
X-172379Y40901D01*
X-172417Y40810D01*
X-172472Y40728D01*
X-173065Y39295D01*
X-173085Y39198D01*
X-173123Y39107D01*
X-173425Y37585D01*
Y37487D01*
X-173444Y37390D01*
Y36614D01*
Y3543D01*
Y2768D01*
X-173425Y2671D01*
Y2572D01*
X-173123Y1051D01*
X-173085Y959D01*
X-173065Y862D01*
X-172472Y-570D01*
X-172417Y-653D01*
X-172379Y-744D01*
X-171518Y-2034D01*
X-171448Y-2104D01*
X-171393Y-2186D01*
X-170296Y-3283D01*
X-170214Y-3337D01*
X-170144Y-3407D01*
X-168854Y-4269D01*
X-168763Y-4307D01*
X-168681Y-4362D01*
X-167248Y-4955D01*
X-167151Y-4975D01*
X-167060Y-5012D01*
X-165538Y-5315D01*
X-165439D01*
X-165342Y-5334D01*
X-163791D01*
X-163695Y-5315D01*
X-163596D01*
X-162074Y-5012D01*
X-161983Y-4975D01*
X-161886Y-4955D01*
X-160453Y-4362D01*
X-160371Y-4307D01*
X-160280Y-4269D01*
X-158990Y-3407D01*
X-158920Y-3337D01*
X-158838Y-3283D01*
X-157741Y-2186D01*
X-157686Y-2104D01*
X-157616Y-2034D01*
X-156755Y-744D01*
X-156717Y-653D01*
X-156662Y-570D01*
X-156068Y862D01*
X-156049Y959D01*
X-156011Y1051D01*
X-155709Y2572D01*
Y2671D01*
X-155689Y2768D01*
Y3543D01*
Y36614D01*
Y37390D01*
X-155709Y37487D01*
Y37585D01*
X-156011Y39107D01*
X-156049Y39198D01*
X-156068Y39295D01*
X-156662Y40728D01*
X-156717Y40810D01*
X-156755Y40901D01*
X-157616Y42191D01*
X-157686Y42261D01*
X-157741Y42343D01*
X-158838Y43440D01*
X-158920Y43495D01*
X-158990Y43565D01*
X-160280Y44426D01*
X-160371Y44464D01*
X-160453Y44519D01*
X-161886Y45113D01*
X-161983Y45132D01*
X-162074Y45170D01*
X-163596Y45472D01*
X-163695D01*
X-163791Y45492D01*
D02*
G37*
G36*
X-99853Y-5020D02*
X-100166D01*
X-100456Y-5139D01*
X-100677Y-5361D01*
X-100797Y-5650D01*
Y-5964D01*
X-100677Y-6253D01*
X-100456Y-6475D01*
X-100166Y-6594D01*
X-99853D01*
X-99564Y-6475D01*
X-99342Y-6253D01*
X-99222Y-5964D01*
Y-5650D01*
X-99342Y-5361D01*
X-99564Y-5139D01*
X-99853Y-5020D01*
D02*
G37*
G36*
X-26418Y-5512D02*
X-26731D01*
X-27021Y-5632D01*
X-27242Y-5853D01*
X-27362Y-6143D01*
Y-6456D01*
X-27242Y-6745D01*
X-27021Y-6967D01*
X-26731Y-7087D01*
X-26418D01*
X-26129Y-6967D01*
X-25907Y-6745D01*
X-25787Y-6456D01*
Y-6143D01*
X-25907Y-5853D01*
X-26129Y-5632D01*
X-26418Y-5512D01*
D02*
G37*
G36*
Y-8661D02*
X-26731D01*
X-27021Y-8781D01*
X-27242Y-9003D01*
X-27362Y-9292D01*
Y-9605D01*
X-27242Y-9895D01*
X-27021Y-10116D01*
X-26731Y-10236D01*
X-26418D01*
X-26129Y-10116D01*
X-25907Y-9895D01*
X-25787Y-9605D01*
Y-9292D01*
X-25907Y-9003D01*
X-26129Y-8781D01*
X-26418Y-8661D01*
D02*
G37*
G36*
X-67265D02*
X-67578D01*
X-67867Y-8781D01*
X-68089Y-9003D01*
X-68209Y-9292D01*
Y-9605D01*
X-68089Y-9895D01*
X-67867Y-10116D01*
X-67578Y-10236D01*
X-67265D01*
X-66975Y-10116D01*
X-66754Y-9895D01*
X-66634Y-9605D01*
Y-9292D01*
X-66754Y-9003D01*
X-66975Y-8781D01*
X-67265Y-8661D01*
D02*
G37*
G36*
X-67757Y-11811D02*
X-68070D01*
X-68359Y-11931D01*
X-68581Y-12152D01*
X-68701Y-12442D01*
Y-12755D01*
X-68581Y-13045D01*
X-68359Y-13266D01*
X-68070Y-13386D01*
X-67757D01*
X-67467Y-13266D01*
X-67246Y-13045D01*
X-67126Y-12755D01*
Y-12442D01*
X-67246Y-12152D01*
X-67467Y-11931D01*
X-67757Y-11811D01*
D02*
G37*
G36*
X-67812Y-14961D02*
X-68125D01*
X-68414Y-15080D01*
X-68636Y-15302D01*
X-68756Y-15591D01*
Y-15905D01*
X-68636Y-16194D01*
X-68414Y-16416D01*
X-68125Y-16535D01*
X-67812D01*
X-67523Y-16416D01*
X-67301Y-16194D01*
X-67181Y-15905D01*
Y-15591D01*
X-67301Y-15302D01*
X-67523Y-15080D01*
X-67812Y-14961D01*
D02*
G37*
G36*
X-67738Y-18083D02*
X-68052D01*
X-68341Y-18203D01*
X-68563Y-18425D01*
X-68683Y-18714D01*
Y-19027D01*
X-68563Y-19317D01*
X-68341Y-19538D01*
X-68052Y-19658D01*
X-67738D01*
X-67449Y-19538D01*
X-67228Y-19317D01*
X-67108Y-19027D01*
Y-18714D01*
X-67228Y-18425D01*
X-67449Y-18203D01*
X-67738Y-18083D01*
D02*
G37*
G36*
X164724Y-21142D02*
X164410D01*
X164121Y-21262D01*
X163899Y-21483D01*
X163779Y-21772D01*
Y-22086D01*
X163899Y-22375D01*
X164121Y-22597D01*
X164410Y-22716D01*
X164724D01*
X165013Y-22597D01*
X165234Y-22375D01*
X165354Y-22086D01*
Y-21772D01*
X165234Y-21483D01*
X165013Y-21262D01*
X164724Y-21142D01*
D02*
G37*
G36*
X-164410D02*
X-164724D01*
X-165013Y-21262D01*
X-165234Y-21483D01*
X-165354Y-21772D01*
Y-22086D01*
X-165234Y-22375D01*
X-165013Y-22597D01*
X-164724Y-22716D01*
X-164410D01*
X-164121Y-22597D01*
X-163899Y-22375D01*
X-163779Y-22086D01*
Y-21772D01*
X-163899Y-21483D01*
X-164121Y-21262D01*
X-164410Y-21142D01*
D02*
G37*
G36*
X54901Y-21654D02*
X54588D01*
X54298Y-21773D01*
X54076Y-21995D01*
X53957Y-22284D01*
Y-22598D01*
X54076Y-22887D01*
X54298Y-23109D01*
X54588Y-23228D01*
X54901D01*
X55190Y-23109D01*
X55412Y-22887D01*
X55532Y-22598D01*
Y-22284D01*
X55412Y-21995D01*
X55190Y-21773D01*
X54901Y-21654D01*
D02*
G37*
G36*
X39901D02*
X39588D01*
X39298Y-21773D01*
X39077Y-21995D01*
X38957Y-22284D01*
Y-22598D01*
X39077Y-22887D01*
X39298Y-23109D01*
X39588Y-23228D01*
X39901D01*
X40190Y-23109D01*
X40412Y-22887D01*
X40532Y-22598D01*
Y-22284D01*
X40412Y-21995D01*
X40190Y-21773D01*
X39901Y-21654D01*
D02*
G37*
G36*
X47401Y-25079D02*
X47087D01*
X46798Y-25199D01*
X46577Y-25420D01*
X46457Y-25710D01*
Y-26023D01*
X46577Y-26312D01*
X46798Y-26534D01*
X47087Y-26654D01*
X47401D01*
X47690Y-26534D01*
X47912Y-26312D01*
X48031Y-26023D01*
Y-25710D01*
X47912Y-25420D01*
X47690Y-25199D01*
X47401Y-25079D01*
D02*
G37*
G36*
X209670Y-33071D02*
X209055D01*
Y-42913D01*
X218898D01*
Y-42299D01*
X218504Y-40321D01*
X217733Y-38458D01*
X216612Y-36782D01*
X215187Y-35356D01*
X213510Y-34236D01*
X211647Y-33464D01*
X209670Y-33071D01*
D02*
G37*
G36*
X208268D02*
X207653D01*
X205676Y-33464D01*
X203813Y-34236D01*
X202136Y-35356D01*
X200710Y-36782D01*
X199590Y-38458D01*
X198819Y-40321D01*
X198425Y-42299D01*
Y-42913D01*
X208268D01*
Y-33071D01*
D02*
G37*
G36*
X-207653D02*
X-208268D01*
Y-42913D01*
X-198425D01*
Y-42299D01*
X-198819Y-40321D01*
X-199590Y-38458D01*
X-200710Y-36782D01*
X-202136Y-35356D01*
X-203813Y-34236D01*
X-205676Y-33464D01*
X-207653Y-33071D01*
D02*
G37*
G36*
X-209055D02*
X-209670D01*
X-211647Y-33464D01*
X-213510Y-34236D01*
X-215187Y-35356D01*
X-216612Y-36782D01*
X-217733Y-38458D01*
X-218504Y-40321D01*
X-218898Y-42299D01*
Y-42913D01*
X-209055D01*
Y-33071D01*
D02*
G37*
G36*
X218898Y-43701D02*
X209055D01*
Y-53543D01*
X209670D01*
X211647Y-53150D01*
X213510Y-52378D01*
X215187Y-51258D01*
X216612Y-49832D01*
X217733Y-48156D01*
X218504Y-46293D01*
X218898Y-44315D01*
Y-43701D01*
D02*
G37*
G36*
X208268D02*
X198425D01*
Y-44315D01*
X198819Y-46293D01*
X199590Y-48156D01*
X200710Y-49832D01*
X202136Y-51258D01*
X203813Y-52378D01*
X205676Y-53150D01*
X207653Y-53543D01*
X208268D01*
Y-43701D01*
D02*
G37*
G36*
X-198425D02*
X-208268D01*
Y-53543D01*
X-207653D01*
X-205676Y-53150D01*
X-203813Y-52378D01*
X-202136Y-51258D01*
X-200710Y-49832D01*
X-199590Y-48156D01*
X-198819Y-46293D01*
X-198425Y-44315D01*
Y-43701D01*
D02*
G37*
G36*
X-209055D02*
X-218898D01*
Y-44315D01*
X-218504Y-46293D01*
X-217733Y-48156D01*
X-216612Y-49832D01*
X-215187Y-51258D01*
X-213510Y-52378D01*
X-211647Y-53150D01*
X-209670Y-53543D01*
X-209055D01*
Y-43701D01*
D02*
G37*
%LPD*%
D11*
X-12992Y-28051D02*
X25551D01*
X-42520D02*
X-12992D01*
X-48819D02*
X-42520D01*
X-12992D02*
Y-3500D01*
X59490Y60510D02*
Y66929D01*
Y60510D02*
X68898Y51102D01*
Y30236D02*
Y51102D01*
X67000Y22000D02*
X68898Y23898D01*
Y30236D01*
X39500Y22000D02*
X67000D01*
X36000Y18500D02*
X39500Y22000D01*
X33327Y1122D02*
X35078D01*
X36000Y2045D01*
Y18500D01*
X35807Y-13193D02*
X39744Y-9256D01*
Y6437D01*
X35807Y-29252D02*
Y-13193D01*
X25551Y-28051D02*
X26752Y-29252D01*
X35807D01*
X-9071Y66929D02*
X-7874Y65732D01*
Y64370D02*
Y65732D01*
X-34998Y66929D02*
X-9071D01*
X-45669Y41831D02*
X-34998Y52502D01*
Y66929D01*
X-45669Y12303D02*
Y41831D01*
Y2831D02*
Y12303D01*
X-48819Y-28051D02*
Y-319D01*
X-45669Y2831D01*
X-76126Y-2126D02*
X-70866D01*
X-78500Y-4500D02*
X-76126Y-2126D01*
X-78500Y-14000D02*
Y-4500D01*
X-92244Y-15748D02*
X-80248D01*
X-78500Y-14000D01*
X-86949Y-28051D02*
X-48819D01*
X-92244Y-22756D02*
Y-15748D01*
Y-22756D02*
X-86949Y-28051D01*
X-92244Y-15748D02*
Y-6256D01*
X-96732Y-1768D02*
X-92244Y-6256D01*
X-96732Y-1768D02*
Y7874D01*
D53*
X-208661Y43307D02*
D03*
Y-43307D02*
D03*
X208661D02*
D03*
Y43307D02*
D03*
D54*
X-90552Y51181D02*
D03*
X-98426D02*
D03*
X-94489D02*
D03*
X-106300D02*
D03*
X-102363D02*
D03*
X-114174D02*
D03*
X-110237D02*
D03*
X-122048D02*
D03*
X-118111D02*
D03*
X-129922D02*
D03*
X-125985D02*
D03*
X-137796D02*
D03*
X-133859D02*
D03*
X-145670D02*
D03*
X-141733D02*
D03*
X-149607D02*
D03*
X-157481D02*
D03*
X-153544D02*
D03*
X-169292D02*
D03*
X-173229D02*
D03*
X-177166D02*
D03*
X-181103D02*
D03*
X-185040D02*
D03*
X-188977D02*
D03*
X-200788D02*
D03*
X-192914D02*
D03*
X-196851D02*
D03*
X90551D02*
D03*
X94488D02*
D03*
X98425D02*
D03*
X102362D02*
D03*
X106299D02*
D03*
X110236D02*
D03*
X114173D02*
D03*
X118110D02*
D03*
X122047D02*
D03*
X125984D02*
D03*
X129921D02*
D03*
X133858D02*
D03*
X137795D02*
D03*
X141732D02*
D03*
X145669D02*
D03*
X157480D02*
D03*
X149606D02*
D03*
X153543D02*
D03*
X200787D02*
D03*
X169291D02*
D03*
X173228D02*
D03*
X177165D02*
D03*
X181102D02*
D03*
X185039D02*
D03*
X188976D02*
D03*
X192913D02*
D03*
X196850D02*
D03*
X216535Y-35433D02*
D03*
Y27559D02*
D03*
Y31496D02*
D03*
Y35433D02*
D03*
Y11811D02*
D03*
Y15748D02*
D03*
Y19685D02*
D03*
Y23622D02*
D03*
Y-3937D02*
D03*
Y0D02*
D03*
Y3937D02*
D03*
Y7874D02*
D03*
Y-19685D02*
D03*
Y-15748D02*
D03*
Y-11811D02*
D03*
Y-7874D02*
D03*
Y-31496D02*
D03*
Y-27559D02*
D03*
Y-23622D02*
D03*
X-216535Y-35433D02*
D03*
Y-23622D02*
D03*
Y-27559D02*
D03*
Y-31496D02*
D03*
Y-7874D02*
D03*
Y-11811D02*
D03*
Y-15748D02*
D03*
Y-19685D02*
D03*
Y7874D02*
D03*
Y3937D02*
D03*
Y-0D02*
D03*
Y-3937D02*
D03*
Y23622D02*
D03*
Y19685D02*
D03*
Y15748D02*
D03*
Y11811D02*
D03*
Y35433D02*
D03*
Y31496D02*
D03*
Y27559D02*
D03*
X-196850Y-51181D02*
D03*
X-192913D02*
D03*
X-188976D02*
D03*
X-200787D02*
D03*
X-122047D02*
D03*
X-118110D02*
D03*
X-114173D02*
D03*
X-137795D02*
D03*
X-133858D02*
D03*
X-129921D02*
D03*
X-125984D02*
D03*
X-153543D02*
D03*
X-149606D02*
D03*
X-145669D02*
D03*
X-141732D02*
D03*
X-169291D02*
D03*
X-165354D02*
D03*
X-161417D02*
D03*
X-157480D02*
D03*
X-185039D02*
D03*
X-181102D02*
D03*
X-177165D02*
D03*
X-173228D02*
D03*
X-47244D02*
D03*
X-43307D02*
D03*
X-39370D02*
D03*
X-62992D02*
D03*
X-59055D02*
D03*
X-55118D02*
D03*
X-51181D02*
D03*
X-78740D02*
D03*
X-74803D02*
D03*
X-70866D02*
D03*
X-66929D02*
D03*
X-94488D02*
D03*
X-90551D02*
D03*
X-86614D02*
D03*
X-82677D02*
D03*
X-110236D02*
D03*
X-106299D02*
D03*
X-102362D02*
D03*
X-98425D02*
D03*
X173228D02*
D03*
X169291D02*
D03*
X165354D02*
D03*
X188976D02*
D03*
X185039D02*
D03*
X181102D02*
D03*
X177165D02*
D03*
X200787D02*
D03*
X196850D02*
D03*
X192913D02*
D03*
X98425D02*
D03*
X94488D02*
D03*
X90551D02*
D03*
X114173D02*
D03*
X110236D02*
D03*
X106299D02*
D03*
X102362D02*
D03*
X129921D02*
D03*
X125984D02*
D03*
X122047D02*
D03*
X118110D02*
D03*
X145669D02*
D03*
X141732D02*
D03*
X137795D02*
D03*
X133858D02*
D03*
X161417D02*
D03*
X157480D02*
D03*
X153543D02*
D03*
X149606D02*
D03*
X74803D02*
D03*
X78740D02*
D03*
X82677D02*
D03*
X86614D02*
D03*
X59055D02*
D03*
X62992D02*
D03*
X66929D02*
D03*
X70866D02*
D03*
X43307D02*
D03*
X47244D02*
D03*
X51181D02*
D03*
X55118D02*
D03*
X27559D02*
D03*
X31496D02*
D03*
X35433D02*
D03*
X39370D02*
D03*
X11811D02*
D03*
X15748D02*
D03*
X19685D02*
D03*
X23622D02*
D03*
X-3937D02*
D03*
X0D02*
D03*
X3937D02*
D03*
X7874D02*
D03*
X-19685D02*
D03*
X-15748D02*
D03*
X-11811D02*
D03*
X-7874D02*
D03*
X-23622D02*
D03*
X-27559D02*
D03*
X-31496D02*
D03*
X-35433D02*
D03*
D55*
X210634Y23146D02*
D03*
X200791Y3461D02*
D03*
X210634Y-16224D02*
D03*
X181106Y42831D02*
D03*
X190949Y23146D02*
D03*
X181106Y3461D02*
D03*
X190949Y-16224D02*
D03*
X181106Y-35909D02*
D03*
X171264Y-16224D02*
D03*
X141736Y42831D02*
D03*
X151579Y23146D02*
D03*
X141736Y3461D02*
D03*
X151579Y-16224D02*
D03*
X122051Y42831D02*
D03*
X131894Y23146D02*
D03*
X122051Y3461D02*
D03*
X131894Y-16224D02*
D03*
X102366Y42831D02*
D03*
X112209Y23146D02*
D03*
X102366Y3461D02*
D03*
X112209Y-16224D02*
D03*
X82681Y42831D02*
D03*
X92524Y23146D02*
D03*
X82681Y3461D02*
D03*
X92524Y-16224D02*
D03*
X72839Y62516D02*
D03*
X62996Y42831D02*
D03*
X72839Y23146D02*
D03*
X62996Y3461D02*
D03*
X72839Y-16224D02*
D03*
X23626Y42831D02*
D03*
X33468Y23146D02*
D03*
Y-16224D02*
D03*
X13783Y62516D02*
D03*
Y-16224D02*
D03*
X-5902Y62516D02*
D03*
X-15744Y42831D02*
D03*
X-5902Y23146D02*
D03*
X-25587Y62516D02*
D03*
Y23146D02*
D03*
Y-16224D02*
D03*
X-55114Y3461D02*
D03*
X-45272Y-16224D02*
D03*
X-64957Y62516D02*
D03*
X-74799Y42831D02*
D03*
X-64957Y23146D02*
D03*
X-74799Y3461D02*
D03*
X-94484Y42831D02*
D03*
X-84642Y23146D02*
D03*
X-94484Y-35909D02*
D03*
X-114169Y42831D02*
D03*
X-104327Y23146D02*
D03*
X-114169Y3461D02*
D03*
X-104327Y-16224D02*
D03*
X-114169Y-35909D02*
D03*
X-133854Y42831D02*
D03*
X-124012Y23146D02*
D03*
X-133854Y3461D02*
D03*
X-124012Y-16224D02*
D03*
X-133854Y-35909D02*
D03*
X-153539Y42831D02*
D03*
X-143697Y23146D02*
D03*
X-153539Y3461D02*
D03*
X-143697Y-16224D02*
D03*
X-153539Y-35909D02*
D03*
X-173224Y42831D02*
D03*
Y-35909D02*
D03*
X-192909Y42831D02*
D03*
X-183067Y23146D02*
D03*
X-192909Y3461D02*
D03*
X-183067Y-16224D02*
D03*
X-192909Y-35909D02*
D03*
X-202752Y23146D02*
D03*
X-212595Y3461D02*
D03*
X-202752Y-16224D02*
D03*
X-12992Y-7500D02*
D03*
Y-28051D02*
D03*
X33327Y1122D02*
D03*
X-12992Y-3500D02*
D03*
X35807Y-29252D02*
D03*
X68898Y30236D02*
D03*
X39744Y6437D02*
D03*
X-45669Y12303D02*
D03*
X-42520Y-28051D02*
D03*
X-48819D02*
D03*
X-70866Y-2126D02*
D03*
X-92244Y-15748D02*
D03*
X-96732Y7874D02*
D03*
X59490Y66929D02*
D03*
X-7874Y64370D02*
D03*
X-34998Y66929D02*
D03*
M02*
