G04*
G04 #@! TF.GenerationSoftware,Altium Limited,Altium Designer,23.3.1 (30)*
G04*
G04 Layer_Physical_Order=4*
G04 Layer_Color=16711680*
%FSLAX25Y25*%
%MOIN*%
G70*
G04*
G04 #@! TF.SameCoordinates,AEED621E-3CD5-435C-AC93-41C8B311E913*
G04*
G04*
G04 #@! TF.FilePolarity,Positive*
G04*
G01*
G75*
%ADD53C,0.19685*%
%ADD54C,0.02953*%
%ADD55C,0.01968*%
G36*
X75563Y77737D02*
X76240D01*
X77567Y77473D01*
X78817Y76955D01*
X79943Y76203D01*
X80900Y75246D01*
X81652Y74121D01*
X82170Y72870D01*
X82433Y71543D01*
X82433Y70866D01*
X82433Y62992D01*
X82438Y62968D01*
X82435Y62943D01*
X82473Y62171D01*
X82491Y62099D01*
Y62024D01*
X82792Y60511D01*
X82830Y60419D01*
X82849Y60322D01*
X83440Y58896D01*
X83495Y58814D01*
X83532Y58723D01*
X84390Y57439D01*
X84460Y57370D01*
X84515Y57287D01*
X85606Y56196D01*
X85688Y56141D01*
X85758Y56071D01*
X87042Y55213D01*
X87133Y55176D01*
X87215Y55121D01*
X88641Y54530D01*
X88738Y54511D01*
X88829Y54473D01*
X90343Y54172D01*
X90418D01*
X90490Y54154D01*
X91262Y54116D01*
X91286Y54119D01*
X91311Y54115D01*
X209370D01*
X210774Y53930D01*
X212143Y53563D01*
X213452Y53021D01*
X214679Y52312D01*
X215803Y51450D01*
X216804Y50448D01*
X217667Y49324D01*
X218375Y48097D01*
X218917Y46788D01*
X219284Y45420D01*
X219469Y44015D01*
X219469Y43307D01*
X219469Y-43307D01*
Y-44015D01*
X219284Y-45420D01*
X218917Y-46788D01*
X218375Y-48097D01*
X217667Y-49324D01*
X216804Y-50448D01*
X215803Y-51450D01*
X214679Y-52312D01*
X213452Y-53021D01*
X212143Y-53563D01*
X210774Y-53930D01*
X209370Y-54115D01*
X208661Y-54115D01*
X-208661Y-54115D01*
X-209370D01*
X-210774Y-53930D01*
X-212143Y-53563D01*
X-213452Y-53021D01*
X-214679Y-52312D01*
X-215803Y-51450D01*
X-216804Y-50448D01*
X-217667Y-49324D01*
X-218375Y-48097D01*
X-218917Y-46788D01*
X-219284Y-45420D01*
X-219469Y-44015D01*
X-219469Y-43307D01*
X-219469Y43307D01*
Y44015D01*
X-219284Y45420D01*
X-218917Y46788D01*
X-218375Y48097D01*
X-217667Y49324D01*
X-216804Y50448D01*
X-215803Y51450D01*
X-214679Y52312D01*
X-213452Y53021D01*
X-212143Y53563D01*
X-210774Y53930D01*
X-209370Y54115D01*
X-208661Y54115D01*
X-90551D01*
X-90527Y54119D01*
X-90502Y54116D01*
X-89730Y54154D01*
X-89658Y54172D01*
X-89584D01*
X-88070Y54473D01*
X-87978Y54511D01*
X-87881Y54530D01*
X-86455Y55121D01*
X-86373Y55176D01*
X-86282Y55213D01*
X-84999Y56071D01*
X-84929Y56141D01*
X-84846Y56196D01*
X-83755Y57287D01*
X-83700Y57370D01*
X-83630Y57439D01*
X-82773Y58723D01*
X-82735Y58814D01*
X-82680Y58896D01*
X-82089Y60322D01*
X-82070Y60419D01*
X-82032Y60511D01*
X-81731Y62025D01*
Y62099D01*
X-81713Y62171D01*
X-81675Y62943D01*
X-81679Y62968D01*
X-81674Y62992D01*
X-81674Y71543D01*
X-81410Y72870D01*
X-80892Y74121D01*
X-80140Y75246D01*
X-79183Y76203D01*
X-78058Y76955D01*
X-76807Y77473D01*
X-75480Y77737D01*
X-74803Y77737D01*
X75563Y77737D01*
D02*
G37*
%LPC*%
G36*
X59764Y68307D02*
X59216D01*
X58709Y68097D01*
X58322Y67710D01*
X58112Y67203D01*
Y66655D01*
X58322Y66149D01*
X58709Y65761D01*
X59216Y65551D01*
X59764D01*
X60270Y65761D01*
X60658Y66149D01*
X60868Y66655D01*
Y67203D01*
X60658Y67710D01*
X60270Y68097D01*
X59764Y68307D01*
D02*
G37*
G36*
X49921D02*
X49373D01*
X48867Y68097D01*
X48479Y67710D01*
X48269Y67203D01*
Y66655D01*
X48479Y66149D01*
X48867Y65761D01*
X49373Y65551D01*
X49921D01*
X50428Y65761D01*
X50815Y66149D01*
X51025Y66655D01*
Y67203D01*
X50815Y67710D01*
X50428Y68097D01*
X49921Y68307D01*
D02*
G37*
G36*
X45000D02*
X44452D01*
X43945Y68097D01*
X43558Y67710D01*
X43348Y67203D01*
Y66655D01*
X43558Y66149D01*
X43945Y65761D01*
X44452Y65551D01*
X45000D01*
X45507Y65761D01*
X45894Y66149D01*
X46104Y66655D01*
Y67203D01*
X45894Y67710D01*
X45507Y68097D01*
X45000Y68307D01*
D02*
G37*
G36*
X-34724D02*
X-35272D01*
X-35779Y68097D01*
X-36167Y67710D01*
X-36376Y67203D01*
Y66655D01*
X-36167Y66149D01*
X-35779Y65761D01*
X-35272Y65551D01*
X-34724D01*
X-34218Y65761D01*
X-33830Y66149D01*
X-33621Y66655D01*
Y67203D01*
X-33830Y67710D01*
X-34218Y68097D01*
X-34724Y68307D01*
D02*
G37*
G36*
X-39646D02*
X-40194D01*
X-40700Y68097D01*
X-41088Y67710D01*
X-41298Y67203D01*
Y66655D01*
X-41088Y66149D01*
X-40700Y65761D01*
X-40194Y65551D01*
X-39646D01*
X-39139Y65761D01*
X-38752Y66149D01*
X-38542Y66655D01*
Y67203D01*
X-38752Y67710D01*
X-39139Y68097D01*
X-39646Y68307D01*
D02*
G37*
G36*
X-44567D02*
X-45115D01*
X-45621Y68097D01*
X-46009Y67710D01*
X-46219Y67203D01*
Y66655D01*
X-46009Y66149D01*
X-45621Y65761D01*
X-45115Y65551D01*
X-44567D01*
X-44060Y65761D01*
X-43673Y66149D01*
X-43463Y66655D01*
Y67203D01*
X-43673Y67710D01*
X-44060Y68097D01*
X-44567Y68307D01*
D02*
G37*
G36*
X-49488D02*
X-50036D01*
X-50543Y68097D01*
X-50930Y67710D01*
X-51140Y67203D01*
Y66655D01*
X-50930Y66149D01*
X-50543Y65761D01*
X-50036Y65551D01*
X-49488D01*
X-48982Y65761D01*
X-48594Y66149D01*
X-48384Y66655D01*
Y67203D01*
X-48594Y67710D01*
X-48982Y68097D01*
X-49488Y68307D01*
D02*
G37*
G36*
X-54409D02*
X-54958D01*
X-55464Y68097D01*
X-55852Y67710D01*
X-56061Y67203D01*
Y66655D01*
X-55852Y66149D01*
X-55464Y65761D01*
X-54958Y65551D01*
X-54409D01*
X-53903Y65761D01*
X-53515Y66149D01*
X-53306Y66655D01*
Y67203D01*
X-53515Y67710D01*
X-53903Y68097D01*
X-54409Y68307D01*
D02*
G37*
G36*
X8148Y65748D02*
X7600D01*
X7094Y65538D01*
X6706Y65151D01*
X6496Y64644D01*
Y64096D01*
X6706Y63590D01*
X7094Y63202D01*
X7600Y62992D01*
X8148D01*
X8655Y63202D01*
X9042Y63590D01*
X9252Y64096D01*
Y64644D01*
X9042Y65151D01*
X8655Y65538D01*
X8148Y65748D01*
D02*
G37*
G36*
X3424D02*
X2875D01*
X2369Y65538D01*
X1981Y65151D01*
X1772Y64644D01*
Y64096D01*
X1981Y63590D01*
X2369Y63202D01*
X2875Y62992D01*
X3424D01*
X3930Y63202D01*
X4318Y63590D01*
X4528Y64096D01*
Y64644D01*
X4318Y65151D01*
X3930Y65538D01*
X3424Y65748D01*
D02*
G37*
G36*
X-2875D02*
X-3424D01*
X-3930Y65538D01*
X-4318Y65151D01*
X-4528Y64644D01*
Y64096D01*
X-4318Y63590D01*
X-3930Y63202D01*
X-3424Y62992D01*
X-2875D01*
X-2369Y63202D01*
X-1981Y63590D01*
X-1772Y64096D01*
Y64644D01*
X-1981Y65151D01*
X-2369Y65538D01*
X-2875Y65748D01*
D02*
G37*
G36*
X-7600D02*
X-8148D01*
X-8655Y65538D01*
X-9042Y65151D01*
X-9252Y64644D01*
Y64096D01*
X-9042Y63590D01*
X-8655Y63202D01*
X-8148Y62992D01*
X-7600D01*
X-7094Y63202D01*
X-6706Y63590D01*
X-6496Y64096D01*
Y64644D01*
X-6706Y65151D01*
X-7094Y65538D01*
X-7600Y65748D01*
D02*
G37*
G36*
X209670Y53543D02*
X209055D01*
Y43701D01*
X218898D01*
Y44315D01*
X218504Y46293D01*
X217733Y48156D01*
X216612Y49832D01*
X215187Y51258D01*
X213510Y52378D01*
X211647Y53150D01*
X209670Y53543D01*
D02*
G37*
G36*
X208268D02*
X207653D01*
X205676Y53150D01*
X203813Y52378D01*
X202136Y51258D01*
X200710Y49832D01*
X199590Y48156D01*
X198819Y46293D01*
X198425Y44315D01*
Y43701D01*
X208268D01*
Y53543D01*
D02*
G37*
G36*
X-207653D02*
X-208268D01*
Y43701D01*
X-198425D01*
Y44315D01*
X-198819Y46293D01*
X-199590Y48156D01*
X-200710Y49832D01*
X-202136Y51258D01*
X-203813Y52378D01*
X-205676Y53150D01*
X-207653Y53543D01*
D02*
G37*
G36*
X-209055D02*
X-209670D01*
X-211647Y53150D01*
X-213510Y52378D01*
X-215187Y51258D01*
X-216612Y49832D01*
X-217733Y48156D01*
X-218504Y46293D01*
X-218898Y44315D01*
Y43701D01*
X-209055D01*
Y53543D01*
D02*
G37*
G36*
X13778Y44685D02*
X13230D01*
X12723Y44475D01*
X12336Y44088D01*
X12126Y43581D01*
Y43033D01*
X12336Y42527D01*
X12723Y42139D01*
X13230Y41929D01*
X13778D01*
X14285Y42139D01*
X14672Y42527D01*
X14882Y43033D01*
Y43581D01*
X14672Y44088D01*
X14285Y44475D01*
X13778Y44685D01*
D02*
G37*
G36*
X1967D02*
X1419D01*
X912Y44475D01*
X525Y44088D01*
X315Y43581D01*
Y43033D01*
X525Y42527D01*
X912Y42139D01*
X1419Y41929D01*
X1967D01*
X2473Y42139D01*
X2861Y42527D01*
X3071Y43033D01*
Y43581D01*
X2861Y44088D01*
X2473Y44475D01*
X1967Y44685D01*
D02*
G37*
G36*
X-9844D02*
X-10392D01*
X-10899Y44475D01*
X-11286Y44088D01*
X-11496Y43581D01*
Y43033D01*
X-11286Y42527D01*
X-10899Y42139D01*
X-10392Y41929D01*
X-9844D01*
X-9338Y42139D01*
X-8950Y42527D01*
X-8740Y43033D01*
Y43581D01*
X-8950Y44088D01*
X-9338Y44475D01*
X-9844Y44685D01*
D02*
G37*
G36*
X218898Y42913D02*
X209055D01*
Y33071D01*
X209670D01*
X211647Y33464D01*
X213510Y34236D01*
X215187Y35356D01*
X216612Y36782D01*
X217733Y38458D01*
X218504Y40321D01*
X218898Y42299D01*
Y42913D01*
D02*
G37*
G36*
X208268D02*
X198425D01*
Y42299D01*
X198819Y40321D01*
X199590Y38458D01*
X200710Y36782D01*
X202136Y35356D01*
X203813Y34236D01*
X205676Y33464D01*
X207653Y33071D01*
X208268D01*
Y42913D01*
D02*
G37*
G36*
X-198425D02*
X-208268D01*
Y33071D01*
X-207653D01*
X-205676Y33464D01*
X-203813Y34236D01*
X-202136Y35356D01*
X-200710Y36782D01*
X-199590Y38458D01*
X-198819Y40321D01*
X-198425Y42299D01*
Y42913D01*
D02*
G37*
G36*
X-209055D02*
X-218898D01*
Y42299D01*
X-218504Y40321D01*
X-217733Y38458D01*
X-216612Y36782D01*
X-215187Y35356D01*
X-213510Y34236D01*
X-211647Y33464D01*
X-209670Y33071D01*
X-209055D01*
Y42913D01*
D02*
G37*
G36*
X51455Y32874D02*
X50907D01*
X50401Y32664D01*
X50013Y32277D01*
X49803Y31770D01*
Y31222D01*
X50013Y30716D01*
X50401Y30328D01*
X50907Y30118D01*
X51455D01*
X51962Y30328D01*
X52349Y30716D01*
X52559Y31222D01*
Y31770D01*
X52349Y32277D01*
X51962Y32664D01*
X51455Y32874D01*
D02*
G37*
G36*
X43581D02*
X43033D01*
X42527Y32664D01*
X42139Y32277D01*
X41929Y31770D01*
Y31222D01*
X42139Y30716D01*
X42527Y30328D01*
X43033Y30118D01*
X43581D01*
X44088Y30328D01*
X44475Y30716D01*
X44685Y31222D01*
Y31770D01*
X44475Y32277D01*
X44088Y32664D01*
X43581Y32874D01*
D02*
G37*
G36*
X69172Y31614D02*
X68624D01*
X68117Y31404D01*
X67730Y31017D01*
X67520Y30510D01*
Y29962D01*
X67730Y29456D01*
X68117Y29068D01*
X68624Y28858D01*
X69172D01*
X69678Y29068D01*
X70066Y29456D01*
X70276Y29962D01*
Y30510D01*
X70066Y31017D01*
X69678Y31404D01*
X69172Y31614D01*
D02*
G37*
G36*
X-54409Y25591D02*
X-54958D01*
X-55464Y25381D01*
X-55852Y24993D01*
X-56061Y24487D01*
Y23938D01*
X-55852Y23432D01*
X-55464Y23044D01*
X-54958Y22835D01*
X-54409D01*
X-53903Y23044D01*
X-53515Y23432D01*
X-53306Y23938D01*
Y24487D01*
X-53515Y24993D01*
X-53903Y25381D01*
X-54409Y25591D01*
D02*
G37*
G36*
X13778Y17126D02*
X13230D01*
X12723Y16916D01*
X12336Y16529D01*
X12126Y16022D01*
Y15474D01*
X12336Y14967D01*
X12723Y14580D01*
X13230Y14370D01*
X13778D01*
X14285Y14580D01*
X14672Y14967D01*
X14882Y15474D01*
Y16022D01*
X14672Y16529D01*
X14285Y16916D01*
X13778Y17126D01*
D02*
G37*
G36*
X1967D02*
X1419D01*
X912Y16916D01*
X525Y16529D01*
X315Y16022D01*
Y15474D01*
X525Y14967D01*
X912Y14580D01*
X1419Y14370D01*
X1967D01*
X2473Y14580D01*
X2861Y14967D01*
X3071Y15474D01*
Y16022D01*
X2861Y16529D01*
X2473Y16916D01*
X1967Y17126D01*
D02*
G37*
G36*
X-9844D02*
X-10392D01*
X-10899Y16916D01*
X-11286Y16529D01*
X-11496Y16022D01*
Y15474D01*
X-11286Y14967D01*
X-10899Y14580D01*
X-10392Y14370D01*
X-9844D01*
X-9338Y14580D01*
X-8950Y14967D01*
X-8740Y15474D01*
Y16022D01*
X-8950Y16529D01*
X-9338Y16916D01*
X-9844Y17126D01*
D02*
G37*
G36*
X-35946Y14173D02*
X-36495D01*
X-37001Y13963D01*
X-37389Y13576D01*
X-37598Y13069D01*
Y12521D01*
X-37389Y12015D01*
X-37001Y11627D01*
X-36495Y11417D01*
X-35946D01*
X-35440Y11627D01*
X-35052Y12015D01*
X-34843Y12521D01*
Y13069D01*
X-35052Y13576D01*
X-35440Y13963D01*
X-35946Y14173D01*
D02*
G37*
G36*
X-54844D02*
X-55392D01*
X-55899Y13963D01*
X-56286Y13576D01*
X-56496Y13069D01*
Y12521D01*
X-56286Y12015D01*
X-55899Y11627D01*
X-55392Y11417D01*
X-54844D01*
X-54338Y11627D01*
X-53950Y12015D01*
X-53740Y12521D01*
Y13069D01*
X-53950Y13576D01*
X-54338Y13963D01*
X-54844Y14173D01*
D02*
G37*
G36*
X-45395Y13681D02*
X-45943D01*
X-46450Y13471D01*
X-46837Y13084D01*
X-47047Y12577D01*
Y12029D01*
X-46837Y11523D01*
X-46450Y11135D01*
X-45943Y10925D01*
X-45395D01*
X-44889Y11135D01*
X-44501Y11523D01*
X-44291Y12029D01*
Y12577D01*
X-44501Y13084D01*
X-44889Y13471D01*
X-45395Y13681D01*
D02*
G37*
G36*
X-96458Y9252D02*
X-97006D01*
X-97513Y9042D01*
X-97900Y8655D01*
X-98110Y8148D01*
Y7600D01*
X-97900Y7094D01*
X-97513Y6706D01*
X-97006Y6496D01*
X-96458D01*
X-95952Y6706D01*
X-95564Y7094D01*
X-95354Y7600D01*
Y8148D01*
X-95564Y8655D01*
X-95952Y9042D01*
X-96458Y9252D01*
D02*
G37*
G36*
X50018Y8071D02*
X49470D01*
X48963Y7861D01*
X48576Y7474D01*
X48366Y6967D01*
Y6419D01*
X48576Y5912D01*
X48963Y5525D01*
X49470Y5315D01*
X50018D01*
X50525Y5525D01*
X50912Y5912D01*
X51122Y6419D01*
Y6967D01*
X50912Y7474D01*
X50525Y7861D01*
X50018Y8071D01*
D02*
G37*
G36*
X45018D02*
X44470D01*
X43964Y7861D01*
X43576Y7474D01*
X43366Y6967D01*
Y6419D01*
X43576Y5912D01*
X43964Y5525D01*
X44470Y5315D01*
X45018D01*
X45525Y5525D01*
X45912Y5912D01*
X46122Y6419D01*
Y6967D01*
X45912Y7474D01*
X45525Y7861D01*
X45018Y8071D01*
D02*
G37*
G36*
X40018Y7815D02*
X39470D01*
X38963Y7605D01*
X38576Y7218D01*
X38366Y6711D01*
Y6163D01*
X38576Y5657D01*
X38963Y5269D01*
X39470Y5059D01*
X40018D01*
X40525Y5269D01*
X40912Y5657D01*
X41122Y6163D01*
Y6711D01*
X40912Y7218D01*
X40525Y7605D01*
X40018Y7815D01*
D02*
G37*
G36*
X-91970Y3347D02*
X-92518D01*
X-93025Y3137D01*
X-93412Y2749D01*
X-93622Y2243D01*
Y1694D01*
X-93412Y1188D01*
X-93025Y800D01*
X-92518Y591D01*
X-91970D01*
X-91464Y800D01*
X-91076Y1188D01*
X-90866Y1694D01*
Y2243D01*
X-91076Y2749D01*
X-91464Y3137D01*
X-91970Y3347D01*
D02*
G37*
G36*
X33601Y2500D02*
X33053D01*
X32546Y2290D01*
X32159Y1903D01*
X31949Y1396D01*
Y848D01*
X32159Y341D01*
X32546Y-46D01*
X33053Y-256D01*
X33601D01*
X34107Y-46D01*
X34495Y341D01*
X34705Y848D01*
Y1396D01*
X34495Y1903D01*
X34107Y2290D01*
X33601Y2500D01*
D02*
G37*
G36*
X-88692Y-689D02*
X-89241D01*
X-89747Y-899D01*
X-90135Y-1286D01*
X-90345Y-1793D01*
Y-2341D01*
X-90135Y-2847D01*
X-89747Y-3235D01*
X-89241Y-3445D01*
X-88692D01*
X-88186Y-3235D01*
X-87798Y-2847D01*
X-87589Y-2341D01*
Y-1793D01*
X-87798Y-1286D01*
X-88186Y-899D01*
X-88692Y-689D01*
D02*
G37*
G36*
X-70592Y-748D02*
X-71140D01*
X-71647Y-958D01*
X-72034Y-1345D01*
X-72244Y-1852D01*
Y-2400D01*
X-72034Y-2906D01*
X-71647Y-3294D01*
X-71140Y-3504D01*
X-70592D01*
X-70086Y-3294D01*
X-69698Y-2906D01*
X-69488Y-2400D01*
Y-1852D01*
X-69698Y-1345D01*
X-70086Y-958D01*
X-70592Y-748D01*
D02*
G37*
G36*
X-12718Y-2122D02*
X-13266D01*
X-13773Y-2332D01*
X-14160Y-2719D01*
X-14370Y-3226D01*
Y-3774D01*
X-14160Y-4281D01*
X-13773Y-4668D01*
X-13266Y-4878D01*
X-12718D01*
X-12212Y-4668D01*
X-11824Y-4281D01*
X-11614Y-3774D01*
Y-3226D01*
X-11824Y-2719D01*
X-12212Y-2332D01*
X-12718Y-2122D01*
D02*
G37*
G36*
X165342Y45492D02*
X163791D01*
X163695Y45472D01*
X163596D01*
X162074Y45170D01*
X161983Y45132D01*
X161886Y45113D01*
X160453Y44519D01*
X160371Y44464D01*
X160280Y44426D01*
X158990Y43565D01*
X158920Y43495D01*
X158838Y43440D01*
X157741Y42343D01*
X157686Y42261D01*
X157616Y42191D01*
X156755Y40901D01*
X156717Y40810D01*
X156662Y40728D01*
X156068Y39295D01*
X156049Y39198D01*
X156011Y39107D01*
X155709Y37585D01*
Y37487D01*
X155689Y37390D01*
Y36614D01*
Y3543D01*
Y2768D01*
X155709Y2671D01*
Y2572D01*
X156011Y1051D01*
X156049Y959D01*
X156068Y862D01*
X156662Y-570D01*
X156717Y-653D01*
X156755Y-744D01*
X157616Y-2034D01*
X157686Y-2104D01*
X157741Y-2186D01*
X158838Y-3283D01*
X158920Y-3337D01*
X158990Y-3407D01*
X160280Y-4269D01*
X160371Y-4307D01*
X160453Y-4362D01*
X161886Y-4955D01*
X161983Y-4975D01*
X162074Y-5012D01*
X163596Y-5315D01*
X163695D01*
X163791Y-5334D01*
X165342D01*
X165439Y-5315D01*
X165538D01*
X167060Y-5012D01*
X167151Y-4975D01*
X167248Y-4955D01*
X168681Y-4362D01*
X168763Y-4307D01*
X168854Y-4269D01*
X170144Y-3407D01*
X170214Y-3337D01*
X170296Y-3283D01*
X171393Y-2186D01*
X171448Y-2104D01*
X171518Y-2034D01*
X172379Y-744D01*
X172417Y-653D01*
X172472Y-570D01*
X173065Y862D01*
X173085Y959D01*
X173123Y1051D01*
X173425Y2572D01*
Y2671D01*
X173444Y2768D01*
Y3543D01*
Y36614D01*
Y37390D01*
X173425Y37487D01*
Y37585D01*
X173123Y39107D01*
X173085Y39198D01*
X173065Y39295D01*
X172472Y40728D01*
X172417Y40810D01*
X172379Y40901D01*
X171518Y42191D01*
X171448Y42261D01*
X171393Y42343D01*
X170296Y43440D01*
X170214Y43495D01*
X170144Y43565D01*
X168854Y44426D01*
X168763Y44464D01*
X168681Y44519D01*
X167248Y45113D01*
X167151Y45132D01*
X167060Y45170D01*
X165538Y45472D01*
X165439D01*
X165342Y45492D01*
D02*
G37*
G36*
X-163791D02*
X-165342D01*
X-165439Y45472D01*
X-165538D01*
X-167060Y45170D01*
X-167151Y45132D01*
X-167248Y45113D01*
X-168681Y44519D01*
X-168763Y44464D01*
X-168854Y44426D01*
X-170144Y43565D01*
X-170214Y43495D01*
X-170296Y43440D01*
X-171393Y42343D01*
X-171448Y42261D01*
X-171518Y42191D01*
X-172379Y40901D01*
X-172417Y40810D01*
X-172472Y40728D01*
X-173065Y39295D01*
X-173085Y39198D01*
X-173123Y39107D01*
X-173425Y37585D01*
Y37487D01*
X-173444Y37390D01*
Y36614D01*
Y3543D01*
Y2768D01*
X-173425Y2671D01*
Y2572D01*
X-173123Y1051D01*
X-173085Y959D01*
X-173065Y862D01*
X-172472Y-570D01*
X-172417Y-653D01*
X-172379Y-744D01*
X-171518Y-2034D01*
X-171448Y-2104D01*
X-171393Y-2186D01*
X-170296Y-3283D01*
X-170214Y-3337D01*
X-170144Y-3407D01*
X-168854Y-4269D01*
X-168763Y-4307D01*
X-168681Y-4362D01*
X-167248Y-4955D01*
X-167151Y-4975D01*
X-167060Y-5012D01*
X-165538Y-5315D01*
X-165439D01*
X-165342Y-5334D01*
X-163791D01*
X-163695Y-5315D01*
X-163596D01*
X-162074Y-5012D01*
X-161983Y-4975D01*
X-161886Y-4955D01*
X-160453Y-4362D01*
X-160371Y-4307D01*
X-160280Y-4269D01*
X-158990Y-3407D01*
X-158920Y-3337D01*
X-158838Y-3283D01*
X-157741Y-2186D01*
X-157686Y-2104D01*
X-157616Y-2034D01*
X-156755Y-744D01*
X-156717Y-653D01*
X-156662Y-570D01*
X-156068Y862D01*
X-156049Y959D01*
X-156011Y1051D01*
X-155709Y2572D01*
Y2671D01*
X-155689Y2768D01*
Y3543D01*
Y36614D01*
Y37390D01*
X-155709Y37487D01*
Y37585D01*
X-156011Y39107D01*
X-156049Y39198D01*
X-156068Y39295D01*
X-156662Y40728D01*
X-156717Y40810D01*
X-156755Y40901D01*
X-157616Y42191D01*
X-157686Y42261D01*
X-157741Y42343D01*
X-158838Y43440D01*
X-158920Y43495D01*
X-158990Y43565D01*
X-160280Y44426D01*
X-160371Y44464D01*
X-160453Y44519D01*
X-161886Y45113D01*
X-161983Y45132D01*
X-162074Y45170D01*
X-163596Y45472D01*
X-163695D01*
X-163791Y45492D01*
D02*
G37*
G36*
X-99736Y-4429D02*
X-100284D01*
X-100790Y-4639D01*
X-101178Y-5026D01*
X-101388Y-5533D01*
Y-6081D01*
X-101178Y-6588D01*
X-100790Y-6975D01*
X-100284Y-7185D01*
X-99736D01*
X-99229Y-6975D01*
X-98842Y-6588D01*
X-98632Y-6081D01*
Y-5533D01*
X-98842Y-5026D01*
X-99229Y-4639D01*
X-99736Y-4429D01*
D02*
G37*
G36*
X-12718Y-6122D02*
X-13266D01*
X-13773Y-6332D01*
X-14160Y-6719D01*
X-14370Y-7226D01*
Y-7774D01*
X-14160Y-8281D01*
X-13773Y-8668D01*
X-13266Y-8878D01*
X-12718D01*
X-12212Y-8668D01*
X-11824Y-8281D01*
X-11614Y-7774D01*
Y-7226D01*
X-11824Y-6719D01*
X-12212Y-6332D01*
X-12718Y-6122D01*
D02*
G37*
G36*
X-26301Y4528D02*
X-26849D01*
X-27355Y4318D01*
X-27743Y3930D01*
X-27953Y3424D01*
Y2875D01*
X-27743Y2369D01*
X-27355Y1981D01*
X-27014Y1840D01*
Y1310D01*
X-27355Y1168D01*
X-27743Y781D01*
X-27953Y274D01*
Y-274D01*
X-27743Y-781D01*
X-27355Y-1168D01*
X-27014Y-1310D01*
Y-1840D01*
X-27355Y-1981D01*
X-27743Y-2369D01*
X-27953Y-2875D01*
Y-3424D01*
X-27743Y-3930D01*
X-27355Y-4318D01*
X-27014Y-4459D01*
Y-4989D01*
X-27355Y-5131D01*
X-27743Y-5519D01*
X-27953Y-6025D01*
Y-6573D01*
X-27743Y-7080D01*
X-27355Y-7467D01*
X-27014Y-7609D01*
Y-8139D01*
X-27355Y-8281D01*
X-27743Y-8668D01*
X-27953Y-9175D01*
Y-9723D01*
X-27743Y-10229D01*
X-27355Y-10617D01*
X-26849Y-10827D01*
X-26301D01*
X-25794Y-10617D01*
X-25407Y-10229D01*
X-25197Y-9723D01*
Y-9175D01*
X-25407Y-8668D01*
X-25794Y-8281D01*
X-26136Y-8139D01*
Y-7609D01*
X-25794Y-7467D01*
X-25407Y-7080D01*
X-25197Y-6573D01*
Y-6025D01*
X-25407Y-5519D01*
X-25794Y-5131D01*
X-26136Y-4989D01*
Y-4459D01*
X-25794Y-4318D01*
X-25407Y-3930D01*
X-25197Y-3424D01*
Y-2875D01*
X-25407Y-2369D01*
X-25794Y-1981D01*
X-26136Y-1840D01*
Y-1310D01*
X-25794Y-1168D01*
X-25407Y-781D01*
X-25197Y-274D01*
Y274D01*
X-25407Y781D01*
X-25794Y1168D01*
X-26136Y1310D01*
Y1840D01*
X-25794Y1981D01*
X-25407Y2369D01*
X-25197Y2875D01*
Y3424D01*
X-25407Y3930D01*
X-25794Y4318D01*
X-26301Y4528D01*
D02*
G37*
G36*
X-91970Y-14370D02*
X-92518D01*
X-93025Y-14580D01*
X-93412Y-14967D01*
X-93622Y-15474D01*
Y-16022D01*
X-93412Y-16529D01*
X-93025Y-16916D01*
X-92518Y-17126D01*
X-91970D01*
X-91464Y-16916D01*
X-91076Y-16529D01*
X-90866Y-16022D01*
Y-15474D01*
X-91076Y-14967D01*
X-91464Y-14580D01*
X-91970Y-14370D01*
D02*
G37*
G36*
X-67147Y-8071D02*
X-67695D01*
X-68202Y-8281D01*
X-68589Y-8668D01*
X-68799Y-9175D01*
Y-9723D01*
X-68589Y-10229D01*
X-68202Y-10617D01*
X-67952Y-10721D01*
X-68051Y-11220D01*
X-68187D01*
X-68694Y-11430D01*
X-69082Y-11818D01*
X-69291Y-12324D01*
Y-12873D01*
X-69082Y-13379D01*
X-68694Y-13767D01*
X-68352Y-13908D01*
X-68393Y-14432D01*
X-68749Y-14580D01*
X-69137Y-14967D01*
X-69346Y-15474D01*
Y-16022D01*
X-69137Y-16529D01*
X-68749Y-16916D01*
X-68416Y-17054D01*
X-68399Y-17588D01*
X-68676Y-17703D01*
X-69063Y-18090D01*
X-69273Y-18597D01*
Y-19145D01*
X-69063Y-19651D01*
X-68676Y-20039D01*
X-68169Y-20249D01*
X-67621D01*
X-67115Y-20039D01*
X-66727Y-19651D01*
X-66517Y-19145D01*
Y-18597D01*
X-66727Y-18090D01*
X-67115Y-17703D01*
X-67447Y-17565D01*
X-67465Y-17031D01*
X-67188Y-16916D01*
X-66800Y-16529D01*
X-66590Y-16022D01*
Y-15474D01*
X-66800Y-14967D01*
X-67188Y-14580D01*
X-67530Y-14438D01*
X-67489Y-13914D01*
X-67133Y-13767D01*
X-66745Y-13379D01*
X-66535Y-12873D01*
Y-12324D01*
X-66745Y-11818D01*
X-67133Y-11430D01*
X-67383Y-11327D01*
X-67283Y-10827D01*
X-67147D01*
X-66641Y-10617D01*
X-66253Y-10229D01*
X-66043Y-9723D01*
Y-9175D01*
X-66253Y-8668D01*
X-66641Y-8281D01*
X-67147Y-8071D01*
D02*
G37*
G36*
X164841Y-20551D02*
X164293D01*
X163786Y-20761D01*
X163399Y-21149D01*
X163189Y-21655D01*
Y-22203D01*
X163399Y-22710D01*
X163786Y-23097D01*
X164293Y-23307D01*
X164841D01*
X165348Y-23097D01*
X165735Y-22710D01*
X165945Y-22203D01*
Y-21655D01*
X165735Y-21149D01*
X165348Y-20761D01*
X164841Y-20551D01*
D02*
G37*
G36*
X-164293D02*
X-164841D01*
X-165348Y-20761D01*
X-165735Y-21149D01*
X-165945Y-21655D01*
Y-22203D01*
X-165735Y-22710D01*
X-165348Y-23097D01*
X-164841Y-23307D01*
X-164293D01*
X-163786Y-23097D01*
X-163399Y-22710D01*
X-163189Y-22203D01*
Y-21655D01*
X-163399Y-21149D01*
X-163786Y-20761D01*
X-164293Y-20551D01*
D02*
G37*
G36*
X55018Y-21063D02*
X54470D01*
X53964Y-21273D01*
X53576Y-21660D01*
X53366Y-22167D01*
Y-22715D01*
X53576Y-23222D01*
X53964Y-23609D01*
X54470Y-23819D01*
X55018D01*
X55525Y-23609D01*
X55912Y-23222D01*
X56122Y-22715D01*
Y-22167D01*
X55912Y-21660D01*
X55525Y-21273D01*
X55018Y-21063D01*
D02*
G37*
G36*
X40018D02*
X39470D01*
X38963Y-21273D01*
X38576Y-21660D01*
X38366Y-22167D01*
Y-22715D01*
X38576Y-23222D01*
X38963Y-23609D01*
X39470Y-23819D01*
X40018D01*
X40525Y-23609D01*
X40912Y-23222D01*
X41122Y-22715D01*
Y-22167D01*
X40912Y-21660D01*
X40525Y-21273D01*
X40018Y-21063D01*
D02*
G37*
G36*
X47518Y-24488D02*
X46970D01*
X46464Y-24698D01*
X46076Y-25086D01*
X45866Y-25592D01*
Y-26140D01*
X46076Y-26647D01*
X46464Y-27034D01*
X46970Y-27244D01*
X47518D01*
X48025Y-27034D01*
X48412Y-26647D01*
X48622Y-26140D01*
Y-25592D01*
X48412Y-25086D01*
X48025Y-24698D01*
X47518Y-24488D01*
D02*
G37*
G36*
X-12718Y-26673D02*
X-13266D01*
X-13773Y-26883D01*
X-14160Y-27271D01*
X-14370Y-27777D01*
Y-28325D01*
X-14160Y-28832D01*
X-13773Y-29219D01*
X-13266Y-29429D01*
X-12718D01*
X-12212Y-29219D01*
X-11824Y-28832D01*
X-11614Y-28325D01*
Y-27777D01*
X-11824Y-27271D01*
X-12212Y-26883D01*
X-12718Y-26673D01*
D02*
G37*
G36*
X-42246D02*
X-42794D01*
X-43300Y-26883D01*
X-43688Y-27271D01*
X-43898Y-27777D01*
Y-28325D01*
X-43688Y-28832D01*
X-43300Y-29219D01*
X-42794Y-29429D01*
X-42246D01*
X-41739Y-29219D01*
X-41352Y-28832D01*
X-41142Y-28325D01*
Y-27777D01*
X-41352Y-27271D01*
X-41739Y-26883D01*
X-42246Y-26673D01*
D02*
G37*
G36*
X-48545D02*
X-49093D01*
X-49599Y-26883D01*
X-49987Y-27271D01*
X-50197Y-27777D01*
Y-28325D01*
X-49987Y-28832D01*
X-49599Y-29219D01*
X-49093Y-29429D01*
X-48545D01*
X-48038Y-29219D01*
X-47651Y-28832D01*
X-47441Y-28325D01*
Y-27777D01*
X-47651Y-27271D01*
X-48038Y-26883D01*
X-48545Y-26673D01*
D02*
G37*
G36*
X36081Y-27874D02*
X35533D01*
X35026Y-28084D01*
X34639Y-28471D01*
X34429Y-28978D01*
Y-29526D01*
X34639Y-30033D01*
X35026Y-30420D01*
X35533Y-30630D01*
X36081D01*
X36588Y-30420D01*
X36975Y-30033D01*
X37185Y-29526D01*
Y-28978D01*
X36975Y-28471D01*
X36588Y-28084D01*
X36081Y-27874D01*
D02*
G37*
G36*
X209670Y-33071D02*
X209055D01*
Y-42913D01*
X218898D01*
Y-42299D01*
X218504Y-40321D01*
X217733Y-38458D01*
X216612Y-36782D01*
X215187Y-35356D01*
X213510Y-34236D01*
X211647Y-33464D01*
X209670Y-33071D01*
D02*
G37*
G36*
X208268D02*
X207653D01*
X205676Y-33464D01*
X203813Y-34236D01*
X202136Y-35356D01*
X200710Y-36782D01*
X199590Y-38458D01*
X198819Y-40321D01*
X198425Y-42299D01*
Y-42913D01*
X208268D01*
Y-33071D01*
D02*
G37*
G36*
X-207653D02*
X-208268D01*
Y-42913D01*
X-198425D01*
Y-42299D01*
X-198819Y-40321D01*
X-199590Y-38458D01*
X-200710Y-36782D01*
X-202136Y-35356D01*
X-203813Y-34236D01*
X-205676Y-33464D01*
X-207653Y-33071D01*
D02*
G37*
G36*
X-209055D02*
X-209670D01*
X-211647Y-33464D01*
X-213510Y-34236D01*
X-215187Y-35356D01*
X-216612Y-36782D01*
X-217733Y-38458D01*
X-218504Y-40321D01*
X-218898Y-42299D01*
Y-42913D01*
X-209055D01*
Y-33071D01*
D02*
G37*
G36*
X218898Y-43701D02*
X209055D01*
Y-53543D01*
X209670D01*
X211647Y-53150D01*
X213510Y-52378D01*
X215187Y-51258D01*
X216612Y-49832D01*
X217733Y-48156D01*
X218504Y-46293D01*
X218898Y-44315D01*
Y-43701D01*
D02*
G37*
G36*
X208268D02*
X198425D01*
Y-44315D01*
X198819Y-46293D01*
X199590Y-48156D01*
X200710Y-49832D01*
X202136Y-51258D01*
X203813Y-52378D01*
X205676Y-53150D01*
X207653Y-53543D01*
X208268D01*
Y-43701D01*
D02*
G37*
G36*
X-198425D02*
X-208268D01*
Y-53543D01*
X-207653D01*
X-205676Y-53150D01*
X-203813Y-52378D01*
X-202136Y-51258D01*
X-200710Y-49832D01*
X-199590Y-48156D01*
X-198819Y-46293D01*
X-198425Y-44315D01*
Y-43701D01*
D02*
G37*
G36*
X-209055D02*
X-218898D01*
Y-44315D01*
X-218504Y-46293D01*
X-217733Y-48156D01*
X-216612Y-49832D01*
X-215187Y-51258D01*
X-213510Y-52378D01*
X-211647Y-53150D01*
X-209670Y-53543D01*
X-209055D01*
Y-43701D01*
D02*
G37*
%LPD*%
D53*
X-208661Y43307D02*
D03*
Y-43307D02*
D03*
X208661D02*
D03*
Y43307D02*
D03*
D54*
X-90552Y51181D02*
D03*
X-98426D02*
D03*
X-94489D02*
D03*
X-106300D02*
D03*
X-102363D02*
D03*
X-114174D02*
D03*
X-110237D02*
D03*
X-122048D02*
D03*
X-118111D02*
D03*
X-129922D02*
D03*
X-125985D02*
D03*
X-137796D02*
D03*
X-133859D02*
D03*
X-145670D02*
D03*
X-141733D02*
D03*
X-149607D02*
D03*
X-157481D02*
D03*
X-153544D02*
D03*
X-169292D02*
D03*
X-173229D02*
D03*
X-177166D02*
D03*
X-181103D02*
D03*
X-185040D02*
D03*
X-188977D02*
D03*
X-200788D02*
D03*
X-192914D02*
D03*
X-196851D02*
D03*
X90551D02*
D03*
X94488D02*
D03*
X98425D02*
D03*
X102362D02*
D03*
X106299D02*
D03*
X110236D02*
D03*
X114173D02*
D03*
X118110D02*
D03*
X122047D02*
D03*
X125984D02*
D03*
X129921D02*
D03*
X133858D02*
D03*
X137795D02*
D03*
X141732D02*
D03*
X145669D02*
D03*
X157480D02*
D03*
X149606D02*
D03*
X153543D02*
D03*
X200787D02*
D03*
X169291D02*
D03*
X173228D02*
D03*
X177165D02*
D03*
X181102D02*
D03*
X185039D02*
D03*
X188976D02*
D03*
X192913D02*
D03*
X196850D02*
D03*
X216535Y-35433D02*
D03*
Y27559D02*
D03*
Y31496D02*
D03*
Y35433D02*
D03*
Y11811D02*
D03*
Y15748D02*
D03*
Y19685D02*
D03*
Y23622D02*
D03*
Y-3937D02*
D03*
Y0D02*
D03*
Y3937D02*
D03*
Y7874D02*
D03*
Y-19685D02*
D03*
Y-15748D02*
D03*
Y-11811D02*
D03*
Y-7874D02*
D03*
Y-31496D02*
D03*
Y-27559D02*
D03*
Y-23622D02*
D03*
X-216535Y-35433D02*
D03*
Y-23622D02*
D03*
Y-27559D02*
D03*
Y-31496D02*
D03*
Y-7874D02*
D03*
Y-11811D02*
D03*
Y-15748D02*
D03*
Y-19685D02*
D03*
Y7874D02*
D03*
Y3937D02*
D03*
Y-0D02*
D03*
Y-3937D02*
D03*
Y23622D02*
D03*
Y19685D02*
D03*
Y15748D02*
D03*
Y11811D02*
D03*
Y35433D02*
D03*
Y31496D02*
D03*
Y27559D02*
D03*
X-196850Y-51181D02*
D03*
X-192913D02*
D03*
X-188976D02*
D03*
X-200787D02*
D03*
X-122047D02*
D03*
X-118110D02*
D03*
X-114173D02*
D03*
X-137795D02*
D03*
X-133858D02*
D03*
X-129921D02*
D03*
X-125984D02*
D03*
X-153543D02*
D03*
X-149606D02*
D03*
X-145669D02*
D03*
X-141732D02*
D03*
X-169291D02*
D03*
X-165354D02*
D03*
X-161417D02*
D03*
X-157480D02*
D03*
X-185039D02*
D03*
X-181102D02*
D03*
X-177165D02*
D03*
X-173228D02*
D03*
X-47244D02*
D03*
X-43307D02*
D03*
X-39370D02*
D03*
X-62992D02*
D03*
X-59055D02*
D03*
X-55118D02*
D03*
X-51181D02*
D03*
X-78740D02*
D03*
X-74803D02*
D03*
X-70866D02*
D03*
X-66929D02*
D03*
X-94488D02*
D03*
X-90551D02*
D03*
X-86614D02*
D03*
X-82677D02*
D03*
X-110236D02*
D03*
X-106299D02*
D03*
X-102362D02*
D03*
X-98425D02*
D03*
X173228D02*
D03*
X169291D02*
D03*
X165354D02*
D03*
X188976D02*
D03*
X185039D02*
D03*
X181102D02*
D03*
X177165D02*
D03*
X200787D02*
D03*
X196850D02*
D03*
X192913D02*
D03*
X98425D02*
D03*
X94488D02*
D03*
X90551D02*
D03*
X114173D02*
D03*
X110236D02*
D03*
X106299D02*
D03*
X102362D02*
D03*
X129921D02*
D03*
X125984D02*
D03*
X122047D02*
D03*
X118110D02*
D03*
X145669D02*
D03*
X141732D02*
D03*
X137795D02*
D03*
X133858D02*
D03*
X161417D02*
D03*
X157480D02*
D03*
X153543D02*
D03*
X149606D02*
D03*
X74803D02*
D03*
X78740D02*
D03*
X82677D02*
D03*
X86614D02*
D03*
X59055D02*
D03*
X62992D02*
D03*
X66929D02*
D03*
X70866D02*
D03*
X43307D02*
D03*
X47244D02*
D03*
X51181D02*
D03*
X55118D02*
D03*
X27559D02*
D03*
X31496D02*
D03*
X35433D02*
D03*
X39370D02*
D03*
X11811D02*
D03*
X15748D02*
D03*
X19685D02*
D03*
X23622D02*
D03*
X-3937D02*
D03*
X0D02*
D03*
X3937D02*
D03*
X7874D02*
D03*
X-19685D02*
D03*
X-15748D02*
D03*
X-11811D02*
D03*
X-7874D02*
D03*
X-23622D02*
D03*
X-27559D02*
D03*
X-31496D02*
D03*
X-35433D02*
D03*
D55*
X210634Y23146D02*
D03*
X200791Y3461D02*
D03*
X210634Y-16224D02*
D03*
X181106Y42831D02*
D03*
X190949Y23146D02*
D03*
X181106Y3461D02*
D03*
X190949Y-16224D02*
D03*
X181106Y-35909D02*
D03*
X171264Y-16224D02*
D03*
X141736Y42831D02*
D03*
X151579Y23146D02*
D03*
X141736Y3461D02*
D03*
X151579Y-16224D02*
D03*
X122051Y42831D02*
D03*
X131894Y23146D02*
D03*
X122051Y3461D02*
D03*
X131894Y-16224D02*
D03*
X102366Y42831D02*
D03*
X112209Y23146D02*
D03*
X102366Y3461D02*
D03*
X112209Y-16224D02*
D03*
X82681Y42831D02*
D03*
X92524Y23146D02*
D03*
X82681Y3461D02*
D03*
X92524Y-16224D02*
D03*
X72839Y62516D02*
D03*
X62996Y42831D02*
D03*
X72839Y23146D02*
D03*
X62996Y3461D02*
D03*
X72839Y-16224D02*
D03*
X23626Y42831D02*
D03*
X33468Y23146D02*
D03*
Y-16224D02*
D03*
X13783Y62516D02*
D03*
Y-16224D02*
D03*
X-5902Y62516D02*
D03*
X-15744Y42831D02*
D03*
X-5902Y23146D02*
D03*
X-25587Y62516D02*
D03*
Y23146D02*
D03*
Y-16224D02*
D03*
X-55114Y3461D02*
D03*
X-45272Y-16224D02*
D03*
X-64957Y62516D02*
D03*
X-74799Y42831D02*
D03*
X-64957Y23146D02*
D03*
X-74799Y3461D02*
D03*
X-94484Y42831D02*
D03*
X-84642Y23146D02*
D03*
X-94484Y-35909D02*
D03*
X-114169Y42831D02*
D03*
X-104327Y23146D02*
D03*
X-114169Y3461D02*
D03*
X-104327Y-16224D02*
D03*
X-114169Y-35909D02*
D03*
X-133854Y42831D02*
D03*
X-124012Y23146D02*
D03*
X-133854Y3461D02*
D03*
X-124012Y-16224D02*
D03*
X-133854Y-35909D02*
D03*
X-153539Y42831D02*
D03*
X-143697Y23146D02*
D03*
X-153539Y3461D02*
D03*
X-143697Y-16224D02*
D03*
X-153539Y-35909D02*
D03*
X-173224Y42831D02*
D03*
Y-35909D02*
D03*
X-192909Y42831D02*
D03*
X-183067Y23146D02*
D03*
X-192909Y3461D02*
D03*
X-183067Y-16224D02*
D03*
X-192909Y-35909D02*
D03*
X-202752Y23146D02*
D03*
X-212595Y3461D02*
D03*
X-202752Y-16224D02*
D03*
X-12992Y-7500D02*
D03*
Y-28051D02*
D03*
X33327Y1122D02*
D03*
X-12992Y-3500D02*
D03*
X35807Y-29252D02*
D03*
X-54684Y24213D02*
D03*
X51181Y31496D02*
D03*
X43307D02*
D03*
X-67968Y-15748D02*
D03*
X-67895Y-18871D02*
D03*
X1693Y15748D02*
D03*
X68898Y30236D02*
D03*
X54744Y-22441D02*
D03*
X49744Y6693D02*
D03*
X44744D02*
D03*
X39744Y-22441D02*
D03*
X47244Y-25866D02*
D03*
X39744Y6437D02*
D03*
X13504Y43307D02*
D03*
X1693D02*
D03*
X-10118D02*
D03*
X13504Y15748D02*
D03*
X-10118D02*
D03*
X-26575Y3150D02*
D03*
Y0D02*
D03*
Y-3150D02*
D03*
Y-6299D02*
D03*
Y-9449D02*
D03*
X-67913Y-12598D02*
D03*
X-36220Y12795D02*
D03*
X-55118D02*
D03*
X-45669Y12303D02*
D03*
X-42520Y-28051D02*
D03*
X-48819D02*
D03*
X-67421Y-9449D02*
D03*
X-70866Y-2126D02*
D03*
X-92244Y-15748D02*
D03*
X-96732Y7874D02*
D03*
X-88967Y-2067D02*
D03*
X-92244Y1969D02*
D03*
X-100010Y-5807D02*
D03*
X164567Y-21929D02*
D03*
X-164567D02*
D03*
X59490Y66929D02*
D03*
X49647D02*
D03*
X44726D02*
D03*
X7874Y64370D02*
D03*
X-7874D02*
D03*
X3150D02*
D03*
X-3150D02*
D03*
X-34998Y66929D02*
D03*
X-39920D02*
D03*
X-44841D02*
D03*
X-49762D02*
D03*
X-54684D02*
D03*
M02*
