G04*
G04 #@! TF.GenerationSoftware,Altium Limited,Altium Designer,23.3.1 (30)*
G04*
G04 Layer_Color=32896*
%FSLAX25Y25*%
%MOIN*%
G70*
G04*
G04 #@! TF.SameCoordinates,AEED621E-3CD5-435C-AC93-41C8B311E913*
G04*
G04*
G04 #@! TF.FilePolarity,Positive*
G04*
G01*
G75*
%ADD58C,0.00079*%
%ADD59C,0.00039*%
D58*
X-44409Y14272D02*
Y17224D01*
X-47362Y14764D02*
Y16732D01*
X-48346Y15748D02*
X-46378D01*
X-50315Y14272D02*
X-44409D01*
X-50315Y17224D02*
X-44409D01*
X-50315Y14272D02*
Y17224D01*
X-43780Y-32972D02*
Y-30020D01*
X-40827Y-32480D02*
Y-30512D01*
X-41811Y-31496D02*
X-39843D01*
X-43780Y-30020D02*
X-37874D01*
X-43780Y-32972D02*
X-37874D01*
Y-30020D01*
X-47559Y-32972D02*
Y-30020D01*
X-50512Y-32480D02*
Y-30512D01*
X-51496Y-31496D02*
X-49528D01*
X-53465Y-32972D02*
X-47559D01*
X-53465Y-30020D02*
X-47559D01*
X-53465Y-32972D02*
Y-30020D01*
X-72342Y-11339D02*
X-69390D01*
X-71850Y-14291D02*
X-69882D01*
X-70866Y-15276D02*
Y-13307D01*
X-69390Y-17244D02*
Y-11339D01*
X-72342Y-17244D02*
Y-11339D01*
Y-17244D02*
X-69390D01*
X-162106Y-20669D02*
X-159153D01*
X-161614Y-23622D02*
X-159646D01*
X-160630Y-24606D02*
Y-22638D01*
X-159153Y-26575D02*
Y-20669D01*
X-162106Y-26575D02*
Y-20669D01*
Y-26575D02*
X-159153D01*
X167028Y-20669D02*
X169980D01*
X167520Y-23622D02*
X169488D01*
X168504Y-24606D02*
Y-22638D01*
X169980Y-26575D02*
Y-20669D01*
X167028Y-26575D02*
Y-20669D01*
Y-26575D02*
X169980D01*
X-17224Y-2618D02*
X-14272D01*
X-16732Y335D02*
X-14764D01*
X-15748Y-650D02*
Y1319D01*
X-17224Y-2618D02*
Y3287D01*
X-14272Y-2618D02*
Y3287D01*
X-17224D02*
X-14272D01*
X58013Y48228D02*
X60966D01*
X58505Y45276D02*
X60474D01*
X59490Y44291D02*
Y46260D01*
X60966Y42323D02*
Y48228D01*
X58013Y42323D02*
Y48228D01*
Y42323D02*
X60966D01*
X43268Y-24606D02*
X46220D01*
X43760Y-27559D02*
X45728D01*
X44744Y-28543D02*
Y-26575D01*
X46220Y-30512D02*
Y-24606D01*
X43268Y-30512D02*
Y-24606D01*
Y-30512D02*
X46220D01*
X38268Y8858D02*
X41221D01*
X38760Y11811D02*
X40728D01*
X39744Y10827D02*
Y12795D01*
X38268Y8858D02*
Y14764D01*
X41221Y8858D02*
Y14764D01*
X38268D02*
X41221D01*
X8858Y26083D02*
Y29035D01*
X11811Y26575D02*
Y28543D01*
X10827Y27559D02*
X12795D01*
X8858Y29035D02*
X14764D01*
X8858Y26083D02*
X14764D01*
Y29035D01*
X-2953Y26083D02*
Y29035D01*
X0Y26575D02*
Y28543D01*
X-984Y27559D02*
X984D01*
X-2953Y29035D02*
X2953D01*
X-2953Y26083D02*
X2953D01*
Y29035D01*
X-14764Y26083D02*
Y29035D01*
X-11811Y26575D02*
Y28543D01*
X-12795Y27559D02*
X-10827D01*
X-14764Y29035D02*
X-8858D01*
X-14764Y26083D02*
X-8858D01*
Y29035D01*
D59*
X-71850Y-7756D02*
X-69882D01*
X-70866Y-8740D02*
Y-6772D01*
X-72342Y-10709D02*
Y-4803D01*
X-69390Y-10709D02*
Y-4803D01*
X-72342D02*
X-69390D01*
X-72342Y-10709D02*
X-69390D01*
X-98425Y2953D02*
Y4921D01*
X-99410Y3937D02*
X-97441D01*
X-101378Y5413D02*
X-95472D01*
X-101378Y2461D02*
X-95472D01*
Y5413D01*
X-101378Y2461D02*
Y5413D01*
X-90551Y2953D02*
Y4921D01*
X-91535Y3937D02*
X-89567D01*
X-93504Y2461D02*
X-87598D01*
X-93504Y5413D02*
X-87598D01*
X-93504Y2461D02*
Y5413D01*
X-87598Y2461D02*
Y5413D01*
X-90551Y-984D02*
Y984D01*
X-91535Y0D02*
X-89567D01*
X-93504Y-1476D02*
X-87598D01*
X-93504Y1476D02*
X-87598D01*
X-93504Y-1476D02*
Y1476D01*
X-87598Y-1476D02*
Y1476D01*
X-96063Y-4921D02*
Y984D01*
X-100787D02*
X-96063D01*
X-100787Y-4921D02*
Y984D01*
Y-4921D02*
X-96063D01*
X-99410Y-1969D02*
X-97441D01*
X-98425Y-2953D02*
Y-984D01*
X-92913Y-8858D02*
Y-2953D01*
Y-8858D02*
X-88189D01*
Y-2953D01*
X-92913D02*
X-88189D01*
X-91535Y-5906D02*
X-89567D01*
X-90551Y-6890D02*
Y-4921D01*
X-98425Y-8858D02*
Y-6890D01*
X-99410Y-7874D02*
X-97441D01*
X-101378Y-9350D02*
X-95472D01*
X-101378Y-6398D02*
X-95472D01*
X-101378Y-9350D02*
Y-6398D01*
X-95472Y-9350D02*
Y-6398D01*
X-98425Y-12795D02*
Y-10827D01*
X-99410Y-11811D02*
X-97441D01*
X-101378Y-10335D02*
X-95472D01*
X-101378Y-13287D02*
X-95472D01*
Y-10335D01*
X-101378Y-13287D02*
Y-10335D01*
X-90551Y-12795D02*
Y-10827D01*
X-91535Y-11811D02*
X-89567D01*
X-93504Y-13287D02*
X-87598D01*
X-93504Y-10335D02*
X-87598D01*
X-93504Y-13287D02*
Y-10335D01*
X-87598Y-13287D02*
Y-10335D01*
X-169488Y-23622D02*
X-167520D01*
X-168504Y-24606D02*
Y-22638D01*
X-169980Y-26575D02*
Y-20669D01*
X-167028Y-26575D02*
Y-20669D01*
X-169980D02*
X-167028D01*
X-169980Y-26575D02*
X-167028D01*
X159646Y-23622D02*
X161614D01*
X160630Y-24606D02*
Y-22638D01*
X159153Y-26575D02*
Y-20669D01*
X162106Y-26575D02*
Y-20669D01*
X159153D02*
X162106D01*
X159153Y-26575D02*
X162106D01*
X-18209Y-9449D02*
X-13287D01*
X-18209Y-19291D02*
X-13287D01*
X-16732Y-14370D02*
X-14764D01*
X-15748Y-15354D02*
Y-13386D01*
X-18209Y-19291D02*
Y-9449D01*
X-13287Y-19291D02*
Y-9449D01*
X53584Y45276D02*
X55553D01*
X54568Y44291D02*
Y46260D01*
X56045Y42323D02*
Y48228D01*
X53092Y42323D02*
Y48228D01*
Y42323D02*
X56045D01*
X53092Y48228D02*
X56045D01*
X-61244Y41696D02*
X-33244D01*
Y21296D02*
Y41696D01*
X-61244Y21296D02*
X-33244D01*
X-61244D02*
Y41696D01*
X-47244Y30512D02*
Y32480D01*
X-48228Y31496D02*
X-46260D01*
X-47244Y-8858D02*
Y-6890D01*
X-48228Y-7874D02*
X-46260D01*
X-66929Y-27559D02*
X-27559D01*
Y11811D01*
X-66929D02*
X-27559D01*
X-66929Y-27559D02*
Y11811D01*
X-13780Y-23622D02*
X31496D01*
Y7874D01*
X-13780D02*
X31496D01*
X-13780Y-23622D02*
Y7874D01*
X48760Y-27559D02*
X50728D01*
X49744Y-28543D02*
Y-26575D01*
X48268Y-30512D02*
Y-24606D01*
X51221Y-30512D02*
Y-24606D01*
X48268D02*
X51221D01*
X48268Y-30512D02*
X51221D01*
X38760Y-27559D02*
X40728D01*
X39744Y-28543D02*
Y-26575D01*
X41221Y-30512D02*
Y-24606D01*
X38268Y-30512D02*
Y-24606D01*
Y-30512D02*
X41221D01*
X38268Y-24606D02*
X41221D01*
X57087Y-19685D02*
Y3937D01*
X37402Y-19685D02*
X57087D01*
X37402Y3937D02*
X57087D01*
X37402Y-19685D02*
Y3937D01*
X47244Y-8858D02*
Y-6890D01*
X46260Y-7874D02*
X48228D01*
X62992Y23622D02*
Y39370D01*
X31496Y23622D02*
Y39370D01*
Y23622D02*
X62992D01*
X31496Y39370D02*
X62992D01*
X46260Y31496D02*
X48228D01*
X47244Y30512D02*
Y32480D01*
X63976Y28543D02*
X65945D01*
X64961Y27559D02*
Y29528D01*
X63484Y25591D02*
Y31496D01*
X66437Y25591D02*
Y31496D01*
X63484D02*
X66437D01*
X63484Y25591D02*
X66437D01*
X28543Y28543D02*
X30512D01*
X29528Y27559D02*
Y29528D01*
X31004Y25591D02*
Y31496D01*
X28051Y25591D02*
Y31496D01*
Y25591D02*
X31004D01*
X28051Y31496D02*
X31004D01*
X11811Y18701D02*
Y20669D01*
X10827Y19685D02*
X12795D01*
X8858Y21161D02*
X14764D01*
X8858Y18209D02*
X14764D01*
Y21161D01*
X8858Y18209D02*
Y21161D01*
X11811Y22638D02*
Y24606D01*
X10827Y23622D02*
X12795D01*
X8858Y22146D02*
X14764D01*
X8858Y25098D02*
X14764D01*
X8858Y22146D02*
Y25098D01*
X14764Y22146D02*
Y25098D01*
X14173Y30512D02*
Y36417D01*
X9449D02*
X14173D01*
X9449Y30512D02*
Y36417D01*
Y30512D02*
X14173D01*
X10827Y33465D02*
X12795D01*
X11811Y32480D02*
Y34449D01*
Y38386D02*
Y40354D01*
X10827Y39370D02*
X12795D01*
X8858Y40846D02*
X14764D01*
X8858Y37894D02*
X14764D01*
Y40846D01*
X8858Y37894D02*
Y40846D01*
X0Y38386D02*
Y40354D01*
X-984Y39370D02*
X984D01*
X-2953Y40846D02*
X2953D01*
X-2953Y37894D02*
X2953D01*
Y40846D01*
X-2953Y37894D02*
Y40846D01*
X2362Y30512D02*
Y36417D01*
X-2362D02*
X2362D01*
X-2362Y30512D02*
Y36417D01*
Y30512D02*
X2362D01*
X-984Y33465D02*
X984D01*
X0Y32480D02*
Y34449D01*
Y22638D02*
Y24606D01*
X-984Y23622D02*
X984D01*
X-2953Y22146D02*
X2953D01*
X-2953Y25098D02*
X2953D01*
X-2953Y22146D02*
Y25098D01*
X2953Y22146D02*
Y25098D01*
X0Y18701D02*
Y20669D01*
X-984Y19685D02*
X984D01*
X-2953Y21161D02*
X2953D01*
X-2953Y18209D02*
X2953D01*
Y21161D01*
X-2953Y18209D02*
Y21161D01*
X-11811Y18701D02*
Y20669D01*
X-12795Y19685D02*
X-10827D01*
X-14764Y21161D02*
X-8858D01*
X-14764Y18209D02*
X-8858D01*
Y21161D01*
X-14764Y18209D02*
Y21161D01*
X-11811Y22638D02*
Y24606D01*
X-12795Y23622D02*
X-10827D01*
X-14764Y22146D02*
X-8858D01*
X-14764Y25098D02*
X-8858D01*
X-14764Y22146D02*
Y25098D01*
X-8858Y22146D02*
Y25098D01*
X-9449Y30512D02*
Y36417D01*
X-14173D02*
X-9449D01*
X-14173Y30512D02*
Y36417D01*
Y30512D02*
X-9449D01*
X-12795Y33465D02*
X-10827D01*
X-11811Y32480D02*
Y34449D01*
Y38386D02*
Y40354D01*
X-12795Y39370D02*
X-10827D01*
X-14764Y40846D02*
X-8858D01*
X-14764Y37894D02*
X-8858D01*
Y40846D01*
X-14764Y37894D02*
Y40846D01*
X46260Y62992D02*
X48228D01*
X47244Y62008D02*
Y63976D01*
X74803Y55118D02*
Y78740D01*
X19685D02*
X74803D01*
X19685Y55118D02*
Y78740D01*
Y55118D02*
X74803D01*
X156693Y-15551D02*
Y55315D01*
X172441Y-15551D02*
Y55315D01*
X156693D02*
X172441D01*
X156693Y-15551D02*
X172441D01*
X163583Y19882D02*
X165551D01*
X164567Y18898D02*
Y20866D01*
X-172441Y-15551D02*
Y55315D01*
X-156693Y-15551D02*
Y55315D01*
X-172441D02*
X-156693D01*
X-172441Y-15551D02*
X-156693D01*
X-165551Y19882D02*
X-163583D01*
X-164567Y18898D02*
Y20866D01*
X-48228Y62992D02*
X-46260D01*
X-47244Y62008D02*
Y63976D01*
X-19685Y55118D02*
Y78740D01*
X-74803D02*
X-19685D01*
X-74803Y55118D02*
Y78740D01*
Y55118D02*
X-19685D01*
X0Y69785D02*
Y72147D01*
X-1181Y70966D02*
X1181D01*
X-4900Y67566D02*
X4900D01*
X-4900D02*
Y74166D01*
X4900D01*
Y67566D02*
Y74166D01*
M02*
