G04*
G04 #@! TF.GenerationSoftware,Altium Limited,Altium Designer,20.0.13 (296)*
G04*
G04 Layer_Physical_Order=3*
G04 Layer_Color=16440176*
%FSLAX25Y25*%
%MOIN*%
G70*
G01*
G75*
%ADD20C,0.19685*%
G36*
X23337Y116787D02*
X25703Y116153D01*
X27965Y115216D01*
X30086Y113992D01*
X32029Y112501D01*
X33761Y110769D01*
X35252Y108826D01*
X36476Y106706D01*
X37413Y104443D01*
X38047Y102078D01*
X38367Y99650D01*
Y98425D01*
Y19685D01*
Y18461D01*
X38047Y16033D01*
X37413Y13667D01*
X36476Y11405D01*
X35252Y9284D01*
X33761Y7341D01*
X32029Y5609D01*
X30086Y4118D01*
X27965Y2894D01*
X25703Y1957D01*
X23337Y1323D01*
X20910Y1003D01*
X18461D01*
X16033Y1323D01*
X13667Y1957D01*
X11405Y2894D01*
X9284Y4118D01*
X7341Y5609D01*
X5609Y7341D01*
X4118Y9284D01*
X2894Y11405D01*
X1957Y13667D01*
X1323Y16033D01*
X1003Y18461D01*
Y19685D01*
Y98425D01*
Y99650D01*
X1323Y102078D01*
X1957Y104443D01*
X2894Y106706D01*
X4118Y108826D01*
X5609Y110769D01*
X7341Y112501D01*
X9284Y113992D01*
X11405Y115216D01*
X13667Y116153D01*
X16033Y116787D01*
X18461Y117107D01*
X20910D01*
X23337Y116787D01*
D02*
G37*
%LPC*%
G36*
X29252Y72271D02*
X28714Y72164D01*
X28258Y71860D01*
X27954Y71404D01*
X27847Y70866D01*
X27954Y70328D01*
X28258Y69873D01*
X28714Y69568D01*
X29252Y69461D01*
X29790Y69568D01*
X30245Y69873D01*
X30550Y70328D01*
X30657Y70866D01*
X30550Y71404D01*
X30245Y71860D01*
X29790Y72164D01*
X29252Y72271D01*
D02*
G37*
G36*
X13500Y57999D02*
X12962Y57893D01*
X12507Y57588D01*
X12202Y57132D01*
X12095Y56595D01*
X12202Y56057D01*
X12507Y55601D01*
X12962Y55296D01*
X13500Y55190D01*
X14038Y55296D01*
X14493Y55601D01*
X14798Y56057D01*
X14905Y56595D01*
X14798Y57132D01*
X14493Y57588D01*
X14038Y57893D01*
X13500Y57999D01*
D02*
G37*
%LPD*%
D20*
X19685Y19685D02*
D03*
Y98425D02*
D03*
M02*
