G04*
G04 #@! TF.GenerationSoftware,Altium Limited,Altium Designer,20.0.13 (296)*
G04*
G04 Layer_Color=32896*
%FSLAX25Y25*%
%MOIN*%
G70*
G01*
G75*
%ADD11C,0.00394*%
G36*
X35433Y33465D02*
X3937D01*
Y45276D01*
X35433D01*
Y33465D01*
D02*
G37*
G36*
X36495Y62903D02*
X36541Y62896D01*
X36626Y62881D01*
X36667Y62870D01*
X36704Y62859D01*
X36739Y62846D01*
X36770Y62833D01*
X36800Y62822D01*
X36826Y62809D01*
X36848Y62798D01*
X36868Y62787D01*
X36883Y62781D01*
X36894Y62774D01*
X36900Y62770D01*
X36902Y62768D01*
X36940Y62742D01*
X36972Y62716D01*
X37003Y62685D01*
X37033Y62657D01*
X37060Y62626D01*
X37084Y62596D01*
X37105Y62567D01*
X37127Y62537D01*
X37145Y62511D01*
X37160Y62487D01*
X37173Y62463D01*
X37182Y62443D01*
X37190Y62428D01*
X37197Y62417D01*
X37199Y62408D01*
X37201Y62406D01*
X37219Y62362D01*
X37234Y62314D01*
X37258Y62218D01*
X37275Y62122D01*
X37282Y62077D01*
X37286Y62033D01*
X37291Y61992D01*
X37295Y61953D01*
X37297Y61920D01*
Y61889D01*
X37299Y61865D01*
Y61833D01*
X37297Y61782D01*
X37295Y61734D01*
X37291Y61689D01*
X37284Y61643D01*
X37277Y61602D01*
X37269Y61562D01*
X37260Y61525D01*
X37249Y61490D01*
X37240Y61460D01*
X37232Y61431D01*
X37223Y61408D01*
X37216Y61386D01*
X37210Y61370D01*
X37205Y61357D01*
X37201Y61351D01*
Y61349D01*
X37182Y61309D01*
X37162Y61272D01*
X37140Y61238D01*
X37116Y61205D01*
X37094Y61176D01*
X37070Y61148D01*
X37049Y61124D01*
X37027Y61102D01*
X37007Y61083D01*
X36988Y61065D01*
X36970Y61050D01*
X36955Y61039D01*
X36944Y61030D01*
X36935Y61022D01*
X36929Y61019D01*
X36926Y61017D01*
X36894Y60998D01*
X36859Y60978D01*
X36826Y60963D01*
X36794Y60950D01*
X36730Y60930D01*
X36671Y60917D01*
X36645Y60910D01*
X36621Y60908D01*
X36602Y60906D01*
X36584Y60904D01*
X36569Y60902D01*
X36558D01*
X36551D01*
X36549D01*
X36512Y60904D01*
X36475Y60906D01*
X36408Y60919D01*
X36347Y60934D01*
X36320Y60945D01*
X36294Y60954D01*
X36272Y60965D01*
X36251Y60974D01*
X36233Y60985D01*
X36220Y60991D01*
X36207Y60998D01*
X36198Y61004D01*
X36194Y61006D01*
X36192Y61009D01*
X36163Y61030D01*
X36137Y61052D01*
X36087Y61102D01*
X36041Y61157D01*
X36004Y61209D01*
X35989Y61233D01*
X35976Y61257D01*
X35963Y61277D01*
X35952Y61296D01*
X35945Y61309D01*
X35939Y61322D01*
X35937Y61329D01*
X35935Y61331D01*
X35921Y61362D01*
X35908Y61399D01*
X35895Y61440D01*
X35880Y61484D01*
X35854Y61575D01*
X35830Y61669D01*
X35819Y61713D01*
X35808Y61754D01*
X35799Y61791D01*
X35791Y61826D01*
X35784Y61852D01*
X35780Y61874D01*
X35776Y61887D01*
Y61892D01*
X35758Y61963D01*
X35741Y62029D01*
X35725Y62088D01*
X35708Y62140D01*
X35693Y62188D01*
X35680Y62227D01*
X35664Y62264D01*
X35651Y62295D01*
X35640Y62319D01*
X35629Y62340D01*
X35621Y62358D01*
X35612Y62371D01*
X35605Y62382D01*
X35601Y62388D01*
X35597Y62391D01*
Y62393D01*
X35579Y62410D01*
X35562Y62426D01*
X35525Y62450D01*
X35488Y62467D01*
X35453Y62478D01*
X35422Y62487D01*
X35396Y62489D01*
X35387Y62491D01*
X35381D01*
X35377D01*
X35374D01*
X35346Y62489D01*
X35318Y62484D01*
X35291Y62478D01*
X35265Y62469D01*
X35220Y62447D01*
X35180Y62421D01*
X35150Y62397D01*
X35137Y62386D01*
X35126Y62375D01*
X35117Y62367D01*
X35111Y62360D01*
X35108Y62356D01*
X35106Y62354D01*
X35087Y62325D01*
X35069Y62295D01*
X35054Y62260D01*
X35041Y62225D01*
X35021Y62153D01*
X35008Y62079D01*
X35004Y62046D01*
X35002Y62014D01*
X34999Y61985D01*
X34997Y61961D01*
X34995Y61939D01*
Y61911D01*
X34997Y61859D01*
X34999Y61809D01*
X35006Y61763D01*
X35015Y61719D01*
X35023Y61680D01*
X35034Y61645D01*
X35045Y61612D01*
X35056Y61584D01*
X35067Y61558D01*
X35078Y61534D01*
X35089Y61516D01*
X35098Y61501D01*
X35106Y61488D01*
X35113Y61479D01*
X35115Y61475D01*
X35117Y61473D01*
X35141Y61447D01*
X35167Y61423D01*
X35196Y61401D01*
X35224Y61381D01*
X35254Y61366D01*
X35285Y61351D01*
X35342Y61329D01*
X35370Y61320D01*
X35396Y61312D01*
X35418Y61307D01*
X35438Y61303D01*
X35455Y61301D01*
X35466Y61299D01*
X35475Y61296D01*
X35477D01*
X35453Y60978D01*
X35411Y60980D01*
X35372Y60987D01*
X35298Y61002D01*
X35263Y61011D01*
X35230Y61022D01*
X35200Y61032D01*
X35174Y61043D01*
X35148Y61054D01*
X35126Y61065D01*
X35106Y61076D01*
X35089Y61085D01*
X35076Y61091D01*
X35067Y61098D01*
X35060Y61100D01*
X35058Y61102D01*
X35026Y61124D01*
X34995Y61150D01*
X34943Y61203D01*
X34897Y61257D01*
X34860Y61309D01*
X34842Y61336D01*
X34829Y61357D01*
X34818Y61379D01*
X34810Y61397D01*
X34801Y61412D01*
X34797Y61423D01*
X34792Y61429D01*
Y61431D01*
X34762Y61514D01*
X34740Y61599D01*
X34723Y61682D01*
X34716Y61721D01*
X34712Y61759D01*
X34707Y61793D01*
X34705Y61826D01*
X34703Y61854D01*
Y61878D01*
X34701Y61898D01*
Y61926D01*
X34705Y62018D01*
X34714Y62105D01*
X34720Y62147D01*
X34729Y62184D01*
X34736Y62218D01*
X34744Y62251D01*
X34753Y62282D01*
X34760Y62308D01*
X34768Y62332D01*
X34775Y62351D01*
X34779Y62367D01*
X34784Y62380D01*
X34788Y62386D01*
Y62388D01*
X34805Y62426D01*
X34823Y62460D01*
X34842Y62495D01*
X34862Y62526D01*
X34884Y62554D01*
X34903Y62580D01*
X34925Y62602D01*
X34945Y62624D01*
X34964Y62644D01*
X34982Y62659D01*
X34997Y62672D01*
X35010Y62685D01*
X35023Y62694D01*
X35032Y62700D01*
X35036Y62702D01*
X35039Y62705D01*
X35069Y62724D01*
X35102Y62739D01*
X35132Y62755D01*
X35165Y62766D01*
X35224Y62785D01*
X35278Y62798D01*
X35305Y62803D01*
X35326Y62805D01*
X35346Y62807D01*
X35363Y62809D01*
X35377Y62811D01*
X35387D01*
X35394D01*
X35396D01*
X35459Y62807D01*
X35518Y62798D01*
X35570Y62783D01*
X35616Y62768D01*
X35636Y62759D01*
X35656Y62753D01*
X35671Y62744D01*
X35684Y62737D01*
X35695Y62733D01*
X35701Y62729D01*
X35706Y62724D01*
X35708D01*
X35758Y62687D01*
X35804Y62644D01*
X35843Y62600D01*
X35878Y62556D01*
X35906Y62517D01*
X35917Y62500D01*
X35926Y62484D01*
X35932Y62473D01*
X35939Y62465D01*
X35941Y62458D01*
X35943Y62456D01*
X35956Y62428D01*
X35972Y62395D01*
X35985Y62360D01*
X35998Y62321D01*
X36024Y62240D01*
X36048Y62160D01*
X36059Y62122D01*
X36070Y62088D01*
X36079Y62055D01*
X36085Y62027D01*
X36092Y62003D01*
X36096Y61985D01*
X36100Y61974D01*
Y61970D01*
X36116Y61907D01*
X36129Y61850D01*
X36142Y61798D01*
X36155Y61752D01*
X36166Y61711D01*
X36174Y61673D01*
X36185Y61641D01*
X36192Y61612D01*
X36198Y61588D01*
X36205Y61569D01*
X36211Y61554D01*
X36216Y61541D01*
X36218Y61530D01*
X36220Y61523D01*
X36222Y61521D01*
Y61519D01*
X36246Y61464D01*
X36270Y61416D01*
X36294Y61377D01*
X36318Y61347D01*
X36340Y61322D01*
X36355Y61305D01*
X36366Y61294D01*
X36371Y61292D01*
X36403Y61268D01*
X36440Y61251D01*
X36473Y61240D01*
X36506Y61231D01*
X36534Y61227D01*
X36556Y61222D01*
X36565D01*
X36571D01*
X36573D01*
X36575D01*
X36619Y61224D01*
X36658Y61233D01*
X36695Y61244D01*
X36728Y61257D01*
X36754Y61272D01*
X36774Y61283D01*
X36787Y61292D01*
X36789Y61294D01*
X36791D01*
X36826Y61325D01*
X36857Y61360D01*
X36883Y61394D01*
X36905Y61429D01*
X36922Y61462D01*
X36935Y61488D01*
X36940Y61499D01*
X36944Y61506D01*
X36946Y61510D01*
Y61512D01*
X36966Y61569D01*
X36979Y61625D01*
X36990Y61682D01*
X36996Y61734D01*
X36998Y61759D01*
X37001Y61780D01*
Y61800D01*
X37003Y61815D01*
Y61848D01*
X37001Y61926D01*
X36992Y62001D01*
X36979Y62066D01*
X36972Y62094D01*
X36966Y62122D01*
X36959Y62149D01*
X36953Y62170D01*
X36946Y62190D01*
X36940Y62205D01*
X36935Y62218D01*
X36931Y62227D01*
X36929Y62234D01*
Y62236D01*
X36898Y62295D01*
X36868Y62347D01*
X36835Y62391D01*
X36802Y62426D01*
X36774Y62454D01*
X36752Y62473D01*
X36743Y62480D01*
X36737Y62484D01*
X36735Y62489D01*
X36733D01*
X36685Y62517D01*
X36632Y62539D01*
X36580Y62556D01*
X36530Y62569D01*
X36508Y62576D01*
X36486Y62580D01*
X36469Y62585D01*
X36451Y62587D01*
X36438Y62589D01*
X36430D01*
X36423Y62591D01*
X36421D01*
X36449Y62905D01*
X36495Y62903D01*
D02*
G37*
G36*
X37258Y60012D02*
Y59670D01*
X35342Y59140D01*
X35294Y59127D01*
X35246Y59114D01*
X35196Y59101D01*
X35150Y59090D01*
X35111Y59081D01*
X35093Y59077D01*
X35078Y59073D01*
X35067Y59070D01*
X35056Y59068D01*
X35052Y59066D01*
X35050D01*
X35063Y59064D01*
X35078Y59060D01*
X35098Y59053D01*
X35119Y59049D01*
X35167Y59036D01*
X35217Y59020D01*
X35265Y59007D01*
X35287Y59001D01*
X35305Y58996D01*
X35322Y58992D01*
X35333Y58988D01*
X35342Y58986D01*
X35344D01*
X37258Y58458D01*
Y58133D01*
X34744Y57446D01*
Y57782D01*
X36360Y58177D01*
X36473Y58203D01*
X36525Y58216D01*
X36575Y58227D01*
X36623Y58238D01*
X36669Y58249D01*
X36711Y58257D01*
X36750Y58266D01*
X36785Y58275D01*
X36815Y58281D01*
X36841Y58288D01*
X36865Y58292D01*
X36883Y58297D01*
X36896Y58299D01*
X36905Y58301D01*
X36907D01*
X36750Y58327D01*
X36593Y58358D01*
X36517Y58373D01*
X36443Y58390D01*
X36373Y58406D01*
X36307Y58421D01*
X36246Y58436D01*
X36190Y58451D01*
X36140Y58464D01*
X36098Y58475D01*
X36081Y58480D01*
X36063Y58484D01*
X36050Y58489D01*
X36039Y58491D01*
X36031Y58493D01*
X36022Y58495D01*
X36020Y58497D01*
X36017D01*
X34744Y58857D01*
Y59258D01*
X36443Y59735D01*
X36458Y59740D01*
X36480Y59744D01*
X36508Y59753D01*
X36541Y59759D01*
X36578Y59770D01*
X36617Y59779D01*
X36698Y59799D01*
X36737Y59807D01*
X36776Y59818D01*
X36811Y59827D01*
X36844Y59834D01*
X36870Y59840D01*
X36889Y59844D01*
X36902Y59847D01*
X36905Y59849D01*
X36907D01*
X36811Y59866D01*
X36719Y59884D01*
X36676Y59892D01*
X36632Y59901D01*
X36593Y59910D01*
X36556Y59919D01*
X36521Y59925D01*
X36488Y59934D01*
X36462Y59940D01*
X36438Y59945D01*
X36421Y59949D01*
X36406Y59953D01*
X36397Y59956D01*
X36395D01*
X34744Y60337D01*
Y60677D01*
X37258Y60012D01*
D02*
G37*
G36*
X35645Y56967D02*
X35618Y56910D01*
X35592Y56856D01*
X35566Y56805D01*
X35555Y56784D01*
X35542Y56762D01*
X35533Y56744D01*
X35525Y56729D01*
X35518Y56716D01*
X35512Y56707D01*
X35509Y56701D01*
X35507Y56699D01*
X35468Y56633D01*
X35429Y56577D01*
X35392Y56526D01*
X35361Y56483D01*
X35346Y56465D01*
X35333Y56450D01*
X35322Y56437D01*
X35311Y56424D01*
X35305Y56415D01*
X35298Y56409D01*
X35296Y56407D01*
X35294Y56404D01*
X37258D01*
Y56095D01*
X34736D01*
Y56295D01*
X34766Y56311D01*
X34797Y56330D01*
X34858Y56372D01*
X34914Y56418D01*
X34967Y56463D01*
X34988Y56485D01*
X35010Y56505D01*
X35028Y56522D01*
X35043Y56537D01*
X35056Y56553D01*
X35065Y56561D01*
X35071Y56568D01*
X35074Y56570D01*
X35135Y56644D01*
X35191Y56723D01*
X35241Y56799D01*
X35265Y56834D01*
X35285Y56869D01*
X35305Y56901D01*
X35320Y56930D01*
X35335Y56956D01*
X35346Y56978D01*
X35355Y56995D01*
X35361Y57010D01*
X35366Y57019D01*
X35368Y57021D01*
X35666D01*
X35645Y56967D01*
D02*
G37*
%LPC*%
G36*
X24764Y41302D02*
X24741D01*
X24712Y41299D01*
X24676Y41295D01*
X24630Y41292D01*
X24577Y41286D01*
X24518Y41273D01*
X24456Y41259D01*
X24390Y41243D01*
X24321Y41220D01*
X24249Y41190D01*
X24177Y41158D01*
X24105Y41118D01*
X24036Y41072D01*
X23970Y41020D01*
X23908Y40961D01*
X23905Y40958D01*
X23895Y40948D01*
X23882Y40931D01*
X23865Y40912D01*
X23846Y40885D01*
X23823Y40853D01*
X23800Y40817D01*
X23774Y40777D01*
X23747Y40735D01*
X23724Y40685D01*
X23701Y40633D01*
X23682Y40577D01*
X23665Y40518D01*
X23649Y40459D01*
X23642Y40397D01*
X23639Y40331D01*
Y40325D01*
Y40308D01*
X23642Y40282D01*
X23649Y40249D01*
X23655Y40207D01*
X23669Y40157D01*
X23685Y40105D01*
X23708Y40046D01*
X23738Y39983D01*
X23774Y39918D01*
X23816Y39852D01*
X23869Y39783D01*
X23934Y39718D01*
X24006Y39655D01*
X24092Y39593D01*
X24187Y39534D01*
X24184D01*
X24174Y39531D01*
X24154Y39527D01*
X24134Y39521D01*
X24105Y39511D01*
X24075Y39498D01*
X24039Y39485D01*
X24000Y39469D01*
X23918Y39429D01*
X23875Y39403D01*
X23833Y39373D01*
X23787Y39341D01*
X23747Y39305D01*
X23705Y39265D01*
X23669Y39222D01*
X23665Y39219D01*
X23659Y39213D01*
X23649Y39200D01*
X23639Y39180D01*
X23623Y39157D01*
X23606Y39127D01*
X23590Y39095D01*
X23570Y39059D01*
X23550Y39016D01*
X23534Y38973D01*
X23518Y38924D01*
X23501Y38871D01*
X23492Y38819D01*
X23482Y38760D01*
X23475Y38698D01*
X23472Y38635D01*
Y38612D01*
X23475Y38586D01*
X23478Y38553D01*
X23482Y38511D01*
X23492Y38458D01*
X23501Y38403D01*
X23518Y38343D01*
X23537Y38278D01*
X23560Y38209D01*
X23590Y38140D01*
X23626Y38068D01*
X23669Y37996D01*
X23715Y37924D01*
X23770Y37855D01*
X23836Y37786D01*
X23839Y37783D01*
X23852Y37769D01*
X23872Y37753D01*
X23901Y37730D01*
X23938Y37704D01*
X23980Y37674D01*
X24029Y37645D01*
X24085Y37612D01*
X24148Y37579D01*
X24216Y37550D01*
X24292Y37520D01*
X24371Y37494D01*
X24456Y37471D01*
X24548Y37455D01*
X24643Y37441D01*
X24741Y37438D01*
X23472D01*
D01*
X25984D01*
D01*
X24764D01*
X24790Y37441D01*
X24826D01*
X24872Y37448D01*
X24922Y37455D01*
X24977Y37461D01*
X25040Y37474D01*
X25105Y37491D01*
X25174Y37510D01*
X25246Y37533D01*
X25318Y37563D01*
X25391Y37596D01*
X25460Y37635D01*
X25528Y37678D01*
X25594Y37730D01*
X25597Y37733D01*
X25607Y37743D01*
X25627Y37760D01*
X25646Y37783D01*
X25673Y37812D01*
X25702Y37848D01*
X25735Y37891D01*
X25768Y37937D01*
X25804Y37989D01*
X25837Y38048D01*
X25870Y38114D01*
X25902Y38183D01*
X25929Y38255D01*
X25951Y38334D01*
X25971Y38416D01*
X25984Y38504D01*
X25282Y38589D01*
Y38586D01*
X25279Y38576D01*
Y38563D01*
X25276Y38547D01*
X25269Y38524D01*
X25263Y38498D01*
X25246Y38439D01*
X25223Y38370D01*
X25194Y38304D01*
X25154Y38238D01*
X25105Y38179D01*
X25102D01*
X25099Y38173D01*
X25079Y38157D01*
X25046Y38133D01*
X25004Y38111D01*
X24954Y38084D01*
X24892Y38061D01*
X24823Y38045D01*
X24787Y38042D01*
X24748Y38038D01*
X24725D01*
X24712Y38042D01*
X24692Y38045D01*
X24669Y38048D01*
X24617Y38058D01*
X24557Y38078D01*
X24495Y38111D01*
X24462Y38127D01*
X24430Y38150D01*
X24400Y38176D01*
X24371Y38206D01*
X24367Y38209D01*
X24364Y38212D01*
X24357Y38222D01*
X24348Y38238D01*
X24334Y38255D01*
X24321Y38275D01*
X24308Y38301D01*
X24292Y38327D01*
X24279Y38360D01*
X24266Y38393D01*
X24239Y38471D01*
X24223Y38563D01*
X24216Y38616D01*
Y38668D01*
Y38671D01*
Y38681D01*
Y38694D01*
X24220Y38714D01*
Y38737D01*
X24223Y38763D01*
X24236Y38826D01*
X24252Y38895D01*
X24279Y38967D01*
X24315Y39035D01*
X24338Y39068D01*
X24364Y39101D01*
Y39104D01*
X24371Y39108D01*
X24390Y39127D01*
X24423Y39154D01*
X24462Y39183D01*
X24515Y39213D01*
X24577Y39236D01*
X24646Y39255D01*
X24682Y39259D01*
X24722Y39262D01*
X24744D01*
X24774Y39259D01*
X24813Y39255D01*
X24862Y39249D01*
X24918Y39239D01*
X24981Y39226D01*
X25049Y39206D01*
X24971Y39800D01*
X24922D01*
X24899Y39803D01*
X24869D01*
X24807Y39813D01*
X24735Y39826D01*
X24659Y39849D01*
X24587Y39882D01*
X24554Y39901D01*
X24525Y39924D01*
X24521Y39928D01*
X24518Y39931D01*
X24498Y39951D01*
X24475Y39980D01*
X24446Y40023D01*
X24416Y40072D01*
X24390Y40134D01*
X24374Y40207D01*
X24371Y40246D01*
X24367Y40285D01*
Y40288D01*
Y40295D01*
Y40305D01*
X24371Y40318D01*
X24374Y40351D01*
X24380Y40393D01*
X24397Y40443D01*
X24416Y40495D01*
X24443Y40544D01*
X24482Y40590D01*
X24489Y40597D01*
X24502Y40610D01*
X24528Y40626D01*
X24564Y40649D01*
X24607Y40669D01*
X24659Y40689D01*
X24718Y40702D01*
X24784Y40705D01*
X24800D01*
X24813Y40702D01*
X24849Y40699D01*
X24892Y40689D01*
X24945Y40672D01*
X24997Y40649D01*
X25049Y40617D01*
X25102Y40574D01*
X25109Y40567D01*
X25122Y40551D01*
X25145Y40521D01*
X25171Y40479D01*
X25197Y40426D01*
X25223Y40361D01*
X25246Y40285D01*
X25259Y40200D01*
X25929Y40311D01*
Y40315D01*
X25925Y40328D01*
X25922Y40344D01*
X25915Y40367D01*
X25909Y40397D01*
X25899Y40433D01*
X25889Y40469D01*
X25876Y40508D01*
X25846Y40597D01*
X25810Y40689D01*
X25768Y40777D01*
X25745Y40820D01*
X25719Y40859D01*
X25715Y40863D01*
X25712Y40869D01*
X25702Y40879D01*
X25692Y40892D01*
X25660Y40931D01*
X25617Y40977D01*
X25561Y41030D01*
X25496Y41082D01*
X25417Y41135D01*
X25328Y41184D01*
X25325D01*
X25315Y41190D01*
X25302Y41194D01*
X25282Y41204D01*
X25259Y41210D01*
X25233Y41220D01*
X25200Y41233D01*
X25164Y41243D01*
X25122Y41253D01*
X25079Y41266D01*
X24984Y41282D01*
X24879Y41295D01*
X24764Y41302D01*
D02*
G37*
G36*
X18886D02*
X18863D01*
X18834Y41299D01*
X18798Y41295D01*
X18752Y41292D01*
X18699Y41286D01*
X18640Y41273D01*
X18578Y41259D01*
X18512Y41243D01*
X18444Y41220D01*
X18371Y41190D01*
X18299Y41158D01*
X18227Y41118D01*
X18158Y41072D01*
X18093Y41020D01*
X18030Y40961D01*
X18027Y40958D01*
X18017Y40948D01*
X18004Y40931D01*
X17988Y40912D01*
X17968Y40885D01*
X17945Y40853D01*
X17922Y40817D01*
X17896Y40777D01*
X17870Y40735D01*
X17847Y40685D01*
X17824Y40633D01*
X17804Y40577D01*
X17788Y40518D01*
X17771Y40459D01*
X17765Y40397D01*
X17761Y40331D01*
Y40325D01*
Y40308D01*
X17765Y40282D01*
X17771Y40249D01*
X17778Y40207D01*
X17791Y40157D01*
X17807Y40105D01*
X17830Y40046D01*
X17860Y39983D01*
X17896Y39918D01*
X17938Y39852D01*
X17991Y39783D01*
X18056Y39718D01*
X18129Y39655D01*
X18214Y39593D01*
X18309Y39534D01*
X18306D01*
X18296Y39531D01*
X18276Y39527D01*
X18257Y39521D01*
X18227Y39511D01*
X18198Y39498D01*
X18161Y39485D01*
X18122Y39469D01*
X18040Y39429D01*
X17998Y39403D01*
X17955Y39373D01*
X17909Y39341D01*
X17870Y39305D01*
X17827Y39265D01*
X17791Y39222D01*
X17788Y39219D01*
X17781Y39213D01*
X17771Y39200D01*
X17761Y39180D01*
X17745Y39157D01*
X17729Y39127D01*
X17712Y39095D01*
X17692Y39059D01*
X17673Y39016D01*
X17656Y38973D01*
X17640Y38924D01*
X17624Y38871D01*
X17614Y38819D01*
X17604Y38760D01*
X17597Y38698D01*
X17594Y38635D01*
Y38652D01*
Y38612D01*
X17597Y38586D01*
X17601Y38553D01*
X17604Y38511D01*
X17614Y38458D01*
X17624Y38403D01*
X17640Y38343D01*
X17660Y38278D01*
X17683Y38209D01*
X17712Y38140D01*
X17748Y38068D01*
X17791Y37996D01*
X17837Y37924D01*
X17892Y37855D01*
X17958Y37786D01*
X17961Y37783D01*
X17975Y37769D01*
X17994Y37753D01*
X18024Y37730D01*
X18060Y37704D01*
X18102Y37674D01*
X18152Y37645D01*
X18207Y37612D01*
X18270Y37579D01*
X18339Y37550D01*
X18414Y37520D01*
X18493Y37494D01*
X18578Y37471D01*
X18670Y37455D01*
X18765Y37441D01*
X18863Y37438D01*
X17594D01*
D01*
X20107D01*
D01*
X18886D01*
X18913Y37441D01*
X18949D01*
X18995Y37448D01*
X19044Y37455D01*
X19100Y37461D01*
X19162Y37474D01*
X19228Y37491D01*
X19296Y37510D01*
X19368Y37533D01*
X19441Y37563D01*
X19513Y37596D01*
X19582Y37635D01*
X19651Y37678D01*
X19716Y37730D01*
X19719Y37733D01*
X19729Y37743D01*
X19749Y37760D01*
X19769Y37783D01*
X19795Y37812D01*
X19824Y37848D01*
X19857Y37891D01*
X19890Y37937D01*
X19926Y37989D01*
X19959Y38048D01*
X19992Y38114D01*
X20024Y38183D01*
X20051Y38255D01*
X20074Y38334D01*
X20093Y38416D01*
X20107Y38504D01*
X19405Y38589D01*
Y38586D01*
X19401Y38576D01*
Y38563D01*
X19398Y38547D01*
X19391Y38524D01*
X19385Y38498D01*
X19368Y38439D01*
X19346Y38370D01*
X19316Y38304D01*
X19277Y38238D01*
X19228Y38179D01*
X19224D01*
X19221Y38173D01*
X19201Y38157D01*
X19168Y38133D01*
X19126Y38111D01*
X19077Y38084D01*
X19014Y38061D01*
X18945Y38045D01*
X18909Y38042D01*
X18870Y38038D01*
X18847D01*
X18834Y38042D01*
X18814Y38045D01*
X18791Y38048D01*
X18739Y38058D01*
X18680Y38078D01*
X18617Y38111D01*
X18585Y38127D01*
X18552Y38150D01*
X18522Y38176D01*
X18493Y38206D01*
X18489Y38209D01*
X18486Y38212D01*
X18480Y38222D01*
X18470Y38238D01*
X18457Y38255D01*
X18444Y38275D01*
X18430Y38301D01*
X18414Y38327D01*
X18401Y38360D01*
X18388Y38393D01*
X18362Y38471D01*
X18345Y38563D01*
X18339Y38616D01*
Y38668D01*
Y38671D01*
Y38681D01*
Y38694D01*
X18342Y38714D01*
Y38737D01*
X18345Y38763D01*
X18358Y38826D01*
X18375Y38895D01*
X18401Y38967D01*
X18437Y39035D01*
X18460Y39068D01*
X18486Y39101D01*
Y39104D01*
X18493Y39108D01*
X18512Y39127D01*
X18545Y39154D01*
X18585Y39183D01*
X18637Y39213D01*
X18699Y39236D01*
X18768Y39255D01*
X18804Y39259D01*
X18844Y39262D01*
X18867D01*
X18896Y39259D01*
X18936Y39255D01*
X18985Y39249D01*
X19040Y39239D01*
X19103Y39226D01*
X19172Y39206D01*
X19093Y39800D01*
X19044D01*
X19021Y39803D01*
X18991D01*
X18929Y39813D01*
X18857Y39826D01*
X18781Y39849D01*
X18709Y39882D01*
X18676Y39901D01*
X18647Y39924D01*
X18644Y39928D01*
X18640Y39931D01*
X18621Y39951D01*
X18598Y39980D01*
X18568Y40023D01*
X18539Y40072D01*
X18512Y40134D01*
X18496Y40207D01*
X18493Y40246D01*
X18489Y40285D01*
Y40288D01*
Y40295D01*
Y40305D01*
X18493Y40318D01*
X18496Y40351D01*
X18503Y40393D01*
X18519Y40443D01*
X18539Y40495D01*
X18565Y40544D01*
X18604Y40590D01*
X18611Y40597D01*
X18624Y40610D01*
X18650Y40626D01*
X18686Y40649D01*
X18729Y40669D01*
X18781Y40689D01*
X18840Y40702D01*
X18906Y40705D01*
X18922D01*
X18936Y40702D01*
X18972Y40699D01*
X19014Y40689D01*
X19067Y40672D01*
X19119Y40649D01*
X19172Y40617D01*
X19224Y40574D01*
X19231Y40567D01*
X19244Y40551D01*
X19267Y40521D01*
X19293Y40479D01*
X19319Y40426D01*
X19346Y40361D01*
X19368Y40285D01*
X19382Y40200D01*
X20051Y40311D01*
Y40315D01*
X20048Y40328D01*
X20044Y40344D01*
X20038Y40367D01*
X20031Y40397D01*
X20021Y40433D01*
X20011Y40469D01*
X19998Y40508D01*
X19969Y40597D01*
X19933Y40689D01*
X19890Y40777D01*
X19867Y40820D01*
X19841Y40859D01*
X19838Y40863D01*
X19834Y40869D01*
X19824Y40879D01*
X19815Y40892D01*
X19782Y40931D01*
X19739Y40977D01*
X19683Y41030D01*
X19618Y41082D01*
X19539Y41135D01*
X19451Y41184D01*
X19447D01*
X19437Y41190D01*
X19424Y41194D01*
X19405Y41204D01*
X19382Y41210D01*
X19355Y41220D01*
X19323Y41233D01*
X19286Y41243D01*
X19244Y41253D01*
X19201Y41266D01*
X19106Y41282D01*
X19001Y41295D01*
X18886Y41302D01*
D02*
G37*
G36*
X29612Y41286D02*
X27992D01*
X27949Y41282D01*
X27851D01*
X27742Y41276D01*
X27631Y41269D01*
X27578Y41266D01*
X27526Y41259D01*
X27477Y41253D01*
X27434Y41246D01*
X27431D01*
X27424Y41243D01*
X27411D01*
X27398Y41240D01*
X27378Y41233D01*
X27355Y41230D01*
X27300Y41213D01*
X27240Y41190D01*
X27172Y41164D01*
X27103Y41131D01*
X27037Y41089D01*
X27034D01*
X27031Y41082D01*
X27021Y41076D01*
X27008Y41066D01*
X26975Y41040D01*
X26935Y41007D01*
X26890Y40961D01*
X26840Y40905D01*
X26794Y40843D01*
X26748Y40774D01*
Y40771D01*
X26742Y40764D01*
X26739Y40754D01*
X26729Y40741D01*
X26722Y40721D01*
X26712Y40699D01*
X26699Y40672D01*
X26689Y40646D01*
X26667Y40580D01*
X26650Y40505D01*
X26637Y40423D01*
X26630Y40334D01*
Y40331D01*
Y40321D01*
Y40308D01*
X26634Y40288D01*
Y40266D01*
X26637Y40239D01*
X26644Y40207D01*
X26647Y40174D01*
X26667Y40098D01*
X26693Y40016D01*
X26726Y39931D01*
X26748Y39888D01*
X26775Y39846D01*
Y39842D01*
X26781Y39836D01*
X26788Y39826D01*
X26801Y39810D01*
X26834Y39770D01*
X26876Y39721D01*
X26932Y39665D01*
X26998Y39613D01*
X27073Y39560D01*
X27162Y39514D01*
X27158D01*
X27145Y39511D01*
X27129Y39505D01*
X27106Y39495D01*
X27077Y39485D01*
X27040Y39469D01*
X27004Y39452D01*
X26965Y39432D01*
X26880Y39386D01*
X26791Y39327D01*
X26706Y39255D01*
X26667Y39213D01*
X26630Y39170D01*
X26627Y39167D01*
X26624Y39160D01*
X26614Y39147D01*
X26601Y39127D01*
X26588Y39104D01*
X26571Y39075D01*
X26555Y39045D01*
X26535Y39009D01*
X26519Y38967D01*
X26502Y38924D01*
X26486Y38878D01*
X26473Y38826D01*
X26460Y38773D01*
X26450Y38717D01*
X26447Y38658D01*
X26443Y38599D01*
Y38606D01*
Y37504D01*
Y38573D01*
X26447Y38557D01*
Y38530D01*
X26450Y38504D01*
X26453Y38475D01*
X26460Y38439D01*
X26473Y38363D01*
X26496Y38278D01*
X26526Y38189D01*
X26565Y38097D01*
Y38094D01*
X26571Y38088D01*
X26578Y38074D01*
X26588Y38058D01*
X26598Y38035D01*
X26614Y38012D01*
X26650Y37956D01*
X26699Y37894D01*
X26755Y37832D01*
X26821Y37766D01*
X26893Y37707D01*
X26896D01*
X26903Y37701D01*
X26913Y37694D01*
X26929Y37684D01*
X26949Y37671D01*
X26975Y37661D01*
X27001Y37645D01*
X27034Y37632D01*
X27070Y37615D01*
X27109Y37599D01*
X27195Y37569D01*
X27296Y37546D01*
X27404Y37527D01*
X27414D01*
X27428Y37523D01*
X27470D01*
X27503Y37520D01*
X27542D01*
X27591Y37517D01*
X27647Y37514D01*
X27713D01*
X27788Y37510D01*
X27874D01*
X27969Y37507D01*
X28077D01*
X28195Y37504D01*
X26443D01*
X29612D01*
Y41286D01*
D02*
G37*
G36*
X23022Y41302D02*
X20566D01*
X21773D01*
X21743Y41299D01*
X21704Y41295D01*
X21658Y41289D01*
X21606Y41282D01*
X21546Y41269D01*
X21481Y41253D01*
X21415Y41233D01*
X21343Y41207D01*
X21271Y41174D01*
X21202Y41135D01*
X21130Y41092D01*
X21061Y41040D01*
X20995Y40977D01*
X20936Y40908D01*
X20933Y40902D01*
X20920Y40885D01*
X20904Y40859D01*
X20877Y40820D01*
X20851Y40767D01*
X20818Y40705D01*
X20786Y40630D01*
X20749Y40541D01*
X20717Y40439D01*
X20684Y40328D01*
X20667Y40266D01*
X20651Y40200D01*
X20638Y40134D01*
X20625Y40062D01*
X20612Y39987D01*
X20598Y39908D01*
X20589Y39826D01*
X20582Y39741D01*
X20576Y39652D01*
X20569Y39560D01*
X20566Y39465D01*
Y39295D01*
X20569Y39265D01*
Y39229D01*
X20572Y39193D01*
X20576Y39150D01*
Y39104D01*
X20585Y39003D01*
X20598Y38891D01*
X20612Y38773D01*
X20631Y38649D01*
X20658Y38521D01*
X20687Y38389D01*
X20723Y38265D01*
X20766Y38143D01*
X20815Y38025D01*
X20874Y37920D01*
X20907Y37871D01*
X20940Y37825D01*
X20943Y37822D01*
X20953Y37809D01*
X20972Y37789D01*
X20995Y37766D01*
X21028Y37737D01*
X21064Y37704D01*
X21110Y37668D01*
X21159Y37632D01*
X21218Y37596D01*
X21284Y37560D01*
X21353Y37527D01*
X21428Y37497D01*
X21510Y37474D01*
X21602Y37455D01*
X21694Y37441D01*
X21796Y37438D01*
X21819D01*
X21848Y37441D01*
X21888Y37445D01*
X21934Y37451D01*
X21989Y37461D01*
X22048Y37474D01*
X22114Y37491D01*
X22183Y37514D01*
X22255Y37543D01*
X22327Y37576D01*
X22402Y37615D01*
X22478Y37664D01*
X22550Y37720D01*
X22619Y37786D01*
X22685Y37861D01*
X22688Y37868D01*
X22698Y37881D01*
X22714Y37907D01*
X22737Y37943D01*
X22763Y37993D01*
X22793Y38052D01*
X22822Y38124D01*
X22852Y38209D01*
X22868Y38255D01*
X22885Y38307D01*
X22901Y38360D01*
X22914Y38416D01*
X22931Y38478D01*
X22944Y38540D01*
X22957Y38606D01*
X22970Y38678D01*
X22980Y38753D01*
X22990Y38829D01*
X22999Y38911D01*
X23009Y38996D01*
X23013Y39085D01*
X23019Y39177D01*
X23022Y39272D01*
Y37632D01*
Y41302D01*
D02*
G37*
G36*
X15898Y41286D02*
X15085D01*
X13573Y37504D01*
X14406D01*
X14734Y38363D01*
X16246D01*
X16558Y37504D01*
X15722D01*
X17368D01*
X15898Y41286D01*
D02*
G37*
G36*
X12084D02*
X11270D01*
X9758Y37504D01*
X10591D01*
X10919Y38363D01*
X12431D01*
X12743Y37504D01*
X11908D01*
X13553D01*
X12084Y41286D01*
D02*
G37*
%LPD*%
G36*
X28848Y39783D02*
X28113D01*
X28018Y39787D01*
X27926D01*
X27887Y39790D01*
X27851D01*
X27818Y39793D01*
X27785D01*
X27775Y39797D01*
X27762Y39800D01*
X27729Y39806D01*
X27683Y39819D01*
X27634Y39836D01*
X27585Y39859D01*
X27536Y39892D01*
X27490Y39928D01*
X27483Y39934D01*
X27470Y39947D01*
X27454Y39974D01*
X27431Y40006D01*
X27411Y40049D01*
X27391Y40102D01*
X27378Y40157D01*
X27375Y40223D01*
Y40226D01*
Y40229D01*
Y40239D01*
Y40252D01*
X27382Y40285D01*
X27388Y40325D01*
X27398Y40371D01*
X27418Y40420D01*
X27441Y40466D01*
X27473Y40508D01*
X27477Y40515D01*
X27490Y40525D01*
X27513Y40544D01*
X27546Y40567D01*
X27585Y40590D01*
X27634Y40613D01*
X27693Y40630D01*
X27759Y40643D01*
X27772D01*
X27785Y40646D01*
X27824D01*
X27851Y40649D01*
X27923D01*
X27969Y40653D01*
X28084D01*
X28152Y40656D01*
X28848D01*
Y39783D01*
D02*
G37*
G36*
Y38143D02*
X28005D01*
X27965Y38147D01*
X27923D01*
X27834Y38150D01*
X27746Y38153D01*
X27706Y38157D01*
X27674Y38160D01*
X27641Y38163D01*
X27618Y38166D01*
X27611D01*
X27601Y38170D01*
X27588Y38173D01*
X27559Y38183D01*
X27519Y38196D01*
X27473Y38216D01*
X27428Y38242D01*
X27382Y38275D01*
X27339Y38314D01*
X27336Y38320D01*
X27323Y38337D01*
X27306Y38363D01*
X27283Y38399D01*
X27264Y38445D01*
X27247Y38501D01*
X27234Y38563D01*
X27231Y38635D01*
Y38639D01*
Y38642D01*
Y38652D01*
Y38665D01*
X27234Y38694D01*
X27240Y38737D01*
X27250Y38780D01*
X27267Y38829D01*
X27286Y38878D01*
X27316Y38924D01*
X27319Y38931D01*
X27332Y38944D01*
X27349Y38967D01*
X27375Y38993D01*
X27411Y39019D01*
X27450Y39049D01*
X27500Y39075D01*
X27555Y39098D01*
X27559D01*
X27562Y39101D01*
X27572Y39104D01*
X27588Y39108D01*
X27608Y39111D01*
X27631Y39114D01*
X27660Y39121D01*
X27696Y39127D01*
X27739Y39131D01*
X27788Y39137D01*
X27844Y39140D01*
X27906Y39144D01*
X27975Y39147D01*
X28051Y39150D01*
X28136Y39154D01*
X28848D01*
Y38143D01*
D02*
G37*
G36*
X23022Y39445D02*
X23019Y39475D01*
Y39511D01*
X23016Y39547D01*
X23013Y39590D01*
Y39636D01*
X23003Y39737D01*
X22993Y39849D01*
X22976Y39967D01*
X22957Y40092D01*
X22931Y40220D01*
X22901Y40347D01*
X22865Y40472D01*
X22822Y40597D01*
X22773Y40712D01*
X22717Y40817D01*
X22685Y40866D01*
X22652Y40912D01*
X22648Y40915D01*
X22639Y40928D01*
X22619Y40948D01*
X22596Y40974D01*
X22563Y41004D01*
X22527Y41036D01*
X22481Y41069D01*
X22429Y41109D01*
X22373Y41145D01*
X22307Y41177D01*
X22239Y41210D01*
X22163Y41240D01*
X22078Y41266D01*
X21989Y41286D01*
X21897Y41299D01*
X21796Y41302D01*
X23022D01*
Y39445D01*
D02*
G37*
G36*
X21842Y40699D02*
X21874Y40692D01*
X21911Y40682D01*
X21950Y40666D01*
X21993Y40646D01*
X22032Y40617D01*
X22035Y40613D01*
X22048Y40600D01*
X22068Y40577D01*
X22091Y40548D01*
X22117Y40505D01*
X22143Y40453D01*
X22170Y40390D01*
X22193Y40315D01*
Y40311D01*
X22196Y40302D01*
X22199Y40285D01*
X22202Y40259D01*
X22209Y40229D01*
X22216Y40190D01*
X22222Y40144D01*
X22229Y40092D01*
X22235Y40029D01*
X22242Y39961D01*
X22248Y39882D01*
X22255Y39797D01*
X22258Y39701D01*
X22262Y39600D01*
X22265Y39488D01*
Y39367D01*
Y39364D01*
Y39360D01*
Y39350D01*
Y39337D01*
Y39305D01*
Y39259D01*
X22262Y39206D01*
Y39144D01*
X22258Y39075D01*
X22255Y39003D01*
X22248Y38852D01*
X22242Y38773D01*
X22239Y38701D01*
X22229Y38629D01*
X22222Y38563D01*
X22209Y38504D01*
X22199Y38452D01*
Y38448D01*
X22196Y38442D01*
X22193Y38429D01*
X22186Y38412D01*
X22179Y38393D01*
X22173Y38370D01*
X22153Y38317D01*
X22127Y38261D01*
X22097Y38206D01*
X22065Y38160D01*
X22048Y38137D01*
X22029Y38120D01*
X22025Y38117D01*
X22009Y38107D01*
X21989Y38094D01*
X21960Y38081D01*
X21927Y38065D01*
X21888Y38052D01*
X21845Y38042D01*
X21796Y38038D01*
X21773D01*
X21750Y38042D01*
X21717Y38048D01*
X21681Y38058D01*
X21642Y38074D01*
X21602Y38094D01*
X21563Y38120D01*
X21560Y38124D01*
X21546Y38137D01*
X21527Y38160D01*
X21504Y38189D01*
X21478Y38232D01*
X21448Y38284D01*
X21422Y38347D01*
X21399Y38422D01*
Y38425D01*
X21396Y38435D01*
X21392Y38452D01*
X21386Y38475D01*
X21382Y38507D01*
X21376Y38547D01*
X21369Y38593D01*
X21360Y38645D01*
X21353Y38708D01*
X21346Y38776D01*
X21340Y38852D01*
X21337Y38937D01*
X21330Y39032D01*
X21327Y39134D01*
X21323Y39245D01*
Y39367D01*
Y39370D01*
Y39373D01*
Y39383D01*
Y39396D01*
Y39429D01*
Y39475D01*
X21327Y39527D01*
Y39590D01*
X21330Y39659D01*
X21333Y39731D01*
X21340Y39882D01*
X21346Y39961D01*
X21353Y40033D01*
X21360Y40105D01*
X21369Y40170D01*
X21379Y40229D01*
X21392Y40282D01*
Y40285D01*
X21396Y40292D01*
X21399Y40305D01*
X21405Y40321D01*
X21412Y40341D01*
X21418Y40364D01*
X21438Y40416D01*
X21461Y40472D01*
X21491Y40528D01*
X21527Y40577D01*
X21543Y40600D01*
X21563Y40617D01*
X21566Y40620D01*
X21579Y40630D01*
X21602Y40643D01*
X21628Y40659D01*
X21665Y40676D01*
X21704Y40689D01*
X21746Y40699D01*
X21796Y40702D01*
X21819D01*
X21842Y40699D01*
D02*
G37*
G36*
X16013Y39003D02*
X14980D01*
X15501Y40403D01*
X16013Y39003D01*
D02*
G37*
G36*
X12198D02*
X11165D01*
X11687Y40403D01*
X12198Y39003D01*
D02*
G37*
D11*
X16266Y57955D02*
G03*
X16266Y57955I-1181J0D01*
G01*
X25466D02*
G03*
X25466Y57955I-1181J0D01*
G01*
X19085Y60780D02*
Y62355D01*
X19885Y60780D02*
Y62355D01*
X13679Y60655D02*
X25490D01*
M02*
