G04*
G04 #@! TF.GenerationSoftware,Altium Limited,Altium Designer,20.0.13 (296)*
G04*
G04 Layer_Color=16711935*
%FSLAX25Y25*%
%MOIN*%
G70*
G01*
G75*
%ADD18C,0.19764*%
%ADD23R,0.04016X0.02047*%
G36*
X22033Y84130D02*
X22299D01*
Y84064D01*
X22831D01*
Y84130D01*
X23497D01*
Y84064D01*
X24163D01*
Y83997D01*
X24562D01*
Y83931D01*
X24829D01*
Y83864D01*
X24895D01*
Y83797D01*
X25028D01*
Y83731D01*
X25161D01*
Y83664D01*
X25228D01*
Y83598D01*
X25295D01*
Y83531D01*
X25361D01*
Y83465D01*
X25428D01*
Y83398D01*
X25494D01*
Y83331D01*
X25561D01*
Y83265D01*
Y83198D01*
X25494D01*
Y83132D01*
Y83065D01*
X25561D01*
Y83132D01*
X25627D01*
Y83198D01*
X25694D01*
Y83132D01*
Y83065D01*
X25761D01*
Y82999D01*
Y82932D01*
X25894D01*
Y82865D01*
X25827D01*
Y82799D01*
X25960D01*
Y82732D01*
X26027D01*
Y82666D01*
Y82599D01*
Y82533D01*
X26093D01*
Y82466D01*
X26160D01*
Y82399D01*
Y82333D01*
X26227D01*
Y82266D01*
Y82200D01*
Y82133D01*
X26293D01*
Y82067D01*
Y82000D01*
X26360D01*
Y81933D01*
Y81867D01*
X26426D01*
Y81800D01*
Y81734D01*
X26493D01*
Y81667D01*
X26559D01*
Y81601D01*
Y81534D01*
X26626D01*
Y81467D01*
Y81401D01*
X26693D01*
Y81334D01*
X26759D01*
Y81268D01*
X26693D01*
Y81201D01*
X26759D01*
Y81135D01*
X26826D01*
Y81068D01*
Y81001D01*
Y80935D01*
X26892D01*
Y80868D01*
Y80802D01*
Y80735D01*
X26959D01*
Y80669D01*
Y80602D01*
Y80535D01*
Y80469D01*
Y80402D01*
X27025D01*
Y80336D01*
Y80269D01*
X27891D01*
Y80203D01*
X27824D01*
Y80136D01*
X27691D01*
Y80069D01*
X27425D01*
Y80003D01*
X27824D01*
Y79936D01*
X27758D01*
Y79870D01*
X27691D01*
Y79936D01*
X27625D01*
Y79870D01*
X27558D01*
Y79803D01*
X27092D01*
Y79737D01*
Y79670D01*
Y79603D01*
Y79537D01*
Y79470D01*
Y79404D01*
Y79337D01*
Y79271D01*
Y79204D01*
Y79137D01*
X27025D01*
Y79071D01*
Y79004D01*
Y78938D01*
Y78871D01*
X26959D01*
Y78805D01*
X26892D01*
Y78738D01*
X26959D01*
Y78671D01*
X26892D01*
Y78605D01*
X26826D01*
Y78538D01*
X26759D01*
Y78472D01*
X26826D01*
Y78405D01*
X26759D01*
Y78339D01*
Y78272D01*
X26693D01*
Y78339D01*
X26626D01*
Y78272D01*
X26693D01*
Y78205D01*
Y78139D01*
X26626D01*
Y78072D01*
X26559D01*
Y78006D01*
Y77939D01*
X26493D01*
Y77873D01*
X26360D01*
Y77806D01*
Y77739D01*
X26227D01*
Y77673D01*
X26160D01*
Y77606D01*
X26027D01*
Y77540D01*
X25827D01*
Y77473D01*
X25494D01*
Y77540D01*
X25295D01*
Y77606D01*
X25161D01*
Y77673D01*
X25095D01*
Y77739D01*
X25028D01*
Y77806D01*
X24962D01*
Y77873D01*
Y77939D01*
Y78006D01*
X24895D01*
Y78072D01*
Y78139D01*
X24829D01*
Y78205D01*
Y78272D01*
Y78339D01*
Y78405D01*
X24895D01*
Y78472D01*
X24962D01*
Y78538D01*
X24895D01*
Y78605D01*
X24962D01*
Y78671D01*
Y78738D01*
X25028D01*
Y78805D01*
X25095D01*
Y78871D01*
X25161D01*
Y78938D01*
X25361D01*
Y78871D01*
X25428D01*
Y78805D01*
Y78738D01*
X25361D01*
Y78671D01*
X25428D01*
Y78605D01*
Y78538D01*
X25361D01*
Y78472D01*
X25295D01*
Y78405D01*
Y78339D01*
Y78272D01*
X25361D01*
Y78205D01*
X25494D01*
Y78139D01*
X25694D01*
Y78205D01*
X25827D01*
Y78272D01*
X25894D01*
Y78339D01*
X25960D01*
Y78405D01*
Y78472D01*
Y78538D01*
X26027D01*
Y78605D01*
X26093D01*
Y78671D01*
X26027D01*
Y78738D01*
X26093D01*
Y78805D01*
Y78871D01*
Y78938D01*
Y79004D01*
Y79071D01*
Y79137D01*
Y79204D01*
Y79271D01*
Y79337D01*
Y79404D01*
Y79470D01*
Y79537D01*
X26160D01*
Y79603D01*
X26093D01*
Y79670D01*
Y79737D01*
X26027D01*
Y79803D01*
Y79870D01*
X25960D01*
Y79936D01*
Y80003D01*
Y80069D01*
X25894D01*
Y80136D01*
Y80203D01*
X25827D01*
Y80269D01*
Y80336D01*
X25761D01*
Y80402D01*
X25361D01*
Y80336D01*
X25161D01*
Y80402D01*
X25095D01*
Y80469D01*
X24962D01*
Y80535D01*
X24895D01*
Y80602D01*
X24762D01*
Y80669D01*
X24296D01*
Y80602D01*
X24229D01*
Y80535D01*
X24096D01*
Y80469D01*
Y80402D01*
X23897D01*
Y80336D01*
Y80269D01*
X23763D01*
Y80203D01*
X23630D01*
Y80269D01*
X23564D01*
Y80203D01*
X23431D01*
Y80269D01*
X23297D01*
Y80336D01*
X23164D01*
Y80402D01*
X23031D01*
Y80469D01*
Y80535D01*
X22965D01*
Y80469D01*
X22898D01*
Y80535D01*
X22831D01*
Y80602D01*
X22765D01*
Y80669D01*
Y80735D01*
X22831D01*
Y80802D01*
X22698D01*
Y80735D01*
Y80669D01*
X22632D01*
Y80735D01*
X22565D01*
Y80802D01*
X22499D01*
Y80868D01*
X22432D01*
Y80935D01*
X22365D01*
Y81001D01*
X22299D01*
Y81068D01*
X22232D01*
Y81135D01*
X22166D01*
Y81201D01*
Y81268D01*
X22099D01*
Y81334D01*
X22033D01*
Y81401D01*
X21966D01*
Y81467D01*
Y81534D01*
X21899D01*
Y81601D01*
X21833D01*
Y81667D01*
Y81734D01*
X21766D01*
Y81667D01*
Y81601D01*
X21833D01*
Y81534D01*
Y81467D01*
X21899D01*
Y81401D01*
Y81334D01*
X21966D01*
Y81268D01*
X22033D01*
Y81201D01*
X22099D01*
Y81135D01*
Y81068D01*
X22166D01*
Y81001D01*
X22232D01*
Y80935D01*
X22299D01*
Y80868D01*
X22365D01*
Y80802D01*
X22432D01*
Y80735D01*
X22565D01*
Y80669D01*
X22632D01*
Y80602D01*
X22698D01*
Y80535D01*
X22765D01*
Y80469D01*
X22898D01*
Y80402D01*
X22965D01*
Y80336D01*
Y80269D01*
X23098D01*
Y80203D01*
Y80136D01*
Y80069D01*
Y80003D01*
Y79936D01*
Y79870D01*
Y79803D01*
Y79737D01*
X23164D01*
Y79670D01*
Y79603D01*
Y79537D01*
Y79470D01*
Y79404D01*
Y79337D01*
Y79271D01*
Y79204D01*
X23231D01*
Y79137D01*
X23297D01*
Y79071D01*
Y79004D01*
Y78938D01*
X23364D01*
Y78871D01*
Y78805D01*
X23431D01*
Y78738D01*
Y78671D01*
Y78605D01*
Y78538D01*
Y78472D01*
X23497D01*
Y78405D01*
Y78339D01*
Y78272D01*
X23564D01*
Y78205D01*
Y78139D01*
X23497D01*
Y78072D01*
X23564D01*
Y78006D01*
X23630D01*
Y77939D01*
Y77873D01*
X23564D01*
Y77806D01*
X23630D01*
Y77739D01*
Y77673D01*
X23697D01*
Y77606D01*
Y77540D01*
Y77473D01*
X23763D01*
Y77407D01*
Y77340D01*
Y77273D01*
Y77207D01*
X23830D01*
Y77140D01*
Y77074D01*
Y77007D01*
X23897D01*
Y76941D01*
X23830D01*
Y76874D01*
X23897D01*
Y76807D01*
X23963D01*
Y76741D01*
Y76674D01*
Y76608D01*
X24030D01*
Y76541D01*
Y76475D01*
Y76408D01*
X24096D01*
Y76341D01*
X24030D01*
Y76275D01*
X24096D01*
Y76208D01*
Y76142D01*
X24163D01*
Y76075D01*
X24096D01*
Y76009D01*
X24163D01*
Y75942D01*
Y75875D01*
Y75809D01*
Y75742D01*
Y75676D01*
X24229D01*
Y75609D01*
Y75543D01*
Y75476D01*
X24296D01*
Y75409D01*
Y75343D01*
X24363D01*
Y75276D01*
Y75210D01*
X24429D01*
Y75143D01*
Y75077D01*
X24496D01*
Y75010D01*
X24562D01*
Y74943D01*
Y74877D01*
X24629D01*
Y74810D01*
X24695D01*
Y74744D01*
X24762D01*
Y74677D01*
Y74611D01*
X24695D01*
Y74544D01*
X24496D01*
Y74477D01*
X23897D01*
Y74411D01*
X23830D01*
Y74477D01*
X23364D01*
Y74544D01*
Y74611D01*
X23297D01*
Y74677D01*
Y74744D01*
Y74810D01*
Y74877D01*
X23364D01*
Y74943D01*
Y75010D01*
X23431D01*
Y75077D01*
X23497D01*
Y75143D01*
Y75210D01*
X23431D01*
Y75276D01*
Y75343D01*
Y75409D01*
X23364D01*
Y75476D01*
Y75543D01*
Y75609D01*
X23297D01*
Y75676D01*
Y75742D01*
Y75809D01*
X23231D01*
Y75875D01*
Y75942D01*
X23164D01*
Y76009D01*
Y76075D01*
X23098D01*
Y76142D01*
Y76208D01*
X23031D01*
Y76275D01*
Y76341D01*
X22965D01*
Y76408D01*
X22898D01*
Y76475D01*
Y76541D01*
X22831D01*
Y76608D01*
X22898D01*
Y76674D01*
X22765D01*
Y76741D01*
Y76807D01*
Y76874D01*
X22632D01*
Y76941D01*
Y77007D01*
X22565D01*
Y77074D01*
Y77140D01*
X22499D01*
Y77207D01*
X22432D01*
Y77273D01*
X22565D01*
Y77340D01*
X22365D01*
Y77407D01*
X22299D01*
Y77473D01*
Y77540D01*
X22232D01*
Y77606D01*
X22166D01*
Y77673D01*
X22099D01*
Y77739D01*
X22033D01*
Y77806D01*
X21966D01*
Y77873D01*
X21899D01*
Y77939D01*
X21833D01*
Y78006D01*
X21766D01*
Y78072D01*
X21700D01*
Y78139D01*
X21633D01*
Y78205D01*
X21567D01*
Y78272D01*
Y78339D01*
X21500D01*
Y78405D01*
X21433D01*
Y78472D01*
Y78538D01*
X21367D01*
Y78605D01*
X21300D01*
Y78671D01*
Y78738D01*
X21234D01*
Y78805D01*
Y78871D01*
X21167D01*
Y78938D01*
Y79004D01*
X21101D01*
Y78938D01*
Y78871D01*
X21167D01*
Y78805D01*
Y78738D01*
X21234D01*
Y78671D01*
Y78605D01*
X21300D01*
Y78538D01*
Y78472D01*
X21367D01*
Y78405D01*
X21433D01*
Y78339D01*
Y78272D01*
X21500D01*
Y78205D01*
X21567D01*
Y78139D01*
Y78072D01*
X21633D01*
Y78006D01*
Y77939D01*
Y77873D01*
Y77806D01*
X21567D01*
Y77739D01*
Y77673D01*
Y77606D01*
X21500D01*
Y77540D01*
Y77473D01*
Y77407D01*
X21433D01*
Y77340D01*
Y77273D01*
X21367D01*
Y77207D01*
Y77140D01*
Y77074D01*
X21300D01*
Y77007D01*
Y76941D01*
Y76874D01*
X21234D01*
Y76807D01*
Y76741D01*
Y76674D01*
Y76608D01*
X21167D01*
Y76541D01*
Y76475D01*
Y76408D01*
Y76341D01*
X21101D01*
Y76275D01*
Y76208D01*
Y76142D01*
X21034D01*
Y76075D01*
Y76009D01*
X20967D01*
Y75942D01*
Y75875D01*
Y75809D01*
X20901D01*
Y75742D01*
Y75676D01*
X20834D01*
Y75609D01*
Y75543D01*
Y75476D01*
Y75409D01*
Y75343D01*
X20768D01*
Y75276D01*
Y75210D01*
X20834D01*
Y75143D01*
Y75077D01*
Y75010D01*
X20901D01*
Y74943D01*
X20967D01*
Y74877D01*
X21034D01*
Y74810D01*
X21101D01*
Y74744D01*
X21167D01*
Y74677D01*
Y74611D01*
X21234D01*
Y74544D01*
Y74477D01*
Y74411D01*
X21101D01*
Y74344D01*
X20235D01*
Y74411D01*
X20035D01*
Y74344D01*
X19703D01*
Y74411D01*
X19636D01*
Y74477D01*
Y74544D01*
Y74611D01*
Y74677D01*
X19703D01*
Y74744D01*
Y74810D01*
X19769D01*
Y74877D01*
X19902D01*
Y74943D01*
Y75010D01*
Y75077D01*
X19969D01*
Y75143D01*
X19902D01*
Y75210D01*
Y75276D01*
Y75343D01*
Y75409D01*
Y75476D01*
Y75543D01*
Y75609D01*
Y75676D01*
Y75742D01*
Y75809D01*
Y75875D01*
X19969D01*
Y75942D01*
Y76009D01*
Y76075D01*
Y76142D01*
Y76208D01*
Y76275D01*
Y76341D01*
Y76408D01*
X20035D01*
Y76475D01*
Y76541D01*
Y76608D01*
Y76674D01*
Y76741D01*
X20102D01*
Y76807D01*
Y76874D01*
Y76941D01*
Y77007D01*
Y77074D01*
Y77140D01*
X20169D01*
Y77207D01*
Y77273D01*
Y77340D01*
Y77407D01*
Y77473D01*
Y77540D01*
Y77606D01*
Y77673D01*
Y77739D01*
Y77806D01*
Y77873D01*
Y77939D01*
X20235D01*
Y78006D01*
X20169D01*
Y78072D01*
Y78139D01*
Y78205D01*
Y78272D01*
Y78339D01*
Y78405D01*
Y78472D01*
Y78538D01*
X20102D01*
Y78605D01*
Y78671D01*
Y78738D01*
X19969D01*
Y78671D01*
X19836D01*
Y78605D01*
X19703D01*
Y78538D01*
X19569D01*
Y78472D01*
X19370D01*
Y78405D01*
X19170D01*
Y78339D01*
X18837D01*
Y78272D01*
X18704D01*
Y78339D01*
X18504D01*
Y78272D01*
X18038D01*
Y78339D01*
X17972D01*
Y78272D01*
X18038D01*
Y78205D01*
X17905D01*
Y78139D01*
Y78072D01*
X17839D01*
Y78006D01*
X17772D01*
Y77939D01*
X17705D01*
Y77873D01*
X17639D01*
Y77806D01*
X17572D01*
Y77739D01*
X17506D01*
Y77673D01*
X17439D01*
Y77606D01*
X17373D01*
Y77540D01*
Y77473D01*
X17306D01*
Y77407D01*
Y77340D01*
Y77273D01*
X17239D01*
Y77207D01*
Y77140D01*
X17173D01*
Y77074D01*
Y77007D01*
Y76941D01*
X17106D01*
Y76874D01*
Y76807D01*
Y76741D01*
Y76674D01*
X17173D01*
Y76608D01*
Y76541D01*
Y76475D01*
Y76408D01*
Y76341D01*
Y76275D01*
Y76208D01*
Y76142D01*
Y76075D01*
Y76009D01*
Y75942D01*
Y75875D01*
Y75809D01*
Y75742D01*
Y75676D01*
Y75609D01*
X17239D01*
Y75543D01*
Y75476D01*
Y75409D01*
X17306D01*
Y75343D01*
Y75276D01*
X17373D01*
Y75210D01*
X17439D01*
Y75143D01*
X17506D01*
Y75077D01*
X17572D01*
Y75010D01*
X17639D01*
Y74943D01*
X17705D01*
Y74877D01*
X17772D01*
Y74810D01*
X17839D01*
Y74744D01*
Y74677D01*
Y74611D01*
X17772D01*
Y74544D01*
X16307D01*
Y74611D01*
X16174D01*
Y74677D01*
Y74744D01*
Y74810D01*
Y74877D01*
Y74943D01*
Y75010D01*
Y75077D01*
Y75143D01*
Y75210D01*
Y75276D01*
Y75343D01*
Y75409D01*
Y75476D01*
Y75543D01*
X16241D01*
Y75609D01*
Y75676D01*
Y75742D01*
Y75809D01*
Y75875D01*
X16307D01*
Y75942D01*
Y76009D01*
Y76075D01*
Y76142D01*
Y76208D01*
Y76275D01*
Y76341D01*
Y76408D01*
Y76475D01*
Y76541D01*
Y76608D01*
Y76674D01*
Y76741D01*
Y76807D01*
Y76874D01*
Y76941D01*
X16241D01*
Y77007D01*
Y77074D01*
Y77140D01*
Y77207D01*
Y77273D01*
Y77340D01*
Y77407D01*
X16174D01*
Y77473D01*
X16108D01*
Y77540D01*
X16041D01*
Y77606D01*
X16108D01*
Y77673D01*
X16174D01*
Y77739D01*
X16241D01*
Y77806D01*
X16307D01*
Y77873D01*
X16374D01*
Y77939D01*
Y78006D01*
X16441D01*
Y78072D01*
X16574D01*
Y78139D01*
Y78205D01*
Y78272D01*
X16507D01*
Y78205D01*
X16441D01*
Y78139D01*
X16374D01*
Y78072D01*
X16307D01*
Y78006D01*
Y77939D01*
X16241D01*
Y77873D01*
X16174D01*
Y77939D01*
X16041D01*
Y77873D01*
X16174D01*
Y77806D01*
X16108D01*
Y77739D01*
X16041D01*
Y77673D01*
X15974D01*
Y77606D01*
Y77540D01*
X15908D01*
Y77473D01*
X15841D01*
Y77407D01*
X15775D01*
Y77340D01*
X15708D01*
Y77273D01*
Y77207D01*
X15642D01*
Y77140D01*
X15575D01*
Y77074D01*
Y77007D01*
X15508D01*
Y76941D01*
Y76874D01*
X15375D01*
Y76807D01*
X15442D01*
Y76741D01*
X15375D01*
Y76674D01*
X15309D01*
Y76608D01*
Y76541D01*
Y76475D01*
X15242D01*
Y76408D01*
Y76341D01*
X15176D01*
Y76275D01*
Y76208D01*
X15109D01*
Y76142D01*
X15176D01*
Y76075D01*
X15109D01*
Y76009D01*
Y75942D01*
Y75875D01*
Y75809D01*
X15043D01*
Y75875D01*
X14976D01*
Y75809D01*
X15043D01*
Y75742D01*
Y75676D01*
Y75609D01*
Y75543D01*
X14976D01*
Y75476D01*
Y75409D01*
Y75343D01*
X14909D01*
Y75276D01*
Y75210D01*
Y75143D01*
X14843D01*
Y75077D01*
X14909D01*
Y75010D01*
Y74943D01*
Y74877D01*
X14976D01*
Y74810D01*
X14909D01*
Y74877D01*
X14843D01*
Y74810D01*
X14909D01*
Y74744D01*
Y74677D01*
Y74611D01*
X14776D01*
Y74544D01*
X14710D01*
Y74611D01*
X14111D01*
Y74677D01*
X14044D01*
Y74744D01*
X13977D01*
Y74810D01*
Y74877D01*
X13911D01*
Y74943D01*
Y75010D01*
Y75077D01*
Y75143D01*
Y75210D01*
Y75276D01*
X13977D01*
Y75343D01*
Y75409D01*
X14044D01*
Y75476D01*
X14111D01*
Y75543D01*
X14177D01*
Y75609D01*
X14244D01*
Y75543D01*
X14310D01*
Y75609D01*
X14244D01*
Y75676D01*
Y75742D01*
Y75809D01*
Y75875D01*
X14310D01*
Y75942D01*
Y76009D01*
Y76075D01*
X14377D01*
Y76142D01*
Y76208D01*
X14443D01*
Y76275D01*
Y76341D01*
X14310D01*
Y76275D01*
X14244D01*
Y76341D01*
Y76408D01*
X14111D01*
Y76475D01*
Y76541D01*
X14177D01*
Y76608D01*
Y76674D01*
Y76741D01*
Y76807D01*
Y76874D01*
X14244D01*
Y76941D01*
Y77007D01*
Y77074D01*
X14310D01*
Y77140D01*
Y77207D01*
Y77273D01*
Y77340D01*
X14377D01*
Y77407D01*
Y77473D01*
Y77540D01*
X14443D01*
Y77606D01*
Y77673D01*
Y77739D01*
X14510D01*
Y77806D01*
Y77873D01*
Y77939D01*
Y78006D01*
X14577D01*
Y77939D01*
X14643D01*
Y77873D01*
Y77806D01*
Y77739D01*
Y77673D01*
X14577D01*
Y77606D01*
Y77540D01*
Y77473D01*
Y77407D01*
X14510D01*
Y77340D01*
Y77273D01*
Y77207D01*
X14443D01*
Y77140D01*
Y77074D01*
Y77007D01*
Y76941D01*
Y76874D01*
Y76807D01*
Y76741D01*
Y76674D01*
Y76608D01*
Y76541D01*
Y76475D01*
X14377D01*
Y76408D01*
X14510D01*
Y76475D01*
Y76541D01*
Y76608D01*
X14577D01*
Y76674D01*
Y76741D01*
Y76807D01*
Y76874D01*
X14643D01*
Y76941D01*
Y77007D01*
Y77074D01*
Y77140D01*
Y77207D01*
X14710D01*
Y77273D01*
Y77340D01*
Y77407D01*
Y77473D01*
Y77540D01*
Y77606D01*
Y77673D01*
Y77739D01*
Y77806D01*
Y77873D01*
Y77939D01*
Y78006D01*
X14643D01*
Y78072D01*
X14577D01*
Y78139D01*
Y78205D01*
Y78272D01*
X14643D01*
Y78339D01*
Y78405D01*
Y78472D01*
Y78538D01*
Y78605D01*
Y78671D01*
Y78738D01*
Y78805D01*
X14710D01*
Y78871D01*
Y78938D01*
Y79004D01*
Y79071D01*
Y79137D01*
Y79204D01*
Y79271D01*
X14776D01*
Y79337D01*
Y79404D01*
Y79470D01*
Y79537D01*
Y79603D01*
Y79670D01*
Y79737D01*
Y79803D01*
Y79870D01*
Y79936D01*
Y80003D01*
Y80069D01*
Y80136D01*
Y80203D01*
Y80269D01*
Y80336D01*
Y80402D01*
Y80469D01*
Y80535D01*
X14843D01*
Y80602D01*
Y80669D01*
Y80735D01*
Y80802D01*
Y80868D01*
X14909D01*
Y80935D01*
Y81001D01*
X14976D01*
Y81068D01*
Y81135D01*
Y81201D01*
X15043D01*
Y81268D01*
X15109D01*
Y81334D01*
Y81401D01*
X15176D01*
Y81467D01*
Y81534D01*
X15309D01*
Y81601D01*
Y81667D01*
Y81734D01*
X15375D01*
Y81800D01*
X15442D01*
Y81867D01*
X15575D01*
Y81933D01*
X15508D01*
Y82000D01*
X15575D01*
Y82067D01*
X15642D01*
Y82133D01*
Y82200D01*
X15708D01*
Y82266D01*
X15775D01*
Y82333D01*
Y82399D01*
X15841D01*
Y82466D01*
X15908D01*
Y82533D01*
X15974D01*
Y82466D01*
X16041D01*
Y82533D01*
X15974D01*
Y82599D01*
Y82666D01*
X16041D01*
Y82732D01*
X16108D01*
Y82799D01*
X16174D01*
Y82865D01*
X16241D01*
Y82932D01*
X16441D01*
Y82999D01*
Y83065D01*
X16507D01*
Y82999D01*
X16574D01*
Y83065D01*
Y83132D01*
X16707D01*
Y83198D01*
X16840D01*
Y83265D01*
X17106D01*
Y83331D01*
X17306D01*
Y83265D01*
X17373D01*
Y83331D01*
X17306D01*
Y83398D01*
X17839D01*
Y83465D01*
X19436D01*
Y83531D01*
X19769D01*
Y83598D01*
X19969D01*
Y83664D01*
X20169D01*
Y83731D01*
X20368D01*
Y83797D01*
X20635D01*
Y83864D01*
X20834D01*
Y83931D01*
X21101D01*
Y83997D01*
X21234D01*
Y84064D01*
X21433D01*
Y84130D01*
X21500D01*
Y84064D01*
X21567D01*
Y84130D01*
X21633D01*
Y84064D01*
X21700D01*
Y84130D01*
X21633D01*
Y84197D01*
X22033D01*
Y84130D01*
D02*
G37*
%LPC*%
G36*
X22365Y83797D02*
X22299D01*
Y83731D01*
X22365D01*
Y83664D01*
X22432D01*
Y83731D01*
X22365D01*
Y83797D01*
D02*
G37*
G36*
Y83664D02*
X22299D01*
Y83598D01*
X22365D01*
Y83664D01*
D02*
G37*
G36*
X22299Y83598D02*
X22232D01*
Y83531D01*
X22299D01*
Y83598D01*
D02*
G37*
G36*
X22166D02*
X21966D01*
Y83531D01*
X22166D01*
Y83598D01*
D02*
G37*
G36*
X21966Y83531D02*
X21766D01*
Y83465D01*
X21633D01*
Y83398D01*
X21500D01*
Y83331D01*
X21433D01*
Y83265D01*
X21367D01*
Y83198D01*
X21300D01*
Y83132D01*
Y83065D01*
Y82999D01*
Y82932D01*
Y82865D01*
Y82799D01*
Y82732D01*
Y82666D01*
Y82599D01*
X21367D01*
Y82533D01*
Y82466D01*
Y82399D01*
Y82333D01*
X21433D01*
Y82266D01*
Y82200D01*
Y82133D01*
X21500D01*
Y82200D01*
Y82266D01*
Y82333D01*
X21433D01*
Y82399D01*
Y82466D01*
Y82533D01*
Y82599D01*
Y82666D01*
X21367D01*
Y82732D01*
Y82799D01*
Y82865D01*
Y82932D01*
Y82999D01*
Y83065D01*
Y83132D01*
X21433D01*
Y83198D01*
X21500D01*
Y83132D01*
X21567D01*
Y83198D01*
X21500D01*
Y83265D01*
X21633D01*
Y83331D01*
X21700D01*
Y83398D01*
X21833D01*
Y83465D01*
X21966D01*
Y83531D01*
D02*
G37*
G36*
X16441Y82865D02*
X16374D01*
Y82799D01*
X16441D01*
Y82865D01*
D02*
G37*
G36*
X24895Y82799D02*
X24829D01*
Y82732D01*
X24895D01*
Y82666D01*
X25095D01*
Y82599D01*
X25161D01*
Y82666D01*
X25228D01*
Y82732D01*
X24895D01*
Y82799D01*
D02*
G37*
G36*
X25161Y82932D02*
X24962D01*
Y82865D01*
X25161D01*
Y82799D01*
X25228D01*
Y82732D01*
X25295D01*
Y82666D01*
Y82599D01*
Y82533D01*
X25361D01*
Y82599D01*
Y82666D01*
Y82732D01*
X25295D01*
Y82799D01*
X25228D01*
Y82865D01*
X25161D01*
Y82932D01*
D02*
G37*
G36*
X21234Y82666D02*
X21167D01*
Y82599D01*
Y82533D01*
X21300D01*
Y82599D01*
X21234D01*
Y82666D01*
D02*
G37*
G36*
X21567Y82067D02*
X21500D01*
Y82000D01*
X21567D01*
Y82067D01*
D02*
G37*
G36*
X21766Y81867D02*
X21700D01*
Y81800D01*
X21766D01*
Y81867D01*
D02*
G37*
G36*
X24629Y81800D02*
X24562D01*
Y81734D01*
X24629D01*
Y81800D01*
D02*
G37*
G36*
X24695Y81601D02*
X24629D01*
Y81534D01*
Y81467D01*
Y81401D01*
X24695D01*
Y81467D01*
Y81534D01*
Y81601D01*
D02*
G37*
G36*
X24496Y81135D02*
X24429D01*
Y81068D01*
X24496D01*
Y81135D01*
D02*
G37*
G36*
X24629Y81268D02*
X24562D01*
Y81201D01*
Y81135D01*
Y81068D01*
X24629D01*
Y81001D01*
X24695D01*
Y81068D01*
X24629D01*
Y81135D01*
Y81201D01*
Y81268D01*
D02*
G37*
G36*
X24562Y81001D02*
X24496D01*
Y80935D01*
Y80868D01*
X24562D01*
Y80935D01*
Y81001D01*
D02*
G37*
G36*
X24496Y80868D02*
X24429D01*
Y80802D01*
Y80735D01*
X24496D01*
Y80802D01*
Y80868D01*
D02*
G37*
G36*
X25228Y80469D02*
X25161D01*
Y80402D01*
X25228D01*
Y80469D01*
D02*
G37*
G36*
X22765D02*
X22698D01*
Y80402D01*
X22765D01*
Y80469D01*
D02*
G37*
G36*
X23830Y80402D02*
X23763D01*
Y80336D01*
X23830D01*
Y80402D01*
D02*
G37*
G36*
X16973Y79537D02*
X16906D01*
Y79470D01*
X16973D01*
Y79537D01*
D02*
G37*
G36*
X21034Y79337D02*
X20967D01*
Y79271D01*
X21034D01*
Y79337D01*
D02*
G37*
G36*
X21101Y79137D02*
X21034D01*
Y79071D01*
X21101D01*
Y79137D01*
D02*
G37*
G36*
X16973Y79271D02*
X16906D01*
Y79204D01*
Y79137D01*
Y79071D01*
X16973D01*
Y79137D01*
Y79204D01*
Y79271D01*
D02*
G37*
G36*
X25361Y78871D02*
X25228D01*
Y78805D01*
X25361D01*
Y78871D01*
D02*
G37*
G36*
X16840Y79071D02*
X16773D01*
Y79004D01*
X16840D01*
Y78938D01*
Y78871D01*
Y78805D01*
X16906D01*
Y78871D01*
Y78938D01*
Y79004D01*
X16840D01*
Y79071D01*
D02*
G37*
G36*
X25361Y78671D02*
X25295D01*
Y78605D01*
X25361D01*
Y78671D01*
D02*
G37*
G36*
X23431Y78472D02*
X23364D01*
Y78405D01*
X23431D01*
Y78472D01*
D02*
G37*
G36*
X16840Y78805D02*
X16773D01*
Y78738D01*
Y78671D01*
X16707D01*
Y78605D01*
Y78538D01*
X16640D01*
Y78472D01*
Y78405D01*
X16574D01*
Y78339D01*
Y78272D01*
X16640D01*
Y78339D01*
X16707D01*
Y78405D01*
Y78472D01*
X16773D01*
Y78538D01*
Y78605D01*
X16840D01*
Y78671D01*
Y78738D01*
Y78805D01*
D02*
G37*
G36*
X25295Y78272D02*
X25228D01*
Y78205D01*
X25295D01*
Y78272D01*
D02*
G37*
G36*
X22965Y76741D02*
X22898D01*
Y76674D01*
X22965D01*
Y76741D01*
D02*
G37*
G36*
X23963Y76608D02*
X23897D01*
Y76541D01*
X23963D01*
Y76608D01*
D02*
G37*
G36*
X15176Y76475D02*
X15109D01*
Y76408D01*
X15176D01*
Y76475D01*
D02*
G37*
G36*
X14577Y76341D02*
X14510D01*
Y76275D01*
X14577D01*
Y76341D01*
D02*
G37*
G36*
X14909Y75476D02*
X14843D01*
Y75409D01*
X14909D01*
Y75476D01*
D02*
G37*
G36*
X14377Y74744D02*
X14310D01*
Y74677D01*
X14377D01*
Y74744D01*
D02*
G37*
%LPD*%
D18*
X19685Y19685D02*
D03*
Y98425D02*
D03*
D23*
X7874Y66339D02*
D03*
Y51772D02*
D03*
X31496Y66339D02*
D03*
Y51772D02*
D03*
M02*
