G04*
G04 #@! TF.GenerationSoftware,Altium Limited,Altium Designer,23.3.1 (30)*
G04*
G04 Layer_Color=16711935*
%FSLAX44Y44*%
%MOMM*%
G71*
G04*
G04 #@! TF.SameCoordinates,DCB42576-95BD-42AD-BAF6-B7D1C35FFA17*
G04*
G04*
G04 #@! TF.FilePolarity,Negative*
G04*
G01*
G75*
%ADD62R,124.0000X1.0000*%
%ADD64R,1.0000X70.0000*%
%ADD65R,39.0000X1.0000*%
%ADD66R,38.9999X1.0000*%
%ADD68R,1.0000X42.0000*%
%ADD69R,0.5400X0.4900*%
%ADD70R,0.4900X0.5400*%
%ADD75R,0.8200X0.5200*%
%ADD80R,0.8200X0.6200*%
%ADD88R,0.7700X1.5200*%
%ADD89R,2.0200X3.0200*%
%ADD114C,0.7500*%
%ADD115O,2.1200X1.1200*%
%ADD116O,2.6200X1.1200*%
%ADD117O,1.1200X2.1200*%
%ADD118O,1.1200X2.6200*%
%ADD119C,5.0200*%
%ADD120C,1.5200*%
%ADD121C,3.0200*%
%ADD122C,0.8200*%
%ADD123C,2.5200*%
%ADD146R,1.0000X70.0000*%
%ADD147R,34.2020X1.0000*%
%ADD148R,1.0000X42.2020*%
%ADD149R,0.7200X0.2700*%
%ADD150R,1.6200X2.5200*%
%ADD151R,1.0200X2.3200*%
%ADD152R,1.5200X2.9700*%
%ADD153R,0.8200X0.3200*%
%ADD154R,0.3200X0.8200*%
G36*
X-230000Y445000D02*
X-227711Y444925D01*
X-223172Y444328D01*
X-218750Y443143D01*
X-214520Y441390D01*
X-210555Y439101D01*
X-206923Y436314D01*
X-203686Y433077D01*
X-200899Y429445D01*
X-198610Y425480D01*
X-196857Y421250D01*
X-195672Y416828D01*
X-195075Y412289D01*
X-195000Y410000D01*
D01*
X-185000D01*
Y412949D01*
X-185770Y418798D01*
X-187297Y424496D01*
X-189554Y429946D01*
X-192504Y435054D01*
X-196095Y439734D01*
X-200266Y443905D01*
X-204946Y447496D01*
X-210054Y450446D01*
X-215504Y452703D01*
X-221202Y454230D01*
X-227050Y455000D01*
X-230000D01*
D01*
Y445000D01*
D02*
G37*
G36*
X195002Y410000D02*
X195076Y412289D01*
X195674Y416828D01*
X196859Y421250D01*
X198611Y425480D01*
X200900Y429445D01*
X203687Y433077D01*
X206924Y436314D01*
X210557Y439101D01*
X214521Y441391D01*
X218751Y443143D01*
X223173Y444328D01*
X227712Y444925D01*
X230002Y445000D01*
D01*
Y455000D01*
X227052D01*
X221203Y454230D01*
X215506Y452703D01*
X210056Y450446D01*
X204947Y447496D01*
X200267Y443905D01*
X196096Y439734D01*
X192505Y435054D01*
X189556Y429946D01*
X187298Y424496D01*
X185771Y418798D01*
X185002Y412949D01*
Y410000D01*
D01*
X195002D01*
D02*
G37*
D62*
X0Y1190000D02*
D03*
D64*
X-640000Y820000D02*
D03*
D65*
X-425000Y450000D02*
D03*
D66*
X425001D02*
D03*
D68*
X-190000Y200000D02*
D03*
D69*
X-137500Y1155700D02*
D03*
Y1164300D02*
D03*
X-127500Y1155700D02*
D03*
Y1164300D02*
D03*
X-112500Y1155700D02*
D03*
Y1164300D02*
D03*
X-102500Y1155700D02*
D03*
Y1164300D02*
D03*
X411100Y735700D02*
D03*
Y744300D02*
D03*
X423800Y735700D02*
D03*
Y744300D02*
D03*
X436500Y735700D02*
D03*
Y744300D02*
D03*
X461900Y735700D02*
D03*
Y744300D02*
D03*
X474600Y735700D02*
D03*
Y744300D02*
D03*
D70*
X-75700Y1068750D02*
D03*
X-84300D02*
D03*
X-75700Y1080000D02*
D03*
X-84300D02*
D03*
Y1091250D02*
D03*
X-75700D02*
D03*
X-25700Y-2500D02*
D03*
X-34300D02*
D03*
X34300D02*
D03*
X25700D02*
D03*
X34300Y7500D02*
D03*
X25700D02*
D03*
X195700Y630000D02*
D03*
X204300D02*
D03*
Y590000D02*
D03*
X195700D02*
D03*
Y570000D02*
D03*
X204300D02*
D03*
X-4300Y630000D02*
D03*
X4300D02*
D03*
Y590000D02*
D03*
X-4300D02*
D03*
Y570000D02*
D03*
X4300D02*
D03*
X-204300Y630000D02*
D03*
X-195700D02*
D03*
Y590000D02*
D03*
X-204300D02*
D03*
Y570000D02*
D03*
X-195700D02*
D03*
X-125700Y109500D02*
D03*
X-134300D02*
D03*
X-65700Y90500D02*
D03*
X-74300D02*
D03*
X-65700Y109500D02*
D03*
X-74300D02*
D03*
X65700Y118750D02*
D03*
X74300D02*
D03*
X65700Y106250D02*
D03*
X74300D02*
D03*
X125700Y81250D02*
D03*
X134300D02*
D03*
X125700Y106250D02*
D03*
X134300D02*
D03*
D75*
X90000Y81250D02*
D03*
Y93750D02*
D03*
Y106250D02*
D03*
Y118750D02*
D03*
X110000Y81250D02*
D03*
Y93750D02*
D03*
Y106250D02*
D03*
Y118750D02*
D03*
D80*
X-87000Y109500D02*
D03*
Y100000D02*
D03*
Y90500D02*
D03*
X-113000D02*
D03*
Y109500D02*
D03*
D88*
X-101396Y960000D02*
D03*
X-88896D02*
D03*
X-113896D02*
D03*
X-138896D02*
D03*
X-126396D02*
D03*
X-151396D02*
D03*
D89*
X-63396Y931000D02*
D03*
X-176896D02*
D03*
D114*
X640000Y1070000D02*
D03*
Y1080000D02*
D03*
Y1120000D02*
D03*
Y1110000D02*
D03*
Y1100000D02*
D03*
Y1090000D02*
D03*
Y1130000D02*
D03*
Y1140000D02*
D03*
Y1150000D02*
D03*
X-599999Y1190000D02*
D03*
X-589999D02*
D03*
X-549999D02*
D03*
X-559999D02*
D03*
X-569999D02*
D03*
X-579999D02*
D03*
X-439999D02*
D03*
X-449999D02*
D03*
X-489999D02*
D03*
X-479999D02*
D03*
X-469999D02*
D03*
X-459999D02*
D03*
X-499999D02*
D03*
X-509999D02*
D03*
X-519999D02*
D03*
X-529999D02*
D03*
X-539999D02*
D03*
X-429999D02*
D03*
X-419999D02*
D03*
X-379999D02*
D03*
X-389999D02*
D03*
X-399999D02*
D03*
X-409999D02*
D03*
X-319999D02*
D03*
X-309999D02*
D03*
X-329999D02*
D03*
X-339999D02*
D03*
X-349999D02*
D03*
X-359999D02*
D03*
X-369999D02*
D03*
X-210000D02*
D03*
X-180000D02*
D03*
X-190000D02*
D03*
X-200000D02*
D03*
X-40000D02*
D03*
X-50000D02*
D03*
X-60000D02*
D03*
X70000D02*
D03*
X60000D02*
D03*
X20000D02*
D03*
X30000D02*
D03*
X40000D02*
D03*
X50000D02*
D03*
X10000D02*
D03*
X0D02*
D03*
X-10000D02*
D03*
X-20000D02*
D03*
X-30000D02*
D03*
X80000D02*
D03*
X90000D02*
D03*
X130000D02*
D03*
X120000D02*
D03*
X110000D02*
D03*
X100000D02*
D03*
X240000D02*
D03*
X230000D02*
D03*
X190000D02*
D03*
X200000D02*
D03*
X210000D02*
D03*
X220000D02*
D03*
X180000D02*
D03*
X170000D02*
D03*
X160000D02*
D03*
X150000D02*
D03*
X140000D02*
D03*
X250000D02*
D03*
X260000D02*
D03*
X299999D02*
D03*
X289999D02*
D03*
X279999D02*
D03*
X270000D02*
D03*
X409999D02*
D03*
X399999D02*
D03*
X359999D02*
D03*
X369999D02*
D03*
X379999D02*
D03*
X389999D02*
D03*
X349999D02*
D03*
X339999D02*
D03*
X329999D02*
D03*
X319999D02*
D03*
X309999D02*
D03*
X479999D02*
D03*
X489999D02*
D03*
X499999D02*
D03*
X589999D02*
D03*
X599999D02*
D03*
X509999D02*
D03*
X519999D02*
D03*
X559999D02*
D03*
X549999D02*
D03*
X539999D02*
D03*
X529999D02*
D03*
X569999D02*
D03*
X579999D02*
D03*
X439999D02*
D03*
X449999D02*
D03*
X459999D02*
D03*
X469999D02*
D03*
X429999D02*
D03*
X419999D02*
D03*
X-640000Y1149999D02*
D03*
Y1139999D02*
D03*
Y1129999D02*
D03*
X-190000Y389999D02*
D03*
X640000Y1060000D02*
D03*
Y1050000D02*
D03*
Y1040000D02*
D03*
Y1030000D02*
D03*
Y1020000D02*
D03*
Y980000D02*
D03*
Y990000D02*
D03*
Y1000000D02*
D03*
Y1010000D02*
D03*
Y970000D02*
D03*
Y960000D02*
D03*
Y950000D02*
D03*
Y940000D02*
D03*
Y930000D02*
D03*
Y890000D02*
D03*
Y900000D02*
D03*
Y910000D02*
D03*
Y920000D02*
D03*
Y880000D02*
D03*
Y870000D02*
D03*
Y860001D02*
D03*
Y850001D02*
D03*
Y840001D02*
D03*
Y800001D02*
D03*
Y830001D02*
D03*
Y790001D02*
D03*
Y780001D02*
D03*
Y770001D02*
D03*
Y760001D02*
D03*
Y750001D02*
D03*
Y710001D02*
D03*
Y720001D02*
D03*
Y700001D02*
D03*
Y690001D02*
D03*
Y680001D02*
D03*
Y670001D02*
D03*
Y660001D02*
D03*
Y620001D02*
D03*
Y630001D02*
D03*
Y640001D02*
D03*
Y650001D02*
D03*
Y510001D02*
D03*
Y520001D02*
D03*
Y560001D02*
D03*
Y550001D02*
D03*
Y540001D02*
D03*
Y530001D02*
D03*
Y570001D02*
D03*
Y580001D02*
D03*
Y490001D02*
D03*
Y500001D02*
D03*
Y590001D02*
D03*
Y600001D02*
D03*
Y610001D02*
D03*
X-640000Y999999D02*
D03*
Y1009999D02*
D03*
Y989999D02*
D03*
Y959999D02*
D03*
Y969999D02*
D03*
Y979999D02*
D03*
Y1019999D02*
D03*
Y1029999D02*
D03*
Y910000D02*
D03*
Y920000D02*
D03*
Y900000D02*
D03*
Y870000D02*
D03*
Y880000D02*
D03*
Y890000D02*
D03*
Y930000D02*
D03*
Y940000D02*
D03*
Y949999D02*
D03*
Y820000D02*
D03*
Y830000D02*
D03*
Y810000D02*
D03*
Y780000D02*
D03*
Y790000D02*
D03*
Y800000D02*
D03*
Y840000D02*
D03*
Y850000D02*
D03*
Y860000D02*
D03*
Y730000D02*
D03*
Y740000D02*
D03*
Y720000D02*
D03*
Y690000D02*
D03*
Y700000D02*
D03*
Y710000D02*
D03*
Y750000D02*
D03*
Y760000D02*
D03*
Y770000D02*
D03*
Y640000D02*
D03*
Y650000D02*
D03*
Y630000D02*
D03*
Y600000D02*
D03*
Y610000D02*
D03*
Y620000D02*
D03*
Y660000D02*
D03*
Y670000D02*
D03*
Y680000D02*
D03*
Y590000D02*
D03*
Y580000D02*
D03*
Y570000D02*
D03*
Y530000D02*
D03*
Y520000D02*
D03*
Y490000D02*
D03*
Y500000D02*
D03*
Y510000D02*
D03*
Y540000D02*
D03*
Y560000D02*
D03*
Y550000D02*
D03*
X-129999Y-30000D02*
D03*
X-119999D02*
D03*
X-79999D02*
D03*
X-89999D02*
D03*
X-99999D02*
D03*
X-109999D02*
D03*
X-69999D02*
D03*
X-59999D02*
D03*
X-149999D02*
D03*
X-139999D02*
D03*
X40001D02*
D03*
X30001D02*
D03*
X20001D02*
D03*
X10001D02*
D03*
X1D02*
D03*
X50001D02*
D03*
X60001D02*
D03*
X-49999D02*
D03*
X-39999D02*
D03*
X-29999D02*
D03*
X-19999D02*
D03*
X-9999D02*
D03*
X70001D02*
D03*
X80001D02*
D03*
X90001D02*
D03*
X100001D02*
D03*
X110001D02*
D03*
X150001D02*
D03*
X140001D02*
D03*
X130001D02*
D03*
X120001D02*
D03*
X-190000Y9999D02*
D03*
Y19999D02*
D03*
Y29999D02*
D03*
Y39999D02*
D03*
Y49999D02*
D03*
Y129999D02*
D03*
Y139999D02*
D03*
Y149999D02*
D03*
Y159999D02*
D03*
Y169999D02*
D03*
Y59999D02*
D03*
Y69999D02*
D03*
Y119999D02*
D03*
Y109999D02*
D03*
Y99999D02*
D03*
Y89999D02*
D03*
Y79999D02*
D03*
Y259999D02*
D03*
Y269999D02*
D03*
Y179999D02*
D03*
Y229999D02*
D03*
Y219999D02*
D03*
Y239999D02*
D03*
Y249999D02*
D03*
X-300000Y450000D02*
D03*
X-290000D02*
D03*
X-280000D02*
D03*
X-270000D02*
D03*
X-240000D02*
D03*
X-250000D02*
D03*
X-260000D02*
D03*
X-190000Y309999D02*
D03*
Y299999D02*
D03*
Y289999D02*
D03*
Y279999D02*
D03*
Y319999D02*
D03*
Y329999D02*
D03*
Y339999D02*
D03*
Y349999D02*
D03*
Y359999D02*
D03*
Y369999D02*
D03*
Y399999D02*
D03*
Y379999D02*
D03*
X190000Y280001D02*
D03*
Y290001D02*
D03*
Y300001D02*
D03*
Y310001D02*
D03*
Y270001D02*
D03*
Y260001D02*
D03*
Y250001D02*
D03*
Y240001D02*
D03*
Y230001D02*
D03*
Y150001D02*
D03*
Y140001D02*
D03*
Y130001D02*
D03*
Y120001D02*
D03*
Y110001D02*
D03*
Y220001D02*
D03*
Y160001D02*
D03*
Y170001D02*
D03*
Y180001D02*
D03*
Y20001D02*
D03*
Y10001D02*
D03*
Y100001D02*
D03*
Y90001D02*
D03*
Y50001D02*
D03*
Y60001D02*
D03*
Y70001D02*
D03*
Y80001D02*
D03*
Y40001D02*
D03*
Y30001D02*
D03*
X300001Y450000D02*
D03*
X250001D02*
D03*
X260001D02*
D03*
X290001D02*
D03*
X280001D02*
D03*
X270001D02*
D03*
X240002D02*
D03*
X190000Y360000D02*
D03*
Y350000D02*
D03*
Y320001D02*
D03*
Y330001D02*
D03*
Y340000D02*
D03*
Y380000D02*
D03*
Y370000D02*
D03*
Y390000D02*
D03*
Y400000D02*
D03*
X-194310Y427990D02*
D03*
X-203200Y439420D02*
D03*
X-215900Y447040D02*
D03*
X-230124Y449710D02*
D03*
X-190500Y415290D02*
D03*
X224711Y449500D02*
D03*
X192962Y424100D02*
D03*
X200581Y436800D02*
D03*
X212012Y445690D02*
D03*
X190000Y410000D02*
D03*
D115*
X576400Y818200D02*
D03*
Y731800D02*
D03*
D116*
X630000D02*
D03*
Y818200D02*
D03*
D117*
X-163200Y1126400D02*
D03*
X-76800D02*
D03*
D118*
Y1180000D02*
D03*
X-163200D02*
D03*
D119*
X620000Y1170000D02*
D03*
X-620000D02*
D03*
X620000Y470000D02*
D03*
X-620000D02*
D03*
X-170000Y200000D02*
D03*
X170000D02*
D03*
X-170000Y-10000D02*
D03*
X170000D02*
D03*
D120*
X-170000Y880000D02*
D03*
X-140000D02*
D03*
X-80000D02*
D03*
X-110000D02*
D03*
X172982Y1030000D02*
D03*
X260000Y1100000D02*
D03*
X520000Y940000D02*
D03*
X460000Y1020000D02*
D03*
X520000Y910000D02*
D03*
Y880000D02*
D03*
X410000Y1040000D02*
D03*
Y1000000D02*
D03*
X520000Y1020000D02*
D03*
X20000Y1040000D02*
D03*
X50000D02*
D03*
X250000Y850000D02*
D03*
Y800000D02*
D03*
X70000Y980000D02*
D03*
X120000D02*
D03*
X-260000Y970000D02*
D03*
X-230000Y1050000D02*
D03*
X-356800Y970000D02*
D03*
X-500000Y1000000D02*
D03*
X227500Y610000D02*
D03*
Y590000D02*
D03*
Y570000D02*
D03*
Y630000D02*
D03*
X27500Y610000D02*
D03*
Y590000D02*
D03*
Y570000D02*
D03*
Y630000D02*
D03*
X-172500Y610000D02*
D03*
Y590000D02*
D03*
Y570000D02*
D03*
Y630000D02*
D03*
D121*
X259500Y489000D02*
D03*
Y711000D02*
D03*
X140500D02*
D03*
X155500Y489000D02*
D03*
X200000Y480000D02*
D03*
Y720000D02*
D03*
X59500Y489000D02*
D03*
Y711000D02*
D03*
X-59500D02*
D03*
X-44500Y489000D02*
D03*
X0Y480000D02*
D03*
Y720000D02*
D03*
X-140500Y489000D02*
D03*
Y711000D02*
D03*
X-259500D02*
D03*
X-244500Y489000D02*
D03*
X-200000Y480000D02*
D03*
Y720000D02*
D03*
D122*
X170000Y713000D02*
D03*
X230000Y487000D02*
D03*
X-30000Y713000D02*
D03*
X30000Y487000D02*
D03*
X-230000Y713000D02*
D03*
X-170000Y487000D02*
D03*
D123*
X-565000Y870000D02*
D03*
X-488800Y895400D02*
D03*
Y844600D02*
D03*
X-11200D02*
D03*
Y895400D02*
D03*
X65000Y870000D02*
D03*
D146*
X640000Y820000D02*
D03*
D147*
X-1010Y-30000D02*
D03*
D148*
X190000Y198990D02*
D03*
D149*
X-105650Y1091250D02*
D03*
Y1086750D02*
D03*
Y1082250D02*
D03*
Y1077750D02*
D03*
Y1073250D02*
D03*
Y1068750D02*
D03*
X-134350D02*
D03*
Y1073250D02*
D03*
Y1077750D02*
D03*
Y1082250D02*
D03*
Y1086750D02*
D03*
Y1091250D02*
D03*
D150*
X-120000Y1080000D02*
D03*
D151*
X411100Y700000D02*
D03*
X423800D02*
D03*
X436500D02*
D03*
X449200D02*
D03*
X461900D02*
D03*
X474600D02*
D03*
X487300D02*
D03*
X500000D02*
D03*
D152*
X543000Y493000D02*
D03*
X338200D02*
D03*
D153*
X9500Y7500D02*
D03*
Y2500D02*
D03*
Y-2500D02*
D03*
Y-7500D02*
D03*
X-9500Y7500D02*
D03*
Y2500D02*
D03*
Y-2500D02*
D03*
Y-7500D02*
D03*
D154*
X0Y9500D02*
D03*
Y-9500D02*
D03*
M02*
