G04*
G04 #@! TF.GenerationSoftware,Altium Limited,Altium Designer,23.3.1 (30)*
G04*
G04 Layer_Color=32896*
%FSLAX44Y44*%
%MOMM*%
G71*
G04*
G04 #@! TF.SameCoordinates,DCB42576-95BD-42AD-BAF6-B7D1C35FFA17*
G04*
G04*
G04 #@! TF.FilePolarity,Positive*
G04*
G01*
G75*
%ADD11C,0.1000*%
%ADD14C,0.0500*%
%ADD155C,0.0200*%
%ADD156C,0.0100*%
D11*
X135000Y920000D02*
Y1070000D01*
Y920000D02*
X245000D01*
Y1070000D01*
X135000D02*
X245000D01*
D14*
X457000Y970000D02*
X463000D01*
X460000Y967000D02*
Y973000D01*
X319030Y1110970D02*
X600970D01*
Y829030D02*
Y1110970D01*
X319030Y829030D02*
X600970D01*
X266920Y1118500D02*
X313080D01*
X266920D02*
Y1141500D01*
X313080D01*
Y1118500D02*
Y1141500D01*
X316920Y1141500D02*
X363080D01*
Y1118500D02*
Y1141500D01*
X316920Y1118500D02*
X363080D01*
X316920D02*
Y1141500D01*
X101028Y774242D02*
Y965758D01*
X-602298D02*
X101028D01*
X-602298Y774242D02*
Y965758D01*
Y774242D02*
X101028D01*
X-250000Y867000D02*
Y873000D01*
X-253000Y870000D02*
X-247000D01*
D155*
X-498750Y596500D02*
X-491250D01*
Y581500D02*
Y596500D01*
X-498750Y581500D02*
Y596500D01*
X-495000Y586500D02*
Y591500D01*
X-497500Y589000D02*
X-492500D01*
X-498750Y581500D02*
X-491250D01*
X627500Y946250D02*
Y953750D01*
X612500Y946250D02*
X627500D01*
X612500Y953750D02*
X627500D01*
X617500Y950000D02*
X622500D01*
X620000Y947500D02*
Y952500D01*
X612500Y946250D02*
Y953750D01*
X627500Y906250D02*
Y913750D01*
X612500Y906250D02*
X627500D01*
X612500Y913750D02*
X627500D01*
X617500Y910000D02*
X622500D01*
X620000Y907500D02*
Y912500D01*
X612500Y906250D02*
Y913750D01*
X627500Y1076250D02*
Y1083750D01*
X612500Y1076250D02*
X627500D01*
X612500Y1083750D02*
X627500D01*
X617500Y1080000D02*
X622500D01*
X620000Y1077500D02*
Y1082500D01*
X612500Y1076250D02*
Y1083750D01*
Y1096250D02*
Y1103750D01*
X627500D01*
X612500Y1096250D02*
X627500D01*
X617500Y1100000D02*
X622500D01*
X620000Y1097500D02*
Y1102500D01*
X627500Y1096250D02*
Y1103750D01*
X612500Y966250D02*
Y973750D01*
X627500D01*
X612500Y966250D02*
X627500D01*
X617500Y970000D02*
X622500D01*
X620000Y967500D02*
Y972500D01*
X627500Y966250D02*
Y973750D01*
Y1036250D02*
Y1043750D01*
X612500Y1036250D02*
X627500D01*
X612500Y1043750D02*
X627500D01*
X617500Y1040000D02*
X622500D01*
X620000Y1037500D02*
Y1042500D01*
X612500Y1036250D02*
Y1043750D01*
X186000Y782500D02*
X193500D01*
X187250Y775000D02*
X192250D01*
X189750Y772500D02*
Y777500D01*
X193500Y767500D02*
Y782500D01*
X186000Y767500D02*
Y782500D01*
Y767500D02*
X193500D01*
X199000Y782500D02*
X206500D01*
X200250Y775000D02*
X205250D01*
X202750Y772500D02*
Y777500D01*
X206500Y767500D02*
Y782500D01*
X199000Y767500D02*
Y782500D01*
Y767500D02*
X206500D01*
X173000Y782500D02*
X180500D01*
X174250Y775000D02*
X179250D01*
X176750Y772500D02*
Y777500D01*
X180500Y767500D02*
Y782500D01*
X173000Y767500D02*
Y782500D01*
Y767500D02*
X180500D01*
X147000Y782500D02*
X154500D01*
X148250Y775000D02*
X153250D01*
X150750Y772500D02*
Y777500D01*
X154500Y767500D02*
Y782500D01*
X147000Y767500D02*
Y782500D01*
Y767500D02*
X154500D01*
X160000Y782500D02*
X167500D01*
X161250Y775000D02*
X166250D01*
X163750Y772500D02*
Y777500D01*
X167500Y767500D02*
Y782500D01*
X160000Y767500D02*
Y782500D01*
Y767500D02*
X167500D01*
X173000Y892500D02*
X180500D01*
X174250Y900000D02*
X179250D01*
X176750Y897500D02*
Y902500D01*
X173000Y892500D02*
Y907500D01*
X180500Y892500D02*
Y907500D01*
X173000D02*
X180500D01*
X199000Y892500D02*
X206500D01*
X200250Y900000D02*
X205250D01*
X202750Y897500D02*
Y902500D01*
X199000Y892500D02*
Y907500D01*
X206500Y892500D02*
Y907500D01*
X199000D02*
X206500D01*
X186000Y892500D02*
X193500D01*
X187250Y900000D02*
X192250D01*
X189750Y897500D02*
Y902500D01*
X186000Y892500D02*
Y907500D01*
X193500Y892500D02*
Y907500D01*
X186000D02*
X193500D01*
X225000Y872500D02*
X232500D01*
X226250Y880000D02*
X231250D01*
X228750Y877500D02*
Y882500D01*
X225000Y872500D02*
Y887500D01*
X232500Y872500D02*
Y887500D01*
X225000D02*
X232500D01*
X212000Y782500D02*
X219500D01*
X213250Y775000D02*
X218250D01*
X215750Y772500D02*
Y777500D01*
X219500Y767500D02*
Y782500D01*
X212000Y767500D02*
Y782500D01*
Y767500D02*
X219500D01*
X225000Y782500D02*
X232500D01*
X226250Y775000D02*
X231250D01*
X228750Y772500D02*
Y777500D01*
X232500Y767500D02*
Y782500D01*
X225000Y767500D02*
Y782500D01*
Y767500D02*
X232500D01*
X381250Y782500D02*
X388750D01*
X382500Y775000D02*
X387500D01*
X385000Y772500D02*
Y777500D01*
X388750Y767500D02*
Y782500D01*
X381250Y767500D02*
Y782500D01*
Y767500D02*
X388750D01*
X381250Y762500D02*
X388750D01*
X382500Y755000D02*
X387500D01*
X385000Y752500D02*
Y757500D01*
X388750Y747500D02*
Y762500D01*
X381250Y747500D02*
Y762500D01*
Y747500D02*
X388750D01*
X431250Y767500D02*
X438750D01*
X432500Y775000D02*
X437500D01*
X435000Y772500D02*
Y777500D01*
X431250Y767500D02*
Y782500D01*
X438750Y767500D02*
Y782500D01*
X431250D02*
X438750D01*
X381250Y802500D02*
X388750D01*
X382500Y795000D02*
X387500D01*
X385000Y792500D02*
Y797500D01*
X388750Y787500D02*
Y802500D01*
X381250Y787500D02*
Y802500D01*
Y787500D02*
X388750D01*
X341250Y802500D02*
X348750D01*
X342500Y795000D02*
X347500D01*
X345000Y792500D02*
Y797500D01*
X348750Y787500D02*
Y802500D01*
X341250Y787500D02*
Y802500D01*
Y787500D02*
X348750D01*
X341250Y762500D02*
X348750D01*
X342500Y755000D02*
X347500D01*
X345000Y752500D02*
Y757500D01*
X348750Y747500D02*
Y762500D01*
X341250Y747500D02*
Y762500D01*
Y747500D02*
X348750D01*
X341250Y782500D02*
X348750D01*
X342500Y775000D02*
X347500D01*
X345000Y772500D02*
Y777500D01*
X348750Y767500D02*
Y782500D01*
X341250Y767500D02*
Y782500D01*
Y767500D02*
X348750D01*
X282500Y1056250D02*
Y1063750D01*
X290000Y1057500D02*
Y1062500D01*
X287500Y1060000D02*
X292500D01*
X282500Y1063750D02*
X297500D01*
X282500Y1056250D02*
X297500D01*
Y1063750D01*
Y1036250D02*
Y1043750D01*
X290000Y1037500D02*
Y1042500D01*
X287500Y1040000D02*
X292500D01*
X282500Y1036250D02*
X297500D01*
X282500Y1043750D02*
X297500D01*
X282500Y1036250D02*
Y1043750D01*
X445450Y1116750D02*
Y1124250D01*
X437950Y1118000D02*
Y1123000D01*
X435450Y1120500D02*
X440450D01*
X430450Y1116750D02*
X445450D01*
X430450Y1124250D02*
X445450D01*
X430450Y1116750D02*
Y1124250D01*
X445450Y1126250D02*
Y1133750D01*
X437950Y1127500D02*
Y1132500D01*
X435450Y1130000D02*
X440450D01*
X430450Y1126250D02*
X445450D01*
X430450Y1133750D02*
X445450D01*
X430450Y1126250D02*
Y1133750D01*
X387500Y1126250D02*
Y1133750D01*
X380000Y1127500D02*
Y1132500D01*
X377500Y1130000D02*
X382500D01*
X372500Y1126250D02*
X387500D01*
X372500Y1133750D02*
X387500D01*
X372500Y1126250D02*
Y1133750D01*
X387500Y1135750D02*
Y1143250D01*
X380000Y1137000D02*
Y1142000D01*
X377500Y1139500D02*
X382500D01*
X372500Y1135750D02*
X387500D01*
X372500Y1143250D02*
X387500D01*
X372500Y1135750D02*
Y1143250D01*
X337500Y1143375D02*
Y1150875D01*
X345000Y1144625D02*
Y1149625D01*
X342500Y1147125D02*
X347500D01*
X337500Y1150875D02*
X352500D01*
X337500Y1143375D02*
X352500D01*
Y1150875D01*
X292500Y1143375D02*
Y1150875D01*
X285000Y1144625D02*
Y1149625D01*
X282500Y1147125D02*
X287500D01*
X277500Y1143375D02*
X292500D01*
X277500Y1150875D02*
X292500D01*
X277500Y1143375D02*
Y1150875D01*
X251250Y1139070D02*
X258750D01*
X252500Y1131570D02*
X257500D01*
X255000Y1129070D02*
Y1134070D01*
X258750Y1124070D02*
Y1139070D01*
X251250Y1124070D02*
Y1139070D01*
Y1124070D02*
X258750D01*
X241250Y1139070D02*
X248750D01*
X242500Y1131570D02*
X247500D01*
X245000Y1129070D02*
Y1134070D01*
X248750Y1124070D02*
Y1139070D01*
X241250Y1124070D02*
Y1139070D01*
Y1124070D02*
X248750D01*
X186250Y1072500D02*
X193750D01*
X187500Y1080000D02*
X192500D01*
X190000Y1077500D02*
Y1082500D01*
X186250Y1072500D02*
Y1087500D01*
X193750Y1072500D02*
Y1087500D01*
X186250D02*
X193750D01*
X-515750Y1027500D02*
X-508250D01*
X-514500Y1020000D02*
X-509500D01*
X-512000Y1017500D02*
Y1022500D01*
X-508250Y1012500D02*
Y1027500D01*
X-515750Y1012500D02*
Y1027500D01*
Y1012500D02*
X-508250D01*
X-527750Y1027500D02*
X-520250D01*
X-526500Y1020000D02*
X-521500D01*
X-524000Y1017500D02*
Y1022500D01*
X-520250Y1012500D02*
Y1027500D01*
X-527750Y1012500D02*
Y1027500D01*
Y1012500D02*
X-520250D01*
X-453750Y1147500D02*
X-446250D01*
X-452500Y1140000D02*
X-447500D01*
X-450000Y1137500D02*
Y1142500D01*
X-446250Y1132500D02*
Y1147500D01*
X-453750Y1132500D02*
Y1147500D01*
Y1132500D02*
X-446250D01*
X-463750D02*
X-456250D01*
X-462500Y1140000D02*
X-457500D01*
X-460000Y1137500D02*
Y1142500D01*
X-463750Y1132500D02*
Y1147500D01*
X-456250Y1132500D02*
Y1147500D01*
X-463750D02*
X-456250D01*
X-357500Y1086870D02*
Y1094370D01*
X-365000Y1088120D02*
Y1093120D01*
X-367500Y1090620D02*
X-362500D01*
X-372500Y1086870D02*
X-357500D01*
X-372500Y1094370D02*
X-357500D01*
X-372500Y1086870D02*
Y1094370D01*
X-393750Y1092500D02*
X-386250D01*
X-392500Y1085000D02*
X-387500D01*
X-390000Y1082500D02*
Y1087500D01*
X-386250Y1077500D02*
Y1092500D01*
X-393750Y1077500D02*
Y1092500D01*
Y1077500D02*
X-386250D01*
X-393750Y1060000D02*
X-386250D01*
X-392500Y1067500D02*
X-387500D01*
X-390000Y1065000D02*
Y1070000D01*
X-393750Y1060000D02*
Y1075000D01*
X-386250Y1060000D02*
Y1075000D01*
X-393750D02*
X-386250D01*
X-313750Y1010000D02*
X-306250D01*
X-312500Y1002500D02*
X-307500D01*
X-310000Y1000000D02*
Y1005000D01*
X-306250Y995000D02*
Y1010000D01*
X-313750Y995000D02*
Y1010000D01*
Y995000D02*
X-306250D01*
X-247500Y996250D02*
Y1003750D01*
X-240000Y997500D02*
Y1002500D01*
X-242500Y1000000D02*
X-237500D01*
X-247500Y1003750D02*
X-232500D01*
X-247500Y996250D02*
X-232500D01*
Y1003750D01*
X-213250Y1132500D02*
X-205750D01*
X-212000Y1140000D02*
X-207000D01*
X-209500Y1137500D02*
Y1142500D01*
X-213250Y1132500D02*
Y1147500D01*
X-205750Y1132500D02*
Y1147500D01*
X-213250D02*
X-205750D01*
X-203750Y1087500D02*
X-196250D01*
X-202500Y1080000D02*
X-197500D01*
X-200000Y1077500D02*
Y1082500D01*
X-196250Y1072500D02*
Y1087500D01*
X-203750Y1072500D02*
Y1087500D01*
Y1072500D02*
X-196250D01*
X-213250Y1087500D02*
X-205750D01*
X-212000Y1080000D02*
X-207000D01*
X-209500Y1077500D02*
Y1082500D01*
X-205750Y1072500D02*
Y1087500D01*
X-213250Y1072500D02*
Y1087500D01*
Y1072500D02*
X-205750D01*
X-194250Y1052500D02*
X-186750D01*
X-193000Y1060000D02*
X-188000D01*
X-190500Y1057500D02*
Y1062500D01*
X-194250Y1052500D02*
Y1067500D01*
X-186750Y1052500D02*
Y1067500D01*
X-194250D02*
X-186750D01*
X-213250Y1007500D02*
X-205750D01*
X-212000Y1000000D02*
X-207000D01*
X-209500Y997500D02*
Y1002500D01*
X-205750Y992500D02*
Y1007500D01*
X-213250Y992500D02*
Y1007500D01*
Y992500D02*
X-205750D01*
X-83750Y1031700D02*
X-76250D01*
X-82500Y1024200D02*
X-77500D01*
X-80000Y1021700D02*
Y1026700D01*
X-76250Y1016700D02*
Y1031700D01*
X-83750Y1016700D02*
Y1031700D01*
Y1016700D02*
X-76250D01*
X-161230Y1065410D02*
X-153730D01*
X-159980Y1057910D02*
X-154980D01*
X-157480Y1055410D02*
Y1060410D01*
X-153730Y1050410D02*
Y1065410D01*
X-161230Y1050410D02*
Y1065410D01*
Y1050410D02*
X-153730D01*
X-86300Y1074540D02*
X-78800D01*
X-85050Y1082040D02*
X-80050D01*
X-82550Y1079540D02*
Y1084540D01*
X-86300Y1074540D02*
Y1089540D01*
X-78800Y1074540D02*
Y1089540D01*
X-86300D02*
X-78800D01*
X-63750Y1101800D02*
X-56250D01*
X-62500Y1109300D02*
X-57500D01*
X-60000Y1106800D02*
Y1111800D01*
X-63750Y1101800D02*
Y1116800D01*
X-56250Y1101800D02*
Y1116800D01*
X-63750D02*
X-56250D01*
X48200Y1156250D02*
Y1163750D01*
X40700Y1157500D02*
Y1162500D01*
X38200Y1160000D02*
X43200D01*
X33200Y1156250D02*
X48200D01*
X33200Y1163750D02*
X48200D01*
X33200Y1156250D02*
Y1163750D01*
X117500Y1126250D02*
Y1133750D01*
X125000Y1127500D02*
Y1132500D01*
X122500Y1130000D02*
X127500D01*
X117500Y1133750D02*
X132500D01*
X117500Y1126250D02*
X132500D01*
Y1133750D01*
X117500Y1116250D02*
Y1123750D01*
X125000Y1117500D02*
Y1122500D01*
X122500Y1120000D02*
X127500D01*
X117500Y1123750D02*
X132500D01*
X117500Y1116250D02*
X132500D01*
Y1123750D01*
X116250Y1026800D02*
X123750D01*
X117500Y1034300D02*
X122500D01*
X120000Y1031800D02*
Y1036800D01*
X116250Y1026800D02*
Y1041800D01*
X123750Y1026800D02*
Y1041800D01*
X116250D02*
X123750D01*
X36250Y982500D02*
X43750D01*
X37500Y975000D02*
X42500D01*
X40000Y972500D02*
Y977500D01*
X43750Y967500D02*
Y982500D01*
X36250Y967500D02*
Y982500D01*
Y967500D02*
X43750D01*
X26250Y982500D02*
X33750D01*
X27500Y975000D02*
X32500D01*
X30000Y972500D02*
Y977500D01*
X33750Y967500D02*
Y982500D01*
X26250Y967500D02*
Y982500D01*
Y967500D02*
X33750D01*
X16250Y982500D02*
X23750D01*
X17500Y975000D02*
X22500D01*
X20000Y972500D02*
Y977500D01*
X23750Y967500D02*
Y982500D01*
X16250Y967500D02*
Y982500D01*
Y967500D02*
X23750D01*
X-33750Y982500D02*
X-26250D01*
X-32500Y975000D02*
X-27500D01*
X-30000Y972500D02*
Y977500D01*
X-26250Y967500D02*
Y982500D01*
X-33750Y967500D02*
Y982500D01*
Y967500D02*
X-26250D01*
X-323750Y1077500D02*
X-316250D01*
X-322500Y1085000D02*
X-317500D01*
X-320000Y1082500D02*
Y1087500D01*
X-323750Y1077500D02*
Y1092500D01*
X-316250Y1077500D02*
Y1092500D01*
X-323750D02*
X-316250D01*
X-348750Y581500D02*
X-341250D01*
X-347500Y589000D02*
X-342500D01*
X-345000Y586500D02*
Y591500D01*
X-348750Y581500D02*
Y596500D01*
X-341250Y581500D02*
Y596500D01*
X-348750D02*
X-341250D01*
X-109500Y392500D02*
X-102000D01*
X-108250Y400000D02*
X-103250D01*
X-105750Y397500D02*
Y402500D01*
X-109500Y392500D02*
Y407500D01*
X-102000Y392500D02*
Y407500D01*
X-109500D02*
X-102000D01*
X-70500Y307500D02*
X-63000D01*
X-69250Y300000D02*
X-64250D01*
X-66750Y297500D02*
Y302500D01*
X-63000Y292500D02*
Y307500D01*
X-70500Y292500D02*
Y307500D01*
Y292500D02*
X-63000D01*
X77200Y392500D02*
X84700D01*
X78450Y400000D02*
X83450D01*
X80950Y397500D02*
Y402500D01*
X77200Y392500D02*
Y407500D01*
X84700Y392500D02*
Y407500D01*
X77200D02*
X84700D01*
X77200Y307500D02*
X84700D01*
X78450Y300000D02*
X83450D01*
X80950Y297500D02*
Y302500D01*
X84700Y292500D02*
Y307500D01*
X77200Y292500D02*
Y307500D01*
Y292500D02*
X84700D01*
X140700Y307500D02*
X148200D01*
X141950Y300000D02*
X146950D01*
X144450Y297500D02*
Y302500D01*
X148200Y292500D02*
Y307500D01*
X140700Y292500D02*
Y307500D01*
Y292500D02*
X148200D01*
X51800Y307500D02*
X59300D01*
X53050Y300000D02*
X58050D01*
X55550Y297500D02*
Y302500D01*
X59300Y292500D02*
Y307500D01*
X51800Y292500D02*
Y307500D01*
Y292500D02*
X59300D01*
X-372400Y652500D02*
X-364900D01*
X-371150Y660000D02*
X-366150D01*
X-368650Y657500D02*
Y662500D01*
X-372400Y652500D02*
Y667500D01*
X-364900Y652500D02*
Y667500D01*
X-372400D02*
X-364900D01*
X-522400Y652500D02*
X-514900D01*
X-521150Y660000D02*
X-516150D01*
X-518650Y657500D02*
Y662500D01*
X-522400Y652500D02*
Y667500D01*
X-514900Y652500D02*
Y667500D01*
X-522400D02*
X-514900D01*
X-347354Y502500D02*
X-339854D01*
X-346104Y510000D02*
X-341104D01*
X-343604Y507500D02*
Y512500D01*
X-347354Y502500D02*
Y517500D01*
X-339854Y502500D02*
Y517500D01*
X-347354D02*
X-339854D01*
X-409854Y502500D02*
X-402354D01*
X-408604Y510000D02*
X-403604D01*
X-406104Y507500D02*
Y512500D01*
X-409854Y502500D02*
Y517500D01*
X-402354Y502500D02*
Y517500D01*
X-409854D02*
X-402354D01*
X-497354Y502500D02*
X-489854D01*
X-496104Y510000D02*
X-491104D01*
X-493604Y507500D02*
Y512500D01*
X-497354Y502500D02*
Y517500D01*
X-489854Y502500D02*
Y517500D01*
X-497354D02*
X-489854D01*
X-559854Y502500D02*
X-552354D01*
X-558604Y510000D02*
X-553604D01*
X-556104Y507500D02*
Y512500D01*
X-559854Y502500D02*
Y517500D01*
X-552354Y502500D02*
Y517500D01*
X-559854D02*
X-552354D01*
X527600Y652500D02*
X535100D01*
X528850Y660000D02*
X533850D01*
X531350Y657500D02*
Y662500D01*
X527600Y652500D02*
Y667500D01*
X535100Y652500D02*
Y667500D01*
X527600D02*
X535100D01*
X551250Y581500D02*
X558750D01*
X552500Y589000D02*
X557500D01*
X555000Y586500D02*
Y591500D01*
X551250Y581500D02*
Y596500D01*
X558750Y581500D02*
Y596500D01*
X551250D02*
X558750D01*
X552646Y502500D02*
X560146D01*
X553896Y510000D02*
X558896D01*
X556396Y507500D02*
Y512500D01*
X552646Y502500D02*
Y517500D01*
X560146Y502500D02*
Y517500D01*
X552646D02*
X560146D01*
X490146Y502500D02*
X497646D01*
X491396Y510000D02*
X496396D01*
X493896Y507500D02*
Y512500D01*
X490146Y502500D02*
Y517500D01*
X497646Y502500D02*
Y517500D01*
X490146D02*
X497646D01*
X377600Y652500D02*
X385100D01*
X378850Y660000D02*
X383850D01*
X381350Y657500D02*
Y662500D01*
X377600Y652500D02*
Y667500D01*
X385100Y652500D02*
Y667500D01*
X377600D02*
X385100D01*
X401250Y581500D02*
X408750D01*
X402500Y589000D02*
X407500D01*
X405000Y586500D02*
Y591500D01*
X401250Y581500D02*
Y596500D01*
X408750Y581500D02*
Y596500D01*
X401250D02*
X408750D01*
X402646Y502500D02*
X410146D01*
X403896Y510000D02*
X408896D01*
X406396Y507500D02*
Y512500D01*
X402646Y502500D02*
Y517500D01*
X410146Y502500D02*
Y517500D01*
X402646D02*
X410146D01*
X340146Y502500D02*
X347646D01*
X341396Y510000D02*
X346396D01*
X343896Y507500D02*
Y512500D01*
X340146Y502500D02*
Y517500D01*
X347646Y502500D02*
Y517500D01*
X340146D02*
X347646D01*
X567500Y1156250D02*
Y1163750D01*
X560000Y1157500D02*
Y1162500D01*
X557500Y1160000D02*
X562500D01*
X552500Y1156250D02*
X567500D01*
X552500Y1163750D02*
X567500D01*
X552500Y1156250D02*
Y1163750D01*
X547500Y1156250D02*
Y1163750D01*
X540000Y1157500D02*
Y1162500D01*
X537500Y1160000D02*
X542500D01*
X532500Y1156250D02*
X547500D01*
X532500Y1163750D02*
X547500D01*
X532500Y1156250D02*
Y1163750D01*
X587500Y1156250D02*
Y1163750D01*
X580000Y1157500D02*
Y1162500D01*
X577500Y1160000D02*
X582500D01*
X572500Y1156250D02*
X587500D01*
X572500Y1163750D02*
X587500D01*
X572500Y1156250D02*
Y1163750D01*
D156*
X620000Y1052500D02*
Y1057500D01*
X617500Y1055000D02*
X622500D01*
X614000Y1047500D02*
X626000D01*
X614000D02*
Y1062500D01*
X626000D01*
Y1047500D02*
Y1062500D01*
X612500Y963750D02*
X627500D01*
X612500Y956250D02*
X627500D01*
Y963750D01*
X612500Y956250D02*
Y963750D01*
X620000Y957500D02*
Y962500D01*
X617500Y960000D02*
X622500D01*
X612500Y886250D02*
Y893750D01*
X627500Y886250D02*
Y893750D01*
X612500Y886250D02*
X627500D01*
X612500Y893750D02*
X627500D01*
X617500Y890000D02*
X622500D01*
X620000Y887500D02*
Y892500D01*
X627500Y896250D02*
Y903750D01*
X612500Y896250D02*
Y903750D01*
X627500D01*
X612500Y896250D02*
X627500D01*
X617500Y900000D02*
X622500D01*
X620000Y897500D02*
Y902500D01*
X620000Y922500D02*
Y927500D01*
X617500Y925000D02*
X622500D01*
X614000Y917500D02*
X626000D01*
X614000D02*
Y932500D01*
X626000D01*
Y917500D02*
Y932500D01*
X627500Y936250D02*
Y943750D01*
X612500Y936250D02*
Y943750D01*
X627500D01*
X612500Y936250D02*
X627500D01*
X617500Y940000D02*
X622500D01*
X620000Y937500D02*
Y942500D01*
X627500Y1066250D02*
Y1073750D01*
X612500Y1066250D02*
Y1073750D01*
X627500D01*
X612500Y1066250D02*
X627500D01*
X617500Y1070000D02*
X622500D01*
X620000Y1067500D02*
Y1072500D01*
X612500Y1093750D02*
X627500D01*
X612500Y1086250D02*
X627500D01*
Y1093750D01*
X612500Y1086250D02*
Y1093750D01*
X620000Y1087500D02*
Y1092500D01*
X617500Y1090000D02*
X622500D01*
X612500Y1016250D02*
Y1023750D01*
X627500Y1016250D02*
Y1023750D01*
X612500Y1016250D02*
X627500D01*
X612500Y1023750D02*
X627500D01*
X617500Y1020000D02*
X622500D01*
X620000Y1017500D02*
Y1022500D01*
X627500Y1006250D02*
Y1013750D01*
X612500Y1006250D02*
Y1013750D01*
X627500D01*
X612500Y1006250D02*
X627500D01*
X617500Y1010000D02*
X622500D01*
X620000Y1007500D02*
Y1012500D01*
X627500Y1026250D02*
Y1033750D01*
X612500Y1026250D02*
Y1033750D01*
X627500D01*
X612500Y1026250D02*
X627500D01*
X617500Y1030000D02*
X622500D01*
X620000Y1027500D02*
Y1032500D01*
X-509700Y652500D02*
X-502200D01*
X-509700Y667500D02*
X-502200D01*
Y652500D02*
Y667500D01*
X-509700Y652500D02*
Y667500D01*
X-505950Y657500D02*
Y662500D01*
X-508450Y660000D02*
X-503450D01*
X140000Y790000D02*
Y870000D01*
X220000D01*
X140000Y790000D02*
X220000D01*
Y870000D01*
X180000Y827500D02*
Y832500D01*
X177500Y830000D02*
X182500D01*
X148250Y880000D02*
X153250D01*
X150750Y877500D02*
Y882500D01*
X147000Y872500D02*
Y887500D01*
X154500Y872500D02*
Y887500D01*
X147000D02*
X154500D01*
X147000Y872500D02*
X154500D01*
X174250Y880000D02*
X179250D01*
X176750Y877500D02*
Y882500D01*
X173000Y872500D02*
Y887500D01*
X180500Y872500D02*
Y887500D01*
X173000D02*
X180500D01*
X173000Y872500D02*
X180500D01*
X187250Y880000D02*
X192250D01*
X189750Y877500D02*
Y882500D01*
X186000Y872500D02*
Y887500D01*
X193500Y872500D02*
Y887500D01*
X186000D02*
X193500D01*
X186000Y872500D02*
X193500D01*
X200250Y880000D02*
X205250D01*
X202750Y877500D02*
Y882500D01*
X199000Y872500D02*
Y887500D01*
X206500Y872500D02*
Y887500D01*
X199000D02*
X206500D01*
X199000Y872500D02*
X206500D01*
X213250Y880000D02*
X218250D01*
X215750Y877500D02*
Y882500D01*
X219500Y872500D02*
Y887500D01*
X212000Y872500D02*
Y887500D01*
Y872500D02*
X219500D01*
X212000Y887500D02*
X219500D01*
X372500Y755000D02*
X377500D01*
X375000Y752500D02*
Y757500D01*
X371250Y747500D02*
Y762500D01*
X378750Y747500D02*
Y762500D01*
X371250D02*
X378750D01*
X371250Y747500D02*
X378750D01*
X352500Y749000D02*
X367500D01*
Y761000D01*
X352500D02*
X367500D01*
X352500Y749000D02*
Y761000D01*
X360000Y752500D02*
Y757500D01*
X357500Y755000D02*
X362500D01*
X372500Y775000D02*
X377500D01*
X375000Y772500D02*
Y777500D01*
X371250Y767500D02*
Y782500D01*
X378750Y767500D02*
Y782500D01*
X371250D02*
X378750D01*
X371250Y767500D02*
X378750D01*
X415000Y771746D02*
Y777746D01*
X412000Y774746D02*
X418000D01*
X402554Y783382D02*
X427446D01*
Y766618D02*
Y783382D01*
X402554Y766618D02*
X427446D01*
X402554D02*
Y783382D01*
X352500Y769000D02*
X367500D01*
Y781000D01*
X352500D02*
X367500D01*
X352500Y769000D02*
Y781000D01*
X360000Y772500D02*
Y777500D01*
X357500Y775000D02*
X362500D01*
X352500Y789000D02*
X367500D01*
Y801000D01*
X352500D02*
X367500D01*
X352500Y789000D02*
Y801000D01*
X360000Y792500D02*
Y797500D01*
X357500Y795000D02*
X362500D01*
X372500D02*
X377500D01*
X375000Y792500D02*
Y797500D01*
X371250Y787500D02*
Y802500D01*
X378750Y787500D02*
Y802500D01*
X371250D02*
X378750D01*
X371250Y787500D02*
X378750D01*
X322500Y795000D02*
X327500D01*
X325000Y792500D02*
Y797500D01*
X328750Y787500D02*
Y802500D01*
X321250Y787500D02*
Y802500D01*
Y787500D02*
X328750D01*
X321250Y802500D02*
X328750D01*
X332500Y795000D02*
X337500D01*
X335000Y792500D02*
Y797500D01*
X331250Y787500D02*
Y802500D01*
X338750Y787500D02*
Y802500D01*
X331250D02*
X338750D01*
X331250Y787500D02*
X338750D01*
X332500Y755000D02*
X337500D01*
X335000Y752500D02*
Y757500D01*
X331250Y747500D02*
Y762500D01*
X338750Y747500D02*
Y762500D01*
X331250D02*
X338750D01*
X331250Y747500D02*
X338750D01*
X322500Y755000D02*
X327500D01*
X325000Y752500D02*
Y757500D01*
X328750Y747500D02*
Y762500D01*
X321250Y747500D02*
Y762500D01*
Y747500D02*
X328750D01*
X321250Y762500D02*
X328750D01*
X322500Y775000D02*
X327500D01*
X325000Y772500D02*
Y777500D01*
X328750Y767500D02*
Y782500D01*
X321250Y767500D02*
Y782500D01*
Y767500D02*
X328750D01*
X321250Y782500D02*
X328750D01*
X332500Y775000D02*
X337500D01*
X335000Y772500D02*
Y777500D01*
X331250Y767500D02*
Y782500D01*
X338750Y767500D02*
Y782500D01*
X331250D02*
X338750D01*
X331250Y767500D02*
X338750D01*
X630000Y772500D02*
Y777500D01*
X627500Y775000D02*
X632500D01*
X565000Y825000D02*
X650000D01*
Y725000D02*
Y825000D01*
X565000Y725000D02*
X650000D01*
X565000D02*
Y825000D01*
X303300Y973750D02*
Y981250D01*
X288300Y973750D02*
X303300D01*
X288300Y981250D02*
X303300D01*
X293300Y977500D02*
X298300D01*
X295800Y975000D02*
Y980000D01*
X288300Y973750D02*
Y981250D01*
X287500Y960000D02*
X292500D01*
X290000Y957500D02*
Y962500D01*
X286250Y952500D02*
Y967500D01*
X293750Y952500D02*
Y967500D01*
X286250D02*
X293750D01*
X286250Y952500D02*
X293750D01*
X303300Y936250D02*
Y943750D01*
X288300Y936250D02*
X303300D01*
X288300Y943750D02*
X303300D01*
X293300Y940000D02*
X298300D01*
X295800Y937500D02*
Y942500D01*
X288300Y936250D02*
Y943750D01*
X270000Y890000D02*
X310000D01*
X270000D02*
Y930000D01*
X310000D01*
Y890000D02*
Y930000D01*
X290000Y907500D02*
Y912500D01*
X287500Y910000D02*
X292500D01*
X284000Y1077500D02*
Y1092500D01*
Y1077500D02*
X296000D01*
Y1092500D01*
X284000D02*
X296000D01*
X287500Y1085000D02*
X292500D01*
X290000Y1082500D02*
Y1087500D01*
Y1067500D02*
Y1072500D01*
X287500Y1070000D02*
X292500D01*
X282500Y1066250D02*
X297500D01*
X282500Y1073750D02*
X297500D01*
X282500Y1066250D02*
Y1073750D01*
X297500Y1066250D02*
Y1073750D01*
X287500Y1050000D02*
X292500D01*
X290000Y1047500D02*
Y1052500D01*
X282500Y1046250D02*
Y1053750D01*
X297500Y1046250D02*
Y1053750D01*
X282500Y1046250D02*
X297500D01*
X282500Y1053750D02*
X297500D01*
X458000Y1175000D02*
X498000D01*
Y1135000D02*
Y1175000D01*
X458000Y1135000D02*
X498000D01*
X458000D02*
Y1175000D01*
X478000Y1152500D02*
Y1157500D01*
X475500Y1155000D02*
X480500D01*
X457625Y1114250D02*
X482625D01*
X457625Y1126750D02*
X482625D01*
X467625Y1120500D02*
X472625D01*
X470125Y1118000D02*
Y1123000D01*
X457625Y1114250D02*
Y1126750D01*
X482625Y1114250D02*
Y1126750D01*
X410000Y1127500D02*
Y1132500D01*
X407500Y1130000D02*
X412500D01*
X395000Y1145000D02*
X425000D01*
Y1115000D02*
Y1145000D01*
X395000Y1115000D02*
X425000D01*
X395000D02*
Y1145000D01*
X380000Y1118000D02*
Y1123000D01*
X377500Y1120500D02*
X382500D01*
X372500Y1124250D02*
X387500D01*
X372500Y1116750D02*
X387500D01*
Y1124250D01*
X372500Y1116750D02*
Y1124250D01*
X319000Y1142500D02*
Y1167500D01*
X331500Y1142500D02*
Y1167500D01*
X325250Y1152500D02*
Y1157500D01*
X322750Y1155000D02*
X327750D01*
X319000Y1167500D02*
X331500D01*
X319000Y1142500D02*
X331500D01*
X298500D02*
Y1167500D01*
X311000Y1142500D02*
Y1167500D01*
X304750Y1152500D02*
Y1157500D01*
X302250Y1155000D02*
X307250D01*
X298500Y1167500D02*
X311000D01*
X298500Y1142500D02*
X311000D01*
X145000Y1116000D02*
X235000D01*
Y1164000D01*
X145000D02*
X235000D01*
X145000Y1116000D02*
Y1164000D01*
X170482Y1080000D02*
X175482D01*
X172982Y1077500D02*
Y1082500D01*
X176732Y1072500D02*
Y1087500D01*
X169232Y1072500D02*
Y1087500D01*
Y1072500D02*
X176732D01*
X169232Y1087500D02*
X176732D01*
X204518Y1080000D02*
X209518D01*
X207018Y1077500D02*
Y1082500D01*
X210768Y1072500D02*
Y1087500D01*
X203268Y1072500D02*
Y1087500D01*
Y1072500D02*
X210768D01*
X203268Y1087500D02*
X210768D01*
X221536Y1080000D02*
X226536D01*
X224036Y1077500D02*
Y1082500D01*
X220286Y1072500D02*
Y1087500D01*
X227786Y1072500D02*
Y1087500D01*
X220286D02*
X227786D01*
X220286Y1072500D02*
X227786D01*
X-122500Y1180000D02*
X-117500D01*
X-120000Y1177500D02*
Y1182500D01*
X-170000Y1115000D02*
Y1200000D01*
X-70000D01*
Y1115000D02*
Y1200000D01*
X-170000Y1115000D02*
X-70000D01*
X-262500Y1160000D02*
X-257500D01*
X-260000Y1157500D02*
Y1162500D01*
X-210000Y1140000D02*
Y1200000D01*
X-310000D02*
X-210000D01*
X-310000Y1140000D02*
Y1200000D01*
Y1140000D02*
X-210000D01*
X-610000Y1077500D02*
Y1082500D01*
X-612500Y1080000D02*
X-607500D01*
X-650000Y1130000D02*
X-590000D01*
X-650000Y1030000D02*
Y1130000D01*
Y1030000D02*
X-590000D01*
Y1130000D01*
X-557500Y1050000D02*
X-552500D01*
X-555000Y1047500D02*
Y1052500D01*
X-535000Y1010000D02*
Y1090000D01*
X-575000Y1010000D02*
Y1090000D01*
X-535000D01*
X-575000Y1010000D02*
X-535000D01*
X-522500Y1050000D02*
X-517500D01*
X-520000Y1047500D02*
Y1052500D01*
X-530668Y1064224D02*
X-509332D01*
X-530668Y1035776D02*
X-509332D01*
Y1064224D01*
X-530668Y1035776D02*
Y1064224D01*
X-520000Y1095000D02*
Y1100000D01*
X-522500Y1097500D02*
X-517500D01*
X-527500Y1101250D02*
X-512500D01*
X-527500Y1093750D02*
X-512500D01*
Y1101250D01*
X-527500Y1093750D02*
Y1101250D01*
X-520000Y1085000D02*
Y1090000D01*
X-522500Y1087500D02*
X-517500D01*
X-527500Y1083750D02*
X-512500D01*
X-527500Y1091250D02*
X-512500D01*
X-527500Y1083750D02*
Y1091250D01*
X-512500Y1083750D02*
Y1091250D01*
X-520000Y1075000D02*
Y1080000D01*
X-522500Y1077500D02*
X-517500D01*
X-527500Y1073750D02*
X-512500D01*
X-527500Y1081250D02*
X-512500D01*
X-527500Y1073750D02*
Y1081250D01*
X-512500Y1073750D02*
Y1081250D01*
X-472500Y1140000D02*
X-467500D01*
X-470000Y1137500D02*
Y1142500D01*
X-466250Y1132500D02*
Y1147500D01*
X-473750Y1132500D02*
Y1147500D01*
Y1132500D02*
X-466250D01*
X-473750Y1147500D02*
X-466250D01*
X-488750Y1122500D02*
X-476250D01*
X-488750Y1147500D02*
X-476250D01*
X-485000Y1135000D02*
X-480000D01*
X-482500Y1132500D02*
Y1137500D01*
X-476250Y1122500D02*
Y1147500D01*
X-488750Y1122500D02*
Y1147500D01*
X-491250Y1122500D02*
Y1147500D01*
X-503750Y1122500D02*
Y1147500D01*
X-497500Y1132500D02*
Y1137500D01*
X-500000Y1135000D02*
X-495000D01*
X-503750Y1122500D02*
X-491250D01*
X-503750Y1147500D02*
X-491250D01*
X-503750Y1122500D02*
Y1147500D01*
X-516250Y1122500D02*
Y1147500D01*
X-510000Y1132500D02*
Y1137500D01*
X-512500Y1135000D02*
X-507500D01*
X-516250Y1122500D02*
X-503750D01*
X-516250Y1147500D02*
X-503750D01*
X-528750Y1122500D02*
X-516250D01*
X-528750Y1147500D02*
X-516250D01*
X-525000Y1135000D02*
X-520000D01*
X-522500Y1132500D02*
Y1137500D01*
X-516250Y1122500D02*
Y1147500D01*
X-528750Y1122500D02*
Y1147500D01*
X-495000Y1115000D02*
X-445000D01*
Y1065000D02*
Y1115000D01*
X-495000Y1065000D02*
X-445000D01*
X-495000D02*
Y1115000D01*
X-470000Y1087500D02*
Y1092500D01*
X-472500Y1090000D02*
X-467500D01*
X-422500Y1090000D02*
X-417500D01*
X-420000Y1087500D02*
Y1092500D01*
X-442800Y1061500D02*
X-397200D01*
X-442800Y1118500D02*
X-397200D01*
Y1061500D02*
Y1118500D01*
X-442800Y1061500D02*
Y1118500D01*
X-352500Y1120000D02*
X-347500D01*
X-350000Y1117500D02*
Y1122500D01*
X-372800Y1091500D02*
X-327200D01*
X-372800Y1148500D02*
X-327200D01*
Y1091500D02*
Y1148500D01*
X-372800Y1091500D02*
Y1148500D01*
X-326250Y1137500D02*
X-313750D01*
X-326250Y1112500D02*
X-313750D01*
X-322500Y1125000D02*
X-317500D01*
X-320000Y1122500D02*
Y1127500D01*
X-326250Y1112500D02*
Y1137500D01*
X-313750Y1112500D02*
Y1137500D01*
X-386250D02*
X-373750D01*
X-386250Y1112500D02*
X-373750D01*
X-382500Y1125000D02*
X-377500D01*
X-380000Y1122500D02*
Y1127500D01*
X-386250Y1112500D02*
Y1137500D01*
X-373750Y1112500D02*
Y1137500D01*
X-335000Y1088120D02*
Y1093120D01*
X-337500Y1090620D02*
X-332500D01*
X-342500Y1086870D02*
X-327500D01*
X-342500Y1094370D02*
X-327500D01*
X-342500Y1086870D02*
Y1094370D01*
X-327500Y1086870D02*
Y1094370D01*
X-380000Y1025000D02*
X-320000D01*
X-380000Y1075000D02*
X-320000D01*
X-380000Y1025000D02*
Y1075000D01*
X-320000Y1025000D02*
Y1075000D01*
X-350000Y1047500D02*
Y1052500D01*
X-352500Y1050000D02*
X-347500D01*
X-502500Y1040000D02*
X-497500D01*
X-500000Y1037500D02*
Y1042500D01*
X-496250Y1032500D02*
Y1047500D01*
X-503750Y1032500D02*
Y1047500D01*
Y1032500D02*
X-496250D01*
X-503750Y1047500D02*
X-496250D01*
X-492500Y1040000D02*
X-487500D01*
X-490000Y1037500D02*
Y1042500D01*
X-493750Y1032500D02*
Y1047500D01*
X-486250Y1032500D02*
Y1047500D01*
X-493750D02*
X-486250D01*
X-493750Y1032500D02*
X-486250D01*
X-482500Y1040000D02*
X-477500D01*
X-480000Y1037500D02*
Y1042500D01*
X-483750Y1032500D02*
Y1047500D01*
X-476250Y1032500D02*
Y1047500D01*
X-483750D02*
X-476250D01*
X-483750Y1032500D02*
X-476250D01*
X-472500Y1040000D02*
X-467500D01*
X-470000Y1037500D02*
Y1042500D01*
X-473750Y1032500D02*
Y1047500D01*
X-466250Y1032500D02*
Y1047500D01*
X-473750D02*
X-466250D01*
X-473750Y1032500D02*
X-466250D01*
X-418750Y1025000D02*
Y1050000D01*
X-406250Y1025000D02*
Y1050000D01*
X-412500Y1035000D02*
Y1040000D01*
X-415000Y1037500D02*
X-410000D01*
X-418750Y1050000D02*
X-406250D01*
X-418750Y1025000D02*
X-406250D01*
X-433750D02*
Y1050000D01*
X-421250Y1025000D02*
Y1050000D01*
X-427500Y1035000D02*
Y1040000D01*
X-430000Y1037500D02*
X-425000D01*
X-433750Y1050000D02*
X-421250D01*
X-433750Y1025000D02*
X-421250D01*
X-448750D02*
Y1050000D01*
X-436250Y1025000D02*
Y1050000D01*
X-442500Y1035000D02*
Y1040000D01*
X-445000Y1037500D02*
X-440000D01*
X-448750Y1050000D02*
X-436250D01*
X-448750Y1025000D02*
X-436250D01*
X-463750Y1050000D02*
X-451250D01*
X-463750Y1025000D02*
X-451250D01*
X-460000Y1037500D02*
X-455000D01*
X-457500Y1035000D02*
Y1040000D01*
X-463750Y1025000D02*
Y1050000D01*
X-451250Y1025000D02*
Y1050000D01*
X-436250Y1017500D02*
X-423750D01*
X-436250Y992500D02*
X-423750D01*
X-432500Y1005000D02*
X-427500D01*
X-430000Y1002500D02*
Y1007500D01*
X-436250Y992500D02*
Y1017500D01*
X-423750Y992500D02*
Y1017500D01*
X-421250D02*
X-408750D01*
X-421250Y992500D02*
X-408750D01*
X-417500Y1005000D02*
X-412500D01*
X-415000Y1002500D02*
Y1007500D01*
X-421250Y992500D02*
Y1017500D01*
X-408750Y992500D02*
Y1017500D01*
X-406250D02*
X-393750D01*
X-406250Y992500D02*
X-393750D01*
X-402500Y1005000D02*
X-397500D01*
X-400000Y1002500D02*
Y1007500D01*
X-406250Y992500D02*
Y1017500D01*
X-393750Y992500D02*
Y1017500D01*
X-391250D02*
X-378750D01*
X-391250Y992500D02*
X-378750D01*
X-387500Y1005000D02*
X-382500D01*
X-385000Y1002500D02*
Y1007500D01*
X-391250Y992500D02*
Y1017500D01*
X-378750Y992500D02*
Y1017500D01*
X-376250D02*
X-363750D01*
X-376250Y992500D02*
X-363750D01*
X-372500Y1005000D02*
X-367500D01*
X-370000Y1002500D02*
Y1007500D01*
X-376250Y992500D02*
Y1017500D01*
X-363750Y992500D02*
Y1017500D01*
X-350000Y995000D02*
Y1000000D01*
X-352500Y997500D02*
X-347500D01*
X-357500Y993750D02*
X-342500D01*
X-357500Y1001250D02*
X-342500D01*
X-357500Y993750D02*
Y1001250D01*
X-342500Y993750D02*
Y1001250D01*
X-325000Y1015000D02*
Y1020000D01*
X-327500Y1017500D02*
X-322500D01*
X-332500Y1013750D02*
X-317500D01*
X-332500Y1021250D02*
X-317500D01*
X-332500Y1013750D02*
Y1021250D01*
X-317500Y1013750D02*
Y1021250D01*
X-325000Y1005000D02*
Y1010000D01*
X-327500Y1007500D02*
X-322500D01*
X-332500Y1003750D02*
X-317500D01*
X-332500Y1011250D02*
X-317500D01*
X-332500Y1003750D02*
Y1011250D01*
X-317500Y1003750D02*
Y1011250D01*
X-325000Y995000D02*
Y1000000D01*
X-327500Y997500D02*
X-322500D01*
X-332500Y993750D02*
X-317500D01*
X-332500Y1001250D02*
X-317500D01*
X-332500Y993750D02*
Y1001250D01*
X-317500Y993750D02*
Y1001250D01*
X-262500Y993750D02*
Y1006250D01*
X-287500Y993750D02*
Y1006250D01*
X-275000Y997500D02*
Y1002500D01*
X-277500Y1000000D02*
X-272500D01*
X-287500Y1006250D02*
X-262500D01*
X-287500Y993750D02*
X-262500D01*
X-220000Y1010000D02*
Y1125000D01*
X-300000D02*
X-220000D01*
X-300000Y1010000D02*
Y1125000D01*
Y1010000D02*
X-220000D01*
X-202500Y1140000D02*
X-197500D01*
X-200000Y1137500D02*
Y1142500D01*
X-203750Y1132500D02*
Y1147500D01*
X-196250Y1132500D02*
Y1147500D01*
X-203750D02*
X-196250D01*
X-203750Y1132500D02*
X-196250D01*
X-215000Y1095000D02*
X-185000D01*
Y1125000D01*
X-215000D02*
X-185000D01*
X-215000Y1095000D02*
Y1125000D01*
X-200000Y1107500D02*
Y1112500D01*
X-202500Y1110000D02*
X-197500D01*
X-193000Y1080000D02*
X-188000D01*
X-190500Y1077500D02*
Y1082500D01*
X-194250Y1072500D02*
Y1087500D01*
X-186750Y1072500D02*
Y1087500D01*
X-194250D02*
X-186750D01*
X-194250Y1072500D02*
X-186750D01*
X-202500Y1060000D02*
X-197500D01*
X-200000Y1057500D02*
Y1062500D01*
X-196250Y1052500D02*
Y1067500D01*
X-203750Y1052500D02*
Y1067500D01*
Y1052500D02*
X-196250D01*
X-203750Y1067500D02*
X-196250D01*
X-212000Y1060000D02*
X-207000D01*
X-209500Y1057500D02*
Y1062500D01*
X-213250Y1052500D02*
Y1067500D01*
X-205750Y1052500D02*
Y1067500D01*
X-213250D02*
X-205750D01*
X-213250Y1052500D02*
X-205750D01*
X-215000Y1015000D02*
X-185000D01*
Y1045000D01*
X-215000D02*
X-185000D01*
X-215000Y1015000D02*
Y1045000D01*
X-200000Y1027500D02*
Y1032500D01*
X-202500Y1030000D02*
X-197500D01*
X-193000Y1000000D02*
X-188000D01*
X-190500Y997500D02*
Y1002500D01*
X-194250Y992500D02*
Y1007500D01*
X-186750Y992500D02*
Y1007500D01*
X-194250D02*
X-186750D01*
X-194250Y992500D02*
X-186750D01*
X-202500Y1000000D02*
X-197500D01*
X-200000Y997500D02*
Y1002500D01*
X-203750Y992500D02*
Y1007500D01*
X-196250Y992500D02*
Y1007500D01*
X-203750D02*
X-196250D01*
X-203750Y992500D02*
X-196250D01*
X-162500Y1024200D02*
X-157500D01*
X-160000Y1021700D02*
Y1026700D01*
X-156250Y1016700D02*
Y1031700D01*
X-163750Y1016700D02*
Y1031700D01*
Y1016700D02*
X-156250D01*
X-163750Y1031700D02*
X-156250D01*
X-155560Y984092D02*
X-84440D01*
X-155560D02*
Y1035908D01*
X-84440D01*
Y984092D02*
Y1035908D01*
X-120000Y1007500D02*
Y1012500D01*
X-122500Y1010000D02*
X-117500D01*
X-122500Y1070000D02*
X-117500D01*
X-120000Y1067500D02*
Y1072500D01*
X-153500Y1091500D02*
X-86500D01*
X-153500Y1048500D02*
X-86500D01*
Y1091500D01*
X-153500Y1048500D02*
Y1091500D01*
X-62500Y1035700D02*
X-57500D01*
X-60000Y1033200D02*
Y1038200D01*
X-56250Y1028200D02*
Y1043200D01*
X-63750Y1028200D02*
Y1043200D01*
Y1028200D02*
X-56250D01*
X-63750Y1043200D02*
X-56250D01*
X-62500Y1054300D02*
X-57500D01*
X-60000Y1051800D02*
Y1056800D01*
X-63750Y1046800D02*
Y1061800D01*
X-56250Y1046800D02*
Y1061800D01*
X-63750D02*
X-56250D01*
X-63750Y1046800D02*
X-56250D01*
X-55000Y1155000D02*
X115000D01*
X-55000Y985000D02*
X115000D01*
Y1155000D01*
X-55000Y985000D02*
Y1155000D01*
X30000Y1067500D02*
Y1072500D01*
X27500Y1070000D02*
X32500D01*
X117500Y1019300D02*
X122500D01*
X120000Y1016800D02*
Y1021800D01*
X116250Y1011800D02*
Y1026800D01*
X123750Y1011800D02*
Y1026800D01*
X116250D02*
X123750D01*
X116250Y1011800D02*
X123750D01*
X-22500Y975000D02*
X-17500D01*
X-20000Y972500D02*
Y977500D01*
X-23750Y967500D02*
Y982500D01*
X-16250Y967500D02*
Y982500D01*
X-23750D02*
X-16250D01*
X-23750Y967500D02*
X-16250D01*
X-30000Y310000D02*
Y390000D01*
X-110000Y310000D02*
X-30000D01*
X-110000Y390000D02*
X-30000D01*
X-110000Y310000D02*
Y390000D01*
X-70000Y347500D02*
Y352500D01*
X-72500Y350000D02*
X-67500D01*
X-88750Y400000D02*
X-83750D01*
X-86250Y397500D02*
Y402500D01*
X-82500Y392500D02*
Y407500D01*
X-90000Y392500D02*
Y407500D01*
Y392500D02*
X-82500D01*
X-90000Y407500D02*
X-82500D01*
X-82250Y300000D02*
X-77250D01*
X-79750Y297500D02*
Y302500D01*
X-76000Y292500D02*
Y307500D01*
X-83500Y292500D02*
Y307500D01*
Y292500D02*
X-76000D01*
X-83500Y307500D02*
X-76000D01*
X-95250Y300000D02*
X-90250D01*
X-92750Y297500D02*
Y302500D01*
X-96500Y292500D02*
Y307500D01*
X-89000Y292500D02*
Y307500D01*
X-96500D02*
X-89000D01*
X-96500Y292500D02*
X-89000D01*
X-108250Y300000D02*
X-103250D01*
X-105750Y297500D02*
Y302500D01*
X-109500Y292500D02*
Y307500D01*
X-102000Y292500D02*
Y307500D01*
X-109500D02*
X-102000D01*
X-109500Y292500D02*
X-102000D01*
X-8750Y300000D02*
X-3750D01*
X-6250Y297500D02*
Y302500D01*
X-10000Y292500D02*
Y307500D01*
X-2500Y292500D02*
Y307500D01*
X-10000D02*
X-2500D01*
X-10000Y292500D02*
X-2500D01*
X3750Y300000D02*
X8750D01*
X6250Y297500D02*
Y302500D01*
X2500Y292500D02*
Y307500D01*
X10000Y292500D02*
Y307500D01*
X2500D02*
X10000D01*
X2500Y292500D02*
X10000D01*
X-2500Y250000D02*
X2500D01*
X0Y247500D02*
Y252500D01*
X-60000Y210000D02*
Y270000D01*
Y210000D02*
X60000D01*
Y270000D01*
X-60000D02*
X60000D01*
X65750Y400000D02*
X70750D01*
X68250Y397500D02*
Y402500D01*
X64500Y392500D02*
Y407500D01*
X72000Y392500D02*
Y407500D01*
X64500D02*
X72000D01*
X64500Y392500D02*
X72000D01*
X100000Y347500D02*
Y352500D01*
X97500Y350000D02*
X102500D01*
X50000Y315000D02*
X150000D01*
Y385000D01*
X50000Y315000D02*
Y385000D01*
X150000D01*
X65750Y300000D02*
X70750D01*
X68250Y297500D02*
Y302500D01*
X64500Y292500D02*
Y307500D01*
X72000Y292500D02*
Y307500D01*
X64500D02*
X72000D01*
X64500Y292500D02*
X72000D01*
X40345Y300000D02*
X45345D01*
X42845Y297500D02*
Y302500D01*
X39095Y292500D02*
Y307500D01*
X46595Y292500D02*
Y307500D01*
X39095D02*
X46595D01*
X39095Y292500D02*
X46595D01*
X-358450Y660000D02*
X-353450D01*
X-355950Y657500D02*
Y662500D01*
X-359700Y652500D02*
Y667500D01*
X-352200Y652500D02*
Y667500D01*
X-359700D02*
X-352200D01*
X-359700Y652500D02*
X-352200D01*
X-383850Y660000D02*
X-378850D01*
X-381350Y657500D02*
Y662500D01*
X-377600Y652500D02*
Y667500D01*
X-385100Y652500D02*
Y667500D01*
Y652500D02*
X-377600D01*
X-385100Y667500D02*
X-377600D01*
X-533850Y660000D02*
X-528850D01*
X-531350Y657500D02*
Y662500D01*
X-527600Y652500D02*
Y667500D01*
X-535100Y652500D02*
Y667500D01*
Y652500D02*
X-527600D01*
X-535100Y667500D02*
X-527600D01*
X-550000Y585000D02*
Y645000D01*
X-500000D01*
X-550000Y585000D02*
X-500000D01*
Y645000D01*
X-525000Y612500D02*
Y617500D01*
X-527500Y615000D02*
X-522500D01*
X-400000Y585000D02*
Y645000D01*
X-350000D01*
X-400000Y585000D02*
X-350000D01*
Y645000D01*
X-375000Y612500D02*
Y617500D01*
X-377500Y615000D02*
X-372500D01*
X-332500Y564000D02*
X-327500D01*
X-330000Y561500D02*
Y566500D01*
X-333750Y556500D02*
Y571500D01*
X-326250Y556500D02*
Y571500D01*
X-333750D02*
X-326250D01*
X-333750Y556500D02*
X-326250D01*
X-422500Y564000D02*
X-417500D01*
X-420000Y561500D02*
Y566500D01*
X-416250Y556500D02*
Y571500D01*
X-423750Y556500D02*
Y571500D01*
Y556500D02*
X-416250D01*
X-423750Y571500D02*
X-416250D01*
X-482500Y564000D02*
X-477500D01*
X-480000Y561500D02*
Y566500D01*
X-483750Y556500D02*
Y571500D01*
X-476250Y556500D02*
Y571500D01*
X-483750D02*
X-476250D01*
X-483750Y556500D02*
X-476250D01*
X-572500Y564000D02*
X-567500D01*
X-570000Y561500D02*
Y566500D01*
X-566250Y556500D02*
Y571500D01*
X-573750Y556500D02*
Y571500D01*
Y556500D02*
X-566250D01*
X-573750Y571500D02*
X-566250D01*
X-565000Y535000D02*
Y575000D01*
X-485000Y535000D02*
Y575000D01*
X-565000D02*
X-485000D01*
X-565000Y535000D02*
X-485000D01*
X-527500Y555000D02*
X-522500D01*
X-525000Y552500D02*
Y557500D01*
X-415000Y535000D02*
Y575000D01*
X-335000Y535000D02*
Y575000D01*
X-415000D02*
X-335000D01*
X-415000Y535000D02*
X-335000D01*
X-377500Y555000D02*
X-372500D01*
X-375000Y552500D02*
Y557500D01*
X-377500Y480000D02*
X-372500D01*
X-375000Y477500D02*
Y482500D01*
X-445000Y440000D02*
Y500000D01*
Y440000D02*
X-305000D01*
Y500000D01*
X-445000D02*
X-305000D01*
X-527500Y480000D02*
X-522500D01*
X-525000Y477500D02*
Y482500D01*
X-595000Y440000D02*
Y500000D01*
Y440000D02*
X-455000D01*
Y500000D01*
X-595000D02*
X-455000D01*
X-358604Y510000D02*
X-353604D01*
X-356104Y507500D02*
Y512500D01*
X-352354Y502500D02*
Y517500D01*
X-359854Y502500D02*
Y517500D01*
Y502500D02*
X-352354D01*
X-359854Y517500D02*
X-352354D01*
X-396104Y510000D02*
X-391104D01*
X-393604Y507500D02*
Y512500D01*
X-389854Y502500D02*
Y517500D01*
X-397354Y502500D02*
Y517500D01*
Y502500D02*
X-389854D01*
X-397354Y517500D02*
X-389854D01*
X-508604Y510000D02*
X-503604D01*
X-506104Y507500D02*
Y512500D01*
X-502354Y502500D02*
Y517500D01*
X-509854Y502500D02*
Y517500D01*
Y502500D02*
X-502354D01*
X-509854Y517500D02*
X-502354D01*
X-546104Y510000D02*
X-541104D01*
X-543604Y507500D02*
Y512500D01*
X-539854Y502500D02*
Y517500D01*
X-547354Y502500D02*
Y517500D01*
Y502500D02*
X-539854D01*
X-547354Y517500D02*
X-539854D01*
X516150Y660000D02*
X521150D01*
X518650Y657500D02*
Y662500D01*
X522400Y652500D02*
Y667500D01*
X514900Y652500D02*
Y667500D01*
Y652500D02*
X522400D01*
X514900Y667500D02*
X522400D01*
X541550Y660000D02*
X546550D01*
X544050Y657500D02*
Y662500D01*
X540300Y652500D02*
Y667500D01*
X547800Y652500D02*
Y667500D01*
X540300D02*
X547800D01*
X540300Y652500D02*
X547800D01*
X500000Y585000D02*
Y645000D01*
X550000D01*
X500000Y585000D02*
X550000D01*
Y645000D01*
X525000Y612500D02*
Y617500D01*
X522500Y615000D02*
X527500D01*
X485000Y535000D02*
Y575000D01*
X565000Y535000D02*
Y575000D01*
X485000D02*
X565000D01*
X485000Y535000D02*
X565000D01*
X522500Y555000D02*
X527500D01*
X525000Y552500D02*
Y557500D01*
X567500Y564000D02*
X572500D01*
X570000Y561500D02*
Y566500D01*
X566250Y556500D02*
Y571500D01*
X573750Y556500D02*
Y571500D01*
X566250D02*
X573750D01*
X566250Y556500D02*
X573750D01*
X477500Y564000D02*
X482500D01*
X480000Y561500D02*
Y566500D01*
X483750Y556500D02*
Y571500D01*
X476250Y556500D02*
Y571500D01*
Y556500D02*
X483750D01*
X476250Y571500D02*
X483750D01*
X541396Y510000D02*
X546396D01*
X543896Y507500D02*
Y512500D01*
X547646Y502500D02*
Y517500D01*
X540146Y502500D02*
Y517500D01*
Y502500D02*
X547646D01*
X540146Y517500D02*
X547646D01*
X503896Y510000D02*
X508896D01*
X506396Y507500D02*
Y512500D01*
X510146Y502500D02*
Y517500D01*
X502646Y502500D02*
Y517500D01*
Y502500D02*
X510146D01*
X502646Y517500D02*
X510146D01*
X522500Y480000D02*
X527500D01*
X525000Y477500D02*
Y482500D01*
X455000Y440000D02*
Y500000D01*
Y440000D02*
X595000D01*
Y500000D01*
X455000D02*
X595000D01*
X391550Y660000D02*
X396550D01*
X394050Y657500D02*
Y662500D01*
X390300Y652500D02*
Y667500D01*
X397800Y652500D02*
Y667500D01*
X390300D02*
X397800D01*
X390300Y652500D02*
X397800D01*
X366150Y660000D02*
X371150D01*
X368650Y657500D02*
Y662500D01*
X372400Y652500D02*
Y667500D01*
X364900Y652500D02*
Y667500D01*
Y652500D02*
X372400D01*
X364900Y667500D02*
X372400D01*
X350000Y585000D02*
Y645000D01*
X400000D01*
X350000Y585000D02*
X400000D01*
Y645000D01*
X375000Y612500D02*
Y617500D01*
X372500Y615000D02*
X377500D01*
X335000Y535000D02*
Y575000D01*
X415000Y535000D02*
Y575000D01*
X335000D02*
X415000D01*
X335000Y535000D02*
X415000D01*
X372500Y555000D02*
X377500D01*
X375000Y552500D02*
Y557500D01*
X327500Y564000D02*
X332500D01*
X330000Y561500D02*
Y566500D01*
X333750Y556500D02*
Y571500D01*
X326250Y556500D02*
Y571500D01*
Y556500D02*
X333750D01*
X326250Y571500D02*
X333750D01*
X417500Y564000D02*
X422500D01*
X420000Y561500D02*
Y566500D01*
X416250Y556500D02*
Y571500D01*
X423750Y556500D02*
Y571500D01*
X416250D02*
X423750D01*
X416250Y556500D02*
X423750D01*
X372500Y480000D02*
X377500D01*
X375000Y477500D02*
Y482500D01*
X305000Y440000D02*
Y500000D01*
Y440000D02*
X445000D01*
Y500000D01*
X305000D02*
X445000D01*
X391396Y510000D02*
X396396D01*
X393896Y507500D02*
Y512500D01*
X397646Y502500D02*
Y517500D01*
X390146Y502500D02*
Y517500D01*
Y502500D02*
X397646D01*
X390146Y517500D02*
X397646D01*
X353896Y510000D02*
X358896D01*
X356396Y507500D02*
Y512500D01*
X360146Y502500D02*
Y517500D01*
X352646Y502500D02*
Y517500D01*
Y502500D02*
X360146D01*
X352646Y517500D02*
X360146D01*
X554000Y1127500D02*
Y1142500D01*
Y1127500D02*
X566000D01*
Y1142500D01*
X554000D02*
X566000D01*
X557500Y1135000D02*
X562500D01*
X560000Y1132500D02*
Y1137500D01*
Y1167500D02*
Y1172500D01*
X557500Y1170000D02*
X562500D01*
X552500Y1166250D02*
X567500D01*
X552500Y1173750D02*
X567500D01*
X552500Y1166250D02*
Y1173750D01*
X567500Y1166250D02*
Y1173750D01*
X560000Y1147500D02*
Y1152500D01*
X557500Y1150000D02*
X562500D01*
X552500Y1153750D02*
X567500D01*
X552500Y1146250D02*
X567500D01*
Y1153750D01*
X552500Y1146250D02*
Y1153750D01*
X534000Y1127500D02*
Y1142500D01*
Y1127500D02*
X546000D01*
Y1142500D01*
X534000D02*
X546000D01*
X537500Y1135000D02*
X542500D01*
X540000Y1132500D02*
Y1137500D01*
Y1167500D02*
Y1172500D01*
X537500Y1170000D02*
X542500D01*
X532500Y1166250D02*
X547500D01*
X532500Y1173750D02*
X547500D01*
X532500Y1166250D02*
Y1173750D01*
X547500Y1166250D02*
Y1173750D01*
X540000Y1147500D02*
Y1152500D01*
X537500Y1150000D02*
X542500D01*
X532500Y1153750D02*
X547500D01*
X532500Y1146250D02*
X547500D01*
Y1153750D01*
X532500Y1146250D02*
Y1153750D01*
X110000Y745000D02*
X290000D01*
Y455000D02*
Y745000D01*
X110000Y455000D02*
X290000D01*
X110000D02*
Y745000D01*
X200000Y597500D02*
Y602500D01*
X197500Y600000D02*
X202500D01*
X-90000Y745000D02*
X90000D01*
Y455000D02*
Y745000D01*
X-90000Y455000D02*
X90000D01*
X-90000D02*
Y745000D01*
X0Y597500D02*
Y602500D01*
X-2500Y600000D02*
X2500D01*
X-290000Y745000D02*
X-110000D01*
Y455000D02*
Y745000D01*
X-290000Y455000D02*
X-110000D01*
X-290000D02*
Y745000D01*
X-200000Y597500D02*
Y602500D01*
X-202500Y600000D02*
X-197500D01*
X574000Y1127500D02*
Y1142500D01*
Y1127500D02*
X586000D01*
Y1142500D01*
X574000D02*
X586000D01*
X577500Y1135000D02*
X582500D01*
X580000Y1132500D02*
Y1137500D01*
Y1167500D02*
Y1172500D01*
X577500Y1170000D02*
X582500D01*
X572500Y1166250D02*
X587500D01*
X572500Y1173750D02*
X587500D01*
X572500Y1166250D02*
Y1173750D01*
X587500Y1166250D02*
Y1173750D01*
X580000Y1147500D02*
Y1152500D01*
X577500Y1150000D02*
X582500D01*
X572500Y1153750D02*
X587500D01*
X572500Y1146250D02*
X587500D01*
Y1153750D01*
X572500Y1146250D02*
Y1153750D01*
M02*
