G04*
G04 #@! TF.GenerationSoftware,Altium Limited,Altium Designer,23.3.1 (30)*
G04*
G04 Layer_Color=16711935*
%FSLAX44Y44*%
%MOMM*%
G71*
G04*
G04 #@! TF.SameCoordinates,DCB42576-95BD-42AD-BAF6-B7D1C35FFA17*
G04*
G04*
G04 #@! TF.FilePolarity,Positive*
G04*
G01*
G75*
%ADD11C,0.1000*%
%ADD14C,0.0500*%
D11*
X-278891Y102514D02*
G03*
X-333819Y155292I-91609J-40369D01*
G01*
X333819D02*
G03*
X278891Y102514I36682J-93147D01*
G01*
X847665Y1336775D02*
G03*
X49227Y1912652I-847665J-333819D01*
G01*
X863621Y1293073D02*
G03*
X847665Y1336775I-877570J-295654D01*
G01*
X435061Y202418D02*
G03*
X863621Y1293073I-435296J800571D01*
G01*
X378024Y174036D02*
G03*
X435061Y202418I-379450J834056D01*
G01*
X333819Y155292D02*
G03*
X378024Y174036I-339223J861507D01*
G01*
X-126138Y0D02*
G03*
X-126138Y0I-14015J0D01*
G01*
X154169D02*
G03*
X154169Y0I-14015J0D01*
G01*
X-909696Y953729D02*
G03*
X-333819Y155292I909696J49227D01*
G01*
X-911044Y1000233D02*
G03*
X-909696Y953729I926028J3575D01*
G01*
X-160168Y1899888D02*
G03*
X-911044Y1000233I160382J-897037D01*
G01*
X-97089Y1908818D02*
G03*
X-160168Y1899888I96821J-911185D01*
G01*
X-49227Y1912652D02*
G03*
X-97089Y1908818I49987J-924536D01*
G01*
X216258Y-39318D02*
G03*
X216616Y-38634I-36633J19598D01*
G01*
X215840Y-40080D02*
G03*
X216258Y-39318I-35846J20162D01*
G01*
X215330Y-40961D02*
G03*
X215840Y-40080I-34974J20839D01*
G01*
X214646Y-42068D02*
G03*
X215330Y-40961I-33934J21733D01*
G01*
X213255Y-44099D02*
G03*
X214646Y-42068I-32172J23526D01*
G01*
X211038Y-46856D02*
G03*
X213255Y-44099I-28881J25500D01*
G01*
X210180Y-47796D02*
G03*
X211038Y-46856I-27726J26180D01*
G01*
X209536Y-48460D02*
G03*
X210180Y-47796I-26799J26577D01*
G01*
X208986Y-49004D02*
G03*
X209536Y-48460I-25977J26851D01*
G01*
X208497Y-49468D02*
G03*
X208986Y-49004I-25225J27043D01*
G01*
X205846Y-51714D02*
G03*
X206763Y-50986I-21960J28611D01*
G01*
X203684Y-53249D02*
G03*
X205846Y-51714I-19547J29815D01*
G01*
X201797Y-54403D02*
G03*
X203460Y-53395I-17465J30684D01*
G01*
X200780Y-54960D02*
G03*
X201797Y-54403I-16410J31170D01*
G01*
X200239Y-55239D02*
G03*
X200780Y-54960I-15689J31109D01*
G01*
X199166Y-55757D02*
G03*
X199814Y-55449I-14746J31906D01*
G01*
X193759Y-57730D02*
G03*
X199166Y-55757I-9097J33333D01*
G01*
X192422Y-58066D02*
G03*
X193759Y-57730I-7834J33943D01*
G01*
X191444Y-58277D02*
G03*
X192422Y-58066I-6937J34505D01*
G01*
X-192797Y-57977D02*
G03*
X-191698Y-58225I8265J34089D01*
G01*
X-197175Y-56603D02*
G03*
X-192797Y-57977I12514J32205D01*
G01*
X-198844Y-55904D02*
G03*
X-197175Y-56603I14241J31648D01*
G01*
X-199864Y-55425D02*
G03*
X-198844Y-55904I15411J31505D01*
G01*
X-202899Y-53750D02*
G03*
X-199864Y-55425I18443J29832D01*
G01*
X-204543Y-52669D02*
G03*
X-202899Y-53750I20158J28862D01*
G01*
X-205442Y-52020D02*
G03*
X-204543Y-52669I21273J28523D01*
G01*
X-206135Y-51490D02*
G03*
X-205442Y-52020I22181J28283D01*
G01*
X-206719Y-51022D02*
G03*
X-206135Y-51490I22989J28100D01*
G01*
X-207241Y-50587D02*
G03*
X-206719Y-51022I23744J27950D01*
G01*
X-209617Y-48378D02*
G03*
X-209138Y-48856I26745J26354D01*
G01*
X-210210Y-47763D02*
G03*
X-209617Y-48378I27611J26008D01*
G01*
X-212423Y-45195D02*
G03*
X-210210Y-47763I30238J23825D01*
G01*
X-213264Y-44087D02*
G03*
X-212423Y-45195I30951J22619D01*
G01*
X-214487Y-42314D02*
G03*
X-213264Y-44087I33384J21726D01*
G01*
X-215214Y-41154D02*
G03*
X-214487Y-42314I34439J20781D01*
G01*
X-215746Y-40247D02*
G03*
X-215214Y-41154I35322J20086D01*
G01*
X-216175Y-39473D02*
G03*
X-215746Y-40247I36109J19515D01*
G01*
X-216544Y-38775D02*
G03*
X-216175Y-39473I36841J19015D01*
G01*
X154169Y0D02*
G03*
X154169Y0I-14015J0D01*
G01*
X-126138D02*
G03*
X-126138Y0I-14015J0D01*
G01*
X-191444Y-58277D02*
G03*
X191444Y-58277I191444J951405D01*
G01*
X-297067Y120571D02*
G03*
X297067Y120571I297067J882385D01*
G01*
X-184984Y720000D02*
G03*
X-184984Y720000I-15016J0D01*
G01*
Y480000D02*
G03*
X-184984Y480000I-15016J0D01*
G01*
X15016D02*
G03*
X15016Y480000I-15016J0D01*
G01*
Y720000D02*
G03*
X15016Y720000I-15016J0D01*
G01*
X215016D02*
G03*
X215016Y720000I-15016J0D01*
G01*
Y480000D02*
G03*
X215016Y480000I-15016J0D01*
G01*
X51056Y46050D02*
G03*
X51049Y46314I-5087J0D01*
G01*
Y46314D02*
G03*
X51019Y46663I-5028J-261D01*
G01*
D02*
G03*
X46306Y51049I-4969J-614D01*
G01*
Y51049D02*
G03*
X46050Y51056I-255J-5081D01*
G01*
X-46050D02*
G03*
X-46314Y51049I-0J-5087D01*
G01*
X-46314Y51049D02*
G03*
X-46663Y51019I261J-5028D01*
G01*
Y51019D02*
G03*
X-51049Y46306I614J-4969D01*
G01*
X-51049D02*
G03*
X-51056Y46050I5081J-255D01*
G01*
X-51019Y-46663D02*
G03*
X-46306Y-51049I4969J614D01*
G01*
X46663Y-51019D02*
G03*
X51049Y-46306I-614J4969D01*
G01*
X217668Y-36421D02*
X278891Y102514D01*
X-278891D02*
X-217668Y-36421D01*
X-49227Y1912652D02*
X49227D01*
X217478Y-36846D02*
X217668Y-36421D01*
X217220Y-37404D02*
X217478Y-36846D01*
X216935Y-37998D02*
X217220Y-37404D01*
X216616Y-38634D02*
X216935Y-37998D01*
X208047Y-49882D02*
X208497Y-49468D01*
X207630Y-50252D02*
X208047Y-49882D01*
X207228Y-50598D02*
X207630Y-50252D01*
X206763Y-50986D02*
X207228Y-50598D01*
X203460Y-53395D02*
X203684Y-53249D01*
X199814Y-55449D02*
X200239Y-55239D01*
X-191698Y-58225D02*
X-191444Y-58277D01*
X-207368Y-50478D02*
X-207241Y-50587D01*
X-207675Y-50212D02*
X-207368Y-50478D01*
X-207999Y-49924D02*
X-207675Y-50212D01*
X-208347Y-49608D02*
X-207999Y-49924D01*
X-208722Y-49256D02*
X-208347Y-49608D01*
X-209138Y-48856D02*
X-208722Y-49256D01*
X-216868Y-38134D02*
X-216544Y-38775D01*
X-217159Y-37533D02*
X-216868Y-38134D01*
X-217423Y-36967D02*
X-217159Y-37533D01*
X-217668Y-36421D02*
X-217423Y-36967D01*
X-272349Y87667D02*
X-217668Y-36421D01*
X51056Y-46050D02*
Y46050D01*
X-46050Y51056D02*
X46050D01*
X-51056Y-46050D02*
Y46050D01*
X-46050Y-51056D02*
X46050D01*
D14*
X0Y-5000D02*
Y5000D01*
X-5000Y0D02*
X5000D01*
M02*
