G04*
G04 #@! TF.GenerationSoftware,Altium Limited,Altium Designer,23.3.1 (30)*
G04*
G04 Layer_Color=32768*
%FSLAX44Y44*%
%MOMM*%
G71*
G04*
G04 #@! TF.SameCoordinates,DCB42576-95BD-42AD-BAF6-B7D1C35FFA17*
G04*
G04*
G04 #@! TF.FilePolarity,Positive*
G04*
G01*
G75*
%ADD11C,0.1000*%
%ADD155C,0.0200*%
%ADD156C,0.0100*%
D11*
X-160000Y880000D02*
G03*
X-160000Y880000I-10000J0D01*
G01*
X-130000D02*
G03*
X-130000Y880000I-10000J0D01*
G01*
X-70000D02*
G03*
X-70000Y880000I-10000J0D01*
G01*
X-100000D02*
G03*
X-100000Y880000I-10000J0D01*
G01*
X182982Y1030000D02*
G03*
X182982Y1030000I-10000J0D01*
G01*
X270000Y1100000D02*
G03*
X270000Y1100000I-10000J0D01*
G01*
X530000Y940000D02*
G03*
X530000Y940000I-10000J0D01*
G01*
X470000Y1020000D02*
G03*
X470000Y1020000I-10000J0D01*
G01*
X530000Y910000D02*
G03*
X530000Y910000I-10000J0D01*
G01*
Y880000D02*
G03*
X530000Y880000I-10000J0D01*
G01*
X420000Y1040000D02*
G03*
X420000Y1040000I-10000J0D01*
G01*
Y1000000D02*
G03*
X420000Y1000000I-10000J0D01*
G01*
X530000Y1020000D02*
G03*
X530000Y1020000I-10000J0D01*
G01*
X30000Y1040000D02*
G03*
X30000Y1040000I-10000J0D01*
G01*
X60000D02*
G03*
X60000Y1040000I-10000J0D01*
G01*
X260000Y850000D02*
G03*
X260000Y850000I-10000J0D01*
G01*
Y800000D02*
G03*
X260000Y800000I-10000J0D01*
G01*
X80000Y980000D02*
G03*
X80000Y980000I-10000J0D01*
G01*
X130000D02*
G03*
X130000Y980000I-10000J0D01*
G01*
X-250000Y970000D02*
G03*
X-250000Y970000I-10000J0D01*
G01*
X-220000Y1050000D02*
G03*
X-220000Y1050000I-10000J0D01*
G01*
X-346800Y970000D02*
G03*
X-346800Y970000I-10000J0D01*
G01*
X-490000Y1000000D02*
G03*
X-490000Y1000000I-10000J0D01*
G01*
D155*
X-72500Y1065000D02*
Y1072500D01*
X-87500Y1065000D02*
Y1072500D01*
X-72500D01*
X-87500Y1065000D02*
X-72500D01*
X-87500Y1087500D02*
X-72500D01*
X-87500Y1095000D02*
X-72500D01*
X-87500Y1087500D02*
Y1095000D01*
X-72500Y1087500D02*
Y1095000D01*
X-133750Y1152500D02*
Y1167500D01*
X-141250Y1152500D02*
Y1167500D01*
Y1152500D02*
X-133750D01*
X-141250Y1167500D02*
X-133750D01*
X-123750Y1152500D02*
Y1167500D01*
X-131250Y1152500D02*
Y1167500D01*
Y1152500D02*
X-123750D01*
X-131250Y1167500D02*
X-123750D01*
X-108750Y1152500D02*
Y1167500D01*
X-116250Y1152500D02*
Y1167500D01*
Y1152500D02*
X-108750D01*
X-116250Y1167500D02*
X-108750D01*
X-98750Y1152500D02*
Y1167500D01*
X-106250Y1152500D02*
Y1167500D01*
Y1152500D02*
X-98750D01*
X-106250Y1167500D02*
X-98750D01*
X414850Y732500D02*
Y747500D01*
X407350Y732500D02*
Y747500D01*
Y732500D02*
X414850D01*
X407350Y747500D02*
X414850D01*
X427550Y732500D02*
Y747500D01*
X420050Y732500D02*
Y747500D01*
Y732500D02*
X427550D01*
X420050Y747500D02*
X427550D01*
X440250Y732500D02*
Y747500D01*
X432750Y732500D02*
Y747500D01*
Y732500D02*
X440250D01*
X432750Y747500D02*
X440250D01*
X465650Y732500D02*
Y747500D01*
X458150Y732500D02*
Y747500D01*
Y732500D02*
X465650D01*
X458150Y747500D02*
X465650D01*
X478350Y732500D02*
Y747500D01*
X470850Y732500D02*
Y747500D01*
Y732500D02*
X478350D01*
X470850Y747500D02*
X478350D01*
X-37500Y1250D02*
X-22500D01*
X-37500Y-6250D02*
X-22500D01*
Y1250D01*
X-37500Y-6250D02*
Y1250D01*
X192500Y593750D02*
X207500D01*
X192500Y586250D02*
X207500D01*
Y593750D01*
X192500Y586250D02*
Y593750D01*
X-7500D02*
X7500D01*
X-7500Y586250D02*
X7500D01*
Y593750D01*
X-7500Y586250D02*
Y593750D01*
X-207500D02*
X-192500D01*
X-207500Y586250D02*
X-192500D01*
Y593750D01*
X-207500Y586250D02*
Y593750D01*
X-137500Y113250D02*
X-122500D01*
X-137500Y105750D02*
X-122500D01*
Y113250D01*
X-137500Y105750D02*
Y113250D01*
X122500Y77500D02*
X137500D01*
X122500Y85000D02*
X137500D01*
X122500Y77500D02*
Y85000D01*
X137500Y77500D02*
Y85000D01*
X122500Y102500D02*
X137500D01*
X122500Y110000D02*
X137500D01*
X122500Y102500D02*
Y110000D01*
X137500Y102500D02*
Y110000D01*
D156*
X-190000Y910000D02*
X-50000D01*
X-190000Y970000D02*
X-50000D01*
X-190000Y910000D02*
Y970000D01*
X-50000Y910000D02*
Y970000D01*
X-139000Y1097500D02*
X-101000D01*
X-139000Y1062500D02*
X-101000D01*
X-139000D02*
Y1097500D01*
X-101000Y1062500D02*
Y1097500D01*
X-72500Y1076250D02*
Y1083750D01*
X-87500Y1076250D02*
X-72500D01*
X-87500Y1083750D02*
X-72500D01*
X-87500Y1076250D02*
Y1083750D01*
X550000Y440000D02*
Y715000D01*
X330000Y440000D02*
X550000D01*
X330000D02*
Y715000D01*
X550000D01*
X37500Y-6250D02*
Y1250D01*
X22500Y-6250D02*
X37500D01*
X22500Y1250D02*
X37500D01*
X22500Y-6250D02*
Y1250D01*
X37500Y3750D02*
Y11250D01*
X22500Y3750D02*
X37500D01*
X22500Y11250D02*
X37500D01*
X22500Y3750D02*
Y11250D01*
X-15000Y-15000D02*
X15000D01*
X-15000Y15000D02*
X15000D01*
X-15000Y-15000D02*
Y15000D01*
X15000Y-15000D02*
Y15000D01*
X192500Y626250D02*
Y633750D01*
X207500D01*
X192500Y626250D02*
X207500D01*
Y633750D01*
X192500Y566250D02*
Y573750D01*
X207500D01*
X192500Y566250D02*
X207500D01*
Y573750D01*
X-7500Y626250D02*
Y633750D01*
X7500D01*
X-7500Y626250D02*
X7500D01*
Y633750D01*
X-7500Y566250D02*
Y573750D01*
X7500D01*
X-7500Y566250D02*
X7500D01*
Y573750D01*
X-207500Y626250D02*
Y633750D01*
X-192500D01*
X-207500Y626250D02*
X-192500D01*
Y633750D01*
X-207500Y566250D02*
Y573750D01*
X-192500D01*
X-207500Y566250D02*
X-192500D01*
Y573750D01*
X-115000Y115000D02*
X-85000D01*
X-115000Y85000D02*
Y115000D01*
Y85000D02*
X-85000D01*
Y115000D01*
X-62500Y86750D02*
Y94250D01*
X-77500Y86750D02*
X-62500D01*
X-77500Y94250D02*
X-62500D01*
X-77500Y86750D02*
Y94250D01*
X-62500Y105750D02*
Y113250D01*
X-77500Y105750D02*
X-62500D01*
X-77500Y113250D02*
X-62500D01*
X-77500Y105750D02*
Y113250D01*
X62500Y115000D02*
Y122500D01*
X77500D01*
X62500Y115000D02*
X77500D01*
Y122500D01*
X62500Y102500D02*
Y110000D01*
X77500D01*
X62500Y102500D02*
X77500D01*
Y110000D01*
X84252Y74346D02*
X115748D01*
Y125654D01*
X84252D02*
X115748D01*
X84252Y74346D02*
Y125654D01*
M02*
