G04*
G04 #@! TF.GenerationSoftware,Altium Limited,Altium Designer,23.3.1 (30)*
G04*
G04 Layer_Color=8388736*
%FSLAX44Y44*%
%MOMM*%
G71*
G04*
G04 #@! TF.SameCoordinates,DCB42576-95BD-42AD-BAF6-B7D1C35FFA17*
G04*
G04*
G04 #@! TF.FilePolarity,Positive*
G04*
G01*
G75*
%ADD11C,0.1000*%
%ADD14C,0.0500*%
%ADD155C,0.0200*%
%ADD156C,0.0100*%
%ADD157C,0.0140*%
D11*
X135000Y1070000D02*
X245000D01*
Y920000D02*
Y1070000D01*
X135000Y920000D02*
X245000D01*
X135000D02*
Y1070000D01*
D14*
X310000Y890000D02*
Y930000D01*
X270000Y890000D02*
Y930000D01*
Y890000D02*
X310000D01*
X270000Y930000D02*
X310000D01*
X458000Y1135000D02*
Y1175000D01*
X498000Y1135000D02*
Y1175000D01*
X458000D02*
X498000D01*
X458000Y1135000D02*
X498000D01*
X273000Y1139000D02*
X307000D01*
X273000Y1121000D02*
Y1139000D01*
X307000Y1121000D02*
Y1139000D01*
X273000Y1121000D02*
X307000D01*
X323000Y1121000D02*
X357000D01*
Y1139000D01*
X323000Y1121000D02*
Y1139000D01*
X357000D01*
X-602298Y965758D02*
X101028D01*
X-602298Y774242D02*
X101028D01*
X-602298D02*
Y965758D01*
X101028Y774242D02*
Y965758D01*
D155*
X-498750Y596500D02*
X-491250D01*
X-498750Y581500D02*
X-491250D01*
Y596500D01*
X-498750Y581500D02*
Y596500D01*
X627500Y946250D02*
Y953750D01*
X612500Y946250D02*
Y953750D01*
Y946250D02*
X627500D01*
X612500Y953750D02*
X627500D01*
Y906250D02*
Y913750D01*
X612500Y906250D02*
Y913750D01*
Y906250D02*
X627500D01*
X612500Y913750D02*
X627500D01*
Y1076250D02*
Y1083750D01*
X612500Y1076250D02*
Y1083750D01*
Y1076250D02*
X627500D01*
X612500Y1083750D02*
X627500D01*
X612500Y1096250D02*
Y1103750D01*
X627500Y1096250D02*
Y1103750D01*
X612500D02*
X627500D01*
X612500Y1096250D02*
X627500D01*
X612500Y966250D02*
Y973750D01*
X627500Y966250D02*
Y973750D01*
X612500D02*
X627500D01*
X612500Y966250D02*
X627500D01*
Y1036250D02*
Y1043750D01*
X612500Y1036250D02*
Y1043750D01*
Y1036250D02*
X627500D01*
X612500Y1043750D02*
X627500D01*
X193500Y767500D02*
Y782500D01*
X186000Y767500D02*
Y782500D01*
X193500D01*
X186000Y767500D02*
X193500D01*
X206500D02*
Y782500D01*
X199000Y767500D02*
Y782500D01*
X206500D01*
X199000Y767500D02*
X206500D01*
X180500D02*
Y782500D01*
X173000Y767500D02*
Y782500D01*
X180500D01*
X173000Y767500D02*
X180500D01*
X154500D02*
Y782500D01*
X147000Y767500D02*
Y782500D01*
X154500D01*
X147000Y767500D02*
X154500D01*
X167500D02*
Y782500D01*
X160000Y767500D02*
Y782500D01*
X167500D01*
X160000Y767500D02*
X167500D01*
X173000Y892500D02*
Y907500D01*
X180500Y892500D02*
Y907500D01*
X173000Y892500D02*
X180500D01*
X173000Y907500D02*
X180500D01*
X199000Y892500D02*
Y907500D01*
X206500Y892500D02*
Y907500D01*
X199000Y892500D02*
X206500D01*
X199000Y907500D02*
X206500D01*
X186000Y892500D02*
Y907500D01*
X193500Y892500D02*
Y907500D01*
X186000Y892500D02*
X193500D01*
X186000Y907500D02*
X193500D01*
X225000Y872500D02*
Y887500D01*
X232500Y872500D02*
Y887500D01*
X225000Y872500D02*
X232500D01*
X225000Y887500D02*
X232500D01*
X219500Y767500D02*
Y782500D01*
X212000Y767500D02*
Y782500D01*
X219500D01*
X212000Y767500D02*
X219500D01*
X232500D02*
Y782500D01*
X225000Y767500D02*
Y782500D01*
X232500D01*
X225000Y767500D02*
X232500D01*
X388750Y767500D02*
Y782500D01*
X381250Y767500D02*
Y782500D01*
X388750D01*
X381250Y767500D02*
X388750D01*
Y747500D02*
Y762500D01*
X381250Y747500D02*
Y762500D01*
X388750D01*
X381250Y747500D02*
X388750D01*
X431250Y767500D02*
Y782500D01*
X438750Y767500D02*
Y782500D01*
X431250Y767500D02*
X438750D01*
X431250Y782500D02*
X438750D01*
X388750Y787500D02*
Y802500D01*
X381250Y787500D02*
Y802500D01*
X388750D01*
X381250Y787500D02*
X388750D01*
X348750D02*
Y802500D01*
X341250Y787500D02*
Y802500D01*
X348750D01*
X341250Y787500D02*
X348750D01*
Y747500D02*
Y762500D01*
X341250Y747500D02*
Y762500D01*
X348750D01*
X341250Y747500D02*
X348750D01*
Y767500D02*
Y782500D01*
X341250Y767500D02*
Y782500D01*
X348750D01*
X341250Y767500D02*
X348750D01*
X303300Y973750D02*
Y981250D01*
X288300Y973750D02*
Y981250D01*
Y973750D02*
X303300D01*
X288300Y981250D02*
X303300D01*
Y936250D02*
Y943750D01*
X288300Y936250D02*
Y943750D01*
Y936250D02*
X303300D01*
X288300Y943750D02*
X303300D01*
X282500Y1063750D02*
X297500D01*
X282500Y1056250D02*
X297500D01*
X282500D02*
Y1063750D01*
X297500Y1056250D02*
Y1063750D01*
X282500Y1036250D02*
X297500D01*
X282500Y1043750D02*
X297500D01*
Y1036250D02*
Y1043750D01*
X282500Y1036250D02*
Y1043750D01*
X430450Y1116750D02*
X445450D01*
X430450Y1124250D02*
X445450D01*
Y1116750D02*
Y1124250D01*
X430450Y1116750D02*
Y1124250D01*
Y1126250D02*
X445450D01*
X430450Y1133750D02*
X445450D01*
Y1126250D02*
Y1133750D01*
X430450Y1126250D02*
Y1133750D01*
X372500Y1126250D02*
X387500D01*
X372500Y1133750D02*
X387500D01*
Y1126250D02*
Y1133750D01*
X372500Y1126250D02*
Y1133750D01*
Y1135750D02*
X387500D01*
X372500Y1143250D02*
X387500D01*
Y1135750D02*
Y1143250D01*
X372500Y1135750D02*
Y1143250D01*
X337500Y1150875D02*
X352500D01*
X337500Y1143375D02*
X352500D01*
X337500D02*
Y1150875D01*
X352500Y1143375D02*
Y1150875D01*
X277500Y1143375D02*
X292500D01*
X277500Y1150875D02*
X292500D01*
Y1143375D02*
Y1150875D01*
X277500Y1143375D02*
Y1150875D01*
X258750Y1124070D02*
Y1139070D01*
X251250Y1124070D02*
Y1139070D01*
X258750D01*
X251250Y1124070D02*
X258750D01*
X248750D02*
Y1139070D01*
X241250Y1124070D02*
Y1139070D01*
X248750D01*
X241250Y1124070D02*
X248750D01*
X186250Y1072500D02*
Y1087500D01*
X193750Y1072500D02*
Y1087500D01*
X186250Y1072500D02*
X193750D01*
X186250Y1087500D02*
X193750D01*
X-508250Y1012500D02*
Y1027500D01*
X-515750Y1012500D02*
Y1027500D01*
X-508250D01*
X-515750Y1012500D02*
X-508250D01*
X-520250D02*
Y1027500D01*
X-527750Y1012500D02*
Y1027500D01*
X-520250D01*
X-527750Y1012500D02*
X-520250D01*
X-446250Y1132500D02*
Y1147500D01*
X-453750Y1132500D02*
Y1147500D01*
X-446250D01*
X-453750Y1132500D02*
X-446250D01*
X-463750D02*
Y1147500D01*
X-456250Y1132500D02*
Y1147500D01*
X-463750Y1132500D02*
X-456250D01*
X-463750Y1147500D02*
X-456250D01*
X-372500Y1086870D02*
X-357500D01*
X-372500Y1094370D02*
X-357500D01*
Y1086870D02*
Y1094370D01*
X-372500Y1086870D02*
Y1094370D01*
X-386250Y1077500D02*
Y1092500D01*
X-393750Y1077500D02*
Y1092500D01*
X-386250D01*
X-393750Y1077500D02*
X-386250D01*
X-393750Y1060000D02*
Y1075000D01*
X-386250Y1060000D02*
Y1075000D01*
X-393750Y1060000D02*
X-386250D01*
X-393750Y1075000D02*
X-386250D01*
X-306250Y995000D02*
Y1010000D01*
X-313750Y995000D02*
Y1010000D01*
X-306250D01*
X-313750Y995000D02*
X-306250D01*
X-247500Y1003750D02*
X-232500D01*
X-247500Y996250D02*
X-232500D01*
X-247500D02*
Y1003750D01*
X-232500Y996250D02*
Y1003750D01*
X-213250Y1132500D02*
Y1147500D01*
X-205750Y1132500D02*
Y1147500D01*
X-213250Y1132500D02*
X-205750D01*
X-213250Y1147500D02*
X-205750D01*
X-196250Y1072500D02*
Y1087500D01*
X-203750Y1072500D02*
Y1087500D01*
X-196250D01*
X-203750Y1072500D02*
X-196250D01*
X-205750D02*
Y1087500D01*
X-213250Y1072500D02*
Y1087500D01*
X-205750D01*
X-213250Y1072500D02*
X-205750D01*
X-194250Y1052500D02*
Y1067500D01*
X-186750Y1052500D02*
Y1067500D01*
X-194250Y1052500D02*
X-186750D01*
X-194250Y1067500D02*
X-186750D01*
X-205750Y992500D02*
Y1007500D01*
X-213250Y992500D02*
Y1007500D01*
X-205750D01*
X-213250Y992500D02*
X-205750D01*
X-76250Y1016700D02*
Y1031700D01*
X-83750Y1016700D02*
Y1031700D01*
X-76250D01*
X-83750Y1016700D02*
X-76250D01*
X-153730Y1050410D02*
Y1065410D01*
X-161230Y1050410D02*
Y1065410D01*
X-153730D01*
X-161230Y1050410D02*
X-153730D01*
X-86300Y1074540D02*
Y1089540D01*
X-78800Y1074540D02*
Y1089540D01*
X-86300Y1074540D02*
X-78800D01*
X-86300Y1089540D02*
X-78800D01*
X-63750Y1101800D02*
Y1116800D01*
X-56250Y1101800D02*
Y1116800D01*
X-63750Y1101800D02*
X-56250D01*
X-63750Y1116800D02*
X-56250D01*
X33200Y1156250D02*
X48200D01*
X33200Y1163750D02*
X48200D01*
Y1156250D02*
Y1163750D01*
X33200Y1156250D02*
Y1163750D01*
X117500Y1133750D02*
X132500D01*
X117500Y1126250D02*
X132500D01*
X117500D02*
Y1133750D01*
X132500Y1126250D02*
Y1133750D01*
X117500Y1123750D02*
X132500D01*
X117500Y1116250D02*
X132500D01*
X117500D02*
Y1123750D01*
X132500Y1116250D02*
Y1123750D01*
X116250Y1026800D02*
Y1041800D01*
X123750Y1026800D02*
Y1041800D01*
X116250Y1026800D02*
X123750D01*
X116250Y1041800D02*
X123750D01*
X43750Y967500D02*
Y982500D01*
X36250Y967500D02*
Y982500D01*
X43750D01*
X36250Y967500D02*
X43750D01*
X33750D02*
Y982500D01*
X26250Y967500D02*
Y982500D01*
X33750D01*
X26250Y967500D02*
X33750D01*
X23750D02*
Y982500D01*
X16250Y967500D02*
Y982500D01*
X23750D01*
X16250Y967500D02*
X23750D01*
X-26250D02*
Y982500D01*
X-33750Y967500D02*
Y982500D01*
X-26250D01*
X-33750Y967500D02*
X-26250D01*
X-323750Y1077500D02*
Y1092500D01*
X-316250Y1077500D02*
Y1092500D01*
X-323750Y1077500D02*
X-316250D01*
X-323750Y1092500D02*
X-316250D01*
X-348750Y581500D02*
Y596500D01*
X-341250Y581500D02*
Y596500D01*
X-348750Y581500D02*
X-341250D01*
X-348750Y596500D02*
X-341250D01*
X-109500Y392500D02*
Y407500D01*
X-102000Y392500D02*
Y407500D01*
X-109500Y392500D02*
X-102000D01*
X-109500Y407500D02*
X-102000D01*
X-63000Y292500D02*
Y307500D01*
X-70500Y292500D02*
Y307500D01*
X-63000D01*
X-70500Y292500D02*
X-63000D01*
X77200Y392500D02*
Y407500D01*
X84700Y392500D02*
Y407500D01*
X77200Y392500D02*
X84700D01*
X77200Y407500D02*
X84700D01*
Y292500D02*
Y307500D01*
X77200Y292500D02*
Y307500D01*
X84700D01*
X77200Y292500D02*
X84700D01*
X148200D02*
Y307500D01*
X140700Y292500D02*
Y307500D01*
X148200D01*
X140700Y292500D02*
X148200D01*
X59300D02*
Y307500D01*
X51800Y292500D02*
Y307500D01*
X59300D01*
X51800Y292500D02*
X59300D01*
X-372400Y652500D02*
Y667500D01*
X-364900Y652500D02*
Y667500D01*
X-372400Y652500D02*
X-364900D01*
X-372400Y667500D02*
X-364900D01*
X-522400Y652500D02*
Y667500D01*
X-514900Y652500D02*
Y667500D01*
X-522400Y652500D02*
X-514900D01*
X-522400Y667500D02*
X-514900D01*
X-347354Y502500D02*
Y517500D01*
X-339854Y502500D02*
Y517500D01*
X-347354Y502500D02*
X-339854D01*
X-347354Y517500D02*
X-339854D01*
X-409854Y502500D02*
Y517500D01*
X-402354Y502500D02*
Y517500D01*
X-409854Y502500D02*
X-402354D01*
X-409854Y517500D02*
X-402354D01*
X-497354Y502500D02*
Y517500D01*
X-489854Y502500D02*
Y517500D01*
X-497354Y502500D02*
X-489854D01*
X-497354Y517500D02*
X-489854D01*
X-559854Y502500D02*
Y517500D01*
X-552354Y502500D02*
Y517500D01*
X-559854Y502500D02*
X-552354D01*
X-559854Y517500D02*
X-552354D01*
X527600Y652500D02*
Y667500D01*
X535100Y652500D02*
Y667500D01*
X527600Y652500D02*
X535100D01*
X527600Y667500D02*
X535100D01*
X551250Y581500D02*
Y596500D01*
X558750Y581500D02*
Y596500D01*
X551250Y581500D02*
X558750D01*
X551250Y596500D02*
X558750D01*
X552646Y502500D02*
Y517500D01*
X560146Y502500D02*
Y517500D01*
X552646Y502500D02*
X560146D01*
X552646Y517500D02*
X560146D01*
X490146Y502500D02*
Y517500D01*
X497646Y502500D02*
Y517500D01*
X490146Y502500D02*
X497646D01*
X490146Y517500D02*
X497646D01*
X377600Y652500D02*
Y667500D01*
X385100Y652500D02*
Y667500D01*
X377600Y652500D02*
X385100D01*
X377600Y667500D02*
X385100D01*
X401250Y581500D02*
Y596500D01*
X408750Y581500D02*
Y596500D01*
X401250Y581500D02*
X408750D01*
X401250Y596500D02*
X408750D01*
X402646Y502500D02*
Y517500D01*
X410146Y502500D02*
Y517500D01*
X402646Y502500D02*
X410146D01*
X402646Y517500D02*
X410146D01*
X340146Y502500D02*
Y517500D01*
X347646Y502500D02*
Y517500D01*
X340146Y502500D02*
X347646D01*
X340146Y517500D02*
X347646D01*
X552500Y1156250D02*
X567500D01*
X552500Y1163750D02*
X567500D01*
Y1156250D02*
Y1163750D01*
X552500Y1156250D02*
Y1163750D01*
X532500Y1156250D02*
X547500D01*
X532500Y1163750D02*
X547500D01*
Y1156250D02*
Y1163750D01*
X532500Y1156250D02*
Y1163750D01*
X572500Y1156250D02*
X587500D01*
X572500Y1163750D02*
X587500D01*
Y1156250D02*
Y1163750D01*
X572500Y1156250D02*
Y1163750D01*
D156*
X626000Y1047500D02*
Y1062500D01*
X614000D02*
X626000D01*
X614000Y1047500D02*
Y1062500D01*
Y1047500D02*
X626000D01*
X627500Y956250D02*
Y963750D01*
X612500Y956250D02*
Y963750D01*
X627500D01*
X612500Y956250D02*
X627500D01*
X612500Y886250D02*
Y893750D01*
Y886250D02*
X627500D01*
X612500Y893750D02*
X627500D01*
Y886250D02*
Y893750D01*
X627500Y896250D02*
Y903750D01*
X612500D02*
X627500D01*
X612500Y896250D02*
X627500D01*
X612500D02*
Y903750D01*
X626000Y917500D02*
Y932500D01*
X614000D02*
X626000D01*
X614000Y917500D02*
Y932500D01*
Y917500D02*
X626000D01*
X627500Y936250D02*
Y943750D01*
X612500D02*
X627500D01*
X612500Y936250D02*
X627500D01*
X612500D02*
Y943750D01*
X627500Y1066250D02*
Y1073750D01*
X612500D02*
X627500D01*
X612500Y1066250D02*
X627500D01*
X612500D02*
Y1073750D01*
X627500Y1086250D02*
Y1093750D01*
X612500Y1086250D02*
Y1093750D01*
X627500D01*
X612500Y1086250D02*
X627500D01*
X612500Y1016250D02*
Y1023750D01*
Y1016250D02*
X627500D01*
X612500Y1023750D02*
X627500D01*
Y1016250D02*
Y1023750D01*
X627500Y1006250D02*
Y1013750D01*
X612500D02*
X627500D01*
X612500Y1006250D02*
X627500D01*
X612500D02*
Y1013750D01*
X627500Y1026250D02*
Y1033750D01*
X612500D02*
X627500D01*
X612500Y1026250D02*
X627500D01*
X612500D02*
Y1033750D01*
X-509700Y652500D02*
X-502200D01*
Y667500D01*
X-509700Y652500D02*
Y667500D01*
X-502200D01*
X140000Y870000D02*
X220000D01*
X140000Y790000D02*
X220000D01*
Y870000D01*
X140000Y790000D02*
Y870000D01*
X147000Y887500D02*
X154500D01*
X147000Y872500D02*
Y887500D01*
X154500Y872500D02*
Y887500D01*
X147000Y872500D02*
X154500D01*
X173000Y887500D02*
X180500D01*
X173000Y872500D02*
Y887500D01*
X180500Y872500D02*
Y887500D01*
X173000Y872500D02*
X180500D01*
X186000Y887500D02*
X193500D01*
X186000Y872500D02*
Y887500D01*
X193500Y872500D02*
Y887500D01*
X186000Y872500D02*
X193500D01*
X199000Y887500D02*
X206500D01*
X199000Y872500D02*
Y887500D01*
X206500Y872500D02*
Y887500D01*
X199000Y872500D02*
X206500D01*
X212000D02*
X219500D01*
Y887500D01*
X212000Y872500D02*
Y887500D01*
X219500D01*
X371250Y762500D02*
X378750D01*
X371250Y747500D02*
Y762500D01*
X378750Y747500D02*
Y762500D01*
X371250Y747500D02*
X378750D01*
X352500Y749000D02*
Y761000D01*
X367500D01*
Y749000D02*
Y761000D01*
X352500Y749000D02*
X367500D01*
X371250Y782500D02*
X378750D01*
X371250Y767500D02*
Y782500D01*
X378750Y767500D02*
Y782500D01*
X371250Y767500D02*
X378750D01*
X402554Y766618D02*
Y783382D01*
Y766618D02*
X427446D01*
Y783382D01*
X402554D02*
X427446D01*
X352500Y769000D02*
Y781000D01*
X367500D01*
Y769000D02*
Y781000D01*
X352500Y769000D02*
X367500D01*
X352500Y789000D02*
Y801000D01*
X367500D01*
Y789000D02*
Y801000D01*
X352500Y789000D02*
X367500D01*
X371250Y802500D02*
X378750D01*
X371250Y787500D02*
Y802500D01*
X378750Y787500D02*
Y802500D01*
X371250Y787500D02*
X378750D01*
X321250D02*
X328750D01*
Y802500D01*
X321250Y787500D02*
Y802500D01*
X328750D01*
X331250D02*
X338750D01*
X331250Y787500D02*
Y802500D01*
X338750Y787500D02*
Y802500D01*
X331250Y787500D02*
X338750D01*
X331250Y762500D02*
X338750D01*
X331250Y747500D02*
Y762500D01*
X338750Y747500D02*
Y762500D01*
X331250Y747500D02*
X338750D01*
X321250D02*
X328750D01*
Y762500D01*
X321250Y747500D02*
Y762500D01*
X328750D01*
X321250Y767500D02*
X328750D01*
Y782500D01*
X321250Y767500D02*
Y782500D01*
X328750D01*
X331250D02*
X338750D01*
X331250Y767500D02*
Y782500D01*
X338750Y767500D02*
Y782500D01*
X331250Y767500D02*
X338750D01*
X565000Y725000D02*
X650000D01*
Y825000D01*
X565000D02*
X650000D01*
X565000Y725000D02*
Y825000D01*
X286250Y967500D02*
X293750D01*
X286250Y952500D02*
Y967500D01*
X293750Y952500D02*
Y967500D01*
X286250Y952500D02*
X293750D01*
X284000Y1092500D02*
X296000D01*
Y1077500D02*
Y1092500D01*
X284000Y1077500D02*
X296000D01*
X284000D02*
Y1092500D01*
X282500Y1066250D02*
Y1073750D01*
Y1066250D02*
X297500D01*
X282500Y1073750D02*
X297500D01*
Y1066250D02*
Y1073750D01*
X282500Y1046250D02*
X297500D01*
X282500Y1053750D02*
X297500D01*
X282500Y1046250D02*
Y1053750D01*
X297500Y1046250D02*
Y1053750D01*
X457625Y1114250D02*
Y1126750D01*
Y1114250D02*
X482625D01*
X457625Y1126750D02*
X482625D01*
Y1114250D02*
Y1126750D01*
X395000Y1145000D02*
X425000D01*
Y1115000D02*
Y1145000D01*
X395000Y1115000D02*
X425000D01*
X395000D02*
Y1145000D01*
X387500Y1116750D02*
Y1124250D01*
X372500D02*
X387500D01*
X372500Y1116750D02*
X387500D01*
X372500D02*
Y1124250D01*
X319000Y1167500D02*
X331500D01*
X319000Y1142500D02*
Y1167500D01*
X331500Y1142500D02*
Y1167500D01*
X319000Y1142500D02*
X331500D01*
X298500Y1167500D02*
X311000D01*
X298500Y1142500D02*
Y1167500D01*
X311000Y1142500D02*
Y1167500D01*
X298500Y1142500D02*
X311000D01*
X169232Y1072500D02*
X176732D01*
Y1087500D01*
X169232Y1072500D02*
Y1087500D01*
X176732D01*
X203268Y1072500D02*
X210768D01*
Y1087500D01*
X203268Y1072500D02*
Y1087500D01*
X210768D01*
X220286D02*
X227786D01*
X220286Y1072500D02*
Y1087500D01*
X227786Y1072500D02*
Y1087500D01*
X220286Y1072500D02*
X227786D01*
X-70000Y1115000D02*
Y1200000D01*
X-170000D02*
X-70000D01*
X-170000Y1115000D02*
Y1200000D01*
Y1115000D02*
X-70000D01*
X-310000Y1200000D02*
X-210000D01*
X-310000Y1140000D02*
X-210000D01*
X-310000D02*
Y1200000D01*
X-210000Y1140000D02*
Y1200000D01*
X-650000Y1030000D02*
Y1130000D01*
X-590000Y1030000D02*
Y1130000D01*
X-650000Y1030000D02*
X-590000D01*
X-650000Y1130000D02*
X-590000D01*
X-575000Y1090000D02*
X-535000D01*
Y1010000D02*
Y1090000D01*
X-575000Y1010000D02*
Y1090000D01*
Y1010000D02*
X-535000D01*
X-530668Y1035776D02*
X-509332D01*
X-530668D02*
Y1064224D01*
X-509332D01*
Y1035776D02*
Y1064224D01*
X-512500Y1093750D02*
Y1101250D01*
X-527500D02*
X-512500D01*
X-527500Y1093750D02*
X-512500D01*
X-527500D02*
Y1101250D01*
X-527500Y1083750D02*
Y1091250D01*
Y1083750D02*
X-512500D01*
X-527500Y1091250D02*
X-512500D01*
Y1083750D02*
Y1091250D01*
X-527500Y1073750D02*
Y1081250D01*
Y1073750D02*
X-512500D01*
X-527500Y1081250D02*
X-512500D01*
Y1073750D02*
Y1081250D01*
X-473750Y1132500D02*
X-466250D01*
Y1147500D01*
X-473750Y1132500D02*
Y1147500D01*
X-466250D01*
X-488750Y1122500D02*
X-476250D01*
Y1147500D01*
X-488750Y1122500D02*
Y1147500D01*
X-476250D01*
X-503750Y1122500D02*
X-491250D01*
Y1147500D01*
X-503750Y1122500D02*
Y1147500D01*
X-491250D01*
X-516250Y1122500D02*
X-503750D01*
Y1147500D01*
X-516250Y1122500D02*
Y1147500D01*
X-503750D01*
X-528750Y1122500D02*
X-516250D01*
Y1147500D01*
X-528750Y1122500D02*
Y1147500D01*
X-516250D01*
X-495000Y1065000D02*
Y1115000D01*
X-445000Y1065000D02*
Y1115000D01*
X-495000D02*
X-445000D01*
X-495000Y1065000D02*
X-445000D01*
X-442800Y1061500D02*
Y1118500D01*
X-397200Y1061500D02*
Y1118500D01*
X-442800Y1061500D02*
X-397200D01*
X-442800Y1118500D02*
X-397200D01*
X-372800Y1091500D02*
Y1148500D01*
X-327200Y1091500D02*
Y1148500D01*
X-372800Y1091500D02*
X-327200D01*
X-372800Y1148500D02*
X-327200D01*
X-326250Y1137500D02*
X-313750D01*
X-326250Y1112500D02*
Y1137500D01*
X-313750Y1112500D02*
Y1137500D01*
X-326250Y1112500D02*
X-313750D01*
X-386250Y1137500D02*
X-373750D01*
X-386250Y1112500D02*
Y1137500D01*
X-373750Y1112500D02*
Y1137500D01*
X-386250Y1112500D02*
X-373750D01*
X-342500Y1086870D02*
Y1094370D01*
Y1086870D02*
X-327500D01*
X-342500Y1094370D02*
X-327500D01*
Y1086870D02*
Y1094370D01*
X-380000Y1025000D02*
Y1075000D01*
X-320000Y1025000D02*
Y1075000D01*
X-380000Y1025000D02*
X-320000D01*
X-380000Y1075000D02*
X-320000D01*
X-503750Y1032500D02*
X-496250D01*
Y1047500D01*
X-503750Y1032500D02*
Y1047500D01*
X-496250D01*
X-493750D02*
X-486250D01*
X-493750Y1032500D02*
Y1047500D01*
X-486250Y1032500D02*
Y1047500D01*
X-493750Y1032500D02*
X-486250D01*
X-483750Y1047500D02*
X-476250D01*
X-483750Y1032500D02*
Y1047500D01*
X-476250Y1032500D02*
Y1047500D01*
X-483750Y1032500D02*
X-476250D01*
X-473750Y1047500D02*
X-466250D01*
X-473750Y1032500D02*
Y1047500D01*
X-466250Y1032500D02*
Y1047500D01*
X-473750Y1032500D02*
X-466250D01*
X-418750Y1050000D02*
X-406250D01*
X-418750Y1025000D02*
Y1050000D01*
X-406250Y1025000D02*
Y1050000D01*
X-418750Y1025000D02*
X-406250D01*
X-433750Y1050000D02*
X-421250D01*
X-433750Y1025000D02*
Y1050000D01*
X-421250Y1025000D02*
Y1050000D01*
X-433750Y1025000D02*
X-421250D01*
X-448750Y1050000D02*
X-436250D01*
X-448750Y1025000D02*
Y1050000D01*
X-436250Y1025000D02*
Y1050000D01*
X-448750Y1025000D02*
X-436250D01*
X-463750Y1050000D02*
X-451250D01*
X-463750Y1025000D02*
Y1050000D01*
X-451250Y1025000D02*
Y1050000D01*
X-463750Y1025000D02*
X-451250D01*
X-436250Y1017500D02*
X-423750D01*
X-436250Y992500D02*
Y1017500D01*
X-423750Y992500D02*
Y1017500D01*
X-436250Y992500D02*
X-423750D01*
X-421250Y1017500D02*
X-408750D01*
X-421250Y992500D02*
Y1017500D01*
X-408750Y992500D02*
Y1017500D01*
X-421250Y992500D02*
X-408750D01*
X-406250Y1017500D02*
X-393750D01*
X-406250Y992500D02*
Y1017500D01*
X-393750Y992500D02*
Y1017500D01*
X-406250Y992500D02*
X-393750D01*
X-391250Y1017500D02*
X-378750D01*
X-391250Y992500D02*
Y1017500D01*
X-378750Y992500D02*
Y1017500D01*
X-391250Y992500D02*
X-378750D01*
X-376250Y1017500D02*
X-363750D01*
X-376250Y992500D02*
Y1017500D01*
X-363750Y992500D02*
Y1017500D01*
X-376250Y992500D02*
X-363750D01*
X-357500Y993750D02*
Y1001250D01*
Y993750D02*
X-342500D01*
X-357500Y1001250D02*
X-342500D01*
Y993750D02*
Y1001250D01*
X-332500Y1013750D02*
Y1021250D01*
Y1013750D02*
X-317500D01*
X-332500Y1021250D02*
X-317500D01*
Y1013750D02*
Y1021250D01*
X-332500Y1003750D02*
Y1011250D01*
Y1003750D02*
X-317500D01*
X-332500Y1011250D02*
X-317500D01*
Y1003750D02*
Y1011250D01*
X-332500Y993750D02*
Y1001250D01*
Y993750D02*
X-317500D01*
X-332500Y1001250D02*
X-317500D01*
Y993750D02*
Y1001250D01*
X-262500Y993750D02*
Y1006250D01*
X-287500D02*
X-262500D01*
X-287500Y993750D02*
X-262500D01*
X-287500D02*
Y1006250D01*
X-300000Y1010000D02*
Y1125000D01*
X-220000D01*
Y1010000D02*
Y1125000D01*
X-300000Y1010000D02*
X-220000D01*
X-203750Y1147500D02*
X-196250D01*
X-203750Y1132500D02*
Y1147500D01*
X-196250Y1132500D02*
Y1147500D01*
X-203750Y1132500D02*
X-196250D01*
X-215000Y1095000D02*
X-185000D01*
Y1125000D01*
X-215000D02*
X-185000D01*
X-215000Y1095000D02*
Y1125000D01*
X-194250Y1087500D02*
X-186750D01*
X-194250Y1072500D02*
Y1087500D01*
X-186750Y1072500D02*
Y1087500D01*
X-194250Y1072500D02*
X-186750D01*
X-203750Y1052500D02*
X-196250D01*
Y1067500D01*
X-203750Y1052500D02*
Y1067500D01*
X-196250D01*
X-213250Y1067500D02*
X-205750D01*
X-213250Y1052500D02*
Y1067500D01*
X-205750Y1052500D02*
Y1067500D01*
X-213250Y1052500D02*
X-205750D01*
X-215000Y1015000D02*
X-185000D01*
Y1045000D01*
X-215000D02*
X-185000D01*
X-215000Y1015000D02*
Y1045000D01*
X-194250Y1007500D02*
X-186750D01*
X-194250Y992500D02*
Y1007500D01*
X-186750Y992500D02*
Y1007500D01*
X-194250Y992500D02*
X-186750D01*
X-203750Y1007500D02*
X-196250D01*
X-203750Y992500D02*
Y1007500D01*
X-196250Y992500D02*
Y1007500D01*
X-203750Y992500D02*
X-196250D01*
X-163750Y1016700D02*
X-156250D01*
Y1031700D01*
X-163750Y1016700D02*
Y1031700D01*
X-156250D01*
X-155560Y984092D02*
X-84440D01*
X-155560D02*
Y1035908D01*
X-84440D01*
Y984092D02*
Y1035908D01*
X-150000Y1052000D02*
X-90000D01*
X-150000Y1088000D02*
X-90000D01*
X-150000Y1052000D02*
Y1088000D01*
X-90000Y1052000D02*
Y1088000D01*
X-63750Y1028200D02*
X-56250D01*
Y1043200D01*
X-63750Y1028200D02*
Y1043200D01*
X-56250D01*
X-63750Y1061800D02*
X-56250D01*
X-63750Y1046800D02*
Y1061800D01*
X-56250Y1046800D02*
Y1061800D01*
X-63750Y1046800D02*
X-56250D01*
X-55000Y1155000D02*
X115000D01*
X-55000Y985000D02*
X115000D01*
Y1155000D01*
X-55000Y985000D02*
Y1155000D01*
X116250Y1026800D02*
X123750D01*
X116250Y1011800D02*
Y1026800D01*
X123750Y1011800D02*
Y1026800D01*
X116250Y1011800D02*
X123750D01*
X-23750Y982500D02*
X-16250D01*
X-23750Y967500D02*
Y982500D01*
X-16250Y967500D02*
Y982500D01*
X-23750Y967500D02*
X-16250D01*
X-110000Y310000D02*
X-30000D01*
X-110000Y390000D02*
X-30000D01*
X-110000Y310000D02*
Y390000D01*
X-30000Y310000D02*
Y390000D01*
X-90000Y392500D02*
X-82500D01*
Y407500D01*
X-90000Y392500D02*
Y407500D01*
X-82500D01*
X-83500Y292500D02*
X-76000D01*
Y307500D01*
X-83500Y292500D02*
Y307500D01*
X-76000D01*
X-96500Y307500D02*
X-89000D01*
X-96500Y292500D02*
Y307500D01*
X-89000Y292500D02*
Y307500D01*
X-96500Y292500D02*
X-89000D01*
X-109500Y307500D02*
X-102000D01*
X-109500Y292500D02*
Y307500D01*
X-102000Y292500D02*
Y307500D01*
X-109500Y292500D02*
X-102000D01*
X-10000Y307500D02*
X-2500D01*
X-10000Y292500D02*
Y307500D01*
X-2500Y292500D02*
Y307500D01*
X-10000Y292500D02*
X-2500D01*
X2500Y307500D02*
X10000D01*
X2500Y292500D02*
Y307500D01*
X10000Y292500D02*
Y307500D01*
X2500Y292500D02*
X10000D01*
X-60000Y210000D02*
X60000D01*
X-60000Y270000D02*
X60000D01*
Y210000D02*
Y270000D01*
X-60000Y210000D02*
Y270000D01*
X64500Y407500D02*
X72000D01*
X64500Y392500D02*
Y407500D01*
X72000Y392500D02*
Y407500D01*
X64500Y392500D02*
X72000D01*
X150000Y315000D02*
Y385000D01*
X50000Y315000D02*
Y385000D01*
X150000D01*
X50000Y315000D02*
X150000D01*
X64500Y307500D02*
X72000D01*
X64500Y292500D02*
Y307500D01*
X72000Y292500D02*
Y307500D01*
X64500Y292500D02*
X72000D01*
X39095Y307500D02*
X46595D01*
X39095Y292500D02*
Y307500D01*
X46595Y292500D02*
Y307500D01*
X39095Y292500D02*
X46595D01*
X-359700Y667500D02*
X-352200D01*
X-359700Y652500D02*
Y667500D01*
X-352200Y652500D02*
Y667500D01*
X-359700Y652500D02*
X-352200D01*
X-385100Y652500D02*
X-377600D01*
Y667500D01*
X-385100Y652500D02*
Y667500D01*
X-377600D01*
X-535100Y652500D02*
X-527600D01*
Y667500D01*
X-535100Y652500D02*
Y667500D01*
X-527600D01*
X-550000Y585000D02*
Y645000D01*
X-500000Y585000D02*
Y645000D01*
X-550000Y585000D02*
X-500000D01*
X-550000Y645000D02*
X-500000D01*
X-400000Y585000D02*
Y645000D01*
X-350000Y585000D02*
Y645000D01*
X-400000Y585000D02*
X-350000D01*
X-400000Y645000D02*
X-350000D01*
X-333750Y571500D02*
X-326250D01*
X-333750Y556500D02*
Y571500D01*
X-326250Y556500D02*
Y571500D01*
X-333750Y556500D02*
X-326250D01*
X-423750Y556500D02*
X-416250D01*
Y571500D01*
X-423750Y556500D02*
Y571500D01*
X-416250D01*
X-483750Y571500D02*
X-476250D01*
X-483750Y556500D02*
Y571500D01*
X-476250Y556500D02*
Y571500D01*
X-483750Y556500D02*
X-476250D01*
X-573750Y556500D02*
X-566250D01*
Y571500D01*
X-573750Y556500D02*
Y571500D01*
X-566250D01*
X-565000Y535000D02*
Y575000D01*
X-485000D01*
X-565000Y535000D02*
X-485000D01*
Y575000D01*
X-415000Y535000D02*
Y575000D01*
X-335000D01*
X-415000Y535000D02*
X-335000D01*
Y575000D01*
X-445000Y440000D02*
X-305000D01*
X-445000Y500000D02*
X-305000D01*
Y440000D02*
Y500000D01*
X-445000Y440000D02*
Y500000D01*
X-595000Y440000D02*
X-455000D01*
X-595000Y500000D02*
X-455000D01*
Y440000D02*
Y500000D01*
X-595000Y440000D02*
Y500000D01*
X-359854Y502500D02*
X-352354D01*
Y517500D01*
X-359854Y502500D02*
Y517500D01*
X-352354D01*
X-397354Y502500D02*
X-389854D01*
Y517500D01*
X-397354Y502500D02*
Y517500D01*
X-389854D01*
X-509854Y502500D02*
X-502354D01*
Y517500D01*
X-509854Y502500D02*
Y517500D01*
X-502354D01*
X-547354Y502500D02*
X-539854D01*
Y517500D01*
X-547354Y502500D02*
Y517500D01*
X-539854D01*
X514900Y652500D02*
X522400D01*
Y667500D01*
X514900Y652500D02*
Y667500D01*
X522400D01*
X540300Y667500D02*
X547800D01*
X540300Y652500D02*
Y667500D01*
X547800Y652500D02*
Y667500D01*
X540300Y652500D02*
X547800D01*
X500000Y585000D02*
Y645000D01*
X550000Y585000D02*
Y645000D01*
X500000Y585000D02*
X550000D01*
X500000Y645000D02*
X550000D01*
X485000Y535000D02*
Y575000D01*
X565000D01*
X485000Y535000D02*
X565000D01*
Y575000D01*
X566250Y571500D02*
X573750D01*
X566250Y556500D02*
Y571500D01*
X573750Y556500D02*
Y571500D01*
X566250Y556500D02*
X573750D01*
X476250Y556500D02*
X483750D01*
Y571500D01*
X476250Y556500D02*
Y571500D01*
X483750D01*
X540146Y502500D02*
X547646D01*
Y517500D01*
X540146Y502500D02*
Y517500D01*
X547646D01*
X502646Y502500D02*
X510146D01*
Y517500D01*
X502646Y502500D02*
Y517500D01*
X510146D01*
X455000Y440000D02*
X595000D01*
X455000Y500000D02*
X595000D01*
Y440000D02*
Y500000D01*
X455000Y440000D02*
Y500000D01*
X390300Y667500D02*
X397800D01*
X390300Y652500D02*
Y667500D01*
X397800Y652500D02*
Y667500D01*
X390300Y652500D02*
X397800D01*
X364900D02*
X372400D01*
Y667500D01*
X364900Y652500D02*
Y667500D01*
X372400D01*
X350000Y585000D02*
Y645000D01*
X400000Y585000D02*
Y645000D01*
X350000Y585000D02*
X400000D01*
X350000Y645000D02*
X400000D01*
X335000Y535000D02*
Y575000D01*
X415000D01*
X335000Y535000D02*
X415000D01*
Y575000D01*
X326250Y556500D02*
X333750D01*
Y571500D01*
X326250Y556500D02*
Y571500D01*
X333750D01*
X416250D02*
X423750D01*
X416250Y556500D02*
Y571500D01*
X423750Y556500D02*
Y571500D01*
X416250Y556500D02*
X423750D01*
X305000Y440000D02*
X445000D01*
X305000Y500000D02*
X445000D01*
Y440000D02*
Y500000D01*
X305000Y440000D02*
Y500000D01*
X390146Y502500D02*
X397646D01*
Y517500D01*
X390146Y502500D02*
Y517500D01*
X397646D01*
X352646Y502500D02*
X360146D01*
Y517500D01*
X352646Y502500D02*
Y517500D01*
X360146D01*
X554000Y1142500D02*
X566000D01*
Y1127500D02*
Y1142500D01*
X554000Y1127500D02*
X566000D01*
X554000D02*
Y1142500D01*
X552500Y1166250D02*
Y1173750D01*
Y1166250D02*
X567500D01*
X552500Y1173750D02*
X567500D01*
Y1166250D02*
Y1173750D01*
Y1146250D02*
Y1153750D01*
X552500D02*
X567500D01*
X552500Y1146250D02*
X567500D01*
X552500D02*
Y1153750D01*
X534000Y1142500D02*
X546000D01*
Y1127500D02*
Y1142500D01*
X534000Y1127500D02*
X546000D01*
X534000D02*
Y1142500D01*
X532500Y1166250D02*
Y1173750D01*
Y1166250D02*
X547500D01*
X532500Y1173750D02*
X547500D01*
Y1166250D02*
Y1173750D01*
Y1146250D02*
Y1153750D01*
X532500D02*
X547500D01*
X532500Y1146250D02*
X547500D01*
X532500D02*
Y1153750D01*
X110000Y455000D02*
X290000D01*
X110000Y745000D02*
X290000D01*
X110000Y455000D02*
Y745000D01*
X290000Y455000D02*
Y745000D01*
X-90000Y455000D02*
X90000D01*
X-90000Y745000D02*
X90000D01*
X-90000Y455000D02*
Y745000D01*
X90000Y455000D02*
Y745000D01*
X-290000Y455000D02*
X-110000D01*
X-290000Y745000D02*
X-110000D01*
X-290000Y455000D02*
Y745000D01*
X-110000Y455000D02*
Y745000D01*
X574000Y1142500D02*
X586000D01*
Y1127500D02*
Y1142500D01*
X574000Y1127500D02*
X586000D01*
X574000D02*
Y1142500D01*
X572500Y1166250D02*
Y1173750D01*
Y1166250D02*
X587500D01*
X572500Y1173750D02*
X587500D01*
Y1166250D02*
Y1173750D01*
Y1146250D02*
Y1153750D01*
X572500D02*
X587500D01*
X572500Y1146250D02*
X587500D01*
X572500D02*
Y1153750D01*
D157*
X226500Y1118500D02*
Y1161500D01*
X153500Y1118500D02*
Y1161500D01*
Y1118500D02*
X226500D01*
X153500Y1161500D02*
X226500D01*
M02*
