M48
;Layer_Color=9474304
;FILE_FORMAT=2:5
INCH,LZ
;TYPE=PLATED
T1F00S00C0.00787
T2F00S00C0.00984
T3F00S00C0.01968
T4F00S00C0.01968
T5F00S00C0.07205
T6F00S00C0.11811
%
T01
X03315Y00279
X0331988Y0041614
X0346457Y0048701
X0350394
X035355Y0041614
X03685Y00276
X04032Y00284
X03978Y00465
X04799Y0023031
X03118Y00318
X02932Y00316
X02754Y00374
X02753Y00474
X0252319Y0043286
X0260053Y00317
X02642Y00271
X0237Y00369
X01766Y00412
X03062Y00463
X01541Y00446
X01592Y0026
X01532Y00571
X01543Y0074
X0133443Y0086024
Y011752
X01545Y01272
X01548Y01502
X01563Y01677
X01583Y01834
X0133443Y0180512
Y0149016
X0101947
Y0180512
X0070451
Y0149016
Y011752
X0101947
Y0086024
X0133443Y0054527
X0038955Y0149016
Y0180512
X0173228Y0161417
Y0158661
Y0155905
X01696Y02048
X0199149Y019907
X0238484Y0198996
X02397Y01716
Y01561
X02517Y01515
X0259842Y0148819
X0263779
X0267717
X02761Y01514
X027559Y0133858
X02821Y0131
X02899Y01263
X02697Y01219
X02593Y01184
X02624Y00961
X0286Y00959
X02899Y00826
X02771Y00794
X02734Y00699
X0267618Y0068248
X0263779
X026001Y0059045
X026752Y0049862
X02766Y00593
X02878Y00545
X02837Y00692
X02973Y00728
X03114Y00757
X0314961Y0068622
X03232Y00805
X03181Y01259
X03192Y01419
X02989Y01519
X03057Y01713
X03061Y01868
X02869Y0176
X02837Y01639
X02708Y01879
X0277854Y0198996
X02416Y01362
X02374Y01263
X02396Y00945
X02403Y00711
X0178Y00735
X0187008Y0103091
X03269Y01099
X03384Y01101
X03399Y00929
X03261Y00924
X0346446Y0080663
X0346457Y0066929
X034252Y0068888
X0334562Y0063533
X033202Y0063529
X0329444Y0063533
X0329397Y0054581
X033197Y0054574
X03602Y00899
X03599Y01015
X0373Y00908
X0378Y01209
X03882Y01155
X03984Y0105
X03994Y01266
X0364173Y0124573
X03445Y01263
X03353Y01313
X03275Y01274
X03274Y01404
X03389Y01407
X03377Y01578
X03283Y01589
X03287Y01776
X03412Y01766
X03405Y01875
X03625Y01709
X0364128Y015374
X0382Y01807
X03989Y01765
X04019Y01655
X03849Y02025
X03749Y02031
X04799Y0180512
Y0149016
Y011752
Y0086024
Y0054527
X03969Y00686
X03979Y00789
X0511396Y0086024
X0542892
Y011752
X0574388
Y0149016
X05745Y01676
X0605884Y0180512
Y0149016
X0542892
Y0180512
X0511396
X05224Y01652
X0511396Y0149016
Y011752
Y0054527
Y0212008
X0542892
X05478Y0234
X0567461Y0231734
Y0236655
X0574388Y0243504
X0582146Y0236655
X0582108Y0231771
Y022685
Y0221929
Y0217008
X05794Y02141
X0605884Y0212008
X06215Y02436
X06209Y03161
X06089Y0314961
X0605884Y0337992
X0582146Y0342954
Y0347876
Y0352797
Y0357718
X0567461
X05468Y03573
X05387Y03382
X0511396Y0337992
Y0306496
Y0275
X05391Y02747
X0582146Y0284941
Y0294783
X0574388Y0306496
Y0337992
X06231Y03503
X0511396Y0243504
X04799
Y0275
Y0306496
X04622Y03276
X04628Y03406
X04627Y035
X03882Y03514
X03824Y03438
X03817Y03296
X03944Y03218
X04008Y03108
X03772Y0299
X0355Y03015
X0348786Y0300573
X0348425Y0304921
Y030748
X03502Y03115
X0360236Y030748
X0348425Y0294685
X03495Y02859
X0348425Y0279921
Y0277362
Y0274803
Y0272244
Y0269685
X0348447Y0267104
X03546Y0269
X0360236Y0269685
Y0267126
Y0264567
X03602Y02582
X0360236Y0252362
Y0249803
Y0244685
Y0242126
Y0237008
X0348425Y0239567
Y0242126
Y0247244
X0339Y02494
X0339823Y0252362
X03388Y02396
X03301Y02407
X0327835Y0237008
Y0247244
X0332Y026
X03383Y0283
X0338Y03001
X032874Y0299803
X03268Y03171
X03362Y03424
X0351378Y0340748
X0357283
X0365945Y0347441
Y0351378
Y0355315
X0369882Y0357283
X0365945Y0361221
X03814Y03609
X0342087Y0361221
Y0357283
Y0353346
X0360236Y0279921
Y0277362
Y0274803
Y0272244
X03644Y02836
X03771Y02568
X0380827Y0252362
Y0242126
X03751Y02263
X03856Y02253
X03511Y02198
X03389Y02216
X0328Y02207
X03333Y02316
X03892Y02648
X04159Y02628
X04799Y0212008
X0311Y02128
X03147Y02248
X0308Y0234
X0302211Y0233616
X03078Y02405
X0313779Y0244882
X0319Y02422
X03157Y02583
X03224Y02671
X03208Y02796
X03105Y02748
X0302362Y0278346
Y0266929
Y0263779
X02998Y02586
X0292Y02554
X0292913Y0244882
X0289764
X0299213
X0302362Y0248031
X02943Y02651
X0289764Y0266929
X0286614
X0283465
X0280315
X02846Y02621
X0280315Y025748
Y0251181
X02571Y02509
X02476Y02486
X02478Y0255
X02537Y02614
X02609Y02708
X0268428Y0266929
X0280315Y0279528
X0282864Y0299488
X0288878Y0304724
X0291437
X0293996
X0296555
X0299114
X0301673
X03129Y03047
X0314Y02895
X02952Y02908
X0293996Y0317323
X0296555
X0299114
X0301673
X0304232
X03097Y0319
X03095Y03335
X02963Y03331
X02815
X02646Y03351
Y03422
X0255433Y0342933
X0252751Y0347272
X02547Y03534
X02658Y03583
Y036145
X0283Y03575
X02913Y03615
X02901Y03174
X028626Y0317382
X0269644Y0311338
X02657Y0311344
Y0308588
X02635Y02932
X02534Y02781
X02423Y02779
X02312Y02794
X02233Y02792
X02193Y02627
X02173Y0251
X02151Y02405
X0206897Y0247827
X019685Y0247805
X01997Y0252
X020406Y0256117
X0204Y02666
X0196858Y0259865
X0189626Y0263583
X0189611Y0256117
X01882Y02522
X01783Y02521
X01703Y02502
X01807Y02598
X01785Y02342
X0196843Y0240332
X02066Y02319
X02269Y02338
X0224788Y0212505
X02147Y02088
X02154Y02174
X018546Y0212571
X01778Y02078
X0256Y02093
X02573Y0218
X0264159Y0212505
X02684Y02332
X02511Y0233
X02923Y02195
X02948Y02089
X02413Y02978
X02428Y03129
X02542Y03167
X0252756Y032126
X0255433Y032561
X0252751Y0329926
X0255433Y0334272
X02629Y03249
X02366Y03257
X02304Y03256
X0232815Y032128
Y0329941
X02376Y03334
X024192Y0338602
Y0342933
X0232Y0353
X02128Y03547
X02049Y03434
X0186Y0348
X01968Y03196
X01751Y03124
X02198Y03008
X02267Y03175
X03254Y03475
X01585Y03585
X01593Y03327
X0133443Y0337992
Y0306496
Y0275
Y0243504
Y0212008
X0101947
Y0243504
Y0275
Y0306496
X0102362Y0316079
X0089351
Y0320016
Y0323953
X0068707Y032861
X0062992Y0330512
Y0338779
X0070451Y0337992
X0101947
X0070451Y0306496
X0062992Y0302666
Y0310934
X0070451Y0275
Y0243504
Y0212008
X0038955
Y0243504
Y0275
X01594Y02655
X01596Y02502
X01589Y02198
X01598Y0297
X01594Y03828
Y04012
X01589Y04166
X01614Y0435
X0133443Y043248
Y0463976
Y0495472
X0101947
Y0463976
Y043248
Y0400984
X0133443
Y0369488
X0101947
X0070451
Y0400984
Y043248
Y0463976
Y0495472
X0038955
Y0463976
Y043248
Y0400984
Y0369488
X01615Y0475
X01833Y04691
X01944Y04579
X01968Y04372
X01936Y0426
X0200787Y04261
X0203878Y041437
Y0409449
X0203878Y0404528
X0196969Y0406988
X01905Y03948
X019061Y0385039
Y0381693
Y0377953
X0177638Y038189
X0177559Y0405217
X01702Y04235
X0179Y04334
X0231Y043
X02323Y04115
X02217Y04033
X02128Y04003
X02127Y03911
X02213Y03893
X02045Y03944
X0203133Y0385433
X0204712Y0381693
X01858Y03638
X02478Y03777
X02555
X02641Y03682
X02658Y0364599
X02678Y03922
X0268898Y0401575
Y0404724
X02703Y04122
X02657Y04201
X02678Y04298
X0296063Y04261
X0299213
X03053Y04237
X03054Y04342
X0313779Y04261
X03101Y04111
X03185Y04119
X03216Y04049
X0313779Y0401575
X0302362Y0404724
X0296063
X0292913
X0289764
X0286614
X0283465
X0280315
Y0395276
Y0388976
Y0382677
X0292913
X0299213
X0302362
Y0385827
X03076Y03791
X0313779Y0382677
X03206Y038
X03204Y03677
X03017Y03668
X0296063Y0366142
X02963Y0394
X02861Y03938
X02515Y03939
X02511Y04109
X02508Y0454
X02526Y0471
X02456Y04889
X02336Y0488
X02337Y04805
X02317Y05024
X02345Y05125
X0245Y05113
X02535Y05019
X02626Y04913
X0269685Y0496457
X0276772Y048937
Y0482283
X0283858
X0290945
X0298031
X0301969Y0476378
X0312205
X03235Y04792
X03194Y0457
X02829Y04567
X02234Y04544
X02062Y04692
X02083Y04992
X0173Y04995
X02623Y05176
X0298797Y0517126
X0304703
X0310608
X0316514
X0322419
X0305118Y0503543
X0298031
X03227Y03938
X03303Y03979
X03363Y03984
X0348031Y0397539
Y039498
Y0392421
Y0389862
Y0387303
Y0384744
Y0382185
X036063
Y0379626
Y0384744
Y0387303
Y0389862
Y0392421
Y039498
Y0397539
Y0402658
Y0405217
Y0407677
X03655Y04186
X03663Y04232
X03546
X03479Y04039
X0348031Y0400098
X0327835Y0402658
X0333Y0412
X03276Y04233
X03278Y04338
X03288Y03878
X0332913Y0365287
X03414Y03669
X0357283Y0367913
X03646Y0366
X0378Y03808
X03753Y03997
X03852Y04004
X04067Y03939
X04195Y03936
X0435Y03944
X04355Y03822
X0411Y0382
X04085Y04056
X04253
X0421Y04119
X0425Y04173
X04344Y04204
X04436Y0414
X046Y04133
X04562Y04194
X04559Y04299
X04694Y04296
X04799Y043248
Y0463976
X045748Y0464567
X04595Y04892
X0445827Y0496201
X0433002Y0496132
X0420315Y0496201
X04028Y04908
X0375984Y0496457
X0368898Y0503543
Y051063
X0346041Y0517126
X0340136
X033423
X0328325
X0347638Y0496457
Y048937
X0354724Y0482283
X03603Y04783
X03517Y0458
X03863Y04586
X03889Y04274
X03769Y04281
X0422047Y0464567
X04799Y0495472
Y0400984
X04628Y03634
X04976Y0363
X0542892Y0369488
X0567461Y0362639
X0574388Y0369488
X0582183Y0362602
X06236Y03628
X06235Y04174
X0605884Y043248
X0582146Y0429568
Y0424647
Y0419726
Y0414805
Y0409883
X0574388Y0400984
X0567461Y0424647
Y0429568
X0574388Y043248
Y0463976
X0605884
Y0400984
X0542892
Y043248
Y0463976
Y0495472
X0574388
X0511396
Y0463976
Y043248
X04871Y04134
X0511396Y0526968
X0542892
X0511396Y0558464
X04799
Y0589961
X04575Y06064
X0427697Y0607736
Y0612736
Y0617736
X04173Y06261
X0387Y06225
X0399075Y0607768
X03952Y05946
X03835
X03678Y05925
X03493Y05955
X035Y06146
X0346041Y0558464
Y0552559
Y0546653
Y0540748
Y0534842
Y0528937
Y0523031
X0340136
Y0528937
Y0534842
Y0540748
Y0546653
Y0552559
Y0558464
X033423
Y0552559
Y0546653
Y0540748
Y0534842
Y0528937
Y0523031
X0328325
Y0528937
Y0534842
Y0540748
Y0546653
Y0552559
Y0558464
X0389355Y0554843
X0403Y05473
X04014Y05201
X03839Y05268
X04289Y05302
X04569Y05215
X0455Y0546
X04799Y0526968
X04318Y05723
X04323Y05959
X04089Y05945
X04042Y05807
X0322835Y0602362
X0318898
X0314961
X0311024
X0307087
X030315
X0299213
X0295276
X0291339
X0287402
X0283465
Y0610236
X0295276
X0299213
X030315
X0314961
X0318898
X0322835
X0322419Y0558464
Y0552559
Y0546653
Y0540748
Y0534842
Y0528937
Y0523031
X0316514
Y0528937
Y0534842
Y0540748
Y0546653
Y0552559
Y0558464
X0310608
Y0552559
Y0546653
Y0540748
Y0534842
Y0528937
Y0523031
X0304703
Y0528937
Y0534842
Y0540748
Y0546653
Y0552559
Y0558464
X0298797
Y0552559
Y0546653
Y0540748
Y0534842
Y0528937
Y0523031
X0283858Y053189
X0264Y05293
X0269685Y0546063
X0276772Y055315
X02769Y05609
X0269685Y0560236
X0276772Y0574409
X02625Y05809
X02549Y05692
X02511Y05651
X0248031Y0557821
X0244094
X0240158
X0236221
X0228346
X02288Y05644
X022938Y0577848
X02239Y05749
X021795Y057185
X0215Y05619
X02134Y05554
X021795Y0549488
X02246Y05527
X02397Y05457
X02539Y05451
X02555Y05527
X02455Y05354
X02345Y0536
X02296Y05274
X02343Y0521
X02237Y05199
X02448Y05222
X02145Y05402
X02034Y05644
X01905
X02056Y05764
X0198Y05949
X01874Y05947
X01763Y05976
Y06074
X01917Y06219
X02112Y06221
X02261Y06097
X0227793Y0600118
X0232283Y0593517
X0236221
X0240158
X0244094
X0248031
X02599Y06004
Y06164
X02403Y06173
X01723Y05539
X0173Y05256
X01613Y05398
X01614Y05757
X0133443Y0589961
Y0558464
Y0526968
X0101947
Y0558464
X0070451Y0526968
T02
X0181102Y05
X0192913Y0492126
Y0519685
X0181102Y0527559
Y0555118
X0192913Y0547244
X01728Y0578937
T03
X0332386Y0007873
X0340367
X0348347
X0356328
X0364308
X0372288
X0380269
X0388249
X039623
X040421
X041219
X0420171
X0428151
X0436132
X0444112
X0452093
X0460073
X0475948Y0023317
Y0030797
Y0038277
Y0045757
X0324406Y0007873
X0316425
X0308445
X0300465
X0292484
X0284504
X0276523
X0268543
X0260562
X0252582
X0244602
X0236621
X0228641
X022066
X021268
X0204699
X0196719
X0188739
X0180758
X0164872Y0023317
X0164872Y0038277
Y0045757
X0007873Y01808
Y018878
Y0196761
Y0204741
X0164872Y0165437
Y0157957
Y0150477
Y0142997
Y0135517
Y0128037
Y0120557
X01649Y00814
X0164872Y0075677
Y0068197
Y0060717
Y0053237
X0181714Y0194573
X0189643
X0197572
X02055
X0213429
X0221358
X0229287
X0237215
X0245144
X0253073
X0261002
X026893
X0276859
X0284788
X0292717
X0300645
X0308574
X0316503
X0324432
X033236
X0340289
X03501Y01946
X03578
X0364075Y0194573
X0372004
X0387862
X0395791
X0403719
X0411648
X0419577
X0427505
X0435434
X0443363
X0451292
X0459221Y0194573
X0475948Y0172917
Y0165437
Y0157957
Y0150477
Y0142997
Y0135517
Y0128037
Y0120557
Y0083157
Y0075677
Y0068197
Y0060717
Y0053237
X0633Y0180758
Y0188739
Y0196719
Y02047
Y021268
Y022066
Y0228641
Y0236621
Y0244602
Y0252582
Y0260562
Y0268543
Y0276523
Y0284504
Y0292484
Y0300465
Y0308445
Y0316425
Y0324406
Y0332386
Y0340367
Y0348347
Y0356328
X0007873Y0356369
Y0348389
Y0340408
Y0332428
Y0324448
Y0316467
Y0308487
Y0300506
Y0292526
Y0284545
Y0276565
Y0268585
Y0260604
Y0252624
Y0244643
Y0236663
Y0228683
Y0220702
Y0212722
Y036435
Y037233
Y0380311
Y0388291
Y0396271
Y0404252
Y0412232
Y0420213
Y0428193
Y0436173
Y0444154
Y0452134
Y0460115
X01648Y0463
X0164873Y0470295
X0164873Y0477591
Y0484886
Y0492181
Y0499476
Y0506771
Y0514067
X0181652Y04463
X0189581Y04463
X019751
X0205439
X0221296
X0229225
X0237154
X0245082
X0253011
X026094
X0268869
X0276798
X0284726
X0292655
X0300584
X0308512
X0316441
X032437
X0332299
X0340228
X0348156
X0356085
X0364014
X0371943
X0379871
X03878
X0395729
X0403658
X0411586
X0419515
X0427444
X0435373
X0443301
X045123
X0459159
X0476Y0463
X0476001Y0470295
X0476001Y0477591
Y0484886
Y0492181
Y0499476
Y0506771
Y0514067
X0633Y0460073
Y0452093
Y0444112
Y0436132
Y0428151
Y0420171
Y041219
Y040421
Y039623
Y0388249
Y0380269
Y0372288
Y0364308
X0476001Y0521362
Y0528657
Y0535952
Y0543248
Y0550543
Y0557838
Y0565133
Y0572428
Y0579724
Y0587019
Y0594314
Y0601609
Y0608905
X0476001Y06162
X0459159Y0633
X045123Y0633
X0443301
X0435373
X0427444
X0419515
X0411586
X0403658
X0395729
X03878
X0379871
X0371943
X0364014
X0356085
X0348156
X0340228
X0332299
X032437
X0316441
X0308512
X0300584
X0292655
X0284726
X0276798
X0268869
X026094
X0253011
X0245082
X0237154
X0229225
X0221296
X0213367
X0205439
X019751
X0189581
X0181652Y0633
X01649Y06162
X0164873Y0608905
Y0601609
Y0594314
Y0579724
Y0572428
Y0565133
Y0557838
Y0550543
Y0543248
Y0535952
Y0528657
Y0521362
T04
X0283465Y0043307
X01591Y0103858
X0216535Y01014
X0255906Y0125858
X0263779Y0120866
X027559
X027559Y0169291
X0263779
X0251969
X0283465Y0074803
Y0059055
X030315
Y0074803
X0326772Y0120079
Y0147638
X0358268Y0137598
Y0161221
X0397648Y016121
X0397638Y0137598
X0423764Y0101397
X0368701
X0507874Y0161201
X0440945Y0259842
Y0271654
X0429134
Y0283465
X0440945
Y0295276
Y0307087
X0429134
Y0295276
Y0338583
Y0350394
X0440945
Y0338583
X0372047Y03243
X0360236
X0348425
X0336614
X0330709Y0216535
X034252
X0318898Y02165
X0307087Y0216535
X0259842Y0287402
X0248031
X0236221
X0204724
X0192913
X0181102
X027559Y0350394
X0287402
X0299213
X0311024
X0324803Y03243
X0240158Y0468504
X0228346
Y0492126
X0240158
X0251969
Y0515748
X0240158
X0228346
X0348425Y04212
X0360236Y04213
X0429134Y042126
X0440945
Y0409449
X0429134
Y0397638
X0440945
Y0385827
X0429134
Y0374016
X0440945
Y0362205
X0429134
X0433071Y0464567
X0397638
X0355374Y06235
X0226378Y0590551
X02169Y0586417
X0204724Y0606299
X0192913
X01728Y0586417
X0228346Y053937
X0240158
X0251969
T05
X0414202Y004848
X0226171
Y006848
X0196171Y0058479
Y0143924
X0226171Y0153924
Y0133924
X0414202
Y0153924
X0444202Y0143924
Y0058479
X0414202Y006848
T06
X0468074Y0015747
X0172798Y0015747
X0015746Y0172799
X0172798Y0186647
X0468074
X0625126Y0172798
X0015747Y0468075
X0172799Y0454226
X0468075
X0625126Y0468074
X0468075Y0625126
X0172799Y0625127
M30
