G04*
G04 #@! TF.GenerationSoftware,Altium Limited,Altium Designer,22.1.2 (22)*
G04*
G04 Layer_Color=32896*
%FSLAX25Y25*%
%MOIN*%
G70*
G04*
G04 #@! TF.SameCoordinates,275DE8A0-DEE6-4034-A094-DBE044462E3A*
G04*
G04*
G04 #@! TF.FilePolarity,Positive*
G04*
G01*
G75*
%ADD42C,0.01000*%
G36*
X-242412Y5513D02*
X-242345D01*
X-242273Y5507D01*
X-242195Y5502D01*
X-242018Y5485D01*
X-241834Y5457D01*
X-241657Y5424D01*
X-241574Y5402D01*
X-241490Y5374D01*
X-241485D01*
X-241474Y5369D01*
X-241452Y5358D01*
X-241424Y5346D01*
X-241385Y5335D01*
X-241346Y5313D01*
X-241252Y5269D01*
X-241152Y5213D01*
X-241041Y5141D01*
X-240941Y5058D01*
X-240847Y4958D01*
Y4952D01*
X-240835Y4947D01*
X-240824Y4930D01*
X-240813Y4908D01*
X-240797Y4880D01*
X-240774Y4853D01*
X-240736Y4769D01*
X-240697Y4669D01*
X-240658Y4553D01*
X-240636Y4414D01*
X-240625Y4264D01*
Y4209D01*
X-240630Y4170D01*
X-240636Y4125D01*
X-240647Y4070D01*
X-240658Y4009D01*
X-240674Y3942D01*
X-240697Y3876D01*
X-240719Y3804D01*
X-240752Y3731D01*
X-240791Y3659D01*
X-240835Y3587D01*
X-240891Y3515D01*
X-240952Y3448D01*
X-241019Y3387D01*
X-241024Y3382D01*
X-241041Y3371D01*
X-241069Y3354D01*
X-241113Y3326D01*
X-241163Y3299D01*
X-241230Y3271D01*
X-241307Y3232D01*
X-241396Y3199D01*
X-241496Y3165D01*
X-241613Y3132D01*
X-241740Y3099D01*
X-241884Y3071D01*
X-242040Y3043D01*
X-242206Y3026D01*
X-242389Y3015D01*
X-242584Y3010D01*
X-242589D01*
X-242612D01*
X-242650D01*
X-242695D01*
X-242756Y3015D01*
X-242822D01*
X-242895Y3021D01*
X-242978Y3026D01*
X-243150Y3043D01*
X-243333Y3071D01*
X-243516Y3104D01*
X-243599Y3126D01*
X-243683Y3149D01*
X-243688D01*
X-243699Y3154D01*
X-243722Y3165D01*
X-243749Y3176D01*
X-243788Y3187D01*
X-243827Y3210D01*
X-243921Y3254D01*
X-244021Y3310D01*
X-244127Y3382D01*
X-244232Y3465D01*
X-244321Y3565D01*
Y3570D01*
X-244332Y3576D01*
X-244343Y3593D01*
X-244354Y3615D01*
X-244376Y3643D01*
X-244393Y3676D01*
X-244437Y3759D01*
X-244476Y3859D01*
X-244515Y3976D01*
X-244537Y4114D01*
X-244549Y4264D01*
Y4314D01*
X-244543Y4375D01*
X-244532Y4447D01*
X-244515Y4531D01*
X-244493Y4619D01*
X-244465Y4714D01*
X-244421Y4803D01*
Y4808D01*
X-244415Y4814D01*
X-244399Y4841D01*
X-244371Y4886D01*
X-244332Y4941D01*
X-244276Y5002D01*
X-244215Y5069D01*
X-244143Y5130D01*
X-244060Y5191D01*
X-244049Y5197D01*
X-244021Y5219D01*
X-243971Y5241D01*
X-243899Y5280D01*
X-243816Y5313D01*
X-243722Y5358D01*
X-243611Y5396D01*
X-243488Y5430D01*
X-243483D01*
X-243472Y5435D01*
X-243455Y5441D01*
X-243427Y5446D01*
X-243394Y5452D01*
X-243355Y5457D01*
X-243305Y5469D01*
X-243250Y5474D01*
X-243189Y5485D01*
X-243122Y5491D01*
X-243044Y5496D01*
X-242967Y5507D01*
X-242878Y5513D01*
X-242789D01*
X-242689Y5519D01*
X-242584D01*
X-242578D01*
X-242556D01*
X-242517D01*
X-242473D01*
X-242412Y5513D01*
D02*
G37*
G36*
Y2527D02*
X-242345D01*
X-242273Y2521D01*
X-242195Y2516D01*
X-242018Y2499D01*
X-241834Y2472D01*
X-241657Y2438D01*
X-241574Y2416D01*
X-241490Y2388D01*
X-241485D01*
X-241474Y2383D01*
X-241452Y2372D01*
X-241424Y2361D01*
X-241385Y2349D01*
X-241346Y2327D01*
X-241252Y2283D01*
X-241152Y2227D01*
X-241041Y2155D01*
X-240941Y2072D01*
X-240847Y1972D01*
Y1966D01*
X-240835Y1961D01*
X-240824Y1944D01*
X-240813Y1922D01*
X-240797Y1894D01*
X-240774Y1867D01*
X-240736Y1783D01*
X-240697Y1683D01*
X-240658Y1567D01*
X-240636Y1428D01*
X-240625Y1278D01*
Y1223D01*
X-240630Y1184D01*
X-240636Y1139D01*
X-240647Y1084D01*
X-240658Y1023D01*
X-240674Y956D01*
X-240697Y890D01*
X-240719Y818D01*
X-240752Y746D01*
X-240791Y673D01*
X-240835Y601D01*
X-240891Y529D01*
X-240952Y462D01*
X-241019Y401D01*
X-241024Y396D01*
X-241041Y385D01*
X-241069Y368D01*
X-241113Y340D01*
X-241163Y313D01*
X-241230Y285D01*
X-241307Y246D01*
X-241396Y213D01*
X-241496Y179D01*
X-241613Y146D01*
X-241740Y113D01*
X-241884Y85D01*
X-242040Y57D01*
X-242206Y41D01*
X-242389Y30D01*
X-242584Y24D01*
X-242589D01*
X-242612D01*
X-242650D01*
X-242695D01*
X-242756Y30D01*
X-242822D01*
X-242895Y35D01*
X-242978Y41D01*
X-243150Y57D01*
X-243333Y85D01*
X-243516Y118D01*
X-243599Y140D01*
X-243683Y163D01*
X-243688D01*
X-243699Y168D01*
X-243722Y179D01*
X-243749Y190D01*
X-243788Y202D01*
X-243827Y224D01*
X-243921Y268D01*
X-244021Y324D01*
X-244127Y396D01*
X-244232Y479D01*
X-244321Y579D01*
Y585D01*
X-244332Y590D01*
X-244343Y607D01*
X-244354Y629D01*
X-244376Y657D01*
X-244393Y690D01*
X-244437Y773D01*
X-244476Y873D01*
X-244515Y990D01*
X-244537Y1128D01*
X-244549Y1278D01*
Y1328D01*
X-244543Y1389D01*
X-244532Y1461D01*
X-244515Y1545D01*
X-244493Y1633D01*
X-244465Y1728D01*
X-244421Y1817D01*
Y1822D01*
X-244415Y1828D01*
X-244399Y1856D01*
X-244371Y1900D01*
X-244332Y1955D01*
X-244276Y2016D01*
X-244215Y2083D01*
X-244143Y2144D01*
X-244060Y2205D01*
X-244049Y2211D01*
X-244021Y2233D01*
X-243971Y2255D01*
X-243899Y2294D01*
X-243816Y2327D01*
X-243722Y2372D01*
X-243611Y2410D01*
X-243488Y2444D01*
X-243483D01*
X-243472Y2449D01*
X-243455Y2455D01*
X-243427Y2460D01*
X-243394Y2466D01*
X-243355Y2472D01*
X-243305Y2483D01*
X-243250Y2488D01*
X-243189Y2499D01*
X-243122Y2505D01*
X-243044Y2510D01*
X-242967Y2521D01*
X-242878Y2527D01*
X-242789D01*
X-242689Y2533D01*
X-242584D01*
X-242578D01*
X-242556D01*
X-242517D01*
X-242473D01*
X-242412Y2527D01*
D02*
G37*
G36*
X-240591Y-681D02*
X-240519Y-686D01*
X-240447Y-703D01*
X-240364Y-720D01*
X-240286Y-747D01*
X-240214Y-781D01*
X-240208Y-786D01*
X-240186Y-803D01*
X-240153Y-825D01*
X-240108Y-864D01*
X-240064Y-908D01*
X-240020Y-964D01*
X-239970Y-1036D01*
X-239931Y-1114D01*
X-240131Y-1247D01*
X-240136Y-1241D01*
X-240142Y-1225D01*
X-240158Y-1197D01*
X-240181Y-1164D01*
X-240208Y-1130D01*
X-240242Y-1092D01*
X-240281Y-1058D01*
X-240325Y-1030D01*
X-240331Y-1025D01*
X-240347Y-1019D01*
X-240380Y-1008D01*
X-240419Y-992D01*
X-240469Y-981D01*
X-240536Y-964D01*
X-240608Y-953D01*
X-240691Y-947D01*
Y-1214D01*
X-241230D01*
Y-675D01*
X-240691D01*
X-240686D01*
X-240680D01*
X-240664D01*
X-240641D01*
X-240591Y-681D01*
D02*
G37*
G36*
X-241701Y-1935D02*
X-241662Y-1941D01*
X-241613Y-1946D01*
X-241557Y-1957D01*
X-241496Y-1974D01*
X-241368Y-2013D01*
X-241296Y-2041D01*
X-241230Y-2080D01*
X-241157Y-2118D01*
X-241091Y-2163D01*
X-241024Y-2218D01*
X-240958Y-2279D01*
X-240952Y-2285D01*
X-240941Y-2296D01*
X-240924Y-2313D01*
X-240908Y-2340D01*
X-240880Y-2379D01*
X-240852Y-2418D01*
X-240824Y-2468D01*
X-240791Y-2523D01*
X-240758Y-2585D01*
X-240730Y-2657D01*
X-240702Y-2734D01*
X-240674Y-2812D01*
X-240658Y-2901D01*
X-240641Y-2995D01*
X-240630Y-3090D01*
X-240625Y-3195D01*
Y-3250D01*
X-240630Y-3289D01*
X-240636Y-3339D01*
X-240641Y-3395D01*
X-240652Y-3456D01*
X-240669Y-3523D01*
X-240708Y-3672D01*
X-240736Y-3750D01*
X-240763Y-3822D01*
X-240802Y-3900D01*
X-240847Y-3978D01*
X-240897Y-4050D01*
X-240958Y-4116D01*
X-240963Y-4122D01*
X-240974Y-4133D01*
X-240991Y-4150D01*
X-241019Y-4172D01*
X-241052Y-4194D01*
X-241091Y-4227D01*
X-241135Y-4255D01*
X-241191Y-4288D01*
X-241246Y-4322D01*
X-241313Y-4349D01*
X-241452Y-4405D01*
X-241535Y-4427D01*
X-241618Y-4444D01*
X-241707Y-4455D01*
X-241796Y-4460D01*
X-241801D01*
X-241812D01*
X-241834D01*
X-241857Y-4455D01*
X-241890D01*
X-241929Y-4449D01*
X-242018Y-4438D01*
X-242118Y-4416D01*
X-242217Y-4383D01*
X-242323Y-4333D01*
X-242423Y-4272D01*
X-242428D01*
X-242434Y-4261D01*
X-242462Y-4238D01*
X-242506Y-4194D01*
X-242562Y-4133D01*
X-242617Y-4055D01*
X-242678Y-3961D01*
X-242728Y-3855D01*
X-242767Y-3728D01*
Y-3733D01*
X-242772Y-3739D01*
X-242778Y-3756D01*
X-242789Y-3778D01*
X-242811Y-3828D01*
X-242845Y-3894D01*
X-242889Y-3966D01*
X-242945Y-4039D01*
X-243005Y-4105D01*
X-243072Y-4166D01*
X-243083Y-4172D01*
X-243106Y-4188D01*
X-243150Y-4211D01*
X-243205Y-4233D01*
X-243278Y-4261D01*
X-243361Y-4283D01*
X-243455Y-4299D01*
X-243555Y-4305D01*
X-243561D01*
X-243572D01*
X-243594D01*
X-243627Y-4299D01*
X-243660Y-4294D01*
X-243705Y-4288D01*
X-243799Y-4266D01*
X-243910Y-4233D01*
X-244027Y-4177D01*
X-244088Y-4144D01*
X-244149Y-4105D01*
X-244204Y-4055D01*
X-244260Y-4005D01*
X-244265Y-4000D01*
X-244271Y-3989D01*
X-244288Y-3972D01*
X-244304Y-3950D01*
X-244326Y-3922D01*
X-244349Y-3883D01*
X-244376Y-3839D01*
X-244404Y-3794D01*
X-244432Y-3739D01*
X-244460Y-3678D01*
X-244482Y-3611D01*
X-244504Y-3539D01*
X-244537Y-3384D01*
X-244543Y-3295D01*
X-244549Y-3206D01*
Y-3156D01*
X-244543Y-3123D01*
X-244537Y-3078D01*
X-244532Y-3029D01*
X-244526Y-2973D01*
X-244510Y-2918D01*
X-244476Y-2784D01*
X-244426Y-2651D01*
X-244393Y-2585D01*
X-244354Y-2518D01*
X-244304Y-2457D01*
X-244254Y-2396D01*
X-244249Y-2390D01*
X-244243Y-2385D01*
X-244227Y-2368D01*
X-244204Y-2346D01*
X-244171Y-2324D01*
X-244138Y-2296D01*
X-244055Y-2240D01*
X-243949Y-2185D01*
X-243827Y-2135D01*
X-243688Y-2096D01*
X-243616Y-2091D01*
X-243538Y-2085D01*
X-243533D01*
X-243527D01*
X-243494D01*
X-243444Y-2091D01*
X-243383Y-2102D01*
X-243305Y-2118D01*
X-243228Y-2146D01*
X-243150Y-2179D01*
X-243072Y-2229D01*
X-243061Y-2235D01*
X-243039Y-2257D01*
X-243005Y-2290D01*
X-242961Y-2335D01*
X-242911Y-2396D01*
X-242861Y-2468D01*
X-242811Y-2551D01*
X-242767Y-2651D01*
Y-2646D01*
X-242761Y-2634D01*
X-242756Y-2618D01*
X-242745Y-2596D01*
X-242717Y-2529D01*
X-242678Y-2451D01*
X-242623Y-2368D01*
X-242562Y-2279D01*
X-242484Y-2196D01*
X-242395Y-2118D01*
X-242389D01*
X-242384Y-2113D01*
X-242351Y-2091D01*
X-242295Y-2057D01*
X-242223Y-2024D01*
X-242134Y-1991D01*
X-242029Y-1957D01*
X-241912Y-1935D01*
X-241785Y-1930D01*
X-241779D01*
X-241762D01*
X-241735D01*
X-241701Y-1935D01*
D02*
G37*
G36*
X-240691Y-7507D02*
X-240697D01*
X-240719D01*
X-240752D01*
X-240797Y-7502D01*
X-240847Y-7496D01*
X-240902Y-7485D01*
X-240958Y-7474D01*
X-241019Y-7452D01*
X-241024D01*
X-241030Y-7446D01*
X-241063Y-7435D01*
X-241113Y-7413D01*
X-241180Y-7380D01*
X-241257Y-7335D01*
X-241346Y-7280D01*
X-241435Y-7219D01*
X-241529Y-7141D01*
X-241535D01*
X-241540Y-7130D01*
X-241574Y-7102D01*
X-241624Y-7052D01*
X-241696Y-6980D01*
X-241779Y-6897D01*
X-241879Y-6791D01*
X-241990Y-6664D01*
X-242106Y-6525D01*
X-242112Y-6520D01*
X-242129Y-6497D01*
X-242156Y-6464D01*
X-242190Y-6425D01*
X-242234Y-6375D01*
X-242284Y-6314D01*
X-242340Y-6253D01*
X-242401Y-6181D01*
X-242534Y-6042D01*
X-242667Y-5903D01*
X-242734Y-5837D01*
X-242800Y-5776D01*
X-242861Y-5720D01*
X-242922Y-5676D01*
X-242928D01*
X-242933Y-5665D01*
X-242950Y-5654D01*
X-242972Y-5643D01*
X-243033Y-5604D01*
X-243106Y-5559D01*
X-243194Y-5520D01*
X-243289Y-5482D01*
X-243394Y-5459D01*
X-243494Y-5448D01*
X-243499D01*
X-243505D01*
X-243538Y-5454D01*
X-243594Y-5459D01*
X-243655Y-5476D01*
X-243733Y-5498D01*
X-243810Y-5537D01*
X-243888Y-5587D01*
X-243966Y-5654D01*
X-243977Y-5665D01*
X-243999Y-5692D01*
X-244027Y-5731D01*
X-244066Y-5792D01*
X-244099Y-5870D01*
X-244132Y-5959D01*
X-244154Y-6064D01*
X-244160Y-6181D01*
Y-6214D01*
X-244154Y-6236D01*
X-244149Y-6303D01*
X-244132Y-6381D01*
X-244110Y-6464D01*
X-244071Y-6558D01*
X-244021Y-6647D01*
X-243955Y-6730D01*
X-243944Y-6741D01*
X-243916Y-6764D01*
X-243871Y-6797D01*
X-243805Y-6830D01*
X-243727Y-6869D01*
X-243627Y-6902D01*
X-243516Y-6925D01*
X-243389Y-6936D01*
X-243439Y-7419D01*
X-243444D01*
X-243461Y-7413D01*
X-243488D01*
X-243527Y-7407D01*
X-243572Y-7396D01*
X-243622Y-7385D01*
X-243683Y-7369D01*
X-243744Y-7352D01*
X-243877Y-7308D01*
X-244010Y-7241D01*
X-244077Y-7202D01*
X-244143Y-7152D01*
X-244204Y-7102D01*
X-244260Y-7047D01*
X-244265Y-7041D01*
X-244271Y-7030D01*
X-244288Y-7013D01*
X-244304Y-6986D01*
X-244326Y-6952D01*
X-244349Y-6914D01*
X-244376Y-6869D01*
X-244404Y-6814D01*
X-244432Y-6753D01*
X-244460Y-6686D01*
X-244482Y-6614D01*
X-244504Y-6536D01*
X-244521Y-6453D01*
X-244537Y-6364D01*
X-244543Y-6270D01*
X-244549Y-6170D01*
Y-6114D01*
X-244543Y-6075D01*
X-244537Y-6031D01*
X-244532Y-5976D01*
X-244521Y-5914D01*
X-244510Y-5853D01*
X-244471Y-5709D01*
X-244415Y-5565D01*
X-244382Y-5493D01*
X-244343Y-5421D01*
X-244293Y-5354D01*
X-244238Y-5293D01*
X-244232Y-5287D01*
X-244227Y-5276D01*
X-244204Y-5265D01*
X-244182Y-5243D01*
X-244154Y-5215D01*
X-244115Y-5187D01*
X-244077Y-5160D01*
X-244027Y-5126D01*
X-243921Y-5071D01*
X-243788Y-5015D01*
X-243722Y-4993D01*
X-243644Y-4982D01*
X-243566Y-4971D01*
X-243483Y-4966D01*
X-243472D01*
X-243444D01*
X-243400Y-4971D01*
X-243338Y-4977D01*
X-243272Y-4988D01*
X-243194Y-5010D01*
X-243111Y-5032D01*
X-243028Y-5065D01*
X-243017Y-5071D01*
X-242989Y-5082D01*
X-242945Y-5104D01*
X-242883Y-5138D01*
X-242817Y-5182D01*
X-242734Y-5237D01*
X-242650Y-5304D01*
X-242556Y-5382D01*
X-242545Y-5393D01*
X-242512Y-5421D01*
X-242484Y-5448D01*
X-242456Y-5476D01*
X-242423Y-5509D01*
X-242378Y-5554D01*
X-242334Y-5598D01*
X-242284Y-5654D01*
X-242229Y-5709D01*
X-242167Y-5776D01*
X-242106Y-5848D01*
X-242034Y-5926D01*
X-241962Y-6014D01*
X-241884Y-6103D01*
X-241879Y-6109D01*
X-241868Y-6120D01*
X-241851Y-6142D01*
X-241829Y-6170D01*
X-241796Y-6203D01*
X-241762Y-6242D01*
X-241690Y-6331D01*
X-241607Y-6425D01*
X-241524Y-6514D01*
X-241452Y-6592D01*
X-241424Y-6625D01*
X-241396Y-6653D01*
X-241390Y-6658D01*
X-241374Y-6675D01*
X-241352Y-6697D01*
X-241318Y-6725D01*
X-241280Y-6753D01*
X-241241Y-6786D01*
X-241146Y-6853D01*
Y-4960D01*
X-240691D01*
Y-7507D01*
D02*
G37*
G36*
X-1816Y-94457D02*
X-1771Y-94463D01*
X-1716Y-94468D01*
X-1655Y-94479D01*
X-1594Y-94490D01*
X-1450Y-94529D01*
X-1305Y-94585D01*
X-1233Y-94618D01*
X-1161Y-94657D01*
X-1094Y-94707D01*
X-1033Y-94762D01*
X-1028Y-94768D01*
X-1017Y-94774D01*
X-1006Y-94796D01*
X-983Y-94818D01*
X-956Y-94846D01*
X-928Y-94885D01*
X-900Y-94923D01*
X-867Y-94973D01*
X-811Y-95079D01*
X-756Y-95212D01*
X-734Y-95279D01*
X-722Y-95356D01*
X-711Y-95434D01*
X-706Y-95517D01*
Y-95528D01*
Y-95556D01*
X-711Y-95600D01*
X-717Y-95661D01*
X-728Y-95728D01*
X-750Y-95806D01*
X-772Y-95889D01*
X-806Y-95972D01*
X-811Y-95983D01*
X-822Y-96011D01*
X-845Y-96056D01*
X-878Y-96117D01*
X-922Y-96183D01*
X-978Y-96266D01*
X-1044Y-96350D01*
X-1122Y-96444D01*
X-1133Y-96455D01*
X-1161Y-96488D01*
X-1189Y-96516D01*
X-1216Y-96544D01*
X-1250Y-96577D01*
X-1294Y-96622D01*
X-1339Y-96666D01*
X-1394Y-96716D01*
X-1450Y-96772D01*
X-1516Y-96833D01*
X-1588Y-96894D01*
X-1666Y-96966D01*
X-1755Y-97038D01*
X-1844Y-97115D01*
X-1849Y-97121D01*
X-1860Y-97132D01*
X-1883Y-97149D01*
X-1910Y-97171D01*
X-1943Y-97204D01*
X-1982Y-97238D01*
X-2071Y-97310D01*
X-2166Y-97393D01*
X-2254Y-97476D01*
X-2332Y-97549D01*
X-2365Y-97576D01*
X-2393Y-97604D01*
X-2399Y-97610D01*
X-2415Y-97626D01*
X-2437Y-97648D01*
X-2465Y-97682D01*
X-2493Y-97720D01*
X-2526Y-97759D01*
X-2593Y-97854D01*
X-700D01*
Y-98309D01*
X-3248D01*
Y-98303D01*
Y-98281D01*
Y-98248D01*
X-3242Y-98203D01*
X-3237Y-98153D01*
X-3226Y-98098D01*
X-3215Y-98042D01*
X-3192Y-97981D01*
Y-97976D01*
X-3187Y-97970D01*
X-3176Y-97937D01*
X-3153Y-97887D01*
X-3120Y-97820D01*
X-3076Y-97743D01*
X-3020Y-97654D01*
X-2959Y-97565D01*
X-2881Y-97471D01*
Y-97465D01*
X-2870Y-97460D01*
X-2843Y-97426D01*
X-2793Y-97376D01*
X-2720Y-97304D01*
X-2637Y-97221D01*
X-2532Y-97121D01*
X-2404Y-97010D01*
X-2265Y-96894D01*
X-2260Y-96888D01*
X-2238Y-96871D01*
X-2204Y-96844D01*
X-2166Y-96810D01*
X-2115Y-96766D01*
X-2055Y-96716D01*
X-1993Y-96661D01*
X-1921Y-96599D01*
X-1783Y-96466D01*
X-1644Y-96333D01*
X-1577Y-96266D01*
X-1516Y-96200D01*
X-1461Y-96139D01*
X-1416Y-96078D01*
Y-96072D01*
X-1405Y-96067D01*
X-1394Y-96050D01*
X-1383Y-96028D01*
X-1344Y-95967D01*
X-1300Y-95895D01*
X-1261Y-95806D01*
X-1222Y-95711D01*
X-1200Y-95606D01*
X-1189Y-95506D01*
Y-95500D01*
Y-95495D01*
X-1194Y-95462D01*
X-1200Y-95406D01*
X-1216Y-95345D01*
X-1239Y-95267D01*
X-1278Y-95190D01*
X-1327Y-95112D01*
X-1394Y-95034D01*
X-1405Y-95023D01*
X-1433Y-95001D01*
X-1472Y-94973D01*
X-1533Y-94934D01*
X-1610Y-94901D01*
X-1699Y-94868D01*
X-1805Y-94846D01*
X-1921Y-94840D01*
X-1955D01*
X-1977Y-94846D01*
X-2043Y-94851D01*
X-2121Y-94868D01*
X-2204Y-94890D01*
X-2299Y-94929D01*
X-2387Y-94979D01*
X-2471Y-95045D01*
X-2482Y-95056D01*
X-2504Y-95084D01*
X-2537Y-95129D01*
X-2571Y-95195D01*
X-2609Y-95273D01*
X-2643Y-95373D01*
X-2665Y-95484D01*
X-2676Y-95612D01*
X-3159Y-95561D01*
Y-95556D01*
X-3153Y-95539D01*
Y-95512D01*
X-3148Y-95473D01*
X-3137Y-95428D01*
X-3126Y-95378D01*
X-3109Y-95317D01*
X-3092Y-95256D01*
X-3048Y-95123D01*
X-2981Y-94990D01*
X-2943Y-94923D01*
X-2892Y-94857D01*
X-2843Y-94796D01*
X-2787Y-94740D01*
X-2782Y-94735D01*
X-2770Y-94729D01*
X-2754Y-94712D01*
X-2726Y-94696D01*
X-2693Y-94674D01*
X-2654Y-94651D01*
X-2609Y-94624D01*
X-2554Y-94596D01*
X-2493Y-94568D01*
X-2426Y-94540D01*
X-2354Y-94518D01*
X-2276Y-94496D01*
X-2193Y-94479D01*
X-2104Y-94463D01*
X-2010Y-94457D01*
X-1910Y-94451D01*
X-1855D01*
X-1816Y-94457D01*
D02*
G37*
G36*
X-4391Y-98309D02*
X-4863D01*
Y-95306D01*
X-4868Y-95312D01*
X-4896Y-95334D01*
X-4929Y-95367D01*
X-4985Y-95406D01*
X-5046Y-95456D01*
X-5124Y-95512D01*
X-5212Y-95573D01*
X-5312Y-95634D01*
X-5318D01*
X-5323Y-95639D01*
X-5357Y-95661D01*
X-5412Y-95689D01*
X-5479Y-95723D01*
X-5557Y-95761D01*
X-5640Y-95800D01*
X-5723Y-95839D01*
X-5806Y-95872D01*
Y-95417D01*
X-5801D01*
X-5790Y-95406D01*
X-5768Y-95401D01*
X-5740Y-95384D01*
X-5706Y-95367D01*
X-5667Y-95345D01*
X-5573Y-95290D01*
X-5462Y-95228D01*
X-5351Y-95151D01*
X-5235Y-95062D01*
X-5118Y-94968D01*
X-5113Y-94962D01*
X-5107Y-94957D01*
X-5090Y-94940D01*
X-5068Y-94923D01*
X-5018Y-94868D01*
X-4952Y-94801D01*
X-4885Y-94723D01*
X-4813Y-94635D01*
X-4752Y-94546D01*
X-4696Y-94451D01*
X-4391D01*
Y-98309D01*
D02*
G37*
G36*
X-7377D02*
X-7849D01*
Y-95306D01*
X-7854Y-95312D01*
X-7882Y-95334D01*
X-7915Y-95367D01*
X-7971Y-95406D01*
X-8032Y-95456D01*
X-8110Y-95512D01*
X-8198Y-95573D01*
X-8298Y-95634D01*
X-8304D01*
X-8309Y-95639D01*
X-8343Y-95661D01*
X-8398Y-95689D01*
X-8465Y-95723D01*
X-8542Y-95761D01*
X-8626Y-95800D01*
X-8709Y-95839D01*
X-8792Y-95872D01*
Y-95417D01*
X-8787D01*
X-8776Y-95406D01*
X-8753Y-95401D01*
X-8726Y-95384D01*
X-8692Y-95367D01*
X-8653Y-95345D01*
X-8559Y-95290D01*
X-8448Y-95228D01*
X-8337Y-95151D01*
X-8221Y-95062D01*
X-8104Y-94968D01*
X-8098Y-94962D01*
X-8093Y-94957D01*
X-8076Y-94940D01*
X-8054Y-94923D01*
X-8004Y-94868D01*
X-7937Y-94801D01*
X-7871Y-94723D01*
X-7799Y-94635D01*
X-7738Y-94546D01*
X-7682Y-94451D01*
X-7377D01*
Y-98309D01*
D02*
G37*
G36*
X5649Y-94457D02*
X5721Y-94468D01*
X5804Y-94485D01*
X5893Y-94507D01*
X5987Y-94535D01*
X6076Y-94579D01*
X6082D01*
X6087Y-94585D01*
X6115Y-94601D01*
X6160Y-94629D01*
X6215Y-94668D01*
X6276Y-94723D01*
X6343Y-94785D01*
X6404Y-94857D01*
X6465Y-94940D01*
X6470Y-94951D01*
X6493Y-94979D01*
X6515Y-95029D01*
X6554Y-95101D01*
X6587Y-95184D01*
X6631Y-95279D01*
X6670Y-95389D01*
X6703Y-95512D01*
Y-95517D01*
X6709Y-95528D01*
X6714Y-95545D01*
X6720Y-95573D01*
X6726Y-95606D01*
X6731Y-95645D01*
X6742Y-95695D01*
X6748Y-95750D01*
X6759Y-95811D01*
X6764Y-95878D01*
X6770Y-95956D01*
X6781Y-96033D01*
X6787Y-96122D01*
Y-96211D01*
X6792Y-96311D01*
Y-96416D01*
Y-96422D01*
Y-96444D01*
Y-96483D01*
Y-96527D01*
X6787Y-96588D01*
Y-96655D01*
X6781Y-96727D01*
X6775Y-96805D01*
X6759Y-96982D01*
X6731Y-97166D01*
X6698Y-97343D01*
X6676Y-97426D01*
X6648Y-97510D01*
Y-97515D01*
X6642Y-97526D01*
X6631Y-97549D01*
X6620Y-97576D01*
X6609Y-97615D01*
X6587Y-97654D01*
X6542Y-97748D01*
X6487Y-97848D01*
X6415Y-97959D01*
X6332Y-98059D01*
X6232Y-98153D01*
X6226D01*
X6221Y-98164D01*
X6204Y-98176D01*
X6182Y-98187D01*
X6154Y-98203D01*
X6126Y-98225D01*
X6043Y-98264D01*
X5943Y-98303D01*
X5827Y-98342D01*
X5688Y-98364D01*
X5538Y-98375D01*
X5482D01*
X5443Y-98370D01*
X5399Y-98364D01*
X5344Y-98353D01*
X5283Y-98342D01*
X5216Y-98326D01*
X5149Y-98303D01*
X5077Y-98281D01*
X5005Y-98248D01*
X4933Y-98209D01*
X4861Y-98164D01*
X4789Y-98109D01*
X4722Y-98048D01*
X4661Y-97981D01*
X4655Y-97976D01*
X4644Y-97959D01*
X4628Y-97931D01*
X4600Y-97887D01*
X4572Y-97837D01*
X4544Y-97771D01*
X4506Y-97693D01*
X4472Y-97604D01*
X4439Y-97504D01*
X4406Y-97387D01*
X4372Y-97260D01*
X4345Y-97115D01*
X4317Y-96960D01*
X4300Y-96794D01*
X4289Y-96610D01*
X4284Y-96416D01*
Y-96411D01*
Y-96389D01*
Y-96350D01*
Y-96305D01*
X4289Y-96244D01*
Y-96178D01*
X4295Y-96105D01*
X4300Y-96022D01*
X4317Y-95850D01*
X4345Y-95667D01*
X4378Y-95484D01*
X4400Y-95401D01*
X4422Y-95317D01*
Y-95312D01*
X4428Y-95301D01*
X4439Y-95279D01*
X4450Y-95251D01*
X4461Y-95212D01*
X4483Y-95173D01*
X4528Y-95079D01*
X4583Y-94979D01*
X4655Y-94873D01*
X4739Y-94768D01*
X4839Y-94679D01*
X4844D01*
X4850Y-94668D01*
X4866Y-94657D01*
X4889Y-94646D01*
X4916Y-94624D01*
X4950Y-94607D01*
X5033Y-94563D01*
X5133Y-94524D01*
X5249Y-94485D01*
X5388Y-94463D01*
X5538Y-94451D01*
X5588D01*
X5649Y-94457D01*
D02*
G37*
G36*
X2663D02*
X2735Y-94468D01*
X2818Y-94485D01*
X2907Y-94507D01*
X3001Y-94535D01*
X3090Y-94579D01*
X3096D01*
X3101Y-94585D01*
X3129Y-94601D01*
X3174Y-94629D01*
X3229Y-94668D01*
X3290Y-94723D01*
X3357Y-94785D01*
X3418Y-94857D01*
X3479Y-94940D01*
X3484Y-94951D01*
X3507Y-94979D01*
X3529Y-95029D01*
X3568Y-95101D01*
X3601Y-95184D01*
X3645Y-95279D01*
X3684Y-95389D01*
X3717Y-95512D01*
Y-95517D01*
X3723Y-95528D01*
X3729Y-95545D01*
X3734Y-95573D01*
X3740Y-95606D01*
X3745Y-95645D01*
X3756Y-95695D01*
X3762Y-95750D01*
X3773Y-95811D01*
X3779Y-95878D01*
X3784Y-95956D01*
X3795Y-96033D01*
X3801Y-96122D01*
Y-96211D01*
X3806Y-96311D01*
Y-96416D01*
Y-96422D01*
Y-96444D01*
Y-96483D01*
Y-96527D01*
X3801Y-96588D01*
Y-96655D01*
X3795Y-96727D01*
X3790Y-96805D01*
X3773Y-96982D01*
X3745Y-97166D01*
X3712Y-97343D01*
X3690Y-97426D01*
X3662Y-97510D01*
Y-97515D01*
X3656Y-97526D01*
X3645Y-97549D01*
X3634Y-97576D01*
X3623Y-97615D01*
X3601Y-97654D01*
X3557Y-97748D01*
X3501Y-97848D01*
X3429Y-97959D01*
X3346Y-98059D01*
X3246Y-98153D01*
X3240D01*
X3235Y-98164D01*
X3218Y-98176D01*
X3196Y-98187D01*
X3168Y-98203D01*
X3140Y-98225D01*
X3057Y-98264D01*
X2957Y-98303D01*
X2841Y-98342D01*
X2702Y-98364D01*
X2552Y-98375D01*
X2496D01*
X2458Y-98370D01*
X2413Y-98364D01*
X2358Y-98353D01*
X2297Y-98342D01*
X2230Y-98326D01*
X2163Y-98303D01*
X2091Y-98281D01*
X2019Y-98248D01*
X1947Y-98209D01*
X1875Y-98164D01*
X1803Y-98109D01*
X1736Y-98048D01*
X1675Y-97981D01*
X1670Y-97976D01*
X1658Y-97959D01*
X1642Y-97931D01*
X1614Y-97887D01*
X1586Y-97837D01*
X1558Y-97771D01*
X1520Y-97693D01*
X1486Y-97604D01*
X1453Y-97504D01*
X1420Y-97387D01*
X1386Y-97260D01*
X1359Y-97115D01*
X1331Y-96960D01*
X1314Y-96794D01*
X1303Y-96610D01*
X1298Y-96416D01*
Y-96411D01*
Y-96389D01*
Y-96350D01*
Y-96305D01*
X1303Y-96244D01*
Y-96178D01*
X1309Y-96105D01*
X1314Y-96022D01*
X1331Y-95850D01*
X1359Y-95667D01*
X1392Y-95484D01*
X1414Y-95401D01*
X1436Y-95317D01*
Y-95312D01*
X1442Y-95301D01*
X1453Y-95279D01*
X1464Y-95251D01*
X1475Y-95212D01*
X1498Y-95173D01*
X1542Y-95079D01*
X1597Y-94979D01*
X1670Y-94873D01*
X1753Y-94768D01*
X1853Y-94679D01*
X1858D01*
X1864Y-94668D01*
X1881Y-94657D01*
X1903Y-94646D01*
X1930Y-94624D01*
X1964Y-94607D01*
X2047Y-94563D01*
X2147Y-94524D01*
X2263Y-94485D01*
X2402Y-94463D01*
X2552Y-94451D01*
X2602D01*
X2663Y-94457D01*
D02*
G37*
G36*
X598Y-98309D02*
Y-98314D01*
Y-98320D01*
Y-98336D01*
Y-98359D01*
X593Y-98409D01*
X587Y-98481D01*
X571Y-98553D01*
X554Y-98636D01*
X526Y-98714D01*
X493Y-98786D01*
X487Y-98792D01*
X471Y-98814D01*
X449Y-98847D01*
X410Y-98892D01*
X365Y-98936D01*
X310Y-98980D01*
X238Y-99030D01*
X160Y-99069D01*
X27Y-98869D01*
X32Y-98864D01*
X49Y-98858D01*
X77Y-98842D01*
X110Y-98819D01*
X143Y-98792D01*
X182Y-98758D01*
X216Y-98720D01*
X243Y-98675D01*
X249Y-98670D01*
X254Y-98653D01*
X265Y-98620D01*
X282Y-98581D01*
X293Y-98531D01*
X310Y-98464D01*
X321Y-98392D01*
X326Y-98309D01*
X60D01*
Y-97771D01*
X598D01*
Y-98309D01*
D02*
G37*
%LPC*%
G36*
X-242412Y5036D02*
X-242584D01*
X-242589D01*
X-242595D01*
X-242623D01*
X-242673D01*
X-242739Y5030D01*
X-242811D01*
X-242900Y5024D01*
X-242994Y5019D01*
X-243100Y5008D01*
X-243311Y4980D01*
X-243416Y4964D01*
X-243516Y4941D01*
X-243611Y4919D01*
X-243699Y4886D01*
X-243777Y4853D01*
X-243844Y4814D01*
X-243849D01*
X-243855Y4803D01*
X-243871Y4791D01*
X-243894Y4775D01*
X-243944Y4725D01*
X-244005Y4664D01*
X-244060Y4580D01*
X-244110Y4486D01*
X-244132Y4436D01*
X-244149Y4381D01*
X-244154Y4320D01*
X-244160Y4259D01*
Y4225D01*
X-244154Y4203D01*
X-244143Y4142D01*
X-244127Y4070D01*
X-244093Y3987D01*
X-244043Y3898D01*
X-244010Y3853D01*
X-243977Y3809D01*
X-243932Y3770D01*
X-243882Y3731D01*
X-243877D01*
X-243866Y3720D01*
X-243844Y3709D01*
X-243816Y3692D01*
X-243772Y3676D01*
X-243722Y3654D01*
X-243660Y3637D01*
X-243588Y3615D01*
X-243505Y3593D01*
X-243411Y3570D01*
X-243305Y3548D01*
X-243189Y3532D01*
X-243056Y3515D01*
X-242911Y3504D01*
X-242756Y3498D01*
X-242584Y3493D01*
X-242573D01*
X-242545D01*
X-242495D01*
X-242428Y3498D01*
X-242356D01*
X-242267Y3504D01*
X-242173Y3509D01*
X-242073Y3520D01*
X-241857Y3548D01*
X-241751Y3565D01*
X-241651Y3587D01*
X-241557Y3609D01*
X-241468Y3643D01*
X-241390Y3676D01*
X-241324Y3715D01*
X-241318D01*
X-241313Y3726D01*
X-241274Y3754D01*
X-241224Y3804D01*
X-241168Y3865D01*
X-241113Y3948D01*
X-241063Y4042D01*
X-241024Y4148D01*
X-241019Y4203D01*
X-241013Y4264D01*
Y4298D01*
X-241019Y4320D01*
X-241030Y4375D01*
X-241052Y4453D01*
X-241091Y4536D01*
X-241146Y4631D01*
X-241180Y4675D01*
X-241224Y4719D01*
X-241268Y4764D01*
X-241324Y4808D01*
X-241329D01*
X-241340Y4819D01*
X-241357Y4830D01*
X-241385Y4841D01*
X-241424Y4864D01*
X-241474Y4880D01*
X-241529Y4902D01*
X-241596Y4925D01*
X-241679Y4941D01*
X-241768Y4964D01*
X-241873Y4986D01*
X-241984Y5002D01*
X-242118Y5013D01*
X-242256Y5024D01*
X-242412Y5036D01*
D02*
G37*
G36*
Y2050D02*
X-242584D01*
X-242589D01*
X-242595D01*
X-242623D01*
X-242673D01*
X-242739Y2044D01*
X-242811D01*
X-242900Y2039D01*
X-242994Y2033D01*
X-243100Y2022D01*
X-243311Y1994D01*
X-243416Y1978D01*
X-243516Y1955D01*
X-243611Y1933D01*
X-243699Y1900D01*
X-243777Y1867D01*
X-243844Y1828D01*
X-243849D01*
X-243855Y1817D01*
X-243871Y1805D01*
X-243894Y1789D01*
X-243944Y1739D01*
X-244005Y1678D01*
X-244060Y1595D01*
X-244110Y1500D01*
X-244132Y1450D01*
X-244149Y1395D01*
X-244154Y1334D01*
X-244160Y1273D01*
Y1239D01*
X-244154Y1217D01*
X-244143Y1156D01*
X-244127Y1084D01*
X-244093Y1001D01*
X-244043Y912D01*
X-244010Y868D01*
X-243977Y823D01*
X-243932Y784D01*
X-243882Y746D01*
X-243877D01*
X-243866Y734D01*
X-243844Y723D01*
X-243816Y707D01*
X-243772Y690D01*
X-243722Y668D01*
X-243660Y651D01*
X-243588Y629D01*
X-243505Y607D01*
X-243411Y585D01*
X-243305Y562D01*
X-243189Y546D01*
X-243056Y529D01*
X-242911Y518D01*
X-242756Y512D01*
X-242584Y507D01*
X-242573D01*
X-242545D01*
X-242495D01*
X-242428Y512D01*
X-242356D01*
X-242267Y518D01*
X-242173Y524D01*
X-242073Y535D01*
X-241857Y562D01*
X-241751Y579D01*
X-241651Y601D01*
X-241557Y623D01*
X-241468Y657D01*
X-241390Y690D01*
X-241324Y729D01*
X-241318D01*
X-241313Y740D01*
X-241274Y768D01*
X-241224Y818D01*
X-241168Y879D01*
X-241113Y962D01*
X-241063Y1056D01*
X-241024Y1162D01*
X-241019Y1217D01*
X-241013Y1278D01*
Y1312D01*
X-241019Y1334D01*
X-241030Y1389D01*
X-241052Y1467D01*
X-241091Y1550D01*
X-241146Y1645D01*
X-241180Y1689D01*
X-241224Y1733D01*
X-241268Y1778D01*
X-241324Y1822D01*
X-241329D01*
X-241340Y1833D01*
X-241357Y1844D01*
X-241385Y1856D01*
X-241424Y1878D01*
X-241474Y1894D01*
X-241529Y1916D01*
X-241596Y1939D01*
X-241679Y1955D01*
X-241768Y1978D01*
X-241873Y2000D01*
X-241984Y2016D01*
X-242118Y2028D01*
X-242256Y2039D01*
X-242412Y2050D01*
D02*
G37*
G36*
X-243544Y-2568D02*
X-243549D01*
X-243555D01*
X-243588D01*
X-243638Y-2579D01*
X-243699Y-2590D01*
X-243766Y-2612D01*
X-243838Y-2646D01*
X-243910Y-2690D01*
X-243982Y-2751D01*
X-243988Y-2757D01*
X-244010Y-2784D01*
X-244038Y-2823D01*
X-244071Y-2873D01*
X-244104Y-2940D01*
X-244132Y-3012D01*
X-244154Y-3101D01*
X-244160Y-3195D01*
Y-3239D01*
X-244149Y-3289D01*
X-244138Y-3356D01*
X-244115Y-3428D01*
X-244088Y-3506D01*
X-244043Y-3578D01*
X-243982Y-3650D01*
X-243977Y-3656D01*
X-243955Y-3678D01*
X-243916Y-3706D01*
X-243866Y-3733D01*
X-243805Y-3767D01*
X-243733Y-3794D01*
X-243655Y-3817D01*
X-243566Y-3822D01*
X-243561D01*
X-243555D01*
X-243522Y-3817D01*
X-243472Y-3811D01*
X-243411Y-3800D01*
X-243338Y-3778D01*
X-243266Y-3750D01*
X-243189Y-3706D01*
X-243122Y-3650D01*
X-243117Y-3645D01*
X-243094Y-3617D01*
X-243067Y-3578D01*
X-243039Y-3528D01*
X-243005Y-3461D01*
X-242978Y-3384D01*
X-242956Y-3295D01*
X-242950Y-3195D01*
Y-3184D01*
X-242956Y-3151D01*
X-242961Y-3101D01*
X-242972Y-3034D01*
X-242994Y-2962D01*
X-243022Y-2890D01*
X-243067Y-2812D01*
X-243122Y-2746D01*
X-243128Y-2740D01*
X-243155Y-2718D01*
X-243189Y-2690D01*
X-243239Y-2657D01*
X-243300Y-2623D01*
X-243372Y-2596D01*
X-243455Y-2573D01*
X-243544Y-2568D01*
D02*
G37*
G36*
X-241779Y-2413D02*
X-241785D01*
X-241796D01*
X-241812D01*
X-241834Y-2418D01*
X-241896Y-2424D01*
X-241979Y-2440D01*
X-242062Y-2468D01*
X-242156Y-2507D01*
X-242251Y-2562D01*
X-242340Y-2640D01*
X-242351Y-2651D01*
X-242373Y-2679D01*
X-242412Y-2729D01*
X-242456Y-2795D01*
X-242495Y-2879D01*
X-242534Y-2979D01*
X-242556Y-3090D01*
X-242567Y-3212D01*
Y-3245D01*
X-242562Y-3267D01*
X-242556Y-3328D01*
X-242539Y-3406D01*
X-242512Y-3495D01*
X-242473Y-3584D01*
X-242417Y-3678D01*
X-242345Y-3761D01*
X-242334Y-3772D01*
X-242306Y-3794D01*
X-242256Y-3828D01*
X-242195Y-3867D01*
X-242112Y-3911D01*
X-242018Y-3944D01*
X-241912Y-3966D01*
X-241796Y-3978D01*
X-241785D01*
X-241762D01*
X-241723Y-3972D01*
X-241673Y-3966D01*
X-241613Y-3955D01*
X-241546Y-3939D01*
X-241479Y-3917D01*
X-241407Y-3889D01*
X-241402Y-3883D01*
X-241374Y-3872D01*
X-241340Y-3850D01*
X-241302Y-3817D01*
X-241252Y-3778D01*
X-241202Y-3728D01*
X-241157Y-3672D01*
X-241113Y-3606D01*
X-241108Y-3595D01*
X-241096Y-3572D01*
X-241080Y-3534D01*
X-241063Y-3484D01*
X-241046Y-3423D01*
X-241030Y-3350D01*
X-241019Y-3273D01*
X-241013Y-3195D01*
Y-3162D01*
X-241019Y-3139D01*
X-241024Y-3073D01*
X-241041Y-2995D01*
X-241069Y-2906D01*
X-241102Y-2812D01*
X-241157Y-2723D01*
X-241230Y-2634D01*
X-241241Y-2623D01*
X-241268Y-2601D01*
X-241318Y-2562D01*
X-241379Y-2523D01*
X-241457Y-2485D01*
X-241551Y-2446D01*
X-241662Y-2424D01*
X-241779Y-2413D01*
D02*
G37*
G36*
X5532Y-94840D02*
X5499D01*
X5477Y-94846D01*
X5416Y-94857D01*
X5344Y-94873D01*
X5260Y-94907D01*
X5172Y-94957D01*
X5127Y-94990D01*
X5083Y-95023D01*
X5044Y-95068D01*
X5005Y-95118D01*
Y-95123D01*
X4994Y-95134D01*
X4983Y-95156D01*
X4966Y-95184D01*
X4950Y-95228D01*
X4927Y-95279D01*
X4911Y-95340D01*
X4889Y-95412D01*
X4866Y-95495D01*
X4844Y-95589D01*
X4822Y-95695D01*
X4805Y-95811D01*
X4789Y-95944D01*
X4778Y-96089D01*
X4772Y-96244D01*
X4766Y-96416D01*
Y-96427D01*
Y-96455D01*
Y-96505D01*
X4772Y-96572D01*
Y-96644D01*
X4778Y-96733D01*
X4783Y-96827D01*
X4794Y-96927D01*
X4822Y-97143D01*
X4839Y-97249D01*
X4861Y-97349D01*
X4883Y-97443D01*
X4916Y-97532D01*
X4950Y-97610D01*
X4989Y-97676D01*
Y-97682D01*
X5000Y-97687D01*
X5027Y-97726D01*
X5077Y-97776D01*
X5138Y-97831D01*
X5221Y-97887D01*
X5316Y-97937D01*
X5421Y-97976D01*
X5477Y-97981D01*
X5538Y-97987D01*
X5571D01*
X5593Y-97981D01*
X5649Y-97970D01*
X5727Y-97948D01*
X5810Y-97909D01*
X5904Y-97854D01*
X5949Y-97820D01*
X5993Y-97776D01*
X6037Y-97732D01*
X6082Y-97676D01*
Y-97671D01*
X6093Y-97659D01*
X6104Y-97643D01*
X6115Y-97615D01*
X6137Y-97576D01*
X6154Y-97526D01*
X6176Y-97471D01*
X6198Y-97404D01*
X6215Y-97321D01*
X6237Y-97232D01*
X6259Y-97127D01*
X6276Y-97016D01*
X6287Y-96882D01*
X6298Y-96744D01*
X6309Y-96588D01*
Y-96416D01*
Y-96411D01*
Y-96405D01*
Y-96377D01*
Y-96327D01*
X6304Y-96261D01*
Y-96189D01*
X6298Y-96100D01*
X6293Y-96006D01*
X6282Y-95900D01*
X6254Y-95689D01*
X6237Y-95584D01*
X6215Y-95484D01*
X6193Y-95389D01*
X6160Y-95301D01*
X6126Y-95223D01*
X6087Y-95156D01*
Y-95151D01*
X6076Y-95145D01*
X6065Y-95129D01*
X6049Y-95106D01*
X5999Y-95056D01*
X5937Y-94995D01*
X5854Y-94940D01*
X5760Y-94890D01*
X5710Y-94868D01*
X5654Y-94851D01*
X5593Y-94846D01*
X5532Y-94840D01*
D02*
G37*
G36*
X2547D02*
X2513D01*
X2491Y-94846D01*
X2430Y-94857D01*
X2358Y-94873D01*
X2275Y-94907D01*
X2186Y-94957D01*
X2141Y-94990D01*
X2097Y-95023D01*
X2058Y-95068D01*
X2019Y-95118D01*
Y-95123D01*
X2008Y-95134D01*
X1997Y-95156D01*
X1980Y-95184D01*
X1964Y-95228D01*
X1942Y-95279D01*
X1925Y-95340D01*
X1903Y-95412D01*
X1881Y-95495D01*
X1858Y-95589D01*
X1836Y-95695D01*
X1819Y-95811D01*
X1803Y-95944D01*
X1792Y-96089D01*
X1786Y-96244D01*
X1781Y-96416D01*
Y-96427D01*
Y-96455D01*
Y-96505D01*
X1786Y-96572D01*
Y-96644D01*
X1792Y-96733D01*
X1797Y-96827D01*
X1808Y-96927D01*
X1836Y-97143D01*
X1853Y-97249D01*
X1875Y-97349D01*
X1897Y-97443D01*
X1930Y-97532D01*
X1964Y-97610D01*
X2003Y-97676D01*
Y-97682D01*
X2014Y-97687D01*
X2041Y-97726D01*
X2091Y-97776D01*
X2152Y-97831D01*
X2236Y-97887D01*
X2330Y-97937D01*
X2435Y-97976D01*
X2491Y-97981D01*
X2552Y-97987D01*
X2585D01*
X2607Y-97981D01*
X2663Y-97970D01*
X2741Y-97948D01*
X2824Y-97909D01*
X2918Y-97854D01*
X2963Y-97820D01*
X3007Y-97776D01*
X3052Y-97732D01*
X3096Y-97676D01*
Y-97671D01*
X3107Y-97659D01*
X3118Y-97643D01*
X3129Y-97615D01*
X3151Y-97576D01*
X3168Y-97526D01*
X3190Y-97471D01*
X3212Y-97404D01*
X3229Y-97321D01*
X3251Y-97232D01*
X3274Y-97127D01*
X3290Y-97016D01*
X3301Y-96882D01*
X3312Y-96744D01*
X3323Y-96588D01*
Y-96416D01*
Y-96411D01*
Y-96405D01*
Y-96377D01*
Y-96327D01*
X3318Y-96261D01*
Y-96189D01*
X3312Y-96100D01*
X3307Y-96006D01*
X3296Y-95900D01*
X3268Y-95689D01*
X3251Y-95584D01*
X3229Y-95484D01*
X3207Y-95389D01*
X3174Y-95301D01*
X3140Y-95223D01*
X3101Y-95156D01*
Y-95151D01*
X3090Y-95145D01*
X3079Y-95129D01*
X3063Y-95106D01*
X3013Y-95056D01*
X2952Y-94995D01*
X2868Y-94940D01*
X2774Y-94890D01*
X2724Y-94868D01*
X2669Y-94851D01*
X2607Y-94846D01*
X2547Y-94840D01*
D02*
G37*
%LPD*%
D42*
X-245000Y-49118D02*
X-243000Y-55118D01*
X-241000Y-49118D01*
X-243000Y55118D02*
X-241000Y49118D01*
X-245000D02*
X-243000Y55118D01*
Y-55118D02*
Y-8507D01*
Y6519D02*
Y55118D01*
X-244000Y-55118D02*
X-210161D01*
X-244000Y55118D02*
X-209402D01*
X-220472Y-96000D02*
X-214472Y-94000D01*
X-220472Y-96000D02*
X-214472Y-98000D01*
X214472D02*
X220472Y-96000D01*
X214472Y-94000D02*
X220472Y-96000D01*
X-220472D02*
X-9792D01*
X7792D02*
X220472D01*
X-220472Y-97000D02*
Y-44807D01*
X220472Y-97000D02*
Y-44807D01*
M02*
