G04*
G04 #@! TF.GenerationSoftware,Altium Limited,Altium Designer,22.1.2 (22)*
G04*
G04 Layer_Color=32896*
%FSLAX25Y25*%
%MOIN*%
G70*
G04*
G04 #@! TF.SameCoordinates,275DE8A0-DEE6-4034-A094-DBE044462E3A*
G04*
G04*
G04 #@! TF.FilePolarity,Positive*
G04*
G01*
G75*
%ADD43C,0.00039*%
%ADD44C,0.00079*%
D43*
X156693Y-16535D02*
Y54331D01*
X172441Y-16535D02*
Y54331D01*
X156693D02*
X172441D01*
X156693Y-16535D02*
X172441D01*
X163583Y18898D02*
X165551D01*
X164567Y17913D02*
Y19882D01*
X-172441Y-16535D02*
Y54331D01*
X-156693Y-16535D02*
Y54331D01*
X-172441D02*
X-156693D01*
X-172441Y-16535D02*
X-156693D01*
X-165551Y18898D02*
X-163583D01*
X-164567Y17913D02*
Y19882D01*
X-32854Y-9843D02*
X-30886D01*
X-31870Y-10827D02*
Y-8858D01*
X-30394Y-12795D02*
Y-6890D01*
X-33347Y-12795D02*
Y-6890D01*
Y-12795D02*
X-30394D01*
X-33347Y-6890D02*
X-30394D01*
X-47854Y-9843D02*
X-45886D01*
X-46870Y-10827D02*
Y-8858D01*
X-45394Y-12795D02*
Y-6890D01*
X-48346Y-12795D02*
Y-6890D01*
Y-12795D02*
X-45394D01*
X-48346Y-6890D02*
X-45394D01*
X-40354Y7874D02*
X-38386D01*
X-39370Y6890D02*
Y8858D01*
X-49213Y-3937D02*
Y19685D01*
X-29528D01*
X-49213Y-3937D02*
X-29528D01*
Y19685D01*
X-91535Y31496D02*
X-89567D01*
X-90551Y30512D02*
Y32480D01*
X-89075Y28543D02*
Y34449D01*
X-92028Y28543D02*
Y34449D01*
Y28543D02*
X-89075D01*
X-92028Y34449D02*
X-89075D01*
X62992Y11811D02*
Y27559D01*
X31496Y11811D02*
Y27559D01*
Y11811D02*
X62992D01*
X31496Y27559D02*
X62992D01*
X46260Y19685D02*
X48228D01*
X47244Y18701D02*
Y20669D01*
X43024Y2953D02*
X45976D01*
Y-2953D02*
Y2953D01*
X43024Y-2953D02*
X45976D01*
X43024D02*
Y2953D01*
X44500Y-984D02*
Y984D01*
X43516Y0D02*
X45484D01*
X48024Y2953D02*
X50976D01*
Y-2953D02*
Y2953D01*
X48024Y-2953D02*
X50976D01*
X48024D02*
Y2953D01*
X49500Y-984D02*
Y984D01*
X48516Y0D02*
X50484D01*
X48516Y7874D02*
X50484D01*
X49500Y6890D02*
Y8858D01*
X50976Y4921D02*
Y10827D01*
X48024Y4921D02*
Y10827D01*
Y4921D02*
X50976D01*
X48024Y10827D02*
X50976D01*
X43516Y7874D02*
X45484D01*
X44500Y6890D02*
Y8858D01*
X45976Y4921D02*
Y10827D01*
X43024Y4921D02*
Y10827D01*
Y4921D02*
X45976D01*
X43024Y10827D02*
X45976D01*
X54016Y7874D02*
X55984D01*
X55000Y6890D02*
Y8858D01*
X56476Y4921D02*
Y10827D01*
X53524Y4921D02*
Y10827D01*
Y4921D02*
X56476D01*
X53524Y10827D02*
X56476D01*
X38516Y7874D02*
X40484D01*
X39500Y6890D02*
Y8858D01*
X38024Y4921D02*
Y10827D01*
X40976Y4921D02*
Y10827D01*
X38024D02*
X40976D01*
X38024Y4921D02*
X40976D01*
X-129921Y-20669D02*
Y-18701D01*
X-130905Y-19685D02*
X-128937D01*
X-132874Y-18209D02*
X-126969D01*
X-132874Y-21161D02*
X-126969D01*
Y-18209D01*
X-132874Y-21161D02*
Y-18209D01*
X-129921Y-24606D02*
Y-22638D01*
X-130905Y-23622D02*
X-128937D01*
X-132874Y-25098D02*
X-126969D01*
X-132874Y-22146D02*
X-126969D01*
X-132874Y-25098D02*
Y-22146D01*
X-126969Y-25098D02*
Y-22146D01*
X-129921Y-30512D02*
Y-28543D01*
X-130905Y-29528D02*
X-128937D01*
X-132283Y-32480D02*
X-127559D01*
X-132283D02*
Y-26575D01*
X-127559D01*
Y-32480D02*
Y-26575D01*
X-129921Y-40354D02*
Y-38386D01*
X-130905Y-39370D02*
X-128937D01*
X-132874Y-40846D02*
X-126969D01*
X-132874Y-37894D02*
X-126969D01*
X-132874Y-40846D02*
Y-37894D01*
X-126969Y-40846D02*
Y-37894D01*
X-129921Y-44291D02*
Y-42323D01*
X-130905Y-43307D02*
X-128937D01*
X-132874Y-44783D02*
X-126969D01*
X-132874Y-41831D02*
X-126969D01*
X-132874Y-44783D02*
Y-41831D01*
X-126969Y-44783D02*
Y-41831D01*
X-114173Y-20669D02*
Y-18701D01*
X-115157Y-19685D02*
X-113189D01*
X-117126Y-18209D02*
X-111221D01*
X-117126Y-21161D02*
X-111221D01*
Y-18209D01*
X-117126Y-21161D02*
Y-18209D01*
X-114173Y-24606D02*
Y-22638D01*
X-115157Y-23622D02*
X-113189D01*
X-117126Y-25098D02*
X-111221D01*
X-117126Y-22146D02*
X-111221D01*
X-117126Y-25098D02*
Y-22146D01*
X-111221Y-25098D02*
Y-22146D01*
X-114173Y-30512D02*
Y-28543D01*
X-115157Y-29528D02*
X-113189D01*
X-116535Y-32480D02*
X-111811D01*
X-116535D02*
Y-26575D01*
X-111811D01*
Y-32480D02*
Y-26575D01*
X-114173Y-40354D02*
Y-38386D01*
X-115157Y-39370D02*
X-113189D01*
X-117126Y-40846D02*
X-111221D01*
X-117126Y-37894D02*
X-111221D01*
X-117126Y-40846D02*
Y-37894D01*
X-111221Y-40846D02*
Y-37894D01*
X-114173Y-44291D02*
Y-42323D01*
X-115157Y-43307D02*
X-113189D01*
X-117126Y-41831D02*
X-111221D01*
X-117126Y-44783D02*
X-111221D01*
Y-41831D01*
X-117126Y-44783D02*
Y-41831D01*
X-132247Y-6126D02*
Y21874D01*
X-111847D01*
Y-6126D02*
Y21874D01*
X-132247Y-6126D02*
X-111847D01*
X-123031Y7874D02*
X-121063D01*
X-122047Y6890D02*
Y8858D01*
X-102362Y27559D02*
X-62992D01*
Y-11811D02*
Y27559D01*
X-102362Y-11811D02*
X-62992D01*
X-102362D02*
Y27559D01*
X-82677Y6890D02*
Y8858D01*
X-83661Y7874D02*
X-81693D01*
X-66929Y-30512D02*
Y-28543D01*
X-67913Y-29528D02*
X-65945D01*
X-69291Y-32480D02*
X-64567D01*
X-69291D02*
Y-26575D01*
X-64567D01*
Y-32480D02*
Y-26575D01*
X-66929Y-40354D02*
Y-38386D01*
X-67913Y-39370D02*
X-65945D01*
X-69882Y-40846D02*
X-63976D01*
X-69882Y-37894D02*
X-63976D01*
X-69882Y-40846D02*
Y-37894D01*
X-63976Y-40846D02*
Y-37894D01*
X-66929Y-44291D02*
Y-42323D01*
X-67913Y-43307D02*
X-65945D01*
X-69882Y-41831D02*
X-63976D01*
X-69882Y-44783D02*
X-63976D01*
Y-41831D01*
X-69882Y-44783D02*
Y-41831D01*
X-82677Y-44291D02*
Y-42323D01*
X-83661Y-43307D02*
X-81693D01*
X-85630Y-41831D02*
X-79724D01*
X-85630Y-44783D02*
X-79724D01*
Y-41831D01*
X-85630Y-44783D02*
Y-41831D01*
X-82677Y-40354D02*
Y-38386D01*
X-83661Y-39370D02*
X-81693D01*
X-85630Y-40846D02*
X-79724D01*
X-85630Y-37894D02*
X-79724D01*
X-85630Y-40846D02*
Y-37894D01*
X-79724Y-40846D02*
Y-37894D01*
X-82677Y-30512D02*
Y-28543D01*
X-83661Y-29528D02*
X-81693D01*
X-85039Y-32480D02*
X-80315D01*
X-85039D02*
Y-26575D01*
X-80315D01*
Y-32480D02*
Y-26575D01*
X-98425Y-30512D02*
Y-28543D01*
X-99410Y-29528D02*
X-97441D01*
X-100787Y-32480D02*
X-96063D01*
X-100787D02*
Y-26575D01*
X-96063D01*
Y-32480D02*
Y-26575D01*
X-98425Y-44291D02*
Y-42323D01*
X-99410Y-43307D02*
X-97441D01*
X-101378Y-41831D02*
X-95472D01*
X-101378Y-44783D02*
X-95472D01*
Y-41831D01*
X-101378Y-44783D02*
Y-41831D01*
X-98425Y-40354D02*
Y-38386D01*
X-99410Y-39370D02*
X-97441D01*
X-101378Y-40846D02*
X-95472D01*
X-101378Y-37894D02*
X-95472D01*
X-101378Y-40846D02*
Y-37894D01*
X-95472Y-40846D02*
Y-37894D01*
X-48228Y55118D02*
X-46260D01*
X-47244Y54134D02*
Y56102D01*
X-19685Y47244D02*
Y70866D01*
X-74803D02*
X-19685D01*
X-74803Y47244D02*
Y70866D01*
Y47244D02*
X-19685D01*
X23622D02*
X70866D01*
X23622D02*
Y70866D01*
X70866D01*
Y47244D02*
Y70866D01*
X47244Y54134D02*
Y56102D01*
X46260Y55118D02*
X48228D01*
X-82677Y-24606D02*
Y-22638D01*
X-83661Y-23622D02*
X-81693D01*
X-85630Y-22146D02*
X-79724D01*
X-85630Y-25098D02*
X-79724D01*
Y-22146D01*
X-85630Y-25098D02*
Y-22146D01*
X-98425Y-24606D02*
Y-22638D01*
X-99410Y-23622D02*
X-97441D01*
X-101378Y-22146D02*
X-95472D01*
X-101378Y-25098D02*
X-95472D01*
Y-22146D01*
X-101378Y-25098D02*
Y-22146D01*
X-66929Y-24606D02*
Y-22638D01*
X-67913Y-23622D02*
X-65945D01*
X-69882Y-22146D02*
X-63976D01*
X-69882Y-25098D02*
X-63976D01*
Y-22146D01*
X-69882Y-25098D02*
Y-22146D01*
X0Y61911D02*
Y64273D01*
X-1181Y63092D02*
X1181D01*
X-4900Y59692D02*
X4900D01*
X-4900D02*
Y66292D01*
X4900D01*
Y59692D02*
Y66292D01*
X-106299Y14764D02*
Y16732D01*
X-107283Y15748D02*
X-105315D01*
X-109252Y17224D02*
X-103347D01*
X-109252Y14272D02*
X-103347D01*
Y17224D01*
X-109252Y14272D02*
Y17224D01*
D44*
X-48346Y22638D02*
X-45394D01*
X-47854Y25591D02*
X-45886D01*
X-46870Y24606D02*
Y26575D01*
X-48346Y22638D02*
Y28543D01*
X-45394Y22638D02*
Y28543D01*
X-48346D02*
X-45394D01*
X-95177Y28543D02*
X-92224D01*
X-94685Y31496D02*
X-92716D01*
X-93701Y30512D02*
Y32480D01*
X-95177Y28543D02*
Y34449D01*
X-92224Y28543D02*
Y34449D01*
X-95177D02*
X-92224D01*
X-132874Y-36909D02*
Y-33957D01*
X-129921Y-36417D02*
Y-34449D01*
X-130905Y-35433D02*
X-128937D01*
X-132874Y-33957D02*
X-126969D01*
X-132874Y-36909D02*
X-126969D01*
Y-33957D01*
X-117126Y-36909D02*
Y-33957D01*
X-114173Y-36417D02*
Y-34449D01*
X-115157Y-35433D02*
X-113189D01*
X-117126Y-33957D02*
X-111221D01*
X-117126Y-36909D02*
X-111221D01*
Y-33957D01*
X-62008Y4823D02*
Y7776D01*
X-59055Y5315D02*
Y7283D01*
X-60039Y6299D02*
X-58071D01*
X-62008Y7776D02*
X-56102D01*
X-62008Y4823D02*
X-56102D01*
Y7776D01*
X-103347Y7972D02*
Y10925D01*
X-106299Y8465D02*
Y10433D01*
X-107283Y9449D02*
X-105315D01*
X-109252Y7972D02*
X-103347D01*
X-109252Y10925D02*
X-103347D01*
X-109252Y7972D02*
Y10925D01*
X-103347Y1673D02*
Y4626D01*
X-106299Y2165D02*
Y4134D01*
X-107283Y3150D02*
X-105315D01*
X-109252Y1673D02*
X-103347D01*
X-109252Y4626D02*
X-103347D01*
X-109252Y1673D02*
Y4626D01*
X-69882Y-36909D02*
Y-33957D01*
X-66929Y-36417D02*
Y-34449D01*
X-67913Y-35433D02*
X-65945D01*
X-69882Y-33957D02*
X-63976D01*
X-69882Y-36909D02*
X-63976D01*
Y-33957D01*
X-85630Y-36909D02*
Y-33957D01*
X-82677Y-36417D02*
Y-34449D01*
X-83661Y-35433D02*
X-81693D01*
X-85630Y-33957D02*
X-79724D01*
X-85630Y-36909D02*
X-79724D01*
Y-33957D01*
X-101378Y-36909D02*
Y-33957D01*
X-98425Y-36417D02*
Y-34449D01*
X-99410Y-35433D02*
X-97441D01*
X-101378Y-33957D02*
X-95472D01*
X-101378Y-36909D02*
X-95472D01*
Y-33957D01*
X-109252Y17421D02*
Y20374D01*
X-106299Y17913D02*
Y19882D01*
X-107283Y18898D02*
X-105315D01*
X-109252Y20374D02*
X-103347D01*
X-109252Y17421D02*
X-103347D01*
Y20374D01*
M02*
