G04*
G04 #@! TF.GenerationSoftware,Altium Limited,Altium Designer,22.1.2 (22)*
G04*
G04 Layer_Physical_Order=4*
G04 Layer_Color=16711680*
%FSLAX25Y25*%
%MOIN*%
G70*
G04*
G04 #@! TF.SameCoordinates,275DE8A0-DEE6-4034-A094-DBE044462E3A*
G04*
G04*
G04 #@! TF.FilePolarity,Positive*
G04*
G01*
G75*
%ADD41C,0.01968*%
G36*
X76292Y70364D02*
X77715Y70080D01*
X79057Y69524D01*
X80264Y68717D01*
X81290Y67690D01*
X82096Y66483D01*
X82652Y65142D01*
X82935Y63718D01*
X82935Y62992D01*
X82940Y62968D01*
X82936Y62943D01*
X82972Y62220D01*
X82990Y62148D01*
Y62074D01*
X83272Y60656D01*
X83310Y60565D01*
X83329Y60468D01*
X83882Y59133D01*
X83937Y59051D01*
X83975Y58959D01*
X84778Y57758D01*
X84847Y57688D01*
X84902Y57605D01*
X85924Y56583D01*
X86007Y56529D01*
X86076Y56459D01*
X87278Y55656D01*
X87369Y55618D01*
X87452Y55563D01*
X88787Y55010D01*
X88884Y54991D01*
X88975Y54953D01*
X90393Y54671D01*
X90467D01*
X90539Y54653D01*
X91262Y54617D01*
X91286Y54621D01*
X91311Y54616D01*
X209403D01*
X210872Y54423D01*
X212304Y54039D01*
X213674Y53472D01*
X214958Y52730D01*
X216134Y51828D01*
X217182Y50780D01*
X218085Y49604D01*
X218826Y48320D01*
X219393Y46950D01*
X219777Y45518D01*
X219970Y44048D01*
Y43307D01*
Y-43004D01*
X219969Y-43033D01*
X219973Y-43058D01*
X219974Y-43117D01*
X219961Y-43259D01*
X219969Y-43326D01*
X219970Y-43343D01*
X219970Y-44048D01*
X219777Y-45518D01*
X219393Y-46950D01*
X218826Y-48320D01*
X218085Y-49604D01*
X217182Y-50780D01*
X216134Y-51828D01*
X214958Y-52730D01*
X213674Y-53472D01*
X212304Y-54039D01*
X210872Y-54423D01*
X209403Y-54616D01*
X208685D01*
X208656Y-54615D01*
X208631Y-54619D01*
X208572Y-54620D01*
X208430Y-54607D01*
X208364Y-54614D01*
X208346Y-54616D01*
X22881D01*
X21411Y-54423D01*
X19979Y-54039D01*
X18609Y-53472D01*
X17326Y-52730D01*
X16150Y-51828D01*
X15101Y-50780D01*
X14199Y-49604D01*
X13457Y-48320D01*
X12890Y-46950D01*
X12506Y-45518D01*
X12313Y-44048D01*
Y-43307D01*
Y31496D01*
X12309Y31516D01*
X12312Y31536D01*
X12277Y32423D01*
X12263Y32481D01*
X12266Y32540D01*
X11988Y34293D01*
X11961Y34368D01*
X11951Y34446D01*
X11403Y36134D01*
X11364Y36203D01*
X11343Y36280D01*
X10537Y37861D01*
X10488Y37923D01*
X10455Y37995D01*
X9412Y39431D01*
X9353Y39485D01*
X9309Y39551D01*
X8055Y40805D01*
X7989Y40850D01*
X7935Y40908D01*
X6499Y41951D01*
X6427Y41984D01*
X6365Y42033D01*
X4783Y42839D01*
X4707Y42860D01*
X4638Y42899D01*
X2950Y43447D01*
X2871Y43457D01*
X2797Y43484D01*
X1044Y43762D01*
X965Y43759D01*
X887Y43774D01*
X-887D01*
X-965Y43759D01*
X-1044Y43762D01*
X-2797Y43484D01*
X-2871Y43457D01*
X-2950Y43447D01*
X-4638Y42899D01*
X-4707Y42860D01*
X-4783Y42839D01*
X-6365Y42033D01*
X-6427Y41984D01*
X-6499Y41951D01*
X-7935Y40908D01*
X-7989Y40850D01*
X-8055Y40805D01*
X-9309Y39551D01*
X-9353Y39485D01*
X-9412Y39431D01*
X-10455Y37995D01*
X-10488Y37923D01*
X-10537Y37861D01*
X-11343Y36280D01*
X-11364Y36203D01*
X-11403Y36134D01*
X-11951Y34446D01*
X-11961Y34368D01*
X-11988Y34293D01*
X-12266Y32540D01*
X-12263Y32481D01*
X-12277Y32423D01*
X-12312Y31535D01*
X-12309Y31516D01*
X-12313Y31496D01*
Y-43307D01*
Y-44048D01*
X-12506Y-45518D01*
X-12890Y-46950D01*
X-13457Y-48320D01*
X-14199Y-49604D01*
X-15101Y-50780D01*
X-16150Y-51828D01*
X-17326Y-52730D01*
X-18609Y-53472D01*
X-19979Y-54039D01*
X-21411Y-54423D01*
X-22881Y-54616D01*
X-209403D01*
X-210872Y-54423D01*
X-212304Y-54039D01*
X-213674Y-53472D01*
X-214958Y-52730D01*
X-216134Y-51828D01*
X-217182Y-50780D01*
X-218085Y-49604D01*
X-218826Y-48320D01*
X-219393Y-46950D01*
X-219777Y-45518D01*
X-219970Y-44048D01*
Y-43307D01*
Y43307D01*
Y44048D01*
X-219777Y45518D01*
X-219393Y46950D01*
X-218826Y48320D01*
X-218085Y49604D01*
X-217182Y50780D01*
X-216134Y51828D01*
X-214958Y52730D01*
X-213674Y53472D01*
X-212304Y54039D01*
X-210872Y54423D01*
X-209403Y54616D01*
X-208786D01*
X-208701Y54559D01*
X-208631Y54545D01*
X-208567Y54515D01*
X-208441Y54508D01*
X-208414Y54502D01*
X-208387Y54493D01*
X-208371Y54494D01*
X-208317Y54483D01*
X-208246D01*
X-208192Y54494D01*
X-208176Y54493D01*
X-208149Y54502D01*
X-208122Y54508D01*
X-207996Y54515D01*
X-207932Y54545D01*
X-207862Y54559D01*
X-207777Y54616D01*
X-90551Y54616D01*
X-90527Y54621D01*
X-90502Y54617D01*
X-89779Y54653D01*
X-89707Y54671D01*
X-89633D01*
X-88215Y54953D01*
X-88124Y54991D01*
X-88027Y55010D01*
X-86692Y55563D01*
X-86610Y55618D01*
X-86518Y55656D01*
X-85317Y56459D01*
X-85247Y56529D01*
X-85164Y56583D01*
X-84143Y57605D01*
X-84088Y57688D01*
X-84018Y57758D01*
X-83215Y58959D01*
X-83177Y59051D01*
X-83122Y59133D01*
X-82569Y60468D01*
X-82550Y60565D01*
X-82512Y60656D01*
X-82230Y62074D01*
Y62148D01*
X-82212Y62220D01*
X-82176Y62943D01*
X-82180Y62968D01*
X-82175Y62992D01*
Y63718D01*
X-81892Y65143D01*
X-81336Y66484D01*
X-80529Y67691D01*
X-79503Y68718D01*
X-78295Y69525D01*
X-76954Y70081D01*
X-75529Y70364D01*
X75563D01*
X76292Y70364D01*
D02*
G37*
%LPC*%
G36*
X7874Y66169D02*
X7336Y66062D01*
X6881Y65757D01*
X6576Y65301D01*
X6469Y64764D01*
X6576Y64226D01*
X6881Y63770D01*
X7336Y63466D01*
X7874Y63359D01*
X8412Y63466D01*
X8867Y63770D01*
X9172Y64226D01*
X9279Y64764D01*
X9172Y65301D01*
X8867Y65757D01*
X8412Y66062D01*
X7874Y66169D01*
D02*
G37*
G36*
X-7874D02*
X-8412Y66062D01*
X-8867Y65757D01*
X-9172Y65301D01*
X-9279Y64764D01*
X-9172Y64226D01*
X-8867Y63770D01*
X-8412Y63466D01*
X-7874Y63359D01*
X-7336Y63466D01*
X-6881Y63770D01*
X-6576Y64226D01*
X-6469Y64764D01*
X-6576Y65301D01*
X-6881Y65757D01*
X-7336Y66062D01*
X-7874Y66169D01*
D02*
G37*
G36*
X7874Y62625D02*
X7336Y62519D01*
X6881Y62214D01*
X6576Y61758D01*
X6469Y61221D01*
X6576Y60683D01*
X6881Y60227D01*
X7336Y59922D01*
X7874Y59816D01*
X8412Y59922D01*
X8867Y60227D01*
X9172Y60683D01*
X9279Y61221D01*
X9172Y61758D01*
X8867Y62214D01*
X8412Y62519D01*
X7874Y62625D01*
D02*
G37*
G36*
X-7874D02*
X-8412Y62519D01*
X-8867Y62214D01*
X-9172Y61758D01*
X-9279Y61221D01*
X-9172Y60683D01*
X-8867Y60227D01*
X-8412Y59922D01*
X-7874Y59816D01*
X-7336Y59922D01*
X-6881Y60227D01*
X-6576Y60683D01*
X-6469Y61221D01*
X-6576Y61758D01*
X-6881Y62214D01*
X-7336Y62519D01*
X-7874Y62625D01*
D02*
G37*
G36*
X54626Y60460D02*
X54088Y60353D01*
X53632Y60049D01*
X53328Y59593D01*
X53221Y59055D01*
X53328Y58517D01*
X53632Y58062D01*
X54088Y57757D01*
X54626Y57650D01*
X55164Y57757D01*
X55619Y58062D01*
X55924Y58517D01*
X56031Y59055D01*
X55924Y59593D01*
X55619Y60049D01*
X55164Y60353D01*
X54626Y60460D01*
D02*
G37*
G36*
X-34998Y60460D02*
X-35536Y60353D01*
X-35992Y60049D01*
X-36296Y59593D01*
X-36403Y59055D01*
X-36296Y58517D01*
X-35992Y58062D01*
X-35536Y57757D01*
X-34998Y57650D01*
X-34461Y57757D01*
X-34005Y58062D01*
X-33700Y58517D01*
X-33593Y59055D01*
X-33700Y59593D01*
X-34005Y60049D01*
X-34461Y60353D01*
X-34998Y60460D01*
D02*
G37*
G36*
X-39920D02*
X-40457Y60353D01*
X-40913Y60049D01*
X-41218Y59593D01*
X-41325Y59055D01*
X-41218Y58517D01*
X-40913Y58062D01*
X-40457Y57757D01*
X-39920Y57650D01*
X-39382Y57757D01*
X-38926Y58062D01*
X-38622Y58517D01*
X-38515Y59055D01*
X-38622Y59593D01*
X-38926Y60049D01*
X-39382Y60353D01*
X-39920Y60460D01*
D02*
G37*
G36*
X-44841D02*
X-45379Y60353D01*
X-45834Y60049D01*
X-46139Y59593D01*
X-46246Y59055D01*
X-46139Y58517D01*
X-45834Y58062D01*
X-45379Y57757D01*
X-44841Y57650D01*
X-44303Y57757D01*
X-43848Y58062D01*
X-43543Y58517D01*
X-43436Y59055D01*
X-43543Y59593D01*
X-43848Y60049D01*
X-44303Y60353D01*
X-44841Y60460D01*
D02*
G37*
G36*
X-49762D02*
X-50300Y60353D01*
X-50756Y60049D01*
X-51060Y59593D01*
X-51167Y59055D01*
X-51060Y58517D01*
X-50756Y58062D01*
X-50300Y57757D01*
X-49762Y57650D01*
X-49224Y57757D01*
X-48769Y58062D01*
X-48464Y58517D01*
X-48357Y59055D01*
X-48464Y59593D01*
X-48769Y60049D01*
X-49224Y60353D01*
X-49762Y60460D01*
D02*
G37*
G36*
X-54684D02*
X-55221Y60353D01*
X-55677Y60049D01*
X-55981Y59593D01*
X-56088Y59055D01*
X-55981Y58517D01*
X-55677Y58062D01*
X-55221Y57757D01*
X-54684Y57650D01*
X-54146Y57757D01*
X-53690Y58062D01*
X-53386Y58517D01*
X-53278Y59055D01*
X-53386Y59593D01*
X-53690Y60049D01*
X-54146Y60353D01*
X-54684Y60460D01*
D02*
G37*
G36*
X-93701Y21390D02*
X-94238Y21283D01*
X-94694Y20978D01*
X-94999Y20522D01*
X-95106Y19985D01*
X-94999Y19447D01*
X-94694Y18991D01*
X-94238Y18687D01*
X-93701Y18580D01*
X-93163Y18687D01*
X-92707Y18991D01*
X-92403Y19447D01*
X-92391Y19506D01*
X-91881D01*
X-91849Y19344D01*
X-91545Y18889D01*
X-91089Y18584D01*
X-90551Y18477D01*
X-90013Y18584D01*
X-89558Y18889D01*
X-89253Y19344D01*
X-89231Y19454D01*
X-88722D01*
X-88700Y19344D01*
X-88395Y18889D01*
X-87939Y18584D01*
X-87402Y18477D01*
X-86864Y18584D01*
X-86408Y18889D01*
X-86104Y19344D01*
X-86082Y19454D01*
X-85572D01*
X-85550Y19344D01*
X-85245Y18889D01*
X-84790Y18584D01*
X-84252Y18477D01*
X-83714Y18584D01*
X-83258Y18889D01*
X-82954Y19344D01*
X-82847Y19882D01*
X-82954Y20420D01*
X-83258Y20875D01*
X-83714Y21180D01*
X-84252Y21287D01*
X-84790Y21180D01*
X-85245Y20875D01*
X-85550Y20420D01*
X-85572Y20309D01*
X-86082D01*
X-86104Y20420D01*
X-86408Y20875D01*
X-86864Y21180D01*
X-87402Y21287D01*
X-87939Y21180D01*
X-88395Y20875D01*
X-88700Y20420D01*
X-88722Y20309D01*
X-89231D01*
X-89253Y20420D01*
X-89558Y20875D01*
X-90013Y21180D01*
X-90551Y21287D01*
X-91089Y21180D01*
X-91545Y20875D01*
X-91849Y20420D01*
X-91861Y20361D01*
X-92371D01*
X-92403Y20522D01*
X-92707Y20978D01*
X-93163Y21283D01*
X-93701Y21390D01*
D02*
G37*
G36*
X-111279Y20303D02*
X-111817Y20196D01*
X-112273Y19891D01*
X-112577Y19435D01*
X-112685Y18898D01*
X-112577Y18360D01*
X-112273Y17904D01*
X-111817Y17600D01*
X-111279Y17493D01*
X-110742Y17600D01*
X-110286Y17904D01*
X-109982Y18360D01*
X-109875Y18898D01*
X-109982Y19435D01*
X-110286Y19891D01*
X-110742Y20196D01*
X-111279Y20303D01*
D02*
G37*
G36*
X-70669Y17153D02*
X-71207Y17046D01*
X-71663Y16741D01*
X-71967Y16286D01*
X-72074Y15748D01*
X-71967Y15210D01*
X-71663Y14755D01*
X-71207Y14450D01*
X-70669Y14343D01*
X-70132Y14450D01*
X-69676Y14755D01*
X-69371Y15210D01*
X-69264Y15748D01*
X-69371Y16286D01*
X-69676Y16741D01*
X-70132Y17046D01*
X-70669Y17153D01*
D02*
G37*
G36*
X-36870Y15184D02*
X-37408Y15078D01*
X-37863Y14773D01*
X-38168Y14317D01*
X-38275Y13780D01*
X-38168Y13242D01*
X-37863Y12786D01*
X-37408Y12482D01*
X-36870Y12375D01*
X-36332Y12482D01*
X-35877Y12786D01*
X-35572Y13242D01*
X-35465Y13780D01*
X-35572Y14317D01*
X-35877Y14773D01*
X-36332Y15078D01*
X-36870Y15184D01*
D02*
G37*
G36*
X-41870D02*
X-42408Y15078D01*
X-42864Y14773D01*
X-43168Y14317D01*
X-43275Y13780D01*
X-43168Y13242D01*
X-42864Y12786D01*
X-42408Y12482D01*
X-41870Y12375D01*
X-41332Y12482D01*
X-40877Y12786D01*
X-40572Y13242D01*
X-40465Y13780D01*
X-40572Y14317D01*
X-40877Y14773D01*
X-41332Y15078D01*
X-41870Y15184D01*
D02*
G37*
G36*
X-46870D02*
X-47408Y15078D01*
X-47864Y14773D01*
X-48168Y14317D01*
X-48275Y13780D01*
X-48168Y13242D01*
X-47864Y12786D01*
X-47408Y12482D01*
X-46870Y12375D01*
X-46332Y12482D01*
X-45877Y12786D01*
X-45572Y13242D01*
X-45465Y13780D01*
X-45572Y14317D01*
X-45877Y14773D01*
X-46332Y15078D01*
X-46870Y15184D01*
D02*
G37*
G36*
X-94685Y10854D02*
X-95223Y10747D01*
X-95679Y10442D01*
X-95983Y9986D01*
X-96090Y9449D01*
X-95983Y8911D01*
X-95679Y8455D01*
X-95223Y8151D01*
X-94685Y8044D01*
X-94147Y8151D01*
X-93692Y8455D01*
X-93387Y8911D01*
X-93280Y9449D01*
X-93387Y9986D01*
X-93692Y10442D01*
X-94147Y10747D01*
X-94685Y10854D01*
D02*
G37*
G36*
X-70669Y7704D02*
X-71207Y7597D01*
X-71663Y7293D01*
X-71967Y6837D01*
X-72074Y6299D01*
X-71967Y5762D01*
X-71663Y5306D01*
X-71207Y5001D01*
X-70669Y4894D01*
X-70132Y5001D01*
X-69676Y5306D01*
X-69371Y5762D01*
X-69264Y6299D01*
X-69371Y6837D01*
X-69676Y7293D01*
X-70132Y7597D01*
X-70669Y7704D01*
D02*
G37*
G36*
X55000Y5342D02*
X54462Y5235D01*
X54007Y4930D01*
X53702Y4475D01*
X53595Y3937D01*
X53702Y3399D01*
X54007Y2944D01*
X54462Y2639D01*
X55000Y2532D01*
X55538Y2639D01*
X55993Y2944D01*
X56298Y3399D01*
X56405Y3937D01*
X56298Y4475D01*
X55993Y4930D01*
X55538Y5235D01*
X55000Y5342D01*
D02*
G37*
G36*
X49500Y5184D02*
X48962Y5077D01*
X48507Y4773D01*
X48202Y4317D01*
X48095Y3779D01*
X48202Y3242D01*
X48507Y2786D01*
X48962Y2482D01*
X49500Y2375D01*
X50038Y2482D01*
X50494Y2786D01*
X50798Y3242D01*
X50905Y3779D01*
X50798Y4317D01*
X50494Y4773D01*
X50038Y5077D01*
X49500Y5184D01*
D02*
G37*
G36*
X44500D02*
X43962Y5077D01*
X43507Y4773D01*
X43202Y4317D01*
X43095Y3779D01*
X43202Y3242D01*
X43507Y2786D01*
X43962Y2482D01*
X44500Y2375D01*
X45038Y2482D01*
X45494Y2786D01*
X45798Y3242D01*
X45905Y3779D01*
X45798Y4317D01*
X45494Y4773D01*
X45038Y5077D01*
X44500Y5184D01*
D02*
G37*
G36*
X-94685Y4555D02*
X-95223Y4448D01*
X-95679Y4143D01*
X-95983Y3687D01*
X-96090Y3150D01*
X-95983Y2612D01*
X-95679Y2156D01*
X-95223Y1852D01*
X-94685Y1745D01*
X-94147Y1852D01*
X-93692Y2156D01*
X-93387Y2612D01*
X-93280Y3150D01*
X-93387Y3687D01*
X-93692Y4143D01*
X-94147Y4448D01*
X-94685Y4555D01*
D02*
G37*
G36*
X-31870Y3373D02*
X-32408Y3266D01*
X-32864Y2962D01*
X-33168Y2506D01*
X-33275Y1969D01*
X-33168Y1431D01*
X-32864Y975D01*
X-32408Y671D01*
X-31870Y564D01*
X-31332Y671D01*
X-30877Y975D01*
X-30572Y1431D01*
X-30465Y1969D01*
X-30572Y2506D01*
X-30877Y2962D01*
X-31332Y3266D01*
X-31870Y3373D01*
D02*
G37*
G36*
X-36870D02*
X-37408Y3266D01*
X-37863Y2962D01*
X-38168Y2506D01*
X-38275Y1969D01*
X-38168Y1431D01*
X-37863Y975D01*
X-37408Y671D01*
X-36870Y564D01*
X-36332Y671D01*
X-35877Y975D01*
X-35572Y1431D01*
X-35465Y1969D01*
X-35572Y2506D01*
X-35877Y2962D01*
X-36332Y3266D01*
X-36870Y3373D01*
D02*
G37*
G36*
X-41870D02*
X-42408Y3266D01*
X-42864Y2962D01*
X-43168Y2506D01*
X-43275Y1969D01*
X-43168Y1431D01*
X-42864Y975D01*
X-42408Y671D01*
X-41870Y564D01*
X-41332Y671D01*
X-40877Y975D01*
X-40572Y1431D01*
X-40465Y1969D01*
X-40572Y2506D01*
X-40877Y2962D01*
X-41332Y3266D01*
X-41870Y3373D01*
D02*
G37*
G36*
X-46870D02*
X-47408Y3266D01*
X-47864Y2962D01*
X-48168Y2506D01*
X-48275Y1969D01*
X-48168Y1431D01*
X-47864Y975D01*
X-47408Y671D01*
X-46870Y564D01*
X-46332Y671D01*
X-45877Y975D01*
X-45572Y1431D01*
X-45465Y1969D01*
X-45572Y2506D01*
X-45877Y2962D01*
X-46332Y3266D01*
X-46870Y3373D01*
D02*
G37*
G36*
X-69291Y-1745D02*
X-69829Y-1852D01*
X-70285Y-2156D01*
X-70589Y-2612D01*
X-70603Y-2679D01*
X-70993Y-2840D01*
X-71143Y-2830D01*
X-71653Y-2729D01*
X-72191Y-2836D01*
X-72647Y-3140D01*
X-72952Y-3596D01*
X-72974Y-3706D01*
X-73483D01*
X-73505Y-3596D01*
X-73810Y-3140D01*
X-74265Y-2836D01*
X-74803Y-2729D01*
X-75341Y-2836D01*
X-75797Y-3140D01*
X-76101Y-3596D01*
X-76123Y-3706D01*
X-76633D01*
X-76655Y-3596D01*
X-76959Y-3140D01*
X-77415Y-2836D01*
X-77953Y-2729D01*
X-78490Y-2836D01*
X-78946Y-3140D01*
X-79251Y-3596D01*
X-79273Y-3706D01*
X-79782D01*
X-79804Y-3596D01*
X-80109Y-3140D01*
X-80565Y-2836D01*
X-81102Y-2729D01*
X-81640Y-2836D01*
X-82096Y-3140D01*
X-82400Y-3596D01*
X-82414Y-3665D01*
X-82924D01*
X-82954Y-3514D01*
X-83258Y-3058D01*
X-83714Y-2753D01*
X-84252Y-2646D01*
X-84790Y-2753D01*
X-85245Y-3058D01*
X-85550Y-3514D01*
X-85657Y-4051D01*
X-85550Y-4589D01*
X-85245Y-5045D01*
X-84790Y-5349D01*
X-84252Y-5456D01*
X-83714Y-5349D01*
X-83258Y-5045D01*
X-82954Y-4589D01*
X-82940Y-4520D01*
X-82430D01*
X-82400Y-4671D01*
X-82096Y-5127D01*
X-81640Y-5432D01*
X-81102Y-5539D01*
X-80565Y-5432D01*
X-80109Y-5127D01*
X-79804Y-4671D01*
X-79782Y-4561D01*
X-79273D01*
X-79251Y-4671D01*
X-78946Y-5127D01*
X-78490Y-5432D01*
X-77953Y-5539D01*
X-77415Y-5432D01*
X-76959Y-5127D01*
X-76655Y-4671D01*
X-76633Y-4561D01*
X-76123D01*
X-76101Y-4671D01*
X-75797Y-5127D01*
X-75341Y-5432D01*
X-74803Y-5539D01*
X-74265Y-5432D01*
X-73810Y-5127D01*
X-73505Y-4671D01*
X-73483Y-4561D01*
X-72974D01*
X-72952Y-4671D01*
X-72647Y-5127D01*
X-72191Y-5432D01*
X-71653Y-5539D01*
X-71116Y-5432D01*
X-70660Y-5127D01*
X-70356Y-4671D01*
X-70342Y-4605D01*
X-69952Y-4443D01*
X-69802Y-4453D01*
X-69291Y-4555D01*
X-68754Y-4448D01*
X-68298Y-4143D01*
X-67993Y-3687D01*
X-67886Y-3150D01*
X-67993Y-2612D01*
X-68298Y-2156D01*
X-68754Y-1852D01*
X-69291Y-1745D01*
D02*
G37*
G36*
X165149Y43523D02*
X163985D01*
X163888Y43504D01*
X163789D01*
X162649Y43277D01*
X162557Y43239D01*
X162460Y43220D01*
X161386Y42775D01*
X161303Y42720D01*
X161212Y42682D01*
X160245Y42036D01*
X160175Y41966D01*
X160093Y41911D01*
X159270Y41088D01*
X159215Y41006D01*
X159145Y40936D01*
X158499Y39969D01*
X158461Y39878D01*
X158406Y39796D01*
X157961Y38721D01*
X157942Y38624D01*
X157904Y38533D01*
X157677Y37392D01*
Y37293D01*
X157658Y37196D01*
Y36614D01*
Y1181D01*
Y599D01*
X157677Y502D01*
Y404D01*
X157904Y-737D01*
X157942Y-829D01*
X157961Y-926D01*
X158406Y-2000D01*
X158461Y-2083D01*
X158499Y-2174D01*
X159145Y-3141D01*
X159215Y-3211D01*
X159270Y-3293D01*
X160093Y-4116D01*
X160175Y-4171D01*
X160245Y-4240D01*
X161212Y-4887D01*
X161303Y-4924D01*
X161386Y-4979D01*
X162460Y-5425D01*
X162557Y-5444D01*
X162649Y-5482D01*
X163789Y-5709D01*
X163888D01*
X163985Y-5728D01*
X165149D01*
X165245Y-5709D01*
X165344D01*
X166485Y-5482D01*
X166577Y-5444D01*
X166674Y-5425D01*
X167748Y-4979D01*
X167831Y-4924D01*
X167922Y-4887D01*
X168889Y-4240D01*
X168959Y-4171D01*
X169041Y-4116D01*
X169864Y-3293D01*
X169919Y-3211D01*
X169988Y-3141D01*
X170635Y-2174D01*
X170673Y-2083D01*
X170728Y-2000D01*
X171173Y-926D01*
X171192Y-829D01*
X171230Y-737D01*
X171457Y404D01*
Y502D01*
X171476Y599D01*
Y1181D01*
Y36614D01*
Y37196D01*
X171457Y37293D01*
Y37392D01*
X171230Y38533D01*
X171192Y38624D01*
X171173Y38721D01*
X170728Y39796D01*
X170673Y39878D01*
X170635Y39969D01*
X169988Y40936D01*
X169919Y41006D01*
X169864Y41088D01*
X169041Y41911D01*
X168959Y41966D01*
X168889Y42036D01*
X167922Y42682D01*
X167831Y42720D01*
X167748Y42775D01*
X166674Y43220D01*
X166577Y43239D01*
X166485Y43277D01*
X165344Y43504D01*
X165245D01*
X165149Y43523D01*
D02*
G37*
G36*
X-163985D02*
X-165149D01*
X-165245Y43504D01*
X-165344D01*
X-166485Y43277D01*
X-166577Y43239D01*
X-166674Y43220D01*
X-167748Y42775D01*
X-167831Y42720D01*
X-167922Y42682D01*
X-168889Y42036D01*
X-168959Y41966D01*
X-169041Y41911D01*
X-169864Y41088D01*
X-169919Y41006D01*
X-169988Y40936D01*
X-170635Y39969D01*
X-170673Y39878D01*
X-170728Y39796D01*
X-171173Y38721D01*
X-171192Y38624D01*
X-171230Y38533D01*
X-171457Y37392D01*
Y37293D01*
X-171476Y37196D01*
Y36614D01*
Y1181D01*
Y599D01*
X-171457Y502D01*
Y404D01*
X-171230Y-737D01*
X-171192Y-829D01*
X-171173Y-926D01*
X-170728Y-2000D01*
X-170673Y-2083D01*
X-170635Y-2174D01*
X-169988Y-3141D01*
X-169919Y-3211D01*
X-169864Y-3293D01*
X-169041Y-4116D01*
X-168959Y-4171D01*
X-168889Y-4240D01*
X-167922Y-4887D01*
X-167831Y-4924D01*
X-167748Y-4979D01*
X-166674Y-5425D01*
X-166577Y-5444D01*
X-166485Y-5482D01*
X-165344Y-5709D01*
X-165245D01*
X-165149Y-5728D01*
X-163985D01*
X-163888Y-5709D01*
X-163789D01*
X-162649Y-5482D01*
X-162557Y-5444D01*
X-162460Y-5425D01*
X-161386Y-4979D01*
X-161303Y-4924D01*
X-161212Y-4887D01*
X-160245Y-4240D01*
X-160175Y-4171D01*
X-160093Y-4116D01*
X-159270Y-3293D01*
X-159215Y-3211D01*
X-159145Y-3141D01*
X-158499Y-2174D01*
X-158461Y-2083D01*
X-158406Y-2000D01*
X-157961Y-926D01*
X-157942Y-829D01*
X-157904Y-737D01*
X-157677Y404D01*
Y502D01*
X-157658Y599D01*
Y1181D01*
Y36614D01*
Y37196D01*
X-157677Y37293D01*
Y37392D01*
X-157904Y38533D01*
X-157942Y38624D01*
X-157961Y38721D01*
X-158406Y39796D01*
X-158461Y39878D01*
X-158499Y39969D01*
X-159145Y40936D01*
X-159215Y41006D01*
X-159270Y41088D01*
X-160093Y41911D01*
X-160175Y41966D01*
X-160245Y42036D01*
X-161212Y42682D01*
X-161303Y42720D01*
X-161386Y42775D01*
X-162460Y43220D01*
X-162557Y43239D01*
X-162649Y43277D01*
X-163789Y43504D01*
X-163888D01*
X-163985Y43523D01*
D02*
G37*
G36*
X-31870Y-12375D02*
X-32408Y-12482D01*
X-32864Y-12786D01*
X-33168Y-13242D01*
X-33275Y-13780D01*
X-33168Y-14317D01*
X-32864Y-14773D01*
X-32408Y-15078D01*
X-31870Y-15184D01*
X-31332Y-15078D01*
X-30877Y-14773D01*
X-30572Y-14317D01*
X-30465Y-13780D01*
X-30572Y-13242D01*
X-30877Y-12786D01*
X-31332Y-12482D01*
X-31870Y-12375D01*
D02*
G37*
G36*
X-46870D02*
X-47408Y-12482D01*
X-47864Y-12786D01*
X-48168Y-13242D01*
X-48275Y-13780D01*
X-48168Y-14317D01*
X-47864Y-14773D01*
X-47408Y-15078D01*
X-46870Y-15184D01*
X-46332Y-15078D01*
X-45877Y-14773D01*
X-45572Y-14317D01*
X-45465Y-13780D01*
X-45572Y-13242D01*
X-45877Y-12786D01*
X-46332Y-12482D01*
X-46870Y-12375D01*
D02*
G37*
G36*
X-112480Y-13556D02*
X-113018Y-13663D01*
X-113474Y-13967D01*
X-113778Y-14423D01*
X-113885Y-14961D01*
X-113778Y-15498D01*
X-113474Y-15954D01*
X-113018Y-16259D01*
X-112480Y-16366D01*
X-111943Y-16259D01*
X-111487Y-15954D01*
X-111182Y-15498D01*
X-111075Y-14961D01*
X-111182Y-14423D01*
X-111487Y-13967D01*
X-111943Y-13663D01*
X-112480Y-13556D01*
D02*
G37*
G36*
X-128228D02*
X-128766Y-13663D01*
X-129222Y-13967D01*
X-129526Y-14423D01*
X-129633Y-14961D01*
X-129526Y-15498D01*
X-129222Y-15954D01*
X-128766Y-16259D01*
X-128228Y-16366D01*
X-127691Y-16259D01*
X-127235Y-15954D01*
X-126930Y-15498D01*
X-126823Y-14961D01*
X-126930Y-14423D01*
X-127235Y-13967D01*
X-127691Y-13663D01*
X-128228Y-13556D01*
D02*
G37*
G36*
X164567Y-13949D02*
X164029Y-14056D01*
X163574Y-14361D01*
X163269Y-14817D01*
X163162Y-15354D01*
X163269Y-15892D01*
X163574Y-16348D01*
X164029Y-16652D01*
X164567Y-16759D01*
X165105Y-16652D01*
X165560Y-16348D01*
X165865Y-15892D01*
X165972Y-15354D01*
X165865Y-14817D01*
X165560Y-14361D01*
X165105Y-14056D01*
X164567Y-13949D01*
D02*
G37*
G36*
X-164567D02*
X-165105Y-14056D01*
X-165560Y-14361D01*
X-165865Y-14817D01*
X-165972Y-15354D01*
X-165865Y-15892D01*
X-165560Y-16348D01*
X-165105Y-16652D01*
X-164567Y-16759D01*
X-164029Y-16652D01*
X-163574Y-16348D01*
X-163269Y-15892D01*
X-163162Y-15354D01*
X-163269Y-14817D01*
X-163574Y-14361D01*
X-164029Y-14056D01*
X-164567Y-13949D01*
D02*
G37*
G36*
X-65236Y-17493D02*
X-65774Y-17600D01*
X-66230Y-17904D01*
X-66534Y-18360D01*
X-66641Y-18898D01*
X-66534Y-19435D01*
X-66230Y-19891D01*
X-65774Y-20196D01*
X-65236Y-20303D01*
X-64699Y-20196D01*
X-64243Y-19891D01*
X-63938Y-19435D01*
X-63831Y-18898D01*
X-63938Y-18360D01*
X-64243Y-17904D01*
X-64699Y-17600D01*
X-65236Y-17493D01*
D02*
G37*
G36*
X-80984D02*
X-81522Y-17600D01*
X-81978Y-17904D01*
X-82282Y-18360D01*
X-82389Y-18898D01*
X-82282Y-19435D01*
X-81978Y-19891D01*
X-81522Y-20196D01*
X-80984Y-20303D01*
X-80447Y-20196D01*
X-79991Y-19891D01*
X-79686Y-19435D01*
X-79579Y-18898D01*
X-79686Y-18360D01*
X-79991Y-17904D01*
X-80447Y-17600D01*
X-80984Y-17493D01*
D02*
G37*
G36*
X-96732D02*
X-97270Y-17600D01*
X-97726Y-17904D01*
X-98030Y-18360D01*
X-98137Y-18898D01*
X-98030Y-19435D01*
X-97726Y-19891D01*
X-97270Y-20196D01*
X-96732Y-20303D01*
X-96195Y-20196D01*
X-95739Y-19891D01*
X-95434Y-19435D01*
X-95327Y-18898D01*
X-95434Y-18360D01*
X-95739Y-17904D01*
X-96195Y-17600D01*
X-96732Y-17493D01*
D02*
G37*
G36*
X-118110Y-22217D02*
X-118648Y-22324D01*
X-119104Y-22629D01*
X-119408Y-23084D01*
X-119515Y-23622D01*
X-119408Y-24160D01*
X-119104Y-24615D01*
X-118648Y-24920D01*
X-118110Y-25027D01*
X-117573Y-24920D01*
X-117117Y-24615D01*
X-116812Y-24160D01*
X-116705Y-23622D01*
X-116812Y-23084D01*
X-117117Y-22629D01*
X-117573Y-22324D01*
X-118110Y-22217D01*
D02*
G37*
G36*
X-133858D02*
X-134396Y-22324D01*
X-134852Y-22629D01*
X-135156Y-23084D01*
X-135263Y-23622D01*
X-135156Y-24160D01*
X-134852Y-24615D01*
X-134396Y-24920D01*
X-133858Y-25027D01*
X-133321Y-24920D01*
X-132865Y-24615D01*
X-132560Y-24160D01*
X-132453Y-23622D01*
X-132560Y-23084D01*
X-132865Y-22629D01*
X-133321Y-22324D01*
X-133858Y-22217D01*
D02*
G37*
G36*
X-118110Y-34028D02*
X-118648Y-34135D01*
X-119104Y-34440D01*
X-119408Y-34895D01*
X-119515Y-35433D01*
X-119408Y-35971D01*
X-119104Y-36426D01*
X-118648Y-36731D01*
X-118110Y-36838D01*
X-117573Y-36731D01*
X-117117Y-36426D01*
X-116812Y-35971D01*
X-116705Y-35433D01*
X-116812Y-34895D01*
X-117117Y-34440D01*
X-117573Y-34135D01*
X-118110Y-34028D01*
D02*
G37*
G36*
X-133858D02*
X-134396Y-34135D01*
X-134852Y-34440D01*
X-135156Y-34895D01*
X-135263Y-35433D01*
X-135156Y-35971D01*
X-134852Y-36426D01*
X-134396Y-36731D01*
X-133858Y-36838D01*
X-133321Y-36731D01*
X-132865Y-36426D01*
X-132560Y-35971D01*
X-132453Y-35433D01*
X-132560Y-34895D01*
X-132865Y-34440D01*
X-133321Y-34135D01*
X-133858Y-34028D01*
D02*
G37*
G36*
X-128228Y-46626D02*
X-128766Y-46733D01*
X-129222Y-47038D01*
X-129526Y-47494D01*
X-129633Y-48031D01*
X-129526Y-48569D01*
X-129222Y-49025D01*
X-128766Y-49330D01*
X-128228Y-49436D01*
X-127691Y-49330D01*
X-127235Y-49025D01*
X-126930Y-48569D01*
X-126823Y-48031D01*
X-126930Y-47494D01*
X-127235Y-47038D01*
X-127691Y-46733D01*
X-128228Y-46626D01*
D02*
G37*
G36*
X-65236Y-46626D02*
X-65774Y-46733D01*
X-66230Y-47038D01*
X-66534Y-47494D01*
X-66641Y-48031D01*
X-66534Y-48569D01*
X-66230Y-49025D01*
X-65774Y-49330D01*
X-65236Y-49436D01*
X-64699Y-49330D01*
X-64243Y-49025D01*
X-63938Y-48569D01*
X-63831Y-48031D01*
X-63938Y-47494D01*
X-64243Y-47038D01*
X-64699Y-46733D01*
X-65236Y-46626D01*
D02*
G37*
G36*
X-80984D02*
X-81522Y-46733D01*
X-81978Y-47038D01*
X-82282Y-47494D01*
X-82389Y-48031D01*
X-82282Y-48569D01*
X-81978Y-49025D01*
X-81522Y-49330D01*
X-80984Y-49436D01*
X-80447Y-49330D01*
X-79991Y-49025D01*
X-79686Y-48569D01*
X-79579Y-48031D01*
X-79686Y-47494D01*
X-79991Y-47038D01*
X-80447Y-46733D01*
X-80984Y-46626D01*
D02*
G37*
G36*
X-96732D02*
X-97270Y-46733D01*
X-97726Y-47038D01*
X-98030Y-47494D01*
X-98137Y-48031D01*
X-98030Y-48569D01*
X-97726Y-49025D01*
X-97270Y-49330D01*
X-96732Y-49436D01*
X-96195Y-49330D01*
X-95739Y-49025D01*
X-95434Y-48569D01*
X-95327Y-48031D01*
X-95434Y-47494D01*
X-95739Y-47038D01*
X-96195Y-46733D01*
X-96732Y-46626D01*
D02*
G37*
G36*
X-112480D02*
X-113018Y-46733D01*
X-113474Y-47038D01*
X-113778Y-47494D01*
X-113885Y-48031D01*
X-113778Y-48569D01*
X-113474Y-49025D01*
X-113018Y-49330D01*
X-112480Y-49436D01*
X-111943Y-49330D01*
X-111487Y-49025D01*
X-111182Y-48569D01*
X-111075Y-48031D01*
X-111182Y-47494D01*
X-111487Y-47038D01*
X-111943Y-46733D01*
X-112480Y-46626D01*
D02*
G37*
%LPD*%
D41*
X-164567Y-15354D02*
D03*
X164567D02*
D03*
X46500Y29500D02*
D03*
X66000Y38000D02*
D03*
X46500Y63000D02*
D03*
X30500Y37500D02*
D03*
X83500Y50000D02*
D03*
X83000Y16000D02*
D03*
X209500Y45000D02*
D03*
X135500Y49000D02*
D03*
X135000Y16000D02*
D03*
X205500Y4500D02*
D03*
X207500Y-44500D02*
D03*
X134500Y-47500D02*
D03*
X135000Y-23000D02*
D03*
X83500Y-48500D02*
D03*
X82000Y-23500D02*
D03*
X44000Y-49000D02*
D03*
X30500Y-24000D02*
D03*
X-33000Y33000D02*
D03*
X-146500Y3500D02*
D03*
X-170500Y48000D02*
D03*
X-211000Y46000D02*
D03*
X-211500Y500D02*
D03*
Y-45500D02*
D03*
X-172000Y-43000D02*
D03*
X-137500Y-42000D02*
D03*
X-120500Y49000D02*
D03*
X-90500Y49500D02*
D03*
X-60000Y61500D02*
D03*
X-42500D02*
D03*
X-17500Y67500D02*
D03*
X19000Y68000D02*
D03*
X22000Y53000D02*
D03*
X19500Y37000D02*
D03*
X-500Y48500D02*
D03*
Y56500D02*
D03*
X-27500Y47000D02*
D03*
X-83000Y33000D02*
D03*
X-62000D02*
D03*
X-40500Y9000D02*
D03*
X-51500Y18000D02*
D03*
X-25000Y17000D02*
D03*
X-58000Y-500D02*
D03*
X-21000Y-47500D02*
D03*
Y-33000D02*
D03*
X-28500Y-24500D02*
D03*
X-54500Y-48000D02*
D03*
Y-28000D02*
D03*
Y-19500D02*
D03*
X-73000D02*
D03*
Y-28500D02*
D03*
Y-48000D02*
D03*
X-89000D02*
D03*
X-105000Y-47500D02*
D03*
X-120500D02*
D03*
X-124000Y-5500D02*
D03*
Y-12000D02*
D03*
X-88500Y-29500D02*
D03*
Y-19500D02*
D03*
X-103500Y-12000D02*
D03*
X-68000Y-7500D02*
D03*
X-61000Y22500D02*
D03*
X-81500Y11500D02*
D03*
X-111500Y12500D02*
D03*
Y6500D02*
D03*
Y27000D02*
D03*
X-118110Y-35433D02*
D03*
X-133858D02*
D03*
X55000Y3937D02*
D03*
X49500Y3779D02*
D03*
X44500D02*
D03*
X-93701Y19985D02*
D03*
X-111279Y18898D02*
D03*
X-118110Y-23622D02*
D03*
X-133858D02*
D03*
X-96732Y-18898D02*
D03*
X-7874Y61221D02*
D03*
Y64764D02*
D03*
X7874D02*
D03*
Y61221D02*
D03*
X-84252Y-4051D02*
D03*
X-112480Y-14961D02*
D03*
X-128228D02*
D03*
X-65236Y-18898D02*
D03*
X-80984D02*
D03*
X-65236Y-48031D02*
D03*
X-80984D02*
D03*
X-96732D02*
D03*
X-128228Y-48031D02*
D03*
X-112480Y-48031D02*
D03*
X-69291Y-3150D02*
D03*
X-84252Y19882D02*
D03*
X-87402D02*
D03*
X-90551D02*
D03*
X-81102Y-4134D02*
D03*
X-77953D02*
D03*
X-71653D02*
D03*
X-74803D02*
D03*
X-70669Y15748D02*
D03*
Y6299D02*
D03*
X-94685Y3150D02*
D03*
Y9449D02*
D03*
X-36870Y13780D02*
D03*
X-41870D02*
D03*
X-46870D02*
D03*
X-36870Y1969D02*
D03*
X-41870D02*
D03*
X-31870Y-13780D02*
D03*
X-46870D02*
D03*
X-31870Y1969D02*
D03*
X-46870D02*
D03*
X54626Y59055D02*
D03*
X-34998Y59055D02*
D03*
X-39920D02*
D03*
X-44841D02*
D03*
X-49762D02*
D03*
X-54684D02*
D03*
M02*
