G04*
G04 #@! TF.GenerationSoftware,Altium Limited,Altium Designer,22.1.2 (22)*
G04*
G04 Layer_Color=255*
%FSLAX25Y25*%
%MOIN*%
G70*
G04*
G04 #@! TF.SameCoordinates,275DE8A0-DEE6-4034-A094-DBE044462E3A*
G04*
G04*
G04 #@! TF.FilePolarity,Positive*
G04*
G01*
G75*
%ADD14R,0.04724X0.07284*%
%ADD15R,0.02047X0.01850*%
%ADD16R,0.02362X0.04724*%
%ADD17R,0.07047X0.12598*%
%ADD18R,0.02165X0.01181*%
%ADD19R,0.01850X0.02047*%
%ADD20R,0.01575X0.01575*%
%ADD21R,0.01968X0.03937*%
%ADD22R,0.01968X0.04724*%
%ADD23R,0.04724X0.01968*%
%ADD24R,0.07874X0.11811*%
%ADD25R,0.02953X0.05906*%
%ADD26R,0.03150X0.01968*%
D14*
X164567Y-10630D02*
D03*
Y48425D02*
D03*
X-164567Y-10630D02*
D03*
Y48425D02*
D03*
D15*
X-31870Y-11535D02*
D03*
Y-8150D02*
D03*
X-46870Y-11535D02*
D03*
Y-8150D02*
D03*
Y23898D02*
D03*
Y27283D02*
D03*
X-90551Y29803D02*
D03*
Y33189D02*
D03*
X-93701Y29803D02*
D03*
Y33189D02*
D03*
X49500Y6181D02*
D03*
Y9567D02*
D03*
X44500Y6181D02*
D03*
Y9567D02*
D03*
X55000Y6181D02*
D03*
Y9567D02*
D03*
X39500D02*
D03*
Y6181D02*
D03*
D16*
X-31870Y-2756D02*
D03*
X-36870D02*
D03*
X-46870D02*
D03*
X-41870D02*
D03*
X-31870Y18504D02*
D03*
X-36870D02*
D03*
X-46870D02*
D03*
X-41870D02*
D03*
D17*
X58268Y19685D02*
D03*
X36220D02*
D03*
D18*
X44500Y1378D02*
D03*
Y-1378D02*
D03*
X49500Y1378D02*
D03*
Y-1378D02*
D03*
D19*
X-128228Y-19685D02*
D03*
X-131614D02*
D03*
Y-23622D02*
D03*
X-128228D02*
D03*
X-131614Y-35433D02*
D03*
X-128228D02*
D03*
X-131614Y-39370D02*
D03*
X-128228D02*
D03*
X-131614Y-43307D02*
D03*
X-128228D02*
D03*
X-112480Y-19685D02*
D03*
X-115866D02*
D03*
X-115866Y-23622D02*
D03*
X-112480D02*
D03*
X-115866Y-35433D02*
D03*
X-112480D02*
D03*
X-115866Y-39370D02*
D03*
X-112480D02*
D03*
X-112480Y-43307D02*
D03*
X-115866D02*
D03*
X-60748Y6299D02*
D03*
X-57362D02*
D03*
X-104606Y9449D02*
D03*
X-107992D02*
D03*
X-104606Y3150D02*
D03*
X-107992D02*
D03*
X-68622Y-35433D02*
D03*
X-65236D02*
D03*
X-68622Y-39370D02*
D03*
X-65236D02*
D03*
Y-43307D02*
D03*
X-68622D02*
D03*
X-80984D02*
D03*
X-84370D02*
D03*
Y-39370D02*
D03*
X-80984D02*
D03*
X-84370Y-35433D02*
D03*
X-80984D02*
D03*
X-96732Y-43307D02*
D03*
X-100118D02*
D03*
Y-39370D02*
D03*
X-96732D02*
D03*
X-100118Y-35433D02*
D03*
X-96732D02*
D03*
X-80984Y-23622D02*
D03*
X-84370D02*
D03*
X-96732D02*
D03*
X-100118D02*
D03*
X-65236D02*
D03*
X-68622D02*
D03*
X-104606Y15748D02*
D03*
X-107992D02*
D03*
Y18898D02*
D03*
X-104606D02*
D03*
D20*
X-129921Y-27756D02*
D03*
X-128445Y-31299D02*
D03*
X-131398D02*
D03*
X-114173Y-27756D02*
D03*
X-112697Y-31299D02*
D03*
X-115650D02*
D03*
X-66929Y-27756D02*
D03*
X-65453Y-31299D02*
D03*
X-68405D02*
D03*
X-82677Y-27756D02*
D03*
X-81201Y-31299D02*
D03*
X-84153D02*
D03*
X-98425Y-27756D02*
D03*
X-96949Y-31299D02*
D03*
X-99902D02*
D03*
D21*
X-114764Y-3937D02*
D03*
X-129331D02*
D03*
X-114764Y19685D02*
D03*
X-129331D02*
D03*
D22*
X-93701Y24606D02*
D03*
X-90551D02*
D03*
X-87402D02*
D03*
X-84252D02*
D03*
X-81102D02*
D03*
X-77953D02*
D03*
X-74803D02*
D03*
X-71653D02*
D03*
Y-8858D02*
D03*
X-74803D02*
D03*
X-77953D02*
D03*
X-81102D02*
D03*
X-84252D02*
D03*
X-87402D02*
D03*
X-90551D02*
D03*
X-93701D02*
D03*
D23*
X-65945Y18898D02*
D03*
Y15748D02*
D03*
Y12598D02*
D03*
Y9449D02*
D03*
Y6299D02*
D03*
Y3150D02*
D03*
Y0D02*
D03*
Y-3150D02*
D03*
X-99410D02*
D03*
Y0D02*
D03*
Y3150D02*
D03*
Y6299D02*
D03*
Y9449D02*
D03*
Y12598D02*
D03*
Y15748D02*
D03*
Y18898D02*
D03*
D24*
X-24959Y62598D02*
D03*
X-69644D02*
D03*
X29823Y62598D02*
D03*
X64665D02*
D03*
D25*
X-39920Y51181D02*
D03*
X-34998D02*
D03*
X-44841D02*
D03*
X-54684D02*
D03*
X-49762D02*
D03*
X-59605D02*
D03*
X39862Y51181D02*
D03*
X44783D02*
D03*
X54626D02*
D03*
X49705D02*
D03*
D26*
X3150Y64764D02*
D03*
X-3150D02*
D03*
Y61221D02*
D03*
X3150D02*
D03*
M02*
