G04*
G04 #@! TF.GenerationSoftware,Altium Limited,Altium Designer,22.1.2 (22)*
G04*
G04 Layer_Color=128*
%FSLAX25Y25*%
%MOIN*%
G70*
G04*
G04 #@! TF.SameCoordinates,275DE8A0-DEE6-4034-A094-DBE044462E3A*
G04*
G04*
G04 #@! TF.FilePolarity,Positive*
G04*
G01*
G75*
%ADD45C,0.00200*%
D45*
X-164961Y-15354D02*
X-164173D01*
X-164567Y-15748D02*
Y-14961D01*
X164173Y-15354D02*
X164961D01*
X164567Y-15748D02*
Y-14961D01*
X46106Y29500D02*
X46894D01*
X46500Y29106D02*
Y29894D01*
X65606Y38000D02*
X66394D01*
X66000Y37606D02*
Y38394D01*
X46106Y63000D02*
X46894D01*
X46500Y62606D02*
Y63394D01*
X30106Y37500D02*
X30894D01*
X30500Y37106D02*
Y37894D01*
X83106Y50000D02*
X83894D01*
X83500Y49606D02*
Y50394D01*
X82606Y16000D02*
X83394D01*
X83000Y15606D02*
Y16394D01*
X209106Y45000D02*
X209894D01*
X209500Y44606D02*
Y45394D01*
X135106Y49000D02*
X135894D01*
X135500Y48606D02*
Y49394D01*
X134606Y16000D02*
X135394D01*
X135000Y15606D02*
Y16394D01*
X205106Y4500D02*
X205894D01*
X205500Y4106D02*
Y4894D01*
X207106Y-44500D02*
X207894D01*
X207500Y-44894D02*
Y-44106D01*
X134106Y-47500D02*
X134894D01*
X134500Y-47894D02*
Y-47106D01*
X134606Y-23000D02*
X135394D01*
X135000Y-23394D02*
Y-22606D01*
X83106Y-48500D02*
X83894D01*
X83500Y-48894D02*
Y-48106D01*
X81606Y-23500D02*
X82394D01*
X82000Y-23894D02*
Y-23106D01*
X43606Y-49000D02*
X44394D01*
X44000Y-49394D02*
Y-48606D01*
X30106Y-24000D02*
X30894D01*
X30500Y-24394D02*
Y-23606D01*
X-33394Y33000D02*
X-32606D01*
X-33000Y32606D02*
Y33394D01*
X-146894Y3500D02*
X-146106D01*
X-146500Y3106D02*
Y3894D01*
X-170894Y48000D02*
X-170106D01*
X-170500Y47606D02*
Y48394D01*
X-211394Y46000D02*
X-210606D01*
X-211000Y45606D02*
Y46394D01*
X-211894Y500D02*
X-211106D01*
X-211500Y106D02*
Y894D01*
X-211894Y-45500D02*
X-211106D01*
X-211500Y-45894D02*
Y-45106D01*
X-172394Y-43000D02*
X-171606D01*
X-172000Y-43394D02*
Y-42606D01*
X-137894Y-42000D02*
X-137106D01*
X-137500Y-42394D02*
Y-41606D01*
X-120894Y49000D02*
X-120106D01*
X-120500Y48606D02*
Y49394D01*
X-90894Y49500D02*
X-90106D01*
X-90500Y49106D02*
Y49894D01*
X-60394Y61500D02*
X-59606D01*
X-60000Y61106D02*
Y61894D01*
X-42894Y61500D02*
X-42106D01*
X-42500Y61106D02*
Y61894D01*
X-17894Y67500D02*
X-17106D01*
X-17500Y67106D02*
Y67894D01*
X18606Y68000D02*
X19394D01*
X19000Y67606D02*
Y68394D01*
X21606Y53000D02*
X22394D01*
X22000Y52606D02*
Y53394D01*
X19106Y37000D02*
X19894D01*
X19500Y36606D02*
Y37394D01*
X-894Y48500D02*
X-106D01*
X-500Y48106D02*
Y48894D01*
X-894Y56500D02*
X-106D01*
X-500Y56106D02*
Y56894D01*
X-27894Y47000D02*
X-27106D01*
X-27500Y46606D02*
Y47394D01*
X-83394Y33000D02*
X-82606D01*
X-83000Y32606D02*
Y33394D01*
X-62394Y33000D02*
X-61606D01*
X-62000Y32606D02*
Y33394D01*
X-40894Y9000D02*
X-40106D01*
X-40500Y8606D02*
Y9394D01*
X-51894Y18000D02*
X-51106D01*
X-51500Y17606D02*
Y18394D01*
X-25394Y17000D02*
X-24606D01*
X-25000Y16606D02*
Y17394D01*
X-58394Y-500D02*
X-57606D01*
X-58000Y-894D02*
Y-106D01*
X-21394Y-47500D02*
X-20606D01*
X-21000Y-47894D02*
Y-47106D01*
X-21394Y-33000D02*
X-20606D01*
X-21000Y-33394D02*
Y-32606D01*
X-28894Y-24500D02*
X-28106D01*
X-28500Y-24894D02*
Y-24106D01*
X-54894Y-48000D02*
X-54106D01*
X-54500Y-48394D02*
Y-47606D01*
X-54894Y-28000D02*
X-54106D01*
X-54500Y-28394D02*
Y-27606D01*
X-54894Y-19500D02*
X-54106D01*
X-54500Y-19894D02*
Y-19106D01*
X-73394Y-19500D02*
X-72606D01*
X-73000Y-19894D02*
Y-19106D01*
X-73394Y-28500D02*
X-72606D01*
X-73000Y-28894D02*
Y-28106D01*
X-73394Y-48000D02*
X-72606D01*
X-73000Y-48394D02*
Y-47606D01*
X-89394Y-48000D02*
X-88606D01*
X-89000Y-48394D02*
Y-47606D01*
X-105394Y-47500D02*
X-104606D01*
X-105000Y-47894D02*
Y-47106D01*
X-120894Y-47500D02*
X-120106D01*
X-120500Y-47894D02*
Y-47106D01*
X-124394Y-5500D02*
X-123606D01*
X-124000Y-5894D02*
Y-5106D01*
X-124394Y-12000D02*
X-123606D01*
X-124000Y-12394D02*
Y-11606D01*
X-88894Y-29500D02*
X-88106D01*
X-88500Y-29894D02*
Y-29106D01*
X-88894Y-19500D02*
X-88106D01*
X-88500Y-19894D02*
Y-19106D01*
X-103894Y-12000D02*
X-103106D01*
X-103500Y-12394D02*
Y-11606D01*
X-68394Y-7500D02*
X-67606D01*
X-68000Y-7894D02*
Y-7106D01*
X-61394Y22500D02*
X-60606D01*
X-61000Y22106D02*
Y22894D01*
X-81894Y11500D02*
X-81106D01*
X-81500Y11106D02*
Y11894D01*
X-111894Y12500D02*
X-111106D01*
X-111500Y12106D02*
Y12894D01*
X-111894Y6500D02*
X-111106D01*
X-111500Y6106D02*
Y6894D01*
X-111894Y27000D02*
X-111106D01*
X-111500Y26606D02*
Y27394D01*
X-118504Y-35433D02*
X-117717D01*
X-118110Y-35827D02*
Y-35039D01*
X-134252Y-35433D02*
X-133465D01*
X-133858Y-35827D02*
Y-35039D01*
X54606Y3937D02*
X55394D01*
X55000Y3543D02*
Y4331D01*
X49106Y3779D02*
X49894D01*
X49500Y3386D02*
Y4173D01*
X44106Y3779D02*
X44894D01*
X44500Y3386D02*
Y4173D01*
X-94095Y19985D02*
X-93307D01*
X-93701Y19591D02*
Y20378D01*
X-111673Y18898D02*
X-110886D01*
X-111279Y18504D02*
Y19291D01*
X-118504Y-23622D02*
X-117717D01*
X-118110Y-24016D02*
Y-23228D01*
X-134252Y-23622D02*
X-133465D01*
X-133858Y-24016D02*
Y-23228D01*
X-97126Y-18898D02*
X-96339D01*
X-96732Y-19291D02*
Y-18504D01*
X-8268Y61221D02*
X-7480D01*
X-7874Y60827D02*
Y61614D01*
X-8268Y64764D02*
X-7480D01*
X-7874Y64370D02*
Y65158D01*
X7480Y64764D02*
X8268D01*
X7874Y64370D02*
Y65158D01*
X7480Y61221D02*
X8268D01*
X7874Y60827D02*
Y61614D01*
X-84646Y-4051D02*
X-83858D01*
X-84252Y-4445D02*
Y-3658D01*
X-112874Y-14961D02*
X-112087D01*
X-112480Y-15354D02*
Y-14567D01*
X-128622Y-14961D02*
X-127835D01*
X-128228Y-15354D02*
Y-14567D01*
X-65630Y-18898D02*
X-64842D01*
X-65236Y-19291D02*
Y-18504D01*
X-81378Y-18898D02*
X-80591D01*
X-80984Y-19291D02*
Y-18504D01*
X-65630Y-48031D02*
X-64842D01*
X-65236Y-48425D02*
Y-47638D01*
X-81378Y-48031D02*
X-80591D01*
X-80984Y-48425D02*
Y-47638D01*
X-97126Y-48031D02*
X-96339D01*
X-96732Y-48425D02*
Y-47638D01*
X-128622Y-48031D02*
X-127835D01*
X-128228Y-48425D02*
Y-47638D01*
X-112874Y-48031D02*
X-112087D01*
X-112480Y-48425D02*
Y-47638D01*
X-69685Y-3150D02*
X-68898D01*
X-69291Y-3543D02*
Y-2756D01*
X-84646Y19882D02*
X-83858D01*
X-84252Y19488D02*
Y20276D01*
X-87795Y19882D02*
X-87008D01*
X-87402Y19488D02*
Y20276D01*
X-90945Y19882D02*
X-90158D01*
X-90551Y19488D02*
Y20276D01*
X-81496Y-4134D02*
X-80709D01*
X-81102Y-4528D02*
Y-3740D01*
X-78347Y-4134D02*
X-77559D01*
X-77953Y-4528D02*
Y-3740D01*
X-72047Y-4134D02*
X-71260D01*
X-71653Y-4528D02*
Y-3740D01*
X-75197Y-4134D02*
X-74410D01*
X-74803Y-4528D02*
Y-3740D01*
X-71063Y15748D02*
X-70276D01*
X-70669Y15354D02*
Y16142D01*
X-71063Y6299D02*
X-70276D01*
X-70669Y5906D02*
Y6693D01*
X-95079Y3150D02*
X-94291D01*
X-94685Y2756D02*
Y3543D01*
X-95079Y9449D02*
X-94291D01*
X-94685Y9055D02*
Y9843D01*
X-37264Y13780D02*
X-36476D01*
X-36870Y13386D02*
Y14173D01*
X-42264Y13780D02*
X-41476D01*
X-41870Y13386D02*
Y14173D01*
X-47264Y13780D02*
X-46476D01*
X-46870Y13386D02*
Y14173D01*
X-37264Y1969D02*
X-36476D01*
X-36870Y1575D02*
Y2362D01*
X-42264Y1969D02*
X-41476D01*
X-41870Y1575D02*
Y2362D01*
X-32264Y-13780D02*
X-31476D01*
X-31870Y-14173D02*
Y-13386D01*
X-47264Y-13780D02*
X-46476D01*
X-46870Y-14173D02*
Y-13386D01*
X-32264Y1969D02*
X-31476D01*
X-31870Y1575D02*
Y2362D01*
X-47264Y1969D02*
X-46476D01*
X-46870Y1575D02*
Y2362D01*
X54232Y59055D02*
X55020D01*
X54626Y58661D02*
Y59449D01*
X-35392Y59055D02*
X-34605D01*
X-34998Y58661D02*
Y59449D01*
X-40313Y59055D02*
X-39526D01*
X-39920Y58661D02*
Y59449D01*
X-45235Y59055D02*
X-44447D01*
X-44841Y58661D02*
Y59449D01*
X-50156Y59055D02*
X-49369D01*
X-49762Y58661D02*
Y59449D01*
X-55077Y59055D02*
X-54290D01*
X-54684Y58661D02*
Y59449D01*
M02*
