G04*
G04 #@! TF.GenerationSoftware,Altium Limited,Altium Designer,22.1.2 (22)*
G04*
G04 Layer_Color=2752767*
%FSLAX25Y25*%
%MOIN*%
G70*
G04*
G04 #@! TF.SameCoordinates,275DE8A0-DEE6-4034-A094-DBE044462E3A*
G04*
G04*
G04 #@! TF.FilePolarity,Positive*
G04*
G01*
G75*
%ADD45C,0.00200*%
D45*
X-165367Y-16154D02*
Y-14554D01*
X-163767D01*
Y-16154D01*
X-165367D01*
X163767D02*
Y-14554D01*
X165367D01*
Y-16154D01*
X163767D01*
X45700Y28700D02*
Y30300D01*
X47300D01*
Y28700D01*
X45700D01*
X65200Y37200D02*
Y38800D01*
X66800D01*
Y37200D01*
X65200D01*
X45700Y62200D02*
Y63800D01*
X47300D01*
Y62200D01*
X45700D01*
X29700Y36700D02*
Y38300D01*
X31300D01*
Y36700D01*
X29700D01*
X82700Y49200D02*
Y50800D01*
X84300D01*
Y49200D01*
X82700D01*
X82200Y15200D02*
Y16800D01*
X83800D01*
Y15200D01*
X82200D01*
X208700Y44200D02*
Y45800D01*
X210300D01*
Y44200D01*
X208700D01*
X134700Y48200D02*
Y49800D01*
X136300D01*
Y48200D01*
X134700D01*
X134200Y15200D02*
Y16800D01*
X135800D01*
Y15200D01*
X134200D01*
X204700Y3700D02*
Y5300D01*
X206300D01*
Y3700D01*
X204700D01*
X206700Y-45300D02*
Y-43700D01*
X208300D01*
Y-45300D01*
X206700D01*
X133700Y-48300D02*
Y-46700D01*
X135300D01*
Y-48300D01*
X133700D01*
X134200Y-23800D02*
Y-22200D01*
X135800D01*
Y-23800D01*
X134200D01*
X82700Y-49300D02*
Y-47700D01*
X84300D01*
Y-49300D01*
X82700D01*
X81200Y-24300D02*
Y-22700D01*
X82800D01*
Y-24300D01*
X81200D01*
X43200Y-49800D02*
Y-48200D01*
X44800D01*
Y-49800D01*
X43200D01*
X29700Y-24800D02*
Y-23200D01*
X31300D01*
Y-24800D01*
X29700D01*
X-33800Y32200D02*
Y33800D01*
X-32200D01*
Y32200D01*
X-33800D01*
X-147300Y2700D02*
Y4300D01*
X-145700D01*
Y2700D01*
X-147300D01*
X-171300Y47200D02*
Y48800D01*
X-169700D01*
Y47200D01*
X-171300D01*
X-211800Y45200D02*
Y46800D01*
X-210200D01*
Y45200D01*
X-211800D01*
X-212300Y-300D02*
Y1300D01*
X-210700D01*
Y-300D01*
X-212300D01*
Y-46300D02*
Y-44700D01*
X-210700D01*
Y-46300D01*
X-212300D01*
X-172800Y-43800D02*
Y-42200D01*
X-171200D01*
Y-43800D01*
X-172800D01*
X-138300Y-42800D02*
Y-41200D01*
X-136700D01*
Y-42800D01*
X-138300D01*
X-121300Y48200D02*
Y49800D01*
X-119700D01*
Y48200D01*
X-121300D01*
X-91300Y48700D02*
Y50300D01*
X-89700D01*
Y48700D01*
X-91300D01*
X-60800Y60700D02*
Y62300D01*
X-59200D01*
Y60700D01*
X-60800D01*
X-43300D02*
Y62300D01*
X-41700D01*
Y60700D01*
X-43300D01*
X-18300Y66700D02*
Y68300D01*
X-16700D01*
Y66700D01*
X-18300D01*
X18200Y67200D02*
Y68800D01*
X19800D01*
Y67200D01*
X18200D01*
X21200Y52200D02*
Y53800D01*
X22800D01*
Y52200D01*
X21200D01*
X18700Y36200D02*
Y37800D01*
X20300D01*
Y36200D01*
X18700D01*
X-1300Y47700D02*
Y49300D01*
X300D01*
Y47700D01*
X-1300D01*
Y55700D02*
Y57300D01*
X300D01*
Y55700D01*
X-1300D01*
X-28300Y46200D02*
Y47800D01*
X-26700D01*
Y46200D01*
X-28300D01*
X-83800Y32200D02*
Y33800D01*
X-82200D01*
Y32200D01*
X-83800D01*
X-62800D02*
Y33800D01*
X-61200D01*
Y32200D01*
X-62800D01*
X-41300Y8200D02*
Y9800D01*
X-39700D01*
Y8200D01*
X-41300D01*
X-52300Y17200D02*
Y18800D01*
X-50700D01*
Y17200D01*
X-52300D01*
X-25800Y16200D02*
Y17800D01*
X-24200D01*
Y16200D01*
X-25800D01*
X-58800Y-1300D02*
Y300D01*
X-57200D01*
Y-1300D01*
X-58800D01*
X-21800Y-48300D02*
Y-46700D01*
X-20200D01*
Y-48300D01*
X-21800D01*
Y-33800D02*
Y-32200D01*
X-20200D01*
Y-33800D01*
X-21800D01*
X-29300Y-25300D02*
Y-23700D01*
X-27700D01*
Y-25300D01*
X-29300D01*
X-55300Y-48800D02*
Y-47200D01*
X-53700D01*
Y-48800D01*
X-55300D01*
Y-28800D02*
Y-27200D01*
X-53700D01*
Y-28800D01*
X-55300D01*
Y-20300D02*
Y-18700D01*
X-53700D01*
Y-20300D01*
X-55300D01*
X-73800D02*
Y-18700D01*
X-72200D01*
Y-20300D01*
X-73800D01*
Y-29300D02*
Y-27700D01*
X-72200D01*
Y-29300D01*
X-73800D01*
Y-48800D02*
Y-47200D01*
X-72200D01*
Y-48800D01*
X-73800D01*
X-89800D02*
Y-47200D01*
X-88200D01*
Y-48800D01*
X-89800D01*
X-105800Y-48300D02*
Y-46700D01*
X-104200D01*
Y-48300D01*
X-105800D01*
X-121300D02*
Y-46700D01*
X-119700D01*
Y-48300D01*
X-121300D01*
X-124800Y-6300D02*
Y-4700D01*
X-123200D01*
Y-6300D01*
X-124800D01*
Y-12800D02*
Y-11200D01*
X-123200D01*
Y-12800D01*
X-124800D01*
X-89300Y-30300D02*
Y-28700D01*
X-87700D01*
Y-30300D01*
X-89300D01*
Y-20300D02*
Y-18700D01*
X-87700D01*
Y-20300D01*
X-89300D01*
X-104300Y-12800D02*
Y-11200D01*
X-102700D01*
Y-12800D01*
X-104300D01*
X-68800Y-8300D02*
Y-6700D01*
X-67200D01*
Y-8300D01*
X-68800D01*
X-61800Y21700D02*
Y23300D01*
X-60200D01*
Y21700D01*
X-61800D01*
X-82300Y10700D02*
Y12300D01*
X-80700D01*
Y10700D01*
X-82300D01*
X-112300Y11700D02*
Y13300D01*
X-110700D01*
Y11700D01*
X-112300D01*
Y5700D02*
Y7300D01*
X-110700D01*
Y5700D01*
X-112300D01*
Y26200D02*
Y27800D01*
X-110700D01*
Y26200D01*
X-112300D01*
X-118910Y-36233D02*
Y-34633D01*
X-117310D01*
Y-36233D01*
X-118910D01*
X-134658D02*
Y-34633D01*
X-133058D01*
Y-36233D01*
X-134658D01*
X54200Y3137D02*
Y4737D01*
X55800D01*
Y3137D01*
X54200D01*
X48700Y2980D02*
Y4580D01*
X50300D01*
Y2980D01*
X48700D01*
X43700D02*
Y4580D01*
X45300D01*
Y2980D01*
X43700D01*
X-94501Y19185D02*
Y20785D01*
X-92901D01*
Y19185D01*
X-94501D01*
X-112080Y18098D02*
Y19698D01*
X-110479D01*
Y18098D01*
X-112080D01*
X-118910Y-24422D02*
Y-22822D01*
X-117310D01*
Y-24422D01*
X-118910D01*
X-134658D02*
Y-22822D01*
X-133058D01*
Y-24422D01*
X-134658D01*
X-97532Y-19698D02*
Y-18098D01*
X-95932D01*
Y-19698D01*
X-97532D01*
X-8674Y60421D02*
Y62020D01*
X-7074D01*
Y60421D01*
X-8674D01*
Y63964D02*
Y65564D01*
X-7074D01*
Y63964D01*
X-8674D01*
X7074D02*
Y65564D01*
X8674D01*
Y63964D01*
X7074D01*
Y60421D02*
Y62020D01*
X8674D01*
Y60421D01*
X7074D01*
X-85052Y-4851D02*
Y-3251D01*
X-83452D01*
Y-4851D01*
X-85052D01*
X-113280Y-15761D02*
Y-14161D01*
X-111680D01*
Y-15761D01*
X-113280D01*
X-129028D02*
Y-14161D01*
X-127428D01*
Y-15761D01*
X-129028D01*
X-66036Y-19698D02*
Y-18098D01*
X-64436D01*
Y-19698D01*
X-66036D01*
X-81784D02*
Y-18098D01*
X-80184D01*
Y-19698D01*
X-81784D01*
X-66036Y-48831D02*
Y-47232D01*
X-64436D01*
Y-48831D01*
X-66036D01*
X-81784D02*
Y-47232D01*
X-80184D01*
Y-48831D01*
X-81784D01*
X-97532D02*
Y-47232D01*
X-95932D01*
Y-48831D01*
X-97532D01*
X-129028Y-48831D02*
Y-47232D01*
X-127428D01*
Y-48831D01*
X-129028D01*
X-113280Y-48831D02*
Y-47232D01*
X-111680D01*
Y-48831D01*
X-113280D01*
X-70091Y-3950D02*
Y-2350D01*
X-68491D01*
Y-3950D01*
X-70091D01*
X-85052Y19082D02*
Y20682D01*
X-83452D01*
Y19082D01*
X-85052D01*
X-88202D02*
Y20682D01*
X-86602D01*
Y19082D01*
X-88202D01*
X-91351D02*
Y20682D01*
X-89751D01*
Y19082D01*
X-91351D01*
X-81902Y-4934D02*
Y-3334D01*
X-80302D01*
Y-4934D01*
X-81902D01*
X-78753D02*
Y-3334D01*
X-77153D01*
Y-4934D01*
X-78753D01*
X-72453D02*
Y-3334D01*
X-70854D01*
Y-4934D01*
X-72453D01*
X-75603D02*
Y-3334D01*
X-74003D01*
Y-4934D01*
X-75603D01*
X-71469Y14948D02*
Y16548D01*
X-69869D01*
Y14948D01*
X-71469D01*
Y5499D02*
Y7099D01*
X-69869D01*
Y5499D01*
X-71469D01*
X-95485Y2350D02*
Y3950D01*
X-93885D01*
Y2350D01*
X-95485D01*
Y8649D02*
Y10249D01*
X-93885D01*
Y8649D01*
X-95485D01*
X-37670Y12979D02*
Y14580D01*
X-36070D01*
Y12979D01*
X-37670D01*
X-42670D02*
Y14580D01*
X-41070D01*
Y12979D01*
X-42670D01*
X-47670D02*
Y14580D01*
X-46070D01*
Y12979D01*
X-47670D01*
X-37670Y1168D02*
Y2768D01*
X-36070D01*
Y1168D01*
X-37670D01*
X-42670D02*
Y2768D01*
X-41070D01*
Y1168D01*
X-42670D01*
X-32670Y-14580D02*
Y-12979D01*
X-31070D01*
Y-14580D01*
X-32670D01*
X-47670D02*
Y-12979D01*
X-46070D01*
Y-14580D01*
X-47670D01*
X-32670Y1168D02*
Y2768D01*
X-31070D01*
Y1168D01*
X-32670D01*
X-47670D02*
Y2768D01*
X-46070D01*
Y1168D01*
X-47670D01*
X53826Y58255D02*
Y59855D01*
X55426D01*
Y58255D01*
X53826D01*
X-35798Y58255D02*
Y59855D01*
X-34198D01*
Y58255D01*
X-35798D01*
X-40720D02*
Y59855D01*
X-39120D01*
Y58255D01*
X-40720D01*
X-45641D02*
Y59855D01*
X-44041D01*
Y58255D01*
X-45641D01*
X-50562D02*
Y59855D01*
X-48962D01*
Y58255D01*
X-50562D01*
X-55484D02*
Y59855D01*
X-53883D01*
Y58255D01*
X-55484D01*
M02*
