%TF.GenerationSoftware,Altium Limited,Altium Designer,23.3.1 (30)*%
G04 Layer_Color=8421504*
%FSLAX45Y45*%
%MOMM*%
%TF.SameCoordinates,E4F86091-2262-4A10-A0E3-B6E4D0D901A0*%
%TF.FilePolarity,Positive*%
%TF.FileFunction,Paste,Top*%
%TF.Part,Single*%
G01*
G75*
%TA.AperFunction,SMDPad,CuDef*%
%ADD11R,0.52000X0.47000*%
%ADD12R,0.47000X0.52000*%
%ADD13R,0.40000X0.40000*%
%ADD14R,0.50000X0.60000*%
%ADD15R,0.30000X0.80000*%
%ADD16R,0.40000X0.40000*%
%ADD17R,0.80000X0.50000*%
%ADD18R,0.70000X0.30000*%
%ADD19R,0.70000X1.00000*%
%ADD20R,1.00000X1.00000*%
%ADD21R,1.05000X2.20000*%
%ADD22R,0.80000X0.60000*%
%ADD23R,1.00000X0.70000*%
G04:AMPARAMS|DCode=24|XSize=0.7mm|YSize=0.7mm|CornerRadius=0.07mm|HoleSize=0mm|Usage=FLASHONLY|Rotation=90.000|XOffset=0mm|YOffset=0mm|HoleType=Round|Shape=RoundedRectangle|*
%AMROUNDEDRECTD24*
21,1,0.70000,0.56000,0,0,90.0*
21,1,0.56000,0.70000,0,0,90.0*
1,1,0.14000,0.28000,0.28000*
1,1,0.14000,0.28000,-0.28000*
1,1,0.14000,-0.28000,-0.28000*
1,1,0.14000,-0.28000,0.28000*
%
%ADD24ROUNDEDRECTD24*%
%ADD25R,1.16000X1.82000*%
%ADD26R,2.40000X2.90000*%
%ADD27R,10.66800X8.89000*%
G04:AMPARAMS|DCode=28|XSize=2.286mm|YSize=1.0668mm|CornerRadius=0.05334mm|HoleSize=0mm|Usage=FLASHONLY|Rotation=270.000|XOffset=0mm|YOffset=0mm|HoleType=Round|Shape=RoundedRectangle|*
%AMROUNDEDRECTD28*
21,1,2.28600,0.96012,0,0,270.0*
21,1,2.17932,1.06680,0,0,270.0*
1,1,0.10668,-0.48006,-1.08966*
1,1,0.10668,-0.48006,1.08966*
1,1,0.10668,0.48006,1.08966*
1,1,0.10668,0.48006,-1.08966*
%
%ADD28ROUNDEDRECTD28*%
%ADD29R,0.30000X0.70000*%
%ADD30R,0.75000X1.50000*%
%ADD31R,2.00000X3.00000*%
%ADD32R,1.50000X0.75000*%
%ADD33R,3.00000X2.00000*%
%ADD34R,1.20000X1.79000*%
%ADD35R,0.60000X1.79000*%
%ADD36R,0.25000X0.50000*%
%ADD37R,1.40000X1.30000*%
%ADD38R,2.70000X2.70000*%
G04:AMPARAMS|DCode=39|XSize=0.6mm|YSize=0.3mm|CornerRadius=0.075mm|HoleSize=0mm|Usage=FLASHONLY|Rotation=90.000|XOffset=0mm|YOffset=0mm|HoleType=Round|Shape=RoundedRectangle|*
%AMROUNDEDRECTD39*
21,1,0.60000,0.15000,0,0,90.0*
21,1,0.45000,0.30000,0,0,90.0*
1,1,0.15000,0.07500,0.22500*
1,1,0.15000,0.07500,-0.22500*
1,1,0.15000,-0.07500,-0.22500*
1,1,0.15000,-0.07500,0.22500*
%
%ADD39ROUNDEDRECTD39*%
G04:AMPARAMS|DCode=40|XSize=0.6mm|YSize=0.3mm|CornerRadius=0.075mm|HoleSize=0mm|Usage=FLASHONLY|Rotation=0.000|XOffset=0mm|YOffset=0mm|HoleType=Round|Shape=RoundedRectangle|*
%AMROUNDEDRECTD40*
21,1,0.60000,0.15000,0,0,0.0*
21,1,0.45000,0.30000,0,0,0.0*
1,1,0.15000,0.22500,-0.07500*
1,1,0.15000,-0.22500,-0.07500*
1,1,0.15000,-0.22500,0.07500*
1,1,0.15000,0.22500,0.07500*
%
%ADD40ROUNDEDRECTD40*%
%ADD41R,1.50000X1.00000*%
G04:AMPARAMS|DCode=42|XSize=0.24mm|YSize=0.6mm|CornerRadius=0.0504mm|HoleSize=0mm|Usage=FLASHONLY|Rotation=270.000|XOffset=0mm|YOffset=0mm|HoleType=Round|Shape=RoundedRectangle|*
%AMROUNDEDRECTD42*
21,1,0.24000,0.49920,0,0,270.0*
21,1,0.13920,0.60000,0,0,270.0*
1,1,0.10080,-0.24960,-0.06960*
1,1,0.10080,-0.24960,0.06960*
1,1,0.10080,0.24960,0.06960*
1,1,0.10080,0.24960,-0.06960*
%
%ADD42ROUNDEDRECTD42*%
G04:AMPARAMS|DCode=43|XSize=0.6mm|YSize=0.24mm|CornerRadius=0.0504mm|HoleSize=0mm|Usage=FLASHONLY|Rotation=270.000|XOffset=0mm|YOffset=0mm|HoleType=Round|Shape=RoundedRectangle|*
%AMROUNDEDRECTD43*
21,1,0.60000,0.13920,0,0,270.0*
21,1,0.49920,0.24000,0,0,270.0*
1,1,0.10080,-0.06960,-0.24960*
1,1,0.10080,-0.06960,0.24960*
1,1,0.10080,0.06960,0.24960*
1,1,0.10080,0.06960,-0.24960*
%
%ADD43ROUNDEDRECTD43*%
G04:AMPARAMS|DCode=44|XSize=2.05mm|YSize=3.05mm|CornerRadius=0.05125mm|HoleSize=0mm|Usage=FLASHONLY|Rotation=270.000|XOffset=0mm|YOffset=0mm|HoleType=Round|Shape=RoundedRectangle|*
%AMROUNDEDRECTD44*
21,1,2.05000,2.94750,0,0,270.0*
21,1,1.94750,3.05000,0,0,270.0*
1,1,0.10250,-1.47375,-0.97375*
1,1,0.10250,-1.47375,0.97375*
1,1,0.10250,1.47375,0.97375*
1,1,0.10250,1.47375,-0.97375*
%
%ADD44ROUNDEDRECTD44*%
%ADD45R,5.50000X5.70000*%
%ADD46R,1.00000X1.75000*%
%ADD47R,0.60000X0.80000*%
%ADD48R,1.00000X0.50000*%
%ADD49R,1.80000X1.40000*%
%ADD50R,1.40000X0.30000*%
%ADD51R,0.30000X1.40000*%
%ADD52R,0.60000X1.00000*%
%ADD53R,0.60000X1.20000*%
%ADD54R,1.79000X3.20000*%
%ADD55R,11.00000X8.00000*%
G36*
X-3352487Y10603517D02*
X-3352473Y10603519D01*
X-3352212Y10603512D01*
X-3352185Y10603506D01*
X-3352158Y10603509D01*
X-3351898Y10603489D01*
X-3351872Y10603481D01*
X-3351845Y10603483D01*
X-3351585Y10603449D01*
X-3351559Y10603441D01*
X-3351532Y10603441D01*
X-3351275Y10603393D01*
X-3351250Y10603383D01*
X-3351223Y10603382D01*
X-3350969Y10603321D01*
X-3350943Y10603310D01*
X-3350916Y10603307D01*
X-3350665Y10603233D01*
X-3350642Y10603220D01*
X-3350615Y10603216D01*
X-3350368Y10603129D01*
X-3350345Y10603115D01*
X-3350318Y10603110D01*
X-3350076Y10603009D01*
X-3350054Y10602995D01*
X-3350028Y10602988D01*
X-3349792Y10602875D01*
X-3349770Y10602859D01*
X-3349744Y10602851D01*
X-3349513Y10602726D01*
X-3349493Y10602709D01*
X-3349468Y10602700D01*
X-3349245Y10602563D01*
X-3349224Y10602544D01*
X-3349199Y10602533D01*
X-3348984Y10602385D01*
X-3348965Y10602366D01*
X-3348940Y10602354D01*
X-3348733Y10602194D01*
X-3348715Y10602174D01*
X-3348692Y10602161D01*
X-3348492Y10601991D01*
X-3348475Y10601969D01*
X-3348453Y10601955D01*
X-3348263Y10601775D01*
X-3348247Y10601752D01*
X-3348225Y10601737D01*
X-3348044Y10601547D01*
X-3348030Y10601524D01*
X-3348010Y10601508D01*
X-3347839Y10601309D01*
X-3347826Y10601285D01*
X-3347806Y10601267D01*
X-3347646Y10601060D01*
X-3347634Y10601035D01*
X-3347615Y10601017D01*
X-3347467Y10600801D01*
X-3347456Y10600776D01*
X-3347437Y10600755D01*
X-3347300Y10600532D01*
X-3347291Y10600507D01*
X-3347274Y10600487D01*
X-3347149Y10600256D01*
X-3347141Y10600230D01*
X-3347125Y10600209D01*
X-3347012Y10599973D01*
X-3347005Y10599946D01*
X-3346990Y10599923D01*
X-3346890Y10599682D01*
X-3346885Y10599655D01*
X-3346871Y10599632D01*
X-3346784Y10599385D01*
X-3346780Y10599358D01*
X-3346767Y10599335D01*
X-3346693Y10599084D01*
X-3346691Y10599057D01*
X-3346679Y10599032D01*
X-3346618Y10598778D01*
X-3346617Y10598750D01*
X-3346607Y10598725D01*
X-3346559Y10598467D01*
X-3346559Y10598441D01*
X-3346551Y10598416D01*
X-3346517Y10598156D01*
X-3346519Y10598129D01*
X-3346511Y10598103D01*
X-3346490Y10597842D01*
X-3346494Y10597815D01*
X-3346488Y10597788D01*
X-3346481Y10597526D01*
X-3346483Y10597513D01*
X-3346480Y10597500D01*
Y10538519D01*
X-3260000D01*
X-3259987Y10538517D01*
X-3259973Y10538519D01*
X-3259712Y10538512D01*
X-3259685Y10538506D01*
X-3259658Y10538510D01*
X-3259397Y10538489D01*
X-3259370Y10538481D01*
X-3259344Y10538483D01*
X-3259084Y10538449D01*
X-3259060Y10538440D01*
X-3259033Y10538441D01*
X-3258776Y10538393D01*
X-3258750Y10538383D01*
X-3258722Y10538382D01*
X-3258467Y10538321D01*
X-3258443Y10538309D01*
X-3258416Y10538307D01*
X-3258165Y10538232D01*
X-3258142Y10538220D01*
X-3258115Y10538216D01*
X-3257868Y10538129D01*
X-3257845Y10538115D01*
X-3257819Y10538110D01*
X-3257577Y10538010D01*
X-3257554Y10537994D01*
X-3257527Y10537988D01*
X-3257291Y10537875D01*
X-3257269Y10537859D01*
X-3257244Y10537851D01*
X-3257014Y10537726D01*
X-3256993Y10537709D01*
X-3256967Y10537699D01*
X-3256744Y10537562D01*
X-3256724Y10537544D01*
X-3256699Y10537533D01*
X-3256484Y10537385D01*
X-3256465Y10537366D01*
X-3256441Y10537354D01*
X-3256233Y10537195D01*
X-3256215Y10537174D01*
X-3256192Y10537161D01*
X-3255992Y10536991D01*
X-3255975Y10536969D01*
X-3255952Y10536955D01*
X-3255762Y10536774D01*
X-3255747Y10536752D01*
X-3255726Y10536738D01*
X-3255545Y10536548D01*
X-3255530Y10536525D01*
X-3255509Y10536508D01*
X-3255339Y10536308D01*
X-3255325Y10536284D01*
X-3255305Y10536267D01*
X-3255146Y10536059D01*
X-3255134Y10536035D01*
X-3255115Y10536017D01*
X-3254967Y10535801D01*
X-3254956Y10535776D01*
X-3254938Y10535756D01*
X-3254801Y10535533D01*
X-3254791Y10535507D01*
X-3254774Y10535486D01*
X-3254649Y10535256D01*
X-3254641Y10535230D01*
X-3254625Y10535209D01*
X-3254512Y10534972D01*
X-3254506Y10534946D01*
X-3254490Y10534923D01*
X-3254390Y10534681D01*
X-3254385Y10534655D01*
X-3254371Y10534632D01*
X-3254284Y10534386D01*
X-3254280Y10534358D01*
X-3254268Y10534335D01*
X-3254193Y10534084D01*
X-3254191Y10534057D01*
X-3254179Y10534033D01*
X-3254118Y10533778D01*
X-3254117Y10533751D01*
X-3254107Y10533725D01*
X-3254059Y10533468D01*
X-3254059Y10533440D01*
X-3254051Y10533415D01*
X-3254017Y10533155D01*
X-3254018Y10533129D01*
X-3254011Y10533103D01*
X-3253990Y10532842D01*
X-3253994Y10532815D01*
X-3253988Y10532788D01*
X-3253981Y10532527D01*
X-3253983Y10532513D01*
X-3253981Y10532500D01*
Y10522500D01*
X-3253983Y10522487D01*
X-3253981Y10522473D01*
X-3253988Y10522211D01*
X-3253994Y10522185D01*
X-3253990Y10522158D01*
X-3254011Y10521897D01*
X-3254018Y10521871D01*
X-3254017Y10521845D01*
X-3254051Y10521585D01*
X-3254059Y10521559D01*
X-3254059Y10521532D01*
X-3254107Y10521274D01*
X-3254117Y10521249D01*
X-3254118Y10521222D01*
X-3254179Y10520967D01*
X-3254191Y10520942D01*
X-3254193Y10520916D01*
X-3254268Y10520665D01*
X-3254280Y10520641D01*
X-3254284Y10520615D01*
X-3254371Y10520368D01*
X-3254385Y10520345D01*
X-3254390Y10520318D01*
X-3254490Y10520076D01*
X-3254506Y10520053D01*
X-3254512Y10520027D01*
X-3254625Y10519790D01*
X-3254641Y10519769D01*
X-3254649Y10519744D01*
X-3254774Y10519514D01*
X-3254791Y10519493D01*
X-3254801Y10519467D01*
X-3254938Y10519244D01*
X-3254956Y10519224D01*
X-3254967Y10519199D01*
X-3255115Y10518983D01*
X-3255134Y10518965D01*
X-3255146Y10518941D01*
X-3255305Y10518733D01*
X-3255326Y10518715D01*
X-3255339Y10518691D01*
X-3255509Y10518492D01*
X-3255531Y10518475D01*
X-3255545Y10518452D01*
X-3255725Y10518262D01*
X-3255748Y10518246D01*
X-3255763Y10518225D01*
X-3255953Y10518045D01*
X-3255975Y10518030D01*
X-3255992Y10518009D01*
X-3256192Y10517839D01*
X-3256215Y10517825D01*
X-3256233Y10517805D01*
X-3256440Y10517646D01*
X-3256465Y10517634D01*
X-3256483Y10517615D01*
X-3256699Y10517466D01*
X-3256724Y10517455D01*
X-3256745Y10517437D01*
X-3256968Y10517300D01*
X-3256993Y10517291D01*
X-3257013Y10517274D01*
X-3257243Y10517149D01*
X-3257270Y10517141D01*
X-3257291Y10517125D01*
X-3257527Y10517012D01*
X-3257554Y10517005D01*
X-3257577Y10516990D01*
X-3257819Y10516890D01*
X-3257845Y10516885D01*
X-3257868Y10516871D01*
X-3258114Y10516783D01*
X-3258142Y10516779D01*
X-3258165Y10516767D01*
X-3258416Y10516693D01*
X-3258443Y10516690D01*
X-3258468Y10516678D01*
X-3258723Y10516618D01*
X-3258750Y10516617D01*
X-3258775Y10516607D01*
X-3259032Y10516559D01*
X-3259060Y10516559D01*
X-3259084Y10516551D01*
X-3259344Y10516516D01*
X-3259371Y10516518D01*
X-3259398Y10516511D01*
X-3259659Y10516490D01*
X-3259686Y10516493D01*
X-3259712Y10516487D01*
X-3259973Y10516481D01*
X-3259987Y10516483D01*
X-3260000Y10516480D01*
X-3306481D01*
Y10483519D01*
X-3260000D01*
X-3259987Y10483517D01*
X-3259973Y10483519D01*
X-3259712Y10483512D01*
X-3259686Y10483506D01*
X-3259659Y10483509D01*
X-3259398Y10483489D01*
X-3259371Y10483481D01*
X-3259344Y10483483D01*
X-3259084Y10483449D01*
X-3259060Y10483441D01*
X-3259032Y10483441D01*
X-3258775Y10483393D01*
X-3258750Y10483383D01*
X-3258723Y10483382D01*
X-3258468Y10483321D01*
X-3258443Y10483309D01*
X-3258416Y10483307D01*
X-3258165Y10483233D01*
X-3258142Y10483220D01*
X-3258115Y10483216D01*
X-3257868Y10483129D01*
X-3257845Y10483115D01*
X-3257819Y10483110D01*
X-3257577Y10483010D01*
X-3257554Y10482994D01*
X-3257527Y10482988D01*
X-3257291Y10482875D01*
X-3257269Y10482859D01*
X-3257243Y10482851D01*
X-3257013Y10482726D01*
X-3256993Y10482709D01*
X-3256968Y10482700D01*
X-3256745Y10482563D01*
X-3256724Y10482544D01*
X-3256699Y10482533D01*
X-3256484Y10482385D01*
X-3256465Y10482366D01*
X-3256441Y10482354D01*
X-3256233Y10482194D01*
X-3256215Y10482174D01*
X-3256192Y10482161D01*
X-3255992Y10481991D01*
X-3255975Y10481969D01*
X-3255953Y10481955D01*
X-3255763Y10481775D01*
X-3255747Y10481753D01*
X-3255725Y10481737D01*
X-3255545Y10481547D01*
X-3255530Y10481524D01*
X-3255509Y10481508D01*
X-3255339Y10481309D01*
X-3255326Y10481285D01*
X-3255305Y10481267D01*
X-3255146Y10481059D01*
X-3255134Y10481035D01*
X-3255115Y10481017D01*
X-3254967Y10480801D01*
X-3254956Y10480776D01*
X-3254938Y10480756D01*
X-3254801Y10480533D01*
X-3254791Y10480507D01*
X-3254774Y10480486D01*
X-3254649Y10480256D01*
X-3254641Y10480230D01*
X-3254625Y10480209D01*
X-3254512Y10479973D01*
X-3254505Y10479946D01*
X-3254490Y10479923D01*
X-3254390Y10479682D01*
X-3254385Y10479655D01*
X-3254371Y10479632D01*
X-3254284Y10479385D01*
X-3254280Y10479358D01*
X-3254268Y10479335D01*
X-3254193Y10479084D01*
X-3254191Y10479057D01*
X-3254179Y10479032D01*
X-3254118Y10478778D01*
X-3254117Y10478751D01*
X-3254107Y10478725D01*
X-3254059Y10478468D01*
X-3254059Y10478441D01*
X-3254051Y10478415D01*
X-3254017Y10478155D01*
X-3254018Y10478129D01*
X-3254011Y10478103D01*
X-3253990Y10477842D01*
X-3253994Y10477815D01*
X-3253988Y10477788D01*
X-3253981Y10477526D01*
X-3253983Y10477513D01*
X-3253981Y10477500D01*
Y10467500D01*
X-3253983Y10467487D01*
X-3253981Y10467473D01*
X-3253988Y10467211D01*
X-3253994Y10467185D01*
X-3253990Y10467158D01*
X-3254011Y10466897D01*
X-3254018Y10466871D01*
X-3254017Y10466845D01*
X-3254051Y10466585D01*
X-3254059Y10466559D01*
X-3254059Y10466532D01*
X-3254107Y10466274D01*
X-3254117Y10466249D01*
X-3254118Y10466222D01*
X-3254179Y10465967D01*
X-3254191Y10465942D01*
X-3254193Y10465916D01*
X-3254268Y10465665D01*
X-3254280Y10465641D01*
X-3254284Y10465614D01*
X-3254371Y10465368D01*
X-3254385Y10465345D01*
X-3254390Y10465318D01*
X-3254490Y10465076D01*
X-3254506Y10465054D01*
X-3254512Y10465027D01*
X-3254625Y10464791D01*
X-3254641Y10464770D01*
X-3254649Y10464744D01*
X-3254774Y10464513D01*
X-3254791Y10464492D01*
X-3254801Y10464467D01*
X-3254938Y10464244D01*
X-3254956Y10464224D01*
X-3254967Y10464199D01*
X-3255115Y10463983D01*
X-3255134Y10463965D01*
X-3255146Y10463941D01*
X-3255305Y10463733D01*
X-3255326Y10463715D01*
X-3255339Y10463691D01*
X-3255509Y10463492D01*
X-3255531Y10463475D01*
X-3255545Y10463452D01*
X-3255726Y10463262D01*
X-3255748Y10463247D01*
X-3255762Y10463225D01*
X-3255952Y10463045D01*
X-3255975Y10463030D01*
X-3255992Y10463009D01*
X-3256192Y10462838D01*
X-3256215Y10462825D01*
X-3256233Y10462805D01*
X-3256441Y10462646D01*
X-3256465Y10462634D01*
X-3256483Y10462615D01*
X-3256699Y10462467D01*
X-3256724Y10462456D01*
X-3256744Y10462437D01*
X-3256967Y10462300D01*
X-3256993Y10462291D01*
X-3257014Y10462273D01*
X-3257244Y10462149D01*
X-3257270Y10462141D01*
X-3257291Y10462125D01*
X-3257527Y10462012D01*
X-3257554Y10462005D01*
X-3257577Y10461990D01*
X-3257819Y10461890D01*
X-3257845Y10461885D01*
X-3257868Y10461871D01*
X-3258114Y10461783D01*
X-3258142Y10461779D01*
X-3258165Y10461767D01*
X-3258416Y10461693D01*
X-3258443Y10461690D01*
X-3258467Y10461679D01*
X-3258722Y10461618D01*
X-3258750Y10461617D01*
X-3258776Y10461606D01*
X-3259033Y10461559D01*
X-3259060Y10461559D01*
X-3259084Y10461551D01*
X-3259344Y10461517D01*
X-3259370Y10461518D01*
X-3259397Y10461511D01*
X-3259658Y10461490D01*
X-3259685Y10461493D01*
X-3259712Y10461487D01*
X-3259973Y10461480D01*
X-3259987Y10461483D01*
X-3260000Y10461480D01*
X-3346480D01*
Y10402500D01*
X-3346483Y10402487D01*
X-3346481Y10402473D01*
X-3346488Y10402211D01*
X-3346494Y10402185D01*
X-3346490Y10402158D01*
X-3346511Y10401897D01*
X-3346519Y10401870D01*
X-3346517Y10401844D01*
X-3346551Y10401584D01*
X-3346559Y10401559D01*
X-3346559Y10401532D01*
X-3346607Y10401275D01*
X-3346617Y10401250D01*
X-3346618Y10401222D01*
X-3346679Y10400967D01*
X-3346691Y10400942D01*
X-3346693Y10400916D01*
X-3346767Y10400665D01*
X-3346780Y10400641D01*
X-3346784Y10400615D01*
X-3346871Y10400368D01*
X-3346885Y10400345D01*
X-3346890Y10400318D01*
X-3346990Y10400076D01*
X-3347006Y10400053D01*
X-3347012Y10400027D01*
X-3347125Y10399790D01*
X-3347141Y10399769D01*
X-3347149Y10399743D01*
X-3347274Y10399513D01*
X-3347291Y10399493D01*
X-3347300Y10399468D01*
X-3347437Y10399244D01*
X-3347456Y10399224D01*
X-3347467Y10399199D01*
X-3347615Y10398983D01*
X-3347634Y10398965D01*
X-3347646Y10398940D01*
X-3347806Y10398733D01*
X-3347826Y10398715D01*
X-3347839Y10398691D01*
X-3348009Y10398492D01*
X-3348031Y10398475D01*
X-3348045Y10398453D01*
X-3348225Y10398263D01*
X-3348247Y10398247D01*
X-3348263Y10398225D01*
X-3348453Y10398045D01*
X-3348475Y10398030D01*
X-3348492Y10398009D01*
X-3348692Y10397838D01*
X-3348715Y10397825D01*
X-3348733Y10397805D01*
X-3348940Y10397646D01*
X-3348965Y10397634D01*
X-3348983Y10397615D01*
X-3349199Y10397466D01*
X-3349224Y10397455D01*
X-3349245Y10397437D01*
X-3349468Y10397300D01*
X-3349493Y10397291D01*
X-3349513Y10397274D01*
X-3349744Y10397149D01*
X-3349770Y10397141D01*
X-3349792Y10397124D01*
X-3350028Y10397012D01*
X-3350054Y10397005D01*
X-3350076Y10396990D01*
X-3350318Y10396890D01*
X-3350345Y10396885D01*
X-3350368Y10396871D01*
X-3350614Y10396783D01*
X-3350642Y10396779D01*
X-3350665Y10396767D01*
X-3350916Y10396693D01*
X-3350943Y10396690D01*
X-3350969Y10396678D01*
X-3351223Y10396618D01*
X-3351250Y10396616D01*
X-3351275Y10396607D01*
X-3351532Y10396559D01*
X-3351559Y10396559D01*
X-3351585Y10396550D01*
X-3351845Y10396516D01*
X-3351871Y10396518D01*
X-3351897Y10396511D01*
X-3352158Y10396490D01*
X-3352185Y10396494D01*
X-3352212Y10396487D01*
X-3352473Y10396481D01*
X-3352487Y10396483D01*
X-3352500Y10396480D01*
X-3647500D01*
X-3647513Y10396483D01*
X-3647527Y10396481D01*
X-3647788Y10396487D01*
X-3647815Y10396494D01*
X-3647842Y10396490D01*
X-3648103Y10396511D01*
X-3648129Y10396518D01*
X-3648155Y10396516D01*
X-3648415Y10396550D01*
X-3648441Y10396559D01*
X-3648468Y10396559D01*
X-3648725Y10396607D01*
X-3648750Y10396616D01*
X-3648777Y10396618D01*
X-3649032Y10396678D01*
X-3649057Y10396690D01*
X-3649084Y10396693D01*
X-3649335Y10396767D01*
X-3649359Y10396780D01*
X-3649386Y10396783D01*
X-3649632Y10396871D01*
X-3649656Y10396885D01*
X-3649683Y10396890D01*
X-3649925Y10396991D01*
X-3649946Y10397005D01*
X-3649972Y10397012D01*
X-3650208Y10397124D01*
X-3650230Y10397141D01*
X-3650257Y10397149D01*
X-3650487Y10397274D01*
X-3650507Y10397291D01*
X-3650532Y10397300D01*
X-3650756Y10397437D01*
X-3650776Y10397455D01*
X-3650801Y10397466D01*
X-3651017Y10397615D01*
X-3651035Y10397634D01*
X-3651060Y10397646D01*
X-3651268Y10397805D01*
X-3651285Y10397826D01*
X-3651309Y10397839D01*
X-3651508Y10398009D01*
X-3651525Y10398030D01*
X-3651548Y10398045D01*
X-3651737Y10398225D01*
X-3651753Y10398247D01*
X-3651776Y10398263D01*
X-3651956Y10398453D01*
X-3651970Y10398476D01*
X-3651991Y10398492D01*
X-3652161Y10398691D01*
X-3652174Y10398715D01*
X-3652195Y10398733D01*
X-3652354Y10398940D01*
X-3652366Y10398964D01*
X-3652385Y10398983D01*
X-3652533Y10399199D01*
X-3652544Y10399224D01*
X-3652563Y10399244D01*
X-3652700Y10399468D01*
X-3652709Y10399493D01*
X-3652726Y10399513D01*
X-3652851Y10399743D01*
X-3652859Y10399769D01*
X-3652875Y10399791D01*
X-3652988Y10400027D01*
X-3652995Y10400054D01*
X-3653010Y10400076D01*
X-3653110Y10400318D01*
X-3653115Y10400345D01*
X-3653129Y10400368D01*
X-3653216Y10400615D01*
X-3653220Y10400641D01*
X-3653233Y10400665D01*
X-3653307Y10400916D01*
X-3653310Y10400942D01*
X-3653321Y10400967D01*
X-3653382Y10401222D01*
X-3653383Y10401250D01*
X-3653394Y10401275D01*
X-3653441Y10401532D01*
X-3653441Y10401559D01*
X-3653449Y10401584D01*
X-3653483Y10401844D01*
X-3653482Y10401870D01*
X-3653489Y10401897D01*
X-3653510Y10402158D01*
X-3653507Y10402185D01*
X-3653513Y10402211D01*
X-3653519Y10402473D01*
X-3653517Y10402487D01*
X-3653520Y10402500D01*
Y10461480D01*
X-3740000D01*
X-3740013Y10461483D01*
X-3740027Y10461480D01*
X-3740288Y10461487D01*
X-3740315Y10461493D01*
X-3740342Y10461490D01*
X-3740603Y10461511D01*
X-3740630Y10461518D01*
X-3740656Y10461517D01*
X-3740916Y10461551D01*
X-3740941Y10461559D01*
X-3740967Y10461559D01*
X-3741225Y10461606D01*
X-3741250Y10461617D01*
X-3741278Y10461618D01*
X-3741533Y10461679D01*
X-3741558Y10461690D01*
X-3741584Y10461693D01*
X-3741835Y10461767D01*
X-3741859Y10461780D01*
X-3741886Y10461783D01*
X-3742132Y10461871D01*
X-3742156Y10461885D01*
X-3742181Y10461890D01*
X-3742423Y10461990D01*
X-3742447Y10462005D01*
X-3742473Y10462012D01*
X-3742710Y10462125D01*
X-3742731Y10462141D01*
X-3742756Y10462149D01*
X-3742986Y10462273D01*
X-3743008Y10462291D01*
X-3743033Y10462300D01*
X-3743256Y10462437D01*
X-3743276Y10462456D01*
X-3743301Y10462467D01*
X-3743517Y10462615D01*
X-3743535Y10462634D01*
X-3743559Y10462646D01*
X-3743767Y10462805D01*
X-3743785Y10462825D01*
X-3743809Y10462839D01*
X-3744008Y10463009D01*
X-3744025Y10463031D01*
X-3744048Y10463045D01*
X-3744238Y10463225D01*
X-3744253Y10463247D01*
X-3744274Y10463262D01*
X-3744455Y10463452D01*
X-3744470Y10463475D01*
X-3744491Y10463492D01*
X-3744662Y10463692D01*
X-3744675Y10463715D01*
X-3744695Y10463733D01*
X-3744854Y10463941D01*
X-3744866Y10463965D01*
X-3744885Y10463983D01*
X-3745033Y10464199D01*
X-3745044Y10464224D01*
X-3745063Y10464244D01*
X-3745200Y10464467D01*
X-3745209Y10464493D01*
X-3745226Y10464514D01*
X-3745351Y10464744D01*
X-3745359Y10464769D01*
X-3745375Y10464791D01*
X-3745488Y10465027D01*
X-3745495Y10465054D01*
X-3745510Y10465076D01*
X-3745610Y10465318D01*
X-3745615Y10465345D01*
X-3745629Y10465368D01*
X-3745716Y10465614D01*
X-3745720Y10465642D01*
X-3745733Y10465665D01*
X-3745807Y10465916D01*
X-3745810Y10465942D01*
X-3745821Y10465967D01*
X-3745882Y10466222D01*
X-3745883Y10466249D01*
X-3745893Y10466274D01*
X-3745941Y10466532D01*
X-3745941Y10466559D01*
X-3745950Y10466585D01*
X-3745984Y10466845D01*
X-3745982Y10466871D01*
X-3745989Y10466897D01*
X-3746010Y10467158D01*
X-3746006Y10467185D01*
X-3746013Y10467211D01*
X-3746019Y10467473D01*
X-3746017Y10467487D01*
X-3746020Y10467500D01*
Y10477500D01*
X-3746017Y10477513D01*
X-3746019Y10477526D01*
X-3746013Y10477788D01*
X-3746006Y10477815D01*
X-3746010Y10477842D01*
X-3745989Y10478102D01*
X-3745982Y10478128D01*
X-3745984Y10478155D01*
X-3745950Y10478415D01*
X-3745941Y10478441D01*
X-3745941Y10478468D01*
X-3745893Y10478725D01*
X-3745883Y10478751D01*
X-3745882Y10478778D01*
X-3745821Y10479032D01*
X-3745810Y10479057D01*
X-3745807Y10479084D01*
X-3745733Y10479335D01*
X-3745720Y10479359D01*
X-3745716Y10479385D01*
X-3745629Y10479632D01*
X-3745615Y10479655D01*
X-3745610Y10479682D01*
X-3745510Y10479923D01*
X-3745494Y10479947D01*
X-3745488Y10479973D01*
X-3745375Y10480209D01*
X-3745359Y10480230D01*
X-3745351Y10480256D01*
X-3745227Y10480486D01*
X-3745209Y10480507D01*
X-3745200Y10480533D01*
X-3745063Y10480756D01*
X-3745044Y10480776D01*
X-3745033Y10480801D01*
X-3744885Y10481016D01*
X-3744866Y10481035D01*
X-3744854Y10481059D01*
X-3744695Y10481267D01*
X-3744674Y10481285D01*
X-3744661Y10481309D01*
X-3744491Y10481508D01*
X-3744469Y10481525D01*
X-3744455Y10481547D01*
X-3744275Y10481737D01*
X-3744253Y10481753D01*
X-3744237Y10481775D01*
X-3744048Y10481955D01*
X-3744025Y10481969D01*
X-3744008Y10481991D01*
X-3743808Y10482161D01*
X-3743785Y10482174D01*
X-3743767Y10482194D01*
X-3743560Y10482354D01*
X-3743535Y10482366D01*
X-3743517Y10482385D01*
X-3743301Y10482533D01*
X-3743276Y10482544D01*
X-3743255Y10482563D01*
X-3743032Y10482700D01*
X-3743008Y10482709D01*
X-3742987Y10482726D01*
X-3742757Y10482851D01*
X-3742731Y10482859D01*
X-3742709Y10482875D01*
X-3742473Y10482988D01*
X-3742446Y10482995D01*
X-3742424Y10483010D01*
X-3742181Y10483110D01*
X-3742156Y10483115D01*
X-3742132Y10483129D01*
X-3741886Y10483216D01*
X-3741858Y10483220D01*
X-3741835Y10483233D01*
X-3741584Y10483307D01*
X-3741557Y10483309D01*
X-3741532Y10483321D01*
X-3741277Y10483382D01*
X-3741250Y10483383D01*
X-3741226Y10483393D01*
X-3740968Y10483441D01*
X-3740941Y10483441D01*
X-3740916Y10483449D01*
X-3740656Y10483483D01*
X-3740629Y10483481D01*
X-3740602Y10483489D01*
X-3740341Y10483509D01*
X-3740315Y10483506D01*
X-3740288Y10483512D01*
X-3740027Y10483519D01*
X-3740013Y10483517D01*
X-3740000Y10483519D01*
X-3693520D01*
Y10516480D01*
X-3740000D01*
X-3740013Y10516483D01*
X-3740027Y10516481D01*
X-3740288Y10516487D01*
X-3740315Y10516493D01*
X-3740341Y10516490D01*
X-3740602Y10516511D01*
X-3740629Y10516518D01*
X-3740656Y10516516D01*
X-3740916Y10516551D01*
X-3740941Y10516559D01*
X-3740968Y10516559D01*
X-3741225Y10516607D01*
X-3741250Y10516617D01*
X-3741277Y10516618D01*
X-3741532Y10516678D01*
X-3741557Y10516690D01*
X-3741584Y10516693D01*
X-3741835Y10516767D01*
X-3741859Y10516780D01*
X-3741886Y10516783D01*
X-3742132Y10516871D01*
X-3742156Y10516885D01*
X-3742181Y10516890D01*
X-3742423Y10516990D01*
X-3742447Y10517005D01*
X-3742473Y10517012D01*
X-3742710Y10517125D01*
X-3742731Y10517141D01*
X-3742757Y10517149D01*
X-3742987Y10517274D01*
X-3743008Y10517291D01*
X-3743032Y10517300D01*
X-3743256Y10517437D01*
X-3743276Y10517455D01*
X-3743301Y10517466D01*
X-3743517Y10517615D01*
X-3743535Y10517634D01*
X-3743560Y10517646D01*
X-3743767Y10517805D01*
X-3743785Y10517826D01*
X-3743809Y10517839D01*
X-3744008Y10518009D01*
X-3744025Y10518030D01*
X-3744048Y10518045D01*
X-3744237Y10518225D01*
X-3744253Y10518247D01*
X-3744275Y10518262D01*
X-3744455Y10518452D01*
X-3744470Y10518475D01*
X-3744491Y10518492D01*
X-3744661Y10518691D01*
X-3744674Y10518715D01*
X-3744695Y10518733D01*
X-3744854Y10518941D01*
X-3744866Y10518965D01*
X-3744885Y10518983D01*
X-3745033Y10519199D01*
X-3745044Y10519224D01*
X-3745063Y10519244D01*
X-3745200Y10519467D01*
X-3745209Y10519493D01*
X-3745227Y10519514D01*
X-3745351Y10519744D01*
X-3745359Y10519770D01*
X-3745375Y10519791D01*
X-3745488Y10520027D01*
X-3745495Y10520054D01*
X-3745510Y10520076D01*
X-3745610Y10520318D01*
X-3745615Y10520345D01*
X-3745629Y10520368D01*
X-3745716Y10520615D01*
X-3745720Y10520641D01*
X-3745733Y10520665D01*
X-3745807Y10520916D01*
X-3745810Y10520942D01*
X-3745821Y10520967D01*
X-3745882Y10521222D01*
X-3745883Y10521249D01*
X-3745893Y10521274D01*
X-3745941Y10521531D01*
X-3745941Y10521559D01*
X-3745950Y10521585D01*
X-3745984Y10521845D01*
X-3745982Y10521871D01*
X-3745989Y10521897D01*
X-3746010Y10522158D01*
X-3746006Y10522185D01*
X-3746013Y10522211D01*
X-3746019Y10522473D01*
X-3746017Y10522487D01*
X-3746020Y10522500D01*
Y10532500D01*
X-3746017Y10532513D01*
X-3746019Y10532527D01*
X-3746013Y10532788D01*
X-3746006Y10532815D01*
X-3746010Y10532842D01*
X-3745989Y10533102D01*
X-3745982Y10533128D01*
X-3745984Y10533155D01*
X-3745950Y10533415D01*
X-3745941Y10533440D01*
X-3745941Y10533468D01*
X-3745893Y10533725D01*
X-3745883Y10533751D01*
X-3745882Y10533778D01*
X-3745821Y10534033D01*
X-3745810Y10534057D01*
X-3745807Y10534084D01*
X-3745733Y10534335D01*
X-3745720Y10534358D01*
X-3745716Y10534385D01*
X-3745629Y10534632D01*
X-3745615Y10534655D01*
X-3745610Y10534681D01*
X-3745510Y10534923D01*
X-3745495Y10534946D01*
X-3745488Y10534972D01*
X-3745375Y10535209D01*
X-3745359Y10535230D01*
X-3745351Y10535256D01*
X-3745226Y10535486D01*
X-3745209Y10535507D01*
X-3745200Y10535533D01*
X-3745063Y10535756D01*
X-3745044Y10535776D01*
X-3745033Y10535801D01*
X-3744885Y10536016D01*
X-3744866Y10536035D01*
X-3744854Y10536059D01*
X-3744695Y10536267D01*
X-3744675Y10536285D01*
X-3744661Y10536308D01*
X-3744491Y10536508D01*
X-3744469Y10536525D01*
X-3744455Y10536548D01*
X-3744274Y10536738D01*
X-3744253Y10536753D01*
X-3744238Y10536774D01*
X-3744048Y10536955D01*
X-3744025Y10536970D01*
X-3744008Y10536991D01*
X-3743808Y10537161D01*
X-3743785Y10537175D01*
X-3743767Y10537195D01*
X-3743559Y10537354D01*
X-3743535Y10537366D01*
X-3743517Y10537385D01*
X-3743301Y10537533D01*
X-3743276Y10537544D01*
X-3743256Y10537562D01*
X-3743033Y10537699D01*
X-3743007Y10537709D01*
X-3742986Y10537726D01*
X-3742756Y10537851D01*
X-3742731Y10537859D01*
X-3742709Y10537875D01*
X-3742473Y10537988D01*
X-3742446Y10537995D01*
X-3742424Y10538010D01*
X-3742181Y10538110D01*
X-3742156Y10538115D01*
X-3742132Y10538129D01*
X-3741886Y10538216D01*
X-3741858Y10538220D01*
X-3741835Y10538232D01*
X-3741584Y10538307D01*
X-3741558Y10538309D01*
X-3741533Y10538321D01*
X-3741278Y10538382D01*
X-3741250Y10538383D01*
X-3741225Y10538393D01*
X-3740967Y10538441D01*
X-3740941Y10538440D01*
X-3740916Y10538449D01*
X-3740656Y10538483D01*
X-3740630Y10538481D01*
X-3740603Y10538489D01*
X-3740342Y10538510D01*
X-3740315Y10538506D01*
X-3740288Y10538512D01*
X-3740027Y10538519D01*
X-3740013Y10538517D01*
X-3740000Y10538519D01*
X-3653520D01*
Y10597500D01*
X-3653517Y10597513D01*
X-3653519Y10597526D01*
X-3653513Y10597788D01*
X-3653507Y10597815D01*
X-3653510Y10597842D01*
X-3653489Y10598103D01*
X-3653482Y10598129D01*
X-3653483Y10598156D01*
X-3653449Y10598416D01*
X-3653441Y10598441D01*
X-3653441Y10598467D01*
X-3653394Y10598725D01*
X-3653383Y10598750D01*
X-3653382Y10598778D01*
X-3653321Y10599032D01*
X-3653310Y10599057D01*
X-3653307Y10599084D01*
X-3653233Y10599335D01*
X-3653220Y10599359D01*
X-3653216Y10599385D01*
X-3653129Y10599632D01*
X-3653115Y10599655D01*
X-3653110Y10599682D01*
X-3653010Y10599923D01*
X-3652994Y10599947D01*
X-3652988Y10599973D01*
X-3652875Y10600209D01*
X-3652859Y10600231D01*
X-3652851Y10600256D01*
X-3652726Y10600487D01*
X-3652709Y10600507D01*
X-3652700Y10600532D01*
X-3652563Y10600756D01*
X-3652544Y10600776D01*
X-3652533Y10600801D01*
X-3652385Y10601016D01*
X-3652366Y10601035D01*
X-3652354Y10601060D01*
X-3652195Y10601267D01*
X-3652174Y10601285D01*
X-3652161Y10601309D01*
X-3651991Y10601508D01*
X-3651970Y10601525D01*
X-3651956Y10601547D01*
X-3651776Y10601737D01*
X-3651753Y10601753D01*
X-3651737Y10601775D01*
X-3651548Y10601955D01*
X-3651525Y10601969D01*
X-3651508Y10601991D01*
X-3651308Y10602161D01*
X-3651285Y10602174D01*
X-3651268Y10602194D01*
X-3651060Y10602354D01*
X-3651035Y10602366D01*
X-3651017Y10602385D01*
X-3650801Y10602533D01*
X-3650776Y10602544D01*
X-3650755Y10602563D01*
X-3650532Y10602700D01*
X-3650507Y10602709D01*
X-3650487Y10602726D01*
X-3650257Y10602851D01*
X-3650230Y10602859D01*
X-3650208Y10602875D01*
X-3649972Y10602988D01*
X-3649946Y10602994D01*
X-3649924Y10603009D01*
X-3649683Y10603110D01*
X-3649656Y10603115D01*
X-3649632Y10603129D01*
X-3649386Y10603216D01*
X-3649358Y10603220D01*
X-3649335Y10603233D01*
X-3649084Y10603307D01*
X-3649057Y10603310D01*
X-3649032Y10603321D01*
X-3648777Y10603382D01*
X-3648750Y10603383D01*
X-3648725Y10603393D01*
X-3648468Y10603441D01*
X-3648441Y10603441D01*
X-3648415Y10603449D01*
X-3648155Y10603483D01*
X-3648129Y10603481D01*
X-3648103Y10603489D01*
X-3647842Y10603509D01*
X-3647815Y10603506D01*
X-3647788Y10603512D01*
X-3647527Y10603519D01*
X-3647513Y10603517D01*
X-3647500Y10603519D01*
X-3352500D01*
X-3352487Y10603517D01*
D02*
G37*
D11*
X-4950000Y5933000D02*
D03*
Y5847000D02*
D03*
X-5059500Y6557000D02*
D03*
Y6643000D02*
D03*
X1897500Y7793000D02*
D03*
Y7707000D02*
D03*
X2027500Y7793000D02*
D03*
Y7707000D02*
D03*
X1767500Y7793000D02*
D03*
Y7707000D02*
D03*
X1507500Y8843000D02*
D03*
Y8757000D02*
D03*
X1767500Y8843000D02*
D03*
Y8757000D02*
D03*
X1897500Y8843000D02*
D03*
Y8757000D02*
D03*
X2027500Y8843000D02*
D03*
Y8757000D02*
D03*
X1507500Y7793000D02*
D03*
Y7707000D02*
D03*
X1637500Y7793000D02*
D03*
Y7707000D02*
D03*
X1767500Y8957000D02*
D03*
Y9043000D02*
D03*
X2027500Y8957000D02*
D03*
Y9043000D02*
D03*
X1897500Y8957000D02*
D03*
Y9043000D02*
D03*
X2157500Y8757000D02*
D03*
Y8843000D02*
D03*
X2287500Y8757000D02*
D03*
Y8843000D02*
D03*
X2157500Y7793000D02*
D03*
Y7707000D02*
D03*
X2287500Y7793000D02*
D03*
Y7707000D02*
D03*
X3850000Y7793000D02*
D03*
Y7707000D02*
D03*
X3750000Y7593000D02*
D03*
Y7507000D02*
D03*
X3850000Y7593000D02*
D03*
Y7507000D02*
D03*
X3750000Y7793000D02*
D03*
Y7707000D02*
D03*
X4350000D02*
D03*
Y7793000D02*
D03*
X3850000Y7993000D02*
D03*
Y7907000D02*
D03*
X3750000Y7993000D02*
D03*
Y7907000D02*
D03*
X3450000Y7993000D02*
D03*
Y7907000D02*
D03*
Y7593000D02*
D03*
Y7507000D02*
D03*
Y7793000D02*
D03*
Y7707000D02*
D03*
X3250000Y7907000D02*
D03*
Y7993000D02*
D03*
X3350000D02*
D03*
Y7907000D02*
D03*
Y7593000D02*
D03*
Y7507000D02*
D03*
X3250000D02*
D03*
Y7593000D02*
D03*
Y7707000D02*
D03*
Y7793000D02*
D03*
X3350000D02*
D03*
Y7707000D02*
D03*
X2899999Y9643000D02*
D03*
Y9557000D02*
D03*
X2550000Y11358700D02*
D03*
Y11272700D02*
D03*
X2450000Y11358700D02*
D03*
Y11272700D02*
D03*
X1729820Y10757000D02*
D03*
Y10843000D02*
D03*
X1900000Y10757000D02*
D03*
Y10843000D02*
D03*
X2070180Y10757000D02*
D03*
Y10843000D02*
D03*
X2240360D02*
D03*
Y10757000D02*
D03*
X-5120000Y10243000D02*
D03*
Y10157000D02*
D03*
X-5240000Y10243000D02*
D03*
Y10157000D02*
D03*
X-4500000Y11442999D02*
D03*
Y11357000D02*
D03*
X-4600000D02*
D03*
Y11442999D02*
D03*
X-4700000Y11357000D02*
D03*
Y11443000D02*
D03*
X-3900000Y10893000D02*
D03*
Y10807000D02*
D03*
Y10632000D02*
D03*
Y10717999D02*
D03*
X-5000000Y10357000D02*
D03*
Y10443000D02*
D03*
X-4900000D02*
D03*
Y10357000D02*
D03*
X-4800000Y10443000D02*
D03*
Y10357000D02*
D03*
X-4700000Y10443000D02*
D03*
Y10357000D02*
D03*
X-3100000Y10067999D02*
D03*
Y9982000D02*
D03*
X-2095000Y11357000D02*
D03*
Y11442999D02*
D03*
X-2000000D02*
D03*
Y11357000D02*
D03*
X-1905000Y10842999D02*
D03*
Y10757000D02*
D03*
X-2000000Y10843000D02*
D03*
Y10757000D02*
D03*
X-2095000Y10843000D02*
D03*
Y10757000D02*
D03*
X-1905000Y10557000D02*
D03*
Y10643000D02*
D03*
X-2000000Y10557000D02*
D03*
Y10643000D02*
D03*
X-2095000Y10642999D02*
D03*
Y10556999D02*
D03*
X-1905000Y10042999D02*
D03*
Y9957000D02*
D03*
X-2000000Y10042999D02*
D03*
Y9957000D02*
D03*
X-2095000Y10042999D02*
D03*
Y9957000D02*
D03*
X-800000Y10285000D02*
D03*
Y10199000D02*
D03*
X-1600000D02*
D03*
Y10285000D02*
D03*
X-1574800Y10622100D02*
D03*
Y10536100D02*
D03*
X-825500Y10777400D02*
D03*
Y10863400D02*
D03*
X-600000Y10314000D02*
D03*
Y10400000D02*
D03*
X-600000Y10586000D02*
D03*
Y10500000D02*
D03*
X-600000Y11050000D02*
D03*
Y11136000D02*
D03*
X1200000Y10300000D02*
D03*
Y10386000D02*
D03*
X1200000Y10236000D02*
D03*
Y10150000D02*
D03*
X400000Y9793000D02*
D03*
Y9707000D02*
D03*
X300000Y9793000D02*
D03*
Y9707000D02*
D03*
X200000Y9793000D02*
D03*
Y9707000D02*
D03*
X-200000Y9793000D02*
D03*
Y9707000D02*
D03*
X-300000Y9793000D02*
D03*
Y9707000D02*
D03*
X-3200000Y10807000D02*
D03*
Y10893000D02*
D03*
X-3450000Y5847000D02*
D03*
Y5933000D02*
D03*
X-862500Y3957000D02*
D03*
Y4043000D02*
D03*
X-1057500Y3957000D02*
D03*
Y4043000D02*
D03*
X-667500Y3043000D02*
D03*
Y2957000D02*
D03*
X-797500Y2957000D02*
D03*
Y3043000D02*
D03*
X-927500Y3043000D02*
D03*
Y2957000D02*
D03*
X-1057500Y3043000D02*
D03*
Y2957000D02*
D03*
X-62500Y3043000D02*
D03*
Y2957000D02*
D03*
X62500Y3043000D02*
D03*
Y2957000D02*
D03*
X682500Y4043000D02*
D03*
Y3957000D02*
D03*
X809500D02*
D03*
Y4043000D02*
D03*
Y3043000D02*
D03*
Y2957000D02*
D03*
X1444500Y3043000D02*
D03*
Y2957000D02*
D03*
X682500Y3043000D02*
D03*
Y2957000D02*
D03*
X555500Y3043000D02*
D03*
Y2957000D02*
D03*
X428450Y3043000D02*
D03*
Y2957000D02*
D03*
X-3559500Y6643000D02*
D03*
Y6557000D02*
D03*
X-3813500Y6557000D02*
D03*
Y6643000D02*
D03*
X-3686500Y6557000D02*
D03*
Y6643000D02*
D03*
X-5186500Y6557000D02*
D03*
Y6643000D02*
D03*
X-5313500Y6557000D02*
D03*
Y6643000D02*
D03*
X-3300000Y5683000D02*
D03*
Y5597000D02*
D03*
X-4200000Y5597000D02*
D03*
Y5683000D02*
D03*
X-4800000Y5683000D02*
D03*
Y5597000D02*
D03*
X-5700000Y5597000D02*
D03*
Y5683000D02*
D03*
X-3436040Y5057000D02*
D03*
Y5143000D02*
D03*
X-3561040Y5057000D02*
D03*
Y5143000D02*
D03*
X-3936040Y5057000D02*
D03*
Y5143000D02*
D03*
X-4061040Y5057000D02*
D03*
Y5143000D02*
D03*
X-4936040Y5057000D02*
D03*
Y5143000D02*
D03*
X-5061040Y5057000D02*
D03*
Y5143000D02*
D03*
X-5436040Y5057000D02*
D03*
Y5143000D02*
D03*
X-5561040Y5057000D02*
D03*
Y5143000D02*
D03*
X5186500Y6557000D02*
D03*
Y6643000D02*
D03*
X5313500Y6557000D02*
D03*
Y6643000D02*
D03*
X5440500D02*
D03*
Y6557000D02*
D03*
X5550000Y5847000D02*
D03*
Y5933000D02*
D03*
X5700000Y5683000D02*
D03*
Y5597000D02*
D03*
X4800000Y5597000D02*
D03*
Y5683000D02*
D03*
X5563960Y5057000D02*
D03*
Y5143000D02*
D03*
X5438960Y5057000D02*
D03*
Y5143000D02*
D03*
X5063960Y5057000D02*
D03*
Y5143000D02*
D03*
X4938960Y5057000D02*
D03*
Y5143000D02*
D03*
X3940500Y6643000D02*
D03*
Y6557000D02*
D03*
X3813500D02*
D03*
Y6643000D02*
D03*
X3686500Y6557000D02*
D03*
Y6643000D02*
D03*
X4050000Y5847000D02*
D03*
Y5933000D02*
D03*
X3300000Y5597000D02*
D03*
Y5683000D02*
D03*
X4200000D02*
D03*
Y5597000D02*
D03*
X4063960Y5057000D02*
D03*
Y5143000D02*
D03*
X3938960Y5057000D02*
D03*
Y5143000D02*
D03*
X3563960Y5057000D02*
D03*
Y5143000D02*
D03*
X3438960Y5057000D02*
D03*
Y5143000D02*
D03*
D12*
X3001000Y9775000D02*
D03*
X6243000Y9500000D02*
D03*
X6157000D02*
D03*
Y8900000D02*
D03*
X6243000D02*
D03*
X6243000Y9000000D02*
D03*
X6157000D02*
D03*
X6243000Y9100000D02*
D03*
X6157000D02*
D03*
X6243000Y9400000D02*
D03*
X6157000D02*
D03*
X6243000Y10700000D02*
D03*
X6157000D02*
D03*
X6243000Y10800000D02*
D03*
X6157000D02*
D03*
Y11000000D02*
D03*
X6243000D02*
D03*
X6157000Y10200000D02*
D03*
X6243000D02*
D03*
X6157000Y9700000D02*
D03*
X6243000D02*
D03*
X6243000Y10100000D02*
D03*
X6157000D02*
D03*
X6243000Y10300000D02*
D03*
X6157000D02*
D03*
X6243000Y10400000D02*
D03*
X6157000D02*
D03*
X2915000Y9775000D02*
D03*
X3001000Y9400000D02*
D03*
X2915000D02*
D03*
X2857000Y10700000D02*
D03*
X2943000D02*
D03*
X2857000Y10600000D02*
D03*
X2943000D02*
D03*
Y10400000D02*
D03*
X2857000D02*
D03*
X4422499Y11205000D02*
D03*
X4336500D02*
D03*
X4422499Y11300000D02*
D03*
X4336500D02*
D03*
X3842999Y11205000D02*
D03*
X3756999D02*
D03*
X3842999Y11300000D02*
D03*
X3756999D02*
D03*
X3842999Y11395000D02*
D03*
X3756999D02*
D03*
X3407000Y11471250D02*
D03*
X3493000D02*
D03*
X2893000D02*
D03*
X2807000D02*
D03*
X-5157000Y10975000D02*
D03*
X-5243000D02*
D03*
X-5243000Y10875000D02*
D03*
X-5157000D02*
D03*
X-5243000Y10775000D02*
D03*
X-5157000D02*
D03*
X-3393000Y10906199D02*
D03*
X-3307000D02*
D03*
X-3607000D02*
D03*
X-3693000D02*
D03*
X-3543000Y9974999D02*
D03*
X-3457000D02*
D03*
X-3293000Y10175000D02*
D03*
X-3207000D02*
D03*
X-3293000Y10074999D02*
D03*
X-3207000D02*
D03*
X-3293000Y9974999D02*
D03*
X-3207000D02*
D03*
X-2443000Y10000000D02*
D03*
X-2357000D02*
D03*
X450000Y11600000D02*
D03*
X364000D02*
D03*
X1207000Y11300000D02*
D03*
X1293000D02*
D03*
X1207000Y11200000D02*
D03*
X1293000D02*
D03*
X5557000Y11700000D02*
D03*
X5643000D02*
D03*
Y11500000D02*
D03*
X5557000D02*
D03*
X5643000Y11600000D02*
D03*
X5557000D02*
D03*
X5357000Y11700000D02*
D03*
X5443000D02*
D03*
Y11500000D02*
D03*
X5357000D02*
D03*
X5443000Y11600000D02*
D03*
X5357000D02*
D03*
X5757000Y11700000D02*
D03*
X5843000D02*
D03*
Y11500000D02*
D03*
X5757000D02*
D03*
X5843000Y11600000D02*
D03*
X5757000D02*
D03*
D13*
X6200000Y10595000D02*
D03*
X6237500Y10505000D02*
D03*
X6162500D02*
D03*
X6200000Y9295000D02*
D03*
X6237500Y9205000D02*
D03*
X6162500D02*
D03*
X2937500Y10895000D02*
D03*
X2862500D02*
D03*
X2900000Y10805000D02*
D03*
X5637500Y11395000D02*
D03*
X5562500D02*
D03*
X5600000Y11305000D02*
D03*
X5437500Y11395000D02*
D03*
X5362500D02*
D03*
X5400000Y11305000D02*
D03*
X5837500Y11395000D02*
D03*
X5762500D02*
D03*
X5800000Y11305000D02*
D03*
D14*
X6245000Y9600000D02*
D03*
X6155000D02*
D03*
X6245000Y10900000D02*
D03*
X6155000D02*
D03*
X2855000Y10500000D02*
D03*
X2945000D02*
D03*
D15*
X2157500Y8000000D02*
D03*
X1442500D02*
D03*
Y8600000D02*
D03*
X2157500D02*
D03*
X1507500Y8000000D02*
D03*
X2092500D02*
D03*
X1507500Y8600000D02*
D03*
X2092500D02*
D03*
X2027500D02*
D03*
X1572500D02*
D03*
X1637500D02*
D03*
X1702500D02*
D03*
X1767500D02*
D03*
X1962500D02*
D03*
X1897500D02*
D03*
X1832500D02*
D03*
X2027500Y8000000D02*
D03*
X1572500D02*
D03*
X1637500D02*
D03*
X1702500D02*
D03*
X1767500D02*
D03*
X1962500D02*
D03*
X1897500D02*
D03*
X1832500D02*
D03*
X-1057500Y3800000D02*
D03*
X-342500D02*
D03*
Y3200000D02*
D03*
X-1057500D02*
D03*
X-407500Y3800000D02*
D03*
X-992500D02*
D03*
X-407500Y3200000D02*
D03*
X-992500D02*
D03*
X-927500D02*
D03*
X-472500D02*
D03*
X-537500D02*
D03*
X-602500D02*
D03*
X-667500D02*
D03*
X-862500D02*
D03*
X-797500D02*
D03*
X-732500D02*
D03*
X-927500Y3800000D02*
D03*
X-472500D02*
D03*
X-537500D02*
D03*
X-602500D02*
D03*
X-667500D02*
D03*
X-862500D02*
D03*
X-797500D02*
D03*
X-732500D02*
D03*
D16*
X3555000Y7587500D02*
D03*
Y7512500D02*
D03*
X3645000Y7550000D02*
D03*
X3555000Y7787500D02*
D03*
Y7712500D02*
D03*
X3645000Y7750000D02*
D03*
X3555000Y7987500D02*
D03*
Y7912500D02*
D03*
X3645000Y7950000D02*
D03*
D17*
X4070000Y7705000D02*
D03*
X4230000D02*
D03*
Y7795000D02*
D03*
X4070000D02*
D03*
D18*
X5852960Y7525000D02*
D03*
X5853000Y7575000D02*
D03*
Y7625000D02*
D03*
Y7675000D02*
D03*
Y7725000D02*
D03*
Y7975000D02*
D03*
Y7925000D02*
D03*
Y7875000D02*
D03*
Y7825000D02*
D03*
Y7775000D02*
D03*
X5723000Y8050000D02*
D03*
Y8000000D02*
D03*
Y7950000D02*
D03*
Y7900000D02*
D03*
Y7850000D02*
D03*
Y7800000D02*
D03*
Y7700000D02*
D03*
Y7650000D02*
D03*
Y7600000D02*
D03*
Y7550000D02*
D03*
Y7500000D02*
D03*
Y7450000D02*
D03*
D19*
X5853000Y8060000D02*
D03*
Y7440000D02*
D03*
X4622500Y11205000D02*
D03*
X4779999D02*
D03*
X-2825000Y10000000D02*
D03*
X-2675000D02*
D03*
D20*
X2899999Y9250000D02*
D03*
X2899999Y8950000D02*
D03*
X4779999Y11400000D02*
D03*
X4780000Y11700000D02*
D03*
D21*
X2752499Y9100000D02*
D03*
X3047499D02*
D03*
X4927499Y11550000D02*
D03*
X4632499D02*
D03*
D22*
X3969999Y11395000D02*
D03*
Y11300000D02*
D03*
Y11205000D02*
D03*
X4229999D02*
D03*
Y11395000D02*
D03*
D23*
X3252500Y11628750D02*
D03*
Y11471250D02*
D03*
X3047500Y11628750D02*
D03*
Y11471250D02*
D03*
X-1510000Y11353000D02*
D03*
X-890000D02*
D03*
X-4825000Y11425000D02*
D03*
Y11275000D02*
D03*
X-4975000Y11425000D02*
D03*
Y11275000D02*
D03*
X-5100000Y11425000D02*
D03*
Y11275000D02*
D03*
X-5225000Y11425000D02*
D03*
Y11275000D02*
D03*
X-3200000Y11175000D02*
D03*
Y11325000D02*
D03*
X-3800000Y11175000D02*
D03*
Y11325000D02*
D03*
X-4125000Y10300000D02*
D03*
Y10450000D02*
D03*
X-4275000Y10300000D02*
D03*
Y10450000D02*
D03*
X-4425000Y10300000D02*
D03*
Y10450000D02*
D03*
X-4575000Y10300000D02*
D03*
Y10450000D02*
D03*
X-4300000Y9975000D02*
D03*
Y10125000D02*
D03*
X-4150000Y9975000D02*
D03*
Y10125000D02*
D03*
X-4000000Y9975000D02*
D03*
Y10125000D02*
D03*
X-3850000Y9975000D02*
D03*
Y10125000D02*
D03*
X-3700000Y9975000D02*
D03*
Y10125000D02*
D03*
D24*
X4779999Y9699999D02*
D03*
X4599999Y9880000D02*
D03*
X4779999D02*
D03*
X4419999Y9699999D02*
D03*
X4599999D02*
D03*
X4419999Y9880000D02*
D03*
X4779999Y9520000D02*
D03*
X4419999D02*
D03*
X4599999D02*
D03*
X5679999Y8440000D02*
D03*
Y8620000D02*
D03*
X5319999Y8440000D02*
D03*
X5499999D02*
D03*
X5859999Y8620000D02*
D03*
Y8800000D02*
D03*
X5499999Y8620000D02*
D03*
X5679999Y8800000D02*
D03*
X5499999D02*
D03*
X4779999Y8440000D02*
D03*
X5139999D02*
D03*
X4959999D02*
D03*
X5139999Y8620000D02*
D03*
X5319999D02*
D03*
X4779999D02*
D03*
X5139999Y8800000D02*
D03*
X4959999Y8620000D02*
D03*
X5679999Y8980000D02*
D03*
X5859999D02*
D03*
Y9159999D02*
D03*
Y9339999D02*
D03*
X5679999Y9159999D02*
D03*
X5859999Y9519999D02*
D03*
X5679999Y9339999D02*
D03*
X4959999Y8800000D02*
D03*
X5499999Y8980000D02*
D03*
X5319999Y8800000D02*
D03*
X5499999Y9159999D02*
D03*
X5679999Y9519999D02*
D03*
X5319999Y8980000D02*
D03*
X5499999Y9519999D02*
D03*
Y9339999D02*
D03*
X4420000Y8440000D02*
D03*
X4599999D02*
D03*
X4060000D02*
D03*
X4240000D02*
D03*
X4599999Y8620000D02*
D03*
X4779999Y8800000D02*
D03*
X4060000Y8620000D02*
D03*
X4420000D02*
D03*
X4240000D02*
D03*
X3880000Y8440000D02*
D03*
Y8620000D02*
D03*
X3700000Y8440000D02*
D03*
X3520000D02*
D03*
X3880000Y8800000D02*
D03*
X4060000D02*
D03*
X3340000Y8620000D02*
D03*
X3700000D02*
D03*
X3520000D02*
D03*
X4420000Y8800000D02*
D03*
X4599999D02*
D03*
X3520000D02*
D03*
X4240000D02*
D03*
X3700000D02*
D03*
Y8980000D02*
D03*
X3880000D02*
D03*
X3700000Y9159999D02*
D03*
Y9519999D02*
D03*
Y9339999D02*
D03*
X3340000Y8800000D02*
D03*
X3520000Y8980000D02*
D03*
X3340000D02*
D03*
X3520000Y9159999D02*
D03*
Y9339999D02*
D03*
X3340000Y9159999D02*
D03*
Y9519999D02*
D03*
Y9339999D02*
D03*
X5859999Y9699999D02*
D03*
Y9879999D02*
D03*
X5679999Y9699999D02*
D03*
Y9879999D02*
D03*
X5859999Y10059999D02*
D03*
Y10239999D02*
D03*
X5679999Y10059999D02*
D03*
X5859999Y10419999D02*
D03*
X5679999Y10599999D02*
D03*
X5499999Y9879999D02*
D03*
X5679999Y10239999D02*
D03*
X5499999Y9699999D02*
D03*
Y10239999D02*
D03*
Y10059999D02*
D03*
Y10419999D02*
D03*
X5679999D02*
D03*
X5319999D02*
D03*
X5499999Y10599999D02*
D03*
X4779999D02*
D03*
X5859999D02*
D03*
X5679999Y10779999D02*
D03*
X5139999Y10599999D02*
D03*
X5499999Y10779999D02*
D03*
X5319999Y10599999D02*
D03*
X5859999Y10779999D02*
D03*
X5679999Y10959998D02*
D03*
X5319999Y10779999D02*
D03*
X5499999Y10959998D02*
D03*
X5319999D02*
D03*
X4959999Y10599999D02*
D03*
X5139999Y10779999D02*
D03*
X4599999D02*
D03*
X4959999D02*
D03*
X4779999D02*
D03*
Y10959998D02*
D03*
X5139999D02*
D03*
X4959999D02*
D03*
X3700000Y9699999D02*
D03*
Y9879999D02*
D03*
X3520000Y9699999D02*
D03*
X3700000Y10059999D02*
D03*
X4420000Y10599999D02*
D03*
X4599999D02*
D03*
X3700000Y10239999D02*
D03*
X3880000Y10419999D02*
D03*
X3700000D02*
D03*
X3520000Y9519999D02*
D03*
Y9879999D02*
D03*
X3340000Y9699999D02*
D03*
X3520000Y10059999D02*
D03*
X3340000Y9879999D02*
D03*
X3520000Y10239999D02*
D03*
Y10419999D02*
D03*
X3340000Y10059999D02*
D03*
Y10419999D02*
D03*
Y10239999D02*
D03*
X4240000Y10599999D02*
D03*
X4420000Y10779999D02*
D03*
X3880000Y10599999D02*
D03*
X4240000Y10779999D02*
D03*
X4060000Y10599999D02*
D03*
X4420000Y10959998D02*
D03*
X4599999D02*
D03*
X4060000Y10779999D02*
D03*
X4240000Y10959998D02*
D03*
X4060000D02*
D03*
X3700000Y10599999D02*
D03*
X3880000Y10779999D02*
D03*
X3340000Y10599999D02*
D03*
X3700000Y10779999D02*
D03*
X3520000Y10599999D02*
D03*
X3700000Y10959998D02*
D03*
X3880000D02*
D03*
X3520000Y10779999D02*
D03*
Y10959998D02*
D03*
X3340000Y10779999D02*
D03*
X4060000Y8980000D02*
D03*
X4240000D02*
D03*
X4420000D02*
D03*
X4599999D02*
D03*
X4779999D02*
D03*
X4959999D02*
D03*
X5133399D02*
D03*
X3880000Y9159999D02*
D03*
Y9519999D02*
D03*
Y9339999D02*
D03*
Y9699999D02*
D03*
Y9879999D02*
D03*
Y10059999D02*
D03*
Y10239999D02*
D03*
X4779999Y10419999D02*
D03*
X5139999D02*
D03*
X4959999D02*
D03*
X4420000D02*
D03*
X4599999D02*
D03*
X4240000D02*
D03*
X4060000D02*
D03*
X5319999Y9159999D02*
D03*
Y9519999D02*
D03*
Y9339999D02*
D03*
Y9879999D02*
D03*
Y9699999D02*
D03*
Y10239999D02*
D03*
Y10059999D02*
D03*
D25*
X3047500Y11300000D02*
D03*
X2752500D02*
D03*
X3252500Y11300000D02*
D03*
X3547500D02*
D03*
D26*
X2205000Y11400000D02*
D03*
X1595000D02*
D03*
D27*
X1900000Y9700000D02*
D03*
D28*
X1559640Y10576300D02*
D03*
X1729820D02*
D03*
X1900000D02*
D03*
X2070180D02*
D03*
X2240360D02*
D03*
D29*
X-975000Y11352960D02*
D03*
X-1025000Y11353000D02*
D03*
X-1075000D02*
D03*
X-1125000D02*
D03*
X-1175000D02*
D03*
X-1425000D02*
D03*
X-1375000D02*
D03*
X-1325000D02*
D03*
X-1275000D02*
D03*
X-1225000D02*
D03*
X-1500000Y11223000D02*
D03*
X-1450000D02*
D03*
X-1400000D02*
D03*
X-1350000D02*
D03*
X-1300000D02*
D03*
X-1250000D02*
D03*
X-1150000D02*
D03*
X-1100000D02*
D03*
X-1050000D02*
D03*
X-1000000D02*
D03*
X-950000D02*
D03*
X-900000D02*
D03*
D30*
X-2537500Y11500000D02*
D03*
X-2662500D02*
D03*
X-62500Y2600000D02*
D03*
X-187500D02*
D03*
X62500D02*
D03*
X187500D02*
D03*
X-3936040Y4900001D02*
D03*
X-4061040D02*
D03*
X-3811040D02*
D03*
X-3561040D02*
D03*
X-3686040D02*
D03*
X-3436040D02*
D03*
X-5436040D02*
D03*
X-5561040D02*
D03*
X-5311040D02*
D03*
X-5061040D02*
D03*
X-5186040D02*
D03*
X-4936040D02*
D03*
X5063960D02*
D03*
X4938960D02*
D03*
X5188960D02*
D03*
X5438960D02*
D03*
X5313960D02*
D03*
X5563960D02*
D03*
X3563960D02*
D03*
X3438960D02*
D03*
X3688960D02*
D03*
X3938960D02*
D03*
X3813960D02*
D03*
X4063960D02*
D03*
D31*
X-2282500Y11790000D02*
D03*
X-2917500D02*
D03*
X-442500Y2310000D02*
D03*
X442500D02*
D03*
X-4316040Y4610001D02*
D03*
X-3181040D02*
D03*
X-5816040D02*
D03*
X-4681040D02*
D03*
X4683960D02*
D03*
X5818960D02*
D03*
X3183960D02*
D03*
X4318960D02*
D03*
D32*
X-6000000Y10862500D02*
D03*
Y10737500D02*
D03*
D33*
X-6290000Y11117500D02*
D03*
Y10482500D02*
D03*
D34*
X-5651500Y10780000D02*
D03*
X-5448500D02*
D03*
X-5651500Y10220000D02*
D03*
X-5448500D02*
D03*
D35*
X-5550000Y10780000D02*
D03*
Y10220000D02*
D03*
D36*
X-5120000Y10610000D02*
D03*
X-5160000D02*
D03*
X-5200000D02*
D03*
X-5240000D02*
D03*
X-5280000D02*
D03*
Y10390000D02*
D03*
X-5240000D02*
D03*
X-5200000D02*
D03*
X-5160000D02*
D03*
X-5120000D02*
D03*
D37*
X-5200000Y10500000D02*
D03*
D38*
X-4700000Y10900000D02*
D03*
D39*
X-4825000Y11089999D02*
D03*
X-4775000D02*
D03*
X-4725000D02*
D03*
X-4675000D02*
D03*
X-4625000D02*
D03*
X-4575000D02*
D03*
X-4625000Y10710000D02*
D03*
X-4675000D02*
D03*
X-4725000D02*
D03*
X-4775000D02*
D03*
X-4825000D02*
D03*
X-4575000D02*
D03*
D40*
X-4510000Y11025000D02*
D03*
Y10975000D02*
D03*
Y10924999D02*
D03*
Y10875000D02*
D03*
Y10824999D02*
D03*
Y10775000D02*
D03*
X-4890000Y10824999D02*
D03*
Y10875000D02*
D03*
Y10924999D02*
D03*
Y10975000D02*
D03*
Y11025000D02*
D03*
Y10775000D02*
D03*
D41*
X-4200000Y10740000D02*
D03*
Y11060000D02*
D03*
X-3500000Y11040000D02*
D03*
Y11360000D02*
D03*
D42*
X-3285000Y10575000D02*
D03*
Y10425000D02*
D03*
X-3715000Y10575000D02*
D03*
Y10425000D02*
D03*
D43*
X-3475000Y10665000D02*
D03*
X-3525000D02*
D03*
X-3575000D02*
D03*
X-3625000D02*
D03*
X-3675000D02*
D03*
X-3425000D02*
D03*
X-3375000D02*
D03*
X-3325000D02*
D03*
X-3475000Y10335000D02*
D03*
X-3525000D02*
D03*
X-3575000D02*
D03*
X-3625000D02*
D03*
X-3675000D02*
D03*
X-3425000D02*
D03*
X-3375000D02*
D03*
X-3325000D02*
D03*
D44*
X-3500000Y10500000D02*
D03*
D45*
X-2600000Y10450000D02*
D03*
D46*
X-2828500Y11116500D02*
D03*
X-2371500D02*
D03*
D47*
X-2000000Y11230000D02*
D03*
X-2095000D02*
D03*
X-1905000D02*
D03*
Y10970000D02*
D03*
X-2000000D02*
D03*
X-2095000D02*
D03*
X-2000000Y10430000D02*
D03*
X-2095000D02*
D03*
X-1905000D02*
D03*
Y10170000D02*
D03*
X-2000000D02*
D03*
X-2095000D02*
D03*
D48*
X-900000Y10285000D02*
D03*
Y9915000D02*
D03*
X-1500000Y10285000D02*
D03*
Y9915000D02*
D03*
D49*
X-980000Y10820000D02*
D03*
X-1420000D02*
D03*
Y10580000D02*
D03*
X-980000D02*
D03*
D50*
X-470000Y11150000D02*
D03*
Y11300000D02*
D03*
Y11250000D02*
D03*
Y11200000D02*
D03*
Y11100000D02*
D03*
Y10550000D02*
D03*
Y11050000D02*
D03*
Y11000000D02*
D03*
Y10950000D02*
D03*
Y10900000D02*
D03*
Y10850000D02*
D03*
Y10800000D02*
D03*
Y10750000D02*
D03*
Y10700000D02*
D03*
Y10650000D02*
D03*
Y10600000D02*
D03*
Y10450000D02*
D03*
Y10400000D02*
D03*
Y10150000D02*
D03*
Y10350000D02*
D03*
Y10250000D02*
D03*
Y10500000D02*
D03*
Y10100000D02*
D03*
Y10200000D02*
D03*
Y10300000D02*
D03*
X1070000Y10100000D02*
D03*
Y10150000D02*
D03*
Y10200000D02*
D03*
Y10250000D02*
D03*
Y10300000D02*
D03*
Y10350000D02*
D03*
Y10400000D02*
D03*
Y10450000D02*
D03*
Y10500000D02*
D03*
Y10550000D02*
D03*
Y10600000D02*
D03*
Y10650000D02*
D03*
Y10700000D02*
D03*
Y10750000D02*
D03*
Y10800000D02*
D03*
Y10850000D02*
D03*
Y10900000D02*
D03*
Y10950000D02*
D03*
Y11000000D02*
D03*
Y11050000D02*
D03*
Y11100000D02*
D03*
Y11150000D02*
D03*
Y11200000D02*
D03*
Y11250000D02*
D03*
Y11300000D02*
D03*
D51*
X900000Y11470000D02*
D03*
X850000D02*
D03*
X800000D02*
D03*
X750000D02*
D03*
X700000D02*
D03*
X650000D02*
D03*
X600000D02*
D03*
X550000D02*
D03*
X500000D02*
D03*
X450000D02*
D03*
X400000D02*
D03*
X350000D02*
D03*
X300000D02*
D03*
X250000D02*
D03*
X200000D02*
D03*
X150000D02*
D03*
X100000D02*
D03*
X50000D02*
D03*
X0D02*
D03*
X-50000D02*
D03*
X-100000D02*
D03*
X-150000D02*
D03*
X-200000D02*
D03*
X-250000D02*
D03*
X-300000D02*
D03*
Y9930000D02*
D03*
X-250000D02*
D03*
X-200000D02*
D03*
X-150000D02*
D03*
X-100000D02*
D03*
X-50000D02*
D03*
X0D02*
D03*
X50000D02*
D03*
X100000D02*
D03*
X150000D02*
D03*
X200000D02*
D03*
X250000D02*
D03*
X300000D02*
D03*
X350000D02*
D03*
X400000D02*
D03*
X450000D02*
D03*
X500000D02*
D03*
X550000D02*
D03*
X600000D02*
D03*
X650000D02*
D03*
X700000D02*
D03*
X750000D02*
D03*
X800000D02*
D03*
X850000D02*
D03*
X900000D02*
D03*
D52*
X555500Y3220000D02*
D03*
Y3780000D02*
D03*
X1444500Y3220000D02*
D03*
Y3780000D02*
D03*
X1317500Y3220000D02*
D03*
X682500D02*
D03*
Y3780000D02*
D03*
X1317500D02*
D03*
X1190500D02*
D03*
X1063500D02*
D03*
X936500D02*
D03*
X809500D02*
D03*
Y3220000D02*
D03*
X936500D02*
D03*
X1063500D02*
D03*
X1190500D02*
D03*
D53*
X-5186500Y5880000D02*
D03*
X-5059500D02*
D03*
X-5313500D02*
D03*
X-5440500D02*
D03*
X-5186500Y6420000D02*
D03*
X-5059500D02*
D03*
X-5313500D02*
D03*
X-5440500D02*
D03*
X-3686500Y5880000D02*
D03*
X-3559500D02*
D03*
X-3813500D02*
D03*
X-3940500D02*
D03*
X-3686500Y6420000D02*
D03*
X-3559500D02*
D03*
X-3813500D02*
D03*
X-3940500D02*
D03*
X5313500Y5880000D02*
D03*
X5440500D02*
D03*
X5186500D02*
D03*
X5059500D02*
D03*
X5313500Y6420000D02*
D03*
X5440500D02*
D03*
X5186500D02*
D03*
X5059500D02*
D03*
X3813500Y5880000D02*
D03*
X3940500D02*
D03*
X3686500D02*
D03*
X3559500D02*
D03*
X3813500Y6420000D02*
D03*
X3940500D02*
D03*
X3686500D02*
D03*
X3559500D02*
D03*
D54*
X-5530000Y5550000D02*
D03*
X-4970000D02*
D03*
X-4030000D02*
D03*
X-3470000D02*
D03*
X4970000D02*
D03*
X5530000D02*
D03*
X3470000D02*
D03*
X4030000D02*
D03*
D55*
X-5270000Y8700000D02*
D03*
X270000D02*
D03*
%TF.MD5,783733ddd23399412f2b01c9d9b4c735*%
M02*
