%TF.GenerationSoftware,Altium Limited,Altium Designer,23.3.1 (30)*%
G04 Layer_Color=128*
%FSLAX45Y45*%
%MOMM*%
%TF.SameCoordinates,E4F86091-2262-4A10-A0E3-B6E4D0D901A0*%
%TF.FilePolarity,Positive*%
%TF.FileFunction,Paste,Bot*%
%TF.Part,Single*%
G01*
G75*
%TA.AperFunction,SMDPad,CuDef*%
%ADD11R,0.52000X0.47000*%
%ADD12R,0.47000X0.52000*%
%ADD17R,0.80000X0.50000*%
%ADD22R,0.80000X0.60000*%
%ADD30R,0.75000X1.50000*%
%ADD31R,2.00000X3.00000*%
%ADD73R,0.70000X0.25000*%
%TA.AperFunction,TestPad*%
%ADD75C,1.50000*%
%TA.AperFunction,SMDPad,CuDef*%
%ADD76R,1.00000X2.30000*%
%ADD77R,1.50000X2.95000*%
%ADD78R,0.80000X0.30000*%
%ADD79R,0.30000X0.80000*%
G36*
X-1251000Y10721000D02*
X-1149000D01*
Y10879000D01*
X-1251000D01*
Y10721000D01*
D02*
G37*
D11*
X-1375000Y11557000D02*
D03*
Y11643000D02*
D03*
X-1275000Y11557000D02*
D03*
Y11643000D02*
D03*
X-1125000Y11557000D02*
D03*
Y11643000D02*
D03*
X-1025000Y11557000D02*
D03*
Y11643000D02*
D03*
X4111000Y7357000D02*
D03*
Y7443000D02*
D03*
X4238000Y7357000D02*
D03*
Y7443000D02*
D03*
X4365000Y7357000D02*
D03*
Y7443000D02*
D03*
X4619000Y7357000D02*
D03*
Y7443000D02*
D03*
X4746000Y7357000D02*
D03*
Y7443000D02*
D03*
D12*
X-757000Y10687500D02*
D03*
X-843000D02*
D03*
X-757000Y10800000D02*
D03*
X-843000D02*
D03*
Y10912500D02*
D03*
X-757000D02*
D03*
X-257000Y-25000D02*
D03*
X-343000D02*
D03*
X343000D02*
D03*
X257000D02*
D03*
X343000Y75000D02*
D03*
X257000D02*
D03*
X1957000Y6300000D02*
D03*
X2043000D02*
D03*
Y5900000D02*
D03*
X1957000D02*
D03*
Y5700000D02*
D03*
X2043000D02*
D03*
X-43000Y6300000D02*
D03*
X43000D02*
D03*
Y5900000D02*
D03*
X-43000D02*
D03*
Y5700000D02*
D03*
X43000D02*
D03*
X-2043000Y6300000D02*
D03*
X-1957000D02*
D03*
Y5900000D02*
D03*
X-2043000D02*
D03*
Y5700000D02*
D03*
X-1957000D02*
D03*
X-1257000Y1095000D02*
D03*
X-1343000D02*
D03*
X-657000Y905000D02*
D03*
X-743000D02*
D03*
X-657000Y1095000D02*
D03*
X-743000D02*
D03*
X657000Y1187500D02*
D03*
X743000D02*
D03*
X657000Y1062500D02*
D03*
X743000D02*
D03*
X1257000Y812500D02*
D03*
X1343000D02*
D03*
X1257000Y1062500D02*
D03*
X1343000D02*
D03*
D17*
X900000Y812500D02*
D03*
Y937500D02*
D03*
Y1062500D02*
D03*
Y1187500D02*
D03*
X1100000Y812500D02*
D03*
Y937500D02*
D03*
Y1062500D02*
D03*
Y1187500D02*
D03*
D22*
X-870000Y1095000D02*
D03*
Y1000000D02*
D03*
Y905000D02*
D03*
X-1130000D02*
D03*
Y1095000D02*
D03*
D30*
X-1013960Y9600001D02*
D03*
X-888960D02*
D03*
X-1138960D02*
D03*
X-1388960D02*
D03*
X-1263960D02*
D03*
X-1513960D02*
D03*
D31*
X-633960Y9310001D02*
D03*
X-1768960D02*
D03*
D73*
X-1056500Y10912500D02*
D03*
Y10867500D02*
D03*
Y10822500D02*
D03*
Y10777500D02*
D03*
Y10732500D02*
D03*
Y10687500D02*
D03*
X-1343500D02*
D03*
Y10732500D02*
D03*
Y10777500D02*
D03*
Y10822500D02*
D03*
Y10867500D02*
D03*
Y10912500D02*
D03*
D75*
X-1700000Y8800000D02*
D03*
X-1400000D02*
D03*
X-800000D02*
D03*
X-1100000D02*
D03*
X1729820Y10300000D02*
D03*
X2600000Y11000000D02*
D03*
X5200000Y9400000D02*
D03*
X4600000Y10200000D02*
D03*
X5200000Y9100000D02*
D03*
Y8800000D02*
D03*
X4100000Y10400000D02*
D03*
Y10000000D02*
D03*
X5200000Y10200000D02*
D03*
X200000Y10400000D02*
D03*
X500000D02*
D03*
X2500000Y8500000D02*
D03*
Y8000000D02*
D03*
X700000Y9800000D02*
D03*
X1200000D02*
D03*
X-2600000Y9700000D02*
D03*
X-2300000Y10500000D02*
D03*
X-3568000Y9700000D02*
D03*
X-5000000Y10000000D02*
D03*
D76*
X4111000Y7000000D02*
D03*
X4238000D02*
D03*
X4365000D02*
D03*
X4492000D02*
D03*
X4619000D02*
D03*
X4746000D02*
D03*
X4873000D02*
D03*
X5000000D02*
D03*
D77*
X5430000Y4930000D02*
D03*
X3382000D02*
D03*
D78*
X95000Y75000D02*
D03*
Y25000D02*
D03*
Y-25000D02*
D03*
Y-75000D02*
D03*
X-95000Y75000D02*
D03*
Y25000D02*
D03*
Y-25000D02*
D03*
Y-75000D02*
D03*
D79*
X0Y95000D02*
D03*
Y-95000D02*
D03*
%TF.MD5,9fd67d029d8af0d0bd1fff175075587f*%
M02*
