%TF.GenerationSoftware,Altium Limited,Altium Designer,23.3.1 (30)*%
G04 Layer_Color=255*
%FSLAX45Y45*%
%MOMM*%
%TF.SameCoordinates,E4F86091-2262-4A10-A0E3-B6E4D0D901A0*%
%TF.FilePolarity,Positive*%
%TF.FileFunction,Pads,Bot*%
%TF.Part,Single*%
G01*
G75*
%TA.AperFunction,SMDPad,CuDef*%
%ADD11R,0.52000X0.47000*%
%ADD12R,0.47000X0.52000*%
%ADD17R,0.80000X0.50000*%
%ADD22R,0.80000X0.60000*%
%ADD30R,0.75000X1.50000*%
%ADD31R,2.00000X3.00000*%
%TA.AperFunction,ViaPad*%
%ADD61C,0.75000*%
%TA.AperFunction,ComponentPad*%
%ADD62O,2.10000X1.10000*%
%ADD63O,2.60000X1.10000*%
%ADD64O,1.10000X2.10000*%
%ADD65O,1.10000X2.60000*%
%TA.AperFunction,ViaPad*%
%ADD66C,5.00000*%
%TA.AperFunction,ComponentPad*%
%ADD67C,1.50000*%
%ADD68C,3.00000*%
%ADD69C,0.80000*%
%ADD70C,2.50000*%
%TA.AperFunction,SMDPad,CuDef*%
%ADD73R,0.70000X0.25000*%
%ADD74R,1.60000X2.50000*%
%TA.AperFunction,TestPad*%
%ADD75C,1.50000*%
%TA.AperFunction,SMDPad,CuDef*%
%ADD76R,1.00000X2.30000*%
%ADD77R,1.50000X2.95000*%
%ADD78R,0.80000X0.30000*%
%ADD79R,0.30000X0.80000*%
D11*
X-1375000Y11557000D02*
D03*
Y11643000D02*
D03*
X-1275000Y11557000D02*
D03*
Y11643000D02*
D03*
X-1125000Y11557000D02*
D03*
Y11643000D02*
D03*
X-1025000Y11557000D02*
D03*
Y11643000D02*
D03*
X4111000Y7357000D02*
D03*
Y7443000D02*
D03*
X4238000Y7357000D02*
D03*
Y7443000D02*
D03*
X4365000Y7357000D02*
D03*
Y7443000D02*
D03*
X4619000Y7357000D02*
D03*
Y7443000D02*
D03*
X4746000Y7357000D02*
D03*
Y7443000D02*
D03*
D12*
X-757000Y10687500D02*
D03*
X-843000D02*
D03*
X-757000Y10800000D02*
D03*
X-843000D02*
D03*
Y10912500D02*
D03*
X-757000D02*
D03*
X-257000Y-25000D02*
D03*
X-343000D02*
D03*
X343000D02*
D03*
X257000D02*
D03*
X343000Y75000D02*
D03*
X257000D02*
D03*
X1957000Y6300000D02*
D03*
X2043000D02*
D03*
Y5900000D02*
D03*
X1957000D02*
D03*
Y5700000D02*
D03*
X2043000D02*
D03*
X-43000Y6300000D02*
D03*
X43000D02*
D03*
Y5900000D02*
D03*
X-43000D02*
D03*
Y5700000D02*
D03*
X43000D02*
D03*
X-2043000Y6300000D02*
D03*
X-1957000D02*
D03*
Y5900000D02*
D03*
X-2043000D02*
D03*
Y5700000D02*
D03*
X-1957000D02*
D03*
X-1257000Y1095000D02*
D03*
X-1343000D02*
D03*
X-657000Y905000D02*
D03*
X-743000D02*
D03*
X-657000Y1095000D02*
D03*
X-743000D02*
D03*
X657000Y1187500D02*
D03*
X743000D02*
D03*
X657000Y1062500D02*
D03*
X743000D02*
D03*
X1257000Y812500D02*
D03*
X1343000D02*
D03*
X1257000Y1062500D02*
D03*
X1343000D02*
D03*
D17*
X900000Y812500D02*
D03*
Y937500D02*
D03*
Y1062500D02*
D03*
Y1187500D02*
D03*
X1100000Y812500D02*
D03*
Y937500D02*
D03*
Y1062500D02*
D03*
Y1187500D02*
D03*
D22*
X-870000Y1095000D02*
D03*
Y1000000D02*
D03*
Y905000D02*
D03*
X-1130000D02*
D03*
Y1095000D02*
D03*
D30*
X-1013960Y9600001D02*
D03*
X-888960D02*
D03*
X-1138960D02*
D03*
X-1388960D02*
D03*
X-1263960D02*
D03*
X-1513960D02*
D03*
D31*
X-633960Y9310001D02*
D03*
X-1768960D02*
D03*
D61*
X6400000Y10700000D02*
D03*
Y10800000D02*
D03*
Y11199999D02*
D03*
Y11100000D02*
D03*
Y11000000D02*
D03*
Y10900000D02*
D03*
Y11299999D02*
D03*
Y11399999D02*
D03*
Y11499999D02*
D03*
X-5999988Y11900000D02*
D03*
X-5899988D02*
D03*
X-5499989D02*
D03*
X-5599989D02*
D03*
X-5699989D02*
D03*
X-5799988D02*
D03*
X-4399991D02*
D03*
X-4499991D02*
D03*
X-4899990D02*
D03*
X-4799990D02*
D03*
X-4699991D02*
D03*
X-4599991D02*
D03*
X-4999990D02*
D03*
X-5099990D02*
D03*
X-5199990D02*
D03*
X-5299989D02*
D03*
X-5399989D02*
D03*
X-4299991D02*
D03*
X-4199992D02*
D03*
X-3799992D02*
D03*
X-3899992D02*
D03*
X-3999992D02*
D03*
X-4099992D02*
D03*
X-3199994D02*
D03*
X-3099994D02*
D03*
X-3299993D02*
D03*
X-3399993D02*
D03*
X-3499993D02*
D03*
X-3599993D02*
D03*
X-3699993D02*
D03*
X-2099996D02*
D03*
X-1799996D02*
D03*
X-1899996D02*
D03*
X-1999996D02*
D03*
X-399999D02*
D03*
X-499999D02*
D03*
X-599999D02*
D03*
X699999D02*
D03*
X599999D02*
D03*
X200000D02*
D03*
X299999D02*
D03*
X399999D02*
D03*
X499999D02*
D03*
X100000D02*
D03*
X0D02*
D03*
X-100000D02*
D03*
X-200000D02*
D03*
X-299999D02*
D03*
X799998D02*
D03*
X899998D02*
D03*
X1299997D02*
D03*
X1199998D02*
D03*
X1099998D02*
D03*
X999998D02*
D03*
X2399995D02*
D03*
X2299995D02*
D03*
X1899996D02*
D03*
X1999996D02*
D03*
X2099996D02*
D03*
X2199996D02*
D03*
X1799996D02*
D03*
X1699997D02*
D03*
X1599997D02*
D03*
X1499997D02*
D03*
X1399997D02*
D03*
X2499995D02*
D03*
X2599995D02*
D03*
X2999994D02*
D03*
X2899994D02*
D03*
X2799994D02*
D03*
X2699995D02*
D03*
X4099992D02*
D03*
X3999992D02*
D03*
X3599993D02*
D03*
X3699993D02*
D03*
X3799992D02*
D03*
X3899992D02*
D03*
X3499993D02*
D03*
X3399993D02*
D03*
X3299993D02*
D03*
X3199994D02*
D03*
X3099994D02*
D03*
X4799990D02*
D03*
X4899990D02*
D03*
X4999990D02*
D03*
X5899988D02*
D03*
X5999988D02*
D03*
X5099990D02*
D03*
X5199990D02*
D03*
X5599989D02*
D03*
X5499989D02*
D03*
X5399989D02*
D03*
X5299989D02*
D03*
X5699989D02*
D03*
X5799988D02*
D03*
X4399991D02*
D03*
X4499991D02*
D03*
X4599991D02*
D03*
X4699991D02*
D03*
X4299991D02*
D03*
X4199992D02*
D03*
X-6400000Y11499991D02*
D03*
Y11399992D02*
D03*
Y11299992D02*
D03*
X-1900000Y3899986D02*
D03*
X6400000Y10600001D02*
D03*
Y10500001D02*
D03*
Y10400001D02*
D03*
Y10300001D02*
D03*
Y10200001D02*
D03*
Y9800002D02*
D03*
Y9900002D02*
D03*
Y10000002D02*
D03*
Y10100002D02*
D03*
Y9700002D02*
D03*
Y9600003D02*
D03*
Y9500003D02*
D03*
Y9400003D02*
D03*
Y9300003D02*
D03*
Y8900004D02*
D03*
Y9000004D02*
D03*
Y9100004D02*
D03*
Y9200003D02*
D03*
Y8800004D02*
D03*
Y8700004D02*
D03*
Y8600005D02*
D03*
Y8500005D02*
D03*
Y8400005D02*
D03*
Y8000006D02*
D03*
Y8300005D02*
D03*
Y7900006D02*
D03*
Y7800006D02*
D03*
Y7700006D02*
D03*
Y7600007D02*
D03*
Y7500007D02*
D03*
Y7100008D02*
D03*
Y7200007D02*
D03*
Y7000008D02*
D03*
Y6900008D02*
D03*
Y6800008D02*
D03*
Y6700008D02*
D03*
Y6600009D02*
D03*
Y6200009D02*
D03*
Y6300009D02*
D03*
Y6400009D02*
D03*
Y6500009D02*
D03*
Y5100012D02*
D03*
Y5200011D02*
D03*
Y5600011D02*
D03*
Y5500011D02*
D03*
Y5400011D02*
D03*
Y5300011D02*
D03*
Y5700010D02*
D03*
Y5800010D02*
D03*
Y4900012D02*
D03*
Y5000012D02*
D03*
Y5900010D02*
D03*
Y6000010D02*
D03*
Y6100010D02*
D03*
X-6400000Y9999994D02*
D03*
Y10099994D02*
D03*
Y9899995D02*
D03*
Y9599995D02*
D03*
Y9699995D02*
D03*
Y9799995D02*
D03*
Y10199994D02*
D03*
Y10299994D02*
D03*
Y9099996D02*
D03*
Y9199996D02*
D03*
Y8999996D02*
D03*
Y8699997D02*
D03*
Y8799997D02*
D03*
Y8899997D02*
D03*
Y9299996D02*
D03*
Y9399996D02*
D03*
Y9499995D02*
D03*
Y8199998D02*
D03*
Y8299998D02*
D03*
Y8099998D02*
D03*
Y7799999D02*
D03*
Y7899999D02*
D03*
Y7999998D02*
D03*
Y8399998D02*
D03*
Y8499997D02*
D03*
Y8599997D02*
D03*
Y7300000D02*
D03*
Y7400000D02*
D03*
Y7200000D02*
D03*
Y6900001D02*
D03*
Y7000000D02*
D03*
Y7100000D02*
D03*
Y7499999D02*
D03*
Y7599999D02*
D03*
Y7699999D02*
D03*
Y6400002D02*
D03*
Y6500001D02*
D03*
Y6300002D02*
D03*
Y6000002D02*
D03*
Y6100002D02*
D03*
Y6200002D02*
D03*
Y6600001D02*
D03*
Y6700001D02*
D03*
Y6800001D02*
D03*
Y5900003D02*
D03*
Y5800003D02*
D03*
Y5700003D02*
D03*
Y5300004D02*
D03*
Y5200004D02*
D03*
Y4900005D02*
D03*
Y5000004D02*
D03*
Y5100004D02*
D03*
Y5400004D02*
D03*
Y5600003D02*
D03*
Y5500003D02*
D03*
X-1299988Y-300000D02*
D03*
X-1199988D02*
D03*
X-799989D02*
D03*
X-899989D02*
D03*
X-999989D02*
D03*
X-1099989D02*
D03*
X-699989D02*
D03*
X-599990D02*
D03*
X-1499988D02*
D03*
X-1399988D02*
D03*
X400008D02*
D03*
X300009D02*
D03*
X200009D02*
D03*
X100009D02*
D03*
X9D02*
D03*
X500008D02*
D03*
X600008D02*
D03*
X-499990D02*
D03*
X-399990D02*
D03*
X-299990D02*
D03*
X-199990D02*
D03*
X-99991D02*
D03*
X700008D02*
D03*
X800008D02*
D03*
X900007D02*
D03*
X1000007D02*
D03*
X1100007D02*
D03*
X1500006D02*
D03*
X1400006D02*
D03*
X1300007D02*
D03*
X1200007D02*
D03*
X-1900000Y99993D02*
D03*
Y199993D02*
D03*
Y299993D02*
D03*
Y399993D02*
D03*
Y499992D02*
D03*
Y1299991D02*
D03*
Y1399991D02*
D03*
Y1499990D02*
D03*
Y1599990D02*
D03*
Y1699990D02*
D03*
Y599992D02*
D03*
Y699992D02*
D03*
Y1199991D02*
D03*
Y1099991D02*
D03*
Y999991D02*
D03*
Y899992D02*
D03*
Y799992D02*
D03*
Y2599988D02*
D03*
Y2699988D02*
D03*
Y1799990D02*
D03*
Y2299989D02*
D03*
Y2199989D02*
D03*
Y2399989D02*
D03*
Y2499988D02*
D03*
X-2999995Y4500000D02*
D03*
X-2899995D02*
D03*
X-2799995D02*
D03*
X-2699995D02*
D03*
X-2399996D02*
D03*
X-2499996D02*
D03*
X-2599995D02*
D03*
X-1900000Y3099987D02*
D03*
Y2999987D02*
D03*
Y2899988D02*
D03*
Y2799988D02*
D03*
Y3199987D02*
D03*
Y3299987D02*
D03*
Y3399987D02*
D03*
Y3499986D02*
D03*
Y3599986D02*
D03*
Y3699986D02*
D03*
Y3999985D02*
D03*
Y3799986D02*
D03*
X1900000Y2800007D02*
D03*
Y2900006D02*
D03*
Y3000006D02*
D03*
Y3100006D02*
D03*
Y2700007D02*
D03*
Y2600007D02*
D03*
Y2500007D02*
D03*
Y2400007D02*
D03*
Y2300008D02*
D03*
Y1500009D02*
D03*
Y1400009D02*
D03*
Y1300010D02*
D03*
Y1200010D02*
D03*
Y1100010D02*
D03*
Y2200008D02*
D03*
Y1600009D02*
D03*
Y1700009D02*
D03*
Y1800009D02*
D03*
Y200012D02*
D03*
Y100012D02*
D03*
Y1000010D02*
D03*
Y900010D02*
D03*
Y500011D02*
D03*
Y600011D02*
D03*
Y700011D02*
D03*
Y800011D02*
D03*
Y400011D02*
D03*
Y300012D02*
D03*
X3000013Y4500000D02*
D03*
X2500014D02*
D03*
X2600014D02*
D03*
X2900014D02*
D03*
X2800014D02*
D03*
X2700014D02*
D03*
X2400015D02*
D03*
X1900000Y3600005D02*
D03*
Y3500005D02*
D03*
Y3200006D02*
D03*
Y3300006D02*
D03*
Y3400005D02*
D03*
Y3800005D02*
D03*
Y3700005D02*
D03*
Y3900004D02*
D03*
Y4000004D02*
D03*
X-1943100Y4279900D02*
D03*
X-2032000Y4394200D02*
D03*
X-2159000Y4470400D02*
D03*
X-2301244Y4497095D02*
D03*
X-1905000Y4152900D02*
D03*
X2247115Y4495000D02*
D03*
X1929615Y4241000D02*
D03*
X2005815Y4368000D02*
D03*
X2120115Y4456900D02*
D03*
X1900000Y4100004D02*
D03*
D62*
X5764000Y8182000D02*
D03*
Y7318000D02*
D03*
D63*
X6300000D02*
D03*
Y8182000D02*
D03*
D64*
X-1632000Y11264000D02*
D03*
X-768000D02*
D03*
D65*
Y11800000D02*
D03*
X-1632000D02*
D03*
D66*
X6200000Y11700000D02*
D03*
X-6200000D02*
D03*
X6200000Y4700000D02*
D03*
X-6200000D02*
D03*
X-1700000Y2000000D02*
D03*
X1700000D02*
D03*
X-1700000Y-100000D02*
D03*
X1700000D02*
D03*
D67*
X2275000Y6100000D02*
D03*
Y5900000D02*
D03*
Y5700000D02*
D03*
Y6300000D02*
D03*
X275000Y6100000D02*
D03*
Y5900000D02*
D03*
Y5700000D02*
D03*
Y6300000D02*
D03*
X-1725000Y6100000D02*
D03*
Y5900000D02*
D03*
Y5700000D02*
D03*
Y6300000D02*
D03*
D68*
X2595000Y4890000D02*
D03*
Y7110000D02*
D03*
X1405000D02*
D03*
X1555000Y4890000D02*
D03*
X2000000Y4800000D02*
D03*
Y7200000D02*
D03*
X595000Y4890000D02*
D03*
Y7110000D02*
D03*
X-595000D02*
D03*
X-445000Y4890000D02*
D03*
X0Y4800000D02*
D03*
Y7200000D02*
D03*
X-1405000Y4890000D02*
D03*
Y7110000D02*
D03*
X-2595000D02*
D03*
X-2445000Y4890000D02*
D03*
X-2000000Y4800000D02*
D03*
Y7200000D02*
D03*
D69*
X1700000Y7130000D02*
D03*
X2300000Y4870000D02*
D03*
X-300000Y7130000D02*
D03*
X300000Y4870000D02*
D03*
X-2300000Y7130000D02*
D03*
X-1700000Y4870000D02*
D03*
D70*
X-5650000Y8700000D02*
D03*
X-4888000Y8954000D02*
D03*
Y8446000D02*
D03*
X-112000D02*
D03*
Y8954000D02*
D03*
X650000Y8700000D02*
D03*
D73*
X-1056500Y10912500D02*
D03*
Y10867500D02*
D03*
Y10822500D02*
D03*
Y10777500D02*
D03*
Y10732500D02*
D03*
Y10687500D02*
D03*
X-1343500D02*
D03*
Y10732500D02*
D03*
Y10777500D02*
D03*
Y10822500D02*
D03*
Y10867500D02*
D03*
Y10912500D02*
D03*
D74*
X-1200000Y10800000D02*
D03*
D75*
X-1700000Y8800000D02*
D03*
X-1400000D02*
D03*
X-800000D02*
D03*
X-1100000D02*
D03*
X1729820Y10300000D02*
D03*
X2600000Y11000000D02*
D03*
X5200000Y9400000D02*
D03*
X4600000Y10200000D02*
D03*
X5200000Y9100000D02*
D03*
Y8800000D02*
D03*
X4100000Y10400000D02*
D03*
Y10000000D02*
D03*
X5200000Y10200000D02*
D03*
X200000Y10400000D02*
D03*
X500000D02*
D03*
X2500000Y8500000D02*
D03*
Y8000000D02*
D03*
X700000Y9800000D02*
D03*
X1200000D02*
D03*
X-2600000Y9700000D02*
D03*
X-2300000Y10500000D02*
D03*
X-3568000Y9700000D02*
D03*
X-5000000Y10000000D02*
D03*
D76*
X4111000Y7000000D02*
D03*
X4238000D02*
D03*
X4365000D02*
D03*
X4492000D02*
D03*
X4619000D02*
D03*
X4746000D02*
D03*
X4873000D02*
D03*
X5000000D02*
D03*
D77*
X5430000Y4930000D02*
D03*
X3382000D02*
D03*
D78*
X95000Y75000D02*
D03*
Y25000D02*
D03*
Y-25000D02*
D03*
Y-75000D02*
D03*
X-95000Y75000D02*
D03*
Y25000D02*
D03*
Y-25000D02*
D03*
Y-75000D02*
D03*
D79*
X0Y95000D02*
D03*
Y-95000D02*
D03*
%TF.MD5,1744ddfa2c894dad5c5f44dc6913828e*%
M02*
