%TF.GenerationSoftware,Altium Limited,Altium Designer,23.3.1 (30)*%
G04 Layer_Color=8388736*
%FSLAX45Y45*%
%MOMM*%
%TF.SameCoordinates,E4F86091-2262-4A10-A0E3-B6E4D0D901A0*%
%TF.FilePolarity,Positive*%
%TF.FileFunction,Other,Top_Assembly*%
%TF.Part,Single*%
G01*
G75*
%TA.AperFunction,NonConductor*%
%ADD81C,0.10000*%
%ADD84C,0.05000*%
%ADD158C,0.02000*%
%ADD159C,0.01000*%
%ADD160C,0.01400*%
D81*
X1350000Y10700000D02*
X2450000D01*
Y9200000D02*
Y10700000D01*
X1350000Y9200000D02*
X2450000D01*
X1350000D02*
Y10700000D01*
D84*
X3099999Y8900000D02*
Y9300000D01*
X2699999Y8900000D02*
Y9300000D01*
Y8900000D02*
X3099999D01*
X2699999Y9300000D02*
X3099999D01*
X4579999Y11350000D02*
Y11750000D01*
X4979999Y11350000D02*
Y11750000D01*
X4579999D02*
X4979999D01*
X4579999Y11350000D02*
X4979999D01*
X2730000Y11390000D02*
X3070000D01*
X2730000Y11210000D02*
Y11390000D01*
X3070000Y11210000D02*
Y11390000D01*
X2730000Y11210000D02*
X3070000D01*
X3230000Y11210000D02*
X3570000D01*
Y11390000D01*
X3230000Y11210000D02*
Y11390000D01*
X3570000D01*
X-6022980Y9657580D02*
X1010280D01*
X-6022980Y7742420D02*
X1010280D01*
X-6022980D02*
Y9657580D01*
X1010280Y7742420D02*
Y9657580D01*
D158*
X-4987500Y5965000D02*
X-4912500D01*
X-4987500Y5815000D02*
X-4912500D01*
Y5965000D01*
X-4987500Y5815000D02*
Y5965000D01*
X6275000Y9462500D02*
Y9537500D01*
X6125000Y9462500D02*
Y9537500D01*
Y9462500D02*
X6275000D01*
X6125000Y9537500D02*
X6275000D01*
Y9062500D02*
Y9137500D01*
X6125000Y9062500D02*
Y9137500D01*
Y9062500D02*
X6275000D01*
X6125000Y9137500D02*
X6275000D01*
Y10762500D02*
Y10837500D01*
X6125000Y10762500D02*
Y10837500D01*
Y10762500D02*
X6275000D01*
X6125000Y10837500D02*
X6275000D01*
X6125000Y10962500D02*
Y11037500D01*
X6275000Y10962500D02*
Y11037500D01*
X6125000D02*
X6275000D01*
X6125000Y10962500D02*
X6275000D01*
X6125000Y9662500D02*
Y9737500D01*
X6275000Y9662500D02*
Y9737500D01*
X6125000D02*
X6275000D01*
X6125000Y9662500D02*
X6275000D01*
Y10362500D02*
Y10437500D01*
X6125000Y10362500D02*
Y10437500D01*
Y10362500D02*
X6275000D01*
X6125000Y10437500D02*
X6275000D01*
X1935000Y7675000D02*
Y7825000D01*
X1860000Y7675000D02*
Y7825000D01*
X1935000D01*
X1860000Y7675000D02*
X1935000D01*
X2065000D02*
Y7825000D01*
X1990000Y7675000D02*
Y7825000D01*
X2065000D01*
X1990000Y7675000D02*
X2065000D01*
X1805000D02*
Y7825000D01*
X1730000Y7675000D02*
Y7825000D01*
X1805000D01*
X1730000Y7675000D02*
X1805000D01*
X1545000D02*
Y7825000D01*
X1470000Y7675000D02*
Y7825000D01*
X1545000D01*
X1470000Y7675000D02*
X1545000D01*
X1675000D02*
Y7825000D01*
X1600000Y7675000D02*
Y7825000D01*
X1675000D01*
X1600000Y7675000D02*
X1675000D01*
X1730000Y8925000D02*
Y9075000D01*
X1805000Y8925000D02*
Y9075000D01*
X1730000Y8925000D02*
X1805000D01*
X1730000Y9075000D02*
X1805000D01*
X1990000Y8925000D02*
Y9075000D01*
X2065000Y8925000D02*
Y9075000D01*
X1990000Y8925000D02*
X2065000D01*
X1990000Y9075000D02*
X2065000D01*
X1860000Y8925000D02*
Y9075000D01*
X1935000Y8925000D02*
Y9075000D01*
X1860000Y8925000D02*
X1935000D01*
X1860000Y9075000D02*
X1935000D01*
X2250000Y8725000D02*
Y8875000D01*
X2325000Y8725000D02*
Y8875000D01*
X2250000Y8725000D02*
X2325000D01*
X2250000Y8875000D02*
X2325000D01*
X2195000Y7675000D02*
Y7825000D01*
X2120000Y7675000D02*
Y7825000D01*
X2195000D01*
X2120000Y7675000D02*
X2195000D01*
X2325000D02*
Y7825000D01*
X2250000Y7675000D02*
Y7825000D01*
X2325000D01*
X2250000Y7675000D02*
X2325000D01*
X3887500Y7675000D02*
Y7825000D01*
X3812500Y7675000D02*
Y7825000D01*
X3887500D01*
X3812500Y7675000D02*
X3887500D01*
Y7475000D02*
Y7625000D01*
X3812500Y7475000D02*
Y7625000D01*
X3887500D01*
X3812500Y7475000D02*
X3887500D01*
X4312500Y7675000D02*
Y7825000D01*
X4387500Y7675000D02*
Y7825000D01*
X4312500Y7675000D02*
X4387500D01*
X4312500Y7825000D02*
X4387500D01*
X3887500Y7875000D02*
Y8025000D01*
X3812500Y7875000D02*
Y8025000D01*
X3887500D01*
X3812500Y7875000D02*
X3887500D01*
X3487500D02*
Y8025000D01*
X3412500Y7875000D02*
Y8025000D01*
X3487500D01*
X3412500Y7875000D02*
X3487500D01*
Y7475000D02*
Y7625000D01*
X3412500Y7475000D02*
Y7625000D01*
X3487500D01*
X3412500Y7475000D02*
X3487500D01*
Y7675000D02*
Y7825000D01*
X3412500Y7675000D02*
Y7825000D01*
X3487500D01*
X3412500Y7675000D02*
X3487500D01*
X3033000Y9737500D02*
Y9812500D01*
X2883000Y9737500D02*
Y9812500D01*
Y9737500D02*
X3033000D01*
X2883000Y9812500D02*
X3033000D01*
Y9362500D02*
Y9437500D01*
X2883000Y9362500D02*
Y9437500D01*
Y9362500D02*
X3033000D01*
X2883000Y9437500D02*
X3033000D01*
X2825000Y10637500D02*
X2975000D01*
X2825000Y10562500D02*
X2975000D01*
X2825000D02*
Y10637500D01*
X2975000Y10562500D02*
Y10637500D01*
X2825000Y10362500D02*
X2975000D01*
X2825000Y10437500D02*
X2975000D01*
Y10362500D02*
Y10437500D01*
X2825000Y10362500D02*
Y10437500D01*
X4304499Y11167500D02*
X4454500D01*
X4304499Y11242500D02*
X4454500D01*
Y11167500D02*
Y11242500D01*
X4304499Y11167500D02*
Y11242500D01*
Y11262500D02*
X4454500D01*
X4304499Y11337500D02*
X4454500D01*
Y11262500D02*
Y11337500D01*
X4304499Y11262500D02*
Y11337500D01*
X3724999Y11262500D02*
X3874999D01*
X3724999Y11337500D02*
X3874999D01*
Y11262500D02*
Y11337500D01*
X3724999Y11262500D02*
Y11337500D01*
Y11357500D02*
X3874999D01*
X3724999Y11432500D02*
X3874999D01*
Y11357500D02*
Y11432500D01*
X3724999Y11357500D02*
Y11432500D01*
X3375000Y11508750D02*
X3525000D01*
X3375000Y11433750D02*
X3525000D01*
X3375000D02*
Y11508750D01*
X3525000Y11433750D02*
Y11508750D01*
X2775000Y11433750D02*
X2925000D01*
X2775000Y11508750D02*
X2925000D01*
Y11433750D02*
Y11508750D01*
X2775000Y11433750D02*
Y11508750D01*
X2587500Y11240700D02*
Y11390700D01*
X2512500Y11240700D02*
Y11390700D01*
X2587500D01*
X2512500Y11240700D02*
X2587500D01*
X2487500D02*
Y11390700D01*
X2412500Y11240700D02*
Y11390700D01*
X2487500D01*
X2412500Y11240700D02*
X2487500D01*
X1862500Y10725000D02*
Y10875000D01*
X1937500Y10725000D02*
Y10875000D01*
X1862500Y10725000D02*
X1937500D01*
X1862500Y10875000D02*
X1937500D01*
X-5082500Y10125000D02*
Y10275000D01*
X-5157500Y10125000D02*
Y10275000D01*
X-5082500D01*
X-5157500Y10125000D02*
X-5082500D01*
X-5202500D02*
Y10275000D01*
X-5277500Y10125000D02*
Y10275000D01*
X-5202500D01*
X-5277500Y10125000D02*
X-5202500D01*
X-4462500Y11324999D02*
Y11475000D01*
X-4537500Y11324999D02*
Y11475000D01*
X-4462500D01*
X-4537500Y11324999D02*
X-4462500D01*
X-4637500D02*
Y11475000D01*
X-4562500Y11324999D02*
Y11475000D01*
X-4637500Y11324999D02*
X-4562500D01*
X-4637500Y11475000D02*
X-4562500D01*
X-3725000Y10868699D02*
X-3575000D01*
X-3725000Y10943699D02*
X-3575000D01*
Y10868699D02*
Y10943699D01*
X-3725000Y10868699D02*
Y10943699D01*
X-3862500Y10775000D02*
Y10925000D01*
X-3937500Y10775000D02*
Y10925000D01*
X-3862500D01*
X-3937500Y10775000D02*
X-3862500D01*
X-3937500Y10599999D02*
Y10750000D01*
X-3862500Y10599999D02*
Y10750000D01*
X-3937500Y10599999D02*
X-3862500D01*
X-3937500Y10750000D02*
X-3862500D01*
X-3062500Y9949999D02*
Y10100000D01*
X-3137500Y9949999D02*
Y10100000D01*
X-3062500D01*
X-3137500Y9949999D02*
X-3062500D01*
X-2475000Y10037500D02*
X-2325000D01*
X-2475000Y9962500D02*
X-2325000D01*
X-2475000D02*
Y10037500D01*
X-2325000Y9962500D02*
Y10037500D01*
X-2132500Y11324999D02*
Y11475000D01*
X-2057500Y11324999D02*
Y11475000D01*
X-2132500Y11324999D02*
X-2057500D01*
X-2132500Y11475000D02*
X-2057500D01*
X-1962500Y10725000D02*
Y10875000D01*
X-2037500Y10725000D02*
Y10875000D01*
X-1962500D01*
X-2037500Y10725000D02*
X-1962500D01*
X-2057500D02*
Y10875000D01*
X-2132500Y10725000D02*
Y10875000D01*
X-2057500D01*
X-2132500Y10725000D02*
X-2057500D01*
X-1942500Y10525000D02*
Y10675000D01*
X-1867500Y10525000D02*
Y10675000D01*
X-1942500Y10525000D02*
X-1867500D01*
X-1942500Y10675000D02*
X-1867500D01*
X-2057500Y9924999D02*
Y10075000D01*
X-2132500Y9924999D02*
Y10075000D01*
X-2057500D01*
X-2132500Y9924999D02*
X-2057500D01*
X-762500Y10167000D02*
Y10317000D01*
X-837500Y10167000D02*
Y10317000D01*
X-762500D01*
X-837500Y10167000D02*
X-762500D01*
X-1537300Y10504100D02*
Y10654100D01*
X-1612300Y10504100D02*
Y10654100D01*
X-1537300D01*
X-1612300Y10504100D02*
X-1537300D01*
X-863000Y10745400D02*
Y10895400D01*
X-788000Y10745400D02*
Y10895400D01*
X-863000Y10745400D02*
X-788000D01*
X-863000Y10895400D02*
X-788000D01*
X-637500Y11018000D02*
Y11168000D01*
X-562500Y11018000D02*
Y11168000D01*
X-637500Y11018000D02*
X-562500D01*
X-637500Y11168000D02*
X-562500D01*
X332000Y11562500D02*
X482000D01*
X332000Y11637500D02*
X482000D01*
Y11562500D02*
Y11637500D01*
X332000Y11562500D02*
Y11637500D01*
X1175000Y11337500D02*
X1325000D01*
X1175000Y11262500D02*
X1325000D01*
X1175000D02*
Y11337500D01*
X1325000Y11262500D02*
Y11337500D01*
X1175000Y11237500D02*
X1325000D01*
X1175000Y11162500D02*
X1325000D01*
X1175000D02*
Y11237500D01*
X1325000Y11162500D02*
Y11237500D01*
X1162500Y10268000D02*
Y10418000D01*
X1237500Y10268000D02*
Y10418000D01*
X1162500Y10268000D02*
X1237500D01*
X1162500Y10418000D02*
X1237500D01*
X437500Y9675000D02*
Y9825000D01*
X362500Y9675000D02*
Y9825000D01*
X437500D01*
X362500Y9675000D02*
X437500D01*
X337500D02*
Y9825000D01*
X262500Y9675000D02*
Y9825000D01*
X337500D01*
X262500Y9675000D02*
X337500D01*
X237500D02*
Y9825000D01*
X162500Y9675000D02*
Y9825000D01*
X237500D01*
X162500Y9675000D02*
X237500D01*
X-262500D02*
Y9825000D01*
X-337500Y9675000D02*
Y9825000D01*
X-262500D01*
X-337500Y9675000D02*
X-262500D01*
X-3237501Y10775000D02*
Y10925000D01*
X-3162500Y10775000D02*
Y10925000D01*
X-3237501Y10775000D02*
X-3162500D01*
X-3237501Y10925000D02*
X-3162500D01*
X-3487500Y5815000D02*
Y5965000D01*
X-3412500Y5815000D02*
Y5965000D01*
X-3487500Y5815000D02*
X-3412500D01*
X-3487500Y5965000D02*
X-3412500D01*
X-1095000Y3925000D02*
Y4075000D01*
X-1020000Y3925000D02*
Y4075000D01*
X-1095000Y3925000D02*
X-1020000D01*
X-1095000Y4075000D02*
X-1020000D01*
X-630000Y2925000D02*
Y3075000D01*
X-705000Y2925000D02*
Y3075000D01*
X-630000D01*
X-705000Y2925000D02*
X-630000D01*
X772000Y3925000D02*
Y4075000D01*
X847000Y3925000D02*
Y4075000D01*
X772000Y3925000D02*
X847000D01*
X772000Y4075000D02*
X847000D01*
Y2925000D02*
Y3075000D01*
X772000Y2925000D02*
Y3075000D01*
X847000D01*
X772000Y2925000D02*
X847000D01*
X1482000D02*
Y3075000D01*
X1407000Y2925000D02*
Y3075000D01*
X1482000D01*
X1407000Y2925000D02*
X1482000D01*
X593000D02*
Y3075000D01*
X518000Y2925000D02*
Y3075000D01*
X593000D01*
X518000Y2925000D02*
X593000D01*
X-3724000Y6525000D02*
Y6675000D01*
X-3649000Y6525000D02*
Y6675000D01*
X-3724000Y6525000D02*
X-3649000D01*
X-3724000Y6675000D02*
X-3649000D01*
X-5224000Y6525000D02*
Y6675000D01*
X-5149000Y6525000D02*
Y6675000D01*
X-5224000Y6525000D02*
X-5149000D01*
X-5224000Y6675000D02*
X-5149000D01*
X-3473540Y5025000D02*
Y5175000D01*
X-3398540Y5025000D02*
Y5175000D01*
X-3473540Y5025000D02*
X-3398540D01*
X-3473540Y5175000D02*
X-3398540D01*
X-4098540Y5025000D02*
Y5175000D01*
X-4023540Y5025000D02*
Y5175000D01*
X-4098540Y5025000D02*
X-4023540D01*
X-4098540Y5175000D02*
X-4023540D01*
X-4973540Y5025000D02*
Y5175000D01*
X-4898540Y5025000D02*
Y5175000D01*
X-4973540Y5025000D02*
X-4898540D01*
X-4973540Y5175000D02*
X-4898540D01*
X-5598540Y5025000D02*
Y5175000D01*
X-5523540Y5025000D02*
Y5175000D01*
X-5598540Y5025000D02*
X-5523540D01*
X-5598540Y5175000D02*
X-5523540D01*
X5276000Y6525000D02*
Y6675000D01*
X5351000Y6525000D02*
Y6675000D01*
X5276000Y6525000D02*
X5351000D01*
X5276000Y6675000D02*
X5351000D01*
X5512500Y5815000D02*
Y5965000D01*
X5587500Y5815000D02*
Y5965000D01*
X5512500Y5815000D02*
X5587500D01*
X5512500Y5965000D02*
X5587500D01*
X5526460Y5025000D02*
Y5175000D01*
X5601460Y5025000D02*
Y5175000D01*
X5526460Y5025000D02*
X5601460D01*
X5526460Y5175000D02*
X5601460D01*
X4901460Y5025000D02*
Y5175000D01*
X4976460Y5025000D02*
Y5175000D01*
X4901460Y5025000D02*
X4976460D01*
X4901460Y5175000D02*
X4976460D01*
X3776000Y6525000D02*
Y6675000D01*
X3851000Y6525000D02*
Y6675000D01*
X3776000Y6525000D02*
X3851000D01*
X3776000Y6675000D02*
X3851000D01*
X4012500Y5815000D02*
Y5965000D01*
X4087500Y5815000D02*
Y5965000D01*
X4012500Y5815000D02*
X4087500D01*
X4012500Y5965000D02*
X4087500D01*
X4026460Y5025000D02*
Y5175000D01*
X4101460Y5025000D02*
Y5175000D01*
X4026460Y5025000D02*
X4101460D01*
X4026460Y5175000D02*
X4101460D01*
X3401460Y5025000D02*
Y5175000D01*
X3476460Y5025000D02*
Y5175000D01*
X3401460Y5025000D02*
X3476460D01*
X3401460Y5175000D02*
X3476460D01*
X5525000Y11562500D02*
X5675000D01*
X5525000Y11637500D02*
X5675000D01*
Y11562500D02*
Y11637500D01*
X5525000Y11562500D02*
Y11637500D01*
X5325000Y11562500D02*
X5475000D01*
X5325000Y11637500D02*
X5475000D01*
Y11562500D02*
Y11637500D01*
X5325000Y11562500D02*
Y11637500D01*
X5725000Y11562500D02*
X5875000D01*
X5725000Y11637500D02*
X5875000D01*
Y11562500D02*
Y11637500D01*
X5725000Y11562500D02*
Y11637500D01*
D159*
X6260000Y10475000D02*
Y10625000D01*
X6140000D02*
X6260000D01*
X6140000Y10475000D02*
Y10625000D01*
Y10475000D02*
X6260000D01*
X6275000Y9562500D02*
Y9637500D01*
X6125000Y9562500D02*
Y9637500D01*
X6275000D01*
X6125000Y9562500D02*
X6275000D01*
X6125000Y8862500D02*
Y8937500D01*
Y8862500D02*
X6275000D01*
X6125000Y8937500D02*
X6275000D01*
Y8862500D02*
Y8937500D01*
X6275000Y8962500D02*
Y9037500D01*
X6125000D02*
X6275000D01*
X6125000Y8962500D02*
X6275000D01*
X6125000D02*
Y9037500D01*
X6260000Y9175000D02*
Y9325000D01*
X6140000D02*
X6260000D01*
X6140000Y9175000D02*
Y9325000D01*
Y9175000D02*
X6260000D01*
X6275000Y9362500D02*
Y9437500D01*
X6125000D02*
X6275000D01*
X6125000Y9362500D02*
X6275000D01*
X6125000D02*
Y9437500D01*
X6275000Y10662500D02*
Y10737500D01*
X6125000D02*
X6275000D01*
X6125000Y10662500D02*
X6275000D01*
X6125000D02*
Y10737500D01*
X6275000Y10862500D02*
Y10937500D01*
X6125000Y10862500D02*
Y10937500D01*
X6275000D01*
X6125000Y10862500D02*
X6275000D01*
X6125000Y10162500D02*
Y10237500D01*
Y10162500D02*
X6275000D01*
X6125000Y10237500D02*
X6275000D01*
Y10162500D02*
Y10237500D01*
X6275000Y10062500D02*
Y10137500D01*
X6125000D02*
X6275000D01*
X6125000Y10062500D02*
X6275000D01*
X6125000D02*
Y10137500D01*
X6275000Y10262500D02*
Y10337500D01*
X6125000D02*
X6275000D01*
X6125000Y10262500D02*
X6275000D01*
X6125000D02*
Y10337500D01*
X-5097000Y6525000D02*
X-5022000D01*
Y6675000D01*
X-5097000Y6525000D02*
Y6675000D01*
X-5022000D01*
X1400000Y8700000D02*
X2200000D01*
X1400000Y7900000D02*
X2200000D01*
Y8700000D01*
X1400000Y7900000D02*
Y8700000D01*
X1470000Y8875000D02*
X1545000D01*
X1470000Y8725000D02*
Y8875000D01*
X1545000Y8725000D02*
Y8875000D01*
X1470000Y8725000D02*
X1545000D01*
X1730000Y8875000D02*
X1805000D01*
X1730000Y8725000D02*
Y8875000D01*
X1805000Y8725000D02*
Y8875000D01*
X1730000Y8725000D02*
X1805000D01*
X1860000Y8875000D02*
X1935000D01*
X1860000Y8725000D02*
Y8875000D01*
X1935000Y8725000D02*
Y8875000D01*
X1860000Y8725000D02*
X1935000D01*
X1990000Y8875000D02*
X2065000D01*
X1990000Y8725000D02*
Y8875000D01*
X2065000Y8725000D02*
Y8875000D01*
X1990000Y8725000D02*
X2065000D01*
X2120000D02*
X2195000D01*
Y8875000D01*
X2120000Y8725000D02*
Y8875000D01*
X2195000D01*
X3712500Y7625000D02*
X3787500D01*
X3712500Y7475000D02*
Y7625000D01*
X3787500Y7475000D02*
Y7625000D01*
X3712500Y7475000D02*
X3787500D01*
X3525000Y7490000D02*
Y7610000D01*
X3675000D01*
Y7490000D02*
Y7610000D01*
X3525000Y7490000D02*
X3675000D01*
X3712500Y7825000D02*
X3787500D01*
X3712500Y7675000D02*
Y7825000D01*
X3787500Y7675000D02*
Y7825000D01*
X3712500Y7675000D02*
X3787500D01*
X4025540Y7666180D02*
Y7833820D01*
Y7666180D02*
X4274460D01*
Y7833820D01*
X4025540D02*
X4274460D01*
X3525000Y7690000D02*
Y7810000D01*
X3675000D01*
Y7690000D02*
Y7810000D01*
X3525000Y7690000D02*
X3675000D01*
X3525000Y7890000D02*
Y8010000D01*
X3675000D01*
Y7890000D02*
Y8010000D01*
X3525000Y7890000D02*
X3675000D01*
X3712500Y8025000D02*
X3787500D01*
X3712500Y7875000D02*
Y8025000D01*
X3787500Y7875000D02*
Y8025000D01*
X3712500Y7875000D02*
X3787500D01*
X3212500D02*
X3287500D01*
Y8025000D01*
X3212500Y7875000D02*
Y8025000D01*
X3287500D01*
X3312500D02*
X3387500D01*
X3312500Y7875000D02*
Y8025000D01*
X3387500Y7875000D02*
Y8025000D01*
X3312500Y7875000D02*
X3387500D01*
X3312500Y7625000D02*
X3387500D01*
X3312500Y7475000D02*
Y7625000D01*
X3387500Y7475000D02*
Y7625000D01*
X3312500Y7475000D02*
X3387500D01*
X3212500D02*
X3287500D01*
Y7625000D01*
X3212500Y7475000D02*
Y7625000D01*
X3287500D01*
X3212500Y7675000D02*
X3287500D01*
Y7825000D01*
X3212500Y7675000D02*
Y7825000D01*
X3287500D01*
X3312500D02*
X3387500D01*
X3312500Y7675000D02*
Y7825000D01*
X3387500Y7675000D02*
Y7825000D01*
X3312500Y7675000D02*
X3387500D01*
X5650000Y7250000D02*
X6500000D01*
Y8250000D01*
X5650000D02*
X6500000D01*
X5650000Y7250000D02*
Y8250000D01*
X2862499Y9675000D02*
X2937499D01*
X2862499Y9525000D02*
Y9675000D01*
X2937499Y9525000D02*
Y9675000D01*
X2862499Y9525000D02*
X2937499D01*
X2840000Y10925000D02*
X2960000D01*
Y10775000D02*
Y10925000D01*
X2840000Y10775000D02*
X2960000D01*
X2840000D02*
Y10925000D01*
X2825000Y10662500D02*
Y10737500D01*
Y10662500D02*
X2975000D01*
X2825000Y10737500D02*
X2975000D01*
Y10662500D02*
Y10737500D01*
X2825000Y10462500D02*
X2975000D01*
X2825000Y10537500D02*
X2975000D01*
X2825000Y10462500D02*
Y10537500D01*
X2975000Y10462500D02*
Y10537500D01*
X4576249Y11142500D02*
Y11267500D01*
Y11142500D02*
X4826249D01*
X4576249Y11267500D02*
X4826249D01*
Y11142500D02*
Y11267500D01*
X3949999Y11450000D02*
X4249999D01*
Y11150000D02*
Y11450000D01*
X3949999Y11150000D02*
X4249999D01*
X3949999D02*
Y11450000D01*
X3874999Y11167500D02*
Y11242500D01*
X3724999D02*
X3874999D01*
X3724999Y11167500D02*
X3874999D01*
X3724999D02*
Y11242500D01*
X3190000Y11675000D02*
X3315000D01*
X3190000Y11425000D02*
Y11675000D01*
X3315000Y11425000D02*
Y11675000D01*
X3190000Y11425000D02*
X3315000D01*
X2985000Y11675000D02*
X3110000D01*
X2985000Y11425000D02*
Y11675000D01*
X3110000Y11425000D02*
Y11675000D01*
X2985000Y11425000D02*
X3110000D01*
X1692320Y10725000D02*
X1767320D01*
Y10875000D01*
X1692320Y10725000D02*
Y10875000D01*
X1767320D01*
X2032680Y10725000D02*
X2107680D01*
Y10875000D01*
X2032680Y10725000D02*
Y10875000D01*
X2107680D01*
X2202860D02*
X2277860D01*
X2202860Y10725000D02*
Y10875000D01*
X2277860Y10725000D02*
Y10875000D01*
X2202860Y10725000D02*
X2277860D01*
X-700000Y11150000D02*
Y12000000D01*
X-1700000D02*
X-700000D01*
X-1700000Y11150000D02*
Y12000000D01*
Y11150000D02*
X-700000D01*
X-3100000Y12000000D02*
X-2100000D01*
X-3100000Y11400000D02*
X-2100000D01*
X-3100000D02*
Y12000000D01*
X-2100000Y11400000D02*
Y12000000D01*
X-6500000Y10300000D02*
Y11300000D01*
X-5900000Y10300000D02*
Y11300000D01*
X-6500000Y10300000D02*
X-5900000D01*
X-6500000Y11300000D02*
X-5900000D01*
X-5750000Y10900000D02*
X-5350000D01*
Y10100000D02*
Y10900000D01*
X-5750000Y10100000D02*
Y10900000D01*
Y10100000D02*
X-5350000D01*
X-5306680Y10357760D02*
X-5093320D01*
X-5306680D02*
Y10642240D01*
X-5093320D01*
Y10357760D02*
Y10642240D01*
X-5125000Y10937500D02*
Y11012500D01*
X-5275000D02*
X-5125000D01*
X-5275000Y10937500D02*
X-5125000D01*
X-5275000D02*
Y11012500D01*
X-5275000Y10837500D02*
Y10912500D01*
Y10837500D02*
X-5125000D01*
X-5275000Y10912500D02*
X-5125000D01*
Y10837500D02*
Y10912500D01*
X-5275000Y10737500D02*
Y10812500D01*
Y10737500D02*
X-5125000D01*
X-5275000Y10812500D02*
X-5125000D01*
Y10737500D02*
Y10812500D01*
X-4737500Y11325000D02*
X-4662500D01*
Y11475000D01*
X-4737500Y11325000D02*
Y11475000D01*
X-4662500D01*
X-4887500Y11225000D02*
X-4762500D01*
Y11475000D01*
X-4887500Y11225000D02*
Y11475000D01*
X-4762500D01*
X-5037500Y11225000D02*
X-4912500D01*
Y11475000D01*
X-5037500Y11225000D02*
Y11475000D01*
X-4912500D01*
X-5162500Y11225000D02*
X-5037500D01*
Y11475000D01*
X-5162500Y11225000D02*
Y11475000D01*
X-5037500D01*
X-5287500Y11225000D02*
X-5162500D01*
Y11475000D01*
X-5287500Y11225000D02*
Y11475000D01*
X-5162500D01*
X-4950000Y10650000D02*
Y11150000D01*
X-4450000Y10650000D02*
Y11150000D01*
X-4950000D02*
X-4450000D01*
X-4950000Y10650000D02*
X-4450000D01*
X-4428000Y10615000D02*
Y11185000D01*
X-3972000Y10615000D02*
Y11185000D01*
X-4428000Y10615000D02*
X-3972000D01*
X-4428000Y11185000D02*
X-3972000D01*
X-3728000Y10915000D02*
Y11485000D01*
X-3272000Y10915000D02*
Y11485000D01*
X-3728000Y10915000D02*
X-3272000D01*
X-3728000Y11485000D02*
X-3272000D01*
X-3262500Y11375000D02*
X-3137500D01*
X-3262500Y11125000D02*
Y11375000D01*
X-3137500Y11125000D02*
Y11375000D01*
X-3262500Y11125000D02*
X-3137500D01*
X-3862500Y11375000D02*
X-3737500D01*
X-3862500Y11125000D02*
Y11375000D01*
X-3737500Y11125000D02*
Y11375000D01*
X-3862500Y11125000D02*
X-3737500D01*
X-3425000Y10868699D02*
Y10943699D01*
Y10868699D02*
X-3275000D01*
X-3425000Y10943699D02*
X-3275000D01*
Y10868699D02*
Y10943699D01*
X-3800000Y10250000D02*
Y10750000D01*
X-3200000Y10250000D02*
Y10750000D01*
X-3800000Y10250000D02*
X-3200000D01*
X-3800000Y10750000D02*
X-3200000D01*
X-5037500Y10325000D02*
X-4962500D01*
Y10475000D01*
X-5037500Y10325000D02*
Y10475000D01*
X-4962500D01*
X-4937500D02*
X-4862500D01*
X-4937500Y10325000D02*
Y10475000D01*
X-4862500Y10325000D02*
Y10475000D01*
X-4937500Y10325000D02*
X-4862500D01*
X-4837500Y10475000D02*
X-4762500D01*
X-4837500Y10325000D02*
Y10475000D01*
X-4762500Y10325000D02*
Y10475000D01*
X-4837500Y10325000D02*
X-4762500D01*
X-4737500Y10475000D02*
X-4662500D01*
X-4737500Y10325000D02*
Y10475000D01*
X-4662500Y10325000D02*
Y10475000D01*
X-4737500Y10325000D02*
X-4662500D01*
X-4187500Y10500000D02*
X-4062500D01*
X-4187500Y10250000D02*
Y10500000D01*
X-4062500Y10250000D02*
Y10500000D01*
X-4187500Y10250000D02*
X-4062500D01*
X-4337500Y10500000D02*
X-4212500D01*
X-4337500Y10250000D02*
Y10500000D01*
X-4212500Y10250000D02*
Y10500000D01*
X-4337500Y10250000D02*
X-4212500D01*
X-4487500Y10500000D02*
X-4362500D01*
X-4487500Y10250000D02*
Y10500000D01*
X-4362500Y10250000D02*
Y10500000D01*
X-4487500Y10250000D02*
X-4362500D01*
X-4637500Y10500000D02*
X-4512500D01*
X-4637500Y10250000D02*
Y10500000D01*
X-4512500Y10250000D02*
Y10500000D01*
X-4637500Y10250000D02*
X-4512500D01*
X-4362500Y10175000D02*
X-4237500D01*
X-4362500Y9925000D02*
Y10175000D01*
X-4237500Y9925000D02*
Y10175000D01*
X-4362500Y9925000D02*
X-4237500D01*
X-4212500Y10175000D02*
X-4087500D01*
X-4212500Y9925000D02*
Y10175000D01*
X-4087500Y9925000D02*
Y10175000D01*
X-4212500Y9925000D02*
X-4087500D01*
X-4062500Y10175000D02*
X-3937500D01*
X-4062500Y9925000D02*
Y10175000D01*
X-3937500Y9925000D02*
Y10175000D01*
X-4062500Y9925000D02*
X-3937500D01*
X-3912500Y10175000D02*
X-3787500D01*
X-3912500Y9925000D02*
Y10175000D01*
X-3787500Y9925000D02*
Y10175000D01*
X-3912500Y9925000D02*
X-3787500D01*
X-3762500Y10175000D02*
X-3637500D01*
X-3762500Y9925000D02*
Y10175000D01*
X-3637500Y9925000D02*
Y10175000D01*
X-3762500Y9925000D02*
X-3637500D01*
X-3575000Y9937499D02*
Y10012499D01*
Y9937499D02*
X-3425000D01*
X-3575000Y10012499D02*
X-3425000D01*
Y9937499D02*
Y10012499D01*
X-3325000Y10137500D02*
Y10212500D01*
Y10137500D02*
X-3175000D01*
X-3325000Y10212500D02*
X-3175000D01*
Y10137500D02*
Y10212500D01*
X-3325000Y10037499D02*
Y10112499D01*
Y10037499D02*
X-3175000D01*
X-3325000Y10112499D02*
X-3175000D01*
Y10037499D02*
Y10112499D01*
X-3325000Y9937499D02*
Y10012499D01*
Y9937499D02*
X-3175000D01*
X-3325000Y10012499D02*
X-3175000D01*
Y9937499D02*
Y10012499D01*
X-2625000Y9937500D02*
Y10062500D01*
X-2875000D02*
X-2625000D01*
X-2875000Y9937500D02*
X-2625000D01*
X-2875000D02*
Y10062500D01*
X-3000000Y10100000D02*
Y11250000D01*
X-2200000D01*
Y10100000D02*
Y11250000D01*
X-3000000Y10100000D02*
X-2200000D01*
X-2037500Y11475000D02*
X-1962500D01*
X-2037500Y11324999D02*
Y11475000D01*
X-1962500Y11324999D02*
Y11475000D01*
X-2037500Y11324999D02*
X-1962500D01*
X-2150000Y10950000D02*
X-1850000D01*
Y11250000D01*
X-2150000D02*
X-1850000D01*
X-2150000Y10950000D02*
Y11250000D01*
X-1942500Y10875000D02*
X-1867500D01*
X-1942500Y10724999D02*
Y10875000D01*
X-1867500Y10724999D02*
Y10875000D01*
X-1942500Y10724999D02*
X-1867500D01*
X-2037500Y10525000D02*
X-1962500D01*
Y10675000D01*
X-2037500Y10525000D02*
Y10675000D01*
X-1962500D01*
X-2132500Y10674999D02*
X-2057500D01*
X-2132500Y10524999D02*
Y10674999D01*
X-2057500Y10524999D02*
Y10674999D01*
X-2132500Y10524999D02*
X-2057500D01*
X-2150000Y10150000D02*
X-1850000D01*
Y10450000D01*
X-2150000D02*
X-1850000D01*
X-2150000Y10150000D02*
Y10450000D01*
X-1942500Y10075000D02*
X-1867500D01*
X-1942500Y9924999D02*
Y10075000D01*
X-1867500Y9924999D02*
Y10075000D01*
X-1942500Y9924999D02*
X-1867500D01*
X-2037500Y10075000D02*
X-1962500D01*
X-2037500Y9924999D02*
Y10075000D01*
X-1962500Y9924999D02*
Y10075000D01*
X-2037500Y9924999D02*
X-1962500D01*
X-1637500Y10167000D02*
X-1562500D01*
Y10317000D01*
X-1637500Y10167000D02*
Y10317000D01*
X-1562500D01*
X-1555600Y9840920D02*
X-844400D01*
X-1555600D02*
Y10359080D01*
X-844400D01*
Y9840920D02*
Y10359080D01*
X-1500000Y10520000D02*
X-900000D01*
X-1500000Y10880000D02*
X-900000D01*
X-1500000Y10520000D02*
Y10880000D01*
X-900000Y10520000D02*
Y10880000D01*
X-637500Y10282000D02*
X-562500D01*
Y10432000D01*
X-637500Y10282000D02*
Y10432000D01*
X-562500D01*
X-637500Y10618000D02*
X-562500D01*
X-637500Y10468000D02*
Y10618000D01*
X-562500Y10468000D02*
Y10618000D01*
X-637500Y10468000D02*
X-562500D01*
X-550000Y11550000D02*
X1150000D01*
X-550000Y9850000D02*
X1150000D01*
Y11550000D01*
X-550000Y9850000D02*
Y11550000D01*
X1162500Y10268000D02*
X1237500D01*
X1162500Y10118000D02*
Y10268000D01*
X1237500Y10118000D02*
Y10268000D01*
X1162500Y10118000D02*
X1237500D01*
X-237500Y9825000D02*
X-162500D01*
X-237500Y9675000D02*
Y9825000D01*
X-162500Y9675000D02*
Y9825000D01*
X-237500Y9675000D02*
X-162500D01*
X-1100000Y3100000D02*
X-300000D01*
X-1100000Y3900000D02*
X-300000D01*
X-1100000Y3100000D02*
Y3900000D01*
X-300000Y3100000D02*
Y3900000D01*
X-900000Y3925000D02*
X-825000D01*
Y4075000D01*
X-900000Y3925000D02*
Y4075000D01*
X-825000D01*
X-835000Y2925000D02*
X-760000D01*
Y3075000D01*
X-835000Y2925000D02*
Y3075000D01*
X-760000D01*
X-965000Y3075000D02*
X-890000D01*
X-965000Y2925000D02*
Y3075000D01*
X-890000Y2925000D02*
Y3075000D01*
X-965000Y2925000D02*
X-890000D01*
X-1095000Y3075000D02*
X-1020000D01*
X-1095000Y2925000D02*
Y3075000D01*
X-1020000Y2925000D02*
Y3075000D01*
X-1095000Y2925000D02*
X-1020000D01*
X-100000Y3075000D02*
X-25000D01*
X-100000Y2925000D02*
Y3075000D01*
X-25000Y2925000D02*
Y3075000D01*
X-100000Y2925000D02*
X-25000D01*
X25000Y3075000D02*
X100000D01*
X25000Y2925000D02*
Y3075000D01*
X100000Y2925000D02*
Y3075000D01*
X25000Y2925000D02*
X100000D01*
X-600000Y2100000D02*
X600000D01*
X-600000Y2700000D02*
X600000D01*
Y2100000D02*
Y2700000D01*
X-600000Y2100000D02*
Y2700000D01*
X645000Y4075000D02*
X720000D01*
X645000Y3925000D02*
Y4075000D01*
X720000Y3925000D02*
Y4075000D01*
X645000Y3925000D02*
X720000D01*
X1500000Y3150000D02*
Y3850000D01*
X500000Y3150000D02*
Y3850000D01*
X1500000D01*
X500000Y3150000D02*
X1500000D01*
X645000Y3075000D02*
X720000D01*
X645000Y2925000D02*
Y3075000D01*
X720000Y2925000D02*
Y3075000D01*
X645000Y2925000D02*
X720000D01*
X390950Y3075000D02*
X465950D01*
X390950Y2925000D02*
Y3075000D01*
X465950Y2925000D02*
Y3075000D01*
X390950Y2925000D02*
X465950D01*
X-3597000Y6675000D02*
X-3522000D01*
X-3597000Y6525000D02*
Y6675000D01*
X-3522000Y6525000D02*
Y6675000D01*
X-3597000Y6525000D02*
X-3522000D01*
X-3851000Y6525000D02*
X-3776000D01*
Y6675000D01*
X-3851000Y6525000D02*
Y6675000D01*
X-3776000D01*
X-5351000Y6525000D02*
X-5276000D01*
Y6675000D01*
X-5351000Y6525000D02*
Y6675000D01*
X-5276000D01*
X-5500000Y5850000D02*
Y6450000D01*
X-5000000Y5850000D02*
Y6450000D01*
X-5500000Y5850000D02*
X-5000000D01*
X-5500000Y6450000D02*
X-5000000D01*
X-4000000Y5850000D02*
Y6450000D01*
X-3500000Y5850000D02*
Y6450000D01*
X-4000000Y5850000D02*
X-3500000D01*
X-4000000Y6450000D02*
X-3500000D01*
X-3337500Y5715000D02*
X-3262500D01*
X-3337500Y5565000D02*
Y5715000D01*
X-3262500Y5565000D02*
Y5715000D01*
X-3337500Y5565000D02*
X-3262500D01*
X-4237500Y5565000D02*
X-4162500D01*
Y5715000D01*
X-4237500Y5565000D02*
Y5715000D01*
X-4162500D01*
X-4837500Y5715000D02*
X-4762500D01*
X-4837500Y5565000D02*
Y5715000D01*
X-4762500Y5565000D02*
Y5715000D01*
X-4837500Y5565000D02*
X-4762500D01*
X-5737500Y5565000D02*
X-5662500D01*
Y5715000D01*
X-5737500Y5565000D02*
Y5715000D01*
X-5662500D01*
X-5650000Y5350000D02*
Y5750000D01*
X-4850000D01*
X-5650000Y5350000D02*
X-4850000D01*
Y5750000D01*
X-4150000Y5350000D02*
Y5750000D01*
X-3350000D01*
X-4150000Y5350000D02*
X-3350000D01*
Y5750000D01*
X-4450000Y4400000D02*
X-3050000D01*
X-4450000Y5000000D02*
X-3050000D01*
Y4400000D02*
Y5000000D01*
X-4450000Y4400000D02*
Y5000000D01*
X-5950000Y4400000D02*
X-4550000D01*
X-5950000Y5000000D02*
X-4550000D01*
Y4400000D02*
Y5000000D01*
X-5950000Y4400000D02*
Y5000000D01*
X-3598540Y5025000D02*
X-3523540D01*
Y5175000D01*
X-3598540Y5025000D02*
Y5175000D01*
X-3523540D01*
X-3973540Y5025000D02*
X-3898540D01*
Y5175000D01*
X-3973540Y5025000D02*
Y5175000D01*
X-3898540D01*
X-5098540Y5025000D02*
X-5023540D01*
Y5175000D01*
X-5098540Y5025000D02*
Y5175000D01*
X-5023540D01*
X-5473540Y5025000D02*
X-5398540D01*
Y5175000D01*
X-5473540Y5025000D02*
Y5175000D01*
X-5398540D01*
X5149000Y6525000D02*
X5224000D01*
Y6675000D01*
X5149000Y6525000D02*
Y6675000D01*
X5224000D01*
X5403000Y6675000D02*
X5478000D01*
X5403000Y6525000D02*
Y6675000D01*
X5478000Y6525000D02*
Y6675000D01*
X5403000Y6525000D02*
X5478000D01*
X5000000Y5850000D02*
Y6450000D01*
X5500000Y5850000D02*
Y6450000D01*
X5000000Y5850000D02*
X5500000D01*
X5000000Y6450000D02*
X5500000D01*
X4850000Y5350000D02*
Y5750000D01*
X5650000D01*
X4850000Y5350000D02*
X5650000D01*
Y5750000D01*
X5662500Y5715000D02*
X5737500D01*
X5662500Y5565000D02*
Y5715000D01*
X5737500Y5565000D02*
Y5715000D01*
X5662500Y5565000D02*
X5737500D01*
X4762500Y5565000D02*
X4837500D01*
Y5715000D01*
X4762500Y5565000D02*
Y5715000D01*
X4837500D01*
X5401460Y5025000D02*
X5476460D01*
Y5175000D01*
X5401460Y5025000D02*
Y5175000D01*
X5476460D01*
X5026460Y5025000D02*
X5101460D01*
Y5175000D01*
X5026460Y5025000D02*
Y5175000D01*
X5101460D01*
X4550000Y4400000D02*
X5950000D01*
X4550000Y5000000D02*
X5950000D01*
Y4400000D02*
Y5000000D01*
X4550000Y4400000D02*
Y5000000D01*
X3903000Y6675000D02*
X3978000D01*
X3903000Y6525000D02*
Y6675000D01*
X3978000Y6525000D02*
Y6675000D01*
X3903000Y6525000D02*
X3978000D01*
X3649000D02*
X3724000D01*
Y6675000D01*
X3649000Y6525000D02*
Y6675000D01*
X3724000D01*
X3500000Y5850000D02*
Y6450000D01*
X4000000Y5850000D02*
Y6450000D01*
X3500000Y5850000D02*
X4000000D01*
X3500000Y6450000D02*
X4000000D01*
X3350000Y5350000D02*
Y5750000D01*
X4150000D01*
X3350000Y5350000D02*
X4150000D01*
Y5750000D01*
X3262500Y5565000D02*
X3337500D01*
Y5715000D01*
X3262500Y5565000D02*
Y5715000D01*
X3337500D01*
X4162500D02*
X4237500D01*
X4162500Y5565000D02*
Y5715000D01*
X4237500Y5565000D02*
Y5715000D01*
X4162500Y5565000D02*
X4237500D01*
X3050000Y4400000D02*
X4450000D01*
X3050000Y5000000D02*
X4450000D01*
Y4400000D02*
Y5000000D01*
X3050000Y4400000D02*
Y5000000D01*
X3901460Y5025000D02*
X3976460D01*
Y5175000D01*
X3901460Y5025000D02*
Y5175000D01*
X3976460D01*
X3526460Y5025000D02*
X3601460D01*
Y5175000D01*
X3526460Y5025000D02*
Y5175000D01*
X3601460D01*
X5540000Y11425000D02*
X5660000D01*
Y11275000D02*
Y11425000D01*
X5540000Y11275000D02*
X5660000D01*
X5540000D02*
Y11425000D01*
X5525000Y11662500D02*
Y11737500D01*
Y11662500D02*
X5675000D01*
X5525000Y11737500D02*
X5675000D01*
Y11662500D02*
Y11737500D01*
Y11462500D02*
Y11537500D01*
X5525000D02*
X5675000D01*
X5525000Y11462500D02*
X5675000D01*
X5525000D02*
Y11537500D01*
X5340000Y11425000D02*
X5460000D01*
Y11275000D02*
Y11425000D01*
X5340000Y11275000D02*
X5460000D01*
X5340000D02*
Y11425000D01*
X5325000Y11662500D02*
Y11737500D01*
Y11662500D02*
X5475000D01*
X5325000Y11737500D02*
X5475000D01*
Y11662500D02*
Y11737500D01*
Y11462500D02*
Y11537500D01*
X5325000D02*
X5475000D01*
X5325000Y11462500D02*
X5475000D01*
X5325000D02*
Y11537500D01*
X1100000Y4550000D02*
X2900000D01*
X1100000Y7450000D02*
X2900000D01*
X1100000Y4550000D02*
Y7450000D01*
X2900000Y4550000D02*
Y7450000D01*
X-900000Y4550000D02*
X900000D01*
X-900000Y7450000D02*
X900000D01*
X-900000Y4550000D02*
Y7450000D01*
X900000Y4550000D02*
Y7450000D01*
X-2900000Y4550000D02*
X-1100000D01*
X-2900000Y7450000D02*
X-1100000D01*
X-2900000Y4550000D02*
Y7450000D01*
X-1100000Y4550000D02*
Y7450000D01*
X5740000Y11425000D02*
X5860000D01*
Y11275000D02*
Y11425000D01*
X5740000Y11275000D02*
X5860000D01*
X5740000D02*
Y11425000D01*
X5725000Y11662500D02*
Y11737500D01*
Y11662500D02*
X5875000D01*
X5725000Y11737500D02*
X5875000D01*
Y11662500D02*
Y11737500D01*
Y11462500D02*
Y11537500D01*
X5725000D02*
X5875000D01*
X5725000Y11462500D02*
X5875000D01*
X5725000D02*
Y11537500D01*
D160*
X2265000Y11185000D02*
Y11615000D01*
X1535000Y11185000D02*
Y11615000D01*
Y11185000D02*
X2265000D01*
X1535000Y11615000D02*
X2265000D01*
%TF.MD5,b3bbc324c0a5bce2c284216bcab4e4b4*%
M02*
