%TF.GenerationSoftware,Altium Limited,Altium Designer,23.3.1 (30)*%
G04 Layer_Color=16711935*
%FSLAX45Y45*%
%MOMM*%
%TF.SameCoordinates,E4F86091-2262-4A10-A0E3-B6E4D0D901A0*%
%TF.FilePolarity,Positive*%
%TF.FileFunction,Other,Bottom_Courtyard*%
%TF.Part,Single*%
G01*
G75*
%TA.AperFunction,NonConductor*%
%ADD81C,0.10000*%
%ADD158C,0.02000*%
%ADD159C,0.01000*%
D81*
X-1600000Y8800000D02*
G03*
X-1600000Y8800000I-100000J0D01*
G01*
X-1300000D02*
G03*
X-1300000Y8800000I-100000J0D01*
G01*
X-700000D02*
G03*
X-700000Y8800000I-100000J0D01*
G01*
X-1000000D02*
G03*
X-1000000Y8800000I-100000J0D01*
G01*
X1829820Y10300000D02*
G03*
X1829820Y10300000I-100000J0D01*
G01*
X2700000Y11000000D02*
G03*
X2700000Y11000000I-100000J0D01*
G01*
X5300000Y9400000D02*
G03*
X5300000Y9400000I-100000J0D01*
G01*
X4700000Y10200000D02*
G03*
X4700000Y10200000I-100000J0D01*
G01*
X5300000Y9100000D02*
G03*
X5300000Y9100000I-100000J0D01*
G01*
Y8800000D02*
G03*
X5300000Y8800000I-100000J0D01*
G01*
X4200000Y10400000D02*
G03*
X4200000Y10400000I-100000J0D01*
G01*
Y10000000D02*
G03*
X4200000Y10000000I-100000J0D01*
G01*
X5300000Y10200000D02*
G03*
X5300000Y10200000I-100000J0D01*
G01*
X300000Y10400000D02*
G03*
X300000Y10400000I-100000J0D01*
G01*
X600000D02*
G03*
X600000Y10400000I-100000J0D01*
G01*
X2600000Y8500000D02*
G03*
X2600000Y8500000I-100000J0D01*
G01*
Y8000000D02*
G03*
X2600000Y8000000I-100000J0D01*
G01*
X800000Y9800000D02*
G03*
X800000Y9800000I-100000J0D01*
G01*
X1300000D02*
G03*
X1300000Y9800000I-100000J0D01*
G01*
X-2500000Y9700000D02*
G03*
X-2500000Y9700000I-100000J0D01*
G01*
X-2200000Y10500000D02*
G03*
X-2200000Y10500000I-100000J0D01*
G01*
X-3468000Y9700000D02*
G03*
X-3468000Y9700000I-100000J0D01*
G01*
X-4900000Y10000000D02*
G03*
X-4900000Y10000000I-100000J0D01*
G01*
D158*
X-725000Y10650000D02*
Y10725000D01*
X-875000D02*
X-725000D01*
X-875000Y10650000D02*
X-725000D01*
X-825000Y10687500D02*
X-775000D01*
X-800000Y10662500D02*
Y10712500D01*
X-875000Y10650000D02*
Y10725000D01*
Y10875000D02*
Y10950000D01*
X-800000Y10887500D02*
Y10937500D01*
X-825000Y10912500D02*
X-775000D01*
X-875000Y10875000D02*
X-725000D01*
X-875000Y10950000D02*
X-725000D01*
Y10875000D02*
Y10950000D01*
X-1412500Y11525000D02*
X-1337500D01*
X-1400000Y11600000D02*
X-1350000D01*
X-1375000Y11575000D02*
Y11625000D01*
X-1337500Y11525000D02*
Y11675000D01*
X-1412500Y11525000D02*
Y11675000D01*
X-1337500D01*
X-1312500Y11525000D02*
X-1237500D01*
X-1300000Y11600000D02*
X-1250000D01*
X-1275000Y11575000D02*
Y11625000D01*
X-1237500Y11525000D02*
Y11675000D01*
X-1312500Y11525000D02*
Y11675000D01*
X-1237500D01*
X-1162500Y11525000D02*
X-1087500D01*
X-1150000Y11600000D02*
X-1100000D01*
X-1125000Y11575000D02*
Y11625000D01*
X-1087500Y11525000D02*
Y11675000D01*
X-1162500Y11525000D02*
Y11675000D01*
X-1087500D01*
X-1062500Y11525000D02*
X-987500D01*
X-1050000Y11600000D02*
X-1000000D01*
X-1025000Y11575000D02*
Y11625000D01*
X-987500Y11525000D02*
Y11675000D01*
X-1062500Y11525000D02*
Y11675000D01*
X-987500D01*
X4073500Y7325000D02*
X4148500D01*
X4086000Y7400000D02*
X4136000D01*
X4111000Y7375000D02*
Y7425000D01*
X4148500Y7325000D02*
Y7475000D01*
X4073500Y7325000D02*
Y7475000D01*
X4148500D01*
X4200500Y7325000D02*
X4275500D01*
X4213000Y7400000D02*
X4263000D01*
X4238000Y7375000D02*
Y7425000D01*
X4275500Y7325000D02*
Y7475000D01*
X4200500Y7325000D02*
Y7475000D01*
X4275500D01*
X4327500Y7325000D02*
X4402500D01*
X4340000Y7400000D02*
X4390000D01*
X4365000Y7375000D02*
Y7425000D01*
X4402500Y7325000D02*
Y7475000D01*
X4327500Y7325000D02*
Y7475000D01*
X4402500D01*
X4581500Y7325000D02*
X4656500D01*
X4594000Y7400000D02*
X4644000D01*
X4619000Y7375000D02*
Y7425000D01*
X4656500Y7325000D02*
Y7475000D01*
X4581500Y7325000D02*
Y7475000D01*
X4656500D01*
X4708500Y7325000D02*
X4783500D01*
X4721000Y7400000D02*
X4771000D01*
X4746000Y7375000D02*
Y7425000D01*
X4783500Y7325000D02*
Y7475000D01*
X4708500Y7325000D02*
Y7475000D01*
X4783500D01*
X-225000Y-62500D02*
Y12500D01*
X-300000Y-50000D02*
Y0D01*
X-325000Y-25000D02*
X-275000D01*
X-375000Y12500D02*
X-225000D01*
X-375000Y-62500D02*
X-225000D01*
X-375000D02*
Y12500D01*
X2075000Y5862500D02*
Y5937500D01*
X2000000Y5875000D02*
Y5925000D01*
X1975000Y5900000D02*
X2025000D01*
X1925000Y5937500D02*
X2075000D01*
X1925000Y5862500D02*
X2075000D01*
X1925000D02*
Y5937500D01*
X75000Y5862500D02*
Y5937500D01*
X0Y5875000D02*
Y5925000D01*
X-25000Y5900000D02*
X25000D01*
X-75000Y5937500D02*
X75000D01*
X-75000Y5862500D02*
X75000D01*
X-75000D02*
Y5937500D01*
X-1925000Y5862500D02*
Y5937500D01*
X-2000000Y5875000D02*
Y5925000D01*
X-2025000Y5900000D02*
X-1975000D01*
X-2075000Y5937500D02*
X-1925000D01*
X-2075000Y5862500D02*
X-1925000D01*
X-2075000D02*
Y5937500D01*
X-1225000Y1057500D02*
Y1132500D01*
X-1300000Y1070000D02*
Y1120000D01*
X-1325000Y1095000D02*
X-1275000D01*
X-1375000Y1132500D02*
X-1225000D01*
X-1375000Y1057500D02*
X-1225000D01*
X-1375000D02*
Y1132500D01*
X1225000Y775000D02*
Y850000D01*
X1300000Y787500D02*
Y837500D01*
X1275000Y812500D02*
X1325000D01*
X1225000Y775000D02*
X1375000D01*
X1225000Y850000D02*
X1375000D01*
Y775000D02*
Y850000D01*
X1225000Y1025000D02*
Y1100000D01*
X1300000Y1037500D02*
Y1087500D01*
X1275000Y1062500D02*
X1325000D01*
X1225000Y1025000D02*
X1375000D01*
X1225000Y1100000D02*
X1375000D01*
Y1025000D02*
Y1100000D01*
D159*
X-1225000Y9500000D02*
X-1175000D01*
X-1200000Y9475000D02*
Y9525000D01*
X-500000Y9100000D02*
Y9700000D01*
X-1900000Y9100000D02*
X-500000D01*
X-1900000D02*
Y9700000D01*
X-500000D01*
X-1225000Y10800000D02*
X-1175000D01*
X-1200000Y10775000D02*
Y10825000D01*
X-1390000Y10625000D02*
Y10975000D01*
X-1010000D01*
X-1390000Y10625000D02*
X-1010000D01*
Y10975000D01*
X-800000Y10775000D02*
Y10825000D01*
X-825000Y10800000D02*
X-775000D01*
X-875000Y10762500D02*
X-725000D01*
X-875000Y10837500D02*
X-725000D01*
Y10762500D02*
Y10837500D01*
X-875000Y10762500D02*
Y10837500D01*
X4975000Y7000000D02*
X5025000D01*
X5000000Y6975000D02*
Y7025000D01*
X3298200Y5082300D02*
X3349000D01*
X3298200Y4777500D02*
Y5082300D01*
Y4777500D02*
X3349000D01*
X3350000Y4400000D02*
X5450000D01*
X3349000Y5082300D02*
Y7050000D01*
Y4400000D02*
Y4777500D01*
X5450000D02*
X5510000D01*
Y5082300D01*
X5450000D02*
X5510000D01*
X5450000D02*
Y7050000D01*
Y4400000D02*
Y4777500D01*
X5060000Y7050000D02*
Y7123500D01*
X4047500D02*
X5060000D01*
X4047500Y7050000D02*
Y7123500D01*
X3349000Y7050000D02*
X4047500D01*
X5060000D02*
X5450000D01*
X300000Y-50000D02*
Y0D01*
X275000Y-25000D02*
X325000D01*
X225000Y-62500D02*
X375000D01*
X225000Y12500D02*
X375000D01*
Y-62500D02*
Y12500D01*
X225000Y-62500D02*
Y12500D01*
X300000Y50000D02*
Y100000D01*
X275000Y75000D02*
X325000D01*
X225000Y37500D02*
X375000D01*
X225000Y112500D02*
X375000D01*
Y37500D02*
Y112500D01*
X225000Y37500D02*
Y112500D01*
X-25000Y0D02*
X25000D01*
X0Y-25000D02*
Y25000D01*
X150000Y-150000D02*
Y150000D01*
X-150000Y-150000D02*
X150000D01*
X-150000D02*
Y150000D01*
X150000D01*
X2000000Y6275000D02*
Y6325000D01*
X1975000Y6300000D02*
X2025000D01*
X1925000Y6337500D02*
X2075000D01*
X1925000Y6262500D02*
X2075000D01*
X1925000D02*
Y6337500D01*
X2075000Y6262500D02*
Y6337500D01*
X2000000Y5675000D02*
Y5725000D01*
X1975000Y5700000D02*
X2025000D01*
X1925000Y5737500D02*
X2075000D01*
X1925000Y5662500D02*
X2075000D01*
X1925000D02*
Y5737500D01*
X2075000Y5662500D02*
Y5737500D01*
X0Y6275000D02*
Y6325000D01*
X-25000Y6300000D02*
X25000D01*
X-75000Y6337500D02*
X75000D01*
X-75000Y6262500D02*
X75000D01*
X-75000D02*
Y6337500D01*
X75000Y6262500D02*
Y6337500D01*
X0Y5675000D02*
Y5725000D01*
X-25000Y5700000D02*
X25000D01*
X-75000Y5737500D02*
X75000D01*
X-75000Y5662500D02*
X75000D01*
X-75000D02*
Y5737500D01*
X75000Y5662500D02*
Y5737500D01*
X-2000000Y6275000D02*
Y6325000D01*
X-2025000Y6300000D02*
X-1975000D01*
X-2075000Y6337500D02*
X-1925000D01*
X-2075000Y6262500D02*
X-1925000D01*
X-2075000D02*
Y6337500D01*
X-1925000Y6262500D02*
Y6337500D01*
X-2000000Y5675000D02*
Y5725000D01*
X-2025000Y5700000D02*
X-1975000D01*
X-2075000Y5737500D02*
X-1925000D01*
X-2075000Y5662500D02*
X-1925000D01*
X-2075000D02*
Y5737500D01*
X-1925000Y5662500D02*
Y5737500D01*
X-1000000Y975000D02*
Y1025000D01*
X-1025000Y1000000D02*
X-975000D01*
X-1150000Y1150000D02*
X-850000D01*
X-1150000Y850000D02*
Y1150000D01*
Y850000D02*
X-850000D01*
Y1150000D01*
X-700000Y880000D02*
Y930000D01*
X-725000Y905000D02*
X-675000D01*
X-775000Y867500D02*
X-625000D01*
X-775000Y942500D02*
X-625000D01*
Y867500D02*
Y942500D01*
X-775000Y867500D02*
Y942500D01*
X-700000Y1070000D02*
Y1120000D01*
X-725000Y1095000D02*
X-675000D01*
X-775000Y1057500D02*
X-625000D01*
X-775000Y1132500D02*
X-625000D01*
Y1057500D02*
Y1132500D01*
X-775000Y1057500D02*
Y1132500D01*
X700000Y1162500D02*
Y1212500D01*
X675000Y1187500D02*
X725000D01*
X625000Y1225000D02*
X775000D01*
X625000Y1150000D02*
X775000D01*
X625000D02*
Y1225000D01*
X775000Y1150000D02*
Y1225000D01*
X700000Y1037500D02*
Y1087500D01*
X675000Y1062500D02*
X725000D01*
X625000Y1100000D02*
X775000D01*
X625000Y1025000D02*
X775000D01*
X625000D02*
Y1100000D01*
X775000Y1025000D02*
Y1100000D01*
X842520Y743460D02*
X1157480D01*
Y1256540D01*
X842520D02*
X1157480D01*
X842520Y743460D02*
Y1256540D01*
X1000000Y975000D02*
Y1025000D01*
X975000Y1000000D02*
X1025000D01*
%TF.MD5,c9e7637f2a0ae06a676e60742b9d7161*%
M02*
