%TF.GenerationSoftware,Altium Limited,Altium Designer,23.3.1 (30)*%
G04 Layer_Color=32768*
%FSLAX45Y45*%
%MOMM*%
%TF.SameCoordinates,E4F86091-2262-4A10-A0E3-B6E4D0D901A0*%
%TF.FilePolarity,Positive*%
%TF.FileFunction,Other,Bottom_Assembly*%
%TF.Part,Single*%
G01*
G75*
%TA.AperFunction,NonConductor*%
%ADD81C,0.10000*%
%ADD158C,0.02000*%
%ADD159C,0.01000*%
D81*
X-1600000Y8800000D02*
G03*
X-1600000Y8800000I-100000J0D01*
G01*
X-1300000D02*
G03*
X-1300000Y8800000I-100000J0D01*
G01*
X-700000D02*
G03*
X-700000Y8800000I-100000J0D01*
G01*
X-1000000D02*
G03*
X-1000000Y8800000I-100000J0D01*
G01*
X1829820Y10300000D02*
G03*
X1829820Y10300000I-100000J0D01*
G01*
X2700000Y11000000D02*
G03*
X2700000Y11000000I-100000J0D01*
G01*
X5300000Y9400000D02*
G03*
X5300000Y9400000I-100000J0D01*
G01*
X4700000Y10200000D02*
G03*
X4700000Y10200000I-100000J0D01*
G01*
X5300000Y9100000D02*
G03*
X5300000Y9100000I-100000J0D01*
G01*
Y8800000D02*
G03*
X5300000Y8800000I-100000J0D01*
G01*
X4200000Y10400000D02*
G03*
X4200000Y10400000I-100000J0D01*
G01*
Y10000000D02*
G03*
X4200000Y10000000I-100000J0D01*
G01*
X5300000Y10200000D02*
G03*
X5300000Y10200000I-100000J0D01*
G01*
X300000Y10400000D02*
G03*
X300000Y10400000I-100000J0D01*
G01*
X600000D02*
G03*
X600000Y10400000I-100000J0D01*
G01*
X2600000Y8500000D02*
G03*
X2600000Y8500000I-100000J0D01*
G01*
Y8000000D02*
G03*
X2600000Y8000000I-100000J0D01*
G01*
X800000Y9800000D02*
G03*
X800000Y9800000I-100000J0D01*
G01*
X1300000D02*
G03*
X1300000Y9800000I-100000J0D01*
G01*
X-2500000Y9700000D02*
G03*
X-2500000Y9700000I-100000J0D01*
G01*
X-2200000Y10500000D02*
G03*
X-2200000Y10500000I-100000J0D01*
G01*
X-3468000Y9700000D02*
G03*
X-3468000Y9700000I-100000J0D01*
G01*
X-4900000Y10000000D02*
G03*
X-4900000Y10000000I-100000J0D01*
G01*
D158*
X-725000Y10650000D02*
Y10725000D01*
X-875000Y10650000D02*
Y10725000D01*
X-725000D01*
X-875000Y10650000D02*
X-725000D01*
X-875000Y10875000D02*
X-725000D01*
X-875000Y10950000D02*
X-725000D01*
X-875000Y10875000D02*
Y10950000D01*
X-725000Y10875000D02*
Y10950000D01*
X-1337500Y11525000D02*
Y11675000D01*
X-1412500Y11525000D02*
Y11675000D01*
Y11525000D02*
X-1337500D01*
X-1412500Y11675000D02*
X-1337500D01*
X-1237500Y11525000D02*
Y11675000D01*
X-1312500Y11525000D02*
Y11675000D01*
Y11525000D02*
X-1237500D01*
X-1312500Y11675000D02*
X-1237500D01*
X-1087500Y11525000D02*
Y11675000D01*
X-1162500Y11525000D02*
Y11675000D01*
Y11525000D02*
X-1087500D01*
X-1162500Y11675000D02*
X-1087500D01*
X-987500Y11525000D02*
Y11675000D01*
X-1062500Y11525000D02*
Y11675000D01*
Y11525000D02*
X-987500D01*
X-1062500Y11675000D02*
X-987500D01*
X4148500Y7325000D02*
Y7475000D01*
X4073500Y7325000D02*
Y7475000D01*
Y7325000D02*
X4148500D01*
X4073500Y7475000D02*
X4148500D01*
X4275500Y7325000D02*
Y7475000D01*
X4200500Y7325000D02*
Y7475000D01*
Y7325000D02*
X4275500D01*
X4200500Y7475000D02*
X4275500D01*
X4402500Y7325000D02*
Y7475000D01*
X4327500Y7325000D02*
Y7475000D01*
Y7325000D02*
X4402500D01*
X4327500Y7475000D02*
X4402500D01*
X4656500Y7325000D02*
Y7475000D01*
X4581500Y7325000D02*
Y7475000D01*
Y7325000D02*
X4656500D01*
X4581500Y7475000D02*
X4656500D01*
X4783500Y7325000D02*
Y7475000D01*
X4708500Y7325000D02*
Y7475000D01*
Y7325000D02*
X4783500D01*
X4708500Y7475000D02*
X4783500D01*
X-375000Y12500D02*
X-225000D01*
X-375000Y-62500D02*
X-225000D01*
Y12500D01*
X-375000Y-62500D02*
Y12500D01*
X1925000Y5937500D02*
X2075000D01*
X1925000Y5862500D02*
X2075000D01*
Y5937500D01*
X1925000Y5862500D02*
Y5937500D01*
X-75000D02*
X75000D01*
X-75000Y5862500D02*
X75000D01*
Y5937500D01*
X-75000Y5862500D02*
Y5937500D01*
X-2075000D02*
X-1925000D01*
X-2075000Y5862500D02*
X-1925000D01*
Y5937500D01*
X-2075000Y5862500D02*
Y5937500D01*
X-1375000Y1132500D02*
X-1225000D01*
X-1375000Y1057500D02*
X-1225000D01*
Y1132500D01*
X-1375000Y1057500D02*
Y1132500D01*
X1225000Y775000D02*
X1375000D01*
X1225000Y850000D02*
X1375000D01*
X1225000Y775000D02*
Y850000D01*
X1375000Y775000D02*
Y850000D01*
X1225000Y1025000D02*
X1375000D01*
X1225000Y1100000D02*
X1375000D01*
X1225000Y1025000D02*
Y1100000D01*
X1375000Y1025000D02*
Y1100000D01*
D159*
X-1900000Y9100000D02*
X-500000D01*
X-1900000Y9700000D02*
X-500000D01*
X-1900000Y9100000D02*
Y9700000D01*
X-500000Y9100000D02*
Y9700000D01*
X-1390000Y10975000D02*
X-1010000D01*
X-1390000Y10625000D02*
X-1010000D01*
X-1390000D02*
Y10975000D01*
X-1010000Y10625000D02*
Y10975000D01*
X-725000Y10762500D02*
Y10837500D01*
X-875000Y10762500D02*
X-725000D01*
X-875000Y10837500D02*
X-725000D01*
X-875000Y10762500D02*
Y10837500D01*
X5500000Y4400000D02*
Y7150000D01*
X3300000Y4400000D02*
X5500000D01*
X3300000D02*
Y7150000D01*
X5500000D01*
X375000Y-62500D02*
Y12500D01*
X225000Y-62500D02*
X375000D01*
X225000Y12500D02*
X375000D01*
X225000Y-62500D02*
Y12500D01*
X375000Y37500D02*
Y112500D01*
X225000Y37500D02*
X375000D01*
X225000Y112500D02*
X375000D01*
X225000Y37500D02*
Y112500D01*
X-150000Y-150000D02*
X150000D01*
X-150000Y150000D02*
X150000D01*
X-150000Y-150000D02*
Y150000D01*
X150000Y-150000D02*
Y150000D01*
X1925000Y6262500D02*
Y6337500D01*
X2075000D01*
X1925000Y6262500D02*
X2075000D01*
Y6337500D01*
X1925000Y5662500D02*
Y5737500D01*
X2075000D01*
X1925000Y5662500D02*
X2075000D01*
Y5737500D01*
X-75000Y6262500D02*
Y6337500D01*
X75000D01*
X-75000Y6262500D02*
X75000D01*
Y6337500D01*
X-75000Y5662500D02*
Y5737500D01*
X75000D01*
X-75000Y5662500D02*
X75000D01*
Y5737500D01*
X-2075000Y6262500D02*
Y6337500D01*
X-1925000D01*
X-2075000Y6262500D02*
X-1925000D01*
Y6337500D01*
X-2075000Y5662500D02*
Y5737500D01*
X-1925000D01*
X-2075000Y5662500D02*
X-1925000D01*
Y5737500D01*
X-1150000Y1150000D02*
X-850000D01*
X-1150000Y850000D02*
Y1150000D01*
Y850000D02*
X-850000D01*
Y1150000D01*
X-625000Y867500D02*
Y942500D01*
X-775000Y867500D02*
X-625000D01*
X-775000Y942500D02*
X-625000D01*
X-775000Y867500D02*
Y942500D01*
X-625000Y1057500D02*
Y1132500D01*
X-775000Y1057500D02*
X-625000D01*
X-775000Y1132500D02*
X-625000D01*
X-775000Y1057500D02*
Y1132500D01*
X625000Y1150000D02*
Y1225000D01*
X775000D01*
X625000Y1150000D02*
X775000D01*
Y1225000D01*
X625000Y1025000D02*
Y1100000D01*
X775000D01*
X625000Y1025000D02*
X775000D01*
Y1100000D01*
X842520Y743460D02*
X1157480D01*
Y1256540D01*
X842520D02*
X1157480D01*
X842520Y743460D02*
Y1256540D01*
%TF.MD5,4325ebef8eff0c5377e168c8f688acfe*%
M02*
