G04*
G04 #@! TF.GenerationSoftware,Altium Limited,Altium Designer,23.3.1 (30)*
G04*
G04 Layer_Color=255*
%FSLAX25Y25*%
%MOIN*%
G70*
G04*
G04 #@! TF.SameCoordinates,B8D109ED-CDE9-4BA8-ABFF-944DEA042C50*
G04*
G04*
G04 #@! TF.FilePolarity,Positive*
G04*
G01*
G75*
%ADD15R,0.04724X0.01968*%
%ADD16R,0.01968X0.04724*%
%ADD17R,0.06890X0.03937*%
%ADD18R,0.22441X0.21654*%
%ADD19R,0.02362X0.03150*%
%ADD20R,0.02756X0.03937*%
%ADD21R,0.02047X0.01850*%
%ADD22R,0.01850X0.02047*%
%ADD23R,0.07874X0.11811*%
%ADD24R,0.02953X0.05906*%
%ADD40C,0.02953*%
D15*
X56102Y71653D02*
D03*
Y74803D02*
D03*
Y77953D02*
D03*
Y81102D02*
D03*
Y84252D02*
D03*
Y87402D02*
D03*
Y90551D02*
D03*
Y93701D02*
D03*
X22638D02*
D03*
Y90551D02*
D03*
Y87402D02*
D03*
Y84252D02*
D03*
Y81102D02*
D03*
Y77953D02*
D03*
Y74803D02*
D03*
Y71653D02*
D03*
D16*
X50394Y99409D02*
D03*
X47244D02*
D03*
X44094D02*
D03*
X40945D02*
D03*
X37795D02*
D03*
X34646D02*
D03*
X31496D02*
D03*
X28346D02*
D03*
Y65945D02*
D03*
X31496D02*
D03*
X34646D02*
D03*
X37795D02*
D03*
X40945D02*
D03*
X44094D02*
D03*
X47244D02*
D03*
X50394D02*
D03*
D17*
X49862Y113051D02*
D03*
Y131043D02*
D03*
D18*
X23622Y122047D02*
D03*
D19*
X59252Y116929D02*
D03*
X62992D02*
D03*
X66732D02*
D03*
Y127165D02*
D03*
X59252D02*
D03*
X62992D02*
D03*
D20*
X20669Y137795D02*
D03*
X14764D02*
D03*
D21*
X66732Y108543D02*
D03*
Y111929D02*
D03*
X37795Y57362D02*
D03*
Y60748D02*
D03*
X15965Y37126D02*
D03*
Y33740D02*
D03*
X57854Y37126D02*
D03*
Y33740D02*
D03*
X47244Y57362D02*
D03*
Y60748D02*
D03*
X40945D02*
D03*
Y57362D02*
D03*
X20886Y33740D02*
D03*
Y37126D02*
D03*
X62776Y33740D02*
D03*
Y37126D02*
D03*
X44094Y60748D02*
D03*
Y57362D02*
D03*
X62992Y132165D02*
D03*
Y135551D02*
D03*
Y108543D02*
D03*
Y111929D02*
D03*
X59252Y108543D02*
D03*
Y111929D02*
D03*
Y135551D02*
D03*
Y132165D02*
D03*
X50394Y57362D02*
D03*
Y60748D02*
D03*
D22*
X64685Y87402D02*
D03*
X61299D02*
D03*
X64685Y81102D02*
D03*
X61299D02*
D03*
X17441Y84252D02*
D03*
X14055D02*
D03*
X29252Y137795D02*
D03*
X25866D02*
D03*
D23*
X16970Y157087D02*
D03*
X61655D02*
D03*
X5925Y16142D02*
D03*
X30925D02*
D03*
X47815D02*
D03*
X72815D02*
D03*
D24*
X27009Y145669D02*
D03*
X36852D02*
D03*
X31931D02*
D03*
X41773D02*
D03*
X51616D02*
D03*
X46694D02*
D03*
X15965Y27559D02*
D03*
X20886D02*
D03*
X57854D02*
D03*
X62776D02*
D03*
D40*
X70866Y160433D02*
D03*
X73622Y157480D02*
D03*
X74803Y153149D02*
D03*
Y27165D02*
D03*
Y31102D02*
D03*
Y35039D02*
D03*
Y38976D02*
D03*
Y42913D02*
D03*
Y46850D02*
D03*
Y50787D02*
D03*
Y54724D02*
D03*
Y58661D02*
D03*
Y62598D02*
D03*
Y90157D02*
D03*
Y86220D02*
D03*
Y82283D02*
D03*
Y78346D02*
D03*
Y74409D02*
D03*
Y70472D02*
D03*
Y66535D02*
D03*
Y117716D02*
D03*
Y113779D02*
D03*
Y109842D02*
D03*
Y105905D02*
D03*
Y101968D02*
D03*
Y98031D02*
D03*
Y94094D02*
D03*
Y145275D02*
D03*
Y141338D02*
D03*
Y137401D02*
D03*
Y133464D02*
D03*
Y129527D02*
D03*
Y125590D02*
D03*
Y121653D02*
D03*
Y149212D02*
D03*
X7874Y160433D02*
D03*
X4921Y157480D02*
D03*
X3937Y153542D02*
D03*
Y149605D02*
D03*
Y122046D02*
D03*
Y125983D02*
D03*
Y129920D02*
D03*
Y133857D02*
D03*
Y137794D02*
D03*
Y141731D02*
D03*
Y145668D02*
D03*
Y94487D02*
D03*
Y98424D02*
D03*
Y102361D02*
D03*
Y106298D02*
D03*
Y110235D02*
D03*
Y114172D02*
D03*
Y118109D02*
D03*
Y66928D02*
D03*
Y70865D02*
D03*
Y74802D02*
D03*
Y78739D02*
D03*
Y82676D02*
D03*
Y86613D02*
D03*
Y90550D02*
D03*
Y62991D02*
D03*
Y59054D02*
D03*
Y55117D02*
D03*
Y51180D02*
D03*
Y47243D02*
D03*
Y43306D02*
D03*
Y39369D02*
D03*
Y35432D02*
D03*
Y31495D02*
D03*
Y27558D02*
D03*
M02*
