G04*
G04 #@! TF.GenerationSoftware,Altium Limited,Altium Designer,23.3.1 (30)*
G04*
G04 Layer_Color=8388736*
%FSLAX25Y25*%
%MOIN*%
G70*
G04*
G04 #@! TF.SameCoordinates,B8D109ED-CDE9-4BA8-ABFF-944DEA042C50*
G04*
G04*
G04 #@! TF.FilePolarity,Positive*
G04*
G01*
G75*
%ADD52C,0.00039*%
%ADD53C,0.00079*%
D52*
X34470Y50544D02*
X44270D01*
X34470Y43944D02*
Y50544D01*
Y43944D02*
X44270D01*
Y50544D01*
X17323Y67913D02*
X22047D01*
X17323Y62008D02*
Y67913D01*
Y62008D02*
X22047D01*
Y67913D01*
X29528Y90551D02*
Y114173D01*
X49213Y90551D02*
Y114173D01*
X29528D02*
X49213D01*
X29528Y90551D02*
X49213D01*
X55118Y122047D02*
Y137795D01*
X23622D02*
X55118D01*
X23622Y122047D02*
X55118D01*
X23622D02*
Y137795D01*
X55610Y136024D02*
X58563D01*
Y130118D02*
Y136024D01*
X55610Y130118D02*
Y136024D01*
Y130118D02*
X58563D01*
X11811Y141732D02*
Y165354D01*
X66929Y141732D02*
Y165354D01*
X11811Y141732D02*
X66929D01*
X11811Y165354D02*
X66929D01*
X40630Y7874D02*
X80000D01*
X40630Y31496D02*
X80000D01*
X40630Y7874D02*
Y31496D01*
X80000Y7874D02*
Y31496D01*
X-1260Y7874D02*
X38110D01*
X-1260Y31496D02*
X38110D01*
X-1260Y7874D02*
Y31496D01*
X38110Y7874D02*
Y31496D01*
X56693Y67913D02*
X61417D01*
X56693Y62008D02*
Y67913D01*
Y62008D02*
X61417D01*
Y67913D01*
X37008D02*
X41732D01*
X37008Y62008D02*
Y67913D01*
Y62008D02*
X41732D01*
Y67913D01*
X19410Y32480D02*
X22362D01*
X19410D02*
Y38386D01*
X22362Y32480D02*
Y38386D01*
X19410D02*
X22362D01*
X61299Y32480D02*
X64252D01*
X61299D02*
Y38386D01*
X64252Y32480D02*
Y38386D01*
X61299D02*
X64252D01*
X62008Y57579D02*
Y60532D01*
X56102Y57579D02*
X62008D01*
X56102Y60532D02*
X62008D01*
X56102Y57579D02*
Y60532D01*
X42323Y57579D02*
Y60532D01*
X36417Y57579D02*
X42323D01*
X36417Y60532D02*
X42323D01*
X36417Y57579D02*
Y60532D01*
X22638Y57579D02*
Y60532D01*
X16732Y57579D02*
X22638D01*
X16732Y60532D02*
X22638D01*
X16732Y57579D02*
Y60532D01*
X56102Y77264D02*
Y80216D01*
X62008D01*
X56102Y77264D02*
X62008D01*
Y80216D01*
X36417Y77264D02*
Y80216D01*
X42323D01*
X36417Y77264D02*
X42323D01*
Y80216D01*
X16732Y77264D02*
Y80216D01*
X22638D01*
X16732Y77264D02*
X22638D01*
Y80216D01*
X62008Y69390D02*
Y72342D01*
X56102Y69390D02*
X62008D01*
X56102Y72342D02*
X62008D01*
X56102Y69390D02*
Y72342D01*
X42323Y69390D02*
Y72342D01*
X36417Y69390D02*
X42323D01*
X36417Y72342D02*
X42323D01*
X36417Y69390D02*
Y72342D01*
X22638Y69390D02*
Y72342D01*
X16732Y69390D02*
X22638D01*
X16732Y72342D02*
X22638D01*
X16732Y69390D02*
Y72342D01*
X20177Y130118D02*
X23130D01*
X20177D02*
Y136024D01*
X23130Y130118D02*
Y136024D01*
X20177D02*
X23130D01*
X33305Y138287D02*
Y141240D01*
X27400Y138287D02*
X33305D01*
X27400Y141240D02*
X33305D01*
X27400Y138287D02*
Y141240D01*
D53*
X14488Y38386D02*
X17441D01*
X14488Y32480D02*
X17441D01*
X14488D02*
Y38386D01*
X17441Y32480D02*
Y38386D01*
X56378D02*
X59331D01*
X56378Y32480D02*
X59331D01*
X56378D02*
Y38386D01*
X59331Y32480D02*
Y38386D01*
X62008Y73327D02*
Y76279D01*
X56102Y73327D02*
Y76279D01*
X62008D01*
X56102Y73327D02*
X62008D01*
X42323D02*
Y76279D01*
X36417Y73327D02*
Y76279D01*
X42323D01*
X36417Y73327D02*
X42323D01*
X22638D02*
Y76279D01*
X16732Y73327D02*
Y76279D01*
X22638D01*
X16732Y73327D02*
X22638D01*
X45394Y122047D02*
X48346D01*
X45394Y116142D02*
X48346D01*
X45394D02*
Y122047D01*
X48346Y116142D02*
Y122047D01*
M02*
