G04*
G04 #@! TF.GenerationSoftware,Altium Limited,Altium Designer,23.3.1 (30)*
G04*
G04 Layer_Physical_Order=1*
G04 Layer_Color=255*
%FSLAX25Y25*%
%MOIN*%
G70*
G04*
G04 #@! TF.SameCoordinates,B8D109ED-CDE9-4BA8-ABFF-944DEA042C50*
G04*
G04*
G04 #@! TF.FilePolarity,Positive*
G04*
G01*
G75*
%ADD14C,0.00787*%
%ADD15R,0.04724X0.01968*%
%ADD16R,0.01968X0.04724*%
%ADD17R,0.06890X0.03937*%
%ADD18R,0.22441X0.21654*%
%ADD19R,0.02362X0.03150*%
%ADD20R,0.02756X0.03937*%
%ADD21R,0.02047X0.01850*%
%ADD22R,0.01850X0.02047*%
%ADD23R,0.07874X0.11811*%
%ADD24R,0.02953X0.05906*%
%ADD38C,0.01181*%
%ADD39C,0.01968*%
%ADD40C,0.02953*%
%ADD41C,0.01968*%
G36*
X66929Y164351D02*
X67637D01*
X69042Y164166D01*
X70411Y163799D01*
X71719Y163257D01*
X72946Y162549D01*
X74070Y161686D01*
X75072Y160684D01*
X75935Y159561D01*
X76643Y158334D01*
X77185Y157025D01*
X77552Y155656D01*
X77737Y154252D01*
X77737Y153543D01*
Y1003D01*
X1003D01*
X1003Y153543D01*
Y154252D01*
X1188Y155656D01*
X1555Y157025D01*
X2097Y158334D01*
X2806Y159561D01*
X3668Y160685D01*
X4670Y161686D01*
X5794Y162549D01*
X7021Y163257D01*
X8330Y163799D01*
X9698Y164166D01*
X11103Y164351D01*
X11811D01*
X66929Y164351D01*
D02*
G37*
%LPC*%
G36*
X21301Y163386D02*
X17364D01*
Y157480D01*
X21301D01*
Y163386D01*
D02*
G37*
G36*
X65986D02*
X62049D01*
Y157480D01*
X65986D01*
Y163386D01*
D02*
G37*
G36*
X16576D02*
X12639D01*
Y157480D01*
X16576D01*
Y163386D01*
D02*
G37*
G36*
X61261D02*
X57324D01*
Y157480D01*
X61261D01*
Y163386D01*
D02*
G37*
G36*
X65986Y156693D02*
X62049D01*
Y150787D01*
X65986D01*
Y156693D01*
D02*
G37*
G36*
X61261D02*
X57324D01*
Y150787D01*
X61261D01*
Y156693D01*
D02*
G37*
G36*
X21301D02*
X17364D01*
Y150787D01*
X21301D01*
Y156693D01*
D02*
G37*
G36*
X16576D02*
X12639D01*
Y150787D01*
X16576D01*
Y156693D01*
D02*
G37*
G36*
X27124Y151799D02*
X26587Y151692D01*
X26131Y151387D01*
X25826Y150931D01*
X25719Y150394D01*
X25826Y149856D01*
X26054Y149516D01*
X25911Y149118D01*
X25832Y149016D01*
X25139D01*
Y146063D01*
X27009D01*
X28879D01*
Y149016D01*
X28416D01*
X28337Y149118D01*
X28195Y149516D01*
X28422Y149856D01*
X28529Y150394D01*
X28422Y150931D01*
X28118Y151387D01*
X27662Y151692D01*
X27124Y151799D01*
D02*
G37*
G36*
X53486Y149016D02*
X49746D01*
Y142323D01*
X53486D01*
Y144432D01*
X53492Y144443D01*
X53499Y144505D01*
X53499Y144507D01*
X53501Y144510D01*
X53516Y144524D01*
X53558Y144549D01*
X53633Y144579D01*
X53742Y144608D01*
X53885Y144632D01*
X54058Y144647D01*
X54272Y144653D01*
X54302Y144666D01*
X55124D01*
X55155Y144653D01*
X55259Y144652D01*
X55432Y144645D01*
X55559Y144632D01*
X55593Y144626D01*
X55613Y144621D01*
X55621Y144617D01*
X55626Y144617D01*
X55638Y144613D01*
X55999Y144371D01*
X56537Y144264D01*
X57075Y144371D01*
X57530Y144676D01*
X57835Y145132D01*
X57942Y145669D01*
X57835Y146207D01*
X57530Y146663D01*
X57075Y146967D01*
X56537Y147074D01*
X55999Y146967D01*
X55638Y146726D01*
X55625Y146722D01*
X55621Y146721D01*
X55613Y146718D01*
X55593Y146713D01*
X55566Y146708D01*
X55253Y146687D01*
X55155Y146686D01*
X55124Y146673D01*
X54302D01*
X54272Y146686D01*
X54058Y146691D01*
X53885Y146706D01*
X53743Y146730D01*
X53633Y146759D01*
X53558Y146790D01*
X53516Y146815D01*
X53501Y146829D01*
X53499Y146831D01*
X53499Y146834D01*
X53492Y146895D01*
X53486Y146906D01*
Y149016D01*
D02*
G37*
G36*
X46694Y151799D02*
X46157Y151692D01*
X45701Y151387D01*
X45397Y150931D01*
X45289Y150394D01*
X45397Y149856D01*
X45624Y149516D01*
X45522Y149197D01*
X45375Y149023D01*
X45373Y149022D01*
X45369Y149019D01*
X45365Y149017D01*
X45362Y149016D01*
X44824D01*
Y142323D01*
X48565D01*
Y149016D01*
X48028D01*
X48024Y149017D01*
X48020Y149019D01*
X48016Y149022D01*
X48013Y149023D01*
X47866Y149197D01*
X47765Y149516D01*
X47993Y149856D01*
X48099Y150394D01*
X47993Y150931D01*
X47688Y151387D01*
X47232Y151692D01*
X46694Y151799D01*
D02*
G37*
G36*
X41773D02*
X41236Y151692D01*
X40780Y151387D01*
X40475Y150931D01*
X40368Y150394D01*
X40475Y149856D01*
X40703Y149516D01*
X40601Y149197D01*
X40454Y149023D01*
X40452Y149022D01*
X40448Y149019D01*
X40444Y149017D01*
X40440Y149016D01*
X39903D01*
Y142323D01*
X43643D01*
Y149016D01*
X43106D01*
X43103Y149017D01*
X43099Y149019D01*
X43095Y149022D01*
X43092Y149023D01*
X42945Y149197D01*
X42844Y149516D01*
X43071Y149856D01*
X43178Y150394D01*
X43071Y150931D01*
X42767Y151387D01*
X42311Y151692D01*
X41773Y151799D01*
D02*
G37*
G36*
X36852D02*
X36314Y151692D01*
X35859Y151387D01*
X35554Y150931D01*
X35447Y150394D01*
X35554Y149856D01*
X35781Y149516D01*
X35680Y149197D01*
X35533Y149023D01*
X35530Y149022D01*
X35527Y149019D01*
X35522Y149017D01*
X35519Y149016D01*
X34982D01*
Y142323D01*
X38722D01*
Y149016D01*
X38185D01*
X38182Y149017D01*
X38177Y149019D01*
X38174Y149022D01*
X38171Y149023D01*
X38024Y149197D01*
X37923Y149516D01*
X38150Y149856D01*
X38257Y150394D01*
X38150Y150931D01*
X37845Y151387D01*
X37390Y151692D01*
X36852Y151799D01*
D02*
G37*
G36*
X31931D02*
X31393Y151692D01*
X30937Y151387D01*
X30633Y150931D01*
X30526Y150394D01*
X30633Y149856D01*
X30860Y149516D01*
X30759Y149197D01*
X30612Y149023D01*
X30609Y149022D01*
X30605Y149019D01*
X30601Y149017D01*
X30598Y149016D01*
X30061D01*
Y142323D01*
X33801D01*
Y149016D01*
X33264D01*
X33260Y149017D01*
X33256Y149019D01*
X33252Y149022D01*
X33250Y149023D01*
X33103Y149197D01*
X33001Y149516D01*
X33229Y149856D01*
X33336Y150394D01*
X33229Y150931D01*
X32924Y151387D01*
X32468Y151692D01*
X31931Y151799D01*
D02*
G37*
G36*
X28879Y145276D02*
X27403D01*
Y142323D01*
X28879D01*
Y145276D01*
D02*
G37*
G36*
X26616D02*
X25139D01*
Y142323D01*
X26616D01*
Y145276D01*
D02*
G37*
G36*
X22035Y140178D02*
X22026Y140174D01*
X21990Y140175D01*
X21957Y140157D01*
X18898D01*
Y135958D01*
X18892Y135950D01*
X18898Y135907D01*
X18898Y135888D01*
X18877Y135839D01*
X18898Y135433D01*
X19125D01*
Y135433D01*
X19125D01*
X19207Y134976D01*
X19243Y134410D01*
X19223Y134171D01*
X19180Y133911D01*
X19123Y133699D01*
X19057Y133537D01*
X18989Y133425D01*
X18924Y133354D01*
X18862Y133313D01*
X18793Y133288D01*
X18656Y133274D01*
X18645Y133268D01*
X12008D01*
Y110827D01*
X35236D01*
Y130241D01*
X35254Y130274D01*
X35261Y130337D01*
X35262Y130339D01*
X35263Y130342D01*
X35278Y130356D01*
X35319Y130380D01*
X35392Y130410D01*
X35500Y130439D01*
X35640Y130463D01*
X35812Y130478D01*
X36023Y130483D01*
X36052Y130497D01*
X36509D01*
X36540Y130483D01*
X36644Y130482D01*
X36817Y130475D01*
X36944Y130462D01*
X36978Y130456D01*
X36997Y130452D01*
X37005Y130448D01*
X37010Y130448D01*
X37023Y130443D01*
X37384Y130202D01*
X37921Y130095D01*
X38459Y130202D01*
X38915Y130507D01*
X39219Y130962D01*
X39326Y131500D01*
X39219Y132038D01*
X38915Y132493D01*
X38459Y132798D01*
X37921Y132905D01*
X37384Y132798D01*
X37023Y132557D01*
X37010Y132552D01*
X37005Y132552D01*
X36997Y132548D01*
X36978Y132544D01*
X36950Y132539D01*
X36638Y132518D01*
X36540Y132517D01*
X36509Y132503D01*
X36052D01*
X36023Y132517D01*
X35812Y132522D01*
X35640Y132537D01*
X35500Y132561D01*
X35392Y132590D01*
X35319Y132620D01*
X35278Y132644D01*
X35263Y132658D01*
X35262Y132661D01*
X35261Y132663D01*
X35254Y132726D01*
X35236Y132759D01*
Y133268D01*
X22694D01*
X22683Y133274D01*
X22546Y133288D01*
X22476Y133313D01*
X22415Y133354D01*
X22350Y133425D01*
X22282Y133537D01*
X22216Y133699D01*
X22159Y133911D01*
X22116Y134171D01*
X22093Y134432D01*
X22113Y134842D01*
X22137Y135075D01*
X22167Y135264D01*
X22200Y135402D01*
X22211Y135433D01*
X22441D01*
Y135760D01*
X22459Y135794D01*
X22473Y135928D01*
X22497Y135995D01*
X22537Y136055D01*
X22607Y136118D01*
X22719Y136186D01*
X22879Y136250D01*
X23089Y136306D01*
X23348Y136349D01*
X23654Y136376D01*
X23854Y136381D01*
X24454Y136378D01*
X24852Y136368D01*
X24900Y136364D01*
X24921Y136371D01*
X24953Y136357D01*
X25002Y136378D01*
X27185D01*
Y137363D01*
X27271Y137795D01*
X27185Y138228D01*
Y139213D01*
X25002D01*
X24953Y139233D01*
X24950Y139232D01*
X24947Y139233D01*
X23653Y139215D01*
X23348Y139242D01*
X23089Y139284D01*
X22879Y139340D01*
X22719Y139405D01*
X22607Y139472D01*
X22607Y139472D01*
X22441Y139930D01*
Y140157D01*
X22035Y140178D01*
D02*
G37*
G36*
X30571Y139213D02*
X29646D01*
Y138189D01*
X30571D01*
Y139213D01*
D02*
G37*
G36*
X16535Y140157D02*
X15157D01*
Y138189D01*
X16535D01*
Y140157D01*
D02*
G37*
G36*
X14370D02*
X12992D01*
Y138189D01*
X14370D01*
Y140157D01*
D02*
G37*
G36*
X28858Y139213D02*
X27933D01*
Y138189D01*
X28858D01*
Y139213D01*
D02*
G37*
G36*
X30571Y137402D02*
X29646D01*
Y136378D01*
X30571D01*
Y137402D01*
D02*
G37*
G36*
X28858D02*
X27933D01*
Y136378D01*
X28858D01*
Y137402D01*
D02*
G37*
G36*
X58858Y136870D02*
X57835D01*
Y135945D01*
X58858D01*
Y136870D01*
D02*
G37*
G36*
X62002Y136890D02*
X61575Y136870D01*
X61556Y136503D01*
X61559Y136494D01*
X61555Y136486D01*
X61548Y136340D01*
X61529Y136214D01*
X61497Y136086D01*
X61451Y135955D01*
X61390Y135821D01*
X61339Y135729D01*
X61169Y135669D01*
X60669Y136024D01*
Y136870D01*
X59646D01*
Y135551D01*
X59252D01*
Y135158D01*
X57835D01*
Y134232D01*
X59136D01*
X59334Y133769D01*
X59042Y133484D01*
X58614D01*
X58593Y133493D01*
X58573Y133484D01*
X58538D01*
X58526Y133487D01*
X58521Y133484D01*
X58340D01*
X58321Y133497D01*
X58277Y133490D01*
X58240Y133505D01*
X57835Y133484D01*
Y133257D01*
X57835D01*
Y133257D01*
X57377Y133193D01*
X57266Y133185D01*
X57053Y133182D01*
X57023Y133169D01*
X54512D01*
X54481Y133182D01*
X54265Y133184D01*
X53908Y133203D01*
X53780Y133217D01*
X53701Y133230D01*
X53701Y133405D01*
X53295Y133426D01*
X53246Y133405D01*
X53240Y133405D01*
X53190Y133413D01*
X53180Y133405D01*
X46024D01*
Y128681D01*
X53701D01*
Y130906D01*
X53719Y130940D01*
X53725Y131002D01*
X53726Y131005D01*
X53728Y131007D01*
X53743Y131021D01*
X53783Y131046D01*
X53857Y131076D01*
X53965Y131105D01*
X54105Y131128D01*
X54276Y131143D01*
X54487Y131149D01*
X54517Y131162D01*
X57017D01*
X57046Y131149D01*
X57459Y131136D01*
X57611Y131123D01*
X57738Y131104D01*
X57831Y131083D01*
X57835Y131082D01*
Y130847D01*
X58139D01*
X58155Y130812D01*
X58179Y130727D01*
X58201Y130614D01*
X58231Y130273D01*
X58235Y130063D01*
X58248Y130033D01*
Y129949D01*
X58235Y129920D01*
X58230Y129709D01*
X58215Y129537D01*
X58208Y129494D01*
X57904Y129134D01*
X57677D01*
X57657Y128728D01*
X57661Y128719D01*
X57659Y128683D01*
X57677Y128650D01*
Y125197D01*
X60827D01*
Y128634D01*
X60827Y128650D01*
X60845Y128683D01*
X60843Y128719D01*
X60847Y128728D01*
X60827Y129134D01*
X60600Y129134D01*
X60296Y129494D01*
X60289Y129537D01*
X60274Y129709D01*
X60268Y129920D01*
X60255Y129949D01*
Y130033D01*
X60269Y130063D01*
X60273Y130278D01*
X60280Y130399D01*
X60442Y130847D01*
X60442D01*
X60442Y130847D01*
X60669Y130847D01*
X60690Y131252D01*
X60684Y131267D01*
X60685Y131314D01*
X60671Y131338D01*
X60672Y131341D01*
X60669Y131353D01*
Y131388D01*
X60678Y131408D01*
X60669Y131429D01*
Y131892D01*
X60719Y131978D01*
X60831Y132139D01*
X61075Y132425D01*
X61511Y132289D01*
X61575Y132238D01*
Y131346D01*
X61575Y131341D01*
X61559Y131314D01*
X61560Y131267D01*
X61554Y131252D01*
X61575Y130847D01*
X61802D01*
X61802Y130847D01*
X61802D01*
X61960Y130398D01*
X61972Y130273D01*
X61976Y130063D01*
X61989Y130033D01*
Y129949D01*
X61976Y129920D01*
X61970Y129709D01*
X61955Y129537D01*
X61948Y129494D01*
X61645Y129134D01*
X61417D01*
X61397Y128728D01*
X61401Y128719D01*
X61399Y128683D01*
X61417Y128650D01*
Y125197D01*
X64567D01*
Y128634D01*
X64567Y128650D01*
X64585Y128683D01*
X64583Y128719D01*
X64587Y128728D01*
X64567Y129134D01*
X64340Y129134D01*
X64036Y129494D01*
X64029Y129537D01*
X64014Y129709D01*
X64009Y129920D01*
X63996Y129949D01*
Y130033D01*
X64009Y130063D01*
X64013Y130278D01*
X64020Y130399D01*
X64182Y130847D01*
X64182D01*
X64182Y130847D01*
X64410Y130847D01*
X64430Y131252D01*
X64424Y131267D01*
X64425Y131314D01*
X64410Y131341D01*
Y133484D01*
X62948D01*
X62743Y133944D01*
X63043Y134232D01*
X63442D01*
X63455Y134226D01*
X63476Y134232D01*
X63503D01*
X63525Y134225D01*
X63540Y134232D01*
X64410D01*
Y136870D01*
X62055D01*
X62019Y136889D01*
X62006Y136888D01*
X62002Y136890D01*
D02*
G37*
G36*
X16535Y137402D02*
X15157D01*
Y135433D01*
X16535D01*
Y137402D01*
D02*
G37*
G36*
X14370D02*
X12992D01*
Y135433D01*
X14370D01*
Y137402D01*
D02*
G37*
G36*
X68307Y129134D02*
X65158D01*
Y125197D01*
X68307D01*
Y129134D01*
D02*
G37*
G36*
X64567Y118898D02*
X63386D01*
Y117323D01*
X64567D01*
Y118898D01*
D02*
G37*
G36*
X62598D02*
X61417D01*
Y117323D01*
X62598D01*
Y118898D01*
D02*
G37*
G36*
X49114Y118807D02*
X48577Y118700D01*
X48121Y118395D01*
X47816Y117939D01*
X47709Y117402D01*
X47816Y116864D01*
X48121Y116408D01*
X48577Y116104D01*
X49114Y115997D01*
X49652Y116104D01*
X50108Y116408D01*
X50412Y116864D01*
X50519Y117402D01*
X50412Y117939D01*
X50108Y118395D01*
X49652Y118700D01*
X49114Y118807D01*
D02*
G37*
G36*
X64567Y116535D02*
X63386D01*
Y114961D01*
X64567D01*
Y116535D01*
D02*
G37*
G36*
X62598D02*
X61417D01*
Y114961D01*
X62598D01*
Y116535D01*
D02*
G37*
G36*
X53701Y115413D02*
X50256D01*
Y113445D01*
X53701D01*
Y115413D01*
D02*
G37*
G36*
X49468D02*
X46024D01*
Y113445D01*
X49468D01*
Y115413D01*
D02*
G37*
G36*
X68307Y118898D02*
X65158D01*
Y115461D01*
X65158Y115445D01*
X65140Y115412D01*
X65141Y115376D01*
X65137Y115366D01*
X65158Y114961D01*
X65349Y114540D01*
X65327Y114429D01*
X65434Y113891D01*
X65530Y113748D01*
X65315Y113248D01*
X65315D01*
X65009Y113030D01*
X64864Y112977D01*
X64410Y113199D01*
Y113248D01*
X64004Y113268D01*
X63967Y113253D01*
X63923Y113261D01*
X63904Y113248D01*
X61575D01*
Y110610D01*
X63904D01*
X63923Y110598D01*
X63967Y110605D01*
X64004Y110590D01*
X64410Y110610D01*
Y110719D01*
X64861Y110881D01*
X65315Y110659D01*
Y110610D01*
X65721Y110590D01*
X65757Y110605D01*
X65801Y110598D01*
X65821Y110610D01*
X68150D01*
Y112754D01*
X68165Y112780D01*
X68164Y112827D01*
X68170Y112842D01*
X68150Y113248D01*
X67935Y113748D01*
X68030Y113891D01*
X68137Y114429D01*
X68085Y114690D01*
X68307Y114961D01*
X68327Y115366D01*
X68324Y115376D01*
X68325Y115412D01*
X68307Y115445D01*
Y118898D01*
D02*
G37*
G36*
X53701Y112657D02*
X50256D01*
Y110689D01*
X53701D01*
Y112657D01*
D02*
G37*
G36*
X49468D02*
X46024D01*
Y110689D01*
X49468D01*
Y112657D01*
D02*
G37*
G36*
X60827Y118898D02*
X57677D01*
Y115461D01*
X57677Y115445D01*
X57659Y115412D01*
X57661Y115376D01*
X57657Y115366D01*
X57677Y114961D01*
X57869Y114540D01*
X57847Y114429D01*
X57954Y113891D01*
X58050Y113748D01*
X57835Y113248D01*
X57814Y112842D01*
X57820Y112827D01*
X57819Y112780D01*
X57835Y112754D01*
Y110610D01*
X60669D01*
Y112754D01*
X60685Y112780D01*
X60684Y112827D01*
X60690Y112842D01*
X60669Y113248D01*
X60454Y113748D01*
X60550Y113891D01*
X60657Y114429D01*
X60605Y114690D01*
X60827Y114961D01*
X60847Y115366D01*
X60843Y115376D01*
X60845Y115412D01*
X60827Y115445D01*
Y118898D01*
D02*
G37*
G36*
X64410Y109862D02*
X63386D01*
Y108937D01*
X64410D01*
Y109862D01*
D02*
G37*
G36*
X62598D02*
X61575D01*
Y108937D01*
X62598D01*
Y109862D01*
D02*
G37*
G36*
X68150D02*
X67126D01*
Y108937D01*
X68150D01*
Y109862D01*
D02*
G37*
G36*
X60669D02*
X59646D01*
Y108937D01*
X60669D01*
Y109862D01*
D02*
G37*
G36*
X66339D02*
X65315D01*
Y108937D01*
X66339D01*
Y109862D01*
D02*
G37*
G36*
X58858D02*
X57835D01*
Y108937D01*
X58858D01*
Y109862D01*
D02*
G37*
G36*
X68150Y108150D02*
X67126D01*
Y107224D01*
X68150D01*
Y108150D01*
D02*
G37*
G36*
X66339D02*
X65315D01*
Y107224D01*
X66339D01*
Y108150D01*
D02*
G37*
G36*
X64410Y108150D02*
X63386D01*
Y107224D01*
X64410D01*
Y108150D01*
D02*
G37*
G36*
X62598D02*
X61575D01*
Y107224D01*
X62598D01*
Y108150D01*
D02*
G37*
G36*
X60669Y108150D02*
X59646D01*
Y107224D01*
X60669D01*
Y108150D01*
D02*
G37*
G36*
X58858D02*
X57835D01*
Y107224D01*
X58858D01*
Y108150D01*
D02*
G37*
G36*
X40945Y105736D02*
X40407Y105629D01*
X39951Y105324D01*
X39647Y104868D01*
X39625Y104758D01*
X39115D01*
X39093Y104868D01*
X38789Y105324D01*
X38333Y105629D01*
X37795Y105736D01*
X37258Y105629D01*
X36802Y105324D01*
X36497Y104868D01*
X36475Y104758D01*
X35966D01*
X35944Y104868D01*
X35639Y105324D01*
X35183Y105629D01*
X34646Y105736D01*
X34108Y105629D01*
X33652Y105324D01*
X33348Y104868D01*
X33326Y104758D01*
X32816D01*
X32794Y104868D01*
X32489Y105324D01*
X32034Y105629D01*
X31496Y105736D01*
X30958Y105629D01*
X30503Y105324D01*
X30198Y104868D01*
X30176Y104758D01*
X29666D01*
X29645Y104868D01*
X29340Y105324D01*
X28884Y105629D01*
X28346Y105736D01*
X27809Y105629D01*
X27353Y105324D01*
X27049Y104868D01*
X26941Y104331D01*
X27049Y103793D01*
X27290Y103432D01*
X27294Y103419D01*
X27294Y103414D01*
X27298Y103407D01*
X27303Y103387D01*
X27308Y103360D01*
X27329Y103047D01*
X27330Y102949D01*
X27318Y102618D01*
X27196Y102165D01*
X27196D01*
X27196Y102165D01*
X26969Y102165D01*
X26948Y101760D01*
X26957Y101737D01*
X26954Y101691D01*
X26969Y101667D01*
X26969Y101665D01*
Y96653D01*
X29618D01*
X29724Y96653D01*
X30118D01*
X30224Y96653D01*
X32768D01*
X32874Y96653D01*
X33268D01*
X33374Y96653D01*
X35917D01*
X36024Y96653D01*
X36417D01*
X36524Y96653D01*
X39067D01*
X39173Y96653D01*
X39567D01*
X39673Y96653D01*
X42217D01*
X42323Y96653D01*
X42717D01*
X42823Y96653D01*
X45366D01*
X45472Y96653D01*
X45866D01*
X45972Y96653D01*
X48516D01*
X48622Y96653D01*
X49016D01*
X49122Y96653D01*
X51772D01*
Y102165D01*
X49122D01*
X49016Y102165D01*
X48622D01*
X48516Y102165D01*
X45972D01*
X45866Y102165D01*
X45472D01*
X45366Y102165D01*
X42823D01*
X42717Y102165D01*
X42096D01*
X41975Y102618D01*
X41965Y102737D01*
X41962Y102948D01*
X41961Y102948D01*
X41962Y102949D01*
X41963Y103053D01*
X41969Y103226D01*
X41982Y103353D01*
X41988Y103387D01*
X41993Y103407D01*
X41997Y103414D01*
X41997Y103419D01*
X42002Y103432D01*
X42243Y103793D01*
X42350Y104331D01*
X42243Y104868D01*
X41938Y105324D01*
X41482Y105629D01*
X40945Y105736D01*
D02*
G37*
G36*
X66004Y88819D02*
X65079D01*
Y87795D01*
X66004D01*
Y88819D01*
D02*
G37*
G36*
X64291D02*
X63366D01*
Y87795D01*
X64291D01*
Y88819D01*
D02*
G37*
G36*
X46870Y89003D02*
X46332Y88896D01*
X45877Y88592D01*
X45572Y88136D01*
X45465Y87598D01*
X45572Y87061D01*
X45877Y86605D01*
X46332Y86300D01*
X46870Y86194D01*
X47408Y86300D01*
X47864Y86605D01*
X48168Y87061D01*
X48275Y87598D01*
X48168Y88136D01*
X47864Y88592D01*
X47408Y88896D01*
X46870Y89003D01*
D02*
G37*
G36*
X41870D02*
X41332Y88896D01*
X40877Y88592D01*
X40572Y88136D01*
X40465Y87598D01*
X40572Y87061D01*
X40877Y86605D01*
X41332Y86300D01*
X41870Y86194D01*
X42408Y86300D01*
X42864Y86605D01*
X43168Y87061D01*
X43275Y87598D01*
X43168Y88136D01*
X42864Y88592D01*
X42408Y88896D01*
X41870Y89003D01*
D02*
G37*
G36*
X36870D02*
X36332Y88896D01*
X35877Y88592D01*
X35572Y88136D01*
X35465Y87598D01*
X35572Y87061D01*
X35877Y86605D01*
X36332Y86300D01*
X36870Y86194D01*
X37408Y86300D01*
X37863Y86605D01*
X38168Y87061D01*
X38275Y87598D01*
X38168Y88136D01*
X37863Y88592D01*
X37408Y88896D01*
X36870Y89003D01*
D02*
G37*
G36*
X31870D02*
X31332Y88896D01*
X30877Y88592D01*
X30572Y88136D01*
X30465Y87598D01*
X30572Y87061D01*
X30877Y86605D01*
X31332Y86300D01*
X31870Y86194D01*
X32408Y86300D01*
X32864Y86605D01*
X33168Y87061D01*
X33275Y87598D01*
X33168Y88136D01*
X32864Y88592D01*
X32408Y88896D01*
X31870Y89003D01*
D02*
G37*
G36*
X66004Y87008D02*
X65079D01*
Y85984D01*
X66004D01*
Y87008D01*
D02*
G37*
G36*
X64291D02*
X63366D01*
Y85984D01*
X64291D01*
Y87008D01*
D02*
G37*
G36*
X58858Y95079D02*
X53347D01*
Y92429D01*
X53347Y92323D01*
Y91929D01*
X53347Y91823D01*
Y89280D01*
X53347Y89173D01*
Y88779D01*
X53347Y88673D01*
Y86130D01*
X53347Y86024D01*
Y85630D01*
X53347Y85524D01*
Y84646D01*
X56102D01*
Y83858D01*
X53347D01*
Y82980D01*
X53347Y82874D01*
Y82480D01*
X53347Y82374D01*
Y79831D01*
X53347Y79724D01*
Y79331D01*
X53347Y79224D01*
Y78347D01*
X56102D01*
X58858D01*
Y79224D01*
X58858Y79331D01*
Y79952D01*
X59311Y80072D01*
X59419Y80081D01*
X59532Y80074D01*
X59980Y79912D01*
Y79912D01*
X59980Y79912D01*
X59980Y79685D01*
X60386Y79665D01*
X60401Y79671D01*
X60448Y79669D01*
X60475Y79685D01*
X62618D01*
Y82014D01*
X62631Y82033D01*
X62624Y82077D01*
X62639Y82114D01*
X62618Y82520D01*
X62391D01*
Y82520D01*
X62391D01*
X62327Y82978D01*
X62322Y83044D01*
X62338Y83281D01*
X62343Y83308D01*
X62347Y83328D01*
X62351Y83336D01*
X62352Y83340D01*
X62356Y83353D01*
X62597Y83714D01*
X62704Y84252D01*
X62597Y84790D01*
X62356Y85151D01*
X62352Y85163D01*
X62351Y85168D01*
X62347Y85176D01*
X62343Y85195D01*
X62338Y85223D01*
X62323Y85441D01*
X62326Y85526D01*
X62391Y85984D01*
X62391D01*
Y85984D01*
X62618D01*
X62639Y86390D01*
X62624Y86426D01*
X62631Y86471D01*
X62618Y86490D01*
Y88819D01*
X60480D01*
X60475Y88819D01*
X60448Y88835D01*
X60401Y88833D01*
X60386Y88839D01*
X59980Y88819D01*
Y88592D01*
X59980Y88592D01*
Y88592D01*
X59532Y88433D01*
X59443Y88425D01*
X59311Y88430D01*
X58858Y88552D01*
Y89173D01*
X58858Y89280D01*
Y91823D01*
X58858Y91929D01*
Y92323D01*
X58858Y92429D01*
Y95079D01*
D02*
G37*
G36*
X17717Y95106D02*
X17179Y94999D01*
X16723Y94694D01*
X16419Y94238D01*
X16312Y93701D01*
X16419Y93163D01*
X16723Y92707D01*
X17179Y92403D01*
X17717Y92296D01*
X18254Y92403D01*
X18615Y92644D01*
X18628Y92648D01*
X18633Y92649D01*
X18641Y92653D01*
X18660Y92657D01*
X18687Y92662D01*
X19000Y92683D01*
X19098Y92684D01*
X19430Y92672D01*
X19882Y92550D01*
Y91929D01*
X19882Y91823D01*
Y89280D01*
X19882Y89173D01*
Y88779D01*
X19882Y88673D01*
Y86108D01*
X19715Y85717D01*
X19340Y85647D01*
X19291Y85657D01*
X18876Y85574D01*
X18760Y85669D01*
X18354Y85690D01*
X18339Y85684D01*
X18292Y85685D01*
X18265Y85669D01*
X16122D01*
Y82835D01*
X18260D01*
X18265Y82835D01*
X18292Y82819D01*
X18339Y82820D01*
X18354Y82814D01*
X18760Y82835D01*
X19251Y82855D01*
X19291Y82847D01*
X19340Y82857D01*
X19715Y82786D01*
X19882Y82396D01*
Y81496D01*
X22638D01*
X25394D01*
Y82374D01*
X25394Y82480D01*
Y82874D01*
X25394Y82980D01*
Y85524D01*
X25394Y85630D01*
Y86024D01*
X25394Y86130D01*
Y88673D01*
X25394Y88779D01*
Y89173D01*
X25394Y89280D01*
Y91823D01*
X25394Y91929D01*
Y92323D01*
X25394Y92429D01*
Y95079D01*
X20382D01*
X20380Y95079D01*
X20356Y95094D01*
X20310Y95090D01*
X20288Y95099D01*
X19882Y95079D01*
Y94852D01*
X19882Y94852D01*
Y94852D01*
X19430Y94731D01*
X19310Y94721D01*
X19099Y94717D01*
X19099Y94717D01*
X19098Y94717D01*
X18994Y94718D01*
X18821Y94725D01*
X18694Y94738D01*
X18660Y94744D01*
X18641Y94749D01*
X18633Y94753D01*
X18628Y94753D01*
X18615Y94757D01*
X18254Y94999D01*
X17717Y95106D01*
D02*
G37*
G36*
X15374Y85669D02*
X14449D01*
Y84646D01*
X15374D01*
Y85669D01*
D02*
G37*
G36*
X13661D02*
X12736D01*
Y84646D01*
X13661D01*
Y85669D01*
D02*
G37*
G36*
X15374Y83858D02*
X14449D01*
Y82835D01*
X15374D01*
Y83858D01*
D02*
G37*
G36*
X13661D02*
X12736D01*
Y82835D01*
X13661D01*
Y83858D01*
D02*
G37*
G36*
X66004Y82520D02*
X65079D01*
Y81496D01*
X66004D01*
Y82520D01*
D02*
G37*
G36*
X64291D02*
X63366D01*
Y81496D01*
X64291D01*
Y82520D01*
D02*
G37*
G36*
X66004Y80709D02*
X65079D01*
Y79685D01*
X66004D01*
Y80709D01*
D02*
G37*
G36*
X64291D02*
X63366D01*
Y79685D01*
X64291D01*
Y80709D01*
D02*
G37*
G36*
X50394Y72547D02*
X49856Y72440D01*
X49400Y72135D01*
X49096Y71679D01*
X49074Y71569D01*
X48564D01*
X48542Y71679D01*
X48237Y72135D01*
X47782Y72440D01*
X47244Y72547D01*
X46706Y72440D01*
X46251Y72135D01*
X45946Y71679D01*
X45924Y71569D01*
X45414D01*
X45393Y71679D01*
X45088Y72135D01*
X44632Y72440D01*
X44094Y72547D01*
X43557Y72440D01*
X43101Y72135D01*
X42796Y71679D01*
X42689Y71142D01*
X42796Y70604D01*
X43038Y70243D01*
X43042Y70230D01*
X43042Y70225D01*
X43046Y70218D01*
X43051Y70198D01*
X43056Y70171D01*
X43077Y69858D01*
X43078Y69760D01*
X43091Y69729D01*
Y69520D01*
X43078Y69491D01*
X43066Y69153D01*
X42944Y68701D01*
X42323D01*
X42217Y68701D01*
X39673D01*
X39567Y68701D01*
X39173D01*
X39067Y68701D01*
X36524D01*
X36417Y68701D01*
X36024D01*
X35917Y68701D01*
X33374D01*
X33268Y68701D01*
X32874D01*
X32768Y68701D01*
X30224D01*
X30118Y68701D01*
X29724D01*
X29618Y68701D01*
X26969D01*
Y63689D01*
X26969Y63687D01*
X26954Y63663D01*
X26957Y63617D01*
X26948Y63595D01*
X26969Y63189D01*
X27196D01*
X27196Y63189D01*
X27196D01*
X27317Y62737D01*
X27326Y62617D01*
X27330Y62406D01*
X27343Y62376D01*
Y62161D01*
X27330Y62130D01*
X27329Y62026D01*
X27322Y61853D01*
X27309Y61726D01*
X27303Y61692D01*
X27298Y61672D01*
X27294Y61664D01*
X27294Y61659D01*
X27290Y61647D01*
X27049Y61286D01*
X26941Y60748D01*
X27049Y60210D01*
X27353Y59755D01*
X27809Y59450D01*
X28346Y59343D01*
X28884Y59450D01*
X29340Y59755D01*
X29645Y60210D01*
X29666Y60321D01*
X30176D01*
X30198Y60210D01*
X30503Y59755D01*
X30958Y59450D01*
X31496Y59343D01*
X32034Y59450D01*
X32489Y59755D01*
X32794Y60210D01*
X32816Y60321D01*
X33326D01*
X33348Y60210D01*
X33652Y59755D01*
X34108Y59450D01*
X34646Y59343D01*
X35183Y59450D01*
X35544Y59691D01*
X35557Y59696D01*
X35562Y59696D01*
X35570Y59700D01*
X35589Y59705D01*
X35616Y59709D01*
X35835Y59724D01*
X35920Y59721D01*
X36378Y59656D01*
Y59656D01*
X36378D01*
Y59429D01*
X36784Y59409D01*
X36820Y59424D01*
X36864Y59416D01*
X36884Y59429D01*
X38707D01*
X38726Y59416D01*
X38770Y59424D01*
X38807Y59409D01*
X39213Y59429D01*
X39528D01*
X39933Y59409D01*
X39970Y59424D01*
X40014Y59416D01*
X40033Y59429D01*
X42177D01*
X42677Y59429D01*
X42862Y59429D01*
X45327D01*
X45827Y59429D01*
X46012Y59429D01*
X48156D01*
X48175Y59416D01*
X48219Y59424D01*
X48256Y59409D01*
X48661Y59429D01*
X48976D01*
X49382Y59409D01*
X49419Y59424D01*
X49463Y59416D01*
X49482Y59429D01*
X51811D01*
Y61567D01*
X51811Y61572D01*
X51827Y61599D01*
X51825Y61646D01*
X51832Y61661D01*
X51811Y62067D01*
X51584D01*
X51584Y62067D01*
X51584D01*
X51425Y62515D01*
X51417Y62604D01*
X51422Y62737D01*
X51544Y63189D01*
X51545D01*
X51545Y63189D01*
X51772Y63189D01*
X51792Y63595D01*
X51783Y63617D01*
X51787Y63663D01*
X51772Y63687D01*
X51772Y63689D01*
Y68201D01*
X51772Y68203D01*
X51787Y68227D01*
X51783Y68273D01*
X51792Y68295D01*
X51772Y68701D01*
X51545D01*
X51545Y68701D01*
X51544D01*
X51424Y69153D01*
X51414Y69273D01*
X51410Y69483D01*
X51397Y69514D01*
Y69729D01*
X51410Y69760D01*
X51411Y69864D01*
X51418Y70037D01*
X51431Y70164D01*
X51437Y70198D01*
X51442Y70218D01*
X51446Y70226D01*
X51446Y70230D01*
X51450Y70243D01*
X51692Y70604D01*
X51799Y71142D01*
X51692Y71679D01*
X51387Y72135D01*
X50931Y72440D01*
X50394Y72547D01*
D02*
G37*
G36*
X58858Y77559D02*
X56102D01*
X53347D01*
Y76681D01*
X53347Y76575D01*
Y76181D01*
X53347Y76075D01*
Y73532D01*
X53347Y73425D01*
Y73032D01*
X53347Y72925D01*
Y70276D01*
X58858D01*
Y72925D01*
X58858Y73032D01*
Y73425D01*
X58858Y73532D01*
Y76075D01*
X58858Y76181D01*
Y76575D01*
X58858Y76681D01*
Y77559D01*
D02*
G37*
G36*
X25394Y80709D02*
X22638D01*
X19882D01*
Y79831D01*
X19882Y79724D01*
Y79331D01*
X19882Y79224D01*
Y76681D01*
X19882Y76575D01*
Y76181D01*
X19882Y76075D01*
Y73532D01*
X19882Y73425D01*
Y73032D01*
X19882Y72925D01*
Y70276D01*
X24894D01*
X24895Y70276D01*
X24919Y70261D01*
X24966Y70264D01*
X24988Y70255D01*
X25394Y70276D01*
Y70503D01*
X25394Y70503D01*
Y70503D01*
X25846Y70624D01*
X25965Y70633D01*
X26176Y70637D01*
X26177Y70637D01*
X26177Y70637D01*
X26281Y70636D01*
X26454Y70629D01*
X26581Y70616D01*
X26616Y70610D01*
X26635Y70605D01*
X26643Y70601D01*
X26648Y70601D01*
X26660Y70597D01*
X27021Y70356D01*
X27559Y70249D01*
X28097Y70356D01*
X28552Y70660D01*
X28857Y71116D01*
X28964Y71653D01*
X28857Y72191D01*
X28552Y72647D01*
X28097Y72952D01*
X27987Y72974D01*
Y73483D01*
X28097Y73505D01*
X28552Y73810D01*
X28857Y74265D01*
X28964Y74803D01*
X28857Y75341D01*
X28552Y75797D01*
X28097Y76101D01*
X27559Y76208D01*
X27021Y76101D01*
X26660Y75860D01*
X26647Y75855D01*
X26643Y75855D01*
X26635Y75851D01*
X26616Y75847D01*
X26588Y75842D01*
X26276Y75821D01*
X26177Y75820D01*
X25846Y75832D01*
X25394Y75954D01*
Y76575D01*
X25394Y76681D01*
Y79224D01*
X25394Y79331D01*
Y79724D01*
X25394Y79831D01*
Y80709D01*
D02*
G37*
G36*
X41956Y58701D02*
X41920Y58686D01*
X41876Y58694D01*
X41857Y58681D01*
X39713D01*
X39213Y58681D01*
X39028Y58681D01*
X38189D01*
Y57362D01*
Y56043D01*
X39028D01*
X39528Y56043D01*
X39713Y56043D01*
X41857D01*
X41876Y56031D01*
X41920Y56038D01*
X41956Y56023D01*
X42362Y56043D01*
X42677D01*
X42774Y55543D01*
X42690Y55118D01*
X42796Y54580D01*
X43101Y54125D01*
X43557Y53820D01*
X44094Y53713D01*
X44632Y53820D01*
X45088Y54125D01*
X45393Y54580D01*
X45500Y55118D01*
X45415Y55543D01*
X45512Y56043D01*
X45827D01*
X46012Y56043D01*
X46850D01*
Y57362D01*
Y58681D01*
X46012D01*
X45512Y58681D01*
X45327Y58681D01*
X43183D01*
X43163Y58694D01*
X43119Y58686D01*
X43083Y58701D01*
X42677Y58681D01*
X42362D01*
X41956Y58701D01*
D02*
G37*
G36*
X48661Y58681D02*
X48476Y58681D01*
X47638D01*
Y57362D01*
Y56043D01*
X48476D01*
X48976Y56043D01*
X49161Y56043D01*
X50000D01*
Y57362D01*
Y58681D01*
X49161D01*
X48661Y58681D01*
D02*
G37*
G36*
X50787Y58681D02*
Y57756D01*
X51811D01*
Y58681D01*
X50787D01*
D02*
G37*
G36*
X37402D02*
X36378D01*
Y57756D01*
X37402D01*
Y58681D01*
D02*
G37*
G36*
X51811Y56968D02*
X50787D01*
Y56043D01*
X51811D01*
Y56968D01*
D02*
G37*
G36*
X37402Y56968D02*
X36378D01*
Y56043D01*
X37402D01*
Y56968D01*
D02*
G37*
G36*
X36220Y44633D02*
X35683Y44526D01*
X35227Y44222D01*
X34922Y43766D01*
X34815Y43228D01*
X34922Y42691D01*
X35227Y42235D01*
X35683Y41930D01*
X36220Y41823D01*
X36758Y41930D01*
X37214Y42235D01*
X37519Y42691D01*
X37625Y43228D01*
X37519Y43766D01*
X37214Y44222D01*
X36758Y44526D01*
X36220Y44633D01*
D02*
G37*
G36*
X59272Y38445D02*
X58248D01*
Y37520D01*
X59272D01*
Y38445D01*
D02*
G37*
G36*
X17382D02*
X16358D01*
Y37520D01*
X17382D01*
Y38445D01*
D02*
G37*
G36*
X57461D02*
X56437D01*
Y37520D01*
X57461D01*
Y38445D01*
D02*
G37*
G36*
X15571D02*
X14547D01*
Y37520D01*
X15571D01*
Y38445D01*
D02*
G37*
G36*
X62776Y40775D02*
X62238Y40668D01*
X61782Y40363D01*
X61478Y39908D01*
X61371Y39370D01*
X61455Y38945D01*
X61358Y38445D01*
X61338Y38039D01*
X61344Y38024D01*
X61342Y37977D01*
X61358Y37950D01*
Y35807D01*
X64193D01*
Y37950D01*
X64209Y37977D01*
X64207Y38024D01*
X64213Y38039D01*
X64193Y38445D01*
X64096Y38945D01*
X64180Y39370D01*
X64074Y39908D01*
X63769Y40363D01*
X63313Y40668D01*
X62776Y40775D01*
D02*
G37*
G36*
X59272Y36732D02*
X58248D01*
Y35807D01*
X59272D01*
Y36732D01*
D02*
G37*
G36*
X57461D02*
X56437D01*
Y35807D01*
X57461D01*
Y36732D01*
D02*
G37*
G36*
X20886Y40775D02*
X20348Y40668D01*
X19892Y40363D01*
X19588Y39908D01*
X19481Y39370D01*
X19566Y38945D01*
X19468Y38445D01*
X19448Y38039D01*
X19454Y38024D01*
X19453Y37977D01*
X19468Y37950D01*
Y35807D01*
X22303D01*
Y37950D01*
X22319Y37977D01*
X22317Y38024D01*
X22324Y38039D01*
X22303Y38445D01*
X22206Y38945D01*
X22291Y39370D01*
X22184Y39908D01*
X21879Y40363D01*
X21423Y40668D01*
X20886Y40775D01*
D02*
G37*
G36*
X17382Y36732D02*
X16358D01*
Y35807D01*
X17382D01*
Y36732D01*
D02*
G37*
G36*
X15571D02*
X14547D01*
Y35807D01*
X15571D01*
Y36732D01*
D02*
G37*
G36*
X61764Y35080D02*
X61358Y35059D01*
Y34832D01*
X61358D01*
Y34832D01*
X60900Y34767D01*
X60790Y34760D01*
X60577Y34757D01*
X60546Y34744D01*
X60089D01*
X60060Y34757D01*
X59730Y34767D01*
X59272Y34832D01*
Y34832D01*
X59272D01*
Y35059D01*
X58866Y35080D01*
X58829Y35064D01*
X58785Y35072D01*
X58766Y35059D01*
X56437D01*
Y32921D01*
X56437Y32916D01*
X56421Y32889D01*
X56423Y32842D01*
X56416Y32827D01*
X56437Y32421D01*
X56664D01*
X56664Y32421D01*
X56664D01*
X56823Y31973D01*
X56834Y31847D01*
X56837Y31668D01*
X56832Y31478D01*
X56817Y31305D01*
X56794Y31162D01*
X56764Y31053D01*
X56734Y30978D01*
X56709Y30936D01*
X56695Y30921D01*
X56692Y30919D01*
X56690Y30918D01*
X56628Y30912D01*
X56617Y30906D01*
X55984D01*
Y24213D01*
X56595D01*
X56629Y24194D01*
X56691Y24188D01*
X56694Y24187D01*
X56696Y24185D01*
X56710Y24171D01*
X56735Y24130D01*
X56765Y24057D01*
X56794Y23949D01*
X56817Y23809D01*
X56832Y23637D01*
X56838Y23426D01*
X56851Y23397D01*
Y23066D01*
X56838Y23035D01*
X56837Y22931D01*
X56830Y22758D01*
X56817Y22631D01*
X56811Y22597D01*
X56806Y22578D01*
X56802Y22570D01*
X56802Y22565D01*
X56798Y22552D01*
X56556Y22191D01*
X56449Y21654D01*
X56556Y21116D01*
X56861Y20660D01*
X57317Y20356D01*
X57854Y20249D01*
X58392Y20356D01*
X58848Y20660D01*
X59152Y21116D01*
X59259Y21654D01*
X59152Y22191D01*
X58911Y22552D01*
X58907Y22565D01*
X58906Y22570D01*
X58903Y22578D01*
X58898Y22597D01*
X58893Y22624D01*
X58872Y22937D01*
X58871Y23035D01*
X58858Y23066D01*
Y23397D01*
X58871Y23426D01*
X58876Y23637D01*
X58891Y23809D01*
X58915Y23949D01*
X58944Y24057D01*
X58974Y24130D01*
X58999Y24171D01*
X59012Y24185D01*
X59015Y24187D01*
X59018Y24188D01*
X59080Y24194D01*
X59113Y24213D01*
X59724D01*
Y30906D01*
X59092D01*
X59080Y30912D01*
X59019Y30918D01*
X59016Y30919D01*
X59014Y30921D01*
X59000Y30936D01*
X58975Y30978D01*
X58944Y31053D01*
X58915Y31162D01*
X58892Y31305D01*
X58876Y31478D01*
X58872Y31668D01*
X58875Y31853D01*
X58886Y32032D01*
X58904Y32183D01*
X58927Y32302D01*
X58952Y32386D01*
X58967Y32421D01*
X59272D01*
Y32656D01*
X59276Y32658D01*
X59369Y32679D01*
X59490Y32697D01*
X59840Y32720D01*
X60053Y32724D01*
X60084Y32737D01*
X60541D01*
X60570Y32724D01*
X60900Y32714D01*
X61358Y32648D01*
Y32648D01*
X61358D01*
Y32421D01*
X61764Y32401D01*
X61800Y32416D01*
X61845Y32408D01*
X61864Y32421D01*
X64193D01*
Y35059D01*
X61864D01*
X61845Y35072D01*
X61800Y35064D01*
X61764Y35080D01*
D02*
G37*
G36*
X19874D02*
X19468Y35059D01*
Y34832D01*
X19468D01*
Y34832D01*
X19010Y34767D01*
X18900Y34760D01*
X18687Y34757D01*
X18657Y34744D01*
X18199D01*
X18170Y34757D01*
X17840Y34767D01*
X17382Y34832D01*
Y34832D01*
X17382D01*
Y35059D01*
X16976Y35080D01*
X16940Y35064D01*
X16896Y35072D01*
X16876Y35059D01*
X14547D01*
Y32921D01*
X14547Y32916D01*
X14531Y32889D01*
X14533Y32842D01*
X14527Y32827D01*
X14547Y32421D01*
X14774D01*
X14774Y32421D01*
X14774D01*
X14933Y31973D01*
X14944Y31847D01*
X14947Y31668D01*
X14942Y31478D01*
X14927Y31305D01*
X14904Y31162D01*
X14875Y31053D01*
X14844Y30978D01*
X14819Y30936D01*
X14805Y30921D01*
X14803Y30919D01*
X14800Y30918D01*
X14738Y30912D01*
X14727Y30906D01*
X14095D01*
Y24213D01*
X14706D01*
X14739Y24194D01*
X14801Y24188D01*
X14804Y24187D01*
X14807Y24185D01*
X14820Y24171D01*
X14845Y24130D01*
X14875Y24057D01*
X14904Y23949D01*
X14927Y23809D01*
X14942Y23637D01*
X14948Y23426D01*
X14961Y23397D01*
Y23066D01*
X14948Y23035D01*
X14947Y22931D01*
X14940Y22758D01*
X14927Y22631D01*
X14921Y22597D01*
X14916Y22578D01*
X14912Y22570D01*
X14912Y22565D01*
X14908Y22552D01*
X14667Y22191D01*
X14560Y21654D01*
X14667Y21116D01*
X14971Y20660D01*
X15427Y20356D01*
X15965Y20249D01*
X16502Y20356D01*
X16958Y20660D01*
X17263Y21116D01*
X17369Y21654D01*
X17263Y22191D01*
X17021Y22552D01*
X17017Y22565D01*
X17017Y22570D01*
X17013Y22578D01*
X17008Y22597D01*
X17003Y22624D01*
X16982Y22937D01*
X16981Y23035D01*
X16968Y23066D01*
Y23397D01*
X16981Y23426D01*
X16987Y23637D01*
X17002Y23809D01*
X17025Y23949D01*
X17054Y24057D01*
X17084Y24130D01*
X17109Y24171D01*
X17123Y24185D01*
X17125Y24187D01*
X17128Y24188D01*
X17190Y24194D01*
X17224Y24213D01*
X17835D01*
Y30906D01*
X17202D01*
X17191Y30912D01*
X17129Y30918D01*
X17127Y30919D01*
X17124Y30921D01*
X17110Y30936D01*
X17085Y30978D01*
X17054Y31053D01*
X17025Y31162D01*
X17002Y31305D01*
X16987Y31478D01*
X16982Y31668D01*
X16985Y31853D01*
X16996Y32032D01*
X17014Y32183D01*
X17037Y32302D01*
X17062Y32386D01*
X17077Y32421D01*
X17382D01*
Y32656D01*
X17386Y32658D01*
X17479Y32679D01*
X17601Y32697D01*
X17950Y32720D01*
X18163Y32724D01*
X18194Y32737D01*
X18651D01*
X18680Y32724D01*
X19011Y32714D01*
X19468Y32648D01*
Y32648D01*
X19468D01*
Y32421D01*
X19874Y32401D01*
X19911Y32416D01*
X19955Y32408D01*
X19974Y32421D01*
X22303D01*
Y35059D01*
X19974D01*
X19955Y35072D01*
X19911Y35064D01*
X19874Y35080D01*
D02*
G37*
G36*
X64646Y30906D02*
X63169D01*
Y27953D01*
X64646D01*
Y30906D01*
D02*
G37*
G36*
X62382D02*
X60905D01*
Y27953D01*
X62382D01*
Y30906D01*
D02*
G37*
G36*
X22756D02*
X21280D01*
Y27953D01*
X22756D01*
Y30906D01*
D02*
G37*
G36*
X20492D02*
X19016D01*
Y27953D01*
X20492D01*
Y30906D01*
D02*
G37*
G36*
X64646Y27165D02*
X63169D01*
Y24213D01*
X64646D01*
Y27165D01*
D02*
G37*
G36*
X62382D02*
X60905D01*
Y24213D01*
X62382D01*
Y27165D01*
D02*
G37*
G36*
X22756D02*
X21280D01*
Y24213D01*
X22756D01*
Y27165D01*
D02*
G37*
G36*
X20492D02*
X19016D01*
Y24213D01*
X20492D01*
Y27165D01*
D02*
G37*
G36*
X20886Y23058D02*
X20348Y22952D01*
X19892Y22647D01*
X19588Y22191D01*
X19481Y21654D01*
X19588Y21116D01*
X19892Y20660D01*
X20348Y20356D01*
X20886Y20249D01*
X21423Y20356D01*
X21879Y20660D01*
X22184Y21116D01*
X22291Y21654D01*
X22184Y22191D01*
X21879Y22647D01*
X21423Y22952D01*
X20886Y23058D01*
D02*
G37*
G36*
X62776Y23058D02*
X62238Y22952D01*
X61782Y22647D01*
X61478Y22191D01*
X61371Y21654D01*
X61478Y21116D01*
X61782Y20660D01*
X62238Y20356D01*
X62776Y20249D01*
X63313Y20356D01*
X63769Y20660D01*
X64074Y21116D01*
X64180Y21654D01*
X64074Y22191D01*
X63769Y22647D01*
X63313Y22952D01*
X62776Y23058D01*
D02*
G37*
G36*
X77146Y22441D02*
X73209D01*
Y16535D01*
X77146D01*
Y22441D01*
D02*
G37*
G36*
X72421D02*
X68484D01*
Y16535D01*
X72421D01*
Y22441D01*
D02*
G37*
G36*
X52146D02*
X48209D01*
Y16535D01*
X52146D01*
Y22441D01*
D02*
G37*
G36*
X47421D02*
X43484D01*
Y16535D01*
X47421D01*
Y22441D01*
D02*
G37*
G36*
X35256D02*
X31319D01*
Y16535D01*
X35256D01*
Y22441D01*
D02*
G37*
G36*
X30531D02*
X26594D01*
Y16535D01*
X30531D01*
Y22441D01*
D02*
G37*
G36*
X10256D02*
X6319D01*
Y16535D01*
X10256D01*
Y22441D01*
D02*
G37*
G36*
X5531D02*
X1595D01*
Y16535D01*
X5531D01*
Y22441D01*
D02*
G37*
G36*
X77146Y15748D02*
X73209D01*
Y9843D01*
X77146D01*
Y15748D01*
D02*
G37*
G36*
X72421D02*
X68484D01*
Y9843D01*
X72421D01*
Y15748D01*
D02*
G37*
G36*
X52146D02*
X48209D01*
Y9843D01*
X52146D01*
Y15748D01*
D02*
G37*
G36*
X47421D02*
X43484D01*
Y9843D01*
X47421D01*
Y15748D01*
D02*
G37*
G36*
X35256D02*
X31319D01*
Y9843D01*
X35256D01*
Y15748D01*
D02*
G37*
G36*
X30531D02*
X26594D01*
Y9843D01*
X30531D01*
Y15748D01*
D02*
G37*
G36*
X10256D02*
X6319D01*
Y9843D01*
X10256D01*
Y15748D01*
D02*
G37*
G36*
X5531D02*
X1595D01*
Y9843D01*
X5531D01*
Y15748D01*
D02*
G37*
%LPD*%
G36*
X55834Y144980D02*
X55810Y144999D01*
X55776Y145016D01*
X55733Y145030D01*
X55680Y145043D01*
X55617Y145054D01*
X55463Y145070D01*
X55270Y145078D01*
X55159Y145079D01*
X55159Y146260D01*
X55270Y146261D01*
X55617Y146284D01*
X55680Y146295D01*
X55733Y146308D01*
X55776Y146323D01*
X55810Y146340D01*
X55834Y146358D01*
X55834Y144980D01*
D02*
G37*
G36*
X53080Y146738D02*
X53116Y146638D01*
X53175Y146549D01*
X53259Y146472D01*
X53366Y146407D01*
X53498Y146354D01*
X53653Y146313D01*
X53832Y146283D01*
X54035Y146266D01*
X54261Y146260D01*
Y145079D01*
X54035Y145073D01*
X53832Y145055D01*
X53653Y145026D01*
X53498Y144984D01*
X53366Y144931D01*
X53259Y144866D01*
X53175Y144789D01*
X53116Y144701D01*
X53080Y144600D01*
X53068Y144488D01*
Y146850D01*
X53080Y146738D01*
D02*
G37*
G36*
X47327Y149631D02*
X47277Y149567D01*
X47233Y149498D01*
X47194Y149425D01*
X47162Y149349D01*
X47135Y149268D01*
X47115Y149182D01*
X47104Y149116D01*
X47104Y149114D01*
X47124Y148996D01*
X47151Y148893D01*
X47187Y148807D01*
X47230Y148736D01*
X47281Y148681D01*
X47340Y148642D01*
X47407Y148618D01*
X47482Y148610D01*
X45907D01*
X45982Y148618D01*
X46049Y148642D01*
X46108Y148681D01*
X46159Y148736D01*
X46202Y148807D01*
X46238Y148893D01*
X46265Y148996D01*
X46285Y149114D01*
X46285Y149116D01*
X46274Y149182D01*
X46253Y149268D01*
X46227Y149349D01*
X46194Y149425D01*
X46156Y149498D01*
X46112Y149567D01*
X46062Y149631D01*
X46005Y149691D01*
X47383D01*
X47327Y149631D01*
D02*
G37*
G36*
X42406D02*
X42356Y149567D01*
X42312Y149498D01*
X42273Y149425D01*
X42241Y149349D01*
X42214Y149268D01*
X42193Y149182D01*
X42182Y149116D01*
X42183Y149114D01*
X42202Y148996D01*
X42230Y148893D01*
X42265Y148807D01*
X42309Y148736D01*
X42360Y148681D01*
X42419Y148642D01*
X42486Y148618D01*
X42561Y148610D01*
X40986D01*
X41061Y148618D01*
X41128Y148642D01*
X41187Y148681D01*
X41238Y148736D01*
X41281Y148807D01*
X41317Y148893D01*
X41344Y148996D01*
X41364Y149114D01*
X41364Y149116D01*
X41353Y149182D01*
X41332Y149268D01*
X41306Y149349D01*
X41273Y149425D01*
X41235Y149498D01*
X41190Y149567D01*
X41140Y149631D01*
X41084Y149691D01*
X42462D01*
X42406Y149631D01*
D02*
G37*
G36*
X37485D02*
X37435Y149567D01*
X37390Y149498D01*
X37352Y149425D01*
X37319Y149349D01*
X37293Y149268D01*
X37272Y149182D01*
X37261Y149116D01*
X37261Y149114D01*
X37281Y148996D01*
X37309Y148893D01*
X37344Y148807D01*
X37387Y148736D01*
X37439Y148681D01*
X37498Y148642D01*
X37565Y148618D01*
X37639Y148610D01*
X36065D01*
X36139Y148618D01*
X36206Y148642D01*
X36265Y148681D01*
X36316Y148736D01*
X36360Y148807D01*
X36395Y148893D01*
X36423Y148996D01*
X36443Y149114D01*
X36443Y149116D01*
X36432Y149182D01*
X36411Y149268D01*
X36384Y149349D01*
X36352Y149425D01*
X36314Y149498D01*
X36269Y149567D01*
X36219Y149631D01*
X36163Y149691D01*
X37541D01*
X37485Y149631D01*
D02*
G37*
G36*
X32564D02*
X32513Y149567D01*
X32469Y149498D01*
X32431Y149425D01*
X32398Y149349D01*
X32372Y149268D01*
X32351Y149182D01*
X32340Y149116D01*
X32340Y149114D01*
X32360Y148996D01*
X32387Y148893D01*
X32423Y148807D01*
X32466Y148736D01*
X32517Y148681D01*
X32576Y148642D01*
X32643Y148618D01*
X32718Y148610D01*
X31143D01*
X31218Y148618D01*
X31285Y148642D01*
X31344Y148681D01*
X31395Y148736D01*
X31439Y148807D01*
X31474Y148893D01*
X31502Y148996D01*
X31521Y149114D01*
X31521Y149116D01*
X31510Y149182D01*
X31490Y149268D01*
X31463Y149349D01*
X31431Y149425D01*
X31392Y149498D01*
X31348Y149567D01*
X31298Y149631D01*
X31242Y149691D01*
X32620D01*
X32564Y149631D01*
D02*
G37*
G36*
X22055Y139567D02*
X22114Y139402D01*
X22212Y139256D01*
X22350Y139129D01*
X22527Y139023D01*
X22744Y138935D01*
X23000Y138867D01*
X23295Y138818D01*
X23630Y138789D01*
X23649Y138789D01*
X24953Y138807D01*
Y136784D01*
X24933Y136789D01*
X24874Y136793D01*
X24461Y136804D01*
X23850Y136807D01*
X23630Y136801D01*
X23295Y136772D01*
X23000Y136723D01*
X22744Y136655D01*
X22527Y136568D01*
X22350Y136461D01*
X22212Y136335D01*
X22114Y136189D01*
X22055Y136023D01*
X22035Y135839D01*
X21963Y135819D01*
X21898Y135760D01*
X21841Y135662D01*
X21791Y135524D01*
X21749Y135347D01*
X21715Y135130D01*
X21688Y134874D01*
X21666Y134424D01*
X21693Y134117D01*
X21742Y133820D01*
X21811Y133563D01*
X21900Y133345D01*
X22008Y133167D01*
X22136Y133028D01*
X22284Y132929D01*
X22451Y132870D01*
X22638Y132850D01*
X18701D01*
X18888Y132870D01*
X19055Y132929D01*
X19203Y133028D01*
X19331Y133167D01*
X19439Y133345D01*
X19528Y133563D01*
X19597Y133820D01*
X19646Y134117D01*
X19671Y134405D01*
X19624Y135130D01*
X19590Y135347D01*
X19548Y135524D01*
X19498Y135662D01*
X19441Y135760D01*
X19376Y135819D01*
X19303Y135839D01*
X22035D01*
Y139752D01*
X22055Y139567D01*
D02*
G37*
G36*
X37218Y130811D02*
X37194Y130830D01*
X37161Y130847D01*
X37117Y130861D01*
X37064Y130874D01*
X37001Y130885D01*
X36847Y130901D01*
X36654Y130909D01*
X36543Y130909D01*
X36543Y132091D01*
X36654Y132091D01*
X37001Y132115D01*
X37064Y132126D01*
X37117Y132139D01*
X37161Y132153D01*
X37194Y132170D01*
X37218Y132189D01*
X37218Y130811D01*
D02*
G37*
G36*
X34842Y132569D02*
X34878Y132468D01*
X34937Y132380D01*
X35019Y132303D01*
X35126Y132238D01*
X35256Y132185D01*
X35409Y132144D01*
X35586Y132114D01*
X35787Y132097D01*
X36012Y132091D01*
Y130909D01*
X35787Y130903D01*
X35586Y130886D01*
X35409Y130856D01*
X35256Y130815D01*
X35126Y130762D01*
X35019Y130697D01*
X34937Y130620D01*
X34878Y130532D01*
X34842Y130431D01*
X34830Y130319D01*
Y132681D01*
X34842Y132569D01*
D02*
G37*
G36*
X63493Y134650D02*
X63409Y134722D01*
X63307Y134760D01*
X63186Y134762D01*
X63046Y134730D01*
X62889Y134663D01*
X62712Y134561D01*
X62518Y134423D01*
X62305Y134251D01*
X61823Y133803D01*
X61145Y134795D01*
X61304Y134962D01*
X61446Y135129D01*
X61571Y135296D01*
X61680Y135463D01*
X61772Y135630D01*
X61847Y135797D01*
X61905Y135964D01*
X61947Y136131D01*
X61972Y136298D01*
X61980Y136464D01*
X63493Y134650D01*
D02*
G37*
G36*
X61099Y133079D02*
X60864Y132835D01*
X60494Y132399D01*
X60359Y132207D01*
X60258Y132032D01*
X60190Y131873D01*
X60155Y131731D01*
X60154Y131607D01*
X60186Y131499D01*
X60252Y131408D01*
X58593Y133067D01*
X58684Y133001D01*
X58792Y132969D01*
X58916Y132970D01*
X59058Y133004D01*
X59217Y133073D01*
X59392Y133174D01*
X59585Y133309D01*
X59794Y133477D01*
X60264Y133914D01*
X61099Y133079D01*
D02*
G37*
G36*
X53307Y132954D02*
X53342Y132912D01*
X53401Y132875D01*
X53484Y132844D01*
X53590Y132817D01*
X53720Y132795D01*
X53874Y132778D01*
X54252Y132758D01*
X54476Y132756D01*
Y131575D01*
X54252Y131569D01*
X54051Y131551D01*
X53874Y131522D01*
X53720Y131480D01*
X53590Y131427D01*
X53484Y131362D01*
X53401Y131285D01*
X53342Y131197D01*
X53307Y131096D01*
X53295Y130984D01*
Y133000D01*
X53307Y132954D01*
D02*
G37*
G36*
X63924Y131240D02*
X63852Y131205D01*
X63789Y131146D01*
X63734Y131063D01*
X63688Y130957D01*
X63650Y130827D01*
X63621Y130673D01*
X63599Y130496D01*
X63587Y130296D01*
X63583Y130071D01*
X62402D01*
X62397Y130296D01*
X62364Y130673D01*
X62334Y130827D01*
X62296Y130957D01*
X62250Y131063D01*
X62195Y131146D01*
X62132Y131205D01*
X62060Y131240D01*
X61980Y131252D01*
X64004D01*
X63924Y131240D01*
D02*
G37*
G36*
X58240Y131252D02*
X60264D01*
X60184Y131240D01*
X60112Y131205D01*
X60049Y131146D01*
X59994Y131063D01*
X59948Y130957D01*
X59910Y130827D01*
X59880Y130673D01*
X59859Y130496D01*
X59847Y130296D01*
X59842Y130071D01*
X58661D01*
X58657Y130296D01*
X58623Y130673D01*
X58594Y130827D01*
X58556Y130957D01*
X58510Y131063D01*
X58455Y131146D01*
X58392Y131205D01*
X58320Y131240D01*
X58240Y131252D01*
X58228Y131314D01*
X58193Y131368D01*
X58134Y131417D01*
X58051Y131459D01*
X57945Y131494D01*
X57815Y131523D01*
X57662Y131546D01*
X57485Y131562D01*
X57059Y131575D01*
Y132756D01*
X57284Y132759D01*
X57662Y132785D01*
X57815Y132808D01*
X57945Y132837D01*
X58051Y132872D01*
X58134Y132914D01*
X58193Y132962D01*
X58228Y133017D01*
X58240Y133079D01*
Y131252D01*
D02*
G37*
G36*
X63589Y129685D02*
X63606Y129484D01*
X63635Y129307D01*
X63675Y129153D01*
X63727Y129023D01*
X63791Y128917D01*
X63866Y128834D01*
X63953Y128775D01*
X64051Y128740D01*
X64161Y128728D01*
X61823D01*
X61933Y128740D01*
X62031Y128775D01*
X62118Y128834D01*
X62193Y128917D01*
X62257Y129023D01*
X62309Y129153D01*
X62349Y129307D01*
X62378Y129484D01*
X62396Y129685D01*
X62402Y129909D01*
X63583D01*
X63589Y129685D01*
D02*
G37*
G36*
X59848D02*
X59866Y129484D01*
X59895Y129307D01*
X59935Y129153D01*
X59987Y129023D01*
X60051Y128917D01*
X60126Y128834D01*
X60213Y128775D01*
X60311Y128740D01*
X60421Y128728D01*
X58083D01*
X58193Y128740D01*
X58291Y128775D01*
X58378Y128834D01*
X58453Y128917D01*
X58517Y129023D01*
X58569Y129153D01*
X58609Y129307D01*
X58638Y129484D01*
X58656Y129685D01*
X58661Y129909D01*
X59842D01*
X59848Y129685D01*
D02*
G37*
G36*
X67324Y115696D02*
X67346Y115366D01*
X67901D01*
X67791Y115355D01*
X67693Y115319D01*
X67606Y115260D01*
X67531Y115177D01*
X67467Y115071D01*
X67415Y114941D01*
X67375Y114788D01*
X67346Y114610D01*
X67329Y114410D01*
X67323Y114185D01*
X66142D01*
X66136Y114410D01*
X66119Y114610D01*
X66090Y114788D01*
X66049Y114941D01*
X65997Y115071D01*
X65934Y115177D01*
X65858Y115260D01*
X65772Y115319D01*
X65673Y115355D01*
X65563Y115366D01*
X66119D01*
X66133Y115503D01*
X66141Y115696D01*
X66142Y115807D01*
X67323Y115807D01*
X67324Y115696D01*
D02*
G37*
G36*
X67327Y113799D02*
X67334Y113726D01*
X67421D01*
X67403Y113702D01*
X67386Y113668D01*
X67371Y113625D01*
X67358Y113572D01*
X67351Y113530D01*
X67361Y113421D01*
X67390Y113268D01*
X67428Y113138D01*
X67474Y113031D01*
X67529Y112949D01*
X67592Y112890D01*
X67664Y112854D01*
X67744Y112842D01*
X65721D01*
X65801Y112854D01*
X65872Y112890D01*
X65935Y112949D01*
X65990Y113031D01*
X66036Y113138D01*
X66074Y113268D01*
X66104Y113421D01*
X66115Y113519D01*
X66106Y113572D01*
X66093Y113625D01*
X66079Y113668D01*
X66062Y113702D01*
X66043Y113726D01*
X66133D01*
X66137Y113799D01*
X66142Y114023D01*
X67323D01*
X67327Y113799D01*
D02*
G37*
G36*
X65721Y111016D02*
X65709Y111077D01*
X65673Y111132D01*
X65614Y111180D01*
X65532Y111222D01*
X65425Y111258D01*
X65295Y111287D01*
X65142Y111310D01*
X64965Y111326D01*
X64864Y111329D01*
X64583Y111310D01*
X64429Y111287D01*
X64299Y111258D01*
X64193Y111222D01*
X64110Y111180D01*
X64051Y111132D01*
X64016Y111077D01*
X64004Y111016D01*
Y112842D01*
X64016Y112781D01*
X64051Y112726D01*
X64110Y112678D01*
X64193Y112636D01*
X64299Y112600D01*
X64429Y112571D01*
X64583Y112549D01*
X64760Y112533D01*
X64861Y112530D01*
X65142Y112549D01*
X65295Y112571D01*
X65425Y112600D01*
X65532Y112636D01*
X65614Y112678D01*
X65673Y112726D01*
X65709Y112781D01*
X65721Y112842D01*
Y111016D01*
D02*
G37*
G36*
X59843Y115696D02*
X59866Y115366D01*
X60421D01*
X60311Y115355D01*
X60213Y115319D01*
X60126Y115260D01*
X60051Y115177D01*
X59987Y115071D01*
X59935Y114941D01*
X59895Y114788D01*
X59866Y114610D01*
X59848Y114410D01*
X59842Y114185D01*
X58661D01*
X58656Y114410D01*
X58638Y114610D01*
X58609Y114788D01*
X58569Y114941D01*
X58517Y115071D01*
X58453Y115177D01*
X58378Y115260D01*
X58291Y115319D01*
X58193Y115355D01*
X58083Y115366D01*
X58639D01*
X58653Y115503D01*
X58660Y115696D01*
X58661Y115807D01*
X59842Y115807D01*
X59843Y115696D01*
D02*
G37*
G36*
X59847Y113799D02*
X59853Y113726D01*
X59941D01*
X59922Y113702D01*
X59905Y113668D01*
X59891Y113625D01*
X59878Y113572D01*
X59871Y113530D01*
X59880Y113421D01*
X59910Y113268D01*
X59948Y113138D01*
X59994Y113031D01*
X60049Y112949D01*
X60112Y112890D01*
X60184Y112854D01*
X60264Y112842D01*
X58240D01*
X58320Y112854D01*
X58392Y112890D01*
X58455Y112949D01*
X58510Y113031D01*
X58556Y113138D01*
X58594Y113268D01*
X58623Y113421D01*
X58635Y113519D01*
X58626Y113572D01*
X58613Y113625D01*
X58598Y113668D01*
X58582Y113702D01*
X58563Y113726D01*
X58653D01*
X58657Y113799D01*
X58661Y114023D01*
X59842D01*
X59847Y113799D01*
D02*
G37*
G36*
X41615Y103604D02*
X41598Y103570D01*
X41584Y103526D01*
X41571Y103473D01*
X41560Y103411D01*
X41544Y103256D01*
X41536Y103064D01*
X41535Y102953D01*
X40354Y102953D01*
X40353Y103064D01*
X40330Y103411D01*
X40319Y103473D01*
X40306Y103526D01*
X40291Y103570D01*
X40275Y103604D01*
X40256Y103628D01*
X41634Y103628D01*
X41615Y103604D01*
D02*
G37*
G36*
X38466D02*
X38449Y103570D01*
X38434Y103526D01*
X38421Y103473D01*
X38410Y103411D01*
X38395Y103256D01*
X38387Y103064D01*
X38386Y102953D01*
X37205Y102953D01*
X37204Y103064D01*
X37180Y103411D01*
X37169Y103473D01*
X37157Y103526D01*
X37142Y103570D01*
X37125Y103604D01*
X37106Y103628D01*
X38484Y103628D01*
X38466Y103604D01*
D02*
G37*
G36*
X35316D02*
X35299Y103570D01*
X35284Y103526D01*
X35272Y103473D01*
X35261Y103411D01*
X35245Y103256D01*
X35237Y103064D01*
X35236Y102953D01*
X34055Y102953D01*
X34054Y103064D01*
X34031Y103411D01*
X34020Y103473D01*
X34007Y103526D01*
X33992Y103570D01*
X33975Y103604D01*
X33957Y103628D01*
X35335Y103628D01*
X35316Y103604D01*
D02*
G37*
G36*
X32166D02*
X32150Y103570D01*
X32135Y103526D01*
X32122Y103473D01*
X32111Y103411D01*
X32096Y103256D01*
X32088Y103064D01*
X32087Y102953D01*
X30906Y102953D01*
X30904Y103064D01*
X30881Y103411D01*
X30870Y103473D01*
X30857Y103526D01*
X30843Y103570D01*
X30826Y103604D01*
X30807Y103628D01*
X32185Y103628D01*
X32166Y103604D01*
D02*
G37*
G36*
X29017D02*
X29000Y103570D01*
X28985Y103526D01*
X28972Y103473D01*
X28962Y103411D01*
X28946Y103256D01*
X28938Y103064D01*
X28937Y102953D01*
X27756Y102953D01*
X27755Y103064D01*
X27731Y103411D01*
X27720Y103473D01*
X27708Y103526D01*
X27693Y103570D01*
X27676Y103604D01*
X27657Y103628D01*
X29035Y103628D01*
X29017Y103604D01*
D02*
G37*
G36*
X41539Y102716D02*
X41570Y102338D01*
X41596Y102185D01*
X41631Y102055D01*
X41673Y101949D01*
X41723Y101866D01*
X41780Y101807D01*
X41845Y101771D01*
X41917Y101760D01*
X39973D01*
X40045Y101771D01*
X40110Y101807D01*
X40167Y101866D01*
X40217Y101949D01*
X40259Y102055D01*
X40293Y102185D01*
X40320Y102338D01*
X40339Y102515D01*
X40354Y102941D01*
X41535D01*
X41539Y102716D01*
D02*
G37*
G36*
X38390D02*
X38420Y102338D01*
X38447Y102185D01*
X38481Y102055D01*
X38523Y101949D01*
X38573Y101866D01*
X38630Y101807D01*
X38695Y101771D01*
X38767Y101760D01*
X36823D01*
X36895Y101771D01*
X36960Y101807D01*
X37018Y101866D01*
X37067Y101949D01*
X37109Y102055D01*
X37144Y102185D01*
X37170Y102338D01*
X37189Y102515D01*
X37205Y102941D01*
X38386D01*
X38390Y102716D01*
D02*
G37*
G36*
X35240D02*
X35271Y102338D01*
X35297Y102185D01*
X35332Y102055D01*
X35374Y101949D01*
X35423Y101866D01*
X35480Y101807D01*
X35545Y101771D01*
X35618Y101760D01*
X33673D01*
X33746Y101771D01*
X33811Y101807D01*
X33868Y101866D01*
X33918Y101949D01*
X33960Y102055D01*
X33994Y102185D01*
X34021Y102338D01*
X34040Y102515D01*
X34055Y102941D01*
X35236D01*
X35240Y102716D01*
D02*
G37*
G36*
X32090D02*
X32121Y102338D01*
X32148Y102185D01*
X32182Y102055D01*
X32224Y101949D01*
X32274Y101866D01*
X32331Y101807D01*
X32396Y101771D01*
X32468Y101760D01*
X30524D01*
X30596Y101771D01*
X30661Y101807D01*
X30718Y101866D01*
X30768Y101949D01*
X30810Y102055D01*
X30844Y102185D01*
X30871Y102338D01*
X30890Y102515D01*
X30906Y102941D01*
X32087D01*
X32090Y102716D01*
D02*
G37*
G36*
X28941D02*
X28971Y102338D01*
X28998Y102185D01*
X29032Y102055D01*
X29074Y101949D01*
X29124Y101866D01*
X29181Y101807D01*
X29246Y101771D01*
X29319Y101760D01*
X27374D01*
X27447Y101771D01*
X27512Y101807D01*
X27569Y101866D01*
X27619Y101949D01*
X27661Y102055D01*
X27695Y102185D01*
X27722Y102338D01*
X27741Y102515D01*
X27756Y102941D01*
X28937D01*
X28941Y102716D01*
D02*
G37*
G36*
X60386Y86390D02*
X62212D01*
X62151Y86378D01*
X62096Y86343D01*
X62048Y86284D01*
X62006Y86201D01*
X61970Y86095D01*
X61941Y85965D01*
X61919Y85811D01*
X61903Y85634D01*
X61897Y85433D01*
X61914Y85172D01*
X61925Y85109D01*
X61938Y85056D01*
X61953Y85013D01*
X61970Y84979D01*
X61988Y84955D01*
X60610Y84955D01*
X60629Y84979D01*
X60646Y85013D01*
X60660Y85056D01*
X60673Y85109D01*
X60684Y85172D01*
X60700Y85326D01*
X60705Y85445D01*
X60680Y85811D01*
X60657Y85965D01*
X60628Y86095D01*
X60593Y86201D01*
X60551Y86284D01*
X60502Y86343D01*
X60447Y86378D01*
X60386Y86390D01*
X60374Y86470D01*
X60339Y86541D01*
X60280Y86605D01*
X60197Y86659D01*
X60091Y86706D01*
X59961Y86744D01*
X59807Y86773D01*
X59630Y86794D01*
X59429Y86807D01*
X59409Y86807D01*
X59031Y86777D01*
X58878Y86750D01*
X58748Y86716D01*
X58641Y86674D01*
X58559Y86624D01*
X58500Y86567D01*
X58464Y86502D01*
X58453Y86429D01*
Y88374D01*
X58464Y88301D01*
X58500Y88236D01*
X58559Y88179D01*
X58641Y88130D01*
X58748Y88087D01*
X58878Y88053D01*
X59031Y88026D01*
X59209Y88007D01*
X59454Y87999D01*
X59807Y88030D01*
X59961Y88060D01*
X60091Y88097D01*
X60197Y88144D01*
X60280Y88198D01*
X60339Y88262D01*
X60374Y88333D01*
X60386Y88413D01*
Y86390D01*
D02*
G37*
G36*
X61988Y83549D02*
X61970Y83525D01*
X61953Y83491D01*
X61938Y83448D01*
X61925Y83395D01*
X61914Y83332D01*
X61895Y83044D01*
X61919Y82693D01*
X61941Y82539D01*
X61970Y82409D01*
X62006Y82303D01*
X62048Y82220D01*
X62096Y82161D01*
X62151Y82126D01*
X62212Y82114D01*
X60386D01*
X60447Y82126D01*
X60502Y82161D01*
X60551Y82220D01*
X60593Y82303D01*
X60628Y82409D01*
X60657Y82539D01*
X60680Y82693D01*
X60696Y82870D01*
X60703Y83103D01*
X60700Y83178D01*
X60684Y83332D01*
X60673Y83395D01*
X60660Y83448D01*
X60646Y83491D01*
X60629Y83525D01*
X60610Y83549D01*
X61988Y83549D01*
D02*
G37*
G36*
X60386Y80091D02*
X60374Y80171D01*
X60339Y80242D01*
X60280Y80305D01*
X60197Y80360D01*
X60091Y80406D01*
X59961Y80444D01*
X59807Y80474D01*
X59630Y80495D01*
X59429Y80508D01*
X59409Y80508D01*
X59031Y80477D01*
X58878Y80451D01*
X58748Y80416D01*
X58641Y80374D01*
X58559Y80325D01*
X58500Y80268D01*
X58464Y80203D01*
X58453Y80130D01*
Y82075D01*
X58464Y82002D01*
X58500Y81937D01*
X58559Y81880D01*
X58641Y81830D01*
X58748Y81788D01*
X58878Y81754D01*
X59031Y81727D01*
X59209Y81708D01*
X59454Y81699D01*
X59807Y81731D01*
X59961Y81760D01*
X60091Y81798D01*
X60197Y81845D01*
X60280Y81899D01*
X60339Y81962D01*
X60374Y82034D01*
X60386Y82114D01*
Y80091D01*
D02*
G37*
G36*
X18443Y94371D02*
X18477Y94354D01*
X18521Y94340D01*
X18574Y94327D01*
X18636Y94316D01*
X18791Y94300D01*
X18984Y94292D01*
X19094Y94291D01*
X19094Y93110D01*
X18984Y93109D01*
X18636Y93086D01*
X18574Y93075D01*
X18521Y93062D01*
X18477Y93047D01*
X18443Y93031D01*
X18419Y93012D01*
X18419Y94390D01*
X18443Y94371D01*
D02*
G37*
G36*
X20288Y92729D02*
X20276Y92801D01*
X20240Y92866D01*
X20181Y92923D01*
X20099Y92973D01*
X19992Y93015D01*
X19862Y93049D01*
X19709Y93076D01*
X19532Y93095D01*
X19106Y93110D01*
Y94291D01*
X19331Y94295D01*
X19709Y94326D01*
X19862Y94352D01*
X19992Y94387D01*
X20099Y94429D01*
X20181Y94478D01*
X20240Y94536D01*
X20276Y94600D01*
X20288Y94673D01*
Y92729D01*
D02*
G37*
G36*
X18366Y85184D02*
X18401Y85112D01*
X18460Y85049D01*
X18543Y84994D01*
X18649Y84948D01*
X18779Y84910D01*
X18933Y84880D01*
X19110Y84859D01*
X19311Y84847D01*
X19331Y84846D01*
X19709Y84877D01*
X19862Y84904D01*
X19992Y84938D01*
X19994Y84939D01*
Y84941D01*
X19996Y84939D01*
X20099Y84980D01*
X20181Y85030D01*
X20240Y85087D01*
X20276Y85152D01*
X20288Y85224D01*
Y84859D01*
X20366Y84851D01*
X20558Y84843D01*
X20669Y84842D01*
X20669Y83661D01*
X20558Y83660D01*
X20288Y83642D01*
Y83280D01*
X20276Y83352D01*
X20240Y83417D01*
X20181Y83474D01*
X20099Y83524D01*
X19996Y83565D01*
X19994Y83563D01*
Y83565D01*
X19992Y83566D01*
X19862Y83600D01*
X19709Y83627D01*
X19532Y83646D01*
X19286Y83655D01*
X18933Y83623D01*
X18779Y83594D01*
X18649Y83556D01*
X18543Y83510D01*
X18460Y83455D01*
X18401Y83392D01*
X18366Y83320D01*
X18354Y83240D01*
Y83638D01*
X18024Y83660D01*
X17913Y83661D01*
X17913Y84842D01*
X18024Y84843D01*
X18217Y84851D01*
X18354Y84865D01*
Y85264D01*
X18366Y85184D01*
D02*
G37*
G36*
X51064Y70415D02*
X51047Y70381D01*
X51033Y70338D01*
X51020Y70284D01*
X51009Y70222D01*
X50993Y70068D01*
X50985Y69875D01*
X50984Y69764D01*
X49803Y69764D01*
X49802Y69875D01*
X49779Y70222D01*
X49768Y70284D01*
X49755Y70338D01*
X49740Y70381D01*
X49723Y70415D01*
X49705Y70439D01*
X51083Y70439D01*
X51064Y70415D01*
D02*
G37*
G36*
X47914D02*
X47898Y70381D01*
X47883Y70338D01*
X47870Y70284D01*
X47859Y70222D01*
X47844Y70068D01*
X47836Y69875D01*
X47835Y69764D01*
X46654Y69764D01*
X46653Y69875D01*
X46629Y70222D01*
X46618Y70284D01*
X46605Y70338D01*
X46591Y70381D01*
X46574Y70415D01*
X46555Y70439D01*
X47933Y70439D01*
X47914Y70415D01*
D02*
G37*
G36*
X44765D02*
X44748Y70381D01*
X44733Y70338D01*
X44721Y70284D01*
X44710Y70222D01*
X44694Y70068D01*
X44686Y69875D01*
X44685Y69764D01*
X43504Y69764D01*
X43503Y69875D01*
X43479Y70222D01*
X43468Y70284D01*
X43456Y70338D01*
X43441Y70381D01*
X43424Y70415D01*
X43406Y70439D01*
X44783Y70439D01*
X44765Y70415D01*
D02*
G37*
G36*
X50988Y69252D02*
X51019Y68874D01*
X51045Y68720D01*
X51080Y68590D01*
X51122Y68484D01*
X51171Y68401D01*
X51228Y68342D01*
X51293Y68307D01*
X51366Y68295D01*
X49421D01*
X49494Y68307D01*
X49559Y68342D01*
X49616Y68401D01*
X49666Y68484D01*
X49708Y68590D01*
X49742Y68720D01*
X49769Y68874D01*
X49788Y69051D01*
X49803Y69476D01*
X50984D01*
X50988Y69252D01*
D02*
G37*
G36*
X47839D02*
X47869Y68874D01*
X47896Y68720D01*
X47930Y68590D01*
X47972Y68484D01*
X48022Y68401D01*
X48079Y68342D01*
X48144Y68307D01*
X48216Y68295D01*
X46272D01*
X46344Y68307D01*
X46409Y68342D01*
X46466Y68401D01*
X46516Y68484D01*
X46558Y68590D01*
X46593Y68720D01*
X46619Y68874D01*
X46638Y69051D01*
X46654Y69476D01*
X47835D01*
X47839Y69252D01*
D02*
G37*
G36*
X44689D02*
X44719Y68874D01*
X44746Y68720D01*
X44780Y68590D01*
X44822Y68484D01*
X44872Y68401D01*
X44929Y68342D01*
X44994Y68307D01*
X45067Y68295D01*
X43122D01*
X43195Y68307D01*
X43260Y68342D01*
X43317Y68401D01*
X43367Y68484D01*
X43409Y68590D01*
X43443Y68720D01*
X43470Y68874D01*
X43489Y69051D01*
X43504Y69476D01*
X44685D01*
X44689Y69252D01*
D02*
G37*
G36*
X32396Y63583D02*
X32331Y63547D01*
X32274Y63488D01*
X32224Y63406D01*
X32182Y63299D01*
X32148Y63169D01*
X32121Y63016D01*
X32102Y62839D01*
X32087Y62414D01*
X30906D01*
X30902Y62638D01*
X30871Y63016D01*
X30844Y63169D01*
X30810Y63299D01*
X30768Y63406D01*
X30718Y63488D01*
X30661Y63547D01*
X30596Y63583D01*
X30524Y63595D01*
X32468D01*
X32396Y63583D01*
D02*
G37*
G36*
X29246D02*
X29181Y63547D01*
X29124Y63488D01*
X29074Y63406D01*
X29032Y63299D01*
X28998Y63169D01*
X28971Y63016D01*
X28952Y62839D01*
X28937Y62414D01*
X27756D01*
X27752Y62638D01*
X27722Y63016D01*
X27695Y63169D01*
X27661Y63299D01*
X27619Y63406D01*
X27569Y63488D01*
X27512Y63547D01*
X27447Y63583D01*
X27374Y63595D01*
X29319D01*
X29246Y63583D01*
D02*
G37*
G36*
X51293D02*
X51228Y63547D01*
X51171Y63488D01*
X51122Y63406D01*
X51080Y63299D01*
X51045Y63169D01*
X51019Y63016D01*
X50999Y62839D01*
X50991Y62593D01*
X51022Y62240D01*
X51052Y62086D01*
X51090Y61957D01*
X51136Y61850D01*
X51191Y61768D01*
X51254Y61708D01*
X51325Y61673D01*
X51405Y61661D01*
X49382D01*
X49462Y61673D01*
X49534Y61708D01*
X49597Y61768D01*
X49652Y61850D01*
X49698Y61957D01*
X49736Y62086D01*
X49765Y62240D01*
X49786Y62417D01*
X49799Y62618D01*
X49799Y62638D01*
X49769Y63016D01*
X49742Y63169D01*
X49708Y63299D01*
X49666Y63406D01*
X49616Y63488D01*
X49559Y63547D01*
X49494Y63583D01*
X49421Y63595D01*
X51366D01*
X51293Y63583D01*
D02*
G37*
G36*
X44994D02*
X44929Y63547D01*
X44872Y63488D01*
X44822Y63406D01*
X44780Y63299D01*
X44746Y63169D01*
X44719Y63016D01*
X44700Y62839D01*
X44692Y62593D01*
X44723Y62240D01*
X44752Y62086D01*
X44790Y61957D01*
X44837Y61850D01*
X44891Y61768D01*
X44954Y61708D01*
X45026Y61673D01*
X45106Y61661D01*
X43083D01*
X43163Y61673D01*
X43235Y61708D01*
X43298Y61768D01*
X43352Y61850D01*
X43399Y61957D01*
X43437Y62086D01*
X43466Y62240D01*
X43487Y62417D01*
X43500Y62618D01*
X43500Y62638D01*
X43470Y63016D01*
X43443Y63169D01*
X43409Y63299D01*
X43367Y63406D01*
X43317Y63488D01*
X43260Y63547D01*
X43195Y63583D01*
X43122Y63595D01*
X45067D01*
X44994Y63583D01*
D02*
G37*
G36*
X41845D02*
X41780Y63547D01*
X41723Y63488D01*
X41673Y63406D01*
X41631Y63299D01*
X41596Y63169D01*
X41570Y63016D01*
X41551Y62839D01*
X41542Y62593D01*
X41573Y62240D01*
X41603Y62086D01*
X41641Y61957D01*
X41687Y61850D01*
X41742Y61768D01*
X41805Y61708D01*
X41877Y61673D01*
X41956Y61661D01*
X39933D01*
X40013Y61673D01*
X40085Y61708D01*
X40148Y61768D01*
X40203Y61850D01*
X40249Y61957D01*
X40287Y62086D01*
X40316Y62240D01*
X40337Y62417D01*
X40350Y62618D01*
X40350Y62638D01*
X40320Y63016D01*
X40293Y63169D01*
X40259Y63299D01*
X40217Y63406D01*
X40167Y63488D01*
X40110Y63547D01*
X40045Y63583D01*
X39973Y63595D01*
X41917D01*
X41845Y63583D01*
D02*
G37*
G36*
X32088Y62015D02*
X32111Y61668D01*
X32122Y61605D01*
X32135Y61552D01*
X32150Y61509D01*
X32166Y61475D01*
X32185Y61451D01*
X30807Y61451D01*
X30826Y61475D01*
X30843Y61509D01*
X30857Y61552D01*
X30870Y61605D01*
X30881Y61668D01*
X30897Y61822D01*
X30904Y62015D01*
X30906Y62126D01*
X32087Y62126D01*
X32088Y62015D01*
D02*
G37*
G36*
X28938D02*
X28962Y61668D01*
X28972Y61605D01*
X28985Y61552D01*
X29000Y61509D01*
X29017Y61475D01*
X29035Y61451D01*
X27657Y61451D01*
X27676Y61475D01*
X27693Y61509D01*
X27708Y61552D01*
X27720Y61605D01*
X27731Y61668D01*
X27747Y61822D01*
X27755Y62015D01*
X27756Y62126D01*
X28937Y62126D01*
X28938Y62015D01*
D02*
G37*
G36*
X39933Y61340D02*
X39988Y61339D01*
Y60158D01*
X39933Y60157D01*
Y59835D01*
X39921Y59896D01*
X39886Y59951D01*
X39827Y59999D01*
X39744Y60041D01*
X39638Y60077D01*
X39508Y60106D01*
X39370Y60126D01*
X39232Y60106D01*
X39102Y60077D01*
X38996Y60041D01*
X38913Y59999D01*
X38854Y59951D01*
X38819Y59896D01*
X38807Y59835D01*
Y60156D01*
X38752Y60158D01*
Y61339D01*
X38807Y61339D01*
Y61661D01*
X38819Y61600D01*
X38854Y61545D01*
X38913Y61497D01*
X38996Y61455D01*
X39102Y61419D01*
X39232Y61390D01*
X39370Y61370D01*
X39508Y61390D01*
X39638Y61419D01*
X39744Y61455D01*
X39827Y61497D01*
X39886Y61545D01*
X39921Y61600D01*
X39933Y61661D01*
Y61340D01*
D02*
G37*
G36*
X49382D02*
X49437Y61339D01*
Y60158D01*
X49382Y60157D01*
Y59835D01*
X49370Y59896D01*
X49335Y59951D01*
X49276Y59999D01*
X49193Y60041D01*
X49087Y60077D01*
X48957Y60106D01*
X48819Y60126D01*
X48681Y60106D01*
X48551Y60077D01*
X48445Y60041D01*
X48362Y59999D01*
X48303Y59951D01*
X48267Y59896D01*
X48256Y59835D01*
Y60156D01*
X48201Y60158D01*
Y61339D01*
X48256Y61339D01*
Y61661D01*
X48267Y61600D01*
X48303Y61545D01*
X48362Y61497D01*
X48445Y61455D01*
X48551Y61419D01*
X48681Y61390D01*
X48819Y61370D01*
X48957Y61390D01*
X49087Y61419D01*
X49193Y61455D01*
X49276Y61497D01*
X49335Y61545D01*
X49370Y61600D01*
X49382Y61661D01*
Y61340D01*
D02*
G37*
G36*
X36784Y59835D02*
X36772Y59896D01*
X36736Y59951D01*
X36677Y59999D01*
X36595Y60041D01*
X36488Y60077D01*
X36358Y60106D01*
X36205Y60128D01*
X36028Y60145D01*
X35827Y60151D01*
X35566Y60133D01*
X35503Y60122D01*
X35450Y60109D01*
X35407Y60094D01*
X35373Y60078D01*
X35349Y60059D01*
Y61437D01*
X35373Y61418D01*
X35407Y61402D01*
X35450Y61387D01*
X35503Y61374D01*
X35566Y61363D01*
X35720Y61347D01*
X35838Y61343D01*
X36205Y61368D01*
X36358Y61390D01*
X36488Y61419D01*
X36595Y61455D01*
X36677Y61497D01*
X36736Y61545D01*
X36772Y61600D01*
X36784Y61661D01*
Y59835D01*
D02*
G37*
G36*
X26856Y74114D02*
X26832Y74133D01*
X26798Y74150D01*
X26755Y74164D01*
X26702Y74177D01*
X26639Y74188D01*
X26485Y74204D01*
X26292Y74212D01*
X26181Y74213D01*
X26181Y75394D01*
X26292Y75395D01*
X26639Y75418D01*
X26702Y75429D01*
X26755Y75442D01*
X26798Y75457D01*
X26832Y75473D01*
X26856Y75492D01*
X26856Y74114D01*
D02*
G37*
G36*
X25000Y75703D02*
X25035Y75638D01*
X25094Y75581D01*
X25177Y75531D01*
X25283Y75489D01*
X25413Y75455D01*
X25567Y75428D01*
X25744Y75409D01*
X26169Y75394D01*
Y74213D01*
X25945Y74209D01*
X25567Y74178D01*
X25413Y74151D01*
X25283Y74117D01*
X25177Y74075D01*
X25094Y74026D01*
X25035Y73968D01*
X25000Y73903D01*
X24988Y73831D01*
Y75775D01*
X25000Y75703D01*
D02*
G37*
G36*
X26856Y70965D02*
X26832Y70983D01*
X26798Y71000D01*
X26755Y71015D01*
X26702Y71028D01*
X26639Y71038D01*
X26485Y71054D01*
X26292Y71062D01*
X26181Y71063D01*
X26181Y72244D01*
X26292Y72245D01*
X26639Y72269D01*
X26702Y72280D01*
X26755Y72292D01*
X26798Y72307D01*
X26832Y72324D01*
X26856Y72342D01*
X26856Y70965D01*
D02*
G37*
G36*
X25000Y72553D02*
X25035Y72488D01*
X25094Y72431D01*
X25177Y72382D01*
X25283Y72339D01*
X25413Y72305D01*
X25567Y72278D01*
X25744Y72259D01*
X26169Y72244D01*
Y71063D01*
X25945Y71059D01*
X25567Y71029D01*
X25413Y71002D01*
X25283Y70968D01*
X25177Y70926D01*
X25094Y70876D01*
X25035Y70819D01*
X25000Y70754D01*
X24988Y70681D01*
Y72626D01*
X25000Y72553D01*
D02*
G37*
G36*
X43083Y57954D02*
X43138Y57953D01*
Y56772D01*
X43083Y56771D01*
Y56449D01*
X43503D01*
X43504Y56496D01*
X44685Y56496D01*
X44686Y56449D01*
X45106D01*
X45026Y56437D01*
X44954Y56402D01*
X44891Y56343D01*
X44837Y56260D01*
X44790Y56154D01*
X44752Y56024D01*
X44733Y55923D01*
X44733Y55922D01*
X44748Y55879D01*
X44765Y55845D01*
X44783Y55821D01*
X44717D01*
X44702Y55693D01*
X44689Y55492D01*
X44685Y55268D01*
X43504D01*
X43500Y55492D01*
X43470Y55821D01*
X43406D01*
X43424Y55845D01*
X43441Y55879D01*
X43456Y55922D01*
X43456Y55923D01*
X43437Y56024D01*
X43399Y56154D01*
X43352Y56260D01*
X43298Y56343D01*
X43235Y56402D01*
X43163Y56437D01*
X43083Y56449D01*
X43071Y56510D01*
X43036Y56565D01*
X42977Y56614D01*
X42894Y56656D01*
X42788Y56691D01*
X42658Y56720D01*
X42520Y56740D01*
X42382Y56720D01*
X42252Y56691D01*
X42145Y56656D01*
X42063Y56614D01*
X42004Y56565D01*
X41968Y56510D01*
X41956Y56449D01*
Y56770D01*
X41902Y56772D01*
Y57953D01*
X41956Y57954D01*
Y58275D01*
X41968Y58214D01*
X42004Y58159D01*
X42063Y58111D01*
X42145Y58069D01*
X42252Y58033D01*
X42382Y58004D01*
X42520Y57984D01*
X42658Y58004D01*
X42788Y58033D01*
X42894Y58069D01*
X42977Y58111D01*
X43036Y58159D01*
X43071Y58214D01*
X43083Y58275D01*
Y57954D01*
D02*
G37*
G36*
X63370Y38996D02*
X63400Y38667D01*
X63465D01*
X63446Y38643D01*
X63429Y38609D01*
X63414Y38566D01*
X63414Y38565D01*
X63433Y38464D01*
X63471Y38334D01*
X63518Y38228D01*
X63573Y38146D01*
X63636Y38086D01*
X63707Y38051D01*
X63787Y38039D01*
X63367D01*
X63366Y37992D01*
X62185Y37992D01*
X62185Y38039D01*
X61764D01*
X61844Y38051D01*
X61916Y38086D01*
X61979Y38146D01*
X62033Y38228D01*
X62080Y38334D01*
X62118Y38464D01*
X62137Y38565D01*
X62137Y38566D01*
X62122Y38609D01*
X62105Y38643D01*
X62087Y38667D01*
X62153D01*
X62168Y38795D01*
X62181Y38996D01*
X62185Y39220D01*
X63366D01*
X63370Y38996D01*
D02*
G37*
G36*
X21481D02*
X21510Y38667D01*
X21575D01*
X21556Y38643D01*
X21539Y38609D01*
X21525Y38566D01*
X21524Y38565D01*
X21544Y38464D01*
X21582Y38334D01*
X21628Y38228D01*
X21683Y38146D01*
X21746Y38086D01*
X21817Y38051D01*
X21897Y38039D01*
X21477D01*
X21476Y37992D01*
X20295Y37992D01*
X20295Y38039D01*
X19874D01*
X19954Y38051D01*
X20026Y38086D01*
X20089Y38146D01*
X20144Y38228D01*
X20190Y38334D01*
X20228Y38464D01*
X20247Y38565D01*
X20247Y38566D01*
X20232Y38609D01*
X20216Y38643D01*
X20197Y38667D01*
X20263D01*
X20279Y38795D01*
X20291Y38996D01*
X20295Y39220D01*
X21476D01*
X21481Y38996D01*
D02*
G37*
G36*
X61764Y32827D02*
X61752Y32888D01*
X61717Y32943D01*
X61658Y32991D01*
X61575Y33033D01*
X61469Y33069D01*
X61339Y33098D01*
X61185Y33121D01*
X61008Y33137D01*
X60583Y33150D01*
Y34331D01*
X60807Y34334D01*
X61185Y34360D01*
X61339Y34382D01*
X61469Y34411D01*
X61575Y34447D01*
X61658Y34489D01*
X61717Y34537D01*
X61752Y34592D01*
X61764Y34653D01*
Y32827D01*
D02*
G37*
G36*
X58878Y34592D02*
X58913Y34537D01*
X58972Y34489D01*
X59055Y34447D01*
X59161Y34411D01*
X59291Y34382D01*
X59445Y34360D01*
X59622Y34344D01*
X60047Y34331D01*
Y33150D01*
X59823Y33146D01*
X59445Y33121D01*
X59291Y33098D01*
X59161Y33069D01*
X59055Y33033D01*
X58972Y32991D01*
X58913Y32943D01*
X58878Y32888D01*
X58866Y32827D01*
X58786Y32815D01*
X58714Y32780D01*
X58651Y32721D01*
X58596Y32638D01*
X58550Y32532D01*
X58512Y32402D01*
X58483Y32248D01*
X58462Y32071D01*
X58449Y31870D01*
X58445Y31666D01*
X58451Y31454D01*
X58469Y31251D01*
X58498Y31072D01*
X58539Y30917D01*
X58592Y30786D01*
X58657Y30679D01*
X58734Y30595D01*
X58823Y30536D01*
X58923Y30500D01*
X59035Y30488D01*
X56673D01*
X56785Y30500D01*
X56886Y30536D01*
X56974Y30595D01*
X57051Y30679D01*
X57116Y30786D01*
X57169Y30917D01*
X57211Y31072D01*
X57240Y31251D01*
X57258Y31454D01*
X57263Y31666D01*
X57260Y31870D01*
X57226Y32248D01*
X57196Y32402D01*
X57158Y32532D01*
X57112Y32638D01*
X57057Y32721D01*
X56994Y32780D01*
X56923Y32815D01*
X56843Y32827D01*
X58866D01*
Y34653D01*
X58878Y34592D01*
D02*
G37*
G36*
X58923Y24607D02*
X58823Y24571D01*
X58734Y24512D01*
X58657Y24429D01*
X58592Y24323D01*
X58539Y24193D01*
X58498Y24040D01*
X58469Y23862D01*
X58451Y23662D01*
X58445Y23437D01*
X57264D01*
X57258Y23662D01*
X57240Y23862D01*
X57211Y24040D01*
X57169Y24193D01*
X57116Y24323D01*
X57051Y24429D01*
X56974Y24512D01*
X56886Y24571D01*
X56785Y24607D01*
X56673Y24618D01*
X59035D01*
X58923Y24607D01*
D02*
G37*
G36*
X58446Y22921D02*
X58469Y22573D01*
X58480Y22511D01*
X58493Y22458D01*
X58508Y22414D01*
X58525Y22380D01*
X58543Y22356D01*
X57165D01*
X57184Y22380D01*
X57201Y22414D01*
X57215Y22458D01*
X57228Y22511D01*
X57239Y22573D01*
X57255Y22728D01*
X57263Y22921D01*
X57264Y23031D01*
X58445D01*
X58446Y22921D01*
D02*
G37*
G36*
X19874Y32827D02*
X19862Y32888D01*
X19827Y32943D01*
X19768Y32991D01*
X19685Y33033D01*
X19579Y33069D01*
X19449Y33098D01*
X19296Y33121D01*
X19118Y33137D01*
X18693Y33150D01*
Y34331D01*
X18917Y34334D01*
X19296Y34360D01*
X19449Y34382D01*
X19579Y34411D01*
X19685Y34447D01*
X19768Y34489D01*
X19827Y34537D01*
X19862Y34592D01*
X19874Y34653D01*
Y32827D01*
D02*
G37*
G36*
X16988Y34592D02*
X17023Y34537D01*
X17083Y34489D01*
X17165Y34447D01*
X17271Y34411D01*
X17401Y34382D01*
X17555Y34360D01*
X17732Y34344D01*
X18157Y34331D01*
Y33150D01*
X17933Y33146D01*
X17555Y33121D01*
X17401Y33098D01*
X17271Y33069D01*
X17165Y33033D01*
X17083Y32991D01*
X17023Y32943D01*
X16988Y32888D01*
X16976Y32827D01*
X16896Y32815D01*
X16825Y32780D01*
X16761Y32721D01*
X16707Y32638D01*
X16660Y32532D01*
X16623Y32402D01*
X16593Y32248D01*
X16572Y32071D01*
X16559Y31870D01*
X16556Y31666D01*
X16561Y31454D01*
X16579Y31251D01*
X16608Y31072D01*
X16650Y30917D01*
X16703Y30786D01*
X16768Y30679D01*
X16845Y30595D01*
X16933Y30536D01*
X17033Y30500D01*
X17146Y30488D01*
X14784D01*
X14896Y30500D01*
X14996Y30536D01*
X15085Y30595D01*
X15161Y30679D01*
X15226Y30786D01*
X15280Y30917D01*
X15321Y31072D01*
X15350Y31251D01*
X15368Y31454D01*
X15374Y31666D01*
X15370Y31870D01*
X15336Y32248D01*
X15307Y32402D01*
X15269Y32532D01*
X15222Y32638D01*
X15168Y32721D01*
X15104Y32780D01*
X15033Y32815D01*
X14953Y32827D01*
X16976D01*
Y34653D01*
X16988Y34592D01*
D02*
G37*
G36*
X17033Y24607D02*
X16933Y24571D01*
X16845Y24512D01*
X16768Y24429D01*
X16703Y24323D01*
X16650Y24193D01*
X16608Y24040D01*
X16579Y23862D01*
X16561Y23662D01*
X16555Y23437D01*
X15374D01*
X15368Y23662D01*
X15350Y23862D01*
X15321Y24040D01*
X15280Y24193D01*
X15226Y24323D01*
X15161Y24429D01*
X15085Y24512D01*
X14996Y24571D01*
X14896Y24607D01*
X14784Y24618D01*
X17146D01*
X17033Y24607D01*
D02*
G37*
G36*
X16556Y22921D02*
X16580Y22573D01*
X16590Y22511D01*
X16603Y22458D01*
X16618Y22414D01*
X16635Y22380D01*
X16654Y22356D01*
X15276D01*
X15294Y22380D01*
X15311Y22414D01*
X15326Y22458D01*
X15339Y22511D01*
X15349Y22573D01*
X15365Y22728D01*
X15373Y22921D01*
X15374Y23031D01*
X16555D01*
X16556Y22921D01*
D02*
G37*
D14*
X31931Y145669D02*
Y150394D01*
X36852Y145669D02*
Y150394D01*
X41773Y145669D02*
Y150394D01*
X46694Y145669D02*
Y150394D01*
D15*
X56102Y71653D02*
D03*
Y74803D02*
D03*
Y77953D02*
D03*
Y81102D02*
D03*
Y84252D02*
D03*
Y87402D02*
D03*
Y90551D02*
D03*
Y93701D02*
D03*
X22638D02*
D03*
Y90551D02*
D03*
Y87402D02*
D03*
Y84252D02*
D03*
Y81102D02*
D03*
Y77953D02*
D03*
Y74803D02*
D03*
Y71653D02*
D03*
D16*
X50394Y99409D02*
D03*
X47244D02*
D03*
X44094D02*
D03*
X40945D02*
D03*
X37795D02*
D03*
X34646D02*
D03*
X31496D02*
D03*
X28346D02*
D03*
Y65945D02*
D03*
X31496D02*
D03*
X34646D02*
D03*
X37795D02*
D03*
X40945D02*
D03*
X44094D02*
D03*
X47244D02*
D03*
X50394D02*
D03*
D17*
X49862Y113051D02*
D03*
Y131043D02*
D03*
D18*
X23622Y122047D02*
D03*
D19*
X59252Y116929D02*
D03*
X62992D02*
D03*
X66732D02*
D03*
Y127165D02*
D03*
X59252D02*
D03*
X62992D02*
D03*
D20*
X20669Y137795D02*
D03*
X14764D02*
D03*
D21*
X66732Y108543D02*
D03*
Y111929D02*
D03*
X37795Y57362D02*
D03*
Y60748D02*
D03*
X15965Y37126D02*
D03*
Y33740D02*
D03*
X57854Y37126D02*
D03*
Y33740D02*
D03*
X47244Y57362D02*
D03*
Y60748D02*
D03*
X40945D02*
D03*
Y57362D02*
D03*
X20886Y33740D02*
D03*
Y37126D02*
D03*
X62776Y33740D02*
D03*
Y37126D02*
D03*
X44094Y60748D02*
D03*
Y57362D02*
D03*
X62992Y132165D02*
D03*
Y135551D02*
D03*
Y108543D02*
D03*
Y111929D02*
D03*
X59252Y108543D02*
D03*
Y111929D02*
D03*
Y135551D02*
D03*
Y132165D02*
D03*
X50394Y57362D02*
D03*
Y60748D02*
D03*
D22*
X64685Y87402D02*
D03*
X61299D02*
D03*
X64685Y81102D02*
D03*
X61299D02*
D03*
X17441Y84252D02*
D03*
X14055D02*
D03*
X29252Y137795D02*
D03*
X25866D02*
D03*
D23*
X16970Y157087D02*
D03*
X61655D02*
D03*
X5925Y16142D02*
D03*
X30925D02*
D03*
X47815D02*
D03*
X72815D02*
D03*
D24*
X27009Y145669D02*
D03*
X36852D02*
D03*
X31931D02*
D03*
X41773D02*
D03*
X51616D02*
D03*
X46694D02*
D03*
X15965Y27559D02*
D03*
X20886D02*
D03*
X57854D02*
D03*
X62776D02*
D03*
D38*
X59252Y111929D02*
Y116929D01*
X61299Y81102D02*
Y87402D01*
X17441Y84252D02*
X22638D01*
X51616Y145669D02*
X56537D01*
X33000Y131500D02*
X37921D01*
X66732Y111929D02*
Y116929D01*
X56102Y87402D02*
X61299D01*
X44094Y55118D02*
Y57362D01*
X40945D02*
X44094D01*
X59350Y132165D02*
X62402Y135216D01*
X59252Y132165D02*
X59350D01*
X62402Y135216D02*
X62657D01*
X62992Y135551D01*
X49862Y131043D02*
X50984Y132165D01*
X59252D01*
X62992Y132165D02*
X62992Y132165D01*
X62992Y127165D02*
Y132165D01*
X59252Y127165D02*
Y132165D01*
X62992Y111929D02*
X66732D01*
X17717Y93701D02*
X22638D01*
X50394Y65945D02*
Y71142D01*
X47244Y65945D02*
Y71142D01*
X44094Y65945D02*
Y71142D01*
X34646Y60748D02*
X37795D01*
X31496D02*
Y65945D01*
X28346Y60748D02*
Y65945D01*
X22638Y71653D02*
X27559D01*
X22638Y74803D02*
X27559D01*
X40945Y99409D02*
Y104331D01*
X37795Y99409D02*
Y104331D01*
X34646Y99409D02*
Y104331D01*
X31496Y99409D02*
Y104331D01*
X28346Y99409D02*
Y104331D01*
X56102Y81102D02*
X61299D01*
X40945Y60748D02*
Y65945D01*
X37795Y60748D02*
X40945D01*
X44094D02*
Y65945D01*
X50394Y60748D02*
X50394Y60748D01*
X50394Y60748D02*
Y65945D01*
X47244Y60748D02*
X50394D01*
X62776Y37126D02*
Y39370D01*
X57854Y21654D02*
Y27559D01*
Y33740D02*
X62776D01*
X57854Y27559D02*
Y33740D01*
X15965Y27559D02*
Y33740D01*
X20886D01*
X15965Y21654D02*
Y27559D01*
X20886Y39370D02*
X20886Y39370D01*
Y37126D02*
Y39370D01*
D39*
X20669Y137795D02*
X25866D01*
X20669Y125000D02*
Y137795D01*
Y125000D02*
X23622Y122047D01*
D40*
X70866Y160433D02*
D03*
X73622Y157480D02*
D03*
X74803Y153149D02*
D03*
Y27165D02*
D03*
Y31102D02*
D03*
Y35039D02*
D03*
Y38976D02*
D03*
Y42913D02*
D03*
Y46850D02*
D03*
Y50787D02*
D03*
Y54724D02*
D03*
Y58661D02*
D03*
Y62598D02*
D03*
Y90157D02*
D03*
Y86220D02*
D03*
Y82283D02*
D03*
Y78346D02*
D03*
Y74409D02*
D03*
Y70472D02*
D03*
Y66535D02*
D03*
Y117716D02*
D03*
Y113779D02*
D03*
Y109842D02*
D03*
Y105905D02*
D03*
Y101968D02*
D03*
Y98031D02*
D03*
Y94094D02*
D03*
Y145275D02*
D03*
Y141338D02*
D03*
Y137401D02*
D03*
Y133464D02*
D03*
Y129527D02*
D03*
Y125590D02*
D03*
Y121653D02*
D03*
Y149212D02*
D03*
X7874Y160433D02*
D03*
X4921Y157480D02*
D03*
X3937Y153542D02*
D03*
Y149605D02*
D03*
Y122046D02*
D03*
Y125983D02*
D03*
Y129920D02*
D03*
Y133857D02*
D03*
Y137794D02*
D03*
Y141731D02*
D03*
Y145668D02*
D03*
Y94487D02*
D03*
Y98424D02*
D03*
Y102361D02*
D03*
Y106298D02*
D03*
Y110235D02*
D03*
Y114172D02*
D03*
Y118109D02*
D03*
Y66928D02*
D03*
Y70865D02*
D03*
Y74802D02*
D03*
Y78739D02*
D03*
Y82676D02*
D03*
Y86613D02*
D03*
Y90550D02*
D03*
Y62991D02*
D03*
Y59054D02*
D03*
Y55117D02*
D03*
Y51180D02*
D03*
Y47243D02*
D03*
Y43306D02*
D03*
Y39369D02*
D03*
Y35432D02*
D03*
Y31495D02*
D03*
Y27558D02*
D03*
D41*
X54000Y62500D02*
D03*
X44500Y76500D02*
D03*
X14500Y77500D02*
D03*
X11500Y30000D02*
D03*
X39500Y4500D02*
D03*
X54000Y153000D02*
D03*
X34500Y153500D02*
D03*
X18000Y147500D02*
D03*
X55000Y116500D02*
D03*
X67500Y140000D02*
D03*
X44500Y138500D02*
D03*
X25000Y107500D02*
D03*
X54000Y103500D02*
D03*
X51500Y91000D02*
D03*
X34500Y80000D02*
D03*
X14000Y54500D02*
D03*
X55000Y54000D02*
D03*
X43000Y38000D02*
D03*
X43500Y26000D02*
D03*
X39500Y19000D02*
D03*
X28000Y27500D02*
D03*
X26000Y39000D02*
D03*
X34500Y57000D02*
D03*
X35184Y37657D02*
D03*
X18000Y89000D02*
D03*
X27746Y87174D02*
D03*
X31000Y76000D02*
D03*
X27124Y150394D02*
D03*
X49114Y117402D02*
D03*
X56537Y145669D02*
D03*
X37921Y131500D02*
D03*
X66732Y114429D02*
D03*
X59252D02*
D03*
X19291Y84252D02*
D03*
X61299Y84252D02*
D03*
X44094Y55118D02*
D03*
X17717Y93701D02*
D03*
X41870Y87598D02*
D03*
X46870D02*
D03*
X36870D02*
D03*
X31870D02*
D03*
X50394Y71142D02*
D03*
X47244D02*
D03*
X44094D02*
D03*
X34646Y60748D02*
D03*
X31496D02*
D03*
X28346D02*
D03*
X27559Y71653D02*
D03*
Y74803D02*
D03*
X40945Y104331D02*
D03*
X37795D02*
D03*
X34646D02*
D03*
X31496D02*
D03*
X28346D02*
D03*
X15965Y21654D02*
D03*
X57854Y39370D02*
D03*
X15965D02*
D03*
X62776D02*
D03*
X20886D02*
D03*
X36220Y43228D02*
D03*
X20886Y21654D02*
D03*
X62776Y21654D02*
D03*
X57854Y21654D02*
D03*
X31931Y150394D02*
D03*
X36852D02*
D03*
X41773D02*
D03*
X46694D02*
D03*
M02*
