G04*
G04 #@! TF.GenerationSoftware,Altium Limited,Altium Designer,23.3.1 (30)*
G04*
G04 Layer_Physical_Order=4*
G04 Layer_Color=16711680*
%FSLAX25Y25*%
%MOIN*%
G70*
G04*
G04 #@! TF.SameCoordinates,B8D109ED-CDE9-4BA8-ABFF-944DEA042C50*
G04*
G04*
G04 #@! TF.FilePolarity,Positive*
G04*
G01*
G75*
%ADD14C,0.00787*%
%ADD21R,0.02047X0.01850*%
%ADD22R,0.01850X0.02047*%
%ADD23R,0.07874X0.11811*%
%ADD24R,0.02953X0.05906*%
%ADD38C,0.01181*%
%ADD39C,0.01968*%
%ADD40C,0.02953*%
%ADD41C,0.01968*%
%ADD42R,0.03150X0.01968*%
%ADD43R,0.01575X0.01575*%
%ADD44R,0.02362X0.04724*%
%ADD45R,0.07047X0.12598*%
G36*
X66929Y164351D02*
X67637D01*
X69042Y164166D01*
X70411Y163799D01*
X71719Y163257D01*
X72946Y162549D01*
X74070Y161686D01*
X75072Y160684D01*
X75935Y159561D01*
X76643Y158334D01*
X77185Y157025D01*
X77552Y155656D01*
X77737Y154252D01*
X77737Y153543D01*
Y1003D01*
X1003D01*
X1003Y153543D01*
Y154252D01*
X1188Y155656D01*
X1555Y157025D01*
X2097Y158334D01*
X2806Y159561D01*
X3668Y160685D01*
X4670Y161686D01*
X5794Y162549D01*
X7021Y163257D01*
X8330Y163799D01*
X9698Y164166D01*
X11103Y164351D01*
X11811D01*
X66929Y164351D01*
D02*
G37*
%LPC*%
G36*
X66101Y163386D02*
X62164D01*
Y157480D01*
X66101D01*
Y163386D01*
D02*
G37*
G36*
X61376D02*
X57439D01*
Y157480D01*
X61376D01*
Y163386D01*
D02*
G37*
G36*
X21416D02*
X17479D01*
Y157480D01*
X21416D01*
Y163386D01*
D02*
G37*
G36*
X16691D02*
X12754D01*
Y157480D01*
X16691D01*
Y163386D01*
D02*
G37*
G36*
X66101Y156693D02*
X62164D01*
Y150787D01*
X66101D01*
Y156693D01*
D02*
G37*
G36*
X61376D02*
X57439D01*
Y150787D01*
X61376D01*
Y156693D01*
D02*
G37*
G36*
X21416D02*
X17479D01*
Y150787D01*
X21416D01*
Y156693D01*
D02*
G37*
G36*
X16691D02*
X12754D01*
Y150787D01*
X16691D01*
Y156693D01*
D02*
G37*
G36*
X27124Y151799D02*
X26587Y151692D01*
X26131Y151387D01*
X25826Y150931D01*
X25728Y150437D01*
X25714Y150406D01*
X25695Y149777D01*
X25673Y149533D01*
X25663Y149464D01*
X25482Y149016D01*
X25481D01*
Y149016D01*
X25254D01*
X25234Y148610D01*
X25249Y148572D01*
X25242Y148528D01*
X25254Y148509D01*
Y147694D01*
X25248Y147683D01*
X25234Y147546D01*
X25209Y147476D01*
X25168Y147415D01*
X25098Y147350D01*
X24985Y147282D01*
X24823Y147216D01*
X24611Y147159D01*
X24351Y147116D01*
X24044Y147089D01*
X23680Y147080D01*
X23668Y147074D01*
X23132Y146967D01*
X22676Y146663D01*
X20660Y144647D01*
X20356Y144191D01*
X20249Y143654D01*
Y137660D01*
X20243Y137647D01*
X20236Y136176D01*
X20226Y135778D01*
X20222Y135730D01*
X20229Y135709D01*
X20216Y135677D01*
X20236Y135628D01*
Y133445D01*
X21221D01*
X21654Y133359D01*
X22086Y133445D01*
X23071D01*
Y135628D01*
X23091Y135677D01*
X23090Y135680D01*
X23091Y135683D01*
X23064Y137651D01*
X23058Y137664D01*
Y143072D01*
X24221Y144234D01*
X24351Y144223D01*
X24611Y144179D01*
X24823Y144123D01*
X24985Y144057D01*
X25098Y143989D01*
X25168Y143924D01*
X25209Y143862D01*
X25234Y143793D01*
X25248Y143656D01*
X25254Y143645D01*
Y142323D01*
X26922D01*
X26944Y142065D01*
X26946Y141929D01*
X26973Y141868D01*
X27036Y141551D01*
X27253Y141226D01*
X27331Y141148D01*
X27329Y140909D01*
X27326Y140837D01*
X27325Y140826D01*
X27326Y140824D01*
X27326Y140824D01*
X27326Y140823D01*
X27332Y140804D01*
X27321Y140775D01*
X27341Y140726D01*
Y138347D01*
X29979D01*
Y141181D01*
X29388D01*
X29369Y141420D01*
X29368Y141552D01*
X29341Y141614D01*
X29278Y141931D01*
X29061Y142257D01*
X28995Y142323D01*
Y142323D01*
X29015Y142728D01*
X29012Y142735D01*
X29013Y142763D01*
X28995Y142800D01*
Y148509D01*
X29007Y148528D01*
X28999Y148572D01*
X29015Y148610D01*
X28995Y149016D01*
X28767D01*
Y149016D01*
X28767D01*
X28585Y149464D01*
X28576Y149529D01*
X28539Y150072D01*
X28535Y150400D01*
X28523Y150428D01*
X28422Y150931D01*
X28118Y151387D01*
X27662Y151692D01*
X27124Y151799D01*
D02*
G37*
G36*
X53601Y149016D02*
X52124D01*
Y146063D01*
X53601D01*
Y149016D01*
D02*
G37*
G36*
X51337D02*
X49861D01*
Y146063D01*
X51337D01*
Y149016D01*
D02*
G37*
G36*
X56537Y147074D02*
X55999Y146967D01*
X55544Y146663D01*
X55239Y146207D01*
X55132Y145669D01*
X55239Y145132D01*
X55544Y144676D01*
X55999Y144371D01*
X56537Y144264D01*
X57075Y144371D01*
X57530Y144676D01*
X57835Y145132D01*
X57942Y145669D01*
X57835Y146207D01*
X57530Y146663D01*
X57075Y146967D01*
X56537Y147074D01*
D02*
G37*
G36*
X53601Y145276D02*
X52124D01*
Y142323D01*
X53601D01*
Y145276D01*
D02*
G37*
G36*
X51337D02*
X49861D01*
Y142323D01*
X51337D01*
Y145276D01*
D02*
G37*
G36*
X31931Y151799D02*
X31393Y151692D01*
X30937Y151387D01*
X30633Y150931D01*
X30526Y150394D01*
X30633Y149856D01*
X30860Y149516D01*
X30718Y149118D01*
X30639Y149016D01*
X30176D01*
Y142323D01*
X30787D01*
X30820Y142305D01*
X30882Y142298D01*
X30885Y142297D01*
X30888Y142296D01*
X30901Y142281D01*
X30926Y142240D01*
X30956Y142167D01*
X30985Y142059D01*
X31008Y141919D01*
X31023Y141757D01*
X31019Y141639D01*
X30954Y141181D01*
X30954D01*
Y141181D01*
X30727D01*
X30706Y140775D01*
X30721Y140739D01*
X30714Y140695D01*
X30727Y140675D01*
Y138347D01*
X33365D01*
Y140675D01*
X33377Y140695D01*
X33370Y140739D01*
X33385Y140775D01*
X33365Y141181D01*
X33138D01*
Y141181D01*
X33137D01*
X33073Y141639D01*
X33067Y141724D01*
X33068Y141747D01*
X33083Y141919D01*
X33106Y142059D01*
X33135Y142167D01*
X33165Y142240D01*
X33190Y142281D01*
X33204Y142296D01*
X33206Y142297D01*
X33209Y142298D01*
X33271Y142305D01*
X33305Y142323D01*
X33916D01*
Y149016D01*
X33223D01*
X33144Y149118D01*
X33001Y149516D01*
X33229Y149856D01*
X33336Y150394D01*
X33229Y150931D01*
X32924Y151387D01*
X32468Y151692D01*
X31931Y151799D01*
D02*
G37*
G36*
X36852D02*
X36314Y151692D01*
X35859Y151387D01*
X35554Y150931D01*
X35447Y150394D01*
X35554Y149856D01*
X35781Y149516D01*
X35639Y149118D01*
X35560Y149016D01*
X35097D01*
Y142323D01*
X35708D01*
X35741Y142305D01*
X35803Y142298D01*
X35806Y142297D01*
X35809Y142296D01*
X35822Y142281D01*
X35847Y142240D01*
X35877Y142167D01*
X35906Y142059D01*
X35930Y141919D01*
X35945Y141747D01*
X35950Y141536D01*
X35963Y141507D01*
Y137383D01*
X35214Y136634D01*
X33071D01*
X33039Y136647D01*
X33037Y136646D01*
X33035Y136647D01*
X31854Y136635D01*
X31851Y136634D01*
X31280D01*
X31183Y136614D01*
X24429D01*
Y132615D01*
X24423Y132604D01*
X24417Y132542D01*
X24416Y132540D01*
X24414Y132538D01*
X24399Y132524D01*
X24357Y132498D01*
X24282Y132468D01*
X24172Y132439D01*
X24030Y132415D01*
X23856Y132400D01*
X23758Y132397D01*
X23529Y132404D01*
X23071Y132470D01*
Y132470D01*
X23071D01*
Y132697D01*
X22665Y132717D01*
X22629Y132702D01*
X22584Y132710D01*
X22565Y132697D01*
X20236D01*
Y130059D01*
X22565D01*
X22584Y130046D01*
X22629Y130054D01*
X22665Y130039D01*
X23071Y130059D01*
Y130286D01*
X23071D01*
Y130286D01*
X23529Y130351D01*
X23639Y130358D01*
X23720Y130359D01*
X23856Y130356D01*
X24030Y130341D01*
X24172Y130317D01*
X24282Y130288D01*
X24357Y130258D01*
X24399Y130232D01*
X24414Y130218D01*
X24416Y130216D01*
X24417Y130214D01*
X24423Y130152D01*
X24429Y130141D01*
Y123228D01*
X32264D01*
Y126110D01*
X32764Y126317D01*
X35867Y123214D01*
Y116564D01*
X35853Y116534D01*
X35848Y116323D01*
X35833Y116151D01*
X35826Y116108D01*
X35522Y115748D01*
X35295D01*
X35275Y115342D01*
X35279Y115333D01*
X35277Y115297D01*
X35295Y115264D01*
Y110236D01*
X38445D01*
Y115248D01*
X38445Y115264D01*
X38463Y115297D01*
X38462Y115333D01*
X38465Y115342D01*
X38445Y115748D01*
X38218Y115748D01*
X37914Y116108D01*
X37907Y116151D01*
X37892Y116323D01*
X37887Y116534D01*
X37874Y116564D01*
Y123630D01*
X37797Y124014D01*
X37580Y124339D01*
X33659Y128260D01*
X33334Y128477D01*
X33022Y128539D01*
X32960Y128567D01*
X32762Y128571D01*
X32601Y128584D01*
X32470Y128604D01*
X32369Y128629D01*
X32301Y128654D01*
X32272Y128670D01*
X32269Y128691D01*
X32264Y128701D01*
Y134391D01*
X32269Y134401D01*
X32276Y134463D01*
X32278Y134466D01*
X32280Y134470D01*
X32296Y134484D01*
X32338Y134510D01*
X32413Y134540D01*
X32522Y134569D01*
X32664Y134593D01*
X32838Y134608D01*
X33050Y134613D01*
X33080Y134626D01*
X35630D01*
X36014Y134703D01*
X36340Y134920D01*
X37677Y136257D01*
X37894Y136583D01*
X37970Y136967D01*
Y141507D01*
X37984Y141536D01*
X37989Y141747D01*
X38004Y141919D01*
X38028Y142059D01*
X38056Y142167D01*
X38087Y142240D01*
X38111Y142281D01*
X38125Y142296D01*
X38127Y142297D01*
X38130Y142298D01*
X38193Y142305D01*
X38226Y142323D01*
X38837D01*
Y149016D01*
X38144D01*
X38065Y149118D01*
X37923Y149516D01*
X38150Y149856D01*
X38257Y150394D01*
X38150Y150931D01*
X37845Y151387D01*
X37390Y151692D01*
X36852Y151799D01*
D02*
G37*
G36*
X58504Y136083D02*
X57480D01*
Y135158D01*
X58504D01*
Y136083D01*
D02*
G37*
G36*
X56693D02*
X55669D01*
Y135158D01*
X56693D01*
Y136083D01*
D02*
G37*
G36*
X58504Y134370D02*
X57480D01*
Y133445D01*
X58504D01*
Y134370D01*
D02*
G37*
G36*
X56693D02*
X55669D01*
Y133445D01*
X56693D01*
Y134370D01*
D02*
G37*
G36*
X41773Y151799D02*
X41236Y151692D01*
X40780Y151387D01*
X40475Y150931D01*
X40368Y150394D01*
X40475Y149856D01*
X40703Y149516D01*
X40560Y149118D01*
X40481Y149016D01*
X40018D01*
Y142323D01*
X40629D01*
X40663Y142305D01*
X40725Y142298D01*
X40728Y142297D01*
X40730Y142296D01*
X40744Y142281D01*
X40769Y142240D01*
X40799Y142167D01*
X40828Y142059D01*
X40851Y141919D01*
X40866Y141747D01*
X40872Y141536D01*
X40885Y141507D01*
Y137112D01*
X40961Y136728D01*
X41179Y136402D01*
X42660Y134920D01*
X42986Y134703D01*
X43370Y134626D01*
X45661D01*
X45690Y134613D01*
X45903Y134608D01*
X46076Y134593D01*
X46218Y134569D01*
X46327Y134540D01*
X46402Y134510D01*
X46445Y134484D01*
X46460Y134470D01*
X46463Y134466D01*
X46464Y134463D01*
X46471Y134401D01*
X46476Y134391D01*
Y128441D01*
X46471Y128431D01*
X46468Y128410D01*
X46439Y128394D01*
X46371Y128369D01*
X46271Y128345D01*
X46139Y128324D01*
X45978Y128312D01*
X45780Y128307D01*
X45718Y128279D01*
X45406Y128217D01*
X45081Y128000D01*
X41161Y124080D01*
X40943Y123754D01*
X40867Y123370D01*
Y116564D01*
X40854Y116534D01*
X40848Y116323D01*
X40833Y116151D01*
X40826Y116108D01*
X40522Y115748D01*
X40295D01*
X40275Y115342D01*
X40279Y115333D01*
X40277Y115297D01*
X40295Y115264D01*
Y110236D01*
X43445D01*
Y115248D01*
X43445Y115264D01*
X43463Y115297D01*
X43461Y115333D01*
X43465Y115342D01*
X43445Y115748D01*
X43218Y115748D01*
X42914Y116108D01*
X42907Y116151D01*
X42892Y116323D01*
X42887Y116534D01*
X42874Y116564D01*
Y122954D01*
X45976Y126057D01*
X46476Y125850D01*
Y123228D01*
X54311D01*
Y130141D01*
X54317Y130152D01*
X54324Y130214D01*
X54324Y130216D01*
X54326Y130218D01*
X54341Y130232D01*
X54383Y130258D01*
X54458Y130288D01*
X54568Y130317D01*
X54710Y130341D01*
X54884Y130356D01*
X54982Y130358D01*
X55211Y130351D01*
X55669Y130286D01*
Y130286D01*
X55669D01*
Y130059D01*
X56075Y130039D01*
X56112Y130054D01*
X56156Y130046D01*
X56175Y130059D01*
X58504D01*
Y132697D01*
X56175D01*
X56156Y132710D01*
X56112Y132702D01*
X56075Y132717D01*
X55669Y132697D01*
Y132470D01*
X55669D01*
Y132470D01*
X55211Y132405D01*
X55101Y132398D01*
X55020Y132396D01*
X54884Y132400D01*
X54710Y132415D01*
X54568Y132439D01*
X54458Y132468D01*
X54383Y132498D01*
X54341Y132524D01*
X54326Y132538D01*
X54324Y132540D01*
X54324Y132542D01*
X54317Y132604D01*
X54311Y132615D01*
Y136614D01*
X47558D01*
X47461Y136634D01*
X46889D01*
X46886Y136635D01*
X45705Y136647D01*
X45703Y136646D01*
X45701Y136647D01*
X45669Y136634D01*
X43786D01*
X42892Y137528D01*
Y141507D01*
X42905Y141536D01*
X42910Y141747D01*
X42925Y141919D01*
X42949Y142059D01*
X42978Y142167D01*
X43008Y142240D01*
X43033Y142281D01*
X43046Y142296D01*
X43049Y142297D01*
X43052Y142298D01*
X43114Y142305D01*
X43147Y142323D01*
X43758D01*
Y149016D01*
X43065D01*
X42986Y149118D01*
X42844Y149516D01*
X43071Y149856D01*
X43178Y150394D01*
X43071Y150931D01*
X42767Y151387D01*
X42311Y151692D01*
X41773Y151799D01*
D02*
G37*
G36*
X37921Y132905D02*
X37384Y132798D01*
X36928Y132493D01*
X36623Y132038D01*
X36516Y131500D01*
X36623Y130962D01*
X36928Y130507D01*
X37384Y130202D01*
X37921Y130095D01*
X38459Y130202D01*
X38915Y130507D01*
X39219Y130962D01*
X39326Y131500D01*
X39219Y132038D01*
X38915Y132493D01*
X38459Y132798D01*
X37921Y132905D01*
D02*
G37*
G36*
X48287Y122106D02*
X47264D01*
Y121181D01*
X48287D01*
Y122106D01*
D02*
G37*
G36*
X46476D02*
X45453D01*
Y121181D01*
X46476D01*
Y122106D01*
D02*
G37*
G36*
X48287Y120394D02*
X47264D01*
Y119468D01*
X48287D01*
Y120394D01*
D02*
G37*
G36*
X46476D02*
X45453D01*
Y119468D01*
X46476D01*
Y120394D01*
D02*
G37*
G36*
X49114Y118807D02*
X48779Y118740D01*
X48287Y118720D01*
X47882Y118741D01*
X47845Y118726D01*
X47801Y118733D01*
X47782Y118720D01*
X47303D01*
X46870Y118807D01*
X46437Y118720D01*
X45453D01*
Y116649D01*
X45452Y116615D01*
X45448Y116526D01*
X45432Y116488D01*
X45434Y116485D01*
X45432Y116482D01*
X45435Y116276D01*
X45415Y115869D01*
X45401Y115748D01*
X45295D01*
X45275Y115342D01*
X45295Y115293D01*
Y110236D01*
X48445D01*
Y115293D01*
X48465Y115342D01*
X48450Y115642D01*
X48781Y116014D01*
X48840Y116051D01*
X49114Y115997D01*
X49652Y116104D01*
X50108Y116408D01*
X50412Y116864D01*
X50519Y117402D01*
X50412Y117939D01*
X50108Y118395D01*
X49652Y118700D01*
X49114Y118807D01*
D02*
G37*
G36*
X33445Y115748D02*
X32264D01*
Y113386D01*
X33445D01*
Y115748D01*
D02*
G37*
G36*
X31476D02*
X30295D01*
Y113386D01*
X31476D01*
Y115748D01*
D02*
G37*
G36*
X46694Y151799D02*
X46157Y151692D01*
X45701Y151387D01*
X45397Y150931D01*
X45289Y150394D01*
X45397Y149856D01*
X45624Y149516D01*
X45482Y149118D01*
X45402Y149016D01*
X44939D01*
Y142323D01*
X45550D01*
X45584Y142305D01*
X45646Y142298D01*
X45649Y142297D01*
X45651Y142296D01*
X45665Y142281D01*
X45690Y142240D01*
X45720Y142167D01*
X45749Y142059D01*
X45772Y141919D01*
X45787Y141747D01*
X45793Y141536D01*
X45806Y141507D01*
Y140691D01*
X45882Y140306D01*
X46100Y139981D01*
X47790Y138290D01*
X48116Y138073D01*
X48500Y137996D01*
X63584D01*
X65729Y135852D01*
Y115842D01*
X65716Y115811D01*
X65715Y115707D01*
X65708Y115534D01*
X65695Y115407D01*
X65689Y115373D01*
X65684Y115353D01*
X65680Y115345D01*
X65680Y115340D01*
X65676Y115328D01*
X65434Y114967D01*
X65327Y114429D01*
X65434Y113891D01*
X65739Y113436D01*
X66195Y113131D01*
X66732Y113024D01*
X67270Y113131D01*
X67726Y113436D01*
X68030Y113891D01*
X68137Y114429D01*
X68030Y114967D01*
X67789Y115328D01*
X67785Y115340D01*
X67784Y115345D01*
X67781Y115353D01*
X67776Y115373D01*
X67771Y115400D01*
X67750Y115713D01*
X67749Y115811D01*
X67736Y115842D01*
Y136268D01*
X67659Y136652D01*
X67442Y136977D01*
X64710Y139710D01*
X64384Y139927D01*
X64000Y140004D01*
X48916D01*
X47813Y141106D01*
Y141507D01*
X47826Y141536D01*
X47831Y141747D01*
X47847Y141919D01*
X47870Y142059D01*
X47899Y142167D01*
X47929Y142240D01*
X47954Y142281D01*
X47967Y142296D01*
X47970Y142297D01*
X47973Y142298D01*
X48035Y142305D01*
X48068Y142323D01*
X48680D01*
Y149016D01*
X47987D01*
X47908Y149118D01*
X47765Y149516D01*
X47993Y149856D01*
X48099Y150394D01*
X47993Y150931D01*
X47688Y151387D01*
X47232Y151692D01*
X46694Y151799D01*
D02*
G37*
G36*
X59252Y115834D02*
X58714Y115727D01*
X58258Y115423D01*
X57954Y114967D01*
X57847Y114429D01*
X57954Y113891D01*
X58258Y113436D01*
X58714Y113131D01*
X59252Y113024D01*
X59790Y113131D01*
X60245Y113436D01*
X60550Y113891D01*
X60657Y114429D01*
X60550Y114967D01*
X60245Y115423D01*
X59790Y115727D01*
X59252Y115834D01*
D02*
G37*
G36*
X33445Y112598D02*
X32264D01*
Y110236D01*
X33445D01*
Y112598D01*
D02*
G37*
G36*
X31476D02*
X30295D01*
Y110236D01*
X31476D01*
Y112598D01*
D02*
G37*
G36*
X40945Y105736D02*
X40407Y105629D01*
X39951Y105324D01*
X39647Y104868D01*
X39625Y104758D01*
X39115D01*
X39093Y104868D01*
X38789Y105324D01*
X38333Y105629D01*
X37795Y105736D01*
X37258Y105629D01*
X36802Y105324D01*
X36497Y104868D01*
X36475Y104758D01*
X35966D01*
X35944Y104868D01*
X35639Y105324D01*
X35183Y105629D01*
X34646Y105736D01*
X34108Y105629D01*
X33652Y105324D01*
X33348Y104868D01*
X33326Y104758D01*
X32816D01*
X32794Y104868D01*
X32489Y105324D01*
X32034Y105629D01*
X31496Y105736D01*
X30958Y105629D01*
X30503Y105324D01*
X30198Y104868D01*
X30176Y104758D01*
X29666D01*
X29645Y104868D01*
X29340Y105324D01*
X28884Y105629D01*
X28346Y105736D01*
X27809Y105629D01*
X27353Y105324D01*
X27049Y104868D01*
X26941Y104331D01*
X27049Y103793D01*
X27353Y103337D01*
X27809Y103033D01*
X28346Y102926D01*
X28884Y103033D01*
X29340Y103337D01*
X29645Y103793D01*
X29666Y103903D01*
X30176D01*
X30198Y103793D01*
X30503Y103337D01*
X30958Y103033D01*
X31355Y102954D01*
X31539Y102561D01*
X31552Y102444D01*
X29112Y100004D01*
X25000D01*
X24616Y99927D01*
X24290Y99710D01*
X20668Y96087D01*
X20451Y95762D01*
X20374Y95378D01*
Y85787D01*
X19874Y85520D01*
X19829Y85550D01*
X19291Y85657D01*
X18754Y85550D01*
X18298Y85245D01*
X17993Y84790D01*
X17886Y84252D01*
X17993Y83714D01*
X18298Y83258D01*
X18754Y82954D01*
X19291Y82847D01*
X19829Y82954D01*
X19874Y82984D01*
X20374Y82717D01*
Y80975D01*
X20361Y80946D01*
X20351Y80616D01*
X20286Y80158D01*
X20286D01*
Y80158D01*
X20059D01*
X20039Y79752D01*
X20054Y79715D01*
X20046Y79671D01*
X20059Y79652D01*
Y77323D01*
X22697D01*
Y79652D01*
X22710Y79671D01*
X22702Y79715D01*
X22717Y79752D01*
X22697Y80158D01*
X22470D01*
Y80158D01*
X22470D01*
X22405Y80616D01*
X22398Y80726D01*
X22395Y80939D01*
X22381Y80969D01*
Y83308D01*
X22843Y83499D01*
X24052Y82290D01*
X24378Y82073D01*
X24762Y81997D01*
X39084D01*
X40059Y81021D01*
Y80975D01*
X40047Y80946D01*
X40036Y80616D01*
X39971Y80158D01*
X39971D01*
Y80158D01*
X39744D01*
X39724Y79752D01*
X39739Y79715D01*
X39731Y79671D01*
X39744Y79652D01*
Y77323D01*
X42382D01*
Y79652D01*
X42395Y79671D01*
X42387Y79715D01*
X42402Y79752D01*
X42382Y80158D01*
X42155D01*
Y80158D01*
X42155D01*
X42090Y80616D01*
X42083Y80726D01*
X42080Y80939D01*
X42066Y80969D01*
Y81437D01*
X41990Y81821D01*
X41773Y82147D01*
X40810Y83109D01*
X41001Y83571D01*
X57509D01*
X59745Y81336D01*
Y80975D01*
X59732Y80946D01*
X59721Y80616D01*
X59656Y80158D01*
X59656D01*
Y80158D01*
X59429D01*
X59409Y79752D01*
X59424Y79715D01*
X59416Y79671D01*
X59429Y79652D01*
Y77323D01*
X62067D01*
Y79652D01*
X62080Y79671D01*
X62072Y79715D01*
X62087Y79752D01*
X62067Y80158D01*
X61840D01*
Y80158D01*
X61840D01*
X61775Y80616D01*
X61768Y80726D01*
X61765Y80939D01*
X61752Y80969D01*
Y81752D01*
X61675Y82136D01*
X61512Y82380D01*
X61572Y82682D01*
X61700Y82927D01*
X61837Y82954D01*
X62293Y83258D01*
X62597Y83714D01*
X62704Y84252D01*
X62597Y84790D01*
X62293Y85245D01*
X61837Y85550D01*
X61299Y85657D01*
X60762Y85550D01*
X60306Y85245D01*
X60001Y84790D01*
X59974Y84652D01*
X59431Y84488D01*
X58635Y85284D01*
X58309Y85502D01*
X57925Y85578D01*
X25830D01*
X25531Y85877D01*
Y93658D01*
X26720Y94847D01*
X29954D01*
X30295Y94488D01*
X30295Y94347D01*
Y89476D01*
X30295Y89461D01*
X30277Y89428D01*
X30279Y89391D01*
X30275Y89382D01*
X30295Y88976D01*
X30522Y88976D01*
X30790Y88570D01*
X30814Y88500D01*
X30813Y88497D01*
X30572Y88136D01*
X30465Y87598D01*
X30572Y87061D01*
X30877Y86605D01*
X31332Y86300D01*
X31870Y86194D01*
X32408Y86300D01*
X32864Y86605D01*
X33168Y87061D01*
X33275Y87598D01*
X33168Y88136D01*
X32927Y88497D01*
X32926Y88500D01*
X32950Y88570D01*
X33218Y88976D01*
X33445D01*
X33465Y89382D01*
X33461Y89391D01*
X33463Y89428D01*
X33445Y89461D01*
Y94488D01*
X33029D01*
X32946Y94988D01*
X33174Y95141D01*
X40655Y102622D01*
X40687Y102635D01*
X40761Y102708D01*
X40888Y102825D01*
X40987Y102906D01*
X41016Y102926D01*
X41033Y102936D01*
X41041Y102939D01*
X41045Y102942D01*
X41057Y102948D01*
X41482Y103033D01*
X41938Y103337D01*
X42243Y103793D01*
X42350Y104331D01*
X42243Y104868D01*
X41938Y105324D01*
X41482Y105629D01*
X40945Y105736D01*
D02*
G37*
G36*
X17717Y95106D02*
X17179Y94999D01*
X16723Y94694D01*
X16419Y94238D01*
X16312Y93701D01*
X16419Y93163D01*
X16723Y92707D01*
X17179Y92403D01*
X17717Y92296D01*
X18254Y92403D01*
X18710Y92707D01*
X19015Y93163D01*
X19121Y93701D01*
X19015Y94238D01*
X18710Y94694D01*
X18254Y94999D01*
X17717Y95106D01*
D02*
G37*
G36*
X48445Y94488D02*
X45295D01*
Y89476D01*
X45295Y89461D01*
X45277Y89428D01*
X45279Y89391D01*
X45275Y89382D01*
X45295Y88976D01*
X45522Y88976D01*
X45790Y88570D01*
X45814Y88500D01*
X45813Y88497D01*
X45572Y88136D01*
X45465Y87598D01*
X45572Y87061D01*
X45877Y86605D01*
X46332Y86300D01*
X46870Y86194D01*
X47408Y86300D01*
X47864Y86605D01*
X48168Y87061D01*
X48275Y87598D01*
X48168Y88136D01*
X47927Y88497D01*
X47926Y88500D01*
X47950Y88570D01*
X48218Y88976D01*
X48445D01*
X48465Y89382D01*
X48461Y89391D01*
X48463Y89428D01*
X48445Y89461D01*
Y94488D01*
D02*
G37*
G36*
X43445D02*
X40295D01*
Y89476D01*
X40295Y89461D01*
X40277Y89428D01*
X40279Y89391D01*
X40275Y89382D01*
X40295Y88976D01*
X40522Y88976D01*
X40790Y88570D01*
X40814Y88500D01*
X40813Y88497D01*
X40572Y88136D01*
X40465Y87598D01*
X40572Y87061D01*
X40877Y86605D01*
X41332Y86300D01*
X41870Y86194D01*
X42408Y86300D01*
X42864Y86605D01*
X43168Y87061D01*
X43275Y87598D01*
X43168Y88136D01*
X42927Y88497D01*
X42926Y88500D01*
X42950Y88570D01*
X43218Y88976D01*
X43445D01*
X43465Y89382D01*
X43461Y89391D01*
X43463Y89428D01*
X43445Y89461D01*
Y94488D01*
D02*
G37*
G36*
X38445D02*
X35295D01*
Y89476D01*
X35295Y89461D01*
X35277Y89428D01*
X35279Y89391D01*
X35275Y89382D01*
X35295Y88976D01*
X35522Y88976D01*
X35790Y88570D01*
X35814Y88500D01*
X35813Y88497D01*
X35572Y88136D01*
X35465Y87598D01*
X35572Y87061D01*
X35877Y86605D01*
X36332Y86300D01*
X36870Y86194D01*
X37408Y86300D01*
X37863Y86605D01*
X38168Y87061D01*
X38275Y87598D01*
X38168Y88136D01*
X37927Y88497D01*
X37926Y88500D01*
X37950Y88570D01*
X38218Y88976D01*
X38445D01*
X38465Y89382D01*
X38462Y89391D01*
X38463Y89428D01*
X38445Y89461D01*
Y94488D01*
D02*
G37*
G36*
X42382Y76221D02*
X41457D01*
Y75197D01*
X42382D01*
Y76221D01*
D02*
G37*
G36*
X62067D02*
X61142D01*
Y75197D01*
X62067D01*
Y76221D01*
D02*
G37*
G36*
X22697D02*
X21772D01*
Y75197D01*
X22697D01*
Y76221D01*
D02*
G37*
G36*
X40669D02*
X39744D01*
Y75197D01*
X40669D01*
Y76221D01*
D02*
G37*
G36*
X60354D02*
X59429D01*
Y75197D01*
X60354D01*
Y76221D01*
D02*
G37*
G36*
X20984D02*
X20059D01*
Y75197D01*
X20984D01*
Y76221D01*
D02*
G37*
G36*
X62067Y74410D02*
X61142D01*
Y73386D01*
X62067D01*
Y74410D01*
D02*
G37*
G36*
X60354D02*
X59429D01*
Y73386D01*
X60354D01*
Y74410D01*
D02*
G37*
G36*
X42382D02*
X41457D01*
Y73386D01*
X42382D01*
Y74410D01*
D02*
G37*
G36*
X40669D02*
X39744D01*
Y73386D01*
X40669D01*
Y74410D01*
D02*
G37*
G36*
X22697D02*
X21772D01*
Y73386D01*
X22697D01*
Y74410D01*
D02*
G37*
G36*
X20984D02*
X20059D01*
Y73386D01*
X20984D01*
Y74410D01*
D02*
G37*
G36*
X50394Y72547D02*
X49856Y72440D01*
X49400Y72135D01*
X49096Y71679D01*
X49074Y71569D01*
X48564D01*
X48542Y71679D01*
X48237Y72135D01*
X47782Y72440D01*
X47244Y72547D01*
X46706Y72440D01*
X46251Y72135D01*
X45946Y71679D01*
X45924Y71569D01*
X45414D01*
X45393Y71679D01*
X45088Y72135D01*
X44632Y72440D01*
X44094Y72547D01*
X43557Y72440D01*
X43101Y72135D01*
X42882Y71807D01*
X42382Y71959D01*
Y72284D01*
X41457D01*
Y70866D01*
X41063D01*
D01*
X41457D01*
Y69449D01*
X42382D01*
Y70325D01*
X42882Y70476D01*
X43101Y70148D01*
X43557Y69844D01*
X44094Y69737D01*
X44632Y69844D01*
X45088Y70148D01*
X45393Y70604D01*
X45414Y70714D01*
X45924D01*
X45946Y70604D01*
X46251Y70148D01*
X46706Y69844D01*
X47244Y69737D01*
X47782Y69844D01*
X48237Y70148D01*
X48542Y70604D01*
X48564Y70714D01*
X49074D01*
X49096Y70604D01*
X49400Y70148D01*
X49856Y69844D01*
X50394Y69737D01*
X50931Y69844D01*
X51387Y70148D01*
X51692Y70604D01*
X51799Y71142D01*
X51692Y71679D01*
X51387Y72135D01*
X50931Y72440D01*
X50394Y72547D01*
D02*
G37*
G36*
X22697Y72284D02*
X21772D01*
Y71260D01*
X22697D01*
Y72284D01*
D02*
G37*
G36*
X62067D02*
X61142D01*
Y71260D01*
X62067D01*
Y72284D01*
D02*
G37*
G36*
X40669D02*
X39744D01*
Y71260D01*
X40669D01*
Y72284D01*
D02*
G37*
G36*
X20984D02*
X20059D01*
Y71260D01*
X20984D01*
Y72284D01*
D02*
G37*
G36*
X60354D02*
X59429D01*
Y71260D01*
X60354D01*
Y72284D01*
D02*
G37*
G36*
X27559Y76208D02*
X27021Y76101D01*
X26566Y75797D01*
X26261Y75341D01*
X26154Y74803D01*
X26261Y74265D01*
X26566Y73810D01*
X27021Y73505D01*
X27132Y73483D01*
Y72974D01*
X27021Y72952D01*
X26566Y72647D01*
X26261Y72191D01*
X26154Y71653D01*
X26261Y71116D01*
X26566Y70660D01*
X27021Y70356D01*
X27559Y70249D01*
X28097Y70356D01*
X28552Y70660D01*
X28857Y71116D01*
X28964Y71653D01*
X28857Y72191D01*
X28552Y72647D01*
X28097Y72952D01*
X27987Y72974D01*
Y73483D01*
X28097Y73505D01*
X28552Y73810D01*
X28857Y74265D01*
X28964Y74803D01*
X28857Y75341D01*
X28552Y75797D01*
X28097Y76101D01*
X27559Y76208D01*
D02*
G37*
G36*
X62067Y70472D02*
X61142D01*
Y69449D01*
X62067D01*
Y70472D01*
D02*
G37*
G36*
X60354D02*
X59429D01*
Y69449D01*
X60354D01*
Y70472D01*
D02*
G37*
G36*
X40669D02*
X39744D01*
Y69449D01*
X40669D01*
Y70472D01*
D02*
G37*
G36*
X22697D02*
X21772D01*
Y69449D01*
X22697D01*
Y70472D01*
D02*
G37*
G36*
X20984D02*
X20059D01*
Y69449D01*
X20984D01*
Y70472D01*
D02*
G37*
G36*
X38996Y80158D02*
X36358D01*
Y77323D01*
X36810D01*
X36816Y77308D01*
X36831Y77252D01*
X36845Y77171D01*
X36854Y77066D01*
X36858Y76930D01*
X36874Y76892D01*
Y76651D01*
X36858Y76613D01*
X36854Y76477D01*
X36845Y76372D01*
X36831Y76291D01*
X36816Y76235D01*
X36810Y76221D01*
X36358D01*
Y73386D01*
X36813D01*
X36815Y73381D01*
X36831Y73322D01*
X36845Y73239D01*
X36854Y73132D01*
X36858Y72993D01*
X36874Y72955D01*
Y72714D01*
X36858Y72676D01*
X36854Y72540D01*
X36845Y72435D01*
X36831Y72354D01*
X36816Y72298D01*
X36810Y72284D01*
X36358D01*
Y69449D01*
X36922D01*
X36924Y69444D01*
X36939Y69385D01*
X36953Y69302D01*
X36962Y69195D01*
X36966Y69056D01*
X36983Y69018D01*
Y68342D01*
X36966Y68303D01*
X36963Y68162D01*
X36956Y68049D01*
X36946Y67957D01*
X36937Y67913D01*
X36713Y67913D01*
X36692Y67508D01*
X36698Y67492D01*
X36697Y67444D01*
X36713Y67418D01*
Y65551D01*
X39075D01*
Y67913D01*
X38653D01*
X38647Y67928D01*
X38631Y67984D01*
X38618Y68065D01*
X38609Y68170D01*
X38605Y68306D01*
X38588Y68344D01*
Y69018D01*
X38605Y69056D01*
X38763Y69449D01*
X38764D01*
Y69449D01*
X38996Y69449D01*
X38999Y69867D01*
X38997Y69872D01*
X38997Y69912D01*
X38996Y69913D01*
Y72284D01*
X38544D01*
X38538Y72298D01*
X38523Y72354D01*
X38510Y72435D01*
X38500Y72540D01*
X38497Y72676D01*
X38480Y72714D01*
Y72955D01*
X38497Y72993D01*
X38500Y73132D01*
X38510Y73239D01*
X38524Y73322D01*
X38539Y73381D01*
X38541Y73386D01*
X38996D01*
Y76221D01*
X38544D01*
X38538Y76235D01*
X38523Y76291D01*
X38510Y76372D01*
X38500Y76477D01*
X38497Y76613D01*
X38480Y76651D01*
Y76892D01*
X38497Y76930D01*
X38500Y77066D01*
X38510Y77171D01*
X38523Y77252D01*
X38538Y77308D01*
X38544Y77323D01*
X38996D01*
Y80158D01*
D02*
G37*
G36*
X58681D02*
X56043D01*
Y77323D01*
X56495D01*
X56501Y77308D01*
X56516Y77252D01*
X56530Y77171D01*
X56539Y77066D01*
X56542Y76930D01*
X56559Y76892D01*
Y76651D01*
X56542Y76613D01*
X56539Y76477D01*
X56530Y76372D01*
X56516Y76291D01*
X56501Y76235D01*
X56495Y76221D01*
X56043D01*
Y73386D01*
X56498D01*
X56500Y73381D01*
X56516Y73322D01*
X56530Y73239D01*
X56539Y73132D01*
X56542Y72993D01*
X56559Y72955D01*
Y72714D01*
X56542Y72676D01*
X56539Y72540D01*
X56530Y72435D01*
X56516Y72354D01*
X56501Y72298D01*
X56495Y72284D01*
X56043D01*
Y69449D01*
X56607D01*
X56609Y69444D01*
X56624Y69385D01*
X56638Y69302D01*
X56647Y69195D01*
X56651Y69056D01*
X56668Y69018D01*
Y68342D01*
X56651Y68303D01*
X56648Y68162D01*
X56641Y68049D01*
X56631Y67957D01*
X56622Y67913D01*
X56398Y67913D01*
X56377Y67508D01*
X56384Y67492D01*
X56382Y67444D01*
X56398Y67418D01*
Y65551D01*
X58760D01*
Y67913D01*
X58338D01*
X58332Y67928D01*
X58316Y67984D01*
X58303Y68065D01*
X58294Y68170D01*
X58290Y68306D01*
X58273Y68344D01*
Y69018D01*
X58290Y69056D01*
X58448Y69449D01*
X58449D01*
Y69449D01*
X58681Y69449D01*
X58684Y69867D01*
X58682Y69872D01*
X58682Y69912D01*
X58681Y69913D01*
Y72284D01*
X58229D01*
X58223Y72298D01*
X58208Y72354D01*
X58195Y72435D01*
X58185Y72540D01*
X58182Y72676D01*
X58165Y72714D01*
Y72955D01*
X58182Y72993D01*
X58185Y73132D01*
X58195Y73239D01*
X58209Y73322D01*
X58224Y73381D01*
X58226Y73386D01*
X58681D01*
Y76221D01*
X58229D01*
X58223Y76235D01*
X58208Y76291D01*
X58195Y76372D01*
X58185Y76477D01*
X58182Y76613D01*
X58165Y76651D01*
Y76892D01*
X58182Y76930D01*
X58185Y77066D01*
X58195Y77171D01*
X58208Y77252D01*
X58223Y77308D01*
X58229Y77323D01*
X58681D01*
Y80158D01*
D02*
G37*
G36*
X19311D02*
X16673D01*
Y77323D01*
X17125D01*
X17131Y77308D01*
X17146Y77252D01*
X17160Y77171D01*
X17169Y77066D01*
X17172Y76930D01*
X17189Y76892D01*
Y76651D01*
X17172Y76613D01*
X17169Y76477D01*
X17160Y76372D01*
X17146Y76291D01*
X17131Y76235D01*
X17125Y76221D01*
X16673D01*
Y73386D01*
X17128D01*
X17130Y73381D01*
X17146Y73322D01*
X17160Y73239D01*
X17169Y73132D01*
X17172Y72993D01*
X17189Y72955D01*
Y72714D01*
X17172Y72676D01*
X17169Y72540D01*
X17160Y72435D01*
X17146Y72354D01*
X17131Y72298D01*
X17125Y72284D01*
X16673D01*
Y69449D01*
X17237D01*
X17239Y69444D01*
X17254Y69385D01*
X17268Y69302D01*
X17277Y69195D01*
X17281Y69056D01*
X17298Y69018D01*
Y68342D01*
X17281Y68303D01*
X17278Y68162D01*
X17271Y68049D01*
X17260Y67957D01*
X17252Y67913D01*
X17028Y67913D01*
X17007Y67508D01*
X17014Y67492D01*
X17012Y67444D01*
X17028Y67418D01*
Y65551D01*
X19390D01*
Y67913D01*
X18968D01*
X18962Y67928D01*
X18946Y67984D01*
X18933Y68065D01*
X18924Y68170D01*
X18920Y68306D01*
X18903Y68344D01*
Y69018D01*
X18920Y69056D01*
X19078Y69449D01*
X19079D01*
Y69449D01*
X19311Y69449D01*
X19314Y69867D01*
X19311Y69872D01*
X19311Y69912D01*
X19311Y69913D01*
Y72284D01*
X18859D01*
X18853Y72298D01*
X18838Y72354D01*
X18825Y72435D01*
X18815Y72540D01*
X18812Y72676D01*
X18795Y72714D01*
Y72955D01*
X18812Y72993D01*
X18815Y73132D01*
X18825Y73239D01*
X18838Y73322D01*
X18854Y73381D01*
X18856Y73386D01*
X19311D01*
Y76221D01*
X18859D01*
X18853Y76235D01*
X18838Y76291D01*
X18825Y76372D01*
X18815Y76477D01*
X18812Y76613D01*
X18795Y76651D01*
Y76892D01*
X18812Y76930D01*
X18815Y77066D01*
X18825Y77171D01*
X18838Y77252D01*
X18853Y77308D01*
X18859Y77323D01*
X19311D01*
Y80158D01*
D02*
G37*
G36*
X42028Y67913D02*
X41240D01*
Y67126D01*
X42028D01*
Y67913D01*
D02*
G37*
G36*
X22343D02*
X21555D01*
Y67126D01*
X22343D01*
Y67913D01*
D02*
G37*
G36*
X61713D02*
X60925D01*
Y67126D01*
X61713D01*
Y67913D01*
D02*
G37*
G36*
X40453D02*
X39665D01*
Y67126D01*
X40453D01*
Y67913D01*
D02*
G37*
G36*
X20768D02*
X19980D01*
Y67126D01*
X20768D01*
Y67913D01*
D02*
G37*
G36*
X60138D02*
X59350D01*
Y67126D01*
X60138D01*
Y67913D01*
D02*
G37*
G36*
X61713Y66339D02*
X60925D01*
Y65551D01*
X61713D01*
Y66339D01*
D02*
G37*
G36*
X60138D02*
X59350D01*
Y65551D01*
X60138D01*
Y66339D01*
D02*
G37*
G36*
X42028D02*
X41240D01*
Y65551D01*
X42028D01*
Y66339D01*
D02*
G37*
G36*
X40453D02*
X39665D01*
Y65551D01*
X40453D01*
Y66339D01*
D02*
G37*
G36*
X22343D02*
X21555D01*
Y65551D01*
X22343D01*
Y66339D01*
D02*
G37*
G36*
X20768D02*
X19980D01*
Y65551D01*
X20768D01*
Y66339D01*
D02*
G37*
G36*
X34646Y62153D02*
X34108Y62046D01*
X33652Y61742D01*
X33348Y61286D01*
X33326Y61176D01*
X32816D01*
X32794Y61286D01*
X32489Y61742D01*
X32034Y62046D01*
X31496Y62153D01*
X30958Y62046D01*
X30503Y61742D01*
X30198Y61286D01*
X30176Y61176D01*
X29666D01*
X29645Y61286D01*
X29340Y61742D01*
X28884Y62046D01*
X28346Y62153D01*
X27809Y62046D01*
X27353Y61742D01*
X27049Y61286D01*
X26941Y60748D01*
X27049Y60210D01*
X27353Y59755D01*
X27809Y59450D01*
X28346Y59343D01*
X28884Y59450D01*
X29340Y59755D01*
X29645Y60210D01*
X29666Y60321D01*
X30176D01*
X30198Y60210D01*
X30503Y59755D01*
X30958Y59450D01*
X31496Y59343D01*
X32034Y59450D01*
X32489Y59755D01*
X32794Y60210D01*
X32816Y60321D01*
X33326D01*
X33348Y60210D01*
X33652Y59755D01*
X34108Y59450D01*
X34646Y59343D01*
X35183Y59450D01*
X35639Y59755D01*
X35858Y60083D01*
X36358Y59931D01*
Y58143D01*
X36345Y58124D01*
X36353Y58080D01*
X36338Y58043D01*
X36358Y57638D01*
X36585D01*
Y57638D01*
X36585D01*
X36650Y57180D01*
X36657Y57069D01*
X36661Y56856D01*
X36674Y56826D01*
Y55823D01*
X36750Y55439D01*
X36968Y55113D01*
X38790Y53290D01*
X39116Y53073D01*
X39500Y52996D01*
X41084D01*
X41516Y52565D01*
Y51209D01*
X41503Y51180D01*
X41498Y50969D01*
X41482Y50798D01*
X41459Y50657D01*
X41430Y50550D01*
X41400Y50476D01*
X41375Y50436D01*
X41362Y50421D01*
X41359Y50419D01*
X41356Y50418D01*
X41294Y50412D01*
X41261Y50394D01*
X40551D01*
Y47638D01*
X44488D01*
Y50394D01*
X43779D01*
X43745Y50412D01*
X43683Y50418D01*
X43680Y50419D01*
X43678Y50421D01*
X43664Y50436D01*
X43639Y50476D01*
X43609Y50550D01*
X43580Y50657D01*
X43557Y50798D01*
X43542Y50969D01*
X43536Y51180D01*
X43523Y51209D01*
Y52980D01*
X43447Y53364D01*
X43772Y53777D01*
X44094Y53713D01*
X44632Y53820D01*
X45088Y54125D01*
X45393Y54580D01*
X45500Y55118D01*
X45393Y55656D01*
X45088Y56112D01*
X44632Y56416D01*
X44094Y56523D01*
X43557Y56416D01*
X43101Y56112D01*
X42796Y55656D01*
X42690Y55118D01*
X42735Y54892D01*
X42274Y54645D01*
X42210Y54710D01*
X41884Y54927D01*
X41500Y55003D01*
X39916D01*
X38681Y56239D01*
Y56821D01*
X38694Y56849D01*
X38704Y57180D01*
X38769Y57638D01*
X38769D01*
Y57638D01*
X38996D01*
X39017Y58043D01*
X39001Y58080D01*
X39009Y58124D01*
X38996Y58143D01*
Y60472D01*
X36506D01*
X36185Y60666D01*
X36033Y60838D01*
X35944Y61286D01*
X35639Y61742D01*
X35183Y62046D01*
X34646Y62153D01*
D02*
G37*
G36*
X56449Y60493D02*
X56043Y60473D01*
Y60245D01*
X56043Y60245D01*
Y60245D01*
X55595Y60087D01*
X55469Y60076D01*
X55260Y60072D01*
X55230Y60059D01*
X48474D01*
X48090Y59982D01*
X47765Y59765D01*
X46290Y58290D01*
X46073Y57965D01*
X45996Y57581D01*
Y47416D01*
X45077Y46496D01*
X44940Y46501D01*
X44488Y46623D01*
Y46623D01*
X44488Y46623D01*
X44488Y46850D01*
X44082Y46871D01*
X44060Y46862D01*
X44014Y46865D01*
X43990Y46850D01*
X43988Y46850D01*
X40551D01*
Y44094D01*
X43988D01*
X43990Y44094D01*
X44014Y44080D01*
X44060Y44083D01*
X44082Y44074D01*
X44488Y44094D01*
Y44322D01*
X44488Y44322D01*
Y44322D01*
X44941Y44443D01*
X45060Y44452D01*
X45271Y44456D01*
X45301Y44469D01*
X45472D01*
X45856Y44545D01*
X46182Y44763D01*
X47710Y46290D01*
X47927Y46616D01*
X48004Y47000D01*
Y57165D01*
X48890Y58052D01*
X55230D01*
X55260Y58039D01*
X55475Y58034D01*
X55595Y58027D01*
X56043Y57865D01*
Y57865D01*
X56043Y57865D01*
X56043Y57638D01*
X56449Y57617D01*
X56464Y57623D01*
X56511Y57622D01*
X56538Y57638D01*
X58681D01*
Y60472D01*
X56543D01*
X56538Y60473D01*
X56511Y60488D01*
X56464Y60487D01*
X56449Y60493D01*
D02*
G37*
G36*
X60236Y64370D02*
X57874D01*
Y62008D01*
X58644D01*
X58649Y62005D01*
X58661Y62008D01*
X58697D01*
X58717Y61999D01*
X58737Y62008D01*
X58992D01*
X59019Y61992D01*
X59116Y61924D01*
X59382Y61698D01*
X59534Y61550D01*
X59574Y61535D01*
X59945Y61164D01*
Y60903D01*
X59928Y60865D01*
X59925Y60729D01*
X59916Y60624D01*
X59902Y60543D01*
X59887Y60487D01*
X59881Y60472D01*
X59429D01*
Y57638D01*
X62067D01*
Y60472D01*
X61615D01*
X61609Y60487D01*
X61594Y60543D01*
X61580Y60624D01*
X61571Y60729D01*
X61568Y60865D01*
X61551Y60903D01*
Y61496D01*
X61551Y61496D01*
X61490Y61803D01*
X61316Y62064D01*
X61316Y62064D01*
X60713Y62666D01*
X60699Y62704D01*
X60418Y63006D01*
X60323Y63124D01*
X60252Y63226D01*
X60236Y63252D01*
Y63507D01*
X60245Y63527D01*
X60236Y63547D01*
Y63583D01*
X60239Y63595D01*
X60236Y63600D01*
Y64370D01*
D02*
G37*
G36*
X40551D02*
X38189D01*
Y62008D01*
X38959D01*
X38964Y62005D01*
X38976Y62008D01*
X39011D01*
X39032Y61999D01*
X39052Y62008D01*
X39307D01*
X39334Y61992D01*
X39431Y61924D01*
X39696Y61698D01*
X39849Y61550D01*
X39889Y61535D01*
X40260Y61164D01*
Y60903D01*
X40243Y60865D01*
X40240Y60729D01*
X40231Y60624D01*
X40217Y60543D01*
X40202Y60487D01*
X40196Y60472D01*
X39744D01*
Y57638D01*
X42382D01*
Y60472D01*
X41930D01*
X41924Y60487D01*
X41909Y60543D01*
X41895Y60624D01*
X41886Y60729D01*
X41883Y60865D01*
X41866Y60903D01*
Y61496D01*
X41866Y61496D01*
X41805Y61803D01*
X41631Y62064D01*
X41631Y62064D01*
X41028Y62666D01*
X41014Y62704D01*
X40733Y63006D01*
X40638Y63124D01*
X40567Y63226D01*
X40551Y63252D01*
Y63507D01*
X40560Y63527D01*
X40551Y63547D01*
Y63583D01*
X40554Y63595D01*
X40551Y63600D01*
Y64370D01*
D02*
G37*
G36*
X20866D02*
X18504D01*
Y62008D01*
X19274D01*
X19278Y62005D01*
X19291Y62008D01*
X19327D01*
X19347Y61999D01*
X19367Y62008D01*
X19622D01*
X19648Y61992D01*
X19746Y61924D01*
X20011Y61698D01*
X20164Y61550D01*
X20204Y61535D01*
X20575Y61164D01*
Y60903D01*
X20558Y60865D01*
X20555Y60729D01*
X20545Y60624D01*
X20532Y60543D01*
X20517Y60487D01*
X20511Y60472D01*
X20059D01*
Y57638D01*
X22697D01*
Y60472D01*
X22245D01*
X22239Y60487D01*
X22224Y60543D01*
X22210Y60624D01*
X22201Y60729D01*
X22198Y60865D01*
X22181Y60903D01*
Y61496D01*
X22181Y61496D01*
X22120Y61803D01*
X21946Y62064D01*
X21946Y62064D01*
X21343Y62666D01*
X21329Y62704D01*
X21048Y63006D01*
X20953Y63124D01*
X20882Y63226D01*
X20866Y63252D01*
Y63507D01*
X20875Y63527D01*
X20866Y63547D01*
Y63583D01*
X20869Y63595D01*
X20866Y63600D01*
Y64370D01*
D02*
G37*
G36*
X19311Y60472D02*
X16673D01*
Y58143D01*
X16660Y58124D01*
X16668Y58080D01*
X16653Y58043D01*
X16673Y57638D01*
X16900D01*
Y57638D01*
X16900D01*
X16965Y57180D01*
X16972Y57069D01*
X16975Y56856D01*
X16989Y56826D01*
Y55508D01*
X17065Y55124D01*
X17282Y54798D01*
X18290Y53790D01*
X18616Y53573D01*
X19000Y53496D01*
X33584D01*
X35217Y51864D01*
Y51209D01*
X35204Y51180D01*
X35198Y50969D01*
X35183Y50798D01*
X35160Y50657D01*
X35131Y50550D01*
X35101Y50476D01*
X35076Y50436D01*
X35062Y50421D01*
X35060Y50419D01*
X35057Y50418D01*
X34995Y50412D01*
X34961Y50394D01*
X34252D01*
Y47638D01*
X38189D01*
Y50394D01*
X37479D01*
X37446Y50412D01*
X37384Y50418D01*
X37381Y50419D01*
X37378Y50421D01*
X37365Y50436D01*
X37340Y50476D01*
X37310Y50550D01*
X37281Y50657D01*
X37258Y50798D01*
X37243Y50969D01*
X37237Y51180D01*
X37224Y51209D01*
Y52280D01*
X37148Y52664D01*
X36930Y52989D01*
X34710Y55210D01*
X34384Y55427D01*
X34000Y55503D01*
X19416D01*
X18996Y55924D01*
Y56821D01*
X19009Y56849D01*
X19019Y57180D01*
X19084Y57638D01*
X19084D01*
Y57638D01*
X19311D01*
X19331Y58043D01*
X19316Y58080D01*
X19324Y58124D01*
X19311Y58143D01*
Y60472D01*
D02*
G37*
G36*
X38189Y46850D02*
X34252D01*
Y44094D01*
X34586D01*
X34888Y43595D01*
X34815Y43228D01*
X34922Y42691D01*
X35227Y42235D01*
X35683Y41930D01*
X36220Y41823D01*
X36758Y41930D01*
X37214Y42235D01*
X37519Y42691D01*
X37625Y43228D01*
X37553Y43595D01*
X37854Y44094D01*
X38189D01*
Y46850D01*
D02*
G37*
G36*
X59272Y38445D02*
X58248D01*
Y37520D01*
X59272D01*
Y38445D01*
D02*
G37*
G36*
X17382D02*
X16358D01*
Y37520D01*
X17382D01*
Y38445D01*
D02*
G37*
G36*
X57461D02*
X56437D01*
Y37520D01*
X57461D01*
Y38445D01*
D02*
G37*
G36*
X15571D02*
X14547D01*
Y37520D01*
X15571D01*
Y38445D01*
D02*
G37*
G36*
X62776Y40775D02*
X62238Y40668D01*
X61782Y40363D01*
X61478Y39908D01*
X61371Y39370D01*
X61455Y38945D01*
X61358Y38445D01*
X61338Y38039D01*
X61344Y38024D01*
X61342Y37977D01*
X61358Y37950D01*
Y35807D01*
X64193D01*
Y37950D01*
X64209Y37977D01*
X64207Y38024D01*
X64213Y38039D01*
X64193Y38445D01*
X64096Y38945D01*
X64180Y39370D01*
X64074Y39908D01*
X63769Y40363D01*
X63313Y40668D01*
X62776Y40775D01*
D02*
G37*
G36*
X59272Y36732D02*
X58248D01*
Y35807D01*
X59272D01*
Y36732D01*
D02*
G37*
G36*
X57461D02*
X56437D01*
Y35807D01*
X57461D01*
Y36732D01*
D02*
G37*
G36*
X20886Y40775D02*
X20348Y40668D01*
X19892Y40363D01*
X19588Y39908D01*
X19481Y39370D01*
X19566Y38945D01*
X19468Y38445D01*
X19448Y38039D01*
X19454Y38024D01*
X19453Y37977D01*
X19468Y37950D01*
Y35807D01*
X22303D01*
Y37950D01*
X22319Y37977D01*
X22317Y38024D01*
X22324Y38039D01*
X22303Y38445D01*
X22206Y38945D01*
X22291Y39370D01*
X22184Y39908D01*
X21879Y40363D01*
X21423Y40668D01*
X20886Y40775D01*
D02*
G37*
G36*
X17382Y36732D02*
X16358D01*
Y35807D01*
X17382D01*
Y36732D01*
D02*
G37*
G36*
X15571D02*
X14547D01*
Y35807D01*
X15571D01*
Y36732D01*
D02*
G37*
G36*
X61764Y35080D02*
X61358Y35059D01*
Y34832D01*
X61358D01*
Y34832D01*
X60900Y34767D01*
X60790Y34760D01*
X60577Y34757D01*
X60546Y34744D01*
X60089D01*
X60060Y34757D01*
X59730Y34767D01*
X59272Y34832D01*
Y34832D01*
X59272D01*
Y35059D01*
X58866Y35080D01*
X58829Y35064D01*
X58785Y35072D01*
X58766Y35059D01*
X56437D01*
Y32421D01*
X58766D01*
X58785Y32408D01*
X58829Y32416D01*
X58866Y32401D01*
X59272Y32421D01*
Y32648D01*
X59272D01*
Y32648D01*
X59730Y32713D01*
X59840Y32720D01*
X60053Y32724D01*
X60084Y32737D01*
X60541D01*
X60570Y32724D01*
X60982Y32711D01*
X61135Y32697D01*
X61261Y32679D01*
X61355Y32658D01*
X61358Y32657D01*
Y32421D01*
X61663D01*
X61678Y32386D01*
X61703Y32302D01*
X61725Y32189D01*
X61755Y31847D01*
X61758Y31668D01*
X61753Y31481D01*
X61738Y31310D01*
X61715Y31169D01*
X61686Y31062D01*
X61656Y30988D01*
X61631Y30948D01*
X61617Y30933D01*
X61615Y30931D01*
X61612Y30930D01*
X61550Y30924D01*
X61517Y30906D01*
X60905D01*
Y24213D01*
X61538D01*
X61550Y24207D01*
X61611Y24200D01*
X61614Y24199D01*
X61616Y24198D01*
X61630Y24182D01*
X61655Y24141D01*
X61686Y24065D01*
X61715Y23956D01*
X61738Y23813D01*
X61753Y23640D01*
X61759Y23426D01*
X61772Y23397D01*
Y23066D01*
X61759Y23035D01*
X61758Y22931D01*
X61751Y22758D01*
X61738Y22631D01*
X61732Y22597D01*
X61727Y22578D01*
X61724Y22570D01*
X61723Y22565D01*
X61719Y22552D01*
X61478Y22191D01*
X61371Y21654D01*
X61478Y21116D01*
X61782Y20660D01*
X62238Y20356D01*
X62776Y20249D01*
X63313Y20356D01*
X63769Y20660D01*
X64074Y21116D01*
X64180Y21654D01*
X64074Y22191D01*
X63832Y22552D01*
X63828Y22565D01*
X63828Y22570D01*
X63824Y22578D01*
X63819Y22597D01*
X63814Y22624D01*
X63793Y22937D01*
X63792Y23035D01*
X63779Y23066D01*
Y23397D01*
X63792Y23426D01*
X63798Y23640D01*
X63813Y23813D01*
X63836Y23956D01*
X63866Y24065D01*
X63896Y24141D01*
X63921Y24182D01*
X63935Y24198D01*
X63938Y24199D01*
X63940Y24200D01*
X64002Y24207D01*
X64013Y24213D01*
X64646D01*
Y30906D01*
X64035D01*
X64001Y30924D01*
X63939Y30930D01*
X63936Y30931D01*
X63934Y30933D01*
X63920Y30948D01*
X63895Y30988D01*
X63865Y31062D01*
X63836Y31169D01*
X63813Y31310D01*
X63798Y31481D01*
X63793Y31668D01*
X63796Y31853D01*
X63804Y31973D01*
X63966Y32421D01*
X63966D01*
X63966Y32421D01*
X64193Y32421D01*
X64213Y32827D01*
X64207Y32842D01*
X64209Y32889D01*
X64193Y32916D01*
Y35059D01*
X61864D01*
X61845Y35072D01*
X61800Y35064D01*
X61764Y35080D01*
D02*
G37*
G36*
X19874D02*
X19468Y35059D01*
Y34832D01*
X19468D01*
Y34832D01*
X19010Y34767D01*
X18900Y34760D01*
X18687Y34757D01*
X18657Y34744D01*
X18199D01*
X18170Y34757D01*
X17840Y34767D01*
X17382Y34832D01*
Y34832D01*
X17382D01*
Y35059D01*
X16976Y35080D01*
X16940Y35064D01*
X16896Y35072D01*
X16876Y35059D01*
X14547D01*
Y32421D01*
X16876D01*
X16896Y32408D01*
X16940Y32416D01*
X16976Y32401D01*
X17382Y32421D01*
Y32648D01*
X17382D01*
Y32648D01*
X17840Y32713D01*
X17950Y32720D01*
X18163Y32724D01*
X18194Y32737D01*
X18651D01*
X18680Y32724D01*
X19093Y32711D01*
X19245Y32697D01*
X19372Y32679D01*
X19465Y32658D01*
X19468Y32657D01*
Y32421D01*
X19773D01*
X19789Y32386D01*
X19813Y32302D01*
X19835Y32189D01*
X19865Y31847D01*
X19869Y31668D01*
X19864Y31481D01*
X19849Y31310D01*
X19825Y31169D01*
X19796Y31062D01*
X19766Y30988D01*
X19741Y30948D01*
X19728Y30933D01*
X19725Y30931D01*
X19723Y30930D01*
X19660Y30924D01*
X19627Y30906D01*
X19016D01*
Y24213D01*
X19649D01*
X19660Y24207D01*
X19722Y24200D01*
X19724Y24199D01*
X19726Y24198D01*
X19740Y24182D01*
X19765Y24141D01*
X19796Y24065D01*
X19825Y23956D01*
X19849Y23813D01*
X19864Y23640D01*
X19869Y23426D01*
X19882Y23397D01*
Y23066D01*
X19869Y23035D01*
X19868Y22931D01*
X19861Y22758D01*
X19848Y22631D01*
X19842Y22597D01*
X19838Y22578D01*
X19834Y22570D01*
X19833Y22565D01*
X19829Y22552D01*
X19588Y22191D01*
X19481Y21654D01*
X19588Y21116D01*
X19892Y20660D01*
X20348Y20356D01*
X20886Y20249D01*
X21423Y20356D01*
X21879Y20660D01*
X22184Y21116D01*
X22291Y21654D01*
X22184Y22191D01*
X21943Y22552D01*
X21938Y22565D01*
X21938Y22570D01*
X21934Y22578D01*
X21929Y22597D01*
X21925Y22624D01*
X21903Y22937D01*
X21903Y23035D01*
X21889Y23066D01*
Y23397D01*
X21902Y23426D01*
X21908Y23640D01*
X21923Y23813D01*
X21947Y23956D01*
X21976Y24065D01*
X22006Y24141D01*
X22031Y24182D01*
X22046Y24198D01*
X22048Y24199D01*
X22050Y24200D01*
X22112Y24207D01*
X22123Y24213D01*
X22756D01*
Y30906D01*
X22145D01*
X22111Y30924D01*
X22049Y30930D01*
X22046Y30931D01*
X22044Y30933D01*
X22030Y30948D01*
X22005Y30988D01*
X21975Y31062D01*
X21946Y31169D01*
X21923Y31310D01*
X21908Y31481D01*
X21903Y31668D01*
X21906Y31853D01*
X21914Y31973D01*
X22076Y32421D01*
X22076D01*
X22076Y32421D01*
X22303Y32421D01*
X22324Y32827D01*
X22317Y32842D01*
X22319Y32889D01*
X22303Y32916D01*
Y35059D01*
X19974D01*
X19955Y35072D01*
X19911Y35064D01*
X19874Y35080D01*
D02*
G37*
G36*
X59724Y30906D02*
X58248D01*
Y27953D01*
X59724D01*
Y30906D01*
D02*
G37*
G36*
X17835D02*
X16358D01*
Y27953D01*
X17835D01*
Y30906D01*
D02*
G37*
G36*
X57461D02*
X55984D01*
Y27953D01*
X57461D01*
Y30906D01*
D02*
G37*
G36*
X15571D02*
X14095D01*
Y27953D01*
X15571D01*
Y30906D01*
D02*
G37*
G36*
X59724Y27165D02*
X58248D01*
Y24213D01*
X59724D01*
Y27165D01*
D02*
G37*
G36*
X57461D02*
X55984D01*
Y24213D01*
X57461D01*
Y27165D01*
D02*
G37*
G36*
X17835D02*
X16358D01*
Y24213D01*
X17835D01*
Y27165D01*
D02*
G37*
G36*
X15571D02*
X14095D01*
Y24213D01*
X15571D01*
Y27165D01*
D02*
G37*
G36*
X57854Y23058D02*
X57317Y22952D01*
X56861Y22647D01*
X56556Y22191D01*
X56449Y21654D01*
X56556Y21116D01*
X56861Y20660D01*
X57317Y20356D01*
X57854Y20249D01*
X58392Y20356D01*
X58848Y20660D01*
X59152Y21116D01*
X59259Y21654D01*
X59152Y22191D01*
X58848Y22647D01*
X58392Y22952D01*
X57854Y23058D01*
D02*
G37*
G36*
X15965D02*
X15427Y22952D01*
X14971Y22647D01*
X14667Y22191D01*
X14560Y21654D01*
X14667Y21116D01*
X14971Y20660D01*
X15427Y20356D01*
X15965Y20249D01*
X16502Y20356D01*
X16958Y20660D01*
X17263Y21116D01*
X17369Y21654D01*
X17263Y22191D01*
X16958Y22647D01*
X16502Y22952D01*
X15965Y23058D01*
D02*
G37*
G36*
X77146Y22441D02*
X73209D01*
Y16535D01*
X77146D01*
Y22441D01*
D02*
G37*
G36*
X35256D02*
X31319D01*
Y16535D01*
X35256D01*
Y22441D01*
D02*
G37*
G36*
X10256D02*
X6319D01*
Y16535D01*
X10256D01*
Y22441D01*
D02*
G37*
G36*
X52146D02*
X48209D01*
Y16535D01*
X52146D01*
Y22441D01*
D02*
G37*
G36*
X72421D02*
X68484D01*
Y16535D01*
X72421D01*
Y22441D01*
D02*
G37*
G36*
X30531D02*
X26594D01*
Y16535D01*
X30531D01*
Y22441D01*
D02*
G37*
G36*
X5531D02*
X1595D01*
Y16535D01*
X5531D01*
Y22441D01*
D02*
G37*
G36*
X47421D02*
X43484D01*
Y16535D01*
X47421D01*
Y22441D01*
D02*
G37*
G36*
X77146Y15748D02*
X73209D01*
Y9843D01*
X77146D01*
Y15748D01*
D02*
G37*
G36*
X72421D02*
X68484D01*
Y9843D01*
X72421D01*
Y15748D01*
D02*
G37*
G36*
X52146D02*
X48209D01*
Y9843D01*
X52146D01*
Y15748D01*
D02*
G37*
G36*
X47421D02*
X43484D01*
Y9843D01*
X47421D01*
Y15748D01*
D02*
G37*
G36*
X35256D02*
X31319D01*
Y9843D01*
X35256D01*
Y15748D01*
D02*
G37*
G36*
X30531D02*
X26594D01*
Y9843D01*
X30531D01*
Y15748D01*
D02*
G37*
G36*
X10256D02*
X6319D01*
Y9843D01*
X10256D01*
Y15748D01*
D02*
G37*
G36*
X5531D02*
X1595D01*
Y9843D01*
X5531D01*
Y15748D01*
D02*
G37*
%LPD*%
G36*
X28113Y150055D02*
X28152Y149484D01*
X28185Y149252D01*
X28229Y149056D01*
X28282Y148895D01*
X28344Y148770D01*
X28416Y148681D01*
X28498Y148628D01*
X28589Y148610D01*
X25660D01*
X25751Y148628D01*
X25833Y148681D01*
X25905Y148770D01*
X25967Y148895D01*
X26020Y149056D01*
X26063Y149252D01*
X26097Y149484D01*
X26121Y149752D01*
X26140Y150394D01*
X28109D01*
X28113Y150055D01*
D02*
G37*
G36*
X28111Y145715D02*
X28124Y145661D01*
X28140Y145608D01*
X28161Y145555D01*
X28187Y145503D01*
X28216Y145451D01*
X28251Y145400D01*
X28290Y145349D01*
X28333Y145299D01*
X28380Y145248D01*
X27545Y144413D01*
X27495Y144461D01*
X27445Y144504D01*
X27394Y144543D01*
X27342Y144577D01*
X27290Y144607D01*
X27238Y144632D01*
X27185Y144654D01*
X27132Y144670D01*
X27079Y144682D01*
X27025Y144690D01*
X28104Y145769D01*
X28111Y145715D01*
D02*
G37*
G36*
X25672Y143701D02*
X25652Y143888D01*
X25593Y144055D01*
X25494Y144203D01*
X25355Y144331D01*
X25177Y144439D01*
X24959Y144527D01*
X24702Y144596D01*
X24405Y144646D01*
X24068Y144675D01*
X23692Y144685D01*
Y146653D01*
X24068Y146663D01*
X24405Y146693D01*
X24702Y146742D01*
X24959Y146811D01*
X25177Y146900D01*
X25355Y147008D01*
X25494Y147136D01*
X25593Y147283D01*
X25652Y147451D01*
X25672Y147638D01*
Y143701D01*
D02*
G37*
G36*
X28582Y142721D02*
X28576Y142697D01*
X28571Y142657D01*
X28562Y142530D01*
X28553Y141935D01*
X27372D01*
X27370Y142086D01*
X27340Y142443D01*
X27322Y142530D01*
X27299Y142602D01*
X27273Y142657D01*
X27242Y142697D01*
X27208Y142721D01*
X27170Y142728D01*
X28589D01*
X28582Y142721D01*
D02*
G37*
G36*
X28943Y141400D02*
X28971Y141053D01*
X28987Y140968D01*
X29007Y140899D01*
X29030Y140845D01*
X29057Y140806D01*
X29088Y140783D01*
X29123Y140775D01*
X27747D01*
X27749Y140783D01*
X27752Y140806D01*
X27755Y140899D01*
X27760Y141547D01*
X28942D01*
X28943Y141400D01*
D02*
G37*
G36*
X22665Y135677D02*
X20642D01*
X20647Y135697D01*
X20652Y135756D01*
X20662Y136169D01*
X20669Y137645D01*
X22638D01*
X22665Y135677D01*
D02*
G37*
G36*
X33115Y142717D02*
X33014Y142681D01*
X32926Y142622D01*
X32849Y142540D01*
X32784Y142433D01*
X32731Y142303D01*
X32689Y142150D01*
X32660Y141973D01*
X32642Y141772D01*
X32641Y141715D01*
X32665Y141354D01*
X32688Y141201D01*
X32717Y141071D01*
X32752Y140964D01*
X32794Y140882D01*
X32843Y140823D01*
X32898Y140787D01*
X32959Y140775D01*
X31133D01*
X31194Y140787D01*
X31249Y140823D01*
X31297Y140882D01*
X31339Y140964D01*
X31374Y141071D01*
X31403Y141201D01*
X31426Y141354D01*
X31442Y141531D01*
X31449Y141767D01*
X31449Y141772D01*
X31431Y141973D01*
X31402Y142150D01*
X31361Y142303D01*
X31308Y142433D01*
X31242Y142540D01*
X31166Y142622D01*
X31077Y142681D01*
X30977Y142717D01*
X30865Y142728D01*
X33227D01*
X33115Y142717D01*
D02*
G37*
G36*
X38036D02*
X37935Y142681D01*
X37847Y142622D01*
X37770Y142540D01*
X37705Y142433D01*
X37652Y142303D01*
X37611Y142150D01*
X37581Y141973D01*
X37563Y141772D01*
X37558Y141547D01*
X36376D01*
X36371Y141772D01*
X36353Y141973D01*
X36323Y142150D01*
X36282Y142303D01*
X36229Y142433D01*
X36164Y142540D01*
X36087Y142622D01*
X35998Y142681D01*
X35898Y142717D01*
X35786Y142728D01*
X38148D01*
X38036Y142717D01*
D02*
G37*
G36*
X33039Y135039D02*
X32813Y135034D01*
X32611Y135016D01*
X32432Y134986D01*
X32278Y134945D01*
X32146Y134892D01*
X32039Y134827D01*
X31955Y134750D01*
X31895Y134661D01*
X31859Y134561D01*
X31846Y134449D01*
X31858Y136208D01*
X33039Y136221D01*
Y135039D01*
D02*
G37*
G36*
X24847Y130197D02*
X24835Y130309D01*
X24799Y130410D01*
X24739Y130498D01*
X24656Y130575D01*
X24549Y130640D01*
X24417Y130693D01*
X24262Y130734D01*
X24083Y130764D01*
X23880Y130781D01*
X23722Y130786D01*
X23622Y130784D01*
X23244Y130758D01*
X23090Y130736D01*
X22960Y130707D01*
X22854Y130671D01*
X22772Y130629D01*
X22712Y130581D01*
X22677Y130526D01*
X22665Y130465D01*
Y132291D01*
X22677Y132230D01*
X22712Y132175D01*
X22772Y132127D01*
X22854Y132085D01*
X22960Y132049D01*
X23090Y132020D01*
X23244Y131998D01*
X23421Y131981D01*
X23757Y131971D01*
X23880Y131974D01*
X24083Y131992D01*
X24262Y132022D01*
X24417Y132063D01*
X24549Y132116D01*
X24656Y132181D01*
X24739Y132258D01*
X24799Y132346D01*
X24835Y132447D01*
X24847Y132559D01*
Y130197D01*
D02*
G37*
G36*
X31857Y128547D02*
X31890Y128462D01*
X31945Y128386D01*
X32023Y128321D01*
X32122Y128266D01*
X32243Y128221D01*
X32387Y128186D01*
X32552Y128161D01*
X32740Y128146D01*
X32950Y128141D01*
Y126960D01*
X32740Y126955D01*
X32552Y126940D01*
X32387Y126915D01*
X32243Y126879D01*
X32122Y126834D01*
X32023Y126779D01*
X31945Y126714D01*
X31890Y126639D01*
X31857Y126554D01*
X31846Y126458D01*
Y128642D01*
X31857Y128547D01*
D02*
G37*
G36*
X37466Y116299D02*
X37484Y116098D01*
X37513Y115921D01*
X37553Y115768D01*
X37605Y115638D01*
X37669Y115531D01*
X37744Y115449D01*
X37831Y115390D01*
X37929Y115354D01*
X38039Y115342D01*
X35701D01*
X35811Y115354D01*
X35909Y115390D01*
X35996Y115449D01*
X36071Y115531D01*
X36135Y115638D01*
X36187Y115768D01*
X36228Y115921D01*
X36256Y116098D01*
X36274Y116299D01*
X36279Y116523D01*
X37461D01*
X37466Y116299D01*
D02*
G37*
G36*
X42957Y142717D02*
X42857Y142681D01*
X42768Y142622D01*
X42691Y142540D01*
X42626Y142433D01*
X42573Y142303D01*
X42532Y142150D01*
X42502Y141973D01*
X42485Y141772D01*
X42479Y141547D01*
X41298D01*
X41292Y141772D01*
X41274Y141973D01*
X41245Y142150D01*
X41203Y142303D01*
X41150Y142433D01*
X41085Y142540D01*
X41008Y142622D01*
X40920Y142681D01*
X40819Y142717D01*
X40707Y142728D01*
X43069D01*
X42957Y142717D01*
D02*
G37*
G36*
X46882Y136208D02*
X46894Y134449D01*
X46881Y134561D01*
X46845Y134661D01*
X46785Y134750D01*
X46701Y134827D01*
X46594Y134892D01*
X46463Y134945D01*
X46308Y134986D01*
X46129Y135016D01*
X45927Y135034D01*
X45701Y135039D01*
Y136221D01*
X46882Y136208D01*
D02*
G37*
G36*
X53905Y132447D02*
X53941Y132346D01*
X54001Y132258D01*
X54084Y132181D01*
X54192Y132116D01*
X54323Y132063D01*
X54478Y132022D01*
X54657Y131992D01*
X54860Y131974D01*
X55018Y131970D01*
X55118Y131972D01*
X55496Y131998D01*
X55650Y132020D01*
X55780Y132049D01*
X55886Y132085D01*
X55969Y132127D01*
X56028Y132175D01*
X56063Y132230D01*
X56075Y132291D01*
Y130465D01*
X56063Y130526D01*
X56028Y130581D01*
X55969Y130629D01*
X55886Y130671D01*
X55780Y130707D01*
X55650Y130736D01*
X55496Y130758D01*
X55319Y130774D01*
X54983Y130785D01*
X54860Y130781D01*
X54657Y130764D01*
X54478Y130734D01*
X54323Y130693D01*
X54192Y130640D01*
X54084Y130575D01*
X54001Y130498D01*
X53941Y130410D01*
X53905Y130309D01*
X53893Y130197D01*
Y132559D01*
X53905Y132447D01*
D02*
G37*
G36*
X46894Y126198D02*
X46883Y126294D01*
X46850Y126379D01*
X46795Y126454D01*
X46718Y126519D01*
X46618Y126575D01*
X46497Y126620D01*
X46353Y126655D01*
X46188Y126680D01*
X46000Y126695D01*
X45790Y126700D01*
Y127881D01*
X46000Y127886D01*
X46188Y127901D01*
X46353Y127926D01*
X46497Y127961D01*
X46618Y128006D01*
X46718Y128061D01*
X46795Y128127D01*
X46850Y128202D01*
X46883Y128287D01*
X46894Y128382D01*
Y126198D01*
D02*
G37*
G36*
X42466Y116299D02*
X42484Y116098D01*
X42513Y115921D01*
X42553Y115768D01*
X42605Y115638D01*
X42669Y115531D01*
X42744Y115449D01*
X42831Y115390D01*
X42929Y115354D01*
X43039Y115342D01*
X40701D01*
X40811Y115354D01*
X40909Y115390D01*
X40996Y115449D01*
X41071Y115531D01*
X41135Y115638D01*
X41187Y115768D01*
X41227Y115921D01*
X41256Y116098D01*
X41274Y116299D01*
X41280Y116523D01*
X42461D01*
X42466Y116299D01*
D02*
G37*
G36*
X47894Y118254D02*
X47929Y118199D01*
X47988Y118150D01*
X48071Y118108D01*
X48177Y118073D01*
X48307Y118044D01*
X48316Y118042D01*
X48353Y118055D01*
X48387Y118072D01*
X48411Y118091D01*
Y118028D01*
X48460Y118021D01*
X48638Y118005D01*
X49022Y117993D01*
X49114Y117992D01*
Y116811D01*
X49021Y116810D01*
X48838Y116808D01*
X48460Y116782D01*
X48411Y116775D01*
Y116713D01*
X48387Y116731D01*
X48353Y116748D01*
X48316Y116761D01*
X48307Y116759D01*
X48177Y116730D01*
X48071Y116695D01*
X47988Y116653D01*
X47929Y116604D01*
X47894Y116550D01*
X47884Y116498D01*
X47945Y115519D01*
X47973Y115421D01*
X48004Y115362D01*
X48039Y115342D01*
X47858D01*
X47854Y114520D01*
X45886D01*
X45874Y115342D01*
X45701D01*
X45736Y115362D01*
X45768Y115421D01*
X45795Y115519D01*
X45819Y115657D01*
X45840Y115834D01*
X45862Y116268D01*
X45858Y116488D01*
X45873D01*
X45878Y116602D01*
X45886Y117311D01*
X47490D01*
Y118166D01*
X47545Y118133D01*
X47624Y118104D01*
X47726Y118077D01*
X47853Y118055D01*
X47882Y118052D01*
Y118315D01*
X47894Y118254D01*
D02*
G37*
%LPC*%
G36*
X47882Y116750D02*
X47868Y116749D01*
X47882Y116529D01*
Y116750D01*
D02*
G37*
%LPD*%
G36*
X47878Y142717D02*
X47778Y142681D01*
X47689Y142622D01*
X47613Y142540D01*
X47548Y142433D01*
X47495Y142303D01*
X47453Y142150D01*
X47424Y141973D01*
X47406Y141772D01*
X47400Y141547D01*
X46219D01*
X46213Y141772D01*
X46195Y141973D01*
X46166Y142150D01*
X46124Y142303D01*
X46071Y142433D01*
X46006Y142540D01*
X45930Y142622D01*
X45841Y142681D01*
X45741Y142717D01*
X45628Y142728D01*
X47991D01*
X47878Y142717D01*
D02*
G37*
G36*
X67324Y115696D02*
X67348Y115349D01*
X67358Y115286D01*
X67371Y115233D01*
X67386Y115190D01*
X67403Y115156D01*
X67421Y115132D01*
X66043D01*
X66062Y115156D01*
X66079Y115190D01*
X66093Y115233D01*
X66106Y115286D01*
X66117Y115349D01*
X66133Y115503D01*
X66141Y115696D01*
X66142Y115807D01*
X67323D01*
X67324Y115696D01*
D02*
G37*
G36*
X40935Y103347D02*
X40905Y103343D01*
X40869Y103331D01*
X40828Y103310D01*
X40781Y103282D01*
X40729Y103245D01*
X40609Y103147D01*
X40467Y103016D01*
X40388Y102939D01*
X39553Y103774D01*
X39631Y103853D01*
X39859Y104115D01*
X39896Y104167D01*
X39924Y104214D01*
X39945Y104255D01*
X39957Y104291D01*
X39961Y104321D01*
X40935Y103347D01*
D02*
G37*
G36*
X37785D02*
X37755Y103343D01*
X37720Y103331D01*
X37678Y103310D01*
X37632Y103282D01*
X37580Y103245D01*
X37460Y103147D01*
X37318Y103016D01*
X37238Y102939D01*
X36403Y103774D01*
X36481Y103853D01*
X36710Y104115D01*
X36746Y104167D01*
X36775Y104214D01*
X36795Y104255D01*
X36807Y104291D01*
X36811Y104321D01*
X37785Y103347D01*
D02*
G37*
G36*
X34787Y103357D02*
X34768Y103350D01*
X34742Y103336D01*
X34710Y103314D01*
X34670Y103283D01*
X34513Y103143D01*
X34294Y102931D01*
X33294Y103602D01*
X33371Y103681D01*
X33551Y103888D01*
X33593Y103947D01*
X33627Y104002D01*
X33652Y104051D01*
X33668Y104096D01*
X33676Y104136D01*
X33675Y104170D01*
X34787Y103357D01*
D02*
G37*
G36*
X32929Y89370D02*
X32831Y89335D01*
X32744Y89276D01*
X32669Y89193D01*
X32605Y89087D01*
X32553Y88957D01*
X32513Y88803D01*
X32484Y88626D01*
X32480Y88588D01*
X32485Y88518D01*
X32496Y88456D01*
X32509Y88403D01*
X32524Y88359D01*
X32540Y88326D01*
X32559Y88301D01*
X32463D01*
X32461Y88201D01*
X31280D01*
X31277Y88301D01*
X31181D01*
X31200Y88325D01*
X31216Y88359D01*
X31231Y88403D01*
X31244Y88456D01*
X31255Y88518D01*
X31261Y88576D01*
X31256Y88626D01*
X31227Y88803D01*
X31187Y88957D01*
X31135Y89087D01*
X31071Y89193D01*
X30996Y89276D01*
X30909Y89335D01*
X30811Y89370D01*
X30701Y89382D01*
X33039D01*
X32929Y89370D01*
D02*
G37*
G36*
X61342Y80708D02*
X61368Y80330D01*
X61390Y80177D01*
X61419Y80047D01*
X61455Y79941D01*
X61497Y79858D01*
X61545Y79799D01*
X61600Y79764D01*
X61661Y79752D01*
X59835D01*
X59896Y79764D01*
X59951Y79799D01*
X59999Y79858D01*
X60041Y79941D01*
X60077Y80047D01*
X60106Y80177D01*
X60128Y80330D01*
X60145Y80508D01*
X60158Y80933D01*
X61339D01*
X61342Y80708D01*
D02*
G37*
G36*
X41657D02*
X41683Y80330D01*
X41705Y80177D01*
X41734Y80047D01*
X41770Y79941D01*
X41812Y79858D01*
X41860Y79799D01*
X41915Y79764D01*
X41976Y79752D01*
X40150D01*
X40211Y79764D01*
X40266Y79799D01*
X40314Y79858D01*
X40356Y79941D01*
X40392Y80047D01*
X40421Y80177D01*
X40443Y80330D01*
X40459Y80508D01*
X40472Y80933D01*
X41653D01*
X41657Y80708D01*
D02*
G37*
G36*
X21972D02*
X21997Y80330D01*
X22020Y80177D01*
X22049Y80047D01*
X22085Y79941D01*
X22127Y79858D01*
X22175Y79799D01*
X22230Y79764D01*
X22291Y79752D01*
X20465D01*
X20526Y79764D01*
X20581Y79799D01*
X20629Y79858D01*
X20671Y79941D01*
X20707Y80047D01*
X20736Y80177D01*
X20758Y80330D01*
X20775Y80508D01*
X20787Y80933D01*
X21969D01*
X21972Y80708D01*
D02*
G37*
G36*
X47929Y89370D02*
X47831Y89335D01*
X47744Y89276D01*
X47669Y89193D01*
X47605Y89087D01*
X47553Y88957D01*
X47513Y88803D01*
X47484Y88626D01*
X47480Y88588D01*
X47485Y88518D01*
X47496Y88456D01*
X47509Y88403D01*
X47524Y88359D01*
X47540Y88326D01*
X47559Y88301D01*
X47463D01*
X47461Y88201D01*
X46279D01*
X46277Y88301D01*
X46181D01*
X46200Y88325D01*
X46216Y88359D01*
X46231Y88403D01*
X46244Y88456D01*
X46255Y88518D01*
X46261Y88576D01*
X46256Y88626D01*
X46227Y88803D01*
X46187Y88957D01*
X46135Y89087D01*
X46071Y89193D01*
X45996Y89276D01*
X45909Y89335D01*
X45811Y89370D01*
X45701Y89382D01*
X48039D01*
X47929Y89370D01*
D02*
G37*
G36*
X42929D02*
X42831Y89335D01*
X42744Y89276D01*
X42669Y89193D01*
X42605Y89087D01*
X42553Y88957D01*
X42513Y88803D01*
X42484Y88626D01*
X42480Y88588D01*
X42485Y88518D01*
X42496Y88456D01*
X42509Y88403D01*
X42524Y88359D01*
X42540Y88326D01*
X42559Y88301D01*
X42463D01*
X42461Y88201D01*
X41280D01*
X41277Y88301D01*
X41181D01*
X41200Y88325D01*
X41216Y88359D01*
X41231Y88403D01*
X41244Y88456D01*
X41255Y88518D01*
X41261Y88576D01*
X41256Y88626D01*
X41227Y88803D01*
X41187Y88957D01*
X41135Y89087D01*
X41071Y89193D01*
X40996Y89276D01*
X40909Y89335D01*
X40811Y89370D01*
X40701Y89382D01*
X43039D01*
X42929Y89370D01*
D02*
G37*
G36*
X37929D02*
X37831Y89335D01*
X37744Y89276D01*
X37669Y89193D01*
X37605Y89087D01*
X37553Y88957D01*
X37513Y88803D01*
X37484Y88626D01*
X37481Y88588D01*
X37485Y88518D01*
X37496Y88456D01*
X37509Y88403D01*
X37524Y88359D01*
X37540Y88326D01*
X37559Y88301D01*
X37463D01*
X37461Y88201D01*
X36279D01*
X36277Y88301D01*
X36181D01*
X36200Y88325D01*
X36217Y88359D01*
X36231Y88403D01*
X36244Y88456D01*
X36255Y88518D01*
X36261Y88576D01*
X36256Y88626D01*
X36228Y88803D01*
X36187Y88957D01*
X36135Y89087D01*
X36071Y89193D01*
X35996Y89276D01*
X35909Y89335D01*
X35811Y89370D01*
X35701Y89382D01*
X38039D01*
X37929Y89370D01*
D02*
G37*
G36*
X38390Y77721D02*
X38323Y77697D01*
X38264Y77658D01*
X38213Y77602D01*
X38169Y77532D01*
X38134Y77445D01*
X38106Y77343D01*
X38087Y77225D01*
X38075Y77091D01*
X38071Y76941D01*
X37284D01*
X37279Y77091D01*
X37268Y77225D01*
X37248Y77343D01*
X37220Y77445D01*
X37185Y77532D01*
X37142Y77602D01*
X37091Y77658D01*
X37031Y77697D01*
X36965Y77721D01*
X36890Y77728D01*
X38465D01*
X38390Y77721D01*
D02*
G37*
G36*
X38075Y76452D02*
X38087Y76319D01*
X38106Y76201D01*
X38134Y76098D01*
X38169Y76012D01*
X38213Y75941D01*
X38264Y75886D01*
X38323Y75846D01*
X38390Y75823D01*
X38465Y75815D01*
X36890D01*
X36965Y75823D01*
X37031Y75846D01*
X37091Y75886D01*
X37142Y75941D01*
X37185Y76012D01*
X37220Y76098D01*
X37248Y76201D01*
X37268Y76319D01*
X37279Y76452D01*
X37284Y76602D01*
X38071D01*
X38075Y76452D01*
D02*
G37*
G36*
X38390Y73795D02*
X38323Y73772D01*
X38264Y73732D01*
X38213Y73676D01*
X38169Y73604D01*
X38134Y73516D01*
X38106Y73412D01*
X38087Y73292D01*
X38075Y73156D01*
X38071Y73004D01*
X37284D01*
X37279Y73156D01*
X37268Y73292D01*
X37248Y73412D01*
X37220Y73516D01*
X37185Y73604D01*
X37142Y73676D01*
X37091Y73732D01*
X37031Y73772D01*
X36965Y73795D01*
X36890Y73804D01*
X38465D01*
X38390Y73795D01*
D02*
G37*
G36*
X38075Y72515D02*
X38087Y72382D01*
X38106Y72264D01*
X38134Y72161D01*
X38169Y72075D01*
X38213Y72004D01*
X38264Y71949D01*
X38323Y71909D01*
X38390Y71886D01*
X38465Y71878D01*
X36890D01*
X36965Y71886D01*
X37031Y71909D01*
X37091Y71949D01*
X37142Y72004D01*
X37185Y72075D01*
X37220Y72161D01*
X37248Y72264D01*
X37268Y72382D01*
X37279Y72515D01*
X37284Y72665D01*
X38071D01*
X38075Y72515D01*
D02*
G37*
G36*
X38498Y69858D02*
X38431Y69835D01*
X38372Y69795D01*
X38321Y69739D01*
X38278Y69667D01*
X38242Y69579D01*
X38215Y69475D01*
X38195Y69355D01*
X38183Y69219D01*
X38179Y69067D01*
X37392D01*
X37388Y69219D01*
X37376Y69355D01*
X37356Y69475D01*
X37329Y69579D01*
X37293Y69667D01*
X37250Y69739D01*
X37199Y69795D01*
X37140Y69835D01*
X37073Y69858D01*
X36998Y69867D01*
X38573D01*
X38498Y69858D01*
D02*
G37*
G36*
X38183Y68146D02*
X38195Y68012D01*
X38215Y67893D01*
X38242Y67791D01*
X38278Y67704D01*
X38321Y67634D01*
X38372Y67579D01*
X38431Y67539D01*
X38498Y67515D01*
X38573Y67508D01*
X37118D01*
X37170Y67515D01*
X37217Y67539D01*
X37258Y67579D01*
X37293Y67634D01*
X37323Y67704D01*
X37348Y67791D01*
X37367Y67893D01*
X37381Y68012D01*
X37389Y68146D01*
X37392Y68295D01*
X38179D01*
X38183Y68146D01*
D02*
G37*
G36*
X58075Y77721D02*
X58008Y77697D01*
X57949Y77658D01*
X57898Y77602D01*
X57854Y77532D01*
X57819Y77445D01*
X57791Y77343D01*
X57772Y77225D01*
X57760Y77091D01*
X57756Y76941D01*
X56968D01*
X56965Y77091D01*
X56953Y77225D01*
X56933Y77343D01*
X56906Y77445D01*
X56870Y77532D01*
X56827Y77602D01*
X56776Y77658D01*
X56717Y77697D01*
X56650Y77721D01*
X56575Y77728D01*
X58150D01*
X58075Y77721D01*
D02*
G37*
G36*
X57760Y76452D02*
X57772Y76319D01*
X57791Y76201D01*
X57819Y76098D01*
X57854Y76012D01*
X57898Y75941D01*
X57949Y75886D01*
X58008Y75846D01*
X58075Y75823D01*
X58150Y75815D01*
X56575D01*
X56650Y75823D01*
X56717Y75846D01*
X56776Y75886D01*
X56827Y75941D01*
X56870Y76012D01*
X56906Y76098D01*
X56933Y76201D01*
X56953Y76319D01*
X56965Y76452D01*
X56968Y76602D01*
X57756D01*
X57760Y76452D01*
D02*
G37*
G36*
X58075Y73795D02*
X58008Y73772D01*
X57949Y73732D01*
X57898Y73676D01*
X57854Y73604D01*
X57819Y73516D01*
X57791Y73412D01*
X57772Y73292D01*
X57760Y73156D01*
X57756Y73004D01*
X56968D01*
X56965Y73156D01*
X56953Y73292D01*
X56933Y73412D01*
X56906Y73516D01*
X56870Y73604D01*
X56827Y73676D01*
X56776Y73732D01*
X56717Y73772D01*
X56650Y73795D01*
X56575Y73804D01*
X58150D01*
X58075Y73795D01*
D02*
G37*
G36*
X57760Y72515D02*
X57772Y72382D01*
X57791Y72264D01*
X57819Y72161D01*
X57854Y72075D01*
X57898Y72004D01*
X57949Y71949D01*
X58008Y71909D01*
X58075Y71886D01*
X58150Y71878D01*
X56575D01*
X56650Y71886D01*
X56717Y71909D01*
X56776Y71949D01*
X56827Y72004D01*
X56870Y72075D01*
X56906Y72161D01*
X56933Y72264D01*
X56953Y72382D01*
X56965Y72515D01*
X56968Y72665D01*
X57756D01*
X57760Y72515D01*
D02*
G37*
G36*
X58183Y69858D02*
X58116Y69835D01*
X58057Y69795D01*
X58006Y69739D01*
X57963Y69667D01*
X57927Y69579D01*
X57900Y69475D01*
X57880Y69355D01*
X57868Y69219D01*
X57864Y69067D01*
X57077D01*
X57073Y69219D01*
X57061Y69355D01*
X57041Y69475D01*
X57014Y69579D01*
X56978Y69667D01*
X56935Y69739D01*
X56884Y69795D01*
X56825Y69835D01*
X56758Y69858D01*
X56683Y69867D01*
X58258D01*
X58183Y69858D01*
D02*
G37*
G36*
X57868Y68146D02*
X57880Y68012D01*
X57900Y67893D01*
X57927Y67791D01*
X57963Y67704D01*
X58006Y67634D01*
X58057Y67579D01*
X58116Y67539D01*
X58183Y67515D01*
X58258Y67508D01*
X56803D01*
X56855Y67515D01*
X56902Y67539D01*
X56943Y67579D01*
X56978Y67634D01*
X57008Y67704D01*
X57033Y67791D01*
X57052Y67893D01*
X57066Y68012D01*
X57074Y68146D01*
X57077Y68295D01*
X57864D01*
X57868Y68146D01*
D02*
G37*
G36*
X18705Y77721D02*
X18638Y77697D01*
X18579Y77658D01*
X18528Y77602D01*
X18484Y77532D01*
X18449Y77445D01*
X18421Y77343D01*
X18402Y77225D01*
X18390Y77091D01*
X18386Y76941D01*
X17598D01*
X17594Y77091D01*
X17583Y77225D01*
X17563Y77343D01*
X17535Y77445D01*
X17500Y77532D01*
X17457Y77602D01*
X17405Y77658D01*
X17346Y77697D01*
X17279Y77721D01*
X17205Y77728D01*
X18779D01*
X18705Y77721D01*
D02*
G37*
G36*
X18390Y76452D02*
X18402Y76319D01*
X18421Y76201D01*
X18449Y76098D01*
X18484Y76012D01*
X18528Y75941D01*
X18579Y75886D01*
X18638Y75846D01*
X18705Y75823D01*
X18779Y75815D01*
X17205D01*
X17279Y75823D01*
X17346Y75846D01*
X17405Y75886D01*
X17457Y75941D01*
X17500Y76012D01*
X17535Y76098D01*
X17563Y76201D01*
X17583Y76319D01*
X17594Y76452D01*
X17598Y76602D01*
X18386D01*
X18390Y76452D01*
D02*
G37*
G36*
X18705Y73795D02*
X18638Y73772D01*
X18579Y73732D01*
X18528Y73676D01*
X18484Y73604D01*
X18449Y73516D01*
X18421Y73412D01*
X18402Y73292D01*
X18390Y73156D01*
X18386Y73004D01*
X17598D01*
X17594Y73156D01*
X17583Y73292D01*
X17563Y73412D01*
X17535Y73516D01*
X17500Y73604D01*
X17457Y73676D01*
X17405Y73732D01*
X17346Y73772D01*
X17279Y73795D01*
X17205Y73804D01*
X18779D01*
X18705Y73795D01*
D02*
G37*
G36*
X18390Y72515D02*
X18402Y72382D01*
X18421Y72264D01*
X18449Y72161D01*
X18484Y72075D01*
X18528Y72004D01*
X18579Y71949D01*
X18638Y71909D01*
X18705Y71886D01*
X18779Y71878D01*
X17205D01*
X17279Y71886D01*
X17346Y71909D01*
X17405Y71949D01*
X17457Y72004D01*
X17500Y72075D01*
X17535Y72161D01*
X17563Y72264D01*
X17583Y72382D01*
X17594Y72515D01*
X17598Y72665D01*
X18386D01*
X18390Y72515D01*
D02*
G37*
G36*
X18813Y69858D02*
X18746Y69835D01*
X18687Y69795D01*
X18636Y69739D01*
X18593Y69667D01*
X18557Y69579D01*
X18530Y69475D01*
X18510Y69355D01*
X18498Y69219D01*
X18494Y69067D01*
X17707D01*
X17703Y69219D01*
X17691Y69355D01*
X17671Y69475D01*
X17644Y69579D01*
X17608Y69667D01*
X17565Y69739D01*
X17514Y69795D01*
X17455Y69835D01*
X17388Y69858D01*
X17313Y69867D01*
X18888D01*
X18813Y69858D01*
D02*
G37*
G36*
X18498Y68146D02*
X18510Y68012D01*
X18530Y67893D01*
X18557Y67791D01*
X18593Y67704D01*
X18636Y67634D01*
X18687Y67579D01*
X18746Y67539D01*
X18813Y67515D01*
X18888Y67508D01*
X17433D01*
X17485Y67515D01*
X17532Y67539D01*
X17573Y67579D01*
X17608Y67634D01*
X17638Y67704D01*
X17663Y67791D01*
X17682Y67893D01*
X17696Y68012D01*
X17704Y68146D01*
X17707Y68295D01*
X18494D01*
X18498Y68146D01*
D02*
G37*
G36*
X38529Y58032D02*
X38474Y57996D01*
X38426Y57937D01*
X38384Y57854D01*
X38348Y57748D01*
X38319Y57618D01*
X38297Y57465D01*
X38281Y57288D01*
X38268Y56862D01*
X37087D01*
X37083Y57087D01*
X37058Y57465D01*
X37035Y57618D01*
X37006Y57748D01*
X36970Y57854D01*
X36928Y57937D01*
X36880Y57996D01*
X36825Y58032D01*
X36764Y58043D01*
X38590D01*
X38529Y58032D01*
D02*
G37*
G36*
X43116Y50945D02*
X43134Y50744D01*
X43163Y50567D01*
X43205Y50413D01*
X43258Y50283D01*
X43323Y50177D01*
X43400Y50094D01*
X43488Y50035D01*
X43589Y50000D01*
X43701Y49988D01*
X41339D01*
X41451Y50000D01*
X41551Y50035D01*
X41640Y50094D01*
X41717Y50177D01*
X41781Y50283D01*
X41835Y50413D01*
X41876Y50567D01*
X41906Y50744D01*
X41923Y50945D01*
X41929Y51169D01*
X43110D01*
X43116Y50945D01*
D02*
G37*
G36*
X56449Y58043D02*
X56437Y58123D01*
X56402Y58195D01*
X56343Y58258D01*
X56260Y58313D01*
X56154Y58359D01*
X56024Y58397D01*
X55870Y58427D01*
X55693Y58448D01*
X55492Y58460D01*
X55268Y58465D01*
Y59646D01*
X55492Y59650D01*
X55870Y59684D01*
X56024Y59713D01*
X56154Y59751D01*
X56260Y59797D01*
X56343Y59852D01*
X56402Y59915D01*
X56437Y59987D01*
X56449Y60067D01*
Y58043D01*
D02*
G37*
G36*
X44094Y46372D02*
X44130Y46307D01*
X44189Y46250D01*
X44271Y46200D01*
X44378Y46158D01*
X44508Y46124D01*
X44661Y46097D01*
X44838Y46078D01*
X45264Y46063D01*
Y44882D01*
X45039Y44878D01*
X44661Y44848D01*
X44508Y44821D01*
X44378Y44787D01*
X44271Y44745D01*
X44189Y44695D01*
X44130Y44638D01*
X44094Y44573D01*
X44082Y44500D01*
Y46445D01*
X44094Y46372D01*
D02*
G37*
G36*
X59775Y63467D02*
X59754Y63395D01*
X59755Y63313D01*
X59779Y63218D01*
X59825Y63112D01*
X59892Y62995D01*
X59983Y62867D01*
X60095Y62727D01*
X60387Y62414D01*
X59830Y61857D01*
X59668Y62014D01*
X59377Y62261D01*
X59249Y62352D01*
X59131Y62420D01*
X59026Y62465D01*
X58932Y62489D01*
X58849Y62490D01*
X58777Y62469D01*
X58717Y62426D01*
X59819Y63527D01*
X59775Y63467D01*
D02*
G37*
G36*
X61146Y60704D02*
X61158Y60571D01*
X61177Y60453D01*
X61205Y60350D01*
X61240Y60264D01*
X61283Y60193D01*
X61335Y60138D01*
X61394Y60098D01*
X61461Y60075D01*
X61535Y60067D01*
X59961D01*
X60035Y60075D01*
X60102Y60098D01*
X60161Y60138D01*
X60213Y60193D01*
X60256Y60264D01*
X60291Y60350D01*
X60319Y60453D01*
X60339Y60571D01*
X60350Y60704D01*
X60354Y60854D01*
X61142D01*
X61146Y60704D01*
D02*
G37*
G36*
X40090Y63467D02*
X40069Y63395D01*
X40070Y63313D01*
X40094Y63218D01*
X40139Y63112D01*
X40207Y62995D01*
X40298Y62867D01*
X40410Y62727D01*
X40702Y62414D01*
X40145Y61857D01*
X39983Y62014D01*
X39692Y62261D01*
X39564Y62352D01*
X39446Y62420D01*
X39341Y62465D01*
X39246Y62489D01*
X39164Y62490D01*
X39092Y62469D01*
X39032Y62426D01*
X40134Y63527D01*
X40090Y63467D01*
D02*
G37*
G36*
X41461Y60704D02*
X41472Y60571D01*
X41492Y60453D01*
X41520Y60350D01*
X41555Y60264D01*
X41598Y60193D01*
X41650Y60138D01*
X41709Y60098D01*
X41776Y60075D01*
X41850Y60067D01*
X40276D01*
X40350Y60075D01*
X40417Y60098D01*
X40476Y60138D01*
X40528Y60193D01*
X40571Y60264D01*
X40606Y60350D01*
X40634Y60453D01*
X40653Y60571D01*
X40665Y60704D01*
X40669Y60854D01*
X41457D01*
X41461Y60704D01*
D02*
G37*
G36*
X20405Y63467D02*
X20384Y63395D01*
X20385Y63313D01*
X20409Y63218D01*
X20454Y63112D01*
X20522Y62995D01*
X20613Y62867D01*
X20725Y62727D01*
X21017Y62414D01*
X20460Y61857D01*
X20298Y62014D01*
X20007Y62261D01*
X19879Y62352D01*
X19761Y62420D01*
X19656Y62465D01*
X19561Y62489D01*
X19479Y62490D01*
X19407Y62469D01*
X19347Y62426D01*
X20448Y63527D01*
X20405Y63467D01*
D02*
G37*
G36*
X21776Y60704D02*
X21787Y60571D01*
X21807Y60453D01*
X21835Y60350D01*
X21870Y60264D01*
X21913Y60193D01*
X21964Y60138D01*
X22024Y60098D01*
X22091Y60075D01*
X22165Y60067D01*
X20591D01*
X20665Y60075D01*
X20732Y60098D01*
X20791Y60138D01*
X20843Y60193D01*
X20886Y60264D01*
X20921Y60350D01*
X20949Y60453D01*
X20968Y60571D01*
X20980Y60704D01*
X20984Y60854D01*
X21772D01*
X21776Y60704D01*
D02*
G37*
G36*
X18844Y58032D02*
X18789Y57996D01*
X18741Y57937D01*
X18699Y57854D01*
X18663Y57748D01*
X18634Y57618D01*
X18612Y57465D01*
X18596Y57288D01*
X18583Y56862D01*
X17402D01*
X17398Y57087D01*
X17372Y57465D01*
X17350Y57618D01*
X17321Y57748D01*
X17285Y57854D01*
X17244Y57937D01*
X17195Y57996D01*
X17140Y58032D01*
X17079Y58043D01*
X18905D01*
X18844Y58032D01*
D02*
G37*
G36*
X36817Y50945D02*
X36835Y50744D01*
X36864Y50567D01*
X36906Y50413D01*
X36959Y50283D01*
X37024Y50177D01*
X37100Y50094D01*
X37189Y50035D01*
X37289Y50000D01*
X37402Y49988D01*
X35039D01*
X35152Y50000D01*
X35252Y50035D01*
X35340Y50094D01*
X35417Y50177D01*
X35482Y50283D01*
X35535Y50413D01*
X35577Y50567D01*
X35606Y50744D01*
X35624Y50945D01*
X35630Y51169D01*
X36811D01*
X36817Y50945D01*
D02*
G37*
G36*
X36617Y44623D02*
X36626Y44529D01*
X36629Y44512D01*
X37008D01*
X36933Y44504D01*
X36866Y44480D01*
X36807Y44440D01*
X36756Y44384D01*
X36713Y44312D01*
X36693Y44263D01*
X36720Y44197D01*
X36759Y44124D01*
X36803Y44056D01*
X36853Y43991D01*
X36909Y43931D01*
X36624D01*
X36618Y43865D01*
X36614Y43713D01*
X35827D01*
X35823Y43865D01*
X35817Y43931D01*
X35531D01*
X35588Y43991D01*
X35638Y44056D01*
X35682Y44124D01*
X35721Y44197D01*
X35748Y44263D01*
X35728Y44312D01*
X35685Y44384D01*
X35634Y44440D01*
X35575Y44480D01*
X35508Y44504D01*
X35433Y44512D01*
X35812D01*
X35815Y44529D01*
X35824Y44623D01*
X35827Y44721D01*
X36614D01*
X36617Y44623D01*
D02*
G37*
G36*
X63370Y38996D02*
X63400Y38667D01*
X63465D01*
X63446Y38643D01*
X63429Y38609D01*
X63414Y38566D01*
X63414Y38565D01*
X63433Y38464D01*
X63471Y38334D01*
X63518Y38228D01*
X63573Y38146D01*
X63636Y38086D01*
X63707Y38051D01*
X63787Y38039D01*
X63367D01*
X63366Y37992D01*
X62185Y37992D01*
X62185Y38039D01*
X61764D01*
X61844Y38051D01*
X61916Y38086D01*
X61979Y38146D01*
X62033Y38228D01*
X62080Y38334D01*
X62118Y38464D01*
X62137Y38565D01*
X62137Y38566D01*
X62122Y38609D01*
X62105Y38643D01*
X62087Y38667D01*
X62153D01*
X62168Y38795D01*
X62181Y38996D01*
X62185Y39220D01*
X63366D01*
X63370Y38996D01*
D02*
G37*
G36*
X21481D02*
X21510Y38667D01*
X21575D01*
X21556Y38643D01*
X21539Y38609D01*
X21525Y38566D01*
X21524Y38565D01*
X21544Y38464D01*
X21582Y38334D01*
X21628Y38228D01*
X21683Y38146D01*
X21746Y38086D01*
X21817Y38051D01*
X21897Y38039D01*
X21477D01*
X21476Y37992D01*
X20295Y37992D01*
X20295Y38039D01*
X19874D01*
X19954Y38051D01*
X20026Y38086D01*
X20089Y38146D01*
X20144Y38228D01*
X20190Y38334D01*
X20228Y38464D01*
X20247Y38565D01*
X20247Y38566D01*
X20232Y38609D01*
X20216Y38643D01*
X20197Y38667D01*
X20263D01*
X20279Y38795D01*
X20291Y38996D01*
X20295Y39220D01*
X21476D01*
X21481Y38996D01*
D02*
G37*
G36*
X58878Y34592D02*
X58913Y34537D01*
X58972Y34489D01*
X59055Y34447D01*
X59161Y34411D01*
X59291Y34382D01*
X59445Y34360D01*
X59622Y34344D01*
X60047Y34331D01*
Y33150D01*
X59823Y33146D01*
X59445Y33121D01*
X59291Y33098D01*
X59161Y33069D01*
X59055Y33033D01*
X58972Y32991D01*
X58913Y32943D01*
X58878Y32888D01*
X58866Y32827D01*
Y34653D01*
X58878Y34592D01*
D02*
G37*
G36*
X61764Y32827D02*
X63787D01*
X63707Y32815D01*
X63636Y32780D01*
X63573Y32721D01*
X63518Y32638D01*
X63471Y32532D01*
X63433Y32402D01*
X63404Y32248D01*
X63383Y32071D01*
X63370Y31870D01*
X63367Y31666D01*
X63372Y31457D01*
X63390Y31256D01*
X63419Y31079D01*
X63461Y30925D01*
X63514Y30795D01*
X63579Y30689D01*
X63656Y30606D01*
X63744Y30547D01*
X63845Y30512D01*
X63957Y30500D01*
X61594D01*
X61707Y30512D01*
X61807Y30547D01*
X61896Y30606D01*
X61972Y30689D01*
X62037Y30795D01*
X62091Y30925D01*
X62132Y31079D01*
X62161Y31256D01*
X62179Y31457D01*
X62185Y31666D01*
X62181Y31870D01*
X62147Y32248D01*
X62118Y32402D01*
X62080Y32532D01*
X62033Y32638D01*
X61979Y32721D01*
X61916Y32780D01*
X61844Y32815D01*
X61764Y32827D01*
X61752Y32888D01*
X61717Y32943D01*
X61658Y32991D01*
X61575Y33033D01*
X61469Y33069D01*
X61339Y33098D01*
X61185Y33121D01*
X61008Y33137D01*
X60583Y33150D01*
Y34331D01*
X60807Y34334D01*
X61185Y34360D01*
X61339Y34382D01*
X61469Y34411D01*
X61575Y34447D01*
X61658Y34489D01*
X61717Y34537D01*
X61752Y34592D01*
X61764Y34653D01*
Y32827D01*
D02*
G37*
G36*
X63845Y24618D02*
X63744Y24583D01*
X63656Y24523D01*
X63579Y24439D01*
X63514Y24332D01*
X63461Y24201D01*
X63419Y24046D01*
X63390Y23867D01*
X63372Y23664D01*
X63366Y23437D01*
X62185D01*
X62179Y23664D01*
X62161Y23867D01*
X62132Y24046D01*
X62091Y24201D01*
X62037Y24332D01*
X61972Y24439D01*
X61896Y24523D01*
X61807Y24583D01*
X61707Y24618D01*
X61594Y24630D01*
X63957D01*
X63845Y24618D01*
D02*
G37*
G36*
X63366Y23031D02*
X63367Y22921D01*
X63391Y22573D01*
X63402Y22511D01*
X63414Y22458D01*
X63429Y22414D01*
X63446Y22380D01*
X63465Y22356D01*
X62087Y22356D01*
X62105Y22381D01*
X62122Y22414D01*
X62137Y22458D01*
X62150Y22511D01*
X62160Y22573D01*
X62176Y22728D01*
X62184Y22921D01*
X62185Y23031D01*
X63366Y23031D01*
D02*
G37*
G36*
X16988Y34592D02*
X17023Y34537D01*
X17083Y34489D01*
X17165Y34447D01*
X17271Y34411D01*
X17401Y34382D01*
X17555Y34360D01*
X17732Y34344D01*
X18157Y34331D01*
Y33150D01*
X17933Y33146D01*
X17555Y33121D01*
X17401Y33098D01*
X17271Y33069D01*
X17165Y33033D01*
X17083Y32991D01*
X17023Y32943D01*
X16988Y32888D01*
X16976Y32827D01*
Y34653D01*
X16988Y34592D01*
D02*
G37*
G36*
X19874Y32827D02*
X21897D01*
X21817Y32815D01*
X21746Y32780D01*
X21683Y32721D01*
X21628Y32638D01*
X21582Y32532D01*
X21544Y32402D01*
X21514Y32248D01*
X21493Y32071D01*
X21481Y31870D01*
X21477Y31666D01*
X21482Y31457D01*
X21500Y31256D01*
X21530Y31079D01*
X21571Y30925D01*
X21624Y30795D01*
X21689Y30689D01*
X21766Y30606D01*
X21854Y30547D01*
X21955Y30512D01*
X22067Y30500D01*
X19705D01*
X19817Y30512D01*
X19917Y30547D01*
X20006Y30606D01*
X20083Y30689D01*
X20148Y30795D01*
X20201Y30925D01*
X20242Y31079D01*
X20272Y31256D01*
X20289Y31457D01*
X20295Y31666D01*
X20291Y31870D01*
X20257Y32248D01*
X20228Y32402D01*
X20190Y32532D01*
X20144Y32638D01*
X20089Y32721D01*
X20026Y32780D01*
X19954Y32815D01*
X19874Y32827D01*
X19862Y32888D01*
X19827Y32943D01*
X19768Y32991D01*
X19685Y33033D01*
X19579Y33069D01*
X19449Y33098D01*
X19296Y33121D01*
X19118Y33137D01*
X18693Y33150D01*
Y34331D01*
X18917Y34334D01*
X19296Y34360D01*
X19449Y34382D01*
X19579Y34411D01*
X19685Y34447D01*
X19768Y34489D01*
X19827Y34537D01*
X19862Y34592D01*
X19874Y34653D01*
Y32827D01*
D02*
G37*
G36*
X21955Y24618D02*
X21854Y24583D01*
X21766Y24523D01*
X21689Y24439D01*
X21624Y24332D01*
X21571Y24201D01*
X21530Y24046D01*
X21500Y23867D01*
X21482Y23664D01*
X21476Y23437D01*
X20295D01*
X20289Y23664D01*
X20272Y23867D01*
X20242Y24046D01*
X20201Y24201D01*
X20148Y24332D01*
X20083Y24439D01*
X20006Y24523D01*
X19917Y24583D01*
X19817Y24618D01*
X19705Y24630D01*
X22067D01*
X21955Y24618D01*
D02*
G37*
G36*
X21476Y23031D02*
X21477Y22921D01*
X21501Y22573D01*
X21512Y22511D01*
X21525Y22458D01*
X21539Y22414D01*
X21556Y22381D01*
X21575Y22356D01*
X20197Y22356D01*
X20216Y22381D01*
X20232Y22414D01*
X20247Y22458D01*
X20260Y22511D01*
X20271Y22573D01*
X20286Y22728D01*
X20294Y22921D01*
X20295Y23031D01*
X21476Y23031D01*
D02*
G37*
D14*
X36220Y43228D02*
Y45472D01*
X39370Y63189D02*
X41063Y61496D01*
Y59055D02*
Y61496D01*
X57362Y70866D02*
Y74803D01*
Y78740D01*
X57471Y66840D02*
X57579Y66732D01*
X57362Y70866D02*
X57471Y70758D01*
Y66840D02*
Y70758D01*
X59055Y63189D02*
X60748Y61496D01*
Y59055D02*
Y61496D01*
X37677Y70866D02*
Y74803D01*
Y78740D01*
X37785Y66840D02*
X37894Y66732D01*
X37677Y70866D02*
X37785Y70758D01*
Y66840D02*
Y70758D01*
X21378Y59055D02*
Y61496D01*
X19685Y63189D02*
X21378Y61496D01*
X18100Y66840D02*
Y70758D01*
X17992Y70866D02*
X18100Y70758D01*
Y66840D02*
X18209Y66732D01*
X17992Y74803D02*
Y78740D01*
Y70866D02*
Y74803D01*
D21*
X57087Y134764D02*
D03*
Y131378D02*
D03*
X15965Y37126D02*
D03*
Y33740D02*
D03*
X57854Y37126D02*
D03*
Y33740D02*
D03*
X20886D02*
D03*
Y37126D02*
D03*
X62776Y33740D02*
D03*
Y37126D02*
D03*
X46870Y120787D02*
D03*
Y117402D02*
D03*
X21654Y131378D02*
D03*
Y134764D02*
D03*
D22*
X60748Y74803D02*
D03*
X57362D02*
D03*
X41063D02*
D03*
X37677D02*
D03*
X21378D02*
D03*
X17992D02*
D03*
X60748Y59055D02*
D03*
X57362D02*
D03*
X41063D02*
D03*
X37677D02*
D03*
X21378D02*
D03*
X17992D02*
D03*
X57362Y78740D02*
D03*
X60748D02*
D03*
X37677D02*
D03*
X41063D02*
D03*
X17992D02*
D03*
X21378D02*
D03*
X60748Y70866D02*
D03*
X57362D02*
D03*
X41063D02*
D03*
X37677D02*
D03*
X21378D02*
D03*
X17992D02*
D03*
X32046Y139764D02*
D03*
X28660D02*
D03*
D23*
X61770Y157087D02*
D03*
X17085D02*
D03*
X72815Y16142D02*
D03*
X47815D02*
D03*
X30925D02*
D03*
X5925D02*
D03*
D24*
X51731Y145669D02*
D03*
X41888D02*
D03*
X46809D02*
D03*
X36967D02*
D03*
X27124D02*
D03*
X32046D02*
D03*
X62776Y27559D02*
D03*
X57854D02*
D03*
X20886D02*
D03*
X15965D02*
D03*
D38*
X32046Y139764D02*
Y145669D01*
X46870Y117402D02*
X49114D01*
X46809Y140691D02*
X48500Y139000D01*
X46809Y140691D02*
Y145669D01*
X48500Y139000D02*
X64000D01*
X66732Y114429D02*
Y136268D01*
X64000Y139000D02*
X66732Y136268D01*
X27963Y141935D02*
X28351Y141547D01*
X27963Y141935D02*
Y144831D01*
X28351Y140073D02*
X28660Y139764D01*
X28351Y140073D02*
Y141547D01*
X27124Y145669D02*
X27963Y144831D01*
X41888Y137112D02*
Y145669D01*
Y137112D02*
X43370Y135630D01*
X47461D01*
X31280D02*
X35630D01*
X36967Y136967D02*
Y145669D01*
X35630Y135630D02*
X36967Y136967D01*
X45790Y127290D02*
X47763D01*
X41870Y123370D02*
X45790Y127290D01*
X41870Y112992D02*
Y123370D01*
X28346Y129921D02*
X30718Y127550D01*
X32950D02*
X36870Y123630D01*
Y112992D02*
Y123630D01*
X30718Y127550D02*
X32950D01*
X47763Y127290D02*
X50394Y129921D01*
X25414Y84575D02*
X57925D01*
X60748Y81752D01*
X25652Y97425D02*
X30890D01*
X37795Y104331D01*
X25000Y99000D02*
X29528D01*
X34646Y104118D01*
X26305Y95850D02*
X32465D01*
X40945Y104331D01*
X34646Y104118D02*
Y104331D01*
X24528Y94073D02*
X26305Y95850D01*
X24528Y85461D02*
Y94073D01*
Y85461D02*
X25414Y84575D01*
X39500Y83000D02*
X41063Y81437D01*
X24762Y83000D02*
X39500D01*
X41063Y78740D02*
Y81437D01*
X22953Y84809D02*
X24762Y83000D01*
X60748Y78740D02*
Y81752D01*
X21378Y95378D02*
X25000Y99000D01*
X22953Y94726D02*
X25652Y97425D01*
X22953Y84809D02*
Y94726D01*
X21378Y78740D02*
Y95378D01*
X41870Y87598D02*
Y91732D01*
X46870Y87598D02*
Y91732D01*
X36870Y87598D02*
Y91732D01*
X31870Y87598D02*
Y91732D01*
X62776Y21654D02*
Y33740D01*
X20886Y21654D02*
Y33740D01*
X47461Y135630D02*
X50394Y132697D01*
Y129921D02*
Y132697D01*
X28346D02*
X31280Y135630D01*
X28346Y129921D02*
Y132697D01*
X26890Y131378D02*
X28346Y129921D01*
X21654Y131378D02*
X26890D01*
X50394Y129921D02*
X51850Y131378D01*
X57087D01*
X19000Y54500D02*
X34000D01*
X36220Y49016D02*
Y52280D01*
X34000Y54500D02*
X36220Y52280D01*
X17992Y55508D02*
X19000Y54500D01*
X17992Y55508D02*
Y59055D01*
X45472Y45472D02*
X47000Y47000D01*
Y57581D01*
X42520Y45472D02*
X45472D01*
X47000Y57581D02*
X48474Y59055D01*
X57362D01*
X41500Y54000D02*
X42520Y52980D01*
Y49016D02*
Y52980D01*
X39500Y54000D02*
X41500D01*
X37677Y55823D02*
Y59055D01*
Y55823D02*
X39500Y54000D01*
X62776Y37126D02*
Y39370D01*
X57854Y33740D02*
X62776D01*
X62776Y21654D02*
X62776Y21654D01*
X20886Y21654D02*
X20886Y21654D01*
X15965Y33740D02*
X20886D01*
X20886Y39370D02*
X20886Y39370D01*
Y37126D02*
Y39370D01*
D39*
X27124Y145669D02*
X27124Y145669D01*
Y150394D01*
X46870Y112992D02*
Y117402D01*
X23669Y145669D02*
X27124D01*
X21654Y143654D02*
X23669Y145669D01*
X21654Y134764D02*
Y143654D01*
D40*
X70866Y160433D02*
D03*
X73622Y157480D02*
D03*
X74803Y153149D02*
D03*
Y27165D02*
D03*
Y31102D02*
D03*
Y35039D02*
D03*
Y38976D02*
D03*
Y42913D02*
D03*
Y46850D02*
D03*
Y50787D02*
D03*
Y54724D02*
D03*
Y58661D02*
D03*
Y62598D02*
D03*
Y90157D02*
D03*
Y86220D02*
D03*
Y82283D02*
D03*
Y78346D02*
D03*
Y74409D02*
D03*
Y70472D02*
D03*
Y66535D02*
D03*
Y117716D02*
D03*
Y113779D02*
D03*
Y109842D02*
D03*
Y105905D02*
D03*
Y101968D02*
D03*
Y98031D02*
D03*
Y94094D02*
D03*
Y145275D02*
D03*
Y141338D02*
D03*
Y137401D02*
D03*
Y133464D02*
D03*
Y129527D02*
D03*
Y125590D02*
D03*
Y121653D02*
D03*
Y149212D02*
D03*
X7874Y160433D02*
D03*
X4921Y157480D02*
D03*
X3937Y153542D02*
D03*
Y149605D02*
D03*
Y122046D02*
D03*
Y125983D02*
D03*
Y129920D02*
D03*
Y133857D02*
D03*
Y137794D02*
D03*
Y141731D02*
D03*
Y145668D02*
D03*
Y94487D02*
D03*
Y98424D02*
D03*
Y102361D02*
D03*
Y106298D02*
D03*
Y110235D02*
D03*
Y114172D02*
D03*
Y118109D02*
D03*
Y66928D02*
D03*
Y70865D02*
D03*
Y74802D02*
D03*
Y78739D02*
D03*
Y82676D02*
D03*
Y86613D02*
D03*
Y90550D02*
D03*
Y62991D02*
D03*
Y59054D02*
D03*
Y55117D02*
D03*
Y51180D02*
D03*
Y47243D02*
D03*
Y43306D02*
D03*
Y39369D02*
D03*
Y35432D02*
D03*
Y31495D02*
D03*
Y27558D02*
D03*
D41*
X54000Y62500D02*
D03*
X44500Y76500D02*
D03*
X14500Y77500D02*
D03*
X11500Y30000D02*
D03*
X39500Y4500D02*
D03*
X54000Y153000D02*
D03*
X34500Y153500D02*
D03*
X18000Y147500D02*
D03*
X55000Y116500D02*
D03*
X67500Y140000D02*
D03*
X44500Y138500D02*
D03*
X25000Y107500D02*
D03*
X54000Y103500D02*
D03*
X51500Y91000D02*
D03*
X34500Y80000D02*
D03*
X14000Y54500D02*
D03*
X55000Y54000D02*
D03*
X43000Y38000D02*
D03*
X43500Y26000D02*
D03*
X39500Y19000D02*
D03*
X28000Y27500D02*
D03*
X26000Y39000D02*
D03*
X34500Y57000D02*
D03*
X35184Y37657D02*
D03*
X18000Y89000D02*
D03*
X27746Y87174D02*
D03*
X31000Y76000D02*
D03*
X27124Y150394D02*
D03*
X49114Y117402D02*
D03*
X56537Y145669D02*
D03*
X37921Y131500D02*
D03*
X66732Y114429D02*
D03*
X59252D02*
D03*
X19291Y84252D02*
D03*
X61299Y84252D02*
D03*
X44094Y55118D02*
D03*
X17717Y93701D02*
D03*
X41870Y87598D02*
D03*
X46870D02*
D03*
X36870D02*
D03*
X31870D02*
D03*
X50394Y71142D02*
D03*
X47244D02*
D03*
X44094D02*
D03*
X34646Y60748D02*
D03*
X31496D02*
D03*
X28346D02*
D03*
X27559Y71653D02*
D03*
Y74803D02*
D03*
X40945Y104331D02*
D03*
X37795D02*
D03*
X34646D02*
D03*
X31496D02*
D03*
X28346D02*
D03*
X15965Y21654D02*
D03*
X57854Y39370D02*
D03*
X15965D02*
D03*
X62776D02*
D03*
X20886D02*
D03*
X36220Y43228D02*
D03*
X20886Y21654D02*
D03*
X62776Y21654D02*
D03*
X57854Y21654D02*
D03*
X31931Y150394D02*
D03*
X36852D02*
D03*
X41773D02*
D03*
X46694D02*
D03*
D42*
X42520Y49016D02*
D03*
X36220D02*
D03*
Y45472D02*
D03*
X42520D02*
D03*
D43*
X18209Y66732D02*
D03*
X21161D02*
D03*
X19685Y63189D02*
D03*
X57579Y66732D02*
D03*
X60532D02*
D03*
X59055Y63189D02*
D03*
X37894Y66732D02*
D03*
X40846D02*
D03*
X39370Y63189D02*
D03*
D44*
X41870Y112992D02*
D03*
X46870D02*
D03*
X36870D02*
D03*
X31870D02*
D03*
X41870Y91732D02*
D03*
X46870D02*
D03*
X36870D02*
D03*
X31870D02*
D03*
D45*
X50394Y129921D02*
D03*
X28346D02*
D03*
M02*
