G04*
G04 #@! TF.GenerationSoftware,Altium Limited,Altium Designer,23.3.1 (30)*
G04*
G04 Layer_Color=8388736*
%FSLAX25Y25*%
%MOIN*%
G70*
G04*
G04 #@! TF.SameCoordinates,B8D109ED-CDE9-4BA8-ABFF-944DEA042C50*
G04*
G04*
G04 #@! TF.FilePolarity,Positive*
G04*
G01*
G75*
%ADD12C,0.01000*%
G36*
X-16412Y88232D02*
X-16345D01*
X-16273Y88226D01*
X-16195Y88221D01*
X-16018Y88204D01*
X-15834Y88176D01*
X-15657Y88143D01*
X-15574Y88121D01*
X-15490Y88093D01*
X-15485D01*
X-15474Y88087D01*
X-15452Y88076D01*
X-15424Y88065D01*
X-15385Y88054D01*
X-15346Y88032D01*
X-15252Y87988D01*
X-15152Y87932D01*
X-15041Y87860D01*
X-14941Y87777D01*
X-14847Y87677D01*
Y87671D01*
X-14836Y87666D01*
X-14824Y87649D01*
X-14813Y87627D01*
X-14797Y87599D01*
X-14774Y87571D01*
X-14736Y87488D01*
X-14697Y87388D01*
X-14658Y87272D01*
X-14636Y87133D01*
X-14625Y86983D01*
Y86927D01*
X-14630Y86889D01*
X-14636Y86844D01*
X-14647Y86789D01*
X-14658Y86728D01*
X-14674Y86661D01*
X-14697Y86594D01*
X-14719Y86522D01*
X-14752Y86450D01*
X-14791Y86378D01*
X-14836Y86306D01*
X-14891Y86234D01*
X-14952Y86167D01*
X-15019Y86106D01*
X-15024Y86101D01*
X-15041Y86089D01*
X-15069Y86073D01*
X-15113Y86045D01*
X-15163Y86017D01*
X-15230Y85989D01*
X-15307Y85951D01*
X-15396Y85917D01*
X-15496Y85884D01*
X-15612Y85851D01*
X-15740Y85817D01*
X-15885Y85790D01*
X-16040Y85762D01*
X-16206Y85745D01*
X-16389Y85734D01*
X-16584Y85729D01*
X-16589D01*
X-16612D01*
X-16650D01*
X-16695D01*
X-16756Y85734D01*
X-16822D01*
X-16895Y85740D01*
X-16978Y85745D01*
X-17150Y85762D01*
X-17333Y85790D01*
X-17516Y85823D01*
X-17599Y85845D01*
X-17683Y85867D01*
X-17688D01*
X-17699Y85873D01*
X-17721Y85884D01*
X-17749Y85895D01*
X-17788Y85906D01*
X-17827Y85928D01*
X-17921Y85973D01*
X-18021Y86028D01*
X-18127Y86101D01*
X-18232Y86184D01*
X-18321Y86284D01*
Y86289D01*
X-18332Y86295D01*
X-18343Y86311D01*
X-18354Y86334D01*
X-18376Y86361D01*
X-18393Y86395D01*
X-18438Y86478D01*
X-18476Y86578D01*
X-18515Y86694D01*
X-18537Y86833D01*
X-18548Y86983D01*
Y87033D01*
X-18543Y87094D01*
X-18532Y87166D01*
X-18515Y87249D01*
X-18493Y87338D01*
X-18465Y87432D01*
X-18421Y87521D01*
Y87527D01*
X-18415Y87532D01*
X-18399Y87560D01*
X-18371Y87605D01*
X-18332Y87660D01*
X-18277Y87721D01*
X-18215Y87788D01*
X-18143Y87849D01*
X-18060Y87910D01*
X-18049Y87915D01*
X-18021Y87938D01*
X-17971Y87960D01*
X-17899Y87999D01*
X-17816Y88032D01*
X-17721Y88076D01*
X-17610Y88115D01*
X-17488Y88148D01*
X-17483D01*
X-17472Y88154D01*
X-17455Y88160D01*
X-17427Y88165D01*
X-17394Y88171D01*
X-17355Y88176D01*
X-17305Y88187D01*
X-17250Y88193D01*
X-17189Y88204D01*
X-17122Y88209D01*
X-17044Y88215D01*
X-16967Y88226D01*
X-16878Y88232D01*
X-16789D01*
X-16689Y88237D01*
X-16584D01*
X-16578D01*
X-16556D01*
X-16517D01*
X-16473D01*
X-16412Y88232D01*
D02*
G37*
G36*
Y85246D02*
X-16345D01*
X-16273Y85240D01*
X-16195Y85235D01*
X-16018Y85218D01*
X-15834Y85190D01*
X-15657Y85157D01*
X-15574Y85135D01*
X-15490Y85107D01*
X-15485D01*
X-15474Y85101D01*
X-15452Y85090D01*
X-15424Y85079D01*
X-15385Y85068D01*
X-15346Y85046D01*
X-15252Y85002D01*
X-15152Y84946D01*
X-15041Y84874D01*
X-14941Y84791D01*
X-14847Y84691D01*
Y84685D01*
X-14836Y84680D01*
X-14824Y84663D01*
X-14813Y84641D01*
X-14797Y84613D01*
X-14774Y84585D01*
X-14736Y84502D01*
X-14697Y84402D01*
X-14658Y84286D01*
X-14636Y84147D01*
X-14625Y83997D01*
Y83942D01*
X-14630Y83903D01*
X-14636Y83858D01*
X-14647Y83803D01*
X-14658Y83742D01*
X-14674Y83675D01*
X-14697Y83609D01*
X-14719Y83536D01*
X-14752Y83464D01*
X-14791Y83392D01*
X-14836Y83320D01*
X-14891Y83248D01*
X-14952Y83181D01*
X-15019Y83120D01*
X-15024Y83115D01*
X-15041Y83104D01*
X-15069Y83087D01*
X-15113Y83059D01*
X-15163Y83031D01*
X-15230Y83004D01*
X-15307Y82965D01*
X-15396Y82932D01*
X-15496Y82898D01*
X-15612Y82865D01*
X-15740Y82832D01*
X-15885Y82804D01*
X-16040Y82776D01*
X-16206Y82759D01*
X-16389Y82748D01*
X-16584Y82743D01*
X-16589D01*
X-16612D01*
X-16650D01*
X-16695D01*
X-16756Y82748D01*
X-16822D01*
X-16895Y82754D01*
X-16978Y82759D01*
X-17150Y82776D01*
X-17333Y82804D01*
X-17516Y82837D01*
X-17599Y82859D01*
X-17683Y82881D01*
X-17688D01*
X-17699Y82887D01*
X-17721Y82898D01*
X-17749Y82909D01*
X-17788Y82920D01*
X-17827Y82943D01*
X-17921Y82987D01*
X-18021Y83043D01*
X-18127Y83115D01*
X-18232Y83198D01*
X-18321Y83298D01*
Y83303D01*
X-18332Y83309D01*
X-18343Y83325D01*
X-18354Y83348D01*
X-18376Y83376D01*
X-18393Y83409D01*
X-18438Y83492D01*
X-18476Y83592D01*
X-18515Y83709D01*
X-18537Y83847D01*
X-18548Y83997D01*
Y84047D01*
X-18543Y84108D01*
X-18532Y84180D01*
X-18515Y84263D01*
X-18493Y84352D01*
X-18465Y84447D01*
X-18421Y84535D01*
Y84541D01*
X-18415Y84547D01*
X-18399Y84574D01*
X-18371Y84619D01*
X-18332Y84674D01*
X-18277Y84735D01*
X-18215Y84802D01*
X-18143Y84863D01*
X-18060Y84924D01*
X-18049Y84930D01*
X-18021Y84952D01*
X-17971Y84974D01*
X-17899Y85013D01*
X-17816Y85046D01*
X-17721Y85090D01*
X-17610Y85129D01*
X-17488Y85163D01*
X-17483D01*
X-17472Y85168D01*
X-17455Y85174D01*
X-17427Y85179D01*
X-17394Y85185D01*
X-17355Y85190D01*
X-17305Y85201D01*
X-17250Y85207D01*
X-17189Y85218D01*
X-17122Y85224D01*
X-17044Y85229D01*
X-16967Y85240D01*
X-16878Y85246D01*
X-16789D01*
X-16689Y85251D01*
X-16584D01*
X-16578D01*
X-16556D01*
X-16517D01*
X-16473D01*
X-16412Y85246D01*
D02*
G37*
G36*
X-14591Y82038D02*
X-14519Y82032D01*
X-14447Y82016D01*
X-14364Y81999D01*
X-14286Y81971D01*
X-14214Y81938D01*
X-14208Y81932D01*
X-14186Y81916D01*
X-14153Y81894D01*
X-14108Y81855D01*
X-14064Y81810D01*
X-14020Y81755D01*
X-13970Y81683D01*
X-13931Y81605D01*
X-14131Y81472D01*
X-14136Y81477D01*
X-14142Y81494D01*
X-14158Y81522D01*
X-14181Y81555D01*
X-14208Y81588D01*
X-14242Y81627D01*
X-14280Y81660D01*
X-14325Y81688D01*
X-14330Y81694D01*
X-14347Y81699D01*
X-14380Y81710D01*
X-14419Y81727D01*
X-14469Y81738D01*
X-14536Y81755D01*
X-14608Y81766D01*
X-14691Y81771D01*
Y81505D01*
X-15230D01*
Y82043D01*
X-14691D01*
X-14686D01*
X-14680D01*
X-14663D01*
X-14641D01*
X-14591Y82038D01*
D02*
G37*
G36*
X-14691Y78197D02*
X-14697D01*
X-14719D01*
X-14752D01*
X-14797Y78203D01*
X-14847Y78208D01*
X-14902Y78219D01*
X-14958Y78231D01*
X-15019Y78253D01*
X-15024D01*
X-15030Y78258D01*
X-15063Y78269D01*
X-15113Y78292D01*
X-15180Y78325D01*
X-15257Y78369D01*
X-15346Y78425D01*
X-15435Y78486D01*
X-15529Y78564D01*
X-15535D01*
X-15540Y78575D01*
X-15574Y78602D01*
X-15624Y78652D01*
X-15696Y78725D01*
X-15779Y78808D01*
X-15879Y78913D01*
X-15990Y79041D01*
X-16106Y79180D01*
X-16112Y79185D01*
X-16129Y79207D01*
X-16156Y79241D01*
X-16190Y79280D01*
X-16234Y79330D01*
X-16284Y79391D01*
X-16340Y79452D01*
X-16401Y79524D01*
X-16534Y79663D01*
X-16667Y79801D01*
X-16734Y79868D01*
X-16800Y79929D01*
X-16861Y79984D01*
X-16922Y80029D01*
X-16928D01*
X-16933Y80040D01*
X-16950Y80051D01*
X-16972Y80062D01*
X-17033Y80101D01*
X-17105Y80145D01*
X-17194Y80184D01*
X-17289Y80223D01*
X-17394Y80245D01*
X-17494Y80256D01*
X-17500D01*
X-17505D01*
X-17538Y80251D01*
X-17594Y80245D01*
X-17655Y80229D01*
X-17733Y80206D01*
X-17810Y80168D01*
X-17888Y80118D01*
X-17966Y80051D01*
X-17977Y80040D01*
X-17999Y80012D01*
X-18027Y79973D01*
X-18066Y79912D01*
X-18099Y79835D01*
X-18132Y79746D01*
X-18154Y79640D01*
X-18160Y79524D01*
Y79491D01*
X-18154Y79468D01*
X-18149Y79402D01*
X-18132Y79324D01*
X-18110Y79241D01*
X-18071Y79146D01*
X-18021Y79058D01*
X-17955Y78974D01*
X-17943Y78963D01*
X-17916Y78941D01*
X-17871Y78908D01*
X-17805Y78874D01*
X-17727Y78836D01*
X-17627Y78802D01*
X-17516Y78780D01*
X-17389Y78769D01*
X-17438Y78286D01*
X-17444D01*
X-17461Y78292D01*
X-17488D01*
X-17527Y78297D01*
X-17572Y78308D01*
X-17622Y78319D01*
X-17683Y78336D01*
X-17744Y78353D01*
X-17877Y78397D01*
X-18010Y78464D01*
X-18077Y78503D01*
X-18143Y78553D01*
X-18204Y78602D01*
X-18260Y78658D01*
X-18265Y78663D01*
X-18271Y78675D01*
X-18288Y78691D01*
X-18304Y78719D01*
X-18326Y78752D01*
X-18349Y78791D01*
X-18376Y78836D01*
X-18404Y78891D01*
X-18432Y78952D01*
X-18460Y79019D01*
X-18482Y79091D01*
X-18504Y79169D01*
X-18521Y79252D01*
X-18537Y79341D01*
X-18543Y79435D01*
X-18548Y79535D01*
Y79590D01*
X-18543Y79629D01*
X-18537Y79674D01*
X-18532Y79729D01*
X-18521Y79790D01*
X-18510Y79851D01*
X-18471Y79996D01*
X-18415Y80140D01*
X-18382Y80212D01*
X-18343Y80284D01*
X-18293Y80351D01*
X-18238Y80412D01*
X-18232Y80417D01*
X-18227Y80428D01*
X-18204Y80440D01*
X-18182Y80462D01*
X-18154Y80489D01*
X-18115Y80517D01*
X-18077Y80545D01*
X-18027Y80578D01*
X-17921Y80634D01*
X-17788Y80689D01*
X-17721Y80712D01*
X-17644Y80723D01*
X-17566Y80734D01*
X-17483Y80739D01*
X-17472D01*
X-17444D01*
X-17400Y80734D01*
X-17339Y80728D01*
X-17272Y80717D01*
X-17194Y80695D01*
X-17111Y80673D01*
X-17028Y80639D01*
X-17017Y80634D01*
X-16989Y80623D01*
X-16944Y80601D01*
X-16883Y80567D01*
X-16817Y80523D01*
X-16734Y80467D01*
X-16650Y80401D01*
X-16556Y80323D01*
X-16545Y80312D01*
X-16512Y80284D01*
X-16484Y80256D01*
X-16456Y80229D01*
X-16423Y80195D01*
X-16378Y80151D01*
X-16334Y80107D01*
X-16284Y80051D01*
X-16229Y79996D01*
X-16168Y79929D01*
X-16106Y79857D01*
X-16034Y79779D01*
X-15962Y79690D01*
X-15885Y79602D01*
X-15879Y79596D01*
X-15868Y79585D01*
X-15851Y79563D01*
X-15829Y79535D01*
X-15796Y79502D01*
X-15762Y79463D01*
X-15690Y79374D01*
X-15607Y79280D01*
X-15524Y79191D01*
X-15452Y79113D01*
X-15424Y79080D01*
X-15396Y79052D01*
X-15391Y79046D01*
X-15374Y79030D01*
X-15352Y79008D01*
X-15318Y78980D01*
X-15280Y78952D01*
X-15241Y78919D01*
X-15146Y78852D01*
Y80745D01*
X-14691D01*
Y78197D01*
D02*
G37*
G36*
X-15612Y77259D02*
X-14691D01*
Y76788D01*
X-15612D01*
Y75117D01*
X-16045D01*
X-18532Y76876D01*
Y77259D01*
X-16045D01*
Y77781D01*
X-15612D01*
Y77259D01*
D02*
G37*
G36*
X33295Y180606D02*
X33339Y180600D01*
X33395Y180595D01*
X33456Y180584D01*
X33517Y180573D01*
X33661Y180534D01*
X33805Y180478D01*
X33877Y180445D01*
X33950Y180406D01*
X34016Y180356D01*
X34077Y180301D01*
X34083Y180295D01*
X34094Y180289D01*
X34105Y180267D01*
X34127Y180245D01*
X34155Y180217D01*
X34183Y180178D01*
X34210Y180140D01*
X34244Y180090D01*
X34299Y179984D01*
X34355Y179851D01*
X34377Y179785D01*
X34388Y179707D01*
X34399Y179629D01*
X34405Y179546D01*
Y179535D01*
Y179507D01*
X34399Y179463D01*
X34394Y179402D01*
X34382Y179335D01*
X34360Y179257D01*
X34338Y179174D01*
X34305Y179091D01*
X34299Y179080D01*
X34288Y179052D01*
X34266Y179007D01*
X34233Y178946D01*
X34188Y178880D01*
X34133Y178797D01*
X34066Y178713D01*
X33988Y178619D01*
X33977Y178608D01*
X33950Y178575D01*
X33922Y178547D01*
X33894Y178519D01*
X33861Y178486D01*
X33816Y178441D01*
X33772Y178397D01*
X33716Y178347D01*
X33661Y178291D01*
X33594Y178231D01*
X33522Y178169D01*
X33444Y178097D01*
X33356Y178025D01*
X33267Y177947D01*
X33261Y177942D01*
X33250Y177931D01*
X33228Y177914D01*
X33200Y177892D01*
X33167Y177859D01*
X33128Y177825D01*
X33039Y177753D01*
X32945Y177670D01*
X32856Y177587D01*
X32778Y177515D01*
X32745Y177487D01*
X32717Y177459D01*
X32712Y177453D01*
X32695Y177437D01*
X32673Y177415D01*
X32645Y177381D01*
X32618Y177342D01*
X32584Y177304D01*
X32518Y177209D01*
X34410D01*
Y176754D01*
X31863D01*
Y176760D01*
Y176782D01*
Y176815D01*
X31868Y176860D01*
X31874Y176910D01*
X31885Y176965D01*
X31896Y177021D01*
X31918Y177082D01*
Y177087D01*
X31924Y177093D01*
X31935Y177126D01*
X31957Y177176D01*
X31990Y177243D01*
X32035Y177320D01*
X32090Y177409D01*
X32151Y177498D01*
X32229Y177592D01*
Y177598D01*
X32240Y177603D01*
X32268Y177637D01*
X32318Y177687D01*
X32390Y177759D01*
X32473Y177842D01*
X32579Y177942D01*
X32706Y178053D01*
X32845Y178169D01*
X32851Y178175D01*
X32873Y178192D01*
X32906Y178219D01*
X32945Y178253D01*
X32995Y178297D01*
X33056Y178347D01*
X33117Y178402D01*
X33189Y178464D01*
X33328Y178597D01*
X33467Y178730D01*
X33533Y178797D01*
X33594Y178863D01*
X33650Y178924D01*
X33694Y178985D01*
Y178991D01*
X33705Y178996D01*
X33716Y179013D01*
X33727Y179035D01*
X33766Y179096D01*
X33811Y179168D01*
X33850Y179257D01*
X33888Y179352D01*
X33911Y179457D01*
X33922Y179557D01*
Y179562D01*
Y179568D01*
X33916Y179601D01*
X33911Y179657D01*
X33894Y179718D01*
X33872Y179796D01*
X33833Y179873D01*
X33783Y179951D01*
X33716Y180029D01*
X33705Y180040D01*
X33678Y180062D01*
X33639Y180090D01*
X33578Y180129D01*
X33500Y180162D01*
X33411Y180195D01*
X33306Y180217D01*
X33189Y180223D01*
X33156D01*
X33134Y180217D01*
X33067Y180212D01*
X32989Y180195D01*
X32906Y180173D01*
X32812Y180134D01*
X32723Y180084D01*
X32640Y180018D01*
X32629Y180007D01*
X32606Y179979D01*
X32573Y179934D01*
X32540Y179868D01*
X32501Y179790D01*
X32468Y179690D01*
X32445Y179579D01*
X32434Y179452D01*
X31951Y179501D01*
Y179507D01*
X31957Y179524D01*
Y179551D01*
X31963Y179590D01*
X31974Y179635D01*
X31985Y179685D01*
X32001Y179746D01*
X32018Y179807D01*
X32063Y179940D01*
X32129Y180073D01*
X32168Y180140D01*
X32218Y180206D01*
X32268Y180267D01*
X32323Y180323D01*
X32329Y180328D01*
X32340Y180334D01*
X32357Y180351D01*
X32384Y180367D01*
X32418Y180389D01*
X32456Y180412D01*
X32501Y180439D01*
X32556Y180467D01*
X32618Y180495D01*
X32684Y180523D01*
X32756Y180545D01*
X32834Y180567D01*
X32917Y180584D01*
X33006Y180600D01*
X33100Y180606D01*
X33200Y180611D01*
X33256D01*
X33295Y180606D01*
D02*
G37*
G36*
X43745D02*
X43817Y180595D01*
X43901Y180578D01*
X43989Y180556D01*
X44084Y180528D01*
X44173Y180484D01*
X44178D01*
X44184Y180478D01*
X44211Y180462D01*
X44256Y180434D01*
X44311Y180395D01*
X44372Y180340D01*
X44439Y180278D01*
X44500Y180206D01*
X44561Y180123D01*
X44567Y180112D01*
X44589Y180084D01*
X44611Y180034D01*
X44650Y179962D01*
X44683Y179879D01*
X44728Y179785D01*
X44766Y179674D01*
X44800Y179551D01*
Y179546D01*
X44805Y179535D01*
X44811Y179518D01*
X44816Y179490D01*
X44822Y179457D01*
X44827Y179418D01*
X44839Y179368D01*
X44844Y179313D01*
X44855Y179252D01*
X44861Y179185D01*
X44866Y179107D01*
X44877Y179030D01*
X44883Y178941D01*
Y178852D01*
X44888Y178752D01*
Y178647D01*
Y178641D01*
Y178619D01*
Y178580D01*
Y178536D01*
X44883Y178475D01*
Y178408D01*
X44877Y178336D01*
X44872Y178258D01*
X44855Y178081D01*
X44827Y177898D01*
X44794Y177720D01*
X44772Y177637D01*
X44744Y177553D01*
Y177548D01*
X44739Y177537D01*
X44728Y177515D01*
X44717Y177487D01*
X44705Y177448D01*
X44683Y177409D01*
X44639Y177315D01*
X44583Y177215D01*
X44511Y177104D01*
X44428Y177004D01*
X44328Y176910D01*
X44322D01*
X44317Y176899D01*
X44300Y176887D01*
X44278Y176876D01*
X44250Y176860D01*
X44223Y176837D01*
X44139Y176799D01*
X44039Y176760D01*
X43923Y176721D01*
X43784Y176699D01*
X43634Y176688D01*
X43579D01*
X43540Y176693D01*
X43496Y176699D01*
X43440Y176710D01*
X43379Y176721D01*
X43312Y176737D01*
X43246Y176760D01*
X43174Y176782D01*
X43101Y176815D01*
X43029Y176854D01*
X42957Y176899D01*
X42885Y176954D01*
X42818Y177015D01*
X42757Y177082D01*
X42752Y177087D01*
X42741Y177104D01*
X42724Y177132D01*
X42696Y177176D01*
X42669Y177226D01*
X42641Y177293D01*
X42602Y177370D01*
X42569Y177459D01*
X42535Y177559D01*
X42502Y177675D01*
X42469Y177803D01*
X42441Y177947D01*
X42413Y178103D01*
X42397Y178269D01*
X42386Y178453D01*
X42380Y178647D01*
Y178652D01*
Y178674D01*
Y178713D01*
Y178758D01*
X42386Y178819D01*
Y178885D01*
X42391Y178957D01*
X42397Y179041D01*
X42413Y179213D01*
X42441Y179396D01*
X42474Y179579D01*
X42496Y179662D01*
X42519Y179746D01*
Y179751D01*
X42524Y179762D01*
X42535Y179785D01*
X42546Y179812D01*
X42557Y179851D01*
X42580Y179890D01*
X42624Y179984D01*
X42680Y180084D01*
X42752Y180190D01*
X42835Y180295D01*
X42935Y180384D01*
X42941D01*
X42946Y180395D01*
X42963Y180406D01*
X42985Y180417D01*
X43013Y180439D01*
X43046Y180456D01*
X43129Y180500D01*
X43229Y180539D01*
X43346Y180578D01*
X43484Y180600D01*
X43634Y180611D01*
X43684D01*
X43745Y180606D01*
D02*
G37*
G36*
X40759D02*
X40832Y180595D01*
X40915Y180578D01*
X41004Y180556D01*
X41098Y180528D01*
X41187Y180484D01*
X41192D01*
X41198Y180478D01*
X41225Y180462D01*
X41270Y180434D01*
X41325Y180395D01*
X41387Y180340D01*
X41453Y180278D01*
X41514Y180206D01*
X41575Y180123D01*
X41581Y180112D01*
X41603Y180084D01*
X41625Y180034D01*
X41664Y179962D01*
X41697Y179879D01*
X41742Y179785D01*
X41780Y179674D01*
X41814Y179551D01*
Y179546D01*
X41819Y179535D01*
X41825Y179518D01*
X41831Y179490D01*
X41836Y179457D01*
X41842Y179418D01*
X41853Y179368D01*
X41858Y179313D01*
X41869Y179252D01*
X41875Y179185D01*
X41880Y179107D01*
X41892Y179030D01*
X41897Y178941D01*
Y178852D01*
X41903Y178752D01*
Y178647D01*
Y178641D01*
Y178619D01*
Y178580D01*
Y178536D01*
X41897Y178475D01*
Y178408D01*
X41892Y178336D01*
X41886Y178258D01*
X41869Y178081D01*
X41842Y177898D01*
X41808Y177720D01*
X41786Y177637D01*
X41758Y177553D01*
Y177548D01*
X41753Y177537D01*
X41742Y177515D01*
X41731Y177487D01*
X41719Y177448D01*
X41697Y177409D01*
X41653Y177315D01*
X41597Y177215D01*
X41525Y177104D01*
X41442Y177004D01*
X41342Y176910D01*
X41337D01*
X41331Y176899D01*
X41314Y176887D01*
X41292Y176876D01*
X41264Y176860D01*
X41237Y176837D01*
X41153Y176799D01*
X41054Y176760D01*
X40937Y176721D01*
X40798Y176699D01*
X40648Y176688D01*
X40593D01*
X40554Y176693D01*
X40510Y176699D01*
X40454Y176710D01*
X40393Y176721D01*
X40326Y176737D01*
X40260Y176760D01*
X40188Y176782D01*
X40115Y176815D01*
X40043Y176854D01*
X39971Y176899D01*
X39899Y176954D01*
X39832Y177015D01*
X39771Y177082D01*
X39766Y177087D01*
X39755Y177104D01*
X39738Y177132D01*
X39710Y177176D01*
X39683Y177226D01*
X39655Y177293D01*
X39616Y177370D01*
X39583Y177459D01*
X39549Y177559D01*
X39516Y177675D01*
X39483Y177803D01*
X39455Y177947D01*
X39427Y178103D01*
X39411Y178269D01*
X39400Y178453D01*
X39394Y178647D01*
Y178652D01*
Y178674D01*
Y178713D01*
Y178758D01*
X39400Y178819D01*
Y178885D01*
X39405Y178957D01*
X39411Y179041D01*
X39427Y179213D01*
X39455Y179396D01*
X39488Y179579D01*
X39511Y179662D01*
X39533Y179746D01*
Y179751D01*
X39538Y179762D01*
X39549Y179785D01*
X39560Y179812D01*
X39572Y179851D01*
X39594Y179890D01*
X39638Y179984D01*
X39694Y180084D01*
X39766Y180190D01*
X39849Y180295D01*
X39949Y180384D01*
X39955D01*
X39960Y180395D01*
X39977Y180406D01*
X39999Y180417D01*
X40027Y180439D01*
X40060Y180456D01*
X40143Y180500D01*
X40243Y180539D01*
X40360Y180578D01*
X40499Y180600D01*
X40648Y180611D01*
X40698D01*
X40759Y180606D01*
D02*
G37*
G36*
X36281D02*
X36353Y180595D01*
X36436Y180578D01*
X36525Y180556D01*
X36619Y180528D01*
X36708Y180484D01*
X36713D01*
X36719Y180478D01*
X36747Y180462D01*
X36791Y180434D01*
X36847Y180395D01*
X36908Y180340D01*
X36974Y180278D01*
X37035Y180206D01*
X37096Y180123D01*
X37102Y180112D01*
X37124Y180084D01*
X37146Y180034D01*
X37185Y179962D01*
X37218Y179879D01*
X37263Y179785D01*
X37302Y179674D01*
X37335Y179551D01*
Y179546D01*
X37341Y179535D01*
X37346Y179518D01*
X37352Y179490D01*
X37357Y179457D01*
X37363Y179418D01*
X37374Y179368D01*
X37379Y179313D01*
X37391Y179252D01*
X37396Y179185D01*
X37402Y179107D01*
X37413Y179030D01*
X37418Y178941D01*
Y178852D01*
X37424Y178752D01*
Y178647D01*
Y178641D01*
Y178619D01*
Y178580D01*
Y178536D01*
X37418Y178475D01*
Y178408D01*
X37413Y178336D01*
X37407Y178258D01*
X37391Y178081D01*
X37363Y177898D01*
X37329Y177720D01*
X37307Y177637D01*
X37279Y177553D01*
Y177548D01*
X37274Y177537D01*
X37263Y177515D01*
X37252Y177487D01*
X37241Y177448D01*
X37218Y177409D01*
X37174Y177315D01*
X37119Y177215D01*
X37046Y177104D01*
X36963Y177004D01*
X36863Y176910D01*
X36858D01*
X36852Y176899D01*
X36836Y176887D01*
X36813Y176876D01*
X36786Y176860D01*
X36758Y176837D01*
X36674Y176799D01*
X36575Y176760D01*
X36458Y176721D01*
X36319Y176699D01*
X36169Y176688D01*
X36114D01*
X36075Y176693D01*
X36031Y176699D01*
X35975Y176710D01*
X35914Y176721D01*
X35848Y176737D01*
X35781Y176760D01*
X35709Y176782D01*
X35637Y176815D01*
X35565Y176854D01*
X35492Y176899D01*
X35420Y176954D01*
X35354Y177015D01*
X35293Y177082D01*
X35287Y177087D01*
X35276Y177104D01*
X35259Y177132D01*
X35232Y177176D01*
X35204Y177226D01*
X35176Y177293D01*
X35137Y177370D01*
X35104Y177459D01*
X35071Y177559D01*
X35037Y177675D01*
X35004Y177803D01*
X34976Y177947D01*
X34949Y178103D01*
X34932Y178269D01*
X34921Y178453D01*
X34915Y178647D01*
Y178652D01*
Y178674D01*
Y178713D01*
Y178758D01*
X34921Y178819D01*
Y178885D01*
X34926Y178957D01*
X34932Y179041D01*
X34949Y179213D01*
X34976Y179396D01*
X35010Y179579D01*
X35032Y179662D01*
X35054Y179746D01*
Y179751D01*
X35059Y179762D01*
X35071Y179785D01*
X35082Y179812D01*
X35093Y179851D01*
X35115Y179890D01*
X35159Y179984D01*
X35215Y180084D01*
X35287Y180190D01*
X35370Y180295D01*
X35470Y180384D01*
X35476D01*
X35481Y180395D01*
X35498Y180406D01*
X35520Y180417D01*
X35548Y180439D01*
X35581Y180456D01*
X35664Y180500D01*
X35764Y180539D01*
X35881Y180578D01*
X36020Y180600D01*
X36169Y180611D01*
X36219D01*
X36281Y180606D01*
D02*
G37*
G36*
X38695Y176754D02*
Y176749D01*
Y176743D01*
Y176726D01*
Y176704D01*
X38689Y176654D01*
X38684Y176582D01*
X38667Y176510D01*
X38650Y176427D01*
X38623Y176349D01*
X38589Y176277D01*
X38584Y176271D01*
X38567Y176249D01*
X38545Y176216D01*
X38506Y176171D01*
X38462Y176127D01*
X38406Y176083D01*
X38334Y176033D01*
X38256Y175994D01*
X38123Y176194D01*
X38129Y176199D01*
X38145Y176205D01*
X38173Y176221D01*
X38206Y176244D01*
X38240Y176271D01*
X38278Y176305D01*
X38312Y176344D01*
X38339Y176388D01*
X38345Y176393D01*
X38351Y176410D01*
X38362Y176443D01*
X38378Y176482D01*
X38390Y176532D01*
X38406Y176599D01*
X38417Y176671D01*
X38423Y176754D01*
X38156D01*
Y177293D01*
X38695D01*
Y176754D01*
D02*
G37*
%LPC*%
G36*
X-16412Y87754D02*
X-16584D01*
X-16589D01*
X-16595D01*
X-16623D01*
X-16673D01*
X-16739Y87749D01*
X-16811D01*
X-16900Y87743D01*
X-16995Y87738D01*
X-17100Y87727D01*
X-17311Y87699D01*
X-17416Y87682D01*
X-17516Y87660D01*
X-17610Y87638D01*
X-17699Y87605D01*
X-17777Y87571D01*
X-17844Y87532D01*
X-17849D01*
X-17855Y87521D01*
X-17871Y87510D01*
X-17894Y87494D01*
X-17943Y87444D01*
X-18005Y87383D01*
X-18060Y87299D01*
X-18110Y87205D01*
X-18132Y87155D01*
X-18149Y87099D01*
X-18154Y87038D01*
X-18160Y86977D01*
Y86944D01*
X-18154Y86922D01*
X-18143Y86861D01*
X-18127Y86789D01*
X-18093Y86705D01*
X-18043Y86617D01*
X-18010Y86572D01*
X-17977Y86528D01*
X-17932Y86489D01*
X-17883Y86450D01*
X-17877D01*
X-17866Y86439D01*
X-17844Y86428D01*
X-17816Y86411D01*
X-17771Y86395D01*
X-17721Y86373D01*
X-17661Y86356D01*
X-17588Y86334D01*
X-17505Y86311D01*
X-17411Y86289D01*
X-17305Y86267D01*
X-17189Y86250D01*
X-17055Y86234D01*
X-16911Y86223D01*
X-16756Y86217D01*
X-16584Y86212D01*
X-16573D01*
X-16545D01*
X-16495D01*
X-16428Y86217D01*
X-16356D01*
X-16267Y86223D01*
X-16173Y86228D01*
X-16073Y86239D01*
X-15857Y86267D01*
X-15751Y86284D01*
X-15651Y86306D01*
X-15557Y86328D01*
X-15468Y86361D01*
X-15391Y86395D01*
X-15324Y86434D01*
X-15318D01*
X-15313Y86445D01*
X-15274Y86472D01*
X-15224Y86522D01*
X-15168Y86583D01*
X-15113Y86667D01*
X-15063Y86761D01*
X-15024Y86866D01*
X-15019Y86922D01*
X-15013Y86983D01*
Y87016D01*
X-15019Y87038D01*
X-15030Y87094D01*
X-15052Y87172D01*
X-15091Y87255D01*
X-15146Y87349D01*
X-15180Y87394D01*
X-15224Y87438D01*
X-15268Y87483D01*
X-15324Y87527D01*
X-15329D01*
X-15340Y87538D01*
X-15357Y87549D01*
X-15385Y87560D01*
X-15424Y87582D01*
X-15474Y87599D01*
X-15529Y87621D01*
X-15596Y87643D01*
X-15679Y87660D01*
X-15768Y87682D01*
X-15873Y87704D01*
X-15984Y87721D01*
X-16117Y87732D01*
X-16256Y87743D01*
X-16412Y87754D01*
D02*
G37*
G36*
Y84768D02*
X-16584D01*
X-16589D01*
X-16595D01*
X-16623D01*
X-16673D01*
X-16739Y84763D01*
X-16811D01*
X-16900Y84757D01*
X-16995Y84752D01*
X-17100Y84741D01*
X-17311Y84713D01*
X-17416Y84696D01*
X-17516Y84674D01*
X-17610Y84652D01*
X-17699Y84619D01*
X-17777Y84585D01*
X-17844Y84547D01*
X-17849D01*
X-17855Y84535D01*
X-17871Y84524D01*
X-17894Y84508D01*
X-17943Y84458D01*
X-18005Y84397D01*
X-18060Y84313D01*
X-18110Y84219D01*
X-18132Y84169D01*
X-18149Y84114D01*
X-18154Y84053D01*
X-18160Y83991D01*
Y83958D01*
X-18154Y83936D01*
X-18143Y83875D01*
X-18127Y83803D01*
X-18093Y83720D01*
X-18043Y83631D01*
X-18010Y83586D01*
X-17977Y83542D01*
X-17932Y83503D01*
X-17883Y83464D01*
X-17877D01*
X-17866Y83453D01*
X-17844Y83442D01*
X-17816Y83425D01*
X-17771Y83409D01*
X-17721Y83387D01*
X-17661Y83370D01*
X-17588Y83348D01*
X-17505Y83325D01*
X-17411Y83303D01*
X-17305Y83281D01*
X-17189Y83264D01*
X-17055Y83248D01*
X-16911Y83237D01*
X-16756Y83231D01*
X-16584Y83226D01*
X-16573D01*
X-16545D01*
X-16495D01*
X-16428Y83231D01*
X-16356D01*
X-16267Y83237D01*
X-16173Y83242D01*
X-16073Y83253D01*
X-15857Y83281D01*
X-15751Y83298D01*
X-15651Y83320D01*
X-15557Y83342D01*
X-15468Y83376D01*
X-15391Y83409D01*
X-15324Y83448D01*
X-15318D01*
X-15313Y83459D01*
X-15274Y83486D01*
X-15224Y83536D01*
X-15168Y83597D01*
X-15113Y83681D01*
X-15063Y83775D01*
X-15024Y83881D01*
X-15019Y83936D01*
X-15013Y83997D01*
Y84030D01*
X-15019Y84053D01*
X-15030Y84108D01*
X-15052Y84186D01*
X-15091Y84269D01*
X-15146Y84363D01*
X-15180Y84408D01*
X-15224Y84452D01*
X-15268Y84497D01*
X-15324Y84541D01*
X-15329D01*
X-15340Y84552D01*
X-15357Y84563D01*
X-15385Y84574D01*
X-15424Y84597D01*
X-15474Y84613D01*
X-15529Y84635D01*
X-15596Y84658D01*
X-15679Y84674D01*
X-15768Y84696D01*
X-15873Y84719D01*
X-15984Y84735D01*
X-16117Y84746D01*
X-16256Y84757D01*
X-16412Y84768D01*
D02*
G37*
G36*
X-16045Y76788D02*
X-17766D01*
X-16045Y75578D01*
Y76788D01*
D02*
G37*
G36*
X43629Y180223D02*
X43595D01*
X43573Y180217D01*
X43512Y180206D01*
X43440Y180190D01*
X43357Y180156D01*
X43268Y180106D01*
X43224Y180073D01*
X43179Y180040D01*
X43140Y179995D01*
X43101Y179945D01*
Y179940D01*
X43090Y179929D01*
X43079Y179907D01*
X43063Y179879D01*
X43046Y179834D01*
X43024Y179785D01*
X43007Y179723D01*
X42985Y179651D01*
X42963Y179568D01*
X42941Y179474D01*
X42918Y179368D01*
X42902Y179252D01*
X42885Y179119D01*
X42874Y178974D01*
X42868Y178819D01*
X42863Y178647D01*
Y178636D01*
Y178608D01*
Y178558D01*
X42868Y178491D01*
Y178419D01*
X42874Y178330D01*
X42879Y178236D01*
X42891Y178136D01*
X42918Y177920D01*
X42935Y177814D01*
X42957Y177714D01*
X42979Y177620D01*
X43013Y177531D01*
X43046Y177453D01*
X43085Y177387D01*
Y177381D01*
X43096Y177376D01*
X43124Y177337D01*
X43174Y177287D01*
X43235Y177232D01*
X43318Y177176D01*
X43412Y177126D01*
X43518Y177087D01*
X43573Y177082D01*
X43634Y177076D01*
X43668D01*
X43690Y177082D01*
X43745Y177093D01*
X43823Y177115D01*
X43906Y177154D01*
X44001Y177209D01*
X44045Y177243D01*
X44089Y177287D01*
X44134Y177331D01*
X44178Y177387D01*
Y177392D01*
X44189Y177403D01*
X44200Y177420D01*
X44211Y177448D01*
X44234Y177487D01*
X44250Y177537D01*
X44273Y177592D01*
X44295Y177659D01*
X44311Y177742D01*
X44333Y177831D01*
X44356Y177936D01*
X44372Y178047D01*
X44383Y178181D01*
X44395Y178319D01*
X44406Y178475D01*
Y178647D01*
Y178652D01*
Y178658D01*
Y178686D01*
Y178735D01*
X44400Y178802D01*
Y178874D01*
X44395Y178963D01*
X44389Y179057D01*
X44378Y179163D01*
X44350Y179374D01*
X44333Y179479D01*
X44311Y179579D01*
X44289Y179674D01*
X44256Y179762D01*
X44223Y179840D01*
X44184Y179907D01*
Y179912D01*
X44173Y179918D01*
X44161Y179934D01*
X44145Y179956D01*
X44095Y180007D01*
X44034Y180068D01*
X43951Y180123D01*
X43856Y180173D01*
X43806Y180195D01*
X43751Y180212D01*
X43690Y180217D01*
X43629Y180223D01*
D02*
G37*
G36*
X40643D02*
X40609D01*
X40587Y180217D01*
X40526Y180206D01*
X40454Y180190D01*
X40371Y180156D01*
X40282Y180106D01*
X40238Y180073D01*
X40193Y180040D01*
X40154Y179995D01*
X40115Y179945D01*
Y179940D01*
X40104Y179929D01*
X40093Y179907D01*
X40077Y179879D01*
X40060Y179834D01*
X40038Y179785D01*
X40021Y179723D01*
X39999Y179651D01*
X39977Y179568D01*
X39955Y179474D01*
X39932Y179368D01*
X39916Y179252D01*
X39899Y179119D01*
X39888Y178974D01*
X39882Y178819D01*
X39877Y178647D01*
Y178636D01*
Y178608D01*
Y178558D01*
X39882Y178491D01*
Y178419D01*
X39888Y178330D01*
X39893Y178236D01*
X39905Y178136D01*
X39932Y177920D01*
X39949Y177814D01*
X39971Y177714D01*
X39993Y177620D01*
X40027Y177531D01*
X40060Y177453D01*
X40099Y177387D01*
Y177381D01*
X40110Y177376D01*
X40138Y177337D01*
X40188Y177287D01*
X40249Y177232D01*
X40332Y177176D01*
X40426Y177126D01*
X40532Y177087D01*
X40587Y177082D01*
X40648Y177076D01*
X40682D01*
X40704Y177082D01*
X40759Y177093D01*
X40837Y177115D01*
X40920Y177154D01*
X41015Y177209D01*
X41059Y177243D01*
X41103Y177287D01*
X41148Y177331D01*
X41192Y177387D01*
Y177392D01*
X41203Y177403D01*
X41214Y177420D01*
X41225Y177448D01*
X41248Y177487D01*
X41264Y177537D01*
X41287Y177592D01*
X41309Y177659D01*
X41325Y177742D01*
X41348Y177831D01*
X41370Y177936D01*
X41387Y178047D01*
X41398Y178181D01*
X41409Y178319D01*
X41420Y178475D01*
Y178647D01*
Y178652D01*
Y178658D01*
Y178686D01*
Y178735D01*
X41414Y178802D01*
Y178874D01*
X41409Y178963D01*
X41403Y179057D01*
X41392Y179163D01*
X41364Y179374D01*
X41348Y179479D01*
X41325Y179579D01*
X41303Y179674D01*
X41270Y179762D01*
X41237Y179840D01*
X41198Y179907D01*
Y179912D01*
X41187Y179918D01*
X41176Y179934D01*
X41159Y179956D01*
X41109Y180007D01*
X41048Y180068D01*
X40965Y180123D01*
X40870Y180173D01*
X40820Y180195D01*
X40765Y180212D01*
X40704Y180217D01*
X40643Y180223D01*
D02*
G37*
G36*
X36164D02*
X36131D01*
X36108Y180217D01*
X36047Y180206D01*
X35975Y180190D01*
X35892Y180156D01*
X35803Y180106D01*
X35759Y180073D01*
X35714Y180040D01*
X35675Y179995D01*
X35637Y179945D01*
Y179940D01*
X35626Y179929D01*
X35614Y179907D01*
X35598Y179879D01*
X35581Y179834D01*
X35559Y179785D01*
X35542Y179723D01*
X35520Y179651D01*
X35498Y179568D01*
X35476Y179474D01*
X35454Y179368D01*
X35437Y179252D01*
X35420Y179119D01*
X35409Y178974D01*
X35404Y178819D01*
X35398Y178647D01*
Y178636D01*
Y178608D01*
Y178558D01*
X35404Y178491D01*
Y178419D01*
X35409Y178330D01*
X35415Y178236D01*
X35426Y178136D01*
X35454Y177920D01*
X35470Y177814D01*
X35492Y177714D01*
X35515Y177620D01*
X35548Y177531D01*
X35581Y177453D01*
X35620Y177387D01*
Y177381D01*
X35631Y177376D01*
X35659Y177337D01*
X35709Y177287D01*
X35770Y177232D01*
X35853Y177176D01*
X35947Y177126D01*
X36053Y177087D01*
X36108Y177082D01*
X36169Y177076D01*
X36203D01*
X36225Y177082D01*
X36281Y177093D01*
X36358Y177115D01*
X36441Y177154D01*
X36536Y177209D01*
X36580Y177243D01*
X36625Y177287D01*
X36669Y177331D01*
X36713Y177387D01*
Y177392D01*
X36724Y177403D01*
X36736Y177420D01*
X36747Y177448D01*
X36769Y177487D01*
X36786Y177537D01*
X36808Y177592D01*
X36830Y177659D01*
X36847Y177742D01*
X36869Y177831D01*
X36891Y177936D01*
X36908Y178047D01*
X36919Y178181D01*
X36930Y178319D01*
X36941Y178475D01*
Y178647D01*
Y178652D01*
Y178658D01*
Y178686D01*
Y178735D01*
X36935Y178802D01*
Y178874D01*
X36930Y178963D01*
X36924Y179057D01*
X36913Y179163D01*
X36885Y179374D01*
X36869Y179479D01*
X36847Y179579D01*
X36824Y179674D01*
X36791Y179762D01*
X36758Y179840D01*
X36719Y179907D01*
Y179912D01*
X36708Y179918D01*
X36697Y179934D01*
X36680Y179956D01*
X36630Y180007D01*
X36569Y180068D01*
X36486Y180123D01*
X36391Y180173D01*
X36342Y180195D01*
X36286Y180212D01*
X36225Y180217D01*
X36164Y180223D01*
D02*
G37*
%LPD*%
D12*
X-17000Y165354D02*
X-15000Y159354D01*
X-19000D02*
X-17000Y165354D01*
X-19000Y6000D02*
X-17000Y0D01*
X-15000Y6000D01*
X-17000Y89237D02*
Y165354D01*
Y0D02*
Y74117D01*
X-18000Y165354D02*
X10614D01*
X-18000Y0D02*
X-1197D01*
X-0Y179063D02*
X6000Y181063D01*
X-0Y179063D02*
X6000Y177063D01*
X72740D02*
X78740Y179063D01*
X72740Y181063D02*
X78740Y179063D01*
X-0D02*
X30863D01*
X45889D02*
X78740D01*
X-0Y154740D02*
Y180063D01*
X78740Y154740D02*
Y180063D01*
M02*
