G04*
G04 #@! TF.GenerationSoftware,Altium Limited,Altium Designer,23.3.1 (30)*
G04*
G04 Layer_Color=255*
%FSLAX25Y25*%
%MOIN*%
G70*
G04*
G04 #@! TF.SameCoordinates,B8D109ED-CDE9-4BA8-ABFF-944DEA042C50*
G04*
G04*
G04 #@! TF.FilePolarity,Positive*
G04*
G01*
G75*
%ADD21R,0.02047X0.01850*%
%ADD22R,0.01850X0.02047*%
%ADD23R,0.07874X0.11811*%
%ADD24R,0.02953X0.05906*%
%ADD40C,0.02953*%
%ADD42R,0.03150X0.01968*%
%ADD43R,0.01575X0.01575*%
%ADD44R,0.02362X0.04724*%
%ADD45R,0.07047X0.12598*%
D21*
X57087Y134764D02*
D03*
Y131378D02*
D03*
X15965Y37126D02*
D03*
Y33740D02*
D03*
X57854Y37126D02*
D03*
Y33740D02*
D03*
X20886D02*
D03*
Y37126D02*
D03*
X62776Y33740D02*
D03*
Y37126D02*
D03*
X46870Y120787D02*
D03*
Y117402D02*
D03*
X21654Y131378D02*
D03*
Y134764D02*
D03*
D22*
X60748Y74803D02*
D03*
X57362D02*
D03*
X41063D02*
D03*
X37677D02*
D03*
X21378D02*
D03*
X17992D02*
D03*
X60748Y59055D02*
D03*
X57362D02*
D03*
X41063D02*
D03*
X37677D02*
D03*
X21378D02*
D03*
X17992D02*
D03*
X57362Y78740D02*
D03*
X60748D02*
D03*
X37677D02*
D03*
X41063D02*
D03*
X17992D02*
D03*
X21378D02*
D03*
X60748Y70866D02*
D03*
X57362D02*
D03*
X41063D02*
D03*
X37677D02*
D03*
X21378D02*
D03*
X17992D02*
D03*
X32046Y139764D02*
D03*
X28660D02*
D03*
D23*
X61770Y157087D02*
D03*
X17085D02*
D03*
X72815Y16142D02*
D03*
X47815D02*
D03*
X30925D02*
D03*
X5925D02*
D03*
D24*
X51731Y145669D02*
D03*
X41888D02*
D03*
X46809D02*
D03*
X36967D02*
D03*
X27124D02*
D03*
X32046D02*
D03*
X62776Y27559D02*
D03*
X57854D02*
D03*
X20886D02*
D03*
X15965D02*
D03*
D40*
X70866Y160433D02*
D03*
X73622Y157480D02*
D03*
X74803Y153149D02*
D03*
Y27165D02*
D03*
Y31102D02*
D03*
Y35039D02*
D03*
Y38976D02*
D03*
Y42913D02*
D03*
Y46850D02*
D03*
Y50787D02*
D03*
Y54724D02*
D03*
Y58661D02*
D03*
Y62598D02*
D03*
Y90157D02*
D03*
Y86220D02*
D03*
Y82283D02*
D03*
Y78346D02*
D03*
Y74409D02*
D03*
Y70472D02*
D03*
Y66535D02*
D03*
Y117716D02*
D03*
Y113779D02*
D03*
Y109842D02*
D03*
Y105905D02*
D03*
Y101968D02*
D03*
Y98031D02*
D03*
Y94094D02*
D03*
Y145275D02*
D03*
Y141338D02*
D03*
Y137401D02*
D03*
Y133464D02*
D03*
Y129527D02*
D03*
Y125590D02*
D03*
Y121653D02*
D03*
Y149212D02*
D03*
X7874Y160433D02*
D03*
X4921Y157480D02*
D03*
X3937Y153542D02*
D03*
Y149605D02*
D03*
Y122046D02*
D03*
Y125983D02*
D03*
Y129920D02*
D03*
Y133857D02*
D03*
Y137794D02*
D03*
Y141731D02*
D03*
Y145668D02*
D03*
Y94487D02*
D03*
Y98424D02*
D03*
Y102361D02*
D03*
Y106298D02*
D03*
Y110235D02*
D03*
Y114172D02*
D03*
Y118109D02*
D03*
Y66928D02*
D03*
Y70865D02*
D03*
Y74802D02*
D03*
Y78739D02*
D03*
Y82676D02*
D03*
Y86613D02*
D03*
Y90550D02*
D03*
Y62991D02*
D03*
Y59054D02*
D03*
Y55117D02*
D03*
Y51180D02*
D03*
Y47243D02*
D03*
Y43306D02*
D03*
Y39369D02*
D03*
Y35432D02*
D03*
Y31495D02*
D03*
Y27558D02*
D03*
D42*
X42520Y49016D02*
D03*
X36220D02*
D03*
Y45472D02*
D03*
X42520D02*
D03*
D43*
X18209Y66732D02*
D03*
X21161D02*
D03*
X19685Y63189D02*
D03*
X57579Y66732D02*
D03*
X60532D02*
D03*
X59055Y63189D02*
D03*
X37894Y66732D02*
D03*
X40846D02*
D03*
X39370Y63189D02*
D03*
D44*
X41870Y112992D02*
D03*
X46870D02*
D03*
X36870D02*
D03*
X31870D02*
D03*
X41870Y91732D02*
D03*
X46870D02*
D03*
X36870D02*
D03*
X31870D02*
D03*
D45*
X50394Y129921D02*
D03*
X28346D02*
D03*
M02*
