G04*
G04 #@! TF.GenerationSoftware,Altium Limited,Altium Designer,23.3.1 (30)*
G04*
G04 Layer_Physical_Order=2*
G04 Layer_Color=36540*
%FSLAX25Y25*%
%MOIN*%
G70*
G04*
G04 #@! TF.SameCoordinates,B8D109ED-CDE9-4BA8-ABFF-944DEA042C50*
G04*
G04*
G04 #@! TF.FilePolarity,Positive*
G04*
G01*
G75*
%ADD38C,0.01181*%
%ADD40C,0.02953*%
%ADD41C,0.01968*%
G36*
X66929Y164351D02*
X67637D01*
X69042Y164166D01*
X70411Y163799D01*
X71719Y163257D01*
X72946Y162549D01*
X74070Y161686D01*
X75072Y160684D01*
X75935Y159561D01*
X76643Y158334D01*
X77185Y157025D01*
X77552Y155656D01*
X77737Y154252D01*
X77737Y153543D01*
Y1003D01*
X1003D01*
X1003Y153543D01*
Y154252D01*
X1188Y155656D01*
X1555Y157025D01*
X2097Y158334D01*
X2806Y159561D01*
X3668Y160685D01*
X4670Y161686D01*
X5794Y162549D01*
X7021Y163257D01*
X8330Y163799D01*
X9698Y164166D01*
X11103Y164351D01*
X11811D01*
X66929Y164351D01*
D02*
G37*
%LPC*%
G36*
X31931Y151197D02*
X31624Y151135D01*
X31363Y150961D01*
X31189Y150701D01*
X31128Y150394D01*
X31189Y150086D01*
X31363Y149826D01*
X31624Y149652D01*
X31931Y149591D01*
X32238Y149652D01*
X32498Y149826D01*
X32672Y150086D01*
X32734Y150394D01*
X32672Y150701D01*
X32498Y150961D01*
X32238Y151135D01*
X31931Y151197D01*
D02*
G37*
G36*
X27124D02*
X26817Y151135D01*
X26557Y150961D01*
X26383Y150701D01*
X26322Y150394D01*
X26383Y150086D01*
X26557Y149826D01*
X26817Y149652D01*
X27124Y149591D01*
X27432Y149652D01*
X27692Y149826D01*
X27866Y150086D01*
X27927Y150394D01*
X27866Y150701D01*
X27692Y150961D01*
X27432Y151135D01*
X27124Y151197D01*
D02*
G37*
G36*
X56537Y146472D02*
X56230Y146411D01*
X55969Y146237D01*
X55795Y145976D01*
X55734Y145669D01*
X55795Y145362D01*
X55969Y145102D01*
X56230Y144928D01*
X56537Y144867D01*
X56844Y144928D01*
X57105Y145102D01*
X57279Y145362D01*
X57340Y145669D01*
X57279Y145976D01*
X57105Y146237D01*
X56844Y146411D01*
X56537Y146472D01*
D02*
G37*
G36*
X46694Y151799D02*
X46157Y151692D01*
X45701Y151387D01*
X45397Y150931D01*
X45289Y150394D01*
X45397Y149856D01*
X45638Y149495D01*
X45642Y149482D01*
X45642Y149478D01*
X45646Y149470D01*
X45651Y149450D01*
X45656Y149423D01*
X45677Y149110D01*
X45678Y149012D01*
X45691Y148981D01*
Y146610D01*
X43510Y144429D01*
X41501D01*
X41310Y144891D01*
X42483Y146064D01*
X42700Y146389D01*
X42777Y146773D01*
Y148981D01*
X42790Y149012D01*
X42791Y149116D01*
X42798Y149289D01*
X42811Y149416D01*
X42817Y149450D01*
X42821Y149470D01*
X42825Y149478D01*
X42826Y149482D01*
X42830Y149495D01*
X43071Y149856D01*
X43178Y150394D01*
X43071Y150931D01*
X42767Y151387D01*
X42311Y151692D01*
X41773Y151799D01*
X41236Y151692D01*
X40780Y151387D01*
X40475Y150931D01*
X40368Y150394D01*
X40475Y149856D01*
X40716Y149495D01*
X40721Y149482D01*
X40721Y149478D01*
X40725Y149470D01*
X40730Y149450D01*
X40734Y149423D01*
X40756Y149110D01*
X40756Y149012D01*
X40770Y148981D01*
Y147189D01*
X39584Y146003D01*
X37501D01*
X37310Y146466D01*
X37562Y146717D01*
X37779Y147043D01*
X37855Y147427D01*
Y148981D01*
X37869Y149012D01*
X37870Y149116D01*
X37877Y149289D01*
X37890Y149416D01*
X37896Y149450D01*
X37900Y149470D01*
X37904Y149478D01*
X37904Y149482D01*
X37909Y149495D01*
X38150Y149856D01*
X38257Y150394D01*
X38150Y150931D01*
X37845Y151387D01*
X37390Y151692D01*
X36852Y151799D01*
X36314Y151692D01*
X35859Y151387D01*
X35554Y150931D01*
X35447Y150394D01*
X35554Y149856D01*
X35795Y149495D01*
X35800Y149482D01*
X35800Y149478D01*
X35804Y149470D01*
X35808Y149450D01*
X35813Y149423D01*
X35834Y149110D01*
X35835Y149012D01*
X35848Y148981D01*
Y147842D01*
X35584Y147578D01*
X21139D01*
X20755Y147502D01*
X20429Y147284D01*
X17007Y143862D01*
X16789Y143536D01*
X16713Y143152D01*
Y95113D01*
X16700Y95082D01*
X16699Y94978D01*
X16692Y94805D01*
X16679Y94679D01*
X16673Y94644D01*
X16668Y94625D01*
X16664Y94617D01*
X16664Y94612D01*
X16660Y94599D01*
X16419Y94238D01*
X16312Y93701D01*
X16419Y93163D01*
X16723Y92707D01*
X17179Y92403D01*
X17717Y92296D01*
X18254Y92403D01*
X18710Y92707D01*
X19015Y93163D01*
X19121Y93701D01*
X19015Y94238D01*
X18773Y94599D01*
X18769Y94612D01*
X18769Y94617D01*
X18765Y94625D01*
X18760Y94644D01*
X18755Y94671D01*
X18734Y94984D01*
X18733Y95082D01*
X18720Y95113D01*
Y99499D01*
X19182Y99690D01*
X20082Y98790D01*
X20407Y98573D01*
X20791Y98497D01*
X30500D01*
X30884Y98573D01*
X31210Y98790D01*
X32206Y99787D01*
X32423Y100112D01*
X32500Y100496D01*
Y102918D01*
X32513Y102949D01*
X32514Y103053D01*
X32521Y103226D01*
X32534Y103353D01*
X32540Y103387D01*
X32544Y103407D01*
X32548Y103414D01*
X32548Y103419D01*
X32553Y103432D01*
X32794Y103793D01*
X32901Y104331D01*
X32794Y104868D01*
X32489Y105324D01*
X32034Y105629D01*
X31496Y105736D01*
X30958Y105629D01*
X30503Y105324D01*
X30198Y104868D01*
X30176Y104758D01*
X29666D01*
X29645Y104868D01*
X29340Y105324D01*
X28884Y105629D01*
X28346Y105736D01*
X27809Y105629D01*
X27353Y105324D01*
X27049Y104868D01*
X26941Y104331D01*
X27049Y103793D01*
X27290Y103432D01*
X27294Y103419D01*
X27294Y103414D01*
X27298Y103407D01*
X27303Y103387D01*
X27308Y103360D01*
X27329Y103047D01*
X27330Y102949D01*
X27343Y102918D01*
Y102262D01*
X27159Y102078D01*
X21974D01*
X21870Y102182D01*
Y141432D01*
X22859Y142422D01*
X43925D01*
X44309Y142498D01*
X44635Y142716D01*
X47404Y145485D01*
X47622Y145810D01*
X47698Y146195D01*
Y148981D01*
X47711Y149012D01*
X47712Y149116D01*
X47719Y149289D01*
X47732Y149416D01*
X47738Y149450D01*
X47743Y149470D01*
X47747Y149478D01*
X47747Y149482D01*
X47751Y149495D01*
X47993Y149856D01*
X48099Y150394D01*
X47993Y150931D01*
X47688Y151387D01*
X47232Y151692D01*
X46694Y151799D01*
D02*
G37*
G36*
X37921Y132303D02*
X37614Y132242D01*
X37354Y132068D01*
X37180Y131807D01*
X37118Y131500D01*
X37180Y131193D01*
X37354Y130932D01*
X37614Y130758D01*
X37921Y130697D01*
X38228Y130758D01*
X38489Y130932D01*
X38663Y131193D01*
X38724Y131500D01*
X38663Y131807D01*
X38489Y132068D01*
X38228Y132242D01*
X37921Y132303D01*
D02*
G37*
G36*
X49114Y118204D02*
X48807Y118143D01*
X48546Y117969D01*
X48372Y117709D01*
X48311Y117402D01*
X48372Y117094D01*
X48546Y116834D01*
X48807Y116660D01*
X49114Y116599D01*
X49421Y116660D01*
X49682Y116834D01*
X49856Y117094D01*
X49917Y117402D01*
X49856Y117709D01*
X49682Y117969D01*
X49421Y118143D01*
X49114Y118204D01*
D02*
G37*
G36*
X66732Y115232D02*
X66425Y115171D01*
X66165Y114997D01*
X65991Y114736D01*
X65930Y114429D01*
X65991Y114122D01*
X66165Y113861D01*
X66425Y113687D01*
X66732Y113626D01*
X67040Y113687D01*
X67300Y113861D01*
X67474Y114122D01*
X67535Y114429D01*
X67474Y114736D01*
X67300Y114997D01*
X67040Y115171D01*
X66732Y115232D01*
D02*
G37*
G36*
X59252D02*
X58945Y115171D01*
X58684Y114997D01*
X58510Y114736D01*
X58449Y114429D01*
X58510Y114122D01*
X58684Y113861D01*
X58945Y113687D01*
X59252Y113626D01*
X59559Y113687D01*
X59820Y113861D01*
X59994Y114122D01*
X60055Y114429D01*
X59994Y114736D01*
X59820Y114997D01*
X59559Y115171D01*
X59252Y115232D01*
D02*
G37*
G36*
X40945Y105133D02*
X40638Y105072D01*
X40377Y104898D01*
X40203Y104638D01*
X40142Y104331D01*
X40203Y104024D01*
X40377Y103763D01*
X40638Y103589D01*
X40945Y103528D01*
X41252Y103589D01*
X41513Y103763D01*
X41687Y104024D01*
X41748Y104331D01*
X41687Y104638D01*
X41513Y104898D01*
X41252Y105072D01*
X40945Y105133D01*
D02*
G37*
G36*
X37795D02*
X37488Y105072D01*
X37228Y104898D01*
X37054Y104638D01*
X36992Y104331D01*
X37054Y104024D01*
X37228Y103763D01*
X37488Y103589D01*
X37795Y103528D01*
X38102Y103589D01*
X38363Y103763D01*
X38537Y104024D01*
X38598Y104331D01*
X38537Y104638D01*
X38363Y104898D01*
X38102Y105072D01*
X37795Y105133D01*
D02*
G37*
G36*
X34646D02*
X34338Y105072D01*
X34078Y104898D01*
X33904Y104638D01*
X33843Y104331D01*
X33904Y104024D01*
X34078Y103763D01*
X34338Y103589D01*
X34646Y103528D01*
X34953Y103589D01*
X35213Y103763D01*
X35387Y104024D01*
X35449Y104331D01*
X35387Y104638D01*
X35213Y104898D01*
X34953Y105072D01*
X34646Y105133D01*
D02*
G37*
G36*
X46870Y89003D02*
X46332Y88896D01*
X45877Y88592D01*
X45572Y88136D01*
X45559Y88068D01*
X45016Y87903D01*
X44611Y88308D01*
X44286Y88526D01*
X43902Y88602D01*
X43283D01*
X43252Y88615D01*
X43148Y88616D01*
X42975Y88623D01*
X42848Y88636D01*
X42814Y88642D01*
X42794Y88647D01*
X42786Y88651D01*
X42781Y88651D01*
X42769Y88655D01*
X42408Y88896D01*
X41870Y89003D01*
X41332Y88896D01*
X40971Y88655D01*
X40959Y88651D01*
X40954Y88651D01*
X40946Y88647D01*
X40927Y88642D01*
X40892Y88636D01*
X40765Y88623D01*
X40593Y88616D01*
X40488Y88615D01*
X40457Y88602D01*
X38283D01*
X38252Y88615D01*
X38148Y88616D01*
X37975Y88623D01*
X37848Y88636D01*
X37814Y88642D01*
X37794Y88647D01*
X37786Y88651D01*
X37782Y88651D01*
X37769Y88655D01*
X37408Y88896D01*
X36870Y89003D01*
X36332Y88896D01*
X35877Y88592D01*
X35572Y88136D01*
X35465Y87598D01*
X35572Y87061D01*
X35877Y86605D01*
X36332Y86300D01*
X36870Y86194D01*
X37408Y86300D01*
X37769Y86542D01*
X37782Y86546D01*
X37786Y86546D01*
X37794Y86550D01*
X37814Y86555D01*
X37841Y86560D01*
X38154Y86581D01*
X38252Y86582D01*
X38283Y86595D01*
X40457D01*
X40488Y86582D01*
X40587Y86581D01*
X40899Y86560D01*
X40927Y86555D01*
X40946Y86550D01*
X40954Y86546D01*
X40959Y86546D01*
X40971Y86542D01*
X41332Y86300D01*
X41870Y86194D01*
X42408Y86300D01*
X42769Y86542D01*
X42781Y86546D01*
X42786Y86546D01*
X42794Y86550D01*
X42814Y86555D01*
X42841Y86560D01*
X43154Y86581D01*
X43252Y86582D01*
X43283Y86595D01*
X43486D01*
X49390Y80691D01*
Y72554D01*
X49377Y72523D01*
X49376Y72419D01*
X49369Y72246D01*
X49356Y72119D01*
X49350Y72085D01*
X49345Y72066D01*
X49342Y72058D01*
X49341Y72053D01*
X49337Y72040D01*
X49096Y71679D01*
X49074Y71569D01*
X48564D01*
X48542Y71679D01*
X48301Y72040D01*
X48296Y72053D01*
X48296Y72058D01*
X48292Y72066D01*
X48288Y72085D01*
X48283Y72112D01*
X48262Y72425D01*
X48261Y72523D01*
X48248Y72554D01*
Y79756D01*
X48171Y80140D01*
X47954Y80466D01*
X44710Y83710D01*
X44384Y83927D01*
X44000Y84004D01*
X34916D01*
X33024Y85895D01*
Y86324D01*
X33037Y86354D01*
X33042Y86649D01*
X33053Y86836D01*
X33056Y86860D01*
X33057Y86866D01*
X33059Y86875D01*
X33059Y86878D01*
X33061Y86887D01*
X33059Y86897D01*
X33168Y87061D01*
X33275Y87598D01*
X33168Y88136D01*
X32864Y88592D01*
X32408Y88896D01*
X31870Y89003D01*
X31332Y88896D01*
X30877Y88592D01*
X30572Y88136D01*
X30465Y87598D01*
X30572Y87061D01*
X30877Y86605D01*
X30966Y86545D01*
X30968Y86541D01*
X30969Y86539D01*
X30969Y86536D01*
X30970Y86535D01*
X30972Y86529D01*
X30979Y86499D01*
X30985Y86460D01*
X31003Y86220D01*
X31004Y86122D01*
X31017Y86092D01*
Y86070D01*
X31012Y86045D01*
X31017Y86037D01*
Y85479D01*
X31094Y85095D01*
X31311Y84770D01*
X33790Y82290D01*
X34116Y82073D01*
X34500Y81997D01*
X43584D01*
X46241Y79340D01*
Y72554D01*
X46227Y72523D01*
X46227Y72419D01*
X46219Y72246D01*
X46207Y72119D01*
X46201Y72085D01*
X46196Y72066D01*
X46192Y72058D01*
X46192Y72053D01*
X46187Y72040D01*
X45946Y71679D01*
X45924Y71569D01*
X45414D01*
X45393Y71679D01*
X45088Y72135D01*
X44632Y72440D01*
X44094Y72547D01*
X43557Y72440D01*
X43101Y72135D01*
X42796Y71679D01*
X42689Y71142D01*
X42796Y70604D01*
X43038Y70243D01*
X43042Y70230D01*
X43042Y70226D01*
X43046Y70218D01*
X43051Y70198D01*
X43056Y70171D01*
X43077Y69858D01*
X43078Y69760D01*
X43091Y69729D01*
Y68906D01*
X43167Y68521D01*
X43385Y68196D01*
X44290Y67290D01*
X44616Y67073D01*
X45000Y66997D01*
X52000D01*
X52384Y67073D01*
X52710Y67290D01*
X54210Y68790D01*
X54427Y69116D01*
X54504Y69500D01*
Y84000D01*
X54427Y84384D01*
X54210Y84710D01*
X50611Y88308D01*
X50286Y88526D01*
X49902Y88602D01*
X48283D01*
X48252Y88615D01*
X48148Y88616D01*
X47975Y88623D01*
X47848Y88636D01*
X47814Y88642D01*
X47794Y88647D01*
X47786Y88651D01*
X47782Y88651D01*
X47769Y88655D01*
X47408Y88896D01*
X46870Y89003D01*
D02*
G37*
G36*
X61299Y85055D02*
X60992Y84994D01*
X60732Y84820D01*
X60558Y84559D01*
X60496Y84252D01*
X60558Y83945D01*
X60732Y83684D01*
X60992Y83510D01*
X61299Y83449D01*
X61607Y83510D01*
X61867Y83684D01*
X62041Y83945D01*
X62102Y84252D01*
X62041Y84559D01*
X61867Y84820D01*
X61607Y84994D01*
X61299Y85055D01*
D02*
G37*
G36*
X19291Y85055D02*
X18984Y84994D01*
X18724Y84820D01*
X18550Y84559D01*
X18488Y84252D01*
X18550Y83945D01*
X18724Y83684D01*
X18984Y83510D01*
X19291Y83449D01*
X19599Y83510D01*
X19859Y83684D01*
X20033Y83945D01*
X20094Y84252D01*
X20033Y84559D01*
X19859Y84820D01*
X19599Y84994D01*
X19291Y85055D01*
D02*
G37*
G36*
X31496Y62153D02*
X30958Y62046D01*
X30503Y61742D01*
X30198Y61286D01*
X30176Y61176D01*
X29666D01*
X29645Y61286D01*
X29340Y61742D01*
X28884Y62046D01*
X28346Y62153D01*
X27809Y62046D01*
X27353Y61742D01*
X27049Y61286D01*
X26941Y60748D01*
X27049Y60210D01*
X27290Y59849D01*
X27294Y59837D01*
X27294Y59832D01*
X27298Y59824D01*
X27303Y59804D01*
X27308Y59777D01*
X27329Y59465D01*
X27330Y59366D01*
X27343Y59335D01*
Y33262D01*
X20176Y26095D01*
X19959Y25770D01*
X19882Y25386D01*
Y23066D01*
X19869Y23035D01*
X19868Y22931D01*
X19861Y22758D01*
X19848Y22631D01*
X19842Y22597D01*
X19838Y22578D01*
X19834Y22570D01*
X19833Y22565D01*
X19829Y22552D01*
X19588Y22191D01*
X19481Y21654D01*
X19588Y21116D01*
X19892Y20660D01*
X20348Y20356D01*
X20886Y20249D01*
X21423Y20356D01*
X21879Y20660D01*
X22184Y21116D01*
X22291Y21654D01*
X22184Y22191D01*
X21943Y22552D01*
X21938Y22565D01*
X21938Y22570D01*
X21934Y22578D01*
X21929Y22597D01*
X21925Y22624D01*
X21903Y22937D01*
X21903Y23035D01*
X21889Y23066D01*
Y24970D01*
X29056Y32137D01*
X29274Y32462D01*
X29350Y32847D01*
Y59335D01*
X29363Y59366D01*
X29364Y59470D01*
X29371Y59643D01*
X29384Y59770D01*
X29390Y59804D01*
X29395Y59824D01*
X29399Y59832D01*
X29399Y59837D01*
X29403Y59849D01*
X29645Y60210D01*
X29666Y60321D01*
X30176D01*
X30198Y60210D01*
X30439Y59849D01*
X30444Y59837D01*
X30444Y59832D01*
X30448Y59824D01*
X30453Y59804D01*
X30457Y59777D01*
X30479Y59465D01*
X30479Y59366D01*
X30492Y59335D01*
Y20504D01*
X30569Y20120D01*
X30786Y19794D01*
X35290Y15290D01*
X35616Y15073D01*
X36000Y14997D01*
X60000D01*
X60384Y15073D01*
X60710Y15290D01*
X63485Y18066D01*
X63703Y18392D01*
X63779Y18776D01*
Y20241D01*
X63792Y20272D01*
X63793Y20376D01*
X63800Y20549D01*
X63813Y20676D01*
X63819Y20710D01*
X63824Y20730D01*
X63828Y20737D01*
X63828Y20742D01*
X63832Y20755D01*
X64074Y21116D01*
X64180Y21654D01*
X64074Y22191D01*
X63769Y22647D01*
X63313Y22952D01*
X62776Y23058D01*
X62238Y22952D01*
X61782Y22647D01*
X61478Y22191D01*
X61371Y21654D01*
X61478Y21116D01*
X61719Y20755D01*
X61723Y20742D01*
X61724Y20737D01*
X61727Y20730D01*
X61732Y20710D01*
X61737Y20683D01*
X61758Y20370D01*
X61759Y20272D01*
X61772Y20241D01*
Y19191D01*
X59584Y17004D01*
X36416D01*
X32500Y20920D01*
Y59335D01*
X32513Y59366D01*
X32514Y59470D01*
X32521Y59643D01*
X32534Y59770D01*
X32540Y59804D01*
X32544Y59824D01*
X32548Y59832D01*
X32548Y59837D01*
X32553Y59849D01*
X32794Y60210D01*
X32901Y60748D01*
X32794Y61286D01*
X32489Y61742D01*
X32034Y62046D01*
X31496Y62153D01*
D02*
G37*
G36*
X34646Y61551D02*
X34339Y61490D01*
X34078Y61316D01*
X33904Y61055D01*
X33843Y60748D01*
X33904Y60441D01*
X34078Y60180D01*
X34339Y60006D01*
X34646Y59945D01*
X34953Y60006D01*
X35213Y60180D01*
X35387Y60441D01*
X35449Y60748D01*
X35387Y61055D01*
X35213Y61316D01*
X34953Y61490D01*
X34646Y61551D01*
D02*
G37*
G36*
X44094Y55921D02*
X43787Y55860D01*
X43527Y55686D01*
X43353Y55425D01*
X43292Y55118D01*
X43353Y54811D01*
X43527Y54550D01*
X43787Y54376D01*
X44094Y54315D01*
X44402Y54376D01*
X44662Y54550D01*
X44836Y54811D01*
X44897Y55118D01*
X44836Y55425D01*
X44662Y55686D01*
X44402Y55860D01*
X44094Y55921D01*
D02*
G37*
G36*
X36220Y44031D02*
X35913Y43970D01*
X35653Y43796D01*
X35479Y43536D01*
X35418Y43228D01*
X35479Y42921D01*
X35653Y42661D01*
X35913Y42487D01*
X36220Y42426D01*
X36528Y42487D01*
X36788Y42661D01*
X36962Y42921D01*
X37023Y43228D01*
X36962Y43536D01*
X36788Y43796D01*
X36528Y43970D01*
X36220Y44031D01*
D02*
G37*
G36*
X62776Y40173D02*
X62468Y40112D01*
X62208Y39938D01*
X62034Y39677D01*
X61973Y39370D01*
X62034Y39063D01*
X62208Y38802D01*
X62468Y38628D01*
X62776Y38567D01*
X63083Y38628D01*
X63343Y38802D01*
X63517Y39063D01*
X63578Y39370D01*
X63517Y39677D01*
X63343Y39938D01*
X63083Y40112D01*
X62776Y40173D01*
D02*
G37*
G36*
X20886D02*
X20579Y40112D01*
X20318Y39938D01*
X20144Y39677D01*
X20083Y39370D01*
X20144Y39063D01*
X20318Y38802D01*
X20579Y38628D01*
X20886Y38567D01*
X21193Y38628D01*
X21453Y38802D01*
X21628Y39063D01*
X21689Y39370D01*
X21628Y39677D01*
X21453Y39938D01*
X21193Y40112D01*
X20886Y40173D01*
D02*
G37*
G36*
X27559Y76208D02*
X27021Y76101D01*
X26660Y75860D01*
X26648Y75856D01*
X26643Y75855D01*
X26635Y75851D01*
X26616Y75847D01*
X26588Y75842D01*
X26276Y75821D01*
X26177Y75820D01*
X26146Y75807D01*
X25803D01*
X25419Y75730D01*
X25093Y75513D01*
X22790Y73210D01*
X22573Y72884D01*
X22497Y72500D01*
Y36916D01*
X15255Y29674D01*
X15037Y29349D01*
X14961Y28965D01*
Y23066D01*
X14948Y23035D01*
X14947Y22931D01*
X14940Y22758D01*
X14927Y22631D01*
X14921Y22597D01*
X14916Y22578D01*
X14912Y22570D01*
X14912Y22565D01*
X14908Y22552D01*
X14667Y22191D01*
X14560Y21654D01*
X14667Y21116D01*
X14971Y20660D01*
X15427Y20356D01*
X15965Y20249D01*
X16502Y20356D01*
X16958Y20660D01*
X17263Y21116D01*
X17369Y21654D01*
X17263Y22191D01*
X17021Y22552D01*
X17017Y22565D01*
X17017Y22570D01*
X17013Y22578D01*
X17008Y22597D01*
X17003Y22624D01*
X16982Y22937D01*
X16981Y23035D01*
X16968Y23066D01*
Y28549D01*
X24210Y35790D01*
X24427Y36116D01*
X24503Y36500D01*
Y72084D01*
X26205Y73786D01*
X26281Y73786D01*
X26454Y73778D01*
X26581Y73765D01*
X26616Y73760D01*
X26635Y73755D01*
X26643Y73751D01*
X26648Y73751D01*
X26660Y73746D01*
X27021Y73505D01*
X27132Y73483D01*
Y72974D01*
X27021Y72952D01*
X26566Y72647D01*
X26261Y72191D01*
X26154Y71653D01*
X26261Y71116D01*
X26566Y70660D01*
X27021Y70356D01*
X27559Y70249D01*
X28097Y70356D01*
X28458Y70597D01*
X28471Y70601D01*
X28475Y70601D01*
X28483Y70605D01*
X28503Y70610D01*
X28530Y70615D01*
X28843Y70636D01*
X28941Y70637D01*
X28972Y70650D01*
X34431D01*
X37997Y67084D01*
Y25000D01*
X38073Y24616D01*
X38290Y24290D01*
X41637Y20944D01*
X41962Y20726D01*
X42347Y20650D01*
X56442D01*
X56473Y20637D01*
X56577Y20636D01*
X56750Y20629D01*
X56876Y20616D01*
X56911Y20610D01*
X56930Y20605D01*
X56938Y20601D01*
X56943Y20601D01*
X56956Y20597D01*
X57317Y20356D01*
X57854Y20249D01*
X58392Y20356D01*
X58848Y20660D01*
X59152Y21116D01*
X59259Y21654D01*
X59152Y22191D01*
X58848Y22647D01*
X58392Y22952D01*
X57854Y23058D01*
X57317Y22952D01*
X56956Y22710D01*
X56943Y22706D01*
X56938Y22706D01*
X56930Y22702D01*
X56911Y22697D01*
X56884Y22692D01*
X56571Y22671D01*
X56473Y22670D01*
X56442Y22657D01*
X42762D01*
X40003Y25416D01*
Y67500D01*
X39927Y67884D01*
X39710Y68210D01*
X35556Y72363D01*
X35230Y72581D01*
X34846Y72657D01*
X28972D01*
X28941Y72670D01*
X28837Y72671D01*
X28664Y72678D01*
X28537Y72691D01*
X28503Y72697D01*
X28483Y72702D01*
X28475Y72706D01*
X28471Y72706D01*
X28458Y72710D01*
X28097Y72952D01*
X27987Y72974D01*
Y73483D01*
X28097Y73505D01*
X28552Y73810D01*
X28857Y74265D01*
X28964Y74803D01*
X28857Y75341D01*
X28552Y75797D01*
X28097Y76101D01*
X27559Y76208D01*
D02*
G37*
%LPD*%
G36*
X47365Y149667D02*
X47348Y149633D01*
X47333Y149590D01*
X47321Y149537D01*
X47310Y149474D01*
X47294Y149320D01*
X47286Y149127D01*
X47285Y149016D01*
X46104D01*
X46103Y149127D01*
X46079Y149474D01*
X46069Y149537D01*
X46056Y149590D01*
X46041Y149633D01*
X46024Y149667D01*
X46005Y149691D01*
X47383D01*
X47365Y149667D01*
D02*
G37*
G36*
X42443D02*
X42427Y149633D01*
X42412Y149590D01*
X42399Y149537D01*
X42388Y149474D01*
X42373Y149320D01*
X42365Y149127D01*
X42364Y149016D01*
X41183D01*
X41182Y149127D01*
X41158Y149474D01*
X41147Y149537D01*
X41134Y149590D01*
X41120Y149633D01*
X41103Y149667D01*
X41084Y149691D01*
X42462D01*
X42443Y149667D01*
D02*
G37*
G36*
X37522D02*
X37505Y149633D01*
X37491Y149590D01*
X37478Y149537D01*
X37467Y149474D01*
X37451Y149320D01*
X37444Y149127D01*
X37442Y149016D01*
X36261D01*
X36260Y149127D01*
X36237Y149474D01*
X36226Y149537D01*
X36213Y149590D01*
X36198Y149633D01*
X36182Y149667D01*
X36163Y149691D01*
X37541D01*
X37522Y149667D01*
D02*
G37*
G36*
X32166Y103604D02*
X32150Y103570D01*
X32135Y103526D01*
X32122Y103473D01*
X32111Y103411D01*
X32096Y103256D01*
X32088Y103064D01*
X32087Y102953D01*
X30906D01*
X30904Y103064D01*
X30881Y103411D01*
X30870Y103473D01*
X30857Y103526D01*
X30843Y103570D01*
X30826Y103604D01*
X30807Y103628D01*
X32185D01*
X32166Y103604D01*
D02*
G37*
G36*
X29017D02*
X29000Y103570D01*
X28985Y103526D01*
X28972Y103473D01*
X28962Y103411D01*
X28946Y103256D01*
X28938Y103064D01*
X28937Y102953D01*
X27756D01*
X27755Y103064D01*
X27731Y103411D01*
X27720Y103473D01*
X27708Y103526D01*
X27693Y103570D01*
X27676Y103604D01*
X27657Y103628D01*
X29035D01*
X29017Y103604D01*
D02*
G37*
G36*
X18308Y94968D02*
X18332Y94621D01*
X18342Y94558D01*
X18355Y94505D01*
X18370Y94462D01*
X18387Y94428D01*
X18406Y94404D01*
X17028D01*
X17046Y94428D01*
X17063Y94462D01*
X17078Y94505D01*
X17090Y94558D01*
X17101Y94621D01*
X17117Y94775D01*
X17125Y94968D01*
X17126Y95079D01*
X18307D01*
X18308Y94968D01*
D02*
G37*
G36*
X47597Y88269D02*
X47631Y88252D01*
X47674Y88237D01*
X47727Y88224D01*
X47790Y88214D01*
X47944Y88198D01*
X48137Y88190D01*
X48248Y88189D01*
Y87008D01*
X48137Y87007D01*
X47790Y86983D01*
X47727Y86972D01*
X47674Y86960D01*
X47631Y86945D01*
X47597Y86928D01*
X47573Y86910D01*
Y88287D01*
X47597Y88269D01*
D02*
G37*
G36*
X42597D02*
X42631Y88252D01*
X42674Y88237D01*
X42727Y88224D01*
X42790Y88214D01*
X42944Y88198D01*
X43137Y88190D01*
X43248Y88189D01*
Y87008D01*
X43137Y87007D01*
X42790Y86983D01*
X42727Y86972D01*
X42674Y86960D01*
X42631Y86945D01*
X42597Y86928D01*
X42573Y86910D01*
Y88287D01*
X42597Y88269D01*
D02*
G37*
G36*
X41167Y86910D02*
X41143Y86928D01*
X41109Y86945D01*
X41066Y86960D01*
X41013Y86972D01*
X40950Y86983D01*
X40603Y87007D01*
X40492Y87008D01*
Y88189D01*
X40603Y88190D01*
X40796Y88198D01*
X40950Y88214D01*
X41013Y88224D01*
X41066Y88237D01*
X41109Y88252D01*
X41143Y88269D01*
X41167Y88287D01*
Y86910D01*
D02*
G37*
G36*
X37597Y88269D02*
X37631Y88252D01*
X37674Y88237D01*
X37727Y88224D01*
X37790Y88214D01*
X37944Y88198D01*
X38137Y88190D01*
X38248Y88189D01*
Y87008D01*
X38137Y87007D01*
X37790Y86983D01*
X37727Y86972D01*
X37674Y86960D01*
X37631Y86945D01*
X37597Y86928D01*
X37573Y86910D01*
Y88287D01*
X37597Y88269D01*
D02*
G37*
G36*
X32650Y86991D02*
X32642Y86963D01*
X32634Y86924D01*
X32628Y86875D01*
X32616Y86665D01*
X32611Y86360D01*
X31430Y86127D01*
X31429Y86238D01*
X31409Y86511D01*
X31397Y86583D01*
X31382Y86645D01*
X31365Y86698D01*
X31345Y86741D01*
X31322Y86774D01*
X31297Y86798D01*
X32658Y87009D01*
X32650Y86991D01*
D02*
G37*
G36*
X50985Y72409D02*
X51009Y72062D01*
X51020Y71999D01*
X51033Y71946D01*
X51047Y71903D01*
X51064Y71869D01*
X51083Y71845D01*
X49705D01*
X49723Y71869D01*
X49740Y71903D01*
X49755Y71946D01*
X49768Y71999D01*
X49779Y72062D01*
X49794Y72216D01*
X49802Y72409D01*
X49803Y72520D01*
X50984D01*
X50985Y72409D01*
D02*
G37*
G36*
X47836D02*
X47859Y72062D01*
X47870Y71999D01*
X47883Y71946D01*
X47898Y71903D01*
X47914Y71869D01*
X47933Y71845D01*
X46555D01*
X46574Y71869D01*
X46591Y71903D01*
X46605Y71946D01*
X46618Y71999D01*
X46629Y72062D01*
X46645Y72216D01*
X46653Y72409D01*
X46654Y72520D01*
X47835D01*
X47836Y72409D01*
D02*
G37*
G36*
X44765Y70415D02*
X44748Y70381D01*
X44733Y70338D01*
X44721Y70284D01*
X44710Y70222D01*
X44694Y70068D01*
X44686Y69875D01*
X44685Y69764D01*
X43504D01*
X43503Y69875D01*
X43479Y70222D01*
X43468Y70284D01*
X43456Y70338D01*
X43441Y70381D01*
X43424Y70415D01*
X43406Y70439D01*
X44783D01*
X44765Y70415D01*
D02*
G37*
G36*
X52496Y83584D02*
Y69916D01*
X51584Y69003D01*
X45416D01*
X45098Y69321D01*
Y69729D01*
X45111Y69760D01*
X45112Y69864D01*
X45119Y70037D01*
X45132Y70164D01*
X45138Y70198D01*
X45143Y70218D01*
X45147Y70226D01*
X45147Y70230D01*
X45151Y70243D01*
X45393Y70604D01*
X45414Y70714D01*
X45924D01*
X45946Y70604D01*
X46251Y70148D01*
X46706Y69844D01*
X47244Y69737D01*
X47782Y69844D01*
X48237Y70148D01*
X48542Y70604D01*
X48564Y70714D01*
X49074D01*
X49096Y70604D01*
X49400Y70148D01*
X49856Y69844D01*
X50394Y69737D01*
X50931Y69844D01*
X51387Y70148D01*
X51692Y70604D01*
X51799Y71142D01*
X51692Y71679D01*
X51450Y72040D01*
X51446Y72053D01*
X51446Y72058D01*
X51442Y72066D01*
X51437Y72085D01*
X51433Y72112D01*
X51411Y72425D01*
X51410Y72523D01*
X51397Y72554D01*
Y81106D01*
X51321Y81490D01*
X51103Y81816D01*
X47175Y85744D01*
X47339Y86287D01*
X47408Y86300D01*
X47769Y86542D01*
X47782Y86546D01*
X47786Y86546D01*
X47794Y86550D01*
X47814Y86555D01*
X47841Y86560D01*
X48154Y86581D01*
X48252Y86582D01*
X48283Y86595D01*
X49486D01*
X52496Y83584D01*
D02*
G37*
G36*
X32166Y60021D02*
X32150Y59987D01*
X32135Y59944D01*
X32122Y59891D01*
X32111Y59828D01*
X32096Y59674D01*
X32088Y59481D01*
X32087Y59370D01*
X30906D01*
X30904Y59481D01*
X30881Y59828D01*
X30870Y59891D01*
X30857Y59944D01*
X30843Y59987D01*
X30826Y60021D01*
X30807Y60045D01*
X32185D01*
X32166Y60021D01*
D02*
G37*
G36*
X29017D02*
X29000Y59987D01*
X28985Y59944D01*
X28972Y59891D01*
X28962Y59828D01*
X28946Y59674D01*
X28938Y59481D01*
X28937Y59370D01*
X27756D01*
X27755Y59481D01*
X27731Y59828D01*
X27720Y59891D01*
X27708Y59944D01*
X27693Y59987D01*
X27676Y60021D01*
X27657Y60045D01*
X29035D01*
X29017Y60021D01*
D02*
G37*
G36*
X21477Y22921D02*
X21501Y22573D01*
X21512Y22511D01*
X21525Y22458D01*
X21539Y22414D01*
X21556Y22381D01*
X21575Y22356D01*
X20197D01*
X20216Y22381D01*
X20232Y22414D01*
X20247Y22458D01*
X20260Y22511D01*
X20271Y22573D01*
X20286Y22728D01*
X20294Y22921D01*
X20295Y23031D01*
X21476D01*
X21477Y22921D01*
D02*
G37*
G36*
X63446Y20926D02*
X63429Y20893D01*
X63414Y20849D01*
X63402Y20796D01*
X63391Y20734D01*
X63375Y20579D01*
X63367Y20387D01*
X63366Y20276D01*
X62185D01*
X62184Y20387D01*
X62160Y20734D01*
X62150Y20796D01*
X62137Y20849D01*
X62122Y20893D01*
X62105Y20926D01*
X62087Y20951D01*
X63465D01*
X63446Y20926D01*
D02*
G37*
G36*
X26856Y74114D02*
X26832Y74133D01*
X26798Y74150D01*
X26755Y74164D01*
X26702Y74177D01*
X26639Y74188D01*
X26485Y74204D01*
X26292Y74212D01*
X26181Y74213D01*
Y75394D01*
X26292Y75395D01*
X26639Y75418D01*
X26702Y75429D01*
X26755Y75442D01*
X26798Y75457D01*
X26832Y75473D01*
X26856Y75492D01*
Y74114D01*
D02*
G37*
G36*
X28286Y72324D02*
X28320Y72307D01*
X28363Y72292D01*
X28416Y72280D01*
X28479Y72269D01*
X28633Y72253D01*
X28826Y72245D01*
X28937Y72244D01*
Y71063D01*
X28826Y71062D01*
X28479Y71038D01*
X28416Y71028D01*
X28363Y71015D01*
X28320Y71000D01*
X28286Y70983D01*
X28262Y70965D01*
Y72342D01*
X28286Y72324D01*
D02*
G37*
G36*
X16556Y22921D02*
X16580Y22573D01*
X16590Y22511D01*
X16603Y22458D01*
X16618Y22414D01*
X16635Y22380D01*
X16654Y22356D01*
X15276D01*
X15294Y22380D01*
X15311Y22414D01*
X15326Y22458D01*
X15339Y22511D01*
X15349Y22573D01*
X15365Y22728D01*
X15373Y22921D01*
X15374Y23031D01*
X16555D01*
X16556Y22921D01*
D02*
G37*
G36*
X57151Y20965D02*
X57127Y20983D01*
X57094Y21000D01*
X57050Y21015D01*
X56997Y21028D01*
X56934Y21038D01*
X56780Y21054D01*
X56587Y21062D01*
X56476Y21063D01*
Y22244D01*
X56587Y22245D01*
X56934Y22269D01*
X56997Y22279D01*
X57050Y22292D01*
X57094Y22307D01*
X57127Y22324D01*
X57151Y22343D01*
Y20965D01*
D02*
G37*
D38*
X17717Y93701D02*
Y143152D01*
X21139Y146575D01*
X36000D01*
X36852Y147427D01*
Y150394D01*
X21558Y101075D02*
X27575D01*
X28346Y101847D01*
Y104331D01*
X20866Y101767D02*
X21558Y101075D01*
X20866Y101767D02*
Y141848D01*
X19291Y142500D02*
X21791Y145000D01*
X19291Y101000D02*
X20791Y99500D01*
X19291Y101000D02*
Y142500D01*
X43925Y143425D02*
X46694Y146195D01*
Y150394D01*
X22444Y143425D02*
X43925D01*
X21791Y145000D02*
X40000D01*
X41773Y146773D01*
Y150394D01*
X20866Y141848D02*
X22444Y143425D01*
X20791Y99500D02*
X30500D01*
X31496Y100496D01*
Y104331D01*
X53500Y69500D02*
Y84000D01*
X46870Y87598D02*
X49902D01*
X53500Y84000D01*
X45000Y68000D02*
X52000D01*
X53500Y69500D01*
X44094Y68906D02*
Y71142D01*
Y68906D02*
X45000Y68000D01*
X43902Y87598D02*
X50394Y81106D01*
Y71142D02*
Y81106D01*
X36870Y87598D02*
X43902D01*
X47244Y71142D02*
Y79756D01*
X44000Y83000D02*
X47244Y79756D01*
X34500Y83000D02*
X44000D01*
X32021Y85479D02*
X34500Y83000D01*
X32021Y85479D02*
Y87448D01*
X31870Y87598D02*
X32021Y87448D01*
X60000Y16000D02*
X62776Y18776D01*
X31496Y20504D02*
X36000Y16000D01*
X60000D01*
X39000Y25000D02*
Y67500D01*
Y25000D02*
X42347Y21654D01*
X57854D01*
X34846Y71653D02*
X39000Y67500D01*
X27559Y71653D02*
X34846D01*
X62776Y18776D02*
Y21654D01*
X31496Y20504D02*
Y60748D01*
X25803Y74803D02*
X27559D01*
X23500Y36500D02*
Y72500D01*
X25803Y74803D01*
X15965Y28965D02*
X23500Y36500D01*
X20886Y21654D02*
Y25386D01*
X28346Y32847D01*
X15965Y21654D02*
Y28965D01*
X28346Y32847D02*
Y60748D01*
D40*
X70866Y160433D02*
D03*
X73622Y157480D02*
D03*
X74803Y153149D02*
D03*
Y27165D02*
D03*
Y31102D02*
D03*
Y35039D02*
D03*
Y38976D02*
D03*
Y42913D02*
D03*
Y46850D02*
D03*
Y50787D02*
D03*
Y54724D02*
D03*
Y58661D02*
D03*
Y62598D02*
D03*
Y90157D02*
D03*
Y86220D02*
D03*
Y82283D02*
D03*
Y78346D02*
D03*
Y74409D02*
D03*
Y70472D02*
D03*
Y66535D02*
D03*
Y117716D02*
D03*
Y113779D02*
D03*
Y109842D02*
D03*
Y105905D02*
D03*
Y101968D02*
D03*
Y98031D02*
D03*
Y94094D02*
D03*
Y145275D02*
D03*
Y141338D02*
D03*
Y137401D02*
D03*
Y133464D02*
D03*
Y129527D02*
D03*
Y125590D02*
D03*
Y121653D02*
D03*
Y149212D02*
D03*
X7874Y160433D02*
D03*
X4921Y157480D02*
D03*
X3937Y153542D02*
D03*
Y149605D02*
D03*
Y122046D02*
D03*
Y125983D02*
D03*
Y129920D02*
D03*
Y133857D02*
D03*
Y137794D02*
D03*
Y141731D02*
D03*
Y145668D02*
D03*
Y94487D02*
D03*
Y98424D02*
D03*
Y102361D02*
D03*
Y106298D02*
D03*
Y110235D02*
D03*
Y114172D02*
D03*
Y118109D02*
D03*
Y66928D02*
D03*
Y70865D02*
D03*
Y74802D02*
D03*
Y78739D02*
D03*
Y82676D02*
D03*
Y86613D02*
D03*
Y90550D02*
D03*
Y62991D02*
D03*
Y59054D02*
D03*
Y55117D02*
D03*
Y51180D02*
D03*
Y47243D02*
D03*
Y43306D02*
D03*
Y39369D02*
D03*
Y35432D02*
D03*
Y31495D02*
D03*
Y27558D02*
D03*
D41*
X54000Y62500D02*
D03*
X44500Y76500D02*
D03*
X14500Y77500D02*
D03*
X11500Y30000D02*
D03*
X39500Y4500D02*
D03*
X54000Y153000D02*
D03*
X34500Y153500D02*
D03*
X18000Y147500D02*
D03*
X55000Y116500D02*
D03*
X67500Y140000D02*
D03*
X44500Y138500D02*
D03*
X25000Y107500D02*
D03*
X54000Y103500D02*
D03*
X51500Y91000D02*
D03*
X34500Y80000D02*
D03*
X14000Y54500D02*
D03*
X55000Y54000D02*
D03*
X43000Y38000D02*
D03*
X43500Y26000D02*
D03*
X39500Y19000D02*
D03*
X28000Y27500D02*
D03*
X26000Y39000D02*
D03*
X34500Y57000D02*
D03*
X35184Y37657D02*
D03*
X18000Y89000D02*
D03*
X27746Y87174D02*
D03*
X31000Y76000D02*
D03*
X17717Y93701D02*
D03*
X41870Y87598D02*
D03*
X46870D02*
D03*
X36870D02*
D03*
X31870D02*
D03*
X50394Y71142D02*
D03*
X47244D02*
D03*
X44094D02*
D03*
X31496Y60748D02*
D03*
X28346D02*
D03*
X27559Y71653D02*
D03*
Y74803D02*
D03*
X31496Y104331D02*
D03*
X28346D02*
D03*
X15965Y21654D02*
D03*
X57854Y39370D02*
D03*
X15965D02*
D03*
X20886Y21654D02*
D03*
X62776Y21654D02*
D03*
X57854Y21654D02*
D03*
X36852Y150394D02*
D03*
X41773D02*
D03*
X46694D02*
D03*
M02*
