G04*
G04 #@! TF.GenerationSoftware,Altium Limited,Altium Designer,23.3.1 (30)*
G04*
G04 Layer_Color=8421504*
%FSLAX25Y25*%
%MOIN*%
G70*
G04*
G04 #@! TF.SameCoordinates,B8D109ED-CDE9-4BA8-ABFF-944DEA042C50*
G04*
G04*
G04 #@! TF.FilePolarity,Positive*
G04*
G01*
G75*
%ADD15R,0.04724X0.01968*%
%ADD16R,0.01968X0.04724*%
%ADD17R,0.06890X0.03937*%
%ADD18R,0.22441X0.21654*%
%ADD19R,0.02362X0.03150*%
%ADD20R,0.02756X0.03937*%
%ADD21R,0.02047X0.01850*%
%ADD22R,0.01850X0.02047*%
%ADD23R,0.07874X0.11811*%
%ADD24R,0.02953X0.05906*%
D15*
X56102Y71653D02*
D03*
Y74803D02*
D03*
Y77953D02*
D03*
Y81102D02*
D03*
Y84252D02*
D03*
Y87402D02*
D03*
Y90551D02*
D03*
Y93701D02*
D03*
X22638D02*
D03*
Y90551D02*
D03*
Y87402D02*
D03*
Y84252D02*
D03*
Y81102D02*
D03*
Y77953D02*
D03*
Y74803D02*
D03*
Y71653D02*
D03*
D16*
X50394Y99409D02*
D03*
X47244D02*
D03*
X44094D02*
D03*
X40945D02*
D03*
X37795D02*
D03*
X34646D02*
D03*
X31496D02*
D03*
X28346D02*
D03*
Y65945D02*
D03*
X31496D02*
D03*
X34646D02*
D03*
X37795D02*
D03*
X40945D02*
D03*
X44094D02*
D03*
X47244D02*
D03*
X50394D02*
D03*
D17*
X49862Y113051D02*
D03*
Y131043D02*
D03*
D18*
X23622Y122047D02*
D03*
D19*
X59252Y116929D02*
D03*
X62992D02*
D03*
X66732D02*
D03*
Y127165D02*
D03*
X59252D02*
D03*
X62992D02*
D03*
D20*
X20669Y137795D02*
D03*
X14764D02*
D03*
D21*
X66732Y108543D02*
D03*
Y111929D02*
D03*
X37795Y57362D02*
D03*
Y60748D02*
D03*
X15965Y37126D02*
D03*
Y33740D02*
D03*
X57854Y37126D02*
D03*
Y33740D02*
D03*
X47244Y57362D02*
D03*
Y60748D02*
D03*
X40945D02*
D03*
Y57362D02*
D03*
X20886Y33740D02*
D03*
Y37126D02*
D03*
X62776Y33740D02*
D03*
Y37126D02*
D03*
X44094Y60748D02*
D03*
Y57362D02*
D03*
X62992Y132165D02*
D03*
Y135551D02*
D03*
Y108543D02*
D03*
Y111929D02*
D03*
X59252Y108543D02*
D03*
Y111929D02*
D03*
Y135551D02*
D03*
Y132165D02*
D03*
X50394Y57362D02*
D03*
Y60748D02*
D03*
D22*
X64685Y87402D02*
D03*
X61299D02*
D03*
X64685Y81102D02*
D03*
X61299D02*
D03*
X17441Y84252D02*
D03*
X14055D02*
D03*
X29252Y137795D02*
D03*
X25866D02*
D03*
D23*
X16970Y157087D02*
D03*
X61655D02*
D03*
X5925Y16142D02*
D03*
X30925D02*
D03*
X47815D02*
D03*
X72815D02*
D03*
D24*
X27009Y145669D02*
D03*
X36852D02*
D03*
X31931D02*
D03*
X41773D02*
D03*
X51616D02*
D03*
X46694D02*
D03*
X15965Y27559D02*
D03*
X20886D02*
D03*
X57854D02*
D03*
X62776D02*
D03*
M02*
