M48
;Layer_Color=9474304
;FILE_FORMAT=2:5
INCH,LZ
;TYPE=PLATED
T1F00S00C0.00787
T2F00S00C0.01968
%
T01
X00435Y0026
X0043Y0038
X0057854Y003937
X0062776
Y0021654
X0057854Y0021654
X00395Y0019
Y00045
X0028Y00275
X0020886Y0021654
X0015965Y0021654
X00115Y003
X0015965Y003937
X0020886
X0026Y0039
X0035184Y0037657
X003622Y0043228
X00345Y0057
X0034646Y0060748
X0031496
X0028346
X0027559Y0071653
Y0074803
X0031Y0076
X00345Y008
X003687Y0087598
X003187
X0027746Y0087174
X0019291Y0084252
X0018Y0089
X0017717Y0093701
X00145Y00775
X0014Y00545
X0025Y01075
X0028346Y0104331
X0031496
X0034646
X0037795
X0040945
X0037921Y01315
X0036852Y0150394
X0031931
X0027124
X00345Y01535
X0018Y01475
X0041773Y0150394
X0046694
X0054Y0153
X0056537Y0145669
X00675Y014
X00445Y01385
X0049114Y0117402
X0055Y01165
X0059252Y0114429
X0066732
X0054Y01035
X00515Y0091
X004687Y0087598
X004187
X00445Y00765
X0044094Y0071142
X0047244
X0050394
X0054Y00625
X0055Y0054
X0044094Y0055118
X0061299Y0084252
T02
X0074803Y0027165
Y0031102
Y0035039
Y0038976
Y0042913
Y004685
X0003937Y0047243
Y0043306
Y0039369
Y0035432
Y0031495
Y0027558
Y005118
Y0055117
Y0059054
Y0062991
Y0066928
Y0070865
Y0074802
Y0078739
Y0082676
Y0086613
Y009055
Y0094487
Y0098424
Y0102361
Y0106298
Y0110235
Y0114172
Y0118109
Y0122046
Y0125983
Y012992
Y0133857
Y0137794
Y0141731
Y0145668
Y0149605
Y0153542
X0004921Y015748
X0007874Y0160433
X0070866
X0073622Y015748
X0074803Y0153149
Y0149212
Y0145275
Y0141338
Y0137401
Y0133464
Y0129527
Y012559
Y0121653
Y0117716
Y0113779
Y0109842
Y0105905
Y0101968
Y0098031
Y0094094
Y0090157
Y008622
Y0082283
Y0078346
Y0074409
Y0070472
Y0066535
Y0062598
Y0058661
Y0054724
Y0050787
M30
