G04*
G04 #@! TF.GenerationSoftware,Altium Limited,Altium Designer,23.3.1 (30)*
G04*
G04 Layer_Color=32896*
%FSLAX25Y25*%
%MOIN*%
G70*
G04*
G04 #@! TF.SameCoordinates,1F88A29E-7469-45C6-BA0D-B9C1A24CBB33*
G04*
G04*
G04 #@! TF.FilePolarity,Positive*
G04*
G01*
G75*
%ADD10C,0.00394*%
G36*
X-18748Y-2275D02*
X-18709Y-2333D01*
X-18661Y-2392D01*
X-18618Y-2443D01*
X-18574Y-2486D01*
X-18541Y-2523D01*
X-18527Y-2534D01*
X-18516Y-2544D01*
X-18512Y-2548D01*
X-18508Y-2552D01*
X-18432Y-2614D01*
X-18355Y-2672D01*
X-18283Y-2723D01*
X-18210Y-2763D01*
X-18148Y-2799D01*
X-18122Y-2814D01*
X-18101Y-2825D01*
X-18082Y-2836D01*
X-18068Y-2839D01*
X-18061Y-2847D01*
X-18057D01*
Y-3145D01*
X-18112Y-3123D01*
X-18166Y-3098D01*
X-18221Y-3072D01*
X-18272Y-3047D01*
X-18315Y-3025D01*
X-18352Y-3007D01*
X-18374Y-2992D01*
X-18377Y-2989D01*
X-18381D01*
X-18446Y-2949D01*
X-18505Y-2908D01*
X-18556Y-2872D01*
X-18596Y-2839D01*
X-18632Y-2814D01*
X-18654Y-2792D01*
X-18672Y-2778D01*
X-18676Y-2774D01*
Y-4743D01*
X-18985D01*
Y-2213D01*
X-18785D01*
X-18748Y-2275D01*
D02*
G37*
G36*
X-17067Y-3960D02*
Y-4037D01*
X-17060Y-4102D01*
X-17056Y-4157D01*
X-17049Y-4201D01*
X-17041Y-4233D01*
X-17038Y-4259D01*
X-17030Y-4273D01*
Y-4277D01*
X-17016Y-4313D01*
X-16998Y-4343D01*
X-16976Y-4368D01*
X-16958Y-4394D01*
X-16936Y-4408D01*
X-16921Y-4423D01*
X-16910Y-4430D01*
X-16907Y-4434D01*
X-16870Y-4452D01*
X-16834Y-4466D01*
X-16797Y-4474D01*
X-16765Y-4481D01*
X-16732Y-4485D01*
X-16710Y-4488D01*
X-16688D01*
X-16630Y-4485D01*
X-16575Y-4470D01*
X-16532Y-4456D01*
X-16492Y-4434D01*
X-16463Y-4416D01*
X-16441Y-4397D01*
X-16426Y-4386D01*
X-16423Y-4383D01*
X-16404Y-4361D01*
X-16390Y-4335D01*
X-16368Y-4277D01*
X-16346Y-4212D01*
X-16335Y-4146D01*
X-16324Y-4084D01*
Y-4059D01*
X-16321Y-4037D01*
X-16317Y-4015D01*
Y-4000D01*
Y-3993D01*
Y-3990D01*
X-16015Y-4033D01*
Y-4102D01*
X-16018Y-4164D01*
X-16029Y-4226D01*
X-16037Y-4281D01*
X-16051Y-4332D01*
X-16066Y-4375D01*
X-16080Y-4419D01*
X-16095Y-4456D01*
X-16113Y-4488D01*
X-16128Y-4517D01*
X-16142Y-4543D01*
X-16157Y-4561D01*
X-16168Y-4576D01*
X-16175Y-4590D01*
X-16179Y-4594D01*
X-16182Y-4597D01*
X-16219Y-4630D01*
X-16255Y-4659D01*
X-16295Y-4685D01*
X-16339Y-4707D01*
X-16423Y-4739D01*
X-16503Y-4761D01*
X-16579Y-4776D01*
X-16608Y-4780D01*
X-16637Y-4783D01*
X-16659Y-4787D01*
X-16692D01*
X-16772Y-4783D01*
X-16845Y-4772D01*
X-16910Y-4758D01*
X-16969Y-4739D01*
X-17016Y-4725D01*
X-17049Y-4710D01*
X-17071Y-4699D01*
X-17078Y-4696D01*
X-17136Y-4659D01*
X-17187Y-4616D01*
X-17227Y-4572D01*
X-17263Y-4532D01*
X-17289Y-4492D01*
X-17307Y-4463D01*
X-17318Y-4441D01*
X-17322Y-4437D01*
Y-4434D01*
X-17347Y-4361D01*
X-17369Y-4284D01*
X-17383Y-4201D01*
X-17391Y-4121D01*
X-17398Y-4051D01*
Y-4022D01*
X-17402Y-3993D01*
Y-3971D01*
Y-3957D01*
Y-3946D01*
Y-3942D01*
Y-2224D01*
X-17067D01*
Y-3960D01*
D02*
G37*
D10*
X-7874Y-17717D02*
Y-15354D01*
Y-17717D02*
X7874D01*
Y-15354D01*
X-7874Y-4724D02*
X7874D01*
M02*
