G04*
G04 #@! TF.GenerationSoftware,Altium Limited,Altium Designer,23.3.1 (30)*
G04*
G04 Layer_Color=8388736*
%FSLAX25Y25*%
%MOIN*%
G70*
G04*
G04 #@! TF.SameCoordinates,1F88A29E-7469-45C6-BA0D-B9C1A24CBB33*
G04*
G04*
G04 #@! TF.FilePolarity,Negative*
G04*
G01*
G75*
%ADD12R,0.02047X0.04016*%
%ADD13C,0.19764*%
G36*
X22065Y4293D02*
X22331D01*
Y4227D01*
X22864D01*
Y4293D01*
X23530D01*
Y4227D01*
X24195D01*
Y4160D01*
X24595D01*
Y4093D01*
X24861D01*
Y4027D01*
X24928D01*
Y3960D01*
X25061D01*
Y3894D01*
X25194D01*
Y3827D01*
X25261D01*
Y3761D01*
X25327D01*
Y3694D01*
X25394D01*
Y3627D01*
X25460D01*
Y3561D01*
X25527D01*
Y3494D01*
X25594D01*
Y3428D01*
Y3361D01*
X25527D01*
Y3295D01*
Y3228D01*
X25594D01*
Y3295D01*
X25660D01*
Y3361D01*
X25727D01*
Y3295D01*
Y3228D01*
X25793D01*
Y3161D01*
Y3095D01*
X25926D01*
Y3028D01*
X25860D01*
Y2962D01*
X25993D01*
Y2895D01*
X26059D01*
Y2829D01*
Y2762D01*
Y2695D01*
X26126D01*
Y2629D01*
X26193D01*
Y2562D01*
Y2496D01*
X26259D01*
Y2429D01*
Y2363D01*
Y2296D01*
X26326D01*
Y2229D01*
Y2163D01*
X26392D01*
Y2096D01*
Y2030D01*
X26459D01*
Y1963D01*
Y1897D01*
X26526D01*
Y1830D01*
X26592D01*
Y1763D01*
Y1697D01*
X26659D01*
Y1630D01*
Y1564D01*
X26725D01*
Y1497D01*
X26792D01*
Y1431D01*
X26725D01*
Y1364D01*
X26792D01*
Y1297D01*
X26858D01*
Y1231D01*
Y1164D01*
Y1098D01*
X26925D01*
Y1031D01*
Y965D01*
Y898D01*
X26991D01*
Y831D01*
Y765D01*
Y698D01*
Y632D01*
Y565D01*
X27058D01*
Y499D01*
Y432D01*
X27924D01*
Y365D01*
X27857D01*
Y299D01*
X27724D01*
Y232D01*
X27457D01*
Y166D01*
X27857D01*
Y99D01*
X27790D01*
Y33D01*
X27724D01*
Y99D01*
X27657D01*
Y33D01*
X27591D01*
Y-34D01*
X27125D01*
Y-101D01*
Y-167D01*
Y-234D01*
Y-300D01*
Y-367D01*
Y-433D01*
Y-500D01*
Y-567D01*
Y-633D01*
Y-700D01*
X27058D01*
Y-766D01*
Y-833D01*
Y-899D01*
Y-966D01*
X26991D01*
Y-1033D01*
X26925D01*
Y-1099D01*
X26991D01*
Y-1166D01*
X26925D01*
Y-1232D01*
X26858D01*
Y-1299D01*
X26792D01*
Y-1365D01*
X26858D01*
Y-1432D01*
X26792D01*
Y-1499D01*
Y-1565D01*
X26725D01*
Y-1499D01*
X26659D01*
Y-1565D01*
X26725D01*
Y-1632D01*
Y-1698D01*
X26659D01*
Y-1765D01*
X26592D01*
Y-1831D01*
Y-1898D01*
X26526D01*
Y-1965D01*
X26392D01*
Y-2031D01*
Y-2098D01*
X26259D01*
Y-2164D01*
X26193D01*
Y-2231D01*
X26059D01*
Y-2297D01*
X25860D01*
Y-2364D01*
X25527D01*
Y-2297D01*
X25327D01*
Y-2231D01*
X25194D01*
Y-2164D01*
X25127D01*
Y-2098D01*
X25061D01*
Y-2031D01*
X24994D01*
Y-1965D01*
Y-1898D01*
Y-1831D01*
X24928D01*
Y-1765D01*
Y-1698D01*
X24861D01*
Y-1632D01*
Y-1565D01*
Y-1499D01*
Y-1432D01*
X24928D01*
Y-1365D01*
X24994D01*
Y-1299D01*
X24928D01*
Y-1232D01*
X24994D01*
Y-1166D01*
Y-1099D01*
X25061D01*
Y-1033D01*
X25127D01*
Y-966D01*
X25194D01*
Y-899D01*
X25394D01*
Y-966D01*
X25460D01*
Y-1033D01*
Y-1099D01*
X25394D01*
Y-1166D01*
X25460D01*
Y-1232D01*
Y-1299D01*
X25394D01*
Y-1365D01*
X25327D01*
Y-1432D01*
Y-1499D01*
Y-1565D01*
X25394D01*
Y-1632D01*
X25527D01*
Y-1698D01*
X25727D01*
Y-1632D01*
X25860D01*
Y-1565D01*
X25926D01*
Y-1499D01*
X25993D01*
Y-1432D01*
Y-1365D01*
Y-1299D01*
X26059D01*
Y-1232D01*
X26126D01*
Y-1166D01*
X26059D01*
Y-1099D01*
X26126D01*
Y-1033D01*
Y-966D01*
Y-899D01*
Y-833D01*
Y-766D01*
Y-700D01*
Y-633D01*
Y-567D01*
Y-500D01*
Y-433D01*
Y-367D01*
Y-300D01*
X26193D01*
Y-234D01*
X26126D01*
Y-167D01*
Y-101D01*
X26059D01*
Y-34D01*
Y33D01*
X25993D01*
Y99D01*
Y166D01*
Y232D01*
X25926D01*
Y299D01*
Y365D01*
X25860D01*
Y432D01*
Y499D01*
X25793D01*
Y565D01*
X25394D01*
Y499D01*
X25194D01*
Y565D01*
X25127D01*
Y632D01*
X24994D01*
Y698D01*
X24928D01*
Y765D01*
X24795D01*
Y831D01*
X24329D01*
Y765D01*
X24262D01*
Y698D01*
X24129D01*
Y632D01*
Y565D01*
X23929D01*
Y499D01*
Y432D01*
X23796D01*
Y365D01*
X23663D01*
Y432D01*
X23596D01*
Y365D01*
X23463D01*
Y432D01*
X23330D01*
Y499D01*
X23197D01*
Y565D01*
X23064D01*
Y632D01*
Y698D01*
X22997D01*
Y632D01*
X22931D01*
Y698D01*
X22864D01*
Y765D01*
X22797D01*
Y831D01*
Y898D01*
X22864D01*
Y965D01*
X22731D01*
Y898D01*
Y831D01*
X22664D01*
Y898D01*
X22598D01*
Y965D01*
X22531D01*
Y1031D01*
X22465D01*
Y1098D01*
X22398D01*
Y1164D01*
X22331D01*
Y1231D01*
X22265D01*
Y1297D01*
X22198D01*
Y1364D01*
Y1431D01*
X22132D01*
Y1497D01*
X22065D01*
Y1564D01*
X21999D01*
Y1630D01*
Y1697D01*
X21932D01*
Y1763D01*
X21865D01*
Y1830D01*
Y1897D01*
X21799D01*
Y1830D01*
Y1763D01*
X21865D01*
Y1697D01*
Y1630D01*
X21932D01*
Y1564D01*
Y1497D01*
X21999D01*
Y1431D01*
X22065D01*
Y1364D01*
X22132D01*
Y1297D01*
Y1231D01*
X22198D01*
Y1164D01*
X22265D01*
Y1098D01*
X22331D01*
Y1031D01*
X22398D01*
Y965D01*
X22465D01*
Y898D01*
X22598D01*
Y831D01*
X22664D01*
Y765D01*
X22731D01*
Y698D01*
X22797D01*
Y632D01*
X22931D01*
Y565D01*
X22997D01*
Y499D01*
Y432D01*
X23130D01*
Y365D01*
Y299D01*
Y232D01*
Y166D01*
Y99D01*
Y33D01*
Y-34D01*
Y-101D01*
X23197D01*
Y-167D01*
Y-234D01*
Y-300D01*
Y-367D01*
Y-433D01*
Y-500D01*
Y-567D01*
Y-633D01*
X23263D01*
Y-700D01*
X23330D01*
Y-766D01*
Y-833D01*
Y-899D01*
X23397D01*
Y-966D01*
Y-1033D01*
X23463D01*
Y-1099D01*
Y-1166D01*
Y-1232D01*
Y-1299D01*
Y-1365D01*
X23530D01*
Y-1432D01*
Y-1499D01*
Y-1565D01*
X23596D01*
Y-1632D01*
Y-1698D01*
X23530D01*
Y-1765D01*
X23596D01*
Y-1831D01*
X23663D01*
Y-1898D01*
Y-1965D01*
X23596D01*
Y-2031D01*
X23663D01*
Y-2098D01*
Y-2164D01*
X23729D01*
Y-2231D01*
Y-2297D01*
Y-2364D01*
X23796D01*
Y-2431D01*
Y-2497D01*
Y-2564D01*
Y-2630D01*
X23863D01*
Y-2697D01*
Y-2763D01*
Y-2830D01*
X23929D01*
Y-2897D01*
X23863D01*
Y-2963D01*
X23929D01*
Y-3030D01*
X23996D01*
Y-3096D01*
Y-3163D01*
Y-3229D01*
X24062D01*
Y-3296D01*
Y-3363D01*
Y-3429D01*
X24129D01*
Y-3496D01*
X24062D01*
Y-3562D01*
X24129D01*
Y-3629D01*
Y-3695D01*
X24195D01*
Y-3762D01*
X24129D01*
Y-3829D01*
X24195D01*
Y-3895D01*
Y-3962D01*
Y-4028D01*
Y-4095D01*
Y-4161D01*
X24262D01*
Y-4228D01*
Y-4295D01*
Y-4361D01*
X24329D01*
Y-4428D01*
Y-4494D01*
X24395D01*
Y-4561D01*
Y-4627D01*
X24462D01*
Y-4694D01*
Y-4761D01*
X24528D01*
Y-4827D01*
X24595D01*
Y-4894D01*
Y-4960D01*
X24661D01*
Y-5027D01*
X24728D01*
Y-5093D01*
X24795D01*
Y-5160D01*
Y-5227D01*
X24728D01*
Y-5293D01*
X24528D01*
Y-5360D01*
X23929D01*
Y-5426D01*
X23863D01*
Y-5360D01*
X23397D01*
Y-5293D01*
Y-5227D01*
X23330D01*
Y-5160D01*
Y-5093D01*
Y-5027D01*
Y-4960D01*
X23397D01*
Y-4894D01*
Y-4827D01*
X23463D01*
Y-4761D01*
X23530D01*
Y-4694D01*
Y-4627D01*
X23463D01*
Y-4561D01*
Y-4494D01*
Y-4428D01*
X23397D01*
Y-4361D01*
Y-4295D01*
Y-4228D01*
X23330D01*
Y-4161D01*
Y-4095D01*
Y-4028D01*
X23263D01*
Y-3962D01*
Y-3895D01*
X23197D01*
Y-3829D01*
Y-3762D01*
X23130D01*
Y-3695D01*
Y-3629D01*
X23064D01*
Y-3562D01*
Y-3496D01*
X22997D01*
Y-3429D01*
X22931D01*
Y-3363D01*
Y-3296D01*
X22864D01*
Y-3229D01*
X22931D01*
Y-3163D01*
X22797D01*
Y-3096D01*
Y-3030D01*
Y-2963D01*
X22664D01*
Y-2897D01*
Y-2830D01*
X22598D01*
Y-2763D01*
Y-2697D01*
X22531D01*
Y-2630D01*
X22465D01*
Y-2564D01*
X22598D01*
Y-2497D01*
X22398D01*
Y-2431D01*
X22331D01*
Y-2364D01*
Y-2297D01*
X22265D01*
Y-2231D01*
X22198D01*
Y-2164D01*
X22132D01*
Y-2098D01*
X22065D01*
Y-2031D01*
X21999D01*
Y-1965D01*
X21932D01*
Y-1898D01*
X21865D01*
Y-1831D01*
X21799D01*
Y-1765D01*
X21732D01*
Y-1698D01*
X21666D01*
Y-1632D01*
X21599D01*
Y-1565D01*
Y-1499D01*
X21533D01*
Y-1432D01*
X21466D01*
Y-1365D01*
Y-1299D01*
X21399D01*
Y-1232D01*
X21333D01*
Y-1166D01*
Y-1099D01*
X21266D01*
Y-1033D01*
Y-966D01*
X21200D01*
Y-899D01*
Y-833D01*
X21133D01*
Y-899D01*
Y-966D01*
X21200D01*
Y-1033D01*
Y-1099D01*
X21266D01*
Y-1166D01*
Y-1232D01*
X21333D01*
Y-1299D01*
Y-1365D01*
X21399D01*
Y-1432D01*
X21466D01*
Y-1499D01*
Y-1565D01*
X21533D01*
Y-1632D01*
X21599D01*
Y-1698D01*
Y-1765D01*
X21666D01*
Y-1831D01*
Y-1898D01*
Y-1965D01*
Y-2031D01*
X21599D01*
Y-2098D01*
Y-2164D01*
Y-2231D01*
X21533D01*
Y-2297D01*
Y-2364D01*
Y-2431D01*
X21466D01*
Y-2497D01*
Y-2564D01*
X21399D01*
Y-2630D01*
Y-2697D01*
Y-2763D01*
X21333D01*
Y-2830D01*
Y-2897D01*
Y-2963D01*
X21266D01*
Y-3030D01*
Y-3096D01*
Y-3163D01*
Y-3229D01*
X21200D01*
Y-3296D01*
Y-3363D01*
Y-3429D01*
Y-3496D01*
X21133D01*
Y-3562D01*
Y-3629D01*
Y-3695D01*
X21067D01*
Y-3762D01*
Y-3829D01*
X21000D01*
Y-3895D01*
Y-3962D01*
Y-4028D01*
X20933D01*
Y-4095D01*
Y-4161D01*
X20867D01*
Y-4228D01*
Y-4295D01*
Y-4361D01*
Y-4428D01*
Y-4494D01*
X20800D01*
Y-4561D01*
Y-4627D01*
X20867D01*
Y-4694D01*
Y-4761D01*
Y-4827D01*
X20933D01*
Y-4894D01*
X21000D01*
Y-4960D01*
X21067D01*
Y-5027D01*
X21133D01*
Y-5093D01*
X21200D01*
Y-5160D01*
Y-5227D01*
X21266D01*
Y-5293D01*
Y-5360D01*
Y-5426D01*
X21133D01*
Y-5493D01*
X20268D01*
Y-5426D01*
X20068D01*
Y-5493D01*
X19735D01*
Y-5426D01*
X19669D01*
Y-5360D01*
Y-5293D01*
Y-5227D01*
Y-5160D01*
X19735D01*
Y-5093D01*
Y-5027D01*
X19802D01*
Y-4960D01*
X19935D01*
Y-4894D01*
Y-4827D01*
Y-4761D01*
X20001D01*
Y-4694D01*
X19935D01*
Y-4627D01*
Y-4561D01*
Y-4494D01*
Y-4428D01*
Y-4361D01*
Y-4295D01*
Y-4228D01*
Y-4161D01*
Y-4095D01*
Y-4028D01*
Y-3962D01*
X20001D01*
Y-3895D01*
Y-3829D01*
Y-3762D01*
Y-3695D01*
Y-3629D01*
Y-3562D01*
Y-3496D01*
Y-3429D01*
X20068D01*
Y-3363D01*
Y-3296D01*
Y-3229D01*
Y-3163D01*
Y-3096D01*
X20135D01*
Y-3030D01*
Y-2963D01*
Y-2897D01*
Y-2830D01*
Y-2763D01*
Y-2697D01*
X20201D01*
Y-2630D01*
Y-2564D01*
Y-2497D01*
Y-2431D01*
Y-2364D01*
Y-2297D01*
Y-2231D01*
Y-2164D01*
Y-2098D01*
Y-2031D01*
Y-1965D01*
Y-1898D01*
X20268D01*
Y-1831D01*
X20201D01*
Y-1765D01*
Y-1698D01*
Y-1632D01*
Y-1565D01*
Y-1499D01*
Y-1432D01*
Y-1365D01*
Y-1299D01*
X20135D01*
Y-1232D01*
Y-1166D01*
Y-1099D01*
X20001D01*
Y-1166D01*
X19868D01*
Y-1232D01*
X19735D01*
Y-1299D01*
X19602D01*
Y-1365D01*
X19402D01*
Y-1432D01*
X19203D01*
Y-1499D01*
X18870D01*
Y-1565D01*
X18737D01*
Y-1499D01*
X18537D01*
Y-1565D01*
X18071D01*
Y-1499D01*
X18004D01*
Y-1565D01*
X18071D01*
Y-1632D01*
X17938D01*
Y-1698D01*
Y-1765D01*
X17871D01*
Y-1831D01*
X17805D01*
Y-1898D01*
X17738D01*
Y-1965D01*
X17671D01*
Y-2031D01*
X17605D01*
Y-2098D01*
X17538D01*
Y-2164D01*
X17472D01*
Y-2231D01*
X17405D01*
Y-2297D01*
Y-2364D01*
X17339D01*
Y-2431D01*
Y-2497D01*
Y-2564D01*
X17272D01*
Y-2630D01*
Y-2697D01*
X17205D01*
Y-2763D01*
Y-2830D01*
Y-2897D01*
X17139D01*
Y-2963D01*
Y-3030D01*
Y-3096D01*
Y-3163D01*
X17205D01*
Y-3229D01*
Y-3296D01*
Y-3363D01*
Y-3429D01*
Y-3496D01*
Y-3562D01*
Y-3629D01*
Y-3695D01*
Y-3762D01*
Y-3829D01*
Y-3895D01*
Y-3962D01*
Y-4028D01*
Y-4095D01*
Y-4161D01*
Y-4228D01*
X17272D01*
Y-4295D01*
Y-4361D01*
Y-4428D01*
X17339D01*
Y-4494D01*
Y-4561D01*
X17405D01*
Y-4627D01*
X17472D01*
Y-4694D01*
X17538D01*
Y-4761D01*
X17605D01*
Y-4827D01*
X17671D01*
Y-4894D01*
X17738D01*
Y-4960D01*
X17805D01*
Y-5027D01*
X17871D01*
Y-5093D01*
Y-5160D01*
Y-5227D01*
X17805D01*
Y-5293D01*
X16340D01*
Y-5227D01*
X16207D01*
Y-5160D01*
Y-5093D01*
Y-5027D01*
Y-4960D01*
Y-4894D01*
Y-4827D01*
Y-4761D01*
Y-4694D01*
Y-4627D01*
Y-4561D01*
Y-4494D01*
Y-4428D01*
Y-4361D01*
Y-4295D01*
X16273D01*
Y-4228D01*
Y-4161D01*
Y-4095D01*
Y-4028D01*
Y-3962D01*
X16340D01*
Y-3895D01*
Y-3829D01*
Y-3762D01*
Y-3695D01*
Y-3629D01*
Y-3562D01*
Y-3496D01*
Y-3429D01*
Y-3363D01*
Y-3296D01*
Y-3229D01*
Y-3163D01*
Y-3096D01*
Y-3030D01*
Y-2963D01*
Y-2897D01*
X16273D01*
Y-2830D01*
Y-2763D01*
Y-2697D01*
Y-2630D01*
Y-2564D01*
Y-2497D01*
Y-2431D01*
X16207D01*
Y-2364D01*
X16140D01*
Y-2297D01*
X16074D01*
Y-2231D01*
X16140D01*
Y-2164D01*
X16207D01*
Y-2098D01*
X16273D01*
Y-2031D01*
X16340D01*
Y-1965D01*
X16407D01*
Y-1898D01*
Y-1831D01*
X16473D01*
Y-1765D01*
X16606D01*
Y-1698D01*
Y-1632D01*
Y-1565D01*
X16540D01*
Y-1632D01*
X16473D01*
Y-1698D01*
X16407D01*
Y-1765D01*
X16340D01*
Y-1831D01*
Y-1898D01*
X16273D01*
Y-1965D01*
X16207D01*
Y-1898D01*
X16074D01*
Y-1965D01*
X16207D01*
Y-2031D01*
X16140D01*
Y-2098D01*
X16074D01*
Y-2164D01*
X16007D01*
Y-2231D01*
Y-2297D01*
X15941D01*
Y-2364D01*
X15874D01*
Y-2431D01*
X15807D01*
Y-2497D01*
X15741D01*
Y-2564D01*
Y-2630D01*
X15674D01*
Y-2697D01*
X15608D01*
Y-2763D01*
Y-2830D01*
X15541D01*
Y-2897D01*
Y-2963D01*
X15408D01*
Y-3030D01*
X15475D01*
Y-3096D01*
X15408D01*
Y-3163D01*
X15341D01*
Y-3229D01*
Y-3296D01*
Y-3363D01*
X15275D01*
Y-3429D01*
Y-3496D01*
X15208D01*
Y-3562D01*
Y-3629D01*
X15142D01*
Y-3695D01*
X15208D01*
Y-3762D01*
X15142D01*
Y-3829D01*
Y-3895D01*
Y-3962D01*
Y-4028D01*
X15075D01*
Y-3962D01*
X15009D01*
Y-4028D01*
X15075D01*
Y-4095D01*
Y-4161D01*
Y-4228D01*
Y-4295D01*
X15009D01*
Y-4361D01*
Y-4428D01*
Y-4494D01*
X14942D01*
Y-4561D01*
Y-4627D01*
Y-4694D01*
X14875D01*
Y-4761D01*
X14942D01*
Y-4827D01*
Y-4894D01*
Y-4960D01*
X15009D01*
Y-5027D01*
X14942D01*
Y-4960D01*
X14875D01*
Y-5027D01*
X14942D01*
Y-5093D01*
Y-5160D01*
Y-5227D01*
X14809D01*
Y-5293D01*
X14742D01*
Y-5227D01*
X14143D01*
Y-5160D01*
X14077D01*
Y-5093D01*
X14010D01*
Y-5027D01*
Y-4960D01*
X13943D01*
Y-4894D01*
Y-4827D01*
Y-4761D01*
Y-4694D01*
Y-4627D01*
Y-4561D01*
X14010D01*
Y-4494D01*
Y-4428D01*
X14077D01*
Y-4361D01*
X14143D01*
Y-4295D01*
X14210D01*
Y-4228D01*
X14276D01*
Y-4295D01*
X14343D01*
Y-4228D01*
X14276D01*
Y-4161D01*
Y-4095D01*
Y-4028D01*
Y-3962D01*
X14343D01*
Y-3895D01*
Y-3829D01*
Y-3762D01*
X14409D01*
Y-3695D01*
Y-3629D01*
X14476D01*
Y-3562D01*
Y-3496D01*
X14343D01*
Y-3562D01*
X14276D01*
Y-3496D01*
Y-3429D01*
X14143D01*
Y-3363D01*
Y-3296D01*
X14210D01*
Y-3229D01*
Y-3163D01*
Y-3096D01*
Y-3030D01*
Y-2963D01*
X14276D01*
Y-2897D01*
Y-2830D01*
Y-2763D01*
X14343D01*
Y-2697D01*
Y-2630D01*
Y-2564D01*
Y-2497D01*
X14409D01*
Y-2431D01*
Y-2364D01*
Y-2297D01*
X14476D01*
Y-2231D01*
Y-2164D01*
Y-2098D01*
X14543D01*
Y-2031D01*
Y-1965D01*
Y-1898D01*
Y-1831D01*
X14609D01*
Y-1898D01*
X14676D01*
Y-1965D01*
Y-2031D01*
Y-2098D01*
Y-2164D01*
X14609D01*
Y-2231D01*
Y-2297D01*
Y-2364D01*
Y-2431D01*
X14543D01*
Y-2497D01*
Y-2564D01*
Y-2630D01*
X14476D01*
Y-2697D01*
Y-2763D01*
Y-2830D01*
Y-2897D01*
Y-2963D01*
Y-3030D01*
Y-3096D01*
Y-3163D01*
Y-3229D01*
Y-3296D01*
Y-3363D01*
X14409D01*
Y-3429D01*
X14543D01*
Y-3363D01*
Y-3296D01*
Y-3229D01*
X14609D01*
Y-3163D01*
Y-3096D01*
Y-3030D01*
Y-2963D01*
X14676D01*
Y-2897D01*
Y-2830D01*
Y-2763D01*
Y-2697D01*
Y-2630D01*
X14742D01*
Y-2564D01*
Y-2497D01*
Y-2431D01*
Y-2364D01*
Y-2297D01*
Y-2231D01*
Y-2164D01*
Y-2098D01*
Y-2031D01*
Y-1965D01*
Y-1898D01*
Y-1831D01*
X14676D01*
Y-1765D01*
X14609D01*
Y-1698D01*
Y-1632D01*
Y-1565D01*
X14676D01*
Y-1499D01*
Y-1432D01*
Y-1365D01*
Y-1299D01*
Y-1232D01*
Y-1166D01*
Y-1099D01*
Y-1033D01*
X14742D01*
Y-966D01*
Y-899D01*
Y-833D01*
Y-766D01*
Y-700D01*
Y-633D01*
Y-567D01*
X14809D01*
Y-500D01*
Y-433D01*
Y-367D01*
Y-300D01*
Y-234D01*
Y-167D01*
Y-101D01*
Y-34D01*
Y33D01*
Y99D01*
Y166D01*
Y232D01*
Y299D01*
Y365D01*
Y432D01*
Y499D01*
Y565D01*
Y632D01*
Y698D01*
X14875D01*
Y765D01*
Y831D01*
Y898D01*
Y965D01*
Y1031D01*
X14942D01*
Y1098D01*
Y1164D01*
X15009D01*
Y1231D01*
Y1297D01*
Y1364D01*
X15075D01*
Y1431D01*
X15142D01*
Y1497D01*
Y1564D01*
X15208D01*
Y1630D01*
Y1697D01*
X15341D01*
Y1763D01*
Y1830D01*
Y1897D01*
X15408D01*
Y1963D01*
X15475D01*
Y2030D01*
X15608D01*
Y2096D01*
X15541D01*
Y2163D01*
X15608D01*
Y2229D01*
X15674D01*
Y2296D01*
Y2363D01*
X15741D01*
Y2429D01*
X15807D01*
Y2496D01*
Y2562D01*
X15874D01*
Y2629D01*
X15941D01*
Y2695D01*
X16007D01*
Y2629D01*
X16074D01*
Y2695D01*
X16007D01*
Y2762D01*
Y2829D01*
X16074D01*
Y2895D01*
X16140D01*
Y2962D01*
X16207D01*
Y3028D01*
X16273D01*
Y3095D01*
X16473D01*
Y3161D01*
Y3228D01*
X16540D01*
Y3161D01*
X16606D01*
Y3228D01*
Y3295D01*
X16739D01*
Y3361D01*
X16873D01*
Y3428D01*
X17139D01*
Y3494D01*
X17339D01*
Y3428D01*
X17405D01*
Y3494D01*
X17339D01*
Y3561D01*
X17871D01*
Y3627D01*
X19469D01*
Y3694D01*
X19802D01*
Y3761D01*
X20001D01*
Y3827D01*
X20201D01*
Y3894D01*
X20401D01*
Y3960D01*
X20667D01*
Y4027D01*
X20867D01*
Y4093D01*
X21133D01*
Y4160D01*
X21266D01*
Y4227D01*
X21466D01*
Y4293D01*
X21533D01*
Y4227D01*
X21599D01*
Y4293D01*
X21666D01*
Y4227D01*
X21732D01*
Y4293D01*
X21666D01*
Y4360D01*
X22065D01*
Y4293D01*
D02*
G37*
%LPC*%
G36*
X22398Y3960D02*
X22331D01*
Y3894D01*
X22398D01*
Y3827D01*
X22465D01*
Y3894D01*
X22398D01*
Y3960D01*
D02*
G37*
G36*
Y3827D02*
X22331D01*
Y3761D01*
X22398D01*
Y3827D01*
D02*
G37*
G36*
X22331Y3761D02*
X22265D01*
Y3694D01*
X22331D01*
Y3761D01*
D02*
G37*
G36*
X22198D02*
X21999D01*
Y3694D01*
X22198D01*
Y3761D01*
D02*
G37*
G36*
X21999Y3694D02*
X21799D01*
Y3627D01*
X21666D01*
Y3561D01*
X21533D01*
Y3494D01*
X21466D01*
Y3428D01*
X21399D01*
Y3361D01*
X21333D01*
Y3295D01*
Y3228D01*
Y3161D01*
Y3095D01*
Y3028D01*
Y2962D01*
Y2895D01*
Y2829D01*
Y2762D01*
X21399D01*
Y2695D01*
Y2629D01*
Y2562D01*
Y2496D01*
X21466D01*
Y2429D01*
Y2363D01*
Y2296D01*
X21533D01*
Y2363D01*
Y2429D01*
Y2496D01*
X21466D01*
Y2562D01*
Y2629D01*
Y2695D01*
Y2762D01*
Y2829D01*
X21399D01*
Y2895D01*
Y2962D01*
Y3028D01*
Y3095D01*
Y3161D01*
Y3228D01*
Y3295D01*
X21466D01*
Y3361D01*
X21533D01*
Y3295D01*
X21599D01*
Y3361D01*
X21533D01*
Y3428D01*
X21666D01*
Y3494D01*
X21732D01*
Y3561D01*
X21865D01*
Y3627D01*
X21999D01*
Y3694D01*
D02*
G37*
G36*
X16473Y3028D02*
X16407D01*
Y2962D01*
X16473D01*
Y3028D01*
D02*
G37*
G36*
X24928Y2962D02*
X24861D01*
Y2895D01*
X24928D01*
Y2829D01*
X25127D01*
Y2762D01*
X25194D01*
Y2829D01*
X25261D01*
Y2895D01*
X24928D01*
Y2962D01*
D02*
G37*
G36*
X25194Y3095D02*
X24994D01*
Y3028D01*
X25194D01*
Y2962D01*
X25261D01*
Y2895D01*
X25327D01*
Y2829D01*
Y2762D01*
Y2695D01*
X25394D01*
Y2762D01*
Y2829D01*
Y2895D01*
X25327D01*
Y2962D01*
X25261D01*
Y3028D01*
X25194D01*
Y3095D01*
D02*
G37*
G36*
X21266Y2829D02*
X21200D01*
Y2762D01*
Y2695D01*
X21333D01*
Y2762D01*
X21266D01*
Y2829D01*
D02*
G37*
G36*
X21599Y2229D02*
X21533D01*
Y2163D01*
X21599D01*
Y2229D01*
D02*
G37*
G36*
X21799Y2030D02*
X21732D01*
Y1963D01*
X21799D01*
Y2030D01*
D02*
G37*
G36*
X24661Y1963D02*
X24595D01*
Y1897D01*
X24661D01*
Y1963D01*
D02*
G37*
G36*
X24728Y1763D02*
X24661D01*
Y1697D01*
Y1630D01*
Y1564D01*
X24728D01*
Y1630D01*
Y1697D01*
Y1763D01*
D02*
G37*
G36*
X24528Y1297D02*
X24462D01*
Y1231D01*
X24528D01*
Y1297D01*
D02*
G37*
G36*
X24661Y1431D02*
X24595D01*
Y1364D01*
Y1297D01*
Y1231D01*
X24661D01*
Y1164D01*
X24728D01*
Y1231D01*
X24661D01*
Y1297D01*
Y1364D01*
Y1431D01*
D02*
G37*
G36*
X24595Y1164D02*
X24528D01*
Y1098D01*
Y1031D01*
X24595D01*
Y1098D01*
Y1164D01*
D02*
G37*
G36*
X24528Y1031D02*
X24462D01*
Y965D01*
Y898D01*
X24528D01*
Y965D01*
Y1031D01*
D02*
G37*
G36*
X25261Y632D02*
X25194D01*
Y565D01*
X25261D01*
Y632D01*
D02*
G37*
G36*
X22797D02*
X22731D01*
Y565D01*
X22797D01*
Y632D01*
D02*
G37*
G36*
X23863Y565D02*
X23796D01*
Y499D01*
X23863D01*
Y565D01*
D02*
G37*
G36*
X17006Y-300D02*
X16939D01*
Y-367D01*
X17006D01*
Y-300D01*
D02*
G37*
G36*
X21067Y-500D02*
X21000D01*
Y-567D01*
X21067D01*
Y-500D01*
D02*
G37*
G36*
X21133Y-700D02*
X21067D01*
Y-766D01*
X21133D01*
Y-700D01*
D02*
G37*
G36*
X17006Y-567D02*
X16939D01*
Y-633D01*
Y-700D01*
Y-766D01*
X17006D01*
Y-700D01*
Y-633D01*
Y-567D01*
D02*
G37*
G36*
X25394Y-966D02*
X25261D01*
Y-1033D01*
X25394D01*
Y-966D01*
D02*
G37*
G36*
X16873Y-766D02*
X16806D01*
Y-833D01*
X16873D01*
Y-899D01*
Y-966D01*
Y-1033D01*
X16939D01*
Y-966D01*
Y-899D01*
Y-833D01*
X16873D01*
Y-766D01*
D02*
G37*
G36*
X25394Y-1166D02*
X25327D01*
Y-1232D01*
X25394D01*
Y-1166D01*
D02*
G37*
G36*
X23463Y-1365D02*
X23397D01*
Y-1432D01*
X23463D01*
Y-1365D01*
D02*
G37*
G36*
X16873Y-1033D02*
X16806D01*
Y-1099D01*
Y-1166D01*
X16739D01*
Y-1232D01*
Y-1299D01*
X16673D01*
Y-1365D01*
Y-1432D01*
X16606D01*
Y-1499D01*
Y-1565D01*
X16673D01*
Y-1499D01*
X16739D01*
Y-1432D01*
Y-1365D01*
X16806D01*
Y-1299D01*
Y-1232D01*
X16873D01*
Y-1166D01*
Y-1099D01*
Y-1033D01*
D02*
G37*
G36*
X25327Y-1565D02*
X25261D01*
Y-1632D01*
X25327D01*
Y-1565D01*
D02*
G37*
G36*
X22997Y-3096D02*
X22931D01*
Y-3163D01*
X22997D01*
Y-3096D01*
D02*
G37*
G36*
X23996Y-3229D02*
X23929D01*
Y-3296D01*
X23996D01*
Y-3229D01*
D02*
G37*
G36*
X15208Y-3363D02*
X15142D01*
Y-3429D01*
X15208D01*
Y-3363D01*
D02*
G37*
G36*
X14609Y-3496D02*
X14543D01*
Y-3562D01*
X14609D01*
Y-3496D01*
D02*
G37*
G36*
X14942Y-4361D02*
X14875D01*
Y-4428D01*
X14942D01*
Y-4361D01*
D02*
G37*
G36*
X14409Y-5093D02*
X14343D01*
Y-5160D01*
X14409D01*
Y-5093D01*
D02*
G37*
%LPD*%
D12*
X7283Y-11811D02*
D03*
X-7283D02*
D03*
X7283Y11811D02*
D03*
X-7283D02*
D03*
D13*
X39370Y0D02*
D03*
X-39370D02*
D03*
M02*
