G04*
G04 #@! TF.GenerationSoftware,Altium Limited,Altium Designer,20.0.13 (296)*
G04*
G04 Layer_Color=8388736*
%FSLAX25Y25*%
%MOIN*%
G70*
G01*
G75*
%ADD16C,0.00197*%
D16*
X192150Y376168D02*
Y390368D01*
X201550Y376168D02*
Y390368D01*
X192150Y376168D02*
X201550D01*
X192150Y390368D02*
X201550D01*
X361016Y35055D02*
Y83155D01*
X387016D01*
X361016Y35055D02*
X387016D01*
Y83155D01*
X226772Y554134D02*
X229921D01*
X226772Y548228D02*
X229921D01*
Y554134D01*
X226772Y548228D02*
Y554134D01*
X182087Y407087D02*
X187992D01*
X182087Y403937D02*
X187992D01*
X182087D02*
Y407087D01*
X187992Y403937D02*
Y407087D01*
X285827Y605039D02*
Y610945D01*
X288976Y605039D02*
Y610945D01*
X285827Y605039D02*
X288976D01*
X285827Y610945D02*
X288976D01*
X359461Y618973D02*
X362861D01*
X359461Y609373D02*
Y618973D01*
X362861Y609373D02*
Y618973D01*
X359461Y609373D02*
X362861D01*
X153291Y86297D02*
Y116397D01*
X173591Y86297D02*
Y116397D01*
X153291Y86297D02*
X173591D01*
X153291Y116397D02*
X173591D01*
X269491Y600499D02*
X281691D01*
X269491Y612199D02*
X281691D01*
X269491Y600499D02*
Y612199D01*
X281691Y600499D02*
Y612199D01*
X390871Y483689D02*
X464471D01*
X390871Y584889D02*
X464471D01*
X390871Y483689D02*
X390871Y584889D01*
X464471Y483689D02*
Y584889D01*
X182391Y304746D02*
X239591D01*
X182391Y364546D02*
X239591D01*
X182391Y304746D02*
Y364546D01*
X239591Y304746D02*
Y364546D01*
X382158Y139298D02*
X385558D01*
X382158Y129698D02*
Y139298D01*
X385558Y129698D02*
Y139298D01*
X382158Y129698D02*
X385558D01*
X238583Y595472D02*
Y601378D01*
X241732Y595472D02*
Y601378D01*
X238583Y595472D02*
X241732D01*
X238583Y601378D02*
X241732D01*
X228720Y239769D02*
Y264268D01*
X243721D01*
Y239769D02*
Y264268D01*
X228720Y239769D02*
X243721D01*
X362598Y112520D02*
X365748D01*
X362598Y106614D02*
X365748D01*
Y112520D01*
X362598Y106614D02*
Y112520D01*
X340945Y71850D02*
X344094D01*
X340945Y77756D02*
X344094D01*
X340945Y71850D02*
Y77756D01*
X344094Y71850D02*
Y77756D01*
X319291Y69882D02*
X322441D01*
X319291Y63976D02*
X322441D01*
Y69882D01*
X319291Y63976D02*
Y69882D01*
Y48228D02*
X322441D01*
X319291Y54134D02*
X322441D01*
X319291Y48228D02*
Y54134D01*
X322441Y48228D02*
Y54134D01*
X348819Y77756D02*
X351969D01*
X348819Y71850D02*
X351969D01*
Y77756D01*
X348819Y71850D02*
Y77756D01*
X332972D02*
X336122D01*
X332972Y71850D02*
X336122D01*
Y77756D01*
X332972Y71850D02*
Y77756D01*
X254331Y58740D02*
X257480D01*
X254331Y64646D02*
X257480D01*
X254331Y58740D02*
Y64646D01*
X257480Y58740D02*
Y64646D01*
X266142Y77756D02*
X269291D01*
X266142Y71850D02*
X269291D01*
Y77756D01*
X266142Y71850D02*
Y77756D01*
X262205D02*
X265354D01*
X262205Y71850D02*
X265354D01*
Y77756D01*
X262205Y71850D02*
Y77756D01*
X266142Y117126D02*
X269291D01*
X266142Y111221D02*
X269291D01*
Y117126D01*
X266142Y111221D02*
Y117126D01*
X262205D02*
X265354D01*
X262205Y111221D02*
X265354D01*
Y117126D01*
X262205Y111221D02*
Y117126D01*
X274016D02*
X277165D01*
X274016Y111221D02*
X277165D01*
Y117126D01*
X274016Y111221D02*
Y117126D01*
X270079D02*
X273228D01*
X270079Y111221D02*
X273228D01*
Y117126D01*
X270079Y111221D02*
Y117126D01*
X254331D02*
X257480D01*
X254331Y111221D02*
X257480D01*
Y117126D01*
X254331Y111221D02*
Y117126D01*
X258268D02*
X261417D01*
X258268Y111221D02*
X261417D01*
Y117126D01*
X258268Y111221D02*
Y117126D01*
X181496Y98444D02*
X184646D01*
X181496Y104350D02*
X184646D01*
X181496Y98444D02*
Y104350D01*
X184646Y98444D02*
Y104350D01*
X266142Y150591D02*
X269291D01*
X266142Y156496D02*
X269291D01*
X266142Y150591D02*
Y156496D01*
X269291Y150591D02*
Y156496D01*
X258268Y150591D02*
X261417D01*
X258268Y156496D02*
X261417D01*
X258268Y150591D02*
Y156496D01*
X261417Y150591D02*
Y156496D01*
X262205Y150591D02*
X265354D01*
X262205Y156496D02*
X265354D01*
X262205Y150591D02*
Y156496D01*
X265354Y150591D02*
Y156496D01*
X348819Y117126D02*
X351969D01*
X348819Y123031D02*
X351969D01*
X348819Y117126D02*
Y123031D01*
X351969Y117126D02*
Y123031D01*
X344882D02*
X348031D01*
X344882Y117126D02*
X348031D01*
Y123031D01*
X344882Y117126D02*
Y123031D01*
X348868Y144685D02*
X352018D01*
X348868Y150591D02*
X352018D01*
X348868Y144685D02*
Y150591D01*
X352018Y144685D02*
Y150591D01*
X344932D02*
X348081D01*
X344932Y144685D02*
X348081D01*
Y150591D01*
X344932Y144685D02*
Y150591D01*
X209055Y581772D02*
X212205D01*
X209055Y587677D02*
X212205D01*
X209055Y581772D02*
Y587677D01*
X212205Y581772D02*
Y587677D01*
X205118D02*
X208268D01*
X205118Y581772D02*
X208268D01*
Y587677D01*
X205118Y581772D02*
Y587677D01*
X347474Y604599D02*
Y607999D01*
Y604599D02*
X357074D01*
X347474Y607999D02*
X357074D01*
Y604599D02*
Y607999D01*
X351378Y600787D02*
Y603937D01*
X357283Y600787D02*
Y603937D01*
X351378D02*
X357283D01*
X351378Y600787D02*
X357283D01*
X351378Y596850D02*
Y600000D01*
X357283Y596850D02*
Y600000D01*
X351378D02*
X357283D01*
X351378Y596850D02*
X357283D01*
X177559Y574291D02*
X180709D01*
X177559Y580197D02*
X180709D01*
X177559Y574291D02*
Y580197D01*
X180709Y574291D02*
Y580197D01*
X181496Y587677D02*
X184646D01*
X181496Y581772D02*
X184646D01*
Y587677D01*
X181496Y581772D02*
Y587677D01*
X177559Y581772D02*
X180709D01*
X177559Y587677D02*
X180709D01*
X177559Y581772D02*
Y587677D01*
X180709Y581772D02*
Y587677D01*
X369062Y604599D02*
Y607999D01*
X359462D02*
X369062D01*
X359462Y604599D02*
X369062D01*
X359462D02*
Y607999D01*
X365158Y600787D02*
Y603937D01*
X359252Y600787D02*
Y603937D01*
Y600787D02*
X365158D01*
X359252Y603937D02*
X365158D01*
Y596850D02*
Y600000D01*
X359252Y596850D02*
Y600000D01*
Y596850D02*
X365158D01*
X359252Y600000D02*
X365158D01*
X362598Y156575D02*
Y162480D01*
X365748Y156575D02*
Y162480D01*
X362598Y156575D02*
X365748D01*
X362598Y162480D02*
X365748D01*
X382158Y162920D02*
X385558D01*
X382158Y153320D02*
Y162920D01*
X385558Y153320D02*
Y162920D01*
X382158Y153320D02*
X385558D01*
X389370Y156575D02*
Y162480D01*
X386221Y156575D02*
Y162480D01*
X389370D01*
X386221Y156575D02*
X389370D01*
X390158D02*
Y162480D01*
X393307Y156575D02*
Y162480D01*
X390158Y156575D02*
X393307D01*
X390158Y162480D02*
X393307D01*
X362598Y132953D02*
Y138858D01*
X365748Y132953D02*
Y138858D01*
X362598Y132953D02*
X365748D01*
X362598Y138858D02*
X365748D01*
X389370Y132953D02*
Y138858D01*
X386221Y132953D02*
Y138858D01*
X389370D01*
X386221Y132953D02*
X389370D01*
X390158D02*
Y138858D01*
X393307Y132953D02*
Y138858D01*
X390158Y132953D02*
X393307D01*
X390158Y138858D02*
X393307D01*
X387402Y550197D02*
Y556102D01*
X384252Y550197D02*
Y556102D01*
X387402D01*
X384252Y550197D02*
X387402D01*
X418307Y478740D02*
X424213D01*
X418307Y481890D02*
X424213D01*
Y478740D02*
Y481890D01*
X418307Y478740D02*
Y481890D01*
X428150Y478740D02*
X434055D01*
X428150Y481890D02*
X434055D01*
Y478740D02*
Y481890D01*
X428150Y478740D02*
Y481890D01*
X447835D02*
X453740D01*
X447835Y478740D02*
X453740D01*
X447835D02*
Y481890D01*
X453740Y478740D02*
Y481890D01*
X439961Y478740D02*
X445866D01*
X439961Y481890D02*
X445866D01*
Y478740D02*
Y481890D01*
X439961Y478740D02*
Y481890D01*
X191929Y545669D02*
Y548819D01*
X186024Y545669D02*
Y548819D01*
Y545669D02*
X191929D01*
X186024Y548819D02*
X191929D01*
Y557480D02*
Y560630D01*
X186024Y557480D02*
Y560630D01*
Y557480D02*
X191929D01*
X186024Y560630D02*
X191929D01*
X186024Y549606D02*
Y552756D01*
X191929Y549606D02*
Y552756D01*
X186024D02*
X191929D01*
X186024Y549606D02*
X191929D01*
Y518110D02*
Y521260D01*
X186024Y518110D02*
Y521260D01*
Y518110D02*
X191929D01*
X186024Y521260D02*
X191929D01*
Y529921D02*
Y533071D01*
X186024Y529921D02*
Y533071D01*
Y529921D02*
X191929D01*
X186024Y533071D02*
X191929D01*
X186024Y522047D02*
Y525197D01*
X191929Y522047D02*
Y525197D01*
X186024D02*
X191929D01*
X186024Y522047D02*
X191929D01*
Y490551D02*
Y493701D01*
X186024Y490551D02*
Y493701D01*
Y490551D02*
X191929D01*
X186024Y493701D02*
X191929D01*
Y502362D02*
Y505512D01*
X186024Y502362D02*
Y505512D01*
Y502362D02*
X191929D01*
X186024Y505512D02*
X191929D01*
X186024Y494488D02*
Y497638D01*
X191929Y494488D02*
Y497638D01*
X186024D02*
X191929D01*
X186024Y494488D02*
X191929D01*
X331693Y250787D02*
Y253937D01*
X337598Y250787D02*
Y253937D01*
X331693D02*
X337598D01*
X331693Y250787D02*
X337598D01*
X331693Y240551D02*
Y243701D01*
X337598Y240551D02*
Y243701D01*
X331693D02*
X337598D01*
X331693Y240551D02*
X337598D01*
X376969Y235433D02*
Y238583D01*
X371063Y235433D02*
Y238583D01*
Y235433D02*
X376969D01*
X371063Y238583D02*
X376969D01*
Y245669D02*
Y248819D01*
X371063Y245669D02*
Y248819D01*
Y245669D02*
X376969D01*
X371063Y248819D02*
X376969D01*
X224803Y567205D02*
X227953D01*
X224803Y573110D02*
X227953D01*
X224803Y567205D02*
Y573110D01*
X227953Y567205D02*
Y573110D01*
X250394Y548228D02*
X253543D01*
X250394Y554134D02*
X253543D01*
X250394Y548228D02*
Y554134D01*
X253543Y548228D02*
Y554134D01*
X242520Y548228D02*
X245669D01*
X242520Y554134D02*
X245669D01*
X242520Y548228D02*
Y554134D01*
X245669Y548228D02*
Y554134D01*
X234646Y548228D02*
X237795D01*
X234646Y554134D02*
X237795D01*
X234646Y548228D02*
Y554134D01*
X237795Y548228D02*
Y554134D01*
X246457Y601378D02*
X249606D01*
X246457Y595472D02*
X249606D01*
Y601378D01*
X246457Y595472D02*
Y601378D01*
X242520D02*
X245669D01*
X242520Y595472D02*
X245669D01*
Y601378D01*
X242520Y595472D02*
Y601378D01*
X234646D02*
X237795D01*
X234646Y595472D02*
X237795D01*
Y601378D01*
X234646Y595472D02*
Y601378D01*
X260827Y393701D02*
X266732D01*
X260827Y396850D02*
X266732D01*
Y393701D02*
Y396850D01*
X260827Y393701D02*
Y396850D01*
Y387402D02*
X266732D01*
X260827Y390551D02*
X266732D01*
Y387402D02*
Y390551D01*
X260827Y387402D02*
Y390551D01*
X315945Y387402D02*
X321850D01*
X315945Y384252D02*
X321850D01*
X315945D02*
Y387402D01*
X321850Y384252D02*
Y387402D01*
X228543Y406299D02*
X234449D01*
X228543Y403150D02*
X234449D01*
X228543D02*
Y406299D01*
X234449Y403150D02*
Y406299D01*
X237992Y373228D02*
X243898D01*
X237992Y376378D02*
X243898D01*
Y373228D02*
Y376378D01*
X237992Y373228D02*
Y376378D01*
X285039Y418307D02*
Y424213D01*
X288189Y418307D02*
Y424213D01*
X285039Y418307D02*
X288189D01*
X285039Y424213D02*
X288189D01*
X182087Y262008D02*
X187992D01*
X182087Y265158D02*
X187992D01*
Y262008D02*
Y265158D01*
X182087Y262008D02*
Y265158D01*
X205709Y261417D02*
X211614D01*
X205709Y258268D02*
X211614D01*
X205709D02*
Y261417D01*
X211614Y258268D02*
Y261417D01*
X182087Y249410D02*
X187992D01*
X182087Y246260D02*
X187992D01*
X182087D02*
Y249410D01*
X187992Y246260D02*
Y249410D01*
X182087Y242520D02*
X187992D01*
X182087Y245669D02*
X187992D01*
Y242520D02*
Y245669D01*
X182087Y242520D02*
Y245669D01*
X277953Y317913D02*
Y323819D01*
X281102Y317913D02*
Y323819D01*
X277953Y317913D02*
X281102D01*
X277953Y323819D02*
X281102D01*
X274016Y298228D02*
Y304134D01*
X277165Y298228D02*
Y304134D01*
X274016Y298228D02*
X277165D01*
X274016Y304134D02*
X277165D01*
X245079Y340177D02*
X250984D01*
X245079Y337028D02*
X250984D01*
X245079D02*
Y340177D01*
X250984Y337028D02*
Y340177D01*
X260827Y255906D02*
Y259055D01*
X266732Y255906D02*
Y259055D01*
X260827D02*
X266732D01*
X260827Y255906D02*
X266732D01*
X260827Y249606D02*
Y252756D01*
X266732Y249606D02*
Y252756D01*
X260827D02*
X266732D01*
X260827Y249606D02*
X266732D01*
X321850Y246457D02*
Y249606D01*
X315945Y246457D02*
Y249606D01*
Y246457D02*
X321850D01*
X315945Y249606D02*
X321850D01*
X234449Y265354D02*
Y268504D01*
X228543Y265354D02*
Y268504D01*
Y265354D02*
X234449D01*
X228543Y268504D02*
X234449D01*
X237992Y235433D02*
Y238583D01*
X243898Y235433D02*
Y238583D01*
X237992D02*
X243898D01*
X237992Y235433D02*
X243898D01*
X294409Y277953D02*
Y281102D01*
X288504Y277953D02*
Y281102D01*
Y277953D02*
X294409D01*
X288504Y281102D02*
X294409D01*
X195866Y203150D02*
Y206299D01*
X189961Y203150D02*
Y206299D01*
Y203150D02*
X195866D01*
X189961Y206299D02*
X195866D01*
Y214961D02*
Y218110D01*
X189961Y214961D02*
Y218110D01*
Y214961D02*
X195866D01*
X189961Y218110D02*
X195866D01*
X189961Y207087D02*
Y210236D01*
X195866Y207087D02*
Y210236D01*
X189961D02*
X195866D01*
X189961Y207087D02*
X195866D01*
X235236Y203150D02*
Y206299D01*
X229331Y203150D02*
Y206299D01*
Y203150D02*
X235236D01*
X229331Y206299D02*
X235236D01*
Y214961D02*
Y218110D01*
X229331Y214961D02*
Y218110D01*
Y214961D02*
X235236D01*
X229331Y218110D02*
X235236D01*
X229331Y207087D02*
Y210236D01*
X235236Y207087D02*
Y210236D01*
X229331D02*
X235236D01*
X229331Y207087D02*
X235236D01*
X274606Y203150D02*
Y206299D01*
X268701Y203150D02*
Y206299D01*
Y203150D02*
X274606D01*
X268701Y206299D02*
X274606D01*
Y214961D02*
Y218110D01*
X268701Y214961D02*
Y218110D01*
Y214961D02*
X274606D01*
X268701Y218110D02*
X274606D01*
X268701Y207087D02*
Y210236D01*
X274606Y207087D02*
Y210236D01*
X268701D02*
X274606D01*
X268701Y207087D02*
X274606D01*
X405905Y467520D02*
X409055D01*
X405905Y461614D02*
X409055D01*
Y467520D01*
X405905Y461614D02*
Y467520D01*
X441339D02*
X444488D01*
X441339Y461614D02*
X444488D01*
Y467520D01*
X441339Y461614D02*
Y467520D01*
X376969Y406201D02*
Y409350D01*
X371063Y406201D02*
Y409350D01*
Y406201D02*
X376969D01*
X371063Y409350D02*
X376969D01*
X331693Y406201D02*
Y409350D01*
X337598Y406201D02*
Y409350D01*
X331693D02*
X337598D01*
X331693Y406201D02*
X337598D01*
X571850Y341379D02*
X577756D01*
X571850Y344529D02*
X577756D01*
Y341379D02*
Y344529D01*
X571850Y341379D02*
Y344529D01*
Y346301D02*
X577756D01*
X571850Y349450D02*
X577756D01*
Y346301D02*
Y349450D01*
X571850Y346301D02*
Y349450D01*
Y351222D02*
X577756D01*
X571850Y354372D02*
X577756D01*
Y351222D02*
Y354372D01*
X571850Y351222D02*
Y354372D01*
Y215395D02*
X577756D01*
X571850Y218545D02*
X577756D01*
Y215395D02*
Y218545D01*
X571850Y215395D02*
Y218545D01*
Y220317D02*
X577756D01*
X571850Y223466D02*
X577756D01*
Y220317D02*
Y223466D01*
X571850Y220317D02*
Y223466D01*
Y225238D02*
X577756D01*
X571850Y228387D02*
X577756D01*
Y225238D02*
Y228387D01*
X571850Y225238D02*
Y228387D01*
X211614Y402953D02*
Y406102D01*
X205709Y402953D02*
Y406102D01*
Y402953D02*
X211614D01*
X205709Y406102D02*
X211614D01*
X182087Y407874D02*
Y411024D01*
X187992Y407874D02*
Y411024D01*
X182087D02*
X187992D01*
X182087Y407874D02*
X187992D01*
X182087Y412795D02*
Y415945D01*
X187992Y412795D02*
Y415945D01*
X182087D02*
X187992D01*
X182087Y412795D02*
X187992D01*
X571850Y408309D02*
X577756D01*
X571850Y411458D02*
X577756D01*
Y408309D02*
Y411458D01*
X571850Y408309D02*
Y411458D01*
Y413230D02*
X577756D01*
X571850Y416379D02*
X577756D01*
Y413230D02*
Y416379D01*
X571850Y413230D02*
Y416379D01*
Y418151D02*
X577756D01*
X571850Y421301D02*
X577756D01*
Y418151D02*
Y421301D01*
X571850Y418151D02*
Y421301D01*
X73353Y329625D02*
Y332775D01*
X67447Y329625D02*
Y332775D01*
Y329625D02*
X73353D01*
X67447Y332775D02*
X73353D01*
X97441Y322378D02*
Y325528D01*
X91535Y322378D02*
Y325528D01*
Y322378D02*
X97441D01*
X91535Y325528D02*
X97441D01*
X331693Y351772D02*
Y354921D01*
X337598Y351772D02*
Y354921D01*
X331693D02*
X337598D01*
X331693Y351772D02*
X337598D01*
X211614Y380315D02*
Y383465D01*
X205709Y380315D02*
Y383465D01*
Y380315D02*
X211614D01*
X205709Y383465D02*
X211614D01*
Y384252D02*
Y387402D01*
X205709Y384252D02*
Y387402D01*
Y384252D02*
X211614D01*
X205709Y387402D02*
X211614D01*
X187992Y384252D02*
Y387402D01*
X182087Y384252D02*
Y387402D01*
Y384252D02*
X187992D01*
X182087Y387402D02*
X187992D01*
Y388189D02*
Y391339D01*
X182087Y388189D02*
Y391339D01*
Y388189D02*
X187992D01*
X182087Y391339D02*
X187992D01*
X571850Y283366D02*
Y286516D01*
X577756Y283366D02*
Y286516D01*
X571850D02*
X577756D01*
X571850Y283366D02*
X577756D01*
X376969Y305906D02*
Y309055D01*
X371063Y305906D02*
Y309055D01*
Y305906D02*
X376969D01*
X371063Y309055D02*
X376969D01*
X331693Y305906D02*
Y309055D01*
X337598Y305906D02*
Y309055D01*
X331693D02*
X337598D01*
X331693Y305906D02*
X337598D01*
X331693Y295669D02*
Y298819D01*
X337598Y295669D02*
Y298819D01*
X331693D02*
X337598D01*
X331693Y295669D02*
X337598D01*
X331693Y290551D02*
Y293701D01*
X337598Y290551D02*
Y293701D01*
X331693D02*
X337598D01*
X331693Y290551D02*
X337598D01*
X177559Y98444D02*
X180709D01*
X177559Y104350D02*
X180709D01*
X177559Y98444D02*
Y104350D01*
X180709Y98444D02*
Y104350D01*
X186024Y556693D02*
X191929D01*
X186024Y553543D02*
X191929D01*
X186024D02*
Y556693D01*
X191929Y553543D02*
Y556693D01*
Y525984D02*
Y529134D01*
X186024Y525984D02*
Y529134D01*
Y525984D02*
X191929D01*
X186024Y529134D02*
X191929D01*
X186024Y501575D02*
X191929D01*
X186024Y498425D02*
X191929D01*
X186024D02*
Y501575D01*
X191929Y498425D02*
Y501575D01*
X195866Y211024D02*
Y214173D01*
X189961Y211024D02*
Y214173D01*
Y211024D02*
X195866D01*
X189961Y214173D02*
X195866D01*
X229331D02*
X235236D01*
X229331Y211024D02*
X235236D01*
X229331D02*
Y214173D01*
X235236Y211024D02*
Y214173D01*
X274606Y211024D02*
Y214173D01*
X268701Y211024D02*
Y214173D01*
Y211024D02*
X274606D01*
X268701Y214173D02*
X274606D01*
X353674Y618973D02*
X357074D01*
X353674Y609373D02*
Y618973D01*
X357074Y609373D02*
Y618973D01*
X353674Y609373D02*
X357074D01*
X362598Y115157D02*
X365748D01*
X362598Y121063D02*
X365748D01*
X362598Y115157D02*
Y121063D01*
X365748Y115157D02*
Y121063D01*
X382283Y106614D02*
X385433D01*
X382283Y112520D02*
X385433D01*
X382283Y106614D02*
Y112520D01*
X385433Y106614D02*
Y112520D01*
X344882Y71850D02*
X348031D01*
X344882Y77756D02*
X348031D01*
X344882Y71850D02*
Y77756D01*
X348031Y71850D02*
Y77756D01*
X348819Y46260D02*
X351969D01*
X348819Y40354D02*
X351969D01*
Y46260D01*
X348819Y40354D02*
Y46260D01*
X344882D02*
X348031D01*
X344882Y40354D02*
X348031D01*
Y46260D01*
X344882Y40354D02*
Y46260D01*
X327854Y77756D02*
X331004D01*
X327854Y71850D02*
X331004D01*
Y77756D01*
X327854Y71850D02*
Y77756D01*
X262205Y40354D02*
X265354D01*
X262205Y46260D02*
X265354D01*
X262205Y40354D02*
Y46260D01*
X265354Y40354D02*
Y46260D01*
X265945Y40354D02*
X269094D01*
X265945Y46260D02*
X269094D01*
X265945Y40354D02*
Y46260D01*
X269094Y40354D02*
Y46260D01*
X270079Y77756D02*
X273228D01*
X270079Y71850D02*
X273228D01*
Y77756D01*
X270079Y71850D02*
Y77756D01*
X258268D02*
X261417D01*
X258268Y71850D02*
X261417D01*
Y77756D01*
X258268Y71850D02*
Y77756D01*
X245079Y132283D02*
Y135433D01*
X250984Y132283D02*
Y135433D01*
X245079D02*
X250984D01*
X245079Y132283D02*
X250984D01*
X245079Y136221D02*
Y139370D01*
X250984Y136221D02*
Y139370D01*
X245079D02*
X250984D01*
X245079Y136221D02*
X250984D01*
X282480D02*
Y139370D01*
X276575Y136221D02*
Y139370D01*
Y136221D02*
X282480D01*
X276575Y139370D02*
X282480D01*
X339567Y136221D02*
Y139370D01*
X345472Y136221D02*
Y139370D01*
X339567D02*
X345472D01*
X339567Y136221D02*
X345472D01*
X339567Y132283D02*
Y135433D01*
X345472Y132283D02*
Y135433D01*
X339567D02*
X345472D01*
X339567Y132283D02*
X345472D01*
Y128347D02*
Y131496D01*
X339567Y128347D02*
Y131496D01*
Y128347D02*
X345472D01*
X339567Y131496D02*
X345472D01*
X201181Y587677D02*
X204331D01*
X201181Y581772D02*
X204331D01*
Y587677D01*
X201181Y581772D02*
Y587677D01*
X181496Y574291D02*
X184646D01*
X181496Y580197D02*
X184646D01*
X181496Y574291D02*
Y580197D01*
X184646Y574291D02*
Y580197D01*
X335906Y474803D02*
Y477953D01*
X341811Y474803D02*
Y477953D01*
X335906D02*
X341811D01*
X335906Y474803D02*
X341811D01*
X260236Y562677D02*
X263386D01*
X260236Y568583D02*
X263386D01*
X260236Y562677D02*
Y568583D01*
X263386Y562677D02*
Y568583D01*
X310039Y474803D02*
Y477953D01*
X304134Y474803D02*
Y477953D01*
Y474803D02*
X310039D01*
X304134Y477953D02*
X310039D01*
X199803Y557480D02*
Y560630D01*
X193898Y557480D02*
Y560630D01*
Y557480D02*
X199803D01*
X193898Y560630D02*
X199803D01*
Y529921D02*
Y533071D01*
X193898Y529921D02*
Y533071D01*
Y529921D02*
X199803D01*
X193898Y533071D02*
X199803D01*
Y502362D02*
Y505512D01*
X193898Y502362D02*
Y505512D01*
Y502362D02*
X199803D01*
X193898Y505512D02*
X199803D01*
Y545669D02*
Y548819D01*
X193898Y545669D02*
Y548819D01*
Y545669D02*
X199803D01*
X193898Y548819D02*
X199803D01*
Y518110D02*
Y521260D01*
X193898Y518110D02*
Y521260D01*
Y518110D02*
X199803D01*
X193898Y521260D02*
X199803D01*
Y490551D02*
Y493701D01*
X193898Y490551D02*
Y493701D01*
Y490551D02*
X199803D01*
X193898Y493701D02*
X199803D01*
X337598Y245669D02*
Y248819D01*
X331693Y245669D02*
Y248819D01*
Y245669D02*
X337598D01*
X331693Y248819D02*
X337598D01*
Y235433D02*
Y238583D01*
X331693Y235433D02*
Y238583D01*
Y235433D02*
X337598D01*
X331693Y238583D02*
X337598D01*
X371063Y240551D02*
Y243701D01*
X376969Y240551D02*
Y243701D01*
X371063D02*
X376969D01*
X371063Y240551D02*
X376969D01*
X371063Y250787D02*
Y253937D01*
X376969Y250787D02*
Y253937D01*
X371063D02*
X376969D01*
X371063Y250787D02*
X376969D01*
Y278346D02*
Y281496D01*
X371063Y278346D02*
Y281496D01*
Y278346D02*
X376969D01*
X371063Y281496D02*
X376969D01*
Y273228D02*
Y276378D01*
X371063Y273228D02*
Y276378D01*
Y273228D02*
X376969D01*
X371063Y276378D02*
X376969D01*
Y268110D02*
Y271260D01*
X371063Y268110D02*
Y271260D01*
Y268110D02*
X376969D01*
X371063Y271260D02*
X376969D01*
Y262992D02*
Y266142D01*
X371063Y262992D02*
Y266142D01*
Y262992D02*
X376969D01*
X371063Y266142D02*
X376969D01*
X331693Y262992D02*
Y266142D01*
X337598Y262992D02*
Y266142D01*
X331693D02*
X337598D01*
X331693Y262992D02*
X337598D01*
X331693Y268110D02*
Y271260D01*
X337598Y268110D02*
Y271260D01*
X331693D02*
X337598D01*
X331693Y268110D02*
X337598D01*
X331693Y273228D02*
Y276378D01*
X337598Y273228D02*
Y276378D01*
X331693D02*
X337598D01*
X331693Y273228D02*
X337598D01*
X331693Y278346D02*
Y281496D01*
X337598Y278346D02*
Y281496D01*
X331693D02*
X337598D01*
X331693Y278346D02*
X337598D01*
X230709Y554134D02*
X233858D01*
X230709Y548228D02*
X233858D01*
Y554134D01*
X230709Y548228D02*
Y554134D01*
Y595472D02*
X233858D01*
X230709Y601378D02*
X233858D01*
X230709Y595472D02*
Y601378D01*
X233858Y595472D02*
Y601378D01*
X246457Y548228D02*
X249606D01*
X246457Y554134D02*
X249606D01*
X246457Y548228D02*
Y554134D01*
X249606Y548228D02*
Y554134D01*
X291339Y418307D02*
Y424213D01*
X288189Y418307D02*
Y424213D01*
X291339D01*
X288189Y418307D02*
X291339D01*
X182087Y254528D02*
X187992D01*
X182087Y257677D02*
X187992D01*
Y254528D02*
Y257677D01*
X182087Y254528D02*
Y257677D01*
X205709D02*
X211614D01*
X205709Y254528D02*
X211614D01*
X205709D02*
Y257677D01*
X211614Y254528D02*
Y257677D01*
X205709Y245669D02*
X211614D01*
X205709Y242520D02*
X211614D01*
X205709D02*
Y245669D01*
X211614Y242520D02*
Y245669D01*
X182087Y238779D02*
X187992D01*
X182087Y241929D02*
X187992D01*
Y238779D02*
Y241929D01*
X182087Y238779D02*
Y241929D01*
X277953Y298228D02*
Y304134D01*
X281102Y298228D02*
Y304134D01*
X277953Y298228D02*
X281102D01*
X277953Y304134D02*
X281102D01*
X245079Y324035D02*
X250984D01*
X245079Y327185D02*
X250984D01*
Y324035D02*
Y327185D01*
X245079Y324035D02*
Y327185D01*
Y341358D02*
X250984D01*
X245079Y344508D02*
X250984D01*
Y341358D02*
Y344508D01*
X245079Y341358D02*
Y344508D01*
Y332697D02*
X250984D01*
X245079Y335846D02*
X250984D01*
Y332697D02*
Y335846D01*
X245079Y332697D02*
Y335846D01*
Y322854D02*
X250984D01*
X245079Y319705D02*
X250984D01*
X245079D02*
Y322854D01*
X250984Y319705D02*
Y322854D01*
X245079Y348839D02*
X250984D01*
X245079Y345689D02*
X250984D01*
X245079D02*
Y348839D01*
X250984Y345689D02*
Y348839D01*
X245079Y331516D02*
X250984D01*
X245079Y328366D02*
X250984D01*
X245079D02*
Y331516D01*
X250984Y328366D02*
Y331516D01*
X287874Y277953D02*
Y281102D01*
X281968Y277953D02*
Y281102D01*
Y277953D02*
X287874D01*
X281968Y281102D02*
X287874D01*
X203740Y214961D02*
Y218110D01*
X197835Y214961D02*
Y218110D01*
Y214961D02*
X203740D01*
X197835Y218110D02*
X203740D01*
X243110Y214961D02*
Y218110D01*
X237205Y214961D02*
Y218110D01*
Y214961D02*
X243110D01*
X237205Y218110D02*
X243110D01*
X282480Y214961D02*
Y218110D01*
X276575Y214961D02*
Y218110D01*
Y214961D02*
X282480D01*
X276575Y218110D02*
X282480D01*
X203740Y203150D02*
Y206299D01*
X197835Y203150D02*
Y206299D01*
Y203150D02*
X203740D01*
X197835Y206299D02*
X203740D01*
X243110Y203150D02*
Y206299D01*
X237205Y203150D02*
Y206299D01*
Y203150D02*
X243110D01*
X237205Y206299D02*
X243110D01*
X282480Y203150D02*
Y206299D01*
X276575Y203150D02*
Y206299D01*
Y203150D02*
X282480D01*
X276575Y206299D02*
X282480D01*
X401968Y467520D02*
X405118D01*
X401968Y461614D02*
X405118D01*
Y467520D01*
X401968Y461614D02*
Y467520D01*
X437402D02*
X440551D01*
X437402Y461614D02*
X440551D01*
Y467520D01*
X437402Y461614D02*
Y467520D01*
X409842Y461614D02*
X412992D01*
X409842Y467520D02*
X412992D01*
X409842Y461614D02*
Y467520D01*
X412992Y461614D02*
Y467520D01*
X445276Y461614D02*
X448425D01*
X445276Y467520D02*
X448425D01*
X445276Y461614D02*
Y467520D01*
X448425Y461614D02*
Y467520D01*
X294488Y418307D02*
X297638D01*
X294488Y424213D02*
X297638D01*
X294488Y418307D02*
Y424213D01*
X297638Y418307D02*
Y424213D01*
X291339Y418307D02*
X294488D01*
X291339Y424213D02*
X294488D01*
X291339Y418307D02*
Y424213D01*
X294488Y418307D02*
Y424213D01*
X205709Y412795D02*
Y415945D01*
X211614Y412795D02*
Y415945D01*
X205709D02*
X211614D01*
X205709Y412795D02*
X211614D01*
X205709Y407874D02*
Y411024D01*
X211614Y407874D02*
Y411024D01*
X205709D02*
X211614D01*
X205709Y407874D02*
X211614D01*
X91535Y314504D02*
Y317653D01*
X97441Y314504D02*
Y317653D01*
X91535D02*
X97441D01*
X91535Y314504D02*
X97441D01*
X91535Y318441D02*
Y321590D01*
X97441Y318441D02*
Y321590D01*
X91535D02*
X97441D01*
X91535Y318441D02*
X97441D01*
X331693Y362795D02*
X337598D01*
X331693Y359646D02*
X337598D01*
X331693D02*
Y362795D01*
X337598Y359646D02*
Y362795D01*
X331693Y358858D02*
X337598D01*
X331693Y355709D02*
X337598D01*
X331693D02*
Y358858D01*
X337598Y355709D02*
Y358858D01*
X182087Y383465D02*
X187992D01*
X182087Y380315D02*
X187992D01*
X182087D02*
Y383465D01*
X187992Y380315D02*
Y383465D01*
X182087Y379528D02*
X187992D01*
X182087Y376378D02*
X187992D01*
X182087D02*
Y379528D01*
X187992Y376378D02*
Y379528D01*
X327854Y40354D02*
Y46260D01*
X331004Y40354D02*
Y46260D01*
X327854Y40354D02*
X331004D01*
X327854Y46260D02*
X331004D01*
X332972Y40354D02*
Y46260D01*
X336122Y40354D02*
Y46260D01*
X332972Y40354D02*
X336122D01*
X332972Y46260D02*
X336122D01*
X337598Y401083D02*
Y404232D01*
X331693Y401083D02*
Y404232D01*
Y401083D02*
X337598D01*
X331693Y404232D02*
X337598D01*
X182087Y400000D02*
Y403150D01*
X187992Y400000D02*
Y403150D01*
X182087D02*
X187992D01*
X182087Y400000D02*
X187992D01*
X331693Y300787D02*
Y303937D01*
X337598Y300787D02*
Y303937D01*
X331693D02*
X337598D01*
X331693Y300787D02*
X337598D01*
X376969Y284449D02*
Y287598D01*
X371063Y284449D02*
Y287598D01*
Y284449D02*
X376969D01*
X371063Y287598D02*
X376969D01*
X331693Y284449D02*
Y287598D01*
X337598Y284449D02*
Y287598D01*
X331693D02*
X337598D01*
X331693Y284449D02*
X337598D01*
X228720Y377564D02*
X243721D01*
Y402064D01*
X228720D02*
X243721D01*
X228720Y377564D02*
Y402064D01*
X224016Y567205D02*
Y573110D01*
X220866Y567205D02*
Y573110D01*
X224016D01*
X220866Y567205D02*
X224016D01*
X224803Y576496D02*
Y582402D01*
X227953Y576496D02*
Y582402D01*
X224803Y576496D02*
X227953D01*
X224803Y582402D02*
X227953D01*
X305512Y610945D02*
X308661D01*
X305512Y605039D02*
X308661D01*
Y610945D01*
X305512Y605039D02*
Y610945D01*
X289764D02*
X292913D01*
X289764Y605039D02*
X292913D01*
Y610945D01*
X289764Y605039D02*
Y610945D01*
X309449Y605039D02*
Y610945D01*
X312598Y605039D02*
Y610945D01*
X309449Y605039D02*
X312598D01*
X309449Y610945D02*
X312598D01*
X296260Y604724D02*
Y607874D01*
X302165Y604724D02*
Y607874D01*
X296260D02*
X302165D01*
X296260Y604724D02*
X302165D01*
X436024Y616161D02*
Y619311D01*
X430118Y616161D02*
Y619311D01*
Y616161D02*
X436024D01*
X430118Y619311D02*
X436024D01*
Y620098D02*
Y623248D01*
X430118Y620098D02*
Y623248D01*
Y620098D02*
X436024D01*
X430118Y623248D02*
X436024D01*
Y611161D02*
Y614311D01*
X430118Y611161D02*
Y614311D01*
Y611161D02*
X436024D01*
X430118Y614311D02*
X436024D01*
Y606161D02*
Y609311D01*
X430118Y606161D02*
Y609311D01*
Y606161D02*
X436024D01*
X430118Y609311D02*
X436024D01*
X390748Y606225D02*
Y609375D01*
X396654Y606225D02*
Y609375D01*
X390748D02*
X396654D01*
X390748Y606225D02*
X396654D01*
X241732Y548228D02*
Y554134D01*
X238583Y548228D02*
Y554134D01*
X241732D01*
X238583Y548228D02*
X241732D01*
M02*
