G04*
G04 #@! TF.GenerationSoftware,Altium Limited,Altium Designer,20.0.13 (296)*
G04*
G04 Layer_Color=255*
%FSLAX25Y25*%
%MOIN*%
G70*
G01*
G75*
%ADD40R,0.02047X0.01850*%
%ADD51R,0.11811X0.08268*%
G04:AMPARAMS|DCode=52|XSize=62.99mil|YSize=31.89mil|CornerRadius=3.19mil|HoleSize=0mil|Usage=FLASHONLY|Rotation=0.000|XOffset=0mil|YOffset=0mil|HoleType=Round|Shape=RoundedRectangle|*
%AMROUNDEDRECTD52*
21,1,0.06299,0.02551,0,0,0.0*
21,1,0.05661,0.03189,0,0,0.0*
1,1,0.00638,0.02831,-0.01276*
1,1,0.00638,-0.02831,-0.01276*
1,1,0.00638,-0.02831,0.01276*
1,1,0.00638,0.02831,0.01276*
%
%ADD52ROUNDEDRECTD52*%
%ADD53R,0.07874X0.03937*%
%ADD54R,0.02362X0.03937*%
%ADD66R,0.01850X0.02047*%
%ADD123C,0.02953*%
%ADD130C,0.09843*%
%ADD131C,0.19685*%
%ADD135R,0.07874X0.02362*%
%ADD136R,0.06299X0.03189*%
%ADD137R,0.15748X0.15748*%
%ADD138R,0.43307X0.31496*%
D40*
X183071Y103091D02*
D03*
Y99705D02*
D03*
X43200Y333007D02*
D03*
Y336393D02*
D03*
X43307Y305394D02*
D03*
Y308780D02*
D03*
X179134Y103091D02*
D03*
Y99705D02*
D03*
D51*
X599213Y439608D02*
D03*
Y394923D02*
D03*
Y304823D02*
D03*
Y269980D02*
D03*
X161811Y113898D02*
D03*
Y88898D02*
D03*
X599213Y372679D02*
D03*
Y327994D02*
D03*
Y246694D02*
D03*
Y202009D02*
D03*
D52*
X587795Y424647D02*
D03*
Y429568D02*
D03*
Y419726D02*
D03*
Y409883D02*
D03*
Y414805D02*
D03*
Y404962D02*
D03*
Y289862D02*
D03*
Y294783D02*
D03*
Y284941D02*
D03*
Y280020D02*
D03*
Y357718D02*
D03*
Y362639D02*
D03*
Y352797D02*
D03*
Y342954D02*
D03*
Y347876D02*
D03*
Y338033D02*
D03*
Y231734D02*
D03*
Y236655D02*
D03*
Y226813D02*
D03*
Y216970D02*
D03*
Y221891D02*
D03*
Y212049D02*
D03*
D53*
X31496Y339764D02*
D03*
Y329528D02*
D03*
X31492Y312205D02*
D03*
Y301969D02*
D03*
D54*
X37402Y334646D02*
D03*
X37398Y307087D02*
D03*
D66*
X576496Y284941D02*
D03*
X573110D02*
D03*
Y342954D02*
D03*
X576496D02*
D03*
X573110Y347876D02*
D03*
X576496D02*
D03*
X573110Y352797D02*
D03*
X576496D02*
D03*
X573110Y216970D02*
D03*
X576496D02*
D03*
X573110Y221891D02*
D03*
X576496D02*
D03*
X573110Y226813D02*
D03*
X576496D02*
D03*
X573110Y409883D02*
D03*
X576496D02*
D03*
X573110Y414805D02*
D03*
X576496D02*
D03*
X573110Y419726D02*
D03*
X576496D02*
D03*
X573110Y357718D02*
D03*
X576496D02*
D03*
X573110Y362639D02*
D03*
X576496D02*
D03*
X573110Y231734D02*
D03*
X576496D02*
D03*
X573110Y236655D02*
D03*
X576496D02*
D03*
X573110Y424647D02*
D03*
X576496D02*
D03*
X573110Y429568D02*
D03*
X576496D02*
D03*
D123*
X475948Y68197D02*
D03*
Y60717D02*
D03*
Y53237D02*
D03*
Y45757D02*
D03*
Y38277D02*
D03*
Y23317D02*
D03*
Y30797D02*
D03*
Y165437D02*
D03*
Y83157D02*
D03*
Y75677D02*
D03*
Y120557D02*
D03*
Y128037D02*
D03*
Y135517D02*
D03*
Y142997D02*
D03*
Y150477D02*
D03*
Y157957D02*
D03*
Y172917D02*
D03*
X459221Y194573D02*
D03*
X443363Y194573D02*
D03*
X435434D02*
D03*
X427505D02*
D03*
X419577D02*
D03*
X411648D02*
D03*
X403719D02*
D03*
X395791D02*
D03*
X387862D02*
D03*
X372004D02*
D03*
X332360D02*
D03*
X340289D02*
D03*
X350100Y194600D02*
D03*
X357800D02*
D03*
X364075Y194573D02*
D03*
X451292D02*
D03*
X316503D02*
D03*
X308574D02*
D03*
X300645D02*
D03*
X292717D02*
D03*
X284788D02*
D03*
X276859D02*
D03*
X268930D02*
D03*
X261002D02*
D03*
X253073D02*
D03*
X245144D02*
D03*
X205500D02*
D03*
X213429D02*
D03*
X221358D02*
D03*
X229287D02*
D03*
X237215D02*
D03*
X324432D02*
D03*
X189643D02*
D03*
X181714D02*
D03*
X197572D02*
D03*
X476000Y463000D02*
D03*
X164800D02*
D03*
X443301Y446300D02*
D03*
X459159D02*
D03*
X451230D02*
D03*
X316441D02*
D03*
X403658D02*
D03*
X411586D02*
D03*
X419515D02*
D03*
X427444D02*
D03*
X435373D02*
D03*
X395729D02*
D03*
X387800D02*
D03*
X379871D02*
D03*
X371943D02*
D03*
X364014D02*
D03*
X356085D02*
D03*
X348156D02*
D03*
X340228D02*
D03*
X332299D02*
D03*
X324370D02*
D03*
X189581D02*
D03*
X276798D02*
D03*
X284726D02*
D03*
X292655D02*
D03*
X300584D02*
D03*
X308512D02*
D03*
X268869D02*
D03*
X260940D02*
D03*
X253011D02*
D03*
X245082D02*
D03*
X237154D02*
D03*
X229225D02*
D03*
X221296D02*
D03*
X205439D02*
D03*
X197510D02*
D03*
X181652Y446300D02*
D03*
X164900Y616200D02*
D03*
X164873Y601609D02*
D03*
Y594314D02*
D03*
Y579724D02*
D03*
Y572428D02*
D03*
Y565133D02*
D03*
Y557838D02*
D03*
Y550543D02*
D03*
Y543248D02*
D03*
Y535952D02*
D03*
Y521362D02*
D03*
Y528657D02*
D03*
Y608905D02*
D03*
Y477591D02*
D03*
X164873Y470295D02*
D03*
X164873Y484886D02*
D03*
Y492181D02*
D03*
Y499476D02*
D03*
Y506771D02*
D03*
Y514067D02*
D03*
X476001Y572428D02*
D03*
Y579724D02*
D03*
Y587019D02*
D03*
Y594314D02*
D03*
Y601609D02*
D03*
X476001Y616200D02*
D03*
X476001Y608905D02*
D03*
Y477591D02*
D03*
Y557838D02*
D03*
Y565133D02*
D03*
Y550543D02*
D03*
Y543248D02*
D03*
Y535952D02*
D03*
Y528657D02*
D03*
Y521362D02*
D03*
Y514067D02*
D03*
Y506771D02*
D03*
Y499476D02*
D03*
Y492181D02*
D03*
Y484886D02*
D03*
X476001Y470295D02*
D03*
X164872Y157957D02*
D03*
Y150477D02*
D03*
Y142997D02*
D03*
Y135517D02*
D03*
Y128037D02*
D03*
Y120557D02*
D03*
Y75677D02*
D03*
X164900Y81400D02*
D03*
X164872Y165437D02*
D03*
X164872Y23317D02*
D03*
X164872Y38277D02*
D03*
Y45757D02*
D03*
Y53237D02*
D03*
Y60717D02*
D03*
Y68197D02*
D03*
X7873Y196761D02*
D03*
Y180800D02*
D03*
Y188780D02*
D03*
Y324448D02*
D03*
Y236663D02*
D03*
Y228683D02*
D03*
Y220702D02*
D03*
Y212722D02*
D03*
Y204741D02*
D03*
Y244643D02*
D03*
Y252624D02*
D03*
Y260604D02*
D03*
Y268585D02*
D03*
Y276565D02*
D03*
Y284545D02*
D03*
Y292526D02*
D03*
Y300506D02*
D03*
Y308487D02*
D03*
Y316467D02*
D03*
Y452134D02*
D03*
Y364350D02*
D03*
Y356369D02*
D03*
Y348389D02*
D03*
Y340408D02*
D03*
Y332428D02*
D03*
Y372330D02*
D03*
Y380311D02*
D03*
Y388291D02*
D03*
Y396271D02*
D03*
Y404252D02*
D03*
Y412232D02*
D03*
Y420213D02*
D03*
Y428193D02*
D03*
Y436173D02*
D03*
Y444154D02*
D03*
Y460115D02*
D03*
X633000Y444112D02*
D03*
Y460073D02*
D03*
Y452093D02*
D03*
Y316425D02*
D03*
Y404210D02*
D03*
Y412190D02*
D03*
Y420171D02*
D03*
Y428151D02*
D03*
Y436132D02*
D03*
Y396230D02*
D03*
Y388249D02*
D03*
Y380269D02*
D03*
Y372288D02*
D03*
Y364308D02*
D03*
Y356328D02*
D03*
Y348347D02*
D03*
Y340367D02*
D03*
Y332386D02*
D03*
Y324406D02*
D03*
Y188739D02*
D03*
Y276523D02*
D03*
Y284504D02*
D03*
Y292484D02*
D03*
Y300465D02*
D03*
Y308445D02*
D03*
Y268543D02*
D03*
Y260562D02*
D03*
Y252582D02*
D03*
Y244602D02*
D03*
Y236621D02*
D03*
Y228641D02*
D03*
Y220660D02*
D03*
Y212680D02*
D03*
Y204700D02*
D03*
Y196719D02*
D03*
Y180758D02*
D03*
X444112Y7873D02*
D03*
X460073D02*
D03*
X452093D02*
D03*
X316425D02*
D03*
X404210D02*
D03*
X412190D02*
D03*
X420171D02*
D03*
X428151D02*
D03*
X436132D02*
D03*
X396230D02*
D03*
X388249D02*
D03*
X380269D02*
D03*
X372288D02*
D03*
X364308D02*
D03*
X356328D02*
D03*
X348347D02*
D03*
X340367D02*
D03*
X332386D02*
D03*
X324406D02*
D03*
X188739D02*
D03*
X276523D02*
D03*
X284504D02*
D03*
X292484D02*
D03*
X300465D02*
D03*
X308445D02*
D03*
X268543D02*
D03*
X260562D02*
D03*
X252582D02*
D03*
X244602D02*
D03*
X236621D02*
D03*
X228641D02*
D03*
X220660D02*
D03*
X212680D02*
D03*
X204699D02*
D03*
X196719D02*
D03*
X180758D02*
D03*
X459159Y633000D02*
D03*
X443301Y633000D02*
D03*
X435373D02*
D03*
X427444D02*
D03*
X419515D02*
D03*
X411586D02*
D03*
X403658D02*
D03*
X395729D02*
D03*
X387800D02*
D03*
X379871D02*
D03*
X371943D02*
D03*
X332299D02*
D03*
X340228D02*
D03*
X348156D02*
D03*
X356085D02*
D03*
X364014D02*
D03*
X451230D02*
D03*
X316441D02*
D03*
X308512D02*
D03*
X300584D02*
D03*
X292655D02*
D03*
X284726D02*
D03*
X276798D02*
D03*
X268869D02*
D03*
X260940D02*
D03*
X253011D02*
D03*
X245082D02*
D03*
X205439D02*
D03*
X213367D02*
D03*
X221296D02*
D03*
X229225D02*
D03*
X237154D02*
D03*
X324370D02*
D03*
X189581D02*
D03*
X181652Y633000D02*
D03*
X197510Y633000D02*
D03*
D130*
X444202Y58479D02*
D03*
X414202Y68480D02*
D03*
Y48480D02*
D03*
X226171D02*
D03*
Y68480D02*
D03*
X196171Y58479D02*
D03*
Y143924D02*
D03*
X226171Y153924D02*
D03*
Y133924D02*
D03*
X414202D02*
D03*
Y153924D02*
D03*
X444202Y143924D02*
D03*
D131*
X468074Y186647D02*
D03*
X172798D02*
D03*
X468075Y454226D02*
D03*
X172799D02*
D03*
X15747Y468075D02*
D03*
X15746Y172799D02*
D03*
X625126Y172798D02*
D03*
X625126Y468074D02*
D03*
X172798Y15747D02*
D03*
X468074Y15747D02*
D03*
X172799Y625127D02*
D03*
X468075Y625126D02*
D03*
D135*
X55118Y302666D02*
D03*
Y310934D02*
D03*
Y330512D02*
D03*
Y338779D02*
D03*
D136*
X173228Y103858D02*
D03*
Y98937D02*
D03*
D137*
X216535Y332480D02*
D03*
Y417323D02*
D03*
D138*
X429242Y58479D02*
D03*
X211131D02*
D03*
Y143924D02*
D03*
X429242D02*
D03*
M02*
