G04*
G04 #@! TF.GenerationSoftware,Altium Limited,Altium Designer,20.0.13 (296)*
G04*
G04 Layer_Color=32768*
%FSLAX25Y25*%
%MOIN*%
G70*
G01*
G75*
%ADD10C,0.00394*%
%ADD16C,0.00197*%
%ADD146C,0.00079*%
D10*
X346331Y364231D02*
X362331D01*
X346331Y344431D02*
Y364231D01*
Y344431D02*
X362331D01*
Y364231D01*
X230315Y565945D02*
Y583661D01*
Y565945D02*
X250000D01*
Y583661D01*
X230315D02*
X250000D01*
X367224Y114665D02*
X380807D01*
Y105811D02*
Y114665D01*
X367224Y105811D02*
X380807D01*
X367224D02*
Y114665D01*
X228720Y239769D02*
X243721D01*
Y264268D01*
X228720D02*
X243721D01*
X228720Y239769D02*
Y264268D01*
Y377564D02*
Y402064D01*
X243721D01*
Y377564D02*
Y402064D01*
X228720Y377564D02*
X243721D01*
D16*
X332172Y127758D02*
Y139958D01*
X321372Y127758D02*
X332172D01*
X321372Y139958D02*
X332172D01*
X321372Y127758D02*
Y139958D01*
X340831Y378601D02*
Y408801D01*
Y378601D02*
X367731D01*
Y408801D01*
X340831D02*
X367731D01*
X285376Y297524D02*
Y324424D01*
X305176D01*
Y297524D02*
Y324424D01*
X285376Y297524D02*
X305176D01*
X340831Y309703D02*
X367731D01*
Y289903D02*
Y309703D01*
X340831Y289903D02*
X367731D01*
X340831D02*
Y309703D01*
X270669Y276575D02*
X312008D01*
Y235236D02*
Y276575D01*
X270669Y235236D02*
X312008D01*
X270669D02*
Y276575D01*
X67000Y329100D02*
X85600D01*
Y312900D02*
Y329100D01*
X67000Y312900D02*
Y329100D01*
Y312900D02*
X85600D01*
X342257Y53455D02*
Y64655D01*
X350657D01*
Y53455D02*
Y64655D01*
X342257Y53455D02*
X350657D01*
X190450Y250095D02*
X203250D01*
X190450Y238094D02*
Y250095D01*
Y238094D02*
X203250D01*
Y250095D01*
X381016Y127858D02*
Y139858D01*
X367016Y127858D02*
X381016D01*
X367016D02*
Y139858D01*
X381016D01*
X182139Y393169D02*
X187939D01*
X182139Y398169D02*
X187939D01*
X182139Y393169D02*
Y398169D01*
X187939Y393169D02*
Y398169D01*
X200850Y376768D02*
Y389768D01*
X192850Y376768D02*
Y389768D01*
X200850D01*
X192850Y376768D02*
X200850D01*
X272779Y124858D02*
Y142858D01*
X254780D02*
X272779D01*
X254780Y124858D02*
Y142858D01*
Y124858D02*
X272779D01*
X324809Y48355D02*
Y69855D01*
Y48355D02*
X336609D01*
Y69855D01*
X324809D02*
X336609D01*
X190750Y397088D02*
Y416888D01*
Y397088D02*
X202950D01*
Y416888D01*
X190750D02*
X202950D01*
X294450Y142558D02*
X311850D01*
Y125158D02*
Y142558D01*
X294450Y125158D02*
X311850D01*
X294450D02*
Y142558D01*
X59318Y301200D02*
Y312400D01*
X50918D02*
X59318D01*
X50918Y301200D02*
Y312400D01*
Y301200D02*
X59318D01*
X363061Y609173D02*
Y619173D01*
X359261Y609173D02*
Y619173D01*
X363061D01*
X359261Y609173D02*
X363061D01*
X267335Y590933D02*
X378335D01*
X267335Y479933D02*
X378335D01*
X267335D02*
Y590933D01*
X378335Y479933D02*
Y590933D01*
X584132Y390323D02*
Y444223D01*
X608132Y390323D02*
Y444223D01*
X584132D02*
X608132D01*
X584132Y390323D02*
X608132D01*
X584132Y265551D02*
Y309323D01*
X608132Y265551D02*
Y309323D01*
X584132D02*
X608132D01*
X584132Y265551D02*
X608132D01*
X176891Y84398D02*
Y118398D01*
X152891Y84398D02*
Y118398D01*
Y84398D02*
X176891D01*
X152891Y118398D02*
X176891D01*
Y84397D02*
Y118397D01*
X152891Y84397D02*
Y118397D01*
X176891D01*
X152891Y84397D02*
X176891D01*
X269491Y615699D02*
X285191D01*
X269491Y596899D02*
X285191D01*
Y615699D01*
X269491Y596899D02*
Y615699D01*
X390871Y584889D02*
X464471D01*
X390871Y483689D02*
X464471D01*
Y584889D01*
X390871Y483689D02*
X390871Y584889D01*
X182391Y364546D02*
X239591D01*
X182391Y304746D02*
X239591D01*
Y364546D01*
X182391Y304746D02*
Y364546D01*
X321477Y141980D02*
X343877D01*
Y172980D01*
X321477D02*
X343877D01*
X321477Y141980D02*
Y172980D01*
X385758Y129498D02*
Y139498D01*
X381958Y129498D02*
Y139498D01*
X385758D01*
X381958Y129498D02*
X385758D01*
X177135Y310624D02*
Y425324D01*
X256235Y310624D02*
Y425324D01*
X177135Y310624D02*
X256235D01*
X177135Y425324D02*
X256235D01*
X181986Y20779D02*
X458886D01*
X181986Y96179D02*
X458886D01*
X181986Y20779D02*
Y96179D01*
X458886Y20779D02*
Y96179D01*
Y106224D02*
Y181624D01*
X181986Y106224D02*
Y181624D01*
X458886D01*
X181986Y106224D02*
X458886D01*
X321477Y125736D02*
X343877D01*
X321477Y94736D02*
Y125736D01*
Y94736D02*
X343877D01*
Y125736D01*
X347274Y604399D02*
Y608199D01*
X357274Y604399D02*
Y608199D01*
X347274D02*
X357274D01*
X347274Y604399D02*
X357274D01*
X369262D02*
Y608199D01*
X359262Y604399D02*
Y608199D01*
Y604399D02*
X369262D01*
X359262Y608199D02*
X369262D01*
X385758Y153120D02*
Y163120D01*
X381958Y153120D02*
Y163120D01*
X385758D01*
X381958Y153120D02*
X385758D01*
X357274Y609173D02*
Y619173D01*
X353474Y609173D02*
Y619173D01*
X357274D01*
X353474Y609173D02*
X357274D01*
X584132Y323394D02*
Y377294D01*
X608132Y323394D02*
Y377294D01*
X584132D02*
X608132D01*
X584132Y323394D02*
X608132D01*
X584132Y197409D02*
Y251309D01*
X608132Y197409D02*
Y251309D01*
X584132D02*
X608132D01*
X584132Y197409D02*
X608132D01*
X255368Y40807D02*
X261168D01*
X255368Y45807D02*
X261168D01*
X255368Y40807D02*
Y45807D01*
X261168Y40807D02*
Y45807D01*
X194350Y550250D02*
Y556050D01*
X199350Y550250D02*
Y556050D01*
X194350D02*
X199350D01*
X194350Y550250D02*
X199350D01*
X194350Y522690D02*
Y528490D01*
X199350Y522690D02*
Y528490D01*
X194350D02*
X199350D01*
X194350Y522690D02*
X199350D01*
X194350Y495131D02*
Y500932D01*
X199350Y495131D02*
Y500932D01*
X194350D02*
X199350D01*
X194350Y495131D02*
X199350D01*
X198287Y207730D02*
Y213530D01*
X203287Y207730D02*
Y213530D01*
X198287D02*
X203287D01*
X198287Y207730D02*
X203287D01*
X237657D02*
Y213530D01*
X242657Y207730D02*
Y213530D01*
X237657D02*
X242657D01*
X237657Y207730D02*
X242657D01*
X277028D02*
Y213530D01*
X282028Y207730D02*
Y213530D01*
X277028D02*
X282028D01*
X277028Y207730D02*
X282028D01*
X414423Y467067D02*
X420223D01*
X414423Y462067D02*
X420223D01*
Y467067D01*
X414423Y462067D02*
Y467067D01*
X449856D02*
X455656D01*
X449856Y462067D02*
X455656D01*
Y467067D01*
X449856Y462067D02*
Y467067D01*
X25396Y325246D02*
X41096D01*
X25396Y344046D02*
X41096D01*
Y325246D02*
Y344046D01*
X25396Y325246D02*
Y344046D01*
X25392Y297687D02*
X41092D01*
X25392Y316487D02*
X41092D01*
Y297687D02*
Y316487D01*
X25392Y297687D02*
Y316487D01*
X257780Y65455D02*
X269779D01*
Y52655D02*
Y65455D01*
X257780Y52655D02*
X269779D01*
X257780D02*
Y65455D01*
X186513Y588677D02*
X199313D01*
X186513Y576677D02*
Y588677D01*
Y576677D02*
X199313D01*
Y588677D01*
X381016Y151480D02*
Y163480D01*
X367016Y151480D02*
X381016D01*
X367016D02*
Y163480D01*
X381016D01*
X340831Y254585D02*
X367731D01*
Y234785D02*
Y254585D01*
X340831Y234785D02*
X367731D01*
X340831D02*
Y254585D01*
Y282144D02*
X367731D01*
Y262344D02*
Y282144D01*
X340831Y262344D02*
X367731D01*
X340831D02*
Y282144D01*
X270669Y373031D02*
Y414370D01*
Y373031D02*
X312008D01*
Y414370D01*
X270669D02*
X312008D01*
X203250Y253842D02*
Y265843D01*
X190450Y253842D02*
X203250D01*
X190450D02*
Y265843D01*
X203250D01*
X59318Y329046D02*
Y340246D01*
X50918D02*
X59318D01*
X50918Y329046D02*
Y340246D01*
Y329046D02*
X59318D01*
D146*
X361116Y35055D02*
Y83155D01*
X387016Y35055D02*
Y83155D01*
X361116Y35055D02*
X387016D01*
X361116Y83155D02*
X387016D01*
X229921Y548228D02*
Y554134D01*
X226772Y548228D02*
Y554134D01*
X226747D02*
X229896D01*
X226747Y548228D02*
X229896D01*
X182087Y403962D02*
Y407112D01*
X187992Y403962D02*
Y407112D01*
X182087Y407087D02*
X187992D01*
X182087Y403937D02*
X187992D01*
X285802Y605039D02*
X288951D01*
X285802Y610945D02*
X288951D01*
X285827Y605039D02*
Y610945D01*
X288976Y605039D02*
Y610945D01*
X577756Y283391D02*
Y286541D01*
X571850Y283391D02*
Y286541D01*
Y286516D02*
X577756D01*
X571850Y283366D02*
X577756D01*
X238558Y595472D02*
X241707D01*
X238558Y601378D02*
X241707D01*
X238583Y595472D02*
Y601378D01*
X241732Y595472D02*
Y601378D01*
X181496Y98445D02*
Y104350D01*
X184646Y98445D02*
Y104350D01*
X181521D02*
X184671D01*
X181521Y98445D02*
X184671D01*
X365748Y106614D02*
Y112520D01*
X362598Y106614D02*
Y112520D01*
X362573D02*
X365723D01*
X362573Y106614D02*
X365723D01*
X340945Y71850D02*
Y77756D01*
X344094Y71850D02*
Y77756D01*
X340970Y71850D02*
X344120D01*
X340970Y77756D02*
X344120D01*
X322441Y63976D02*
Y69882D01*
X319291Y63976D02*
Y69882D01*
X319266D02*
X322416D01*
X319266Y63976D02*
X322416D01*
X319291Y48228D02*
Y54134D01*
X322441Y48228D02*
Y54134D01*
X319317Y48228D02*
X322466D01*
X319317Y54134D02*
X322466D01*
X351969Y71850D02*
Y77756D01*
X348819Y71850D02*
Y77756D01*
X348794D02*
X351943D01*
X348794Y71850D02*
X351943D01*
X336122D02*
Y77756D01*
X332972Y71850D02*
Y77756D01*
X332947D02*
X336097D01*
X332947Y71850D02*
X336097D01*
X254331Y58740D02*
Y64646D01*
X257480Y58740D02*
Y64646D01*
X254356Y58740D02*
X257505D01*
X254356Y64646D02*
X257505D01*
X269291Y71850D02*
Y77756D01*
X266142Y71850D02*
Y77756D01*
X266116D02*
X269266D01*
X266116Y71850D02*
X269266D01*
X265354D02*
Y77756D01*
X262205Y71850D02*
Y77756D01*
X262179D02*
X265329D01*
X262179Y71850D02*
X265329D01*
X269291Y111221D02*
Y117126D01*
X266142Y111221D02*
Y117126D01*
X266116D02*
X269266D01*
X266116Y111221D02*
X269266D01*
X265354D02*
Y117126D01*
X262205Y111221D02*
Y117126D01*
X262179D02*
X265329D01*
X262179Y111221D02*
X265329D01*
X277165D02*
Y117126D01*
X274016Y111221D02*
Y117126D01*
X273991D02*
X277140D01*
X273991Y111221D02*
X277140D01*
X273228D02*
Y117126D01*
X270079Y111221D02*
Y117126D01*
X270054D02*
X273203D01*
X270054Y111221D02*
X273203D01*
X257480D02*
Y117126D01*
X254331Y111221D02*
Y117126D01*
X254306D02*
X257455D01*
X254306Y111221D02*
X257455D01*
X261417D02*
Y117126D01*
X258268Y111221D02*
Y117126D01*
X258243D02*
X261392D01*
X258243Y111221D02*
X261392D01*
X181496Y98444D02*
Y104350D01*
X184646Y98444D02*
Y104350D01*
X181521Y98444D02*
X184671D01*
X181521Y104350D02*
X184671D01*
X266142Y150591D02*
Y156496D01*
X269291Y150591D02*
Y156496D01*
X266167Y150591D02*
X269317D01*
X266167Y156496D02*
X269317D01*
X258268Y150591D02*
Y156496D01*
X261417Y150591D02*
Y156496D01*
X258293Y150591D02*
X261442D01*
X258293Y156496D02*
X261442D01*
X262205Y150591D02*
Y156496D01*
X265354Y150591D02*
Y156496D01*
X262230Y150591D02*
X265380D01*
X262230Y156496D02*
X265380D01*
X348819Y117126D02*
Y123031D01*
X351969Y117126D02*
Y123031D01*
X348844Y117126D02*
X351994D01*
X348844Y123031D02*
X351994D01*
X348031Y117126D02*
Y123031D01*
X344882Y117126D02*
Y123031D01*
X344857D02*
X348006D01*
X344857Y117126D02*
X348006D01*
X348868Y144685D02*
Y150591D01*
X352018Y144685D02*
Y150591D01*
X348894Y144685D02*
X352043D01*
X348894Y150591D02*
X352043D01*
X348081Y144685D02*
Y150591D01*
X344932Y144685D02*
Y150591D01*
X344906D02*
X348056D01*
X344906Y144685D02*
X348056D01*
X209055Y581772D02*
Y587677D01*
X212205Y581772D02*
Y587677D01*
X209080Y581772D02*
X212230D01*
X209080Y587677D02*
X212230D01*
X208268Y581772D02*
Y587677D01*
X205118Y581772D02*
Y587677D01*
X205093D02*
X208243D01*
X205093Y581772D02*
X208243D01*
X351378Y603937D02*
X357283D01*
X351378Y600787D02*
X357283D01*
X351378Y600762D02*
Y603912D01*
X357283Y600762D02*
Y603912D01*
X351378Y600000D02*
X357283D01*
X351378Y596850D02*
X357283D01*
X351378Y596825D02*
Y599975D01*
X357283Y596825D02*
Y599975D01*
X177559Y574291D02*
Y580197D01*
X180709Y574291D02*
Y580197D01*
X177584Y574291D02*
X180734D01*
X177584Y580197D02*
X180734D01*
X184646Y581772D02*
Y587677D01*
X181496Y581772D02*
Y587677D01*
X181471D02*
X184620D01*
X181471Y581772D02*
X184620D01*
X177559D02*
Y587677D01*
X180709Y581772D02*
Y587677D01*
X177584Y581772D02*
X180734D01*
X177584Y587677D02*
X180734D01*
X359252Y600787D02*
X365158D01*
X359252Y603937D02*
X365158D01*
Y600813D02*
Y603962D01*
X359252Y600813D02*
Y603962D01*
Y596850D02*
X365158D01*
X359252Y600000D02*
X365158D01*
Y596876D02*
Y600025D01*
X359252Y596876D02*
Y600025D01*
X362573Y156575D02*
X365723D01*
X362573Y162480D02*
X365723D01*
X362598Y156575D02*
Y162480D01*
X365748Y156575D02*
Y162480D01*
X386246D02*
X389395D01*
X386246Y156575D02*
X389395D01*
X389370D02*
Y162480D01*
X386221Y156575D02*
Y162480D01*
X390132Y156575D02*
X393282D01*
X390132Y162480D02*
X393282D01*
X390158Y156575D02*
Y162480D01*
X393307Y156575D02*
Y162480D01*
X362573Y132953D02*
X365723D01*
X362573Y138858D02*
X365723D01*
X362598Y132953D02*
Y138858D01*
X365748Y132953D02*
Y138858D01*
X386246D02*
X389395D01*
X386246Y132953D02*
X389395D01*
X389370D02*
Y138858D01*
X386221Y132953D02*
Y138858D01*
X390132Y132953D02*
X393282D01*
X390132Y138858D02*
X393282D01*
X390158Y132953D02*
Y138858D01*
X393307Y132953D02*
Y138858D01*
X384277Y556102D02*
X387427D01*
X384277Y550197D02*
X387427D01*
X387402D02*
Y556102D01*
X384252Y550197D02*
Y556102D01*
X424213Y478715D02*
Y481865D01*
X418307Y478715D02*
Y481865D01*
Y478740D02*
X424213D01*
X418307Y481890D02*
X424213D01*
X434055Y478715D02*
Y481865D01*
X428150Y478715D02*
Y481865D01*
Y478740D02*
X434055D01*
X428150Y481890D02*
X434055D01*
X447835Y478765D02*
Y481915D01*
X453740Y478765D02*
Y481915D01*
X447835Y481890D02*
X453740D01*
X447835Y478740D02*
X453740D01*
X445866Y478715D02*
Y481865D01*
X439961Y478715D02*
Y481865D01*
Y478740D02*
X445866D01*
X439961Y481890D02*
X445866D01*
X186024Y545669D02*
X191929D01*
X186024Y548819D02*
X191929D01*
Y545694D02*
Y548844D01*
X186024Y545694D02*
Y548844D01*
Y557480D02*
X191929D01*
X186024Y560630D02*
X191929D01*
Y557506D02*
Y560655D01*
X186024Y557506D02*
Y560655D01*
Y552756D02*
X191929D01*
X186024Y549606D02*
X191929D01*
X186024Y549581D02*
Y552731D01*
X191929Y549581D02*
Y552731D01*
X186024Y518110D02*
X191929D01*
X186024Y521260D02*
X191929D01*
Y518135D02*
Y521285D01*
X186024Y518135D02*
Y521285D01*
Y529921D02*
X191929D01*
X186024Y533071D02*
X191929D01*
Y529947D02*
Y533096D01*
X186024Y529947D02*
Y533096D01*
Y525197D02*
X191929D01*
X186024Y522047D02*
X191929D01*
X186024Y522022D02*
Y525172D01*
X191929Y522022D02*
Y525172D01*
X186024Y490551D02*
X191929D01*
X186024Y493701D02*
X191929D01*
Y490576D02*
Y493726D01*
X186024Y490576D02*
Y493726D01*
Y502362D02*
X191929D01*
X186024Y505512D02*
X191929D01*
Y502387D02*
Y505537D01*
X186024Y502387D02*
Y505537D01*
Y497638D02*
X191929D01*
X186024Y494488D02*
X191929D01*
X186024Y494463D02*
Y497613D01*
X191929Y494463D02*
Y497613D01*
X331693Y253937D02*
X337598D01*
X331693Y250787D02*
X337598D01*
X331693Y250762D02*
Y253912D01*
X337598Y250762D02*
Y253912D01*
X331693Y243701D02*
X337598D01*
X331693Y240551D02*
X337598D01*
X331693Y240526D02*
Y243676D01*
X337598Y240526D02*
Y243676D01*
X371063Y235433D02*
X376969D01*
X371063Y238583D02*
X376969D01*
Y235458D02*
Y238608D01*
X371063Y235458D02*
Y238608D01*
Y245669D02*
X376969D01*
X371063Y248819D02*
X376969D01*
Y245694D02*
Y248844D01*
X371063Y245694D02*
Y248844D01*
X224803Y567205D02*
Y573110D01*
X227953Y567205D02*
Y573110D01*
X224828Y567205D02*
X227978D01*
X224828Y573110D02*
X227978D01*
X250394Y548228D02*
Y554134D01*
X253543Y548228D02*
Y554134D01*
X250419Y548228D02*
X253569D01*
X250419Y554134D02*
X253569D01*
X242520Y548228D02*
Y554134D01*
X245669Y548228D02*
Y554134D01*
X242545Y548228D02*
X245694D01*
X242545Y554134D02*
X245694D01*
X234646Y548228D02*
Y554134D01*
X237795Y548228D02*
Y554134D01*
X234671Y548228D02*
X237821D01*
X234671Y554134D02*
X237821D01*
X249606Y595472D02*
Y601378D01*
X246457Y595472D02*
Y601378D01*
X246431D02*
X249581D01*
X246431Y595472D02*
X249581D01*
X245669D02*
Y601378D01*
X242520Y595472D02*
Y601378D01*
X242495D02*
X245644D01*
X242495Y595472D02*
X245644D01*
X237795D02*
Y601378D01*
X234646Y595472D02*
Y601378D01*
X234620D02*
X237770D01*
X234620Y595472D02*
X237770D01*
X266732Y393676D02*
Y396825D01*
X260827Y393676D02*
Y396825D01*
Y393701D02*
X266732D01*
X260827Y396850D02*
X266732D01*
Y387376D02*
Y390526D01*
X260827Y387376D02*
Y390526D01*
Y387402D02*
X266732D01*
X260827Y390551D02*
X266732D01*
X315945Y384277D02*
Y387427D01*
X321850Y384277D02*
Y387427D01*
X315945Y387402D02*
X321850D01*
X315945Y384252D02*
X321850D01*
X228543Y403175D02*
Y406324D01*
X234449Y403175D02*
Y406324D01*
X228543Y406299D02*
X234449D01*
X228543Y403150D02*
X234449D01*
X243898Y373203D02*
Y376353D01*
X237992Y373203D02*
Y376353D01*
Y373228D02*
X243898D01*
X237992Y376378D02*
X243898D01*
X285014Y418307D02*
X288164D01*
X285014Y424213D02*
X288164D01*
X285039Y418307D02*
Y424213D01*
X288189Y418307D02*
Y424213D01*
X187992Y261983D02*
Y265132D01*
X182087Y261983D02*
Y265132D01*
Y262008D02*
X187992D01*
X182087Y265158D02*
X187992D01*
X205709Y258293D02*
Y261442D01*
X211614Y258293D02*
Y261442D01*
X205709Y261417D02*
X211614D01*
X205709Y258268D02*
X211614D01*
X182087Y246285D02*
Y249435D01*
X187992Y246285D02*
Y249435D01*
X182087Y249410D02*
X187992D01*
X182087Y246260D02*
X187992D01*
Y242495D02*
Y245644D01*
X182087Y242495D02*
Y245644D01*
Y242520D02*
X187992D01*
X182087Y245669D02*
X187992D01*
X277928Y317913D02*
X281077D01*
X277928Y323819D02*
X281077D01*
X277953Y317913D02*
Y323819D01*
X281102Y317913D02*
Y323819D01*
X273991Y298228D02*
X277140D01*
X273991Y304134D02*
X277140D01*
X274016Y298228D02*
Y304134D01*
X277165Y298228D02*
Y304134D01*
X245079Y337053D02*
Y340202D01*
X250984Y337053D02*
Y340202D01*
X245079Y340177D02*
X250984D01*
X245079Y337028D02*
X250984D01*
X260827Y259055D02*
X266732D01*
X260827Y255906D02*
X266732D01*
X260827Y255880D02*
Y259030D01*
X266732Y255880D02*
Y259030D01*
X260827Y252756D02*
X266732D01*
X260827Y249606D02*
X266732D01*
X260827Y249581D02*
Y252731D01*
X266732Y249581D02*
Y252731D01*
X315945Y246457D02*
X321850D01*
X315945Y249606D02*
X321850D01*
Y246482D02*
Y249632D01*
X315945Y246482D02*
Y249632D01*
X228543Y265354D02*
X234449D01*
X228543Y268504D02*
X234449D01*
Y265380D02*
Y268529D01*
X228543Y265380D02*
Y268529D01*
X237992Y238583D02*
X243898D01*
X237992Y235433D02*
X243898D01*
X237992Y235408D02*
Y238558D01*
X243898Y235408D02*
Y238558D01*
X288504Y277953D02*
X294409D01*
X288504Y281102D02*
X294409D01*
Y277978D02*
Y281128D01*
X288504Y277978D02*
Y281128D01*
X189961Y203150D02*
X195866D01*
X189961Y206299D02*
X195866D01*
Y203175D02*
Y206324D01*
X189961Y203175D02*
Y206324D01*
Y214961D02*
X195866D01*
X189961Y218110D02*
X195866D01*
Y214986D02*
Y218135D01*
X189961Y214986D02*
Y218135D01*
Y210236D02*
X195866D01*
X189961Y207087D02*
X195866D01*
X189961Y207061D02*
Y210211D01*
X195866Y207061D02*
Y210211D01*
X229331Y203150D02*
X235236D01*
X229331Y206299D02*
X235236D01*
Y203175D02*
Y206324D01*
X229331Y203175D02*
Y206324D01*
Y214961D02*
X235236D01*
X229331Y218110D02*
X235236D01*
Y214986D02*
Y218135D01*
X229331Y214986D02*
Y218135D01*
Y210236D02*
X235236D01*
X229331Y207087D02*
X235236D01*
X229331Y207061D02*
Y210211D01*
X235236Y207061D02*
Y210211D01*
X268701Y203150D02*
X274606D01*
X268701Y206299D02*
X274606D01*
Y203175D02*
Y206324D01*
X268701Y203175D02*
Y206324D01*
Y214961D02*
X274606D01*
X268701Y218110D02*
X274606D01*
Y214986D02*
Y218135D01*
X268701Y214986D02*
Y218135D01*
Y210236D02*
X274606D01*
X268701Y207087D02*
X274606D01*
X268701Y207061D02*
Y210211D01*
X274606Y207061D02*
Y210211D01*
X409055Y461614D02*
Y467520D01*
X405905Y461614D02*
Y467520D01*
X405880D02*
X409030D01*
X405880Y461614D02*
X409030D01*
X444488D02*
Y467520D01*
X441339Y461614D02*
Y467520D01*
X441313D02*
X444463D01*
X441313Y461614D02*
X444463D01*
X371063Y406201D02*
X376969D01*
X371063Y409350D02*
X376969D01*
Y406226D02*
Y409376D01*
X371063Y406226D02*
Y409376D01*
X331693Y409350D02*
X337598D01*
X331693Y406201D02*
X337598D01*
X331693Y406176D02*
Y409325D01*
X337598Y406176D02*
Y409325D01*
X577756Y341354D02*
Y344504D01*
X571850Y341354D02*
Y344504D01*
Y341379D02*
X577756D01*
X571850Y344529D02*
X577756D01*
Y346276D02*
Y349425D01*
X571850Y346276D02*
Y349425D01*
Y346301D02*
X577756D01*
X571850Y349450D02*
X577756D01*
Y351197D02*
Y354346D01*
X571850Y351197D02*
Y354346D01*
Y351222D02*
X577756D01*
X571850Y354372D02*
X577756D01*
Y215370D02*
Y218520D01*
X571850Y215370D02*
Y218520D01*
Y215395D02*
X577756D01*
X571850Y218545D02*
X577756D01*
Y220291D02*
Y223441D01*
X571850Y220291D02*
Y223441D01*
Y220317D02*
X577756D01*
X571850Y223466D02*
X577756D01*
Y225213D02*
Y228362D01*
X571850Y225213D02*
Y228362D01*
Y225238D02*
X577756D01*
X571850Y228387D02*
X577756D01*
X205709Y402953D02*
X211614D01*
X205709Y406102D02*
X211614D01*
Y402978D02*
Y406128D01*
X205709Y402978D02*
Y406128D01*
X182087Y411024D02*
X187992D01*
X182087Y407874D02*
X187992D01*
X182087Y407849D02*
Y410998D01*
X187992Y407849D02*
Y410998D01*
X182087Y415945D02*
X187992D01*
X182087Y412795D02*
X187992D01*
X182087Y412770D02*
Y415920D01*
X187992Y412770D02*
Y415920D01*
X577756Y408284D02*
Y411433D01*
X571850Y408284D02*
Y411433D01*
Y408309D02*
X577756D01*
X571850Y411458D02*
X577756D01*
Y413205D02*
Y416354D01*
X571850Y413205D02*
Y416354D01*
Y413230D02*
X577756D01*
X571850Y416379D02*
X577756D01*
Y418126D02*
Y421276D01*
X571850Y418126D02*
Y421276D01*
Y418151D02*
X577756D01*
X571850Y421301D02*
X577756D01*
X67447Y329625D02*
X73353D01*
X67447Y332775D02*
X73353D01*
Y329650D02*
Y332800D01*
X67447Y329650D02*
Y332800D01*
X44775Y331747D02*
Y337653D01*
X41625Y331747D02*
Y337653D01*
X41600Y331747D02*
X44750D01*
X41600Y337653D02*
X44750D01*
X91535Y322378D02*
X97441D01*
X91535Y325528D02*
X97441D01*
Y322403D02*
Y325553D01*
X91535Y322403D02*
Y325553D01*
X44882Y304134D02*
Y310039D01*
X41732Y304134D02*
Y310039D01*
X41707Y304134D02*
X44857D01*
X41707Y310039D02*
X44857D01*
X331693Y354921D02*
X337598D01*
X331693Y351772D02*
X337598D01*
X331693Y351747D02*
Y354896D01*
X337598Y351747D02*
Y354896D01*
X205709Y380315D02*
X211614D01*
X205709Y383465D02*
X211614D01*
Y380340D02*
Y383490D01*
X205709Y380340D02*
Y383490D01*
Y384252D02*
X211614D01*
X205709Y387402D02*
X211614D01*
Y384277D02*
Y387427D01*
X205709Y384277D02*
Y387427D01*
X182087Y384252D02*
X187992D01*
X182087Y387402D02*
X187992D01*
Y384277D02*
Y387427D01*
X182087Y384277D02*
Y387427D01*
Y388189D02*
X187992D01*
X182087Y391339D02*
X187992D01*
Y388214D02*
Y391364D01*
X182087Y388214D02*
Y391364D01*
X571850Y286516D02*
X577756D01*
X571850Y283366D02*
X577756D01*
X571850Y283341D02*
Y286491D01*
X577756Y283341D02*
Y286491D01*
X371063Y305906D02*
X376969D01*
X371063Y309055D02*
X376969D01*
Y305931D02*
Y309080D01*
X371063Y305931D02*
Y309080D01*
X331693Y309055D02*
X337598D01*
X331693Y305906D02*
X337598D01*
X331693Y305880D02*
Y309030D01*
X337598Y305880D02*
Y309030D01*
X331693Y298819D02*
X337598D01*
X331693Y295669D02*
X337598D01*
X331693Y295644D02*
Y298794D01*
X337598Y295644D02*
Y298794D01*
X331693Y293701D02*
X337598D01*
X331693Y290551D02*
X337598D01*
X331693Y290526D02*
Y293676D01*
X337598Y290526D02*
Y293676D01*
X177559Y98445D02*
Y104350D01*
X180709Y98445D02*
Y104350D01*
X177584D02*
X180734D01*
X177584Y98445D02*
X180734D01*
X177559Y98444D02*
Y104350D01*
X180709Y98444D02*
Y104350D01*
X177584Y98444D02*
X180734D01*
X177584Y104350D02*
X180734D01*
X186024Y553569D02*
Y556718D01*
X191929Y553569D02*
Y556718D01*
X186024Y556693D02*
X191929D01*
X186024Y553543D02*
X191929D01*
X186024Y525984D02*
X191929D01*
X186024Y529134D02*
X191929D01*
Y526010D02*
Y529159D01*
X186024Y526010D02*
Y529159D01*
Y498450D02*
Y501600D01*
X191929Y498450D02*
Y501600D01*
X186024Y501575D02*
X191929D01*
X186024Y498425D02*
X191929D01*
X189961Y211024D02*
X195866D01*
X189961Y214173D02*
X195866D01*
Y211049D02*
Y214198D01*
X189961Y211049D02*
Y214198D01*
X229331Y211049D02*
Y214198D01*
X235236Y211049D02*
Y214198D01*
X229331Y214173D02*
X235236D01*
X229331Y211024D02*
X235236D01*
X268701D02*
X274606D01*
X268701Y214173D02*
X274606D01*
Y211049D02*
Y214198D01*
X268701Y211049D02*
Y214198D01*
X571850Y341379D02*
X577756D01*
X571850Y344529D02*
X577756D01*
X571850Y341405D02*
Y344554D01*
X577756Y341405D02*
Y344554D01*
X571850Y346301D02*
X577756D01*
X571850Y349450D02*
X577756D01*
X571850Y346326D02*
Y349476D01*
X577756Y346326D02*
Y349476D01*
X571850Y351222D02*
X577756D01*
X571850Y354372D02*
X577756D01*
X571850Y351247D02*
Y354397D01*
X577756Y351247D02*
Y354397D01*
X571850Y215395D02*
X577756D01*
X571850Y218545D02*
X577756D01*
X571850Y215421D02*
Y218570D01*
X577756Y215421D02*
Y218570D01*
X571850Y220317D02*
X577756D01*
X571850Y223466D02*
X577756D01*
X571850Y220342D02*
Y223491D01*
X577756Y220342D02*
Y223491D01*
X571850Y225238D02*
X577756D01*
X571850Y228387D02*
X577756D01*
X571850Y225263D02*
Y228413D01*
X577756Y225263D02*
Y228413D01*
X571850Y408309D02*
X577756D01*
X571850Y411458D02*
X577756D01*
X571850Y408334D02*
Y411483D01*
X577756Y408334D02*
Y411483D01*
X571850Y413230D02*
X577756D01*
X571850Y416379D02*
X577756D01*
X571850Y413255D02*
Y416405D01*
X577756Y413255D02*
Y416405D01*
X571850Y418151D02*
X577756D01*
X571850Y421301D02*
X577756D01*
X571850Y418176D02*
Y421326D01*
X577756Y418176D02*
Y421326D01*
X362598Y115157D02*
Y121063D01*
X365748Y115157D02*
Y121063D01*
X362624Y115157D02*
X365773D01*
X362624Y121063D02*
X365773D01*
X382283Y106614D02*
Y112520D01*
X385433Y106614D02*
Y112520D01*
X382309Y106614D02*
X385458D01*
X382309Y112520D02*
X385458D01*
X344882Y71850D02*
Y77756D01*
X348031Y71850D02*
Y77756D01*
X344907Y71850D02*
X348057D01*
X344907Y77756D02*
X348057D01*
X351969Y40354D02*
Y46260D01*
X348819Y40354D02*
Y46260D01*
X348794D02*
X351943D01*
X348794Y40354D02*
X351943D01*
X348031D02*
Y46260D01*
X344882Y40354D02*
Y46260D01*
X344857D02*
X348006D01*
X344857Y40354D02*
X348006D01*
X331004Y71850D02*
Y77756D01*
X327854Y71850D02*
Y77756D01*
X327829D02*
X330979D01*
X327829Y71850D02*
X330979D01*
X262205Y40354D02*
Y46260D01*
X265354Y40354D02*
Y46260D01*
X262230Y40354D02*
X265380D01*
X262230Y46260D02*
X265380D01*
X265945Y40354D02*
Y46260D01*
X269094Y40354D02*
Y46260D01*
X265970Y40354D02*
X269120D01*
X265970Y46260D02*
X269120D01*
X273228Y71850D02*
Y77756D01*
X270079Y71850D02*
Y77756D01*
X270054D02*
X273203D01*
X270054Y71850D02*
X273203D01*
X261417D02*
Y77756D01*
X258268Y71850D02*
Y77756D01*
X258243D02*
X261392D01*
X258243Y71850D02*
X261392D01*
X245079Y135433D02*
X250984D01*
X245079Y132283D02*
X250984D01*
X245079Y132258D02*
Y135408D01*
X250984Y132258D02*
Y135408D01*
X245079Y139370D02*
X250984D01*
X245079Y136221D02*
X250984D01*
X245079Y136195D02*
Y139345D01*
X250984Y136195D02*
Y139345D01*
X276575Y136221D02*
X282480D01*
X276575Y139370D02*
X282480D01*
Y136246D02*
Y139395D01*
X276575Y136246D02*
Y139395D01*
X339567Y139370D02*
X345472D01*
X339567Y136221D02*
X345472D01*
X339567Y136195D02*
Y139345D01*
X345472Y136195D02*
Y139345D01*
X339567Y135433D02*
X345472D01*
X339567Y132283D02*
X345472D01*
X339567Y132258D02*
Y135408D01*
X345472Y132258D02*
Y135408D01*
X339567Y128347D02*
X345472D01*
X339567Y131496D02*
X345472D01*
Y128372D02*
Y131521D01*
X339567Y128372D02*
Y131521D01*
X204331Y581772D02*
Y587677D01*
X201181Y581772D02*
Y587677D01*
X201156D02*
X204306D01*
X201156Y581772D02*
X204306D01*
X181496Y574291D02*
Y580197D01*
X184646Y574291D02*
Y580197D01*
X181521Y574291D02*
X184671D01*
X181521Y580197D02*
X184671D01*
X335906Y477953D02*
X341811D01*
X335906Y474803D02*
X341811D01*
X335906Y474778D02*
Y477928D01*
X341811Y474778D02*
Y477928D01*
X260236Y562677D02*
Y568583D01*
X263386Y562677D02*
Y568583D01*
X260261Y562677D02*
X263411D01*
X260261Y568583D02*
X263411D01*
X304134Y474803D02*
X310039D01*
X304134Y477953D02*
X310039D01*
Y474828D02*
Y477978D01*
X304134Y474828D02*
Y477978D01*
X193898Y557480D02*
X199803D01*
X193898Y560630D02*
X199803D01*
Y557506D02*
Y560655D01*
X193898Y557506D02*
Y560655D01*
Y529921D02*
X199803D01*
X193898Y533071D02*
X199803D01*
Y529947D02*
Y533096D01*
X193898Y529947D02*
Y533096D01*
Y502362D02*
X199803D01*
X193898Y505512D02*
X199803D01*
Y502387D02*
Y505537D01*
X193898Y502387D02*
Y505537D01*
Y545669D02*
X199803D01*
X193898Y548819D02*
X199803D01*
Y545694D02*
Y548844D01*
X193898Y545694D02*
Y548844D01*
Y518110D02*
X199803D01*
X193898Y521260D02*
X199803D01*
Y518135D02*
Y521285D01*
X193898Y518135D02*
Y521285D01*
Y490551D02*
X199803D01*
X193898Y493701D02*
X199803D01*
Y490576D02*
Y493726D01*
X193898Y490576D02*
Y493726D01*
X331693Y245669D02*
X337598D01*
X331693Y248819D02*
X337598D01*
Y245694D02*
Y248844D01*
X331693Y245694D02*
Y248844D01*
Y235433D02*
X337598D01*
X331693Y238583D02*
X337598D01*
Y235458D02*
Y238608D01*
X331693Y235458D02*
Y238608D01*
X371063Y243701D02*
X376969D01*
X371063Y240551D02*
X376969D01*
X371063Y240526D02*
Y243676D01*
X376969Y240526D02*
Y243676D01*
X371063Y253937D02*
X376969D01*
X371063Y250787D02*
X376969D01*
X371063Y250762D02*
Y253912D01*
X376969Y250762D02*
Y253912D01*
X371063Y278346D02*
X376969D01*
X371063Y281496D02*
X376969D01*
Y278372D02*
Y281521D01*
X371063Y278372D02*
Y281521D01*
Y273228D02*
X376969D01*
X371063Y276378D02*
X376969D01*
Y273253D02*
Y276403D01*
X371063Y273253D02*
Y276403D01*
Y268110D02*
X376969D01*
X371063Y271260D02*
X376969D01*
Y268135D02*
Y271285D01*
X371063Y268135D02*
Y271285D01*
Y262992D02*
X376969D01*
X371063Y266142D02*
X376969D01*
Y263017D02*
Y266167D01*
X371063Y263017D02*
Y266167D01*
X331693Y266142D02*
X337598D01*
X331693Y262992D02*
X337598D01*
X331693Y262967D02*
Y266116D01*
X337598Y262967D02*
Y266116D01*
X331693Y271260D02*
X337598D01*
X331693Y268110D02*
X337598D01*
X331693Y268085D02*
Y271235D01*
X337598Y268085D02*
Y271235D01*
X331693Y276378D02*
X337598D01*
X331693Y273228D02*
X337598D01*
X331693Y273203D02*
Y276353D01*
X337598Y273203D02*
Y276353D01*
X331693Y281496D02*
X337598D01*
X331693Y278346D02*
X337598D01*
X331693Y278321D02*
Y281471D01*
X337598Y278321D02*
Y281471D01*
X233858Y548228D02*
Y554134D01*
X230709Y548228D02*
Y554134D01*
X230683D02*
X233833D01*
X230683Y548228D02*
X233833D01*
X230709Y595472D02*
Y601378D01*
X233858Y595472D02*
Y601378D01*
X230734Y595472D02*
X233884D01*
X230734Y601378D02*
X233884D01*
X246457Y548228D02*
Y554134D01*
X249606Y548228D02*
Y554134D01*
X246482Y548228D02*
X249632D01*
X246482Y554134D02*
X249632D01*
X288214Y424213D02*
X291364D01*
X288214Y418307D02*
X291364D01*
X291339D02*
Y424213D01*
X288189Y418307D02*
Y424213D01*
X187992Y254502D02*
Y257652D01*
X182087Y254502D02*
Y257652D01*
Y254528D02*
X187992D01*
X182087Y257677D02*
X187992D01*
X205709Y254553D02*
Y257702D01*
X211614Y254553D02*
Y257702D01*
X205709Y257677D02*
X211614D01*
X205709Y254528D02*
X211614D01*
X205709Y242545D02*
Y245694D01*
X211614Y242545D02*
Y245694D01*
X205709Y245669D02*
X211614D01*
X205709Y242520D02*
X211614D01*
X187992Y238754D02*
Y241904D01*
X182087Y238754D02*
Y241904D01*
Y238779D02*
X187992D01*
X182087Y241929D02*
X187992D01*
X277928Y298228D02*
X281077D01*
X277928Y304134D02*
X281077D01*
X277953Y298228D02*
Y304134D01*
X281102Y298228D02*
Y304134D01*
X250984Y324010D02*
Y327160D01*
X245079Y324010D02*
Y327160D01*
Y324035D02*
X250984D01*
X245079Y327185D02*
X250984D01*
Y341333D02*
Y344483D01*
X245079Y341333D02*
Y344483D01*
Y341358D02*
X250984D01*
X245079Y344508D02*
X250984D01*
Y332672D02*
Y335821D01*
X245079Y332672D02*
Y335821D01*
Y332697D02*
X250984D01*
X245079Y335846D02*
X250984D01*
X245079Y319730D02*
Y322880D01*
X250984Y319730D02*
Y322880D01*
X245079Y322854D02*
X250984D01*
X245079Y319705D02*
X250984D01*
X245079Y345714D02*
Y348864D01*
X250984Y345714D02*
Y348864D01*
X245079Y348839D02*
X250984D01*
X245079Y345689D02*
X250984D01*
X245079Y328391D02*
Y331541D01*
X250984Y328391D02*
Y331541D01*
X245079Y331516D02*
X250984D01*
X245079Y328366D02*
X250984D01*
X281968Y277953D02*
X287874D01*
X281968Y281102D02*
X287874D01*
Y277978D02*
Y281128D01*
X281968Y277978D02*
Y281128D01*
X197835Y214961D02*
X203740D01*
X197835Y218110D02*
X203740D01*
Y214986D02*
Y218135D01*
X197835Y214986D02*
Y218135D01*
X237205Y214961D02*
X243110D01*
X237205Y218110D02*
X243110D01*
Y214986D02*
Y218135D01*
X237205Y214986D02*
Y218135D01*
X276575Y214961D02*
X282480D01*
X276575Y218110D02*
X282480D01*
Y214986D02*
Y218135D01*
X276575Y214986D02*
Y218135D01*
X197835Y203150D02*
X203740D01*
X197835Y206299D02*
X203740D01*
Y203175D02*
Y206324D01*
X197835Y203175D02*
Y206324D01*
X237205Y203150D02*
X243110D01*
X237205Y206299D02*
X243110D01*
Y203175D02*
Y206324D01*
X237205Y203175D02*
Y206324D01*
X276575Y203150D02*
X282480D01*
X276575Y206299D02*
X282480D01*
Y203175D02*
Y206324D01*
X276575Y203175D02*
Y206324D01*
X405118Y461614D02*
Y467520D01*
X401968Y461614D02*
Y467520D01*
X401943D02*
X405093D01*
X401943Y461614D02*
X405093D01*
X440551D02*
Y467520D01*
X437402Y461614D02*
Y467520D01*
X437376D02*
X440526D01*
X437376Y461614D02*
X440526D01*
X409842D02*
Y467520D01*
X412992Y461614D02*
Y467520D01*
X409868Y461614D02*
X413017D01*
X409868Y467520D02*
X413017D01*
X445276Y461614D02*
Y467520D01*
X448425Y461614D02*
Y467520D01*
X445301Y461614D02*
X448450D01*
X445301Y467520D02*
X448450D01*
X294488Y418307D02*
Y424213D01*
X297638Y418307D02*
Y424213D01*
X294513Y418307D02*
X297663D01*
X294513Y424213D02*
X297663D01*
X291339Y418307D02*
Y424213D01*
X294488Y418307D02*
Y424213D01*
X291364Y418307D02*
X294513D01*
X291364Y424213D02*
X294513D01*
X571850Y356143D02*
X577756D01*
X571850Y359293D02*
X577756D01*
X571850Y356169D02*
Y359318D01*
X577756Y356169D02*
Y359318D01*
X571850Y361065D02*
X577756D01*
X571850Y364214D02*
X577756D01*
X571850Y361090D02*
Y364239D01*
X577756Y361090D02*
Y364239D01*
X571850Y230159D02*
X577756D01*
X571850Y233309D02*
X577756D01*
X571850Y230184D02*
Y233334D01*
X577756Y230184D02*
Y233334D01*
X571850Y235080D02*
X577756D01*
X571850Y238230D02*
X577756D01*
X571850Y235105D02*
Y238255D01*
X577756Y235105D02*
Y238255D01*
X205709Y415945D02*
X211614D01*
X205709Y412795D02*
X211614D01*
X205709Y412770D02*
Y415920D01*
X211614Y412770D02*
Y415920D01*
X205709Y411024D02*
X211614D01*
X205709Y407874D02*
X211614D01*
X205709Y407849D02*
Y410998D01*
X211614Y407849D02*
Y410998D01*
X91535Y317653D02*
X97441D01*
X91535Y314504D02*
X97441D01*
X91535Y314479D02*
Y317628D01*
X97441Y314479D02*
Y317628D01*
X91535Y321590D02*
X97441D01*
X91535Y318441D02*
X97441D01*
X91535Y318416D02*
Y321565D01*
X97441Y318416D02*
Y321565D01*
X571850Y423072D02*
X577756D01*
X571850Y426222D02*
X577756D01*
X571850Y423098D02*
Y426247D01*
X577756Y423098D02*
Y426247D01*
X571850Y427994D02*
X577756D01*
X571850Y431143D02*
X577756D01*
X571850Y428019D02*
Y431169D01*
X577756Y428019D02*
Y431169D01*
X331693Y359671D02*
Y362821D01*
X337598Y359671D02*
Y362821D01*
X331693Y362795D02*
X337598D01*
X331693Y359646D02*
X337598D01*
X331693Y355734D02*
Y358884D01*
X337598Y355734D02*
Y358884D01*
X331693Y358858D02*
X337598D01*
X331693Y355709D02*
X337598D01*
X182087Y380340D02*
Y383490D01*
X187992Y380340D02*
Y383490D01*
X182087Y383465D02*
X187992D01*
X182087Y380315D02*
X187992D01*
X182087Y376403D02*
Y379553D01*
X187992Y376403D02*
Y379553D01*
X182087Y379528D02*
X187992D01*
X182087Y376378D02*
X187992D01*
X327829Y40354D02*
X330979D01*
X327829Y46260D02*
X330979D01*
X327854Y40354D02*
Y46260D01*
X331004Y40354D02*
Y46260D01*
X332947Y40354D02*
X336097D01*
X332947Y46260D02*
X336097D01*
X332972Y40354D02*
Y46260D01*
X336122Y40354D02*
Y46260D01*
X331693Y401083D02*
X337598D01*
X331693Y404232D02*
X337598D01*
Y401108D02*
Y404257D01*
X331693Y401108D02*
Y404257D01*
X182087Y403150D02*
X187992D01*
X182087Y400000D02*
X187992D01*
X182087Y399975D02*
Y403124D01*
X187992Y399975D02*
Y403124D01*
X331693Y303937D02*
X337598D01*
X331693Y300787D02*
X337598D01*
X331693Y300762D02*
Y303912D01*
X337598Y300762D02*
Y303912D01*
X371063Y284449D02*
X376969D01*
X371063Y287598D02*
X376969D01*
Y284474D02*
Y287624D01*
X371063Y284474D02*
Y287624D01*
X331693Y287598D02*
X337598D01*
X331693Y284449D02*
X337598D01*
X331693Y284424D02*
Y287573D01*
X337598Y284424D02*
Y287573D01*
X220891Y573110D02*
X224041D01*
X220891Y567205D02*
X224041D01*
X224016D02*
Y573110D01*
X220866Y567205D02*
Y573110D01*
X224778Y576496D02*
X227928D01*
X224778Y582402D02*
X227928D01*
X224803Y576496D02*
Y582402D01*
X227953Y576496D02*
Y582402D01*
X308661Y605039D02*
Y610945D01*
X305512Y605039D02*
Y610945D01*
X305487D02*
X308636D01*
X305487Y605039D02*
X308636D01*
X292913D02*
Y610945D01*
X289764Y605039D02*
Y610945D01*
X289739D02*
X292888D01*
X289739Y605039D02*
X292888D01*
X309424D02*
X312573D01*
X309424Y610945D02*
X312573D01*
X309449Y605039D02*
Y610945D01*
X312598Y605039D02*
Y610945D01*
X296260Y607874D02*
X302165D01*
X296260Y604724D02*
X302165D01*
X296260Y604699D02*
Y607849D01*
X302165Y604699D02*
Y607849D01*
X430118Y616161D02*
X436024D01*
X430118Y619311D02*
X436024D01*
Y616187D02*
Y619336D01*
X430118Y616187D02*
Y619336D01*
Y620098D02*
X436024D01*
X430118Y623248D02*
X436024D01*
Y620124D02*
Y623273D01*
X430118Y620124D02*
Y623273D01*
Y611161D02*
X436024D01*
X430118Y614311D02*
X436024D01*
Y611187D02*
Y614336D01*
X430118Y611187D02*
Y614336D01*
Y606161D02*
X436024D01*
X430118Y609311D02*
X436024D01*
Y606187D02*
Y609336D01*
X430118Y606187D02*
Y609336D01*
X390748Y609375D02*
X396654D01*
X390748Y606225D02*
X396654D01*
X390748Y606200D02*
Y609350D01*
X396654Y606200D02*
Y609350D01*
X238608Y554134D02*
X241757D01*
X238608Y548228D02*
X241757D01*
X241732D02*
Y554134D01*
X238583Y548228D02*
Y554134D01*
M02*
