%TF.GenerationSoftware,Altium Limited,Altium Designer,23.3.1 (30)*%
G04 Layer_Color=8388736*
%FSLAX26Y26*%
%MOIN*%
%TF.SameCoordinates,8EB50123-24BD-4293-BAC2-458A60E0733E*%
%TF.FilePolarity,Negative*%
%TF.FileFunction,Soldermask,Top*%
%TF.Part,Single*%
G01*
G75*
%TA.AperFunction,ViaPad*%
%ADD19C,0.197638*%
%TA.AperFunction,BGAPad,CuDef*%
%ADD22C,0.012598*%
%TA.AperFunction,ConnectorPad*%
%ADD23R,0.079528X0.118898*%
%ADD24R,0.030315X0.059843*%
%TA.AperFunction,SMDPad,CuDef*%
%ADD25R,0.019291X0.021260*%
G36*
X103778Y2125984D02*
X113977D01*
Y2123435D01*
X134374D01*
Y2125984D01*
X159872D01*
Y2123435D01*
X185369D01*
Y2120885D01*
X200667D01*
Y2118335D01*
X210866D01*
Y2115785D01*
X213415D01*
Y2113236D01*
X218515D01*
Y2110686D01*
X223614D01*
Y2108136D01*
X226164D01*
Y2105586D01*
X228714D01*
Y2103037D01*
X231263D01*
Y2100487D01*
X233813D01*
Y2097937D01*
X236363D01*
Y2095388D01*
X238913D01*
Y2092838D01*
Y2090288D01*
X236363D01*
Y2087738D01*
Y2085189D01*
X238913D01*
Y2087738D01*
X241462D01*
Y2090288D01*
X244012D01*
Y2087738D01*
Y2085189D01*
X246561D01*
Y2082639D01*
Y2080090D01*
X251661D01*
Y2077540D01*
X249111D01*
Y2074990D01*
X254211D01*
Y2072440D01*
X256760D01*
Y2069890D01*
Y2067341D01*
Y2064791D01*
X259310D01*
Y2062242D01*
X261860D01*
Y2059692D01*
Y2057142D01*
X264409D01*
Y2054592D01*
Y2052043D01*
Y2049493D01*
X266959D01*
Y2046943D01*
Y2044393D01*
X269509D01*
Y2041844D01*
Y2039294D01*
X272059D01*
Y2036744D01*
Y2034195D01*
X274608D01*
Y2031645D01*
X277158D01*
Y2029095D01*
Y2026545D01*
X279708D01*
Y2023996D01*
Y2021446D01*
X282257D01*
Y2018896D01*
X284807D01*
Y2016347D01*
X282257D01*
Y2013797D01*
X284807D01*
Y2011247D01*
X287357D01*
Y2008697D01*
Y2006148D01*
Y2003598D01*
X289907D01*
Y2001049D01*
Y1998499D01*
Y1995949D01*
X292456D01*
Y1993399D01*
Y1990850D01*
Y1988300D01*
Y1985750D01*
Y1983201D01*
X295006D01*
Y1980651D01*
Y1978101D01*
X328153D01*
Y1975551D01*
X325603D01*
Y1973002D01*
X320503D01*
Y1970452D01*
X310304D01*
Y1967902D01*
X325603D01*
Y1965352D01*
X323053D01*
Y1962803D01*
X320503D01*
Y1965352D01*
X317954D01*
Y1962803D01*
X315404D01*
Y1960253D01*
X297556D01*
Y1957703D01*
Y1955154D01*
Y1952604D01*
Y1950054D01*
Y1947504D01*
Y1944955D01*
Y1942405D01*
Y1939855D01*
Y1937306D01*
Y1934756D01*
X295006D01*
Y1932206D01*
Y1929656D01*
Y1927107D01*
Y1924557D01*
X292456D01*
Y1922007D01*
X289907D01*
Y1919458D01*
X292456D01*
Y1916908D01*
X289907D01*
Y1914358D01*
X287357D01*
Y1911809D01*
X284807D01*
Y1909259D01*
X287357D01*
Y1906709D01*
X284807D01*
Y1904160D01*
Y1901610D01*
X282257D01*
Y1904160D01*
X279708D01*
Y1901610D01*
X282257D01*
Y1899060D01*
Y1896510D01*
X279708D01*
Y1893961D01*
X277158D01*
Y1891411D01*
Y1888861D01*
X274608D01*
Y1886311D01*
X269509D01*
Y1883762D01*
Y1881212D01*
X264409D01*
Y1878662D01*
X261860D01*
Y1876113D01*
X256760D01*
Y1873563D01*
X249111D01*
Y1871013D01*
X236363D01*
Y1873563D01*
X228714D01*
Y1876113D01*
X223614D01*
Y1878662D01*
X221064D01*
Y1881212D01*
X218515D01*
Y1883762D01*
X215965D01*
Y1886311D01*
Y1888861D01*
Y1891411D01*
X213415D01*
Y1893961D01*
Y1896510D01*
X210866D01*
Y1899060D01*
Y1901610D01*
Y1904160D01*
Y1906709D01*
X213415D01*
Y1909259D01*
X215965D01*
Y1911809D01*
X213415D01*
Y1914358D01*
X215965D01*
Y1916908D01*
Y1919458D01*
X218515D01*
Y1922007D01*
X221064D01*
Y1924557D01*
X223614D01*
Y1927107D01*
X231263D01*
Y1924557D01*
X233813D01*
Y1922007D01*
Y1919458D01*
X231263D01*
Y1916908D01*
X233813D01*
Y1914358D01*
Y1911809D01*
X231263D01*
Y1909259D01*
X228714D01*
Y1906709D01*
Y1904160D01*
Y1901610D01*
X231263D01*
Y1899060D01*
X236363D01*
Y1896510D01*
X244012D01*
Y1899060D01*
X249111D01*
Y1901610D01*
X251661D01*
Y1904160D01*
X254211D01*
Y1906709D01*
Y1909259D01*
Y1911809D01*
X256760D01*
Y1914358D01*
X259310D01*
Y1916908D01*
X256760D01*
Y1919458D01*
X259310D01*
Y1922007D01*
Y1924557D01*
Y1927107D01*
Y1929656D01*
Y1932206D01*
Y1934756D01*
Y1937306D01*
Y1939855D01*
Y1942405D01*
Y1944955D01*
Y1947504D01*
Y1950054D01*
X261860D01*
Y1952604D01*
X259310D01*
Y1955154D01*
Y1957703D01*
X256760D01*
Y1960253D01*
Y1962803D01*
X254211D01*
Y1965352D01*
Y1967902D01*
Y1970452D01*
X251661D01*
Y1973002D01*
Y1975551D01*
X249111D01*
Y1978101D01*
Y1980651D01*
X246561D01*
Y1983201D01*
X231263D01*
Y1980651D01*
X223614D01*
Y1983201D01*
X221064D01*
Y1985750D01*
X215965D01*
Y1988300D01*
X213415D01*
Y1990850D01*
X208316D01*
Y1993399D01*
X190468D01*
Y1990850D01*
X187918D01*
Y1988300D01*
X182819D01*
Y1985750D01*
Y1983201D01*
X175170D01*
Y1980651D01*
Y1978101D01*
X170070D01*
Y1975551D01*
X164971D01*
Y1978101D01*
X162421D01*
Y1975551D01*
X157322D01*
Y1978101D01*
X152222D01*
Y1980651D01*
X147123D01*
Y1983201D01*
X142023D01*
Y1985750D01*
Y1988300D01*
X139474D01*
Y1985750D01*
X136924D01*
Y1988300D01*
X134374D01*
Y1990850D01*
X131825D01*
Y1993399D01*
Y1995949D01*
X134374D01*
Y1998499D01*
X129275D01*
Y1995949D01*
Y1993399D01*
X126725D01*
Y1995949D01*
X124175D01*
Y1998499D01*
X121626D01*
Y2001049D01*
X119076D01*
Y2003598D01*
X116526D01*
Y2006148D01*
X113977D01*
Y2008697D01*
X111427D01*
Y2011247D01*
X108877D01*
Y2013797D01*
Y2016347D01*
X106328D01*
Y2018896D01*
X103778D01*
Y2021446D01*
X101228D01*
Y2023996D01*
Y2026545D01*
X98679D01*
Y2029095D01*
X96129D01*
Y2031645D01*
Y2034195D01*
X93579D01*
Y2031645D01*
Y2029095D01*
X96129D01*
Y2026545D01*
Y2023996D01*
X98679D01*
Y2021446D01*
Y2018896D01*
X101228D01*
Y2016347D01*
X103778D01*
Y2013797D01*
X106328D01*
Y2011247D01*
Y2008697D01*
X108877D01*
Y2006148D01*
X111427D01*
Y2003598D01*
X113977D01*
Y2001049D01*
X116526D01*
Y1998499D01*
X119076D01*
Y1995949D01*
X124175D01*
Y1993399D01*
X126725D01*
Y1990850D01*
X129275D01*
Y1988300D01*
X131825D01*
Y1985750D01*
X136924D01*
Y1983201D01*
X139474D01*
Y1980651D01*
Y1978101D01*
X144573D01*
Y1975551D01*
Y1973002D01*
Y1970452D01*
Y1967902D01*
Y1965352D01*
Y1962803D01*
Y1960253D01*
Y1957703D01*
X147123D01*
Y1955154D01*
Y1952604D01*
Y1950054D01*
Y1947504D01*
Y1944955D01*
Y1942405D01*
Y1939855D01*
Y1937306D01*
X149673D01*
Y1934756D01*
X152222D01*
Y1932206D01*
Y1929656D01*
Y1927107D01*
X154772D01*
Y1924557D01*
Y1922007D01*
X157322D01*
Y1919458D01*
Y1916908D01*
Y1914358D01*
Y1911809D01*
Y1909259D01*
X159872D01*
Y1906709D01*
Y1904160D01*
Y1901610D01*
X162421D01*
Y1899060D01*
Y1896510D01*
X159872D01*
Y1893961D01*
X162421D01*
Y1891411D01*
X164971D01*
Y1888861D01*
Y1886311D01*
X162421D01*
Y1883762D01*
X164971D01*
Y1881212D01*
Y1878662D01*
X167521D01*
Y1876113D01*
Y1873563D01*
Y1871013D01*
X170070D01*
Y1868463D01*
Y1865914D01*
Y1863364D01*
Y1860814D01*
X172620D01*
Y1858265D01*
Y1855715D01*
Y1853165D01*
X175170D01*
Y1850615D01*
X172620D01*
Y1848066D01*
X175170D01*
Y1845516D01*
X177720D01*
Y1842966D01*
Y1840417D01*
Y1837867D01*
X180269D01*
Y1835317D01*
Y1832767D01*
Y1830218D01*
X182819D01*
Y1827668D01*
X180269D01*
Y1825118D01*
X182819D01*
Y1822569D01*
Y1820019D01*
X185369D01*
Y1817469D01*
X182819D01*
Y1814920D01*
X185369D01*
Y1812370D01*
Y1809820D01*
Y1807270D01*
Y1804721D01*
Y1802171D01*
X187918D01*
Y1799621D01*
Y1797072D01*
Y1794522D01*
X190468D01*
Y1791972D01*
Y1789422D01*
X193018D01*
Y1786873D01*
Y1784323D01*
X195567D01*
Y1781773D01*
Y1779224D01*
X198117D01*
Y1776674D01*
X200667D01*
Y1774124D01*
Y1771574D01*
X203216D01*
Y1769025D01*
X205766D01*
Y1766475D01*
X208316D01*
Y1763926D01*
Y1761376D01*
X205766D01*
Y1758826D01*
X198117D01*
Y1756276D01*
X175170D01*
Y1753726D01*
X172620D01*
Y1756276D01*
X154772D01*
Y1758826D01*
Y1761376D01*
X152222D01*
Y1763926D01*
Y1766475D01*
Y1769025D01*
Y1771574D01*
X154772D01*
Y1774124D01*
Y1776674D01*
X157322D01*
Y1779224D01*
X159872D01*
Y1781773D01*
Y1784323D01*
X157322D01*
Y1786873D01*
Y1789422D01*
Y1791972D01*
X154772D01*
Y1794522D01*
Y1797072D01*
Y1799621D01*
X152222D01*
Y1802171D01*
Y1804721D01*
Y1807270D01*
X149673D01*
Y1809820D01*
Y1812370D01*
X147123D01*
Y1814920D01*
Y1817469D01*
X144573D01*
Y1820019D01*
Y1822569D01*
X142023D01*
Y1825118D01*
Y1827668D01*
X139474D01*
Y1830218D01*
X136924D01*
Y1832767D01*
Y1835317D01*
X134374D01*
Y1837867D01*
X136924D01*
Y1840417D01*
X131825D01*
Y1842966D01*
Y1845516D01*
Y1848066D01*
X126725D01*
Y1850615D01*
Y1853165D01*
X124175D01*
Y1855715D01*
Y1858265D01*
X121626D01*
Y1860814D01*
X119076D01*
Y1863364D01*
X124175D01*
Y1865914D01*
X116526D01*
Y1868463D01*
X113977D01*
Y1871013D01*
Y1873563D01*
X111427D01*
Y1876113D01*
X108877D01*
Y1878662D01*
X106328D01*
Y1881212D01*
X103778D01*
Y1883762D01*
X101228D01*
Y1886311D01*
X98679D01*
Y1888861D01*
X96129D01*
Y1891411D01*
X93579D01*
Y1893961D01*
X91029D01*
Y1896510D01*
X88480D01*
Y1899060D01*
X85930D01*
Y1901610D01*
Y1904160D01*
X83380D01*
Y1906709D01*
X80830D01*
Y1909259D01*
Y1911809D01*
X78281D01*
Y1914358D01*
X75731D01*
Y1916908D01*
Y1919458D01*
X73181D01*
Y1922007D01*
Y1924557D01*
X70632D01*
Y1927107D01*
Y1929656D01*
X68082D01*
Y1927107D01*
Y1924557D01*
X70632D01*
Y1922007D01*
Y1919458D01*
X73181D01*
Y1916908D01*
Y1914358D01*
X75731D01*
Y1911809D01*
Y1909259D01*
X78281D01*
Y1906709D01*
X80830D01*
Y1904160D01*
Y1901610D01*
X83380D01*
Y1899060D01*
X85930D01*
Y1896510D01*
Y1893961D01*
X88480D01*
Y1891411D01*
Y1888861D01*
Y1886311D01*
Y1883762D01*
X85930D01*
Y1881212D01*
Y1878662D01*
Y1876113D01*
X83380D01*
Y1873563D01*
Y1871013D01*
Y1868463D01*
X80830D01*
Y1865914D01*
Y1863364D01*
X78281D01*
Y1860814D01*
Y1858265D01*
Y1855715D01*
X75731D01*
Y1853165D01*
Y1850615D01*
Y1848066D01*
X73181D01*
Y1845516D01*
Y1842966D01*
Y1840417D01*
Y1837867D01*
X70632D01*
Y1835317D01*
Y1832767D01*
Y1830218D01*
Y1827668D01*
X68082D01*
Y1825118D01*
Y1822569D01*
Y1820019D01*
X65532D01*
Y1817469D01*
Y1814920D01*
X62982D01*
Y1812370D01*
Y1809820D01*
Y1807270D01*
X60433D01*
Y1804721D01*
Y1802171D01*
X57883D01*
Y1799621D01*
Y1797072D01*
Y1794522D01*
Y1791972D01*
Y1789422D01*
X55333D01*
Y1786873D01*
Y1784323D01*
X57883D01*
Y1781773D01*
Y1779224D01*
Y1776674D01*
X60433D01*
Y1774124D01*
X62982D01*
Y1771574D01*
X65532D01*
Y1769025D01*
X68082D01*
Y1766475D01*
X70632D01*
Y1763926D01*
Y1761376D01*
X73181D01*
Y1758826D01*
Y1756276D01*
Y1753726D01*
X68082D01*
Y1751177D01*
X34936D01*
Y1753726D01*
X27287D01*
Y1751177D01*
X14538D01*
Y1753726D01*
X11988D01*
Y1756276D01*
Y1758826D01*
Y1761376D01*
Y1763926D01*
X14538D01*
Y1766475D01*
Y1769025D01*
X17087D01*
Y1771574D01*
X22187D01*
Y1774124D01*
Y1776674D01*
Y1779224D01*
X24737D01*
Y1781773D01*
X22187D01*
Y1784323D01*
Y1786873D01*
Y1789422D01*
Y1791972D01*
Y1794522D01*
Y1797072D01*
Y1799621D01*
Y1802171D01*
Y1804721D01*
Y1807270D01*
Y1809820D01*
X24737D01*
Y1812370D01*
Y1814920D01*
Y1817469D01*
Y1820019D01*
Y1822569D01*
Y1825118D01*
Y1827668D01*
Y1830218D01*
X27287D01*
Y1832767D01*
Y1835317D01*
Y1837867D01*
Y1840417D01*
Y1842966D01*
X29836D01*
Y1845516D01*
Y1848066D01*
Y1850615D01*
Y1853165D01*
Y1855715D01*
Y1858265D01*
X32386D01*
Y1860814D01*
Y1863364D01*
Y1865914D01*
Y1868463D01*
Y1871013D01*
Y1873563D01*
Y1876113D01*
Y1878662D01*
Y1881212D01*
Y1883762D01*
Y1886311D01*
Y1888861D01*
X34936D01*
Y1891411D01*
X32386D01*
Y1893961D01*
Y1896510D01*
Y1899060D01*
Y1901610D01*
Y1904160D01*
Y1906709D01*
Y1909259D01*
Y1911809D01*
X29836D01*
Y1914358D01*
Y1916908D01*
Y1919458D01*
X24737D01*
Y1916908D01*
X19638D01*
Y1914358D01*
X14538D01*
Y1911809D01*
X9439D01*
Y1909259D01*
X1789D01*
Y1906709D01*
X-5860D01*
Y1904160D01*
X-18608D01*
Y1901610D01*
X-23708D01*
Y1904160D01*
X-31357D01*
Y1901610D01*
X-49205D01*
Y1904160D01*
X-51755D01*
Y1901610D01*
X-49205D01*
Y1899060D01*
X-54304D01*
Y1896510D01*
Y1893961D01*
X-56854D01*
Y1891411D01*
X-59404D01*
Y1888861D01*
X-61953D01*
Y1886311D01*
X-64503D01*
Y1883762D01*
X-67053D01*
Y1881212D01*
X-69602D01*
Y1878662D01*
X-72152D01*
Y1876113D01*
X-74702D01*
Y1873563D01*
Y1871013D01*
X-77252D01*
Y1868463D01*
Y1865914D01*
Y1863364D01*
X-79801D01*
Y1860814D01*
Y1858265D01*
X-82351D01*
Y1855715D01*
Y1853165D01*
Y1850615D01*
X-84901D01*
Y1848066D01*
Y1845516D01*
Y1842966D01*
Y1840417D01*
X-82351D01*
Y1837867D01*
Y1835317D01*
Y1832767D01*
Y1830218D01*
Y1827668D01*
Y1825118D01*
Y1822569D01*
Y1820019D01*
Y1817469D01*
Y1814920D01*
Y1812370D01*
Y1809820D01*
Y1807270D01*
Y1804721D01*
Y1802171D01*
Y1799621D01*
X-79801D01*
Y1797072D01*
Y1794522D01*
Y1791972D01*
X-77252D01*
Y1789422D01*
Y1786873D01*
X-74702D01*
Y1784323D01*
X-72152D01*
Y1781773D01*
X-69602D01*
Y1779224D01*
X-67053D01*
Y1776674D01*
X-64503D01*
Y1774124D01*
X-61953D01*
Y1771574D01*
X-59404D01*
Y1769025D01*
X-56854D01*
Y1766475D01*
Y1763926D01*
Y1761376D01*
X-59404D01*
Y1758826D01*
X-115497D01*
Y1761376D01*
X-120597D01*
Y1763926D01*
Y1766475D01*
Y1769025D01*
Y1771574D01*
Y1774124D01*
Y1776674D01*
Y1779224D01*
Y1781773D01*
Y1784323D01*
Y1786873D01*
Y1789422D01*
Y1791972D01*
Y1794522D01*
Y1797072D01*
X-118047D01*
Y1799621D01*
Y1802171D01*
Y1804721D01*
Y1807270D01*
Y1809820D01*
X-115497D01*
Y1812370D01*
Y1814920D01*
Y1817469D01*
Y1820019D01*
Y1822569D01*
Y1825118D01*
Y1827668D01*
Y1830218D01*
Y1832767D01*
Y1835317D01*
Y1837867D01*
Y1840417D01*
Y1842966D01*
Y1845516D01*
Y1848066D01*
Y1850615D01*
X-118047D01*
Y1853165D01*
Y1855715D01*
Y1858265D01*
Y1860814D01*
Y1863364D01*
Y1865914D01*
Y1868463D01*
X-120597D01*
Y1871013D01*
X-123146D01*
Y1873563D01*
X-125696D01*
Y1876113D01*
X-123146D01*
Y1878662D01*
X-120597D01*
Y1881212D01*
X-118047D01*
Y1883762D01*
X-115497D01*
Y1886311D01*
X-112948D01*
Y1888861D01*
Y1891411D01*
X-110398D01*
Y1893961D01*
X-105298D01*
Y1896510D01*
Y1899060D01*
Y1901610D01*
X-107848D01*
Y1899060D01*
X-110398D01*
Y1896510D01*
X-112948D01*
Y1893961D01*
X-115497D01*
Y1891411D01*
Y1888861D01*
X-118047D01*
Y1886311D01*
X-120597D01*
Y1888861D01*
X-125696D01*
Y1886311D01*
X-120597D01*
Y1883762D01*
X-123146D01*
Y1881212D01*
X-125696D01*
Y1878662D01*
X-128246D01*
Y1876113D01*
Y1873563D01*
X-130796D01*
Y1871013D01*
X-133345D01*
Y1868463D01*
X-135895D01*
Y1865914D01*
X-138445D01*
Y1863364D01*
Y1860814D01*
X-140994D01*
Y1858265D01*
X-143544D01*
Y1855715D01*
Y1853165D01*
X-146094D01*
Y1850615D01*
Y1848066D01*
X-151193D01*
Y1845516D01*
X-148643D01*
Y1842966D01*
X-151193D01*
Y1840417D01*
X-153743D01*
Y1837867D01*
Y1835317D01*
Y1832767D01*
X-156293D01*
Y1830218D01*
Y1827668D01*
X-158842D01*
Y1825118D01*
Y1822569D01*
X-161392D01*
Y1820019D01*
X-158842D01*
Y1817469D01*
X-161392D01*
Y1814920D01*
Y1812370D01*
Y1809820D01*
Y1807270D01*
X-163942D01*
Y1809820D01*
X-166491D01*
Y1807270D01*
X-163942D01*
Y1804721D01*
Y1802171D01*
Y1799621D01*
Y1797072D01*
X-166491D01*
Y1794522D01*
Y1791972D01*
Y1789422D01*
X-169041D01*
Y1786873D01*
Y1784323D01*
Y1781773D01*
X-171591D01*
Y1779224D01*
X-169041D01*
Y1776674D01*
Y1774124D01*
Y1771574D01*
X-166491D01*
Y1769025D01*
X-169041D01*
Y1771574D01*
X-171591D01*
Y1769025D01*
X-169041D01*
Y1766475D01*
Y1763926D01*
Y1761376D01*
X-174141D01*
Y1758826D01*
X-176690D01*
Y1761376D01*
X-199637D01*
Y1763926D01*
X-202188D01*
Y1766475D01*
X-204737D01*
Y1769025D01*
Y1771574D01*
X-207287D01*
Y1774124D01*
Y1776674D01*
Y1779224D01*
Y1781773D01*
Y1784323D01*
Y1786873D01*
X-204737D01*
Y1789422D01*
Y1791972D01*
X-202188D01*
Y1794522D01*
X-199637D01*
Y1797072D01*
X-197088D01*
Y1799621D01*
X-194538D01*
Y1797072D01*
X-191988D01*
Y1799621D01*
X-194538D01*
Y1802171D01*
Y1804721D01*
Y1807270D01*
Y1809820D01*
X-191988D01*
Y1812370D01*
Y1814920D01*
Y1817469D01*
X-189439D01*
Y1820019D01*
Y1822569D01*
X-186889D01*
Y1825118D01*
Y1827668D01*
X-191988D01*
Y1825118D01*
X-194538D01*
Y1827668D01*
Y1830218D01*
X-199637D01*
Y1832767D01*
Y1835317D01*
X-197088D01*
Y1837867D01*
Y1840417D01*
Y1842966D01*
Y1845516D01*
Y1848066D01*
X-194538D01*
Y1850615D01*
Y1853165D01*
Y1855715D01*
X-191988D01*
Y1858265D01*
Y1860814D01*
Y1863364D01*
Y1865914D01*
X-189439D01*
Y1868463D01*
Y1871013D01*
Y1873563D01*
X-186889D01*
Y1876113D01*
Y1878662D01*
Y1881212D01*
X-184339D01*
Y1883762D01*
Y1886311D01*
Y1888861D01*
Y1891411D01*
X-181790D01*
Y1888861D01*
X-179240D01*
Y1886311D01*
Y1883762D01*
Y1881212D01*
Y1878662D01*
X-181790D01*
Y1876113D01*
Y1873563D01*
Y1871013D01*
Y1868463D01*
X-184339D01*
Y1865914D01*
Y1863364D01*
Y1860814D01*
X-186889D01*
Y1858265D01*
Y1855715D01*
Y1853165D01*
Y1850615D01*
Y1848066D01*
Y1845516D01*
Y1842966D01*
Y1840417D01*
Y1837867D01*
Y1835317D01*
Y1832767D01*
X-189439D01*
Y1830218D01*
X-184339D01*
Y1832767D01*
Y1835317D01*
Y1837867D01*
X-181790D01*
Y1840417D01*
Y1842966D01*
Y1845516D01*
Y1848066D01*
X-179240D01*
Y1850615D01*
Y1853165D01*
Y1855715D01*
Y1858265D01*
Y1860814D01*
X-176690D01*
Y1863364D01*
Y1865914D01*
Y1868463D01*
Y1871013D01*
Y1873563D01*
Y1876113D01*
Y1878662D01*
Y1881212D01*
Y1883762D01*
Y1886311D01*
Y1888861D01*
Y1891411D01*
X-179240D01*
Y1893961D01*
X-181790D01*
Y1896510D01*
Y1899060D01*
Y1901610D01*
X-179240D01*
Y1904160D01*
Y1906709D01*
Y1909259D01*
Y1911809D01*
Y1914358D01*
Y1916908D01*
Y1919458D01*
Y1922007D01*
X-176690D01*
Y1924557D01*
Y1927107D01*
Y1929656D01*
Y1932206D01*
Y1934756D01*
Y1937306D01*
Y1939855D01*
X-174141D01*
Y1942405D01*
Y1944955D01*
Y1947504D01*
Y1950054D01*
Y1952604D01*
Y1955154D01*
Y1957703D01*
Y1960253D01*
Y1962803D01*
Y1965352D01*
Y1967902D01*
Y1970452D01*
Y1973002D01*
Y1975551D01*
Y1978101D01*
Y1980651D01*
Y1983201D01*
Y1985750D01*
Y1988300D01*
X-171591D01*
Y1990850D01*
Y1993399D01*
Y1995949D01*
Y1998499D01*
Y2001049D01*
X-169041D01*
Y2003598D01*
Y2006148D01*
X-166491D01*
Y2008697D01*
Y2011247D01*
Y2013797D01*
X-163942D01*
Y2016347D01*
X-161392D01*
Y2018896D01*
Y2021446D01*
X-158842D01*
Y2023996D01*
Y2026545D01*
X-153743D01*
Y2029095D01*
Y2031645D01*
Y2034195D01*
X-151193D01*
Y2036744D01*
X-148643D01*
Y2039294D01*
X-143544D01*
Y2041844D01*
X-146094D01*
Y2044393D01*
X-143544D01*
Y2046943D01*
X-140994D01*
Y2049493D01*
Y2052043D01*
X-138445D01*
Y2054592D01*
X-135895D01*
Y2057142D01*
Y2059692D01*
X-133345D01*
Y2062242D01*
X-130796D01*
Y2064791D01*
X-128246D01*
Y2062242D01*
X-125696D01*
Y2064791D01*
X-128246D01*
Y2067341D01*
Y2069890D01*
X-125696D01*
Y2072440D01*
X-123146D01*
Y2074990D01*
X-120597D01*
Y2077540D01*
X-118047D01*
Y2080090D01*
X-110398D01*
Y2082639D01*
Y2085189D01*
X-107848D01*
Y2082639D01*
X-105298D01*
Y2085189D01*
Y2087738D01*
X-100199D01*
Y2090288D01*
X-95100D01*
Y2092838D01*
X-84901D01*
Y2095388D01*
X-77252D01*
Y2092838D01*
X-74702D01*
Y2095388D01*
X-77252D01*
Y2097937D01*
X-56854D01*
Y2100487D01*
X4339D01*
Y2103037D01*
X17087D01*
Y2105586D01*
X24737D01*
Y2108136D01*
X32386D01*
Y2110686D01*
X40035D01*
Y2113236D01*
X50234D01*
Y2115785D01*
X57883D01*
Y2118335D01*
X68082D01*
Y2120885D01*
X73181D01*
Y2123435D01*
X80830D01*
Y2125984D01*
X83380D01*
Y2123435D01*
X85930D01*
Y2125984D01*
X88480D01*
Y2123435D01*
X91029D01*
Y2125984D01*
X88480D01*
Y2128534D01*
X103778D01*
Y2125984D01*
D02*
G37*
%LPC*%
G36*
X116526Y2113236D02*
X113977D01*
Y2110686D01*
X116526D01*
Y2108136D01*
X119076D01*
Y2110686D01*
X116526D01*
Y2113236D01*
D02*
G37*
G36*
Y2108136D02*
X113977D01*
Y2105586D01*
X116526D01*
Y2108136D01*
D02*
G37*
G36*
X113977Y2105586D02*
X111427D01*
Y2103037D01*
X113977D01*
Y2105586D01*
D02*
G37*
G36*
X108877D02*
X101228D01*
Y2103037D01*
X108877D01*
Y2105586D01*
D02*
G37*
G36*
X101228Y2103037D02*
X93579D01*
Y2100487D01*
X88480D01*
Y2097937D01*
X83380D01*
Y2095388D01*
X80830D01*
Y2092838D01*
X78281D01*
Y2090288D01*
X75731D01*
Y2087738D01*
Y2085189D01*
Y2082639D01*
Y2080090D01*
Y2077540D01*
Y2074990D01*
Y2072440D01*
Y2069890D01*
Y2067341D01*
X78281D01*
Y2064791D01*
Y2062242D01*
Y2059692D01*
Y2057142D01*
X80830D01*
Y2054592D01*
Y2052043D01*
Y2049493D01*
X83380D01*
Y2052043D01*
Y2054592D01*
Y2057142D01*
X80830D01*
Y2059692D01*
Y2062242D01*
Y2064791D01*
Y2067341D01*
Y2069890D01*
X78281D01*
Y2072440D01*
Y2074990D01*
Y2077540D01*
Y2080090D01*
Y2082639D01*
Y2085189D01*
Y2087738D01*
X80830D01*
Y2090288D01*
X83380D01*
Y2087738D01*
X85930D01*
Y2090288D01*
X83380D01*
Y2092838D01*
X88480D01*
Y2095388D01*
X91029D01*
Y2097937D01*
X96129D01*
Y2100487D01*
X101228D01*
Y2103037D01*
D02*
G37*
G36*
X-110398Y2077540D02*
X-112948D01*
Y2074990D01*
X-110398D01*
Y2077540D01*
D02*
G37*
G36*
X213415Y2074990D02*
X210866D01*
Y2072440D01*
X213415D01*
Y2069890D01*
X221064D01*
Y2067341D01*
X223614D01*
Y2069890D01*
X226164D01*
Y2072440D01*
X213415D01*
Y2074990D01*
D02*
G37*
G36*
X223614Y2080090D02*
X215965D01*
Y2077540D01*
X223614D01*
Y2074990D01*
X226164D01*
Y2072440D01*
X228714D01*
Y2069890D01*
Y2067341D01*
Y2064791D01*
X231263D01*
Y2067341D01*
Y2069890D01*
Y2072440D01*
X228714D01*
Y2074990D01*
X226164D01*
Y2077540D01*
X223614D01*
Y2080090D01*
D02*
G37*
G36*
X73181Y2069890D02*
X70632D01*
Y2067341D01*
Y2064791D01*
X75731D01*
Y2067341D01*
X73181D01*
Y2069890D01*
D02*
G37*
G36*
X85930Y2046943D02*
X83380D01*
Y2044393D01*
X85930D01*
Y2046943D01*
D02*
G37*
G36*
X93579Y2039294D02*
X91029D01*
Y2036744D01*
X93579D01*
Y2039294D01*
D02*
G37*
G36*
X203216Y2036744D02*
X200667D01*
Y2034195D01*
X203216D01*
Y2036744D01*
D02*
G37*
G36*
X205766Y2029095D02*
X203216D01*
Y2026545D01*
Y2023996D01*
Y2021446D01*
X205766D01*
Y2023996D01*
Y2026545D01*
Y2029095D01*
D02*
G37*
G36*
X198117Y2011247D02*
X195567D01*
Y2008697D01*
X198117D01*
Y2011247D01*
D02*
G37*
G36*
X203216Y2016347D02*
X200667D01*
Y2013797D01*
Y2011247D01*
Y2008697D01*
X203216D01*
Y2006148D01*
X205766D01*
Y2008697D01*
X203216D01*
Y2011247D01*
Y2013797D01*
Y2016347D01*
D02*
G37*
G36*
X200667Y2006148D02*
X198117D01*
Y2003598D01*
Y2001049D01*
X200667D01*
Y2003598D01*
Y2006148D01*
D02*
G37*
G36*
X198117Y2001049D02*
X195567D01*
Y1998499D01*
Y1995949D01*
X198117D01*
Y1998499D01*
Y2001049D01*
D02*
G37*
G36*
X226164Y1985750D02*
X223614D01*
Y1983201D01*
X226164D01*
Y1985750D01*
D02*
G37*
G36*
X131825D02*
X129275D01*
Y1983201D01*
X131825D01*
Y1985750D01*
D02*
G37*
G36*
X172620Y1983201D02*
X170070D01*
Y1980651D01*
X172620D01*
Y1983201D01*
D02*
G37*
G36*
X-90000Y1950054D02*
X-92550D01*
Y1947504D01*
X-90000D01*
Y1950054D01*
D02*
G37*
G36*
X65532Y1942405D02*
X62982D01*
Y1939855D01*
X65532D01*
Y1942405D01*
D02*
G37*
G36*
X68082Y1934756D02*
X65532D01*
Y1932206D01*
X68082D01*
Y1934756D01*
D02*
G37*
G36*
X-90000Y1939855D02*
X-92550D01*
Y1937306D01*
Y1934756D01*
Y1932206D01*
X-90000D01*
Y1934756D01*
Y1937306D01*
Y1939855D01*
D02*
G37*
G36*
X231263Y1924557D02*
X226164D01*
Y1922007D01*
X231263D01*
Y1924557D01*
D02*
G37*
G36*
X-95100Y1932206D02*
X-97649D01*
Y1929656D01*
X-95100D01*
Y1927107D01*
Y1924557D01*
Y1922007D01*
X-92550D01*
Y1924557D01*
Y1927107D01*
Y1929656D01*
X-95100D01*
Y1932206D01*
D02*
G37*
G36*
X231263Y1916908D02*
X228714D01*
Y1914358D01*
X231263D01*
Y1916908D01*
D02*
G37*
G36*
X157322Y1909259D02*
X154772D01*
Y1906709D01*
X157322D01*
Y1909259D01*
D02*
G37*
G36*
X-95100Y1922007D02*
X-97649D01*
Y1919458D01*
Y1916908D01*
X-100199D01*
Y1914358D01*
Y1911809D01*
X-102749D01*
Y1909259D01*
Y1906709D01*
X-105298D01*
Y1904160D01*
Y1901610D01*
X-102749D01*
Y1904160D01*
X-100199D01*
Y1906709D01*
Y1909259D01*
X-97649D01*
Y1911809D01*
Y1914358D01*
X-95100D01*
Y1916908D01*
Y1919458D01*
Y1922007D01*
D02*
G37*
G36*
X228714Y1901610D02*
X226164D01*
Y1899060D01*
X228714D01*
Y1901610D01*
D02*
G37*
G36*
X139474Y1842966D02*
X136924D01*
Y1840417D01*
X139474D01*
Y1842966D01*
D02*
G37*
G36*
X177720Y1837867D02*
X175170D01*
Y1835317D01*
X177720D01*
Y1837867D01*
D02*
G37*
G36*
X-158842Y1832767D02*
X-161392D01*
Y1830218D01*
X-158842D01*
Y1832767D01*
D02*
G37*
G36*
X-181790Y1827668D02*
X-184339D01*
Y1825118D01*
X-181790D01*
Y1827668D01*
D02*
G37*
G36*
X-169041Y1794522D02*
X-171591D01*
Y1791972D01*
X-169041D01*
Y1794522D01*
D02*
G37*
G36*
X-189439Y1766475D02*
X-191988D01*
Y1763926D01*
X-189439D01*
Y1766475D01*
D02*
G37*
%LPD*%
D19*
X374016Y1220472D02*
D03*
X-374016D02*
D03*
X374016Y2559055D02*
D03*
X-374016D02*
D03*
D22*
X-19685Y19685D02*
D03*
Y0D02*
D03*
Y-19685D02*
D03*
X19685Y19685D02*
D03*
Y0D02*
D03*
Y-19685D02*
D03*
D23*
X-174213Y2594488D02*
D03*
X174213D02*
D03*
D24*
X-73819Y2480315D02*
D03*
X-24606D02*
D03*
X73819D02*
D03*
X24606D02*
D03*
D25*
X-16929Y98425D02*
D03*
X16929D02*
D03*
%TF.MD5,6cebc5f9f6c79d30eae9f918365f660e*%
M02*
