%TF.GenerationSoftware,Altium Limited,Altium Designer,23.3.1 (30)*%
G04 Layer_Color=65535*
%FSLAX26Y26*%
%MOIN*%
%TF.SameCoordinates,8EB50123-24BD-4293-BAC2-458A60E0733E*%
%TF.FilePolarity,Positive*%
%TF.FileFunction,Legend,Top*%
%TF.Part,Single*%
G01*
G75*
%TA.AperFunction,NonConductor*%
%ADD20C,0.003937*%
%ADD21C,0.001968*%
G36*
X196850Y1594488D02*
X-196850D01*
Y1712598D01*
X196850D01*
Y1594488D01*
D02*
G37*
G36*
X-180983Y2505577D02*
Y2505541D01*
Y2505432D01*
Y2505286D01*
Y2505068D01*
X-181019Y2504777D01*
Y2504485D01*
X-181092Y2503794D01*
X-181165Y2502993D01*
X-181310Y2502156D01*
X-181529Y2501391D01*
X-181784Y2500663D01*
Y2500627D01*
X-181820Y2500591D01*
X-181929Y2500372D01*
X-182111Y2500081D01*
X-182366Y2499681D01*
X-182730Y2499280D01*
X-183130Y2498843D01*
X-183640Y2498407D01*
X-184222Y2498043D01*
X-184295Y2498006D01*
X-184514Y2497897D01*
X-184841Y2497751D01*
X-185314Y2497606D01*
X-185897Y2497424D01*
X-186552Y2497278D01*
X-187280Y2497169D01*
X-188081Y2497133D01*
X-188408D01*
X-188627Y2497169D01*
X-188918Y2497205D01*
X-189209Y2497242D01*
X-189974Y2497387D01*
X-190774Y2497606D01*
X-191612Y2497933D01*
X-192048Y2498152D01*
X-192449Y2498407D01*
X-192813Y2498698D01*
X-193177Y2499025D01*
X-193213Y2499062D01*
X-193250Y2499098D01*
X-193322Y2499244D01*
X-193432Y2499389D01*
X-193577Y2499571D01*
X-193723Y2499826D01*
X-193868Y2500117D01*
X-194050Y2500445D01*
X-194196Y2500809D01*
X-194342Y2501246D01*
X-194487Y2501683D01*
X-194633Y2502192D01*
X-194706Y2502738D01*
X-194815Y2503357D01*
X-194851Y2503976D01*
Y2504667D01*
X-191830Y2505104D01*
Y2505068D01*
Y2504995D01*
Y2504849D01*
X-191794Y2504631D01*
X-191757Y2504413D01*
Y2504158D01*
X-191648Y2503539D01*
X-191539Y2502884D01*
X-191320Y2502229D01*
X-191102Y2501646D01*
X-190956Y2501391D01*
X-190774Y2501173D01*
X-190738Y2501137D01*
X-190592Y2501027D01*
X-190374Y2500845D01*
X-190083Y2500663D01*
X-189682Y2500445D01*
X-189246Y2500299D01*
X-188700Y2500154D01*
X-188117Y2500117D01*
X-187899D01*
X-187680Y2500154D01*
X-187353Y2500190D01*
X-187025Y2500263D01*
X-186661Y2500336D01*
X-186297Y2500481D01*
X-185933Y2500663D01*
X-185897Y2500700D01*
X-185788Y2500773D01*
X-185642Y2500918D01*
X-185424Y2501064D01*
X-185242Y2501319D01*
X-185023Y2501573D01*
X-184841Y2501865D01*
X-184696Y2502229D01*
Y2502265D01*
X-184623Y2502411D01*
X-184586Y2502665D01*
X-184514Y2502993D01*
X-184441Y2503430D01*
X-184404Y2503976D01*
X-184332Y2504631D01*
Y2505395D01*
Y2522758D01*
X-180983D01*
Y2505577D01*
D02*
G37*
G36*
X-165149Y2497569D02*
X-168243D01*
Y2517262D01*
X-168279Y2517225D01*
X-168461Y2517080D01*
X-168680Y2516861D01*
X-169044Y2516607D01*
X-169444Y2516279D01*
X-169954Y2515915D01*
X-170536Y2515515D01*
X-171191Y2515114D01*
X-171228D01*
X-171264Y2515078D01*
X-171482Y2514932D01*
X-171846Y2514750D01*
X-172283Y2514532D01*
X-172793Y2514277D01*
X-173339Y2514022D01*
X-173885Y2513767D01*
X-174431Y2513549D01*
Y2516534D01*
X-174394D01*
X-174322Y2516607D01*
X-174176Y2516643D01*
X-173994Y2516752D01*
X-173776Y2516861D01*
X-173521Y2517007D01*
X-172902Y2517371D01*
X-172174Y2517771D01*
X-171446Y2518281D01*
X-170682Y2518863D01*
X-169917Y2519482D01*
X-169881Y2519519D01*
X-169844Y2519555D01*
X-169735Y2519664D01*
X-169590Y2519773D01*
X-169262Y2520137D01*
X-168825Y2520574D01*
X-168388Y2521084D01*
X-167915Y2521666D01*
X-167515Y2522249D01*
X-167151Y2522867D01*
X-165149D01*
Y2497569D01*
D02*
G37*
%LPC*%
G36*
X29306Y1679386D02*
D01*
Y1665244D01*
X29233Y1666337D01*
X29087Y1667431D01*
X28941Y1668451D01*
X28650Y1669399D01*
X27921Y1671076D01*
X27192Y1672534D01*
X26754Y1673190D01*
X26390Y1673700D01*
X26025Y1674210D01*
X25661Y1674575D01*
X25369Y1674867D01*
X25223Y1675158D01*
X25078Y1675231D01*
X25005Y1675304D01*
X24203Y1676033D01*
X23255Y1676689D01*
X22380Y1677199D01*
X21360Y1677637D01*
X19464Y1678366D01*
X17569Y1678876D01*
X16694Y1679022D01*
X15892Y1679168D01*
X15163Y1679241D01*
X14507Y1679313D01*
X13997Y1679386D01*
X29306D01*
X-4593D01*
X13268D01*
X12028Y1679313D01*
X10862Y1679241D01*
X8602Y1678876D01*
X6707Y1678293D01*
X5832Y1678001D01*
X5030Y1677637D01*
X4301Y1677345D01*
X3718Y1676981D01*
X3135Y1676689D01*
X2697Y1676470D01*
X2333Y1676179D01*
X2114Y1676033D01*
X1968Y1675960D01*
X1895Y1675887D01*
X1093Y1675158D01*
X364Y1674429D01*
X-292Y1673554D01*
X-875Y1672607D01*
X-1750Y1670711D01*
X-2479Y1668889D01*
X-2697Y1667941D01*
X-2916Y1667139D01*
X-3135Y1666410D01*
X-3208Y1665754D01*
X-3353Y1665171D01*
Y1664806D01*
X-3426Y1664515D01*
Y1664442D01*
X6197Y1663494D01*
X6342Y1664952D01*
X6634Y1666191D01*
X6926Y1667285D01*
X7290Y1668087D01*
X7582Y1668743D01*
X7873Y1669180D01*
X8092Y1669472D01*
X8165Y1669545D01*
X8894Y1670128D01*
X9696Y1670565D01*
X10498Y1670930D01*
X11300Y1671149D01*
X11956Y1671294D01*
X12539Y1671367D01*
X13049D01*
X14143Y1671294D01*
X15090Y1671076D01*
X15892Y1670784D01*
X16621Y1670493D01*
X17131Y1670201D01*
X17569Y1669909D01*
X17788Y1669691D01*
X17860Y1669618D01*
X18444Y1668889D01*
X18881Y1668087D01*
X19173Y1667285D01*
X19391Y1666483D01*
X19537Y1665754D01*
X19610Y1665098D01*
Y1664734D01*
Y1664661D01*
Y1664588D01*
X19537Y1663494D01*
X19319Y1662474D01*
X18954Y1661453D01*
X18590Y1660578D01*
X18225Y1659776D01*
X17860Y1659193D01*
X17642Y1658829D01*
X17569Y1658683D01*
X17277Y1658245D01*
X16840Y1657735D01*
X16257Y1657079D01*
X15674Y1656496D01*
X14361Y1655111D01*
X13049Y1653726D01*
X11737Y1652413D01*
X11154Y1651830D01*
X10570Y1651393D01*
X10133Y1650955D01*
X9841Y1650664D01*
X9623Y1650445D01*
X9550Y1650372D01*
X8092Y1648987D01*
X6780Y1647675D01*
X5540Y1646436D01*
X4447Y1645342D01*
X3426Y1644249D01*
X2551Y1643228D01*
X1750Y1642353D01*
X1093Y1641478D01*
X510Y1640749D01*
X0Y1640093D01*
X-437Y1639583D01*
X-729Y1639073D01*
X-1021Y1638781D01*
X-1166Y1638489D01*
X-1312Y1638344D01*
Y1638271D01*
X-2260Y1636594D01*
X-2989Y1634844D01*
X-3572Y1633241D01*
X-4010Y1631783D01*
X-4301Y1630470D01*
X-4374Y1629960D01*
X-4447Y1629523D01*
X-4520Y1629158D01*
X-4593Y1628867D01*
Y1628648D01*
X29306D01*
Y1679386D01*
D02*
G37*
G36*
X-47677Y1678439D02*
Y1645561D01*
X-47749Y1646946D01*
X-47895Y1648258D01*
X-48114Y1649497D01*
X-48406Y1650664D01*
X-48697Y1651684D01*
X-49135Y1652705D01*
X-49499Y1653653D01*
X-49937Y1654455D01*
X-50374Y1655184D01*
X-50738Y1655840D01*
X-51176Y1656423D01*
X-51467Y1656860D01*
X-51759Y1657225D01*
X-51978Y1657516D01*
X-52123Y1657662D01*
X-52196Y1657735D01*
X-53071Y1658537D01*
X-53946Y1659266D01*
X-54894Y1659922D01*
X-55841Y1660505D01*
X-56716Y1660943D01*
X-57664Y1661307D01*
X-59341Y1661890D01*
X-60142Y1662109D01*
X-60871Y1662255D01*
X-61528Y1662328D01*
X-62038Y1662401D01*
X-62475Y1662474D01*
X-63131D01*
X-64371Y1662401D01*
X-65610Y1662182D01*
X-66704Y1661963D01*
X-67724Y1661672D01*
X-68526Y1661307D01*
X-69182Y1661089D01*
X-69620Y1660870D01*
X-69692Y1660797D01*
X-69765D01*
X-68234Y1669399D01*
X-49937D01*
Y1678439D01*
X-81648D01*
X-75524D01*
X-80482Y1652122D01*
X-72681Y1651028D01*
X-72025Y1651684D01*
X-71369Y1652268D01*
X-70713Y1652778D01*
X-70057Y1653215D01*
X-68818Y1653871D01*
X-67651Y1654309D01*
X-66631Y1654527D01*
X-65902Y1654673D01*
X-65610Y1654746D01*
X-65173D01*
X-64006Y1654673D01*
X-62913Y1654382D01*
X-61965Y1654017D01*
X-61163Y1653580D01*
X-60580Y1653070D01*
X-60070Y1652705D01*
X-59778Y1652413D01*
X-59705Y1652341D01*
X-58976Y1651393D01*
X-58466Y1650299D01*
X-58101Y1649133D01*
X-57883Y1647966D01*
X-57664Y1646946D01*
X-57591Y1646144D01*
Y1645780D01*
Y1645561D01*
Y1645415D01*
Y1645342D01*
X-57664Y1643592D01*
X-57883Y1642062D01*
X-58247Y1640822D01*
X-58612Y1639802D01*
X-59049Y1638927D01*
X-59341Y1638344D01*
X-59632Y1638052D01*
X-59705Y1637906D01*
X-60507Y1637104D01*
X-61382Y1636448D01*
X-62257Y1636011D01*
X-63059Y1635719D01*
X-63788Y1635573D01*
X-64371Y1635501D01*
X-64735Y1635428D01*
X-64881D01*
X-65829Y1635501D01*
X-66776Y1635719D01*
X-67578Y1636011D01*
X-68234Y1636375D01*
X-68818Y1636740D01*
X-69255Y1637032D01*
X-69547Y1637250D01*
X-69620Y1637323D01*
X-70276Y1638125D01*
X-70859Y1638927D01*
X-71296Y1639802D01*
X-71588Y1640604D01*
X-71806Y1641333D01*
X-71952Y1641989D01*
X-72025Y1642353D01*
Y1642499D01*
X-81648Y1641478D01*
D01*
X-81429Y1640312D01*
X-81211Y1639218D01*
X-80482Y1637250D01*
X-79680Y1635501D01*
X-79242Y1634772D01*
X-78732Y1634043D01*
X-78295Y1633459D01*
X-77930Y1632949D01*
X-77493Y1632512D01*
X-77201Y1632074D01*
X-76909Y1631783D01*
X-76691Y1631564D01*
X-76545Y1631491D01*
X-76472Y1631418D01*
X-75597Y1630762D01*
X-74722Y1630179D01*
X-73775Y1629669D01*
X-72827Y1629304D01*
X-70859Y1628575D01*
X-69109Y1628138D01*
X-68234Y1627992D01*
X-67505Y1627919D01*
X-66776Y1627846D01*
X-66193Y1627773D01*
X-65683Y1627700D01*
X-47677D01*
Y1678439D01*
D02*
G37*
G36*
X-88282Y1679095D02*
D01*
Y1643228D01*
X-88355Y1644832D01*
X-88646Y1646290D01*
X-89084Y1647529D01*
X-89521Y1648696D01*
X-89959Y1649570D01*
X-90396Y1650226D01*
X-90688Y1650664D01*
X-90760Y1650810D01*
X-91781Y1651976D01*
X-92875Y1652924D01*
X-94114Y1653726D01*
X-95207Y1654309D01*
X-96228Y1654819D01*
X-97103Y1655184D01*
X-97394Y1655256D01*
X-97613Y1655329D01*
X-97759Y1655402D01*
X-97832D01*
X-96665Y1656058D01*
X-95645Y1656715D01*
X-94770Y1657516D01*
X-94041Y1658172D01*
X-93531Y1658829D01*
X-93093Y1659339D01*
X-92802Y1659703D01*
X-92729Y1659849D01*
X-92073Y1661016D01*
X-91562Y1662109D01*
X-91271Y1663203D01*
X-90979Y1664223D01*
X-90833Y1665098D01*
X-90760Y1665754D01*
Y1666191D01*
Y1666264D01*
Y1666337D01*
X-90833Y1667504D01*
X-90979Y1668670D01*
X-91271Y1669618D01*
X-91562Y1670493D01*
X-91854Y1671222D01*
X-92146Y1671805D01*
X-92291Y1672096D01*
X-92364Y1672242D01*
X-92948Y1673190D01*
X-93604Y1673992D01*
X-94260Y1674721D01*
X-94843Y1675377D01*
X-95426Y1675814D01*
X-95864Y1676179D01*
X-96155Y1676398D01*
X-96228Y1676470D01*
X-97103Y1677054D01*
X-98050Y1677491D01*
X-98925Y1677855D01*
X-99727Y1678147D01*
X-100456Y1678366D01*
X-100966Y1678512D01*
X-101331Y1678584D01*
X-101477D01*
X-102716Y1678730D01*
X-104101Y1678876D01*
X-105559Y1678949D01*
X-107017Y1679022D01*
X-108329Y1679095D01*
X-88282D01*
X-130491D01*
Y1628648D01*
X-108621D01*
X-107382Y1628721D01*
X-105195D01*
X-104320Y1628794D01*
X-102935D01*
X-102424Y1628867D01*
X-101695D01*
X-101404Y1628940D01*
X-101112D01*
X-99654Y1629158D01*
X-98342Y1629523D01*
X-97176Y1629887D01*
X-96155Y1630325D01*
X-95353Y1630689D01*
X-94770Y1631054D01*
X-94406Y1631272D01*
X-94260Y1631345D01*
X-93239Y1632147D01*
X-92437Y1633022D01*
X-91635Y1633824D01*
X-91052Y1634699D01*
X-90542Y1635428D01*
X-90177Y1636011D01*
X-89959Y1636375D01*
X-89886Y1636521D01*
X-89375Y1637761D01*
X-88938Y1638927D01*
X-88646Y1640093D01*
X-88501Y1641114D01*
X-88355Y1641989D01*
X-88282Y1642645D01*
Y1628648D01*
D01*
D01*
Y1679095D01*
D02*
G37*
G36*
X76399D02*
D01*
Y1637177D01*
X48260D01*
Y1650882D01*
X73556D01*
Y1659412D01*
X48260D01*
Y1670565D01*
X75451D01*
Y1679095D01*
X76399D01*
X38054D01*
Y1628648D01*
X76399D01*
Y1679095D01*
D02*
G37*
G36*
X130491Y1679095D02*
D01*
Y1628648D01*
X110225Y1679095D01*
X130491D01*
X99436D01*
X79898Y1628648D01*
D01*
X111877Y1628648D01*
X90688D01*
X94843Y1640093D01*
X115109D01*
X119483Y1628648D01*
X130491D01*
Y1679095D01*
D02*
G37*
G36*
X-9841Y1679386D02*
X-42574D01*
D01*
X-26244D01*
X-27556Y1679313D01*
X-28796Y1679168D01*
X-30035Y1678876D01*
X-31128Y1678584D01*
X-32149Y1678147D01*
X-33097Y1677710D01*
X-33898Y1677272D01*
X-34700Y1676762D01*
X-35356Y1676252D01*
X-36013Y1675814D01*
X-36523Y1675377D01*
X-36887Y1674939D01*
X-37252Y1674648D01*
X-37471Y1674356D01*
X-37616Y1674210D01*
X-37689Y1674138D01*
X-38564Y1672898D01*
X-39293Y1671440D01*
X-39949Y1669909D01*
X-40532Y1668306D01*
X-40970Y1666629D01*
X-41407Y1664879D01*
X-41699Y1663203D01*
X-41990Y1661526D01*
X-42136Y1659922D01*
X-42282Y1658464D01*
X-42428Y1657079D01*
X-42501Y1655913D01*
X-42574Y1654965D01*
Y1653580D01*
X-42501Y1650955D01*
X-42355Y1648550D01*
X-42136Y1646290D01*
X-41845Y1644249D01*
X-41553Y1642426D01*
X-41188Y1640749D01*
X-40751Y1639291D01*
X-40314Y1637979D01*
X-39949Y1636886D01*
X-39512Y1635865D01*
X-39147Y1635063D01*
X-38783Y1634407D01*
X-38564Y1633970D01*
X-38345Y1633605D01*
X-38200Y1633387D01*
X-38127Y1633314D01*
X-37252Y1632293D01*
X-36304Y1631491D01*
X-35356Y1630689D01*
X-34336Y1630106D01*
X-33388Y1629523D01*
X-32368Y1629085D01*
X-31420Y1628721D01*
X-30472Y1628429D01*
X-29597Y1628138D01*
X-28796Y1627992D01*
X-28067Y1627846D01*
X-27483Y1627773D01*
X-26973D01*
X-26536Y1627700D01*
X-26244D01*
X-24932Y1627773D01*
X-23692Y1627919D01*
X-22453Y1628211D01*
X-21360Y1628502D01*
X-20339Y1628867D01*
X-19391Y1629304D01*
X-18590Y1629814D01*
X-17788Y1630325D01*
X-17131Y1630762D01*
X-16475Y1631272D01*
X-15965Y1631710D01*
X-15528Y1632074D01*
X-15236Y1632366D01*
X-15017Y1632658D01*
X-14872Y1632803D01*
X-14799Y1632876D01*
X-13924Y1634116D01*
X-13195Y1635573D01*
X-12466Y1637104D01*
X-11956Y1638781D01*
X-11445Y1640458D01*
X-11081Y1642134D01*
X-10716Y1643884D01*
X-10425Y1645561D01*
X-10279Y1647165D01*
X-10133Y1648623D01*
X-9987Y1650008D01*
X-9914Y1651174D01*
X-9841Y1652122D01*
Y1627700D01*
D01*
Y1679386D01*
D02*
G37*
%LPD*%
G36*
X29306Y1637615D02*
X10060D01*
X10643Y1638562D01*
X11300Y1639364D01*
X11591Y1639729D01*
X11810Y1640020D01*
X11956Y1640166D01*
X12028Y1640239D01*
X12320Y1640531D01*
X12612Y1640895D01*
X13486Y1641697D01*
X14434Y1642645D01*
X15382Y1643592D01*
X16330Y1644467D01*
X17131Y1645196D01*
X17423Y1645488D01*
X17642Y1645707D01*
X17788Y1645780D01*
X17860Y1645852D01*
X19464Y1647383D01*
X20776Y1648623D01*
X21870Y1649789D01*
X22745Y1650664D01*
X23401Y1651393D01*
X23838Y1651903D01*
X24130Y1652268D01*
X24203Y1652341D01*
X25151Y1653580D01*
X25952Y1654746D01*
X26608Y1655840D01*
X27119Y1656787D01*
X27556Y1657589D01*
X27848Y1658245D01*
X27994Y1658610D01*
X28067Y1658756D01*
X28504Y1659922D01*
X28796Y1661089D01*
X29014Y1662182D01*
X29160Y1663203D01*
X29233Y1664005D01*
X29306Y1664661D01*
Y1637615D01*
D02*
G37*
G36*
X-47677Y1627700D02*
X-65027D01*
X-63423Y1627773D01*
X-61892Y1627992D01*
X-60507Y1628284D01*
X-59195Y1628721D01*
X-57956Y1629231D01*
X-56862Y1629814D01*
X-55841Y1630398D01*
X-54894Y1631054D01*
X-54092Y1631637D01*
X-53363Y1632220D01*
X-52707Y1632803D01*
X-52196Y1633314D01*
X-51832Y1633751D01*
X-51540Y1634043D01*
X-51395Y1634261D01*
X-51322Y1634334D01*
X-50666Y1635282D01*
X-50082Y1636230D01*
X-49645Y1637177D01*
X-49208Y1638198D01*
X-48551Y1640093D01*
X-48114Y1641843D01*
X-47968Y1642572D01*
X-47895Y1643301D01*
X-47749Y1643957D01*
Y1644540D01*
X-47677Y1644978D01*
Y1627700D01*
D02*
G37*
G36*
X-109350Y1670638D02*
X-107455D01*
X-107017Y1670565D01*
X-106215D01*
X-105924Y1670493D01*
X-105851D01*
X-104976Y1670347D01*
X-104174Y1670128D01*
X-103518Y1669836D01*
X-102935Y1669545D01*
X-102570Y1669253D01*
X-102206Y1668962D01*
X-102060Y1668816D01*
X-101987Y1668743D01*
X-101550Y1668160D01*
X-101258Y1667504D01*
X-100966Y1666920D01*
X-100821Y1666337D01*
X-100748Y1665754D01*
X-100675Y1665317D01*
Y1665025D01*
Y1664952D01*
X-100748Y1664077D01*
X-100894Y1663275D01*
X-101185Y1662619D01*
X-101404Y1662036D01*
X-101695Y1661526D01*
X-101987Y1661234D01*
X-102133Y1661016D01*
X-102206Y1660943D01*
X-102789Y1660432D01*
X-103445Y1660068D01*
X-104101Y1659776D01*
X-104757Y1659558D01*
X-105413Y1659339D01*
X-105851Y1659266D01*
X-106142Y1659193D01*
X-106580D01*
X-107017Y1659120D01*
X-109277D01*
X-110516Y1659047D01*
X-120285D01*
Y1670711D01*
X-110152D01*
X-109350Y1670638D01*
D02*
G37*
G36*
X-108694Y1650591D02*
X-107819Y1650518D01*
X-106944D01*
X-106215Y1650445D01*
X-105559Y1650372D01*
X-105049Y1650299D01*
X-104539Y1650226D01*
X-104174Y1650153D01*
X-103591Y1650081D01*
X-103226Y1649935D01*
X-103153D01*
X-102424Y1649643D01*
X-101768Y1649279D01*
X-101185Y1648914D01*
X-100748Y1648477D01*
X-100383Y1648185D01*
X-100165Y1647894D01*
X-100019Y1647675D01*
X-99946Y1647602D01*
X-99581Y1646946D01*
X-99290Y1646290D01*
X-99071Y1645707D01*
X-98925Y1645051D01*
X-98852Y1644540D01*
X-98779Y1644103D01*
Y1643811D01*
Y1643738D01*
X-98852Y1642791D01*
X-98998Y1641916D01*
X-99217Y1641187D01*
X-99508Y1640604D01*
X-99800Y1640093D01*
X-100019Y1639729D01*
X-100165Y1639510D01*
X-100237Y1639437D01*
X-100821Y1638927D01*
X-101404Y1638489D01*
X-102060Y1638125D01*
X-102643Y1637833D01*
X-103153Y1637688D01*
X-103591Y1637542D01*
X-103882Y1637469D01*
X-103955D01*
X-104247Y1637396D01*
X-104684D01*
X-105632Y1637323D01*
X-106799Y1637250D01*
X-107965D01*
X-109058Y1637177D01*
X-120285D01*
Y1650664D01*
X-109715D01*
X-108694Y1650591D01*
D02*
G37*
G36*
X111829Y1648623D02*
X97905D01*
X104757Y1667358D01*
X111829Y1648623D01*
D02*
G37*
G36*
X-9841Y1653507D02*
X-9914Y1656131D01*
X-10060Y1658537D01*
X-10279Y1660724D01*
X-10643Y1662765D01*
X-11008Y1664661D01*
X-11372Y1666337D01*
X-11883Y1667868D01*
X-12320Y1669180D01*
X-12758Y1670420D01*
X-13195Y1671367D01*
X-13632Y1672242D01*
X-13997Y1672971D01*
X-14361Y1673482D01*
X-14580Y1673846D01*
X-14726Y1674065D01*
X-14799Y1674138D01*
X-15601Y1675085D01*
X-16475Y1675887D01*
X-17423Y1676543D01*
X-18371Y1677199D01*
X-19319Y1677710D01*
X-20266Y1678074D01*
X-21141Y1678439D01*
X-22089Y1678730D01*
X-22963Y1678949D01*
X-23692Y1679095D01*
X-24422Y1679241D01*
X-25005Y1679313D01*
X-25515Y1679386D01*
X-9841D01*
Y1653507D01*
D02*
G37*
G36*
X-25588Y1671294D02*
X-25005Y1671222D01*
X-24494Y1671003D01*
X-24057Y1670784D01*
X-23692Y1670565D01*
X-23401Y1670420D01*
X-23255Y1670274D01*
X-23182Y1670201D01*
X-22745Y1669691D01*
X-22307Y1669035D01*
X-21943Y1668306D01*
X-21578Y1667577D01*
X-21360Y1666848D01*
X-21141Y1666264D01*
X-21068Y1665900D01*
X-20995Y1665827D01*
Y1665754D01*
X-20849Y1665098D01*
X-20704Y1664296D01*
X-20558Y1663348D01*
X-20412Y1662401D01*
X-20266Y1660432D01*
X-20193Y1658391D01*
X-20120Y1657444D01*
Y1656496D01*
X-20047Y1655694D01*
Y1654965D01*
Y1654382D01*
Y1653871D01*
Y1653580D01*
Y1653507D01*
Y1651903D01*
X-20120Y1650372D01*
Y1648987D01*
X-20193Y1647748D01*
X-20266Y1646581D01*
X-20339Y1645561D01*
X-20485Y1644613D01*
X-20558Y1643811D01*
X-20631Y1643082D01*
X-20776Y1642499D01*
X-20849Y1641989D01*
X-20922Y1641551D01*
X-20995Y1641260D01*
Y1640968D01*
X-21068Y1640895D01*
Y1640822D01*
X-21360Y1639802D01*
X-21724Y1639000D01*
X-22089Y1638271D01*
X-22380Y1637761D01*
X-22672Y1637323D01*
X-22963Y1637032D01*
X-23109Y1636886D01*
X-23182Y1636813D01*
X-23692Y1636448D01*
X-24203Y1636157D01*
X-24713Y1636011D01*
X-25223Y1635865D01*
X-25588Y1635792D01*
X-25952Y1635719D01*
X-26244D01*
X-26900Y1635792D01*
X-27483Y1635865D01*
X-27994Y1636084D01*
X-28431Y1636303D01*
X-28796Y1636448D01*
X-29087Y1636667D01*
X-29233Y1636740D01*
X-29306Y1636813D01*
X-29743Y1637323D01*
X-30181Y1637979D01*
X-30545Y1638708D01*
X-30910Y1639437D01*
X-31128Y1640093D01*
X-31347Y1640677D01*
X-31420Y1641041D01*
X-31493Y1641187D01*
X-31639Y1641916D01*
X-31784Y1642718D01*
X-31930Y1643592D01*
X-32003Y1644540D01*
X-32149Y1646581D01*
X-32222Y1648623D01*
X-32295Y1649570D01*
Y1650518D01*
X-32368Y1651320D01*
Y1652049D01*
Y1652632D01*
Y1653142D01*
Y1653434D01*
Y1653507D01*
Y1655111D01*
X-32295Y1656642D01*
Y1657954D01*
X-32222Y1659266D01*
X-32149Y1660360D01*
X-32076Y1661453D01*
X-32003Y1662328D01*
X-31857Y1663203D01*
X-31784Y1663932D01*
X-31712Y1664515D01*
X-31639Y1665025D01*
X-31566Y1665463D01*
X-31493Y1665754D01*
Y1666046D01*
X-31420Y1666119D01*
Y1666191D01*
X-31128Y1667212D01*
X-30764Y1668087D01*
X-30472Y1668743D01*
X-30108Y1669326D01*
X-29816Y1669691D01*
X-29597Y1669982D01*
X-29452Y1670128D01*
X-29379Y1670201D01*
X-28868Y1670565D01*
X-28285Y1670857D01*
X-27775Y1671076D01*
X-27265Y1671222D01*
X-26900Y1671294D01*
X-26536Y1671367D01*
X-26244D01*
X-25588Y1671294D01*
D02*
G37*
D20*
X-24685Y35000D02*
X-14685D01*
X-120079Y2527559D02*
X119213D01*
Y2633858D02*
Y2657480D01*
X-120079D02*
X119213D01*
X-120079Y2633858D02*
Y2657480D01*
D21*
X-2500Y108425D02*
X2500D01*
X-2500Y88425D02*
X2500D01*
%TF.MD5,a324458c242302937b68578ec9255a2e*%
M02*
