%TF.GenerationSoftware,Altium Limited,Altium Designer,23.3.1 (30)*%
G04 Layer_Physical_Order=3*
G04 Layer_Color=16440176*
%FSLAX26Y26*%
%MOIN*%
%TF.SameCoordinates,8EB50123-24BD-4293-BAC2-458A60E0733E*%
%TF.FilePolarity,Positive*%
%TF.FileFunction,Copper,L3,Inr,Signal*%
%TF.Part,Single*%
G01*
G75*
%TA.AperFunction,Conductor*%
%ADD15C,0.009842*%
%TA.AperFunction,ViaPad*%
%ADD17C,0.196850*%
%ADD18C,0.019685*%
G36*
X77105Y1345669D02*
X76684Y1346043D01*
X76192Y1346378D01*
X75629Y1346673D01*
X74995Y1346929D01*
X74290Y1347146D01*
X73515Y1347323D01*
X72668Y1347461D01*
X71751Y1347559D01*
X69705Y1347638D01*
Y1357480D01*
X70763Y1357500D01*
X72668Y1357658D01*
X73515Y1357795D01*
X74290Y1357973D01*
X74995Y1358189D01*
X75629Y1358445D01*
X76192Y1358740D01*
X76684Y1359075D01*
X77105Y1359449D01*
Y1345669D01*
D02*
G37*
G36*
X395146Y2665281D02*
X408830Y2661614D01*
X421919Y2656193D01*
X434188Y2649109D01*
X445428Y2640485D01*
X455445Y2630467D01*
X464070Y2619227D01*
X471153Y2606959D01*
X476575Y2593869D01*
X480242Y2580185D01*
X482091Y2566139D01*
Y2559055D01*
Y1220472D01*
Y1213389D01*
X480242Y1199342D01*
X476575Y1185658D01*
X471154Y1172569D01*
X464070Y1160300D01*
X455445Y1149060D01*
X445428Y1139043D01*
X434188Y1130418D01*
X421919Y1123335D01*
X408830Y1117913D01*
X395146Y1114246D01*
X381099Y1112397D01*
X173228D01*
X173065Y1112364D01*
X172900Y1112392D01*
X165175Y1112139D01*
X164690Y1112026D01*
X164194Y1112058D01*
X148876Y1110042D01*
X148250Y1109829D01*
X147589Y1109786D01*
X145633Y1109261D01*
X29465D01*
Y1311692D01*
X61300Y1343527D01*
X69220D01*
X69541Y1343380D01*
X71441Y1343307D01*
X72099Y1343236D01*
X72697Y1343139D01*
X73189Y1343026D01*
X73568Y1342910D01*
X73837Y1342801D01*
X73997Y1342717D01*
X74060Y1342674D01*
X74275Y1342483D01*
X75707Y1341987D01*
X77105Y1341408D01*
X77230Y1341459D01*
X77357Y1341415D01*
X78720Y1342077D01*
X80118Y1342656D01*
X80170Y1342781D01*
X80292Y1342840D01*
X80530Y1343527D01*
X84134D01*
X87590Y1344215D01*
X90520Y1346173D01*
X92478Y1349103D01*
X93166Y1352559D01*
X92478Y1356015D01*
X90520Y1358946D01*
X87590Y1360903D01*
X84134Y1361591D01*
X80530D01*
X80292Y1362279D01*
X80170Y1362338D01*
X80118Y1362462D01*
X78721Y1363041D01*
X77357Y1363703D01*
X77230Y1363659D01*
X77105Y1363711D01*
X75707Y1363131D01*
X74275Y1362636D01*
X74060Y1362444D01*
X73996Y1362401D01*
X73837Y1362317D01*
X73568Y1362209D01*
X73189Y1362092D01*
X72697Y1361980D01*
X72150Y1361891D01*
X70549Y1361758D01*
X69625Y1361741D01*
X69281Y1361591D01*
X57560D01*
X57559Y1361591D01*
X54103Y1360903D01*
X51173Y1358946D01*
X14047Y1321819D01*
X14032Y1321797D01*
X9032Y1323314D01*
Y2453988D01*
X51386Y2496343D01*
X53344Y2499273D01*
X54032Y2502729D01*
X54032Y2502729D01*
Y2575000D01*
X53344Y2578456D01*
X51386Y2581386D01*
X36386Y2596386D01*
X33456Y2598344D01*
X30000Y2599032D01*
X-9999D01*
X-10000Y2599032D01*
X-13456Y2598344D01*
X-16386Y2596386D01*
X-29486Y2583287D01*
X-31444Y2580357D01*
X-32131Y2576900D01*
Y2570599D01*
X-34541Y2568990D01*
X-37586Y2564432D01*
X-38656Y2559055D01*
X-37586Y2553679D01*
X-34541Y2549121D01*
X-29983Y2546075D01*
X-24606Y2545006D01*
X-19230Y2546075D01*
X-14672Y2549121D01*
X-11626Y2553679D01*
X-10557Y2559055D01*
X-11626Y2564432D01*
X-14068Y2568086D01*
Y2573159D01*
X-6259Y2580968D01*
X26259D01*
X30122Y2577106D01*
X27659Y2572497D01*
X24606Y2573105D01*
X19230Y2572035D01*
X14672Y2568990D01*
X11626Y2564432D01*
X10557Y2559055D01*
X11626Y2553679D01*
X14672Y2549121D01*
X15575Y2548517D01*
Y2508347D01*
X-22134Y2470639D01*
X-24092Y2467708D01*
X-24780Y2464252D01*
Y1109261D01*
X-145633D01*
X-147589Y1109785D01*
X-148250Y1109829D01*
X-148876Y1110042D01*
X-164194Y1112058D01*
X-164690Y1112026D01*
X-165175Y1112139D01*
X-172900Y1112392D01*
X-173065Y1112364D01*
X-173228Y1112397D01*
X-381099D01*
X-395145Y1114246D01*
X-408830Y1117913D01*
X-421919Y1123334D01*
X-434188Y1130418D01*
X-445428Y1139043D01*
X-455446Y1149060D01*
X-464070Y1160300D01*
X-471154Y1172569D01*
X-476575Y1185658D01*
X-480242Y1199342D01*
X-482091Y1213389D01*
Y1220472D01*
Y2559055D01*
Y2566138D01*
X-480242Y2580185D01*
X-476575Y2593869D01*
X-471154Y2606958D01*
X-464070Y2619227D01*
X-455446Y2630467D01*
X-445428Y2640485D01*
X-434188Y2649110D01*
X-421919Y2656193D01*
X-408830Y2661615D01*
X-395145Y2665281D01*
X-381100Y2667131D01*
X381100D01*
X395146Y2665281D01*
D02*
G37*
%LPC*%
G36*
X73819Y2567083D02*
X70747Y2566472D01*
X68142Y2564732D01*
X66402Y2562127D01*
X65791Y2559055D01*
X66402Y2555983D01*
X68142Y2553378D01*
X70747Y2551638D01*
X73819Y2551027D01*
X76891Y2551638D01*
X79496Y2553378D01*
X81236Y2555983D01*
X81847Y2559055D01*
X81236Y2562127D01*
X79496Y2564732D01*
X76891Y2566472D01*
X73819Y2567083D01*
D02*
G37*
%LPD*%
D15*
X0Y90551D02*
X31496Y59055D01*
X-15748Y76934D02*
Y2464252D01*
Y76934D02*
X0Y61186D01*
Y59055D02*
Y61186D01*
X0Y2457729D02*
X45000Y2502729D01*
X0Y90551D02*
Y2457729D01*
X-15748Y2464252D02*
X24606Y2504606D01*
X57559Y1352559D02*
X84134D01*
X20433Y1315433D02*
X57559Y1352559D01*
X20433Y125984D02*
Y1315433D01*
X45000Y2502729D02*
Y2575000D01*
X30000Y2590000D02*
X45000Y2575000D01*
X24606Y2504606D02*
Y2559055D01*
X-24606D02*
X-23100Y2560562D01*
Y2576900D01*
X-10000Y2590000D01*
X30000D01*
D17*
X374016Y1220472D02*
D03*
X-374016D02*
D03*
X374016Y2559055D02*
D03*
X-374016D02*
D03*
D18*
X31496Y59055D02*
D03*
X0D02*
D03*
X20433Y125984D02*
D03*
X-112716Y1746260D02*
D03*
Y2139961D02*
D03*
X379410Y1943110D02*
D03*
X182559Y2336811D02*
D03*
X-309567Y1352559D02*
D03*
X-407992Y2336811D02*
D03*
X-211142D02*
D03*
X-407992Y1549410D02*
D03*
X-309567Y1746260D02*
D03*
Y2139961D02*
D03*
X-211142Y1549410D02*
D03*
X-407992Y1943110D02*
D03*
X-112716Y2533662D02*
D03*
X84134Y1746260D02*
D03*
X-211142Y1155709D02*
D03*
Y1943110D02*
D03*
X379410Y2336811D02*
D03*
X84134Y1352559D02*
D03*
X280984Y1746260D02*
D03*
X182559Y1155709D02*
D03*
Y1549410D02*
D03*
Y1943110D02*
D03*
X84134Y2139961D02*
D03*
X-112716Y1352559D02*
D03*
X280984D02*
D03*
Y2139961D02*
D03*
X379410Y1549410D02*
D03*
X24606Y2559055D02*
D03*
X-24606D02*
D03*
%TF.MD5,88e700078e989aa829fce2d51363a45d*%
M02*
