%TF.GenerationSoftware,Altium Limited,Altium Designer,23.3.1 (30)*%
G04 Layer_Color=128*
%FSLAX26Y26*%
%MOIN*%
%TF.SameCoordinates,8EB50123-24BD-4293-BAC2-458A60E0733E*%
%TF.FilePolarity,Positive*%
%TF.FileFunction,Drillmap*%
%TF.Part,Single*%
G01*
G75*
%TA.AperFunction,NonConductor*%
%ADD37C,0.005000*%
D37*
X314961Y1220472D02*
X433071D01*
X374016Y1161417D02*
Y1279527D01*
X-433071Y1220472D02*
X-314961D01*
X-374016Y1161417D02*
Y1279527D01*
X314961Y2559055D02*
X433071D01*
X374016Y2500000D02*
Y2618110D01*
X-433071Y2559055D02*
X-314961D01*
X-374016Y2500000D02*
Y2618110D01*
X27559Y59055D02*
X35433D01*
X31496Y55118D02*
Y62992D01*
X-3937Y59055D02*
X3937D01*
X0Y55118D02*
Y62992D01*
X16496Y125984D02*
X24370D01*
X20433Y122047D02*
Y129921D01*
X-116653Y1746260D02*
X-108779D01*
X-112716Y1742323D02*
Y1750197D01*
X-116653Y2139961D02*
X-108779D01*
X-112716Y2136024D02*
Y2143898D01*
X375473Y1943110D02*
X383347D01*
X379410Y1939173D02*
Y1947047D01*
X178622Y2336811D02*
X186496D01*
X182559Y2332874D02*
Y2340748D01*
X-313504Y1352559D02*
X-305630D01*
X-309567Y1348622D02*
Y1356496D01*
X-411929Y2336811D02*
X-404055D01*
X-407992Y2332874D02*
Y2340748D01*
X-215079Y2336811D02*
X-207205D01*
X-211142Y2332874D02*
Y2340748D01*
X-411929Y1549410D02*
X-404055D01*
X-407992Y1545473D02*
Y1553347D01*
X-313504Y1746260D02*
X-305630D01*
X-309567Y1742323D02*
Y1750197D01*
X-313504Y2139961D02*
X-305630D01*
X-309567Y2136024D02*
Y2143898D01*
X-215079Y1549410D02*
X-207205D01*
X-211142Y1545473D02*
Y1553347D01*
X-411929Y1943110D02*
X-404055D01*
X-407992Y1939173D02*
Y1947047D01*
X-116653Y2533662D02*
X-108779D01*
X-112716Y2529725D02*
Y2537599D01*
X80197Y1746260D02*
X88071D01*
X84134Y1742323D02*
Y1750197D01*
X-215079Y1155709D02*
X-207205D01*
X-211142Y1151772D02*
Y1159646D01*
X-215079Y1943110D02*
X-207205D01*
X-211142Y1939173D02*
Y1947047D01*
X375473Y2336811D02*
X383347D01*
X379410Y2332874D02*
Y2340748D01*
X80197Y1352559D02*
X88071D01*
X84134Y1348622D02*
Y1356496D01*
X277047Y1746260D02*
X284921D01*
X280984Y1742323D02*
Y1750197D01*
X178622Y1155709D02*
X186496D01*
X182559Y1151772D02*
Y1159646D01*
X178622Y1549410D02*
X186496D01*
X182559Y1545473D02*
Y1553347D01*
X178622Y1943110D02*
X186496D01*
X182559Y1939173D02*
Y1947047D01*
X80197Y2139961D02*
X88071D01*
X84134Y2136024D02*
Y2143898D01*
X-116653Y1352559D02*
X-108779D01*
X-112716Y1348622D02*
Y1356496D01*
X277047Y1352559D02*
X284921D01*
X280984Y1348622D02*
Y1356496D01*
X277047Y2139961D02*
X284921D01*
X280984Y2136024D02*
Y2143898D01*
X375473Y1549410D02*
X383347D01*
X379410Y1545473D02*
Y1553347D01*
X69882Y2559055D02*
X77756D01*
X73819Y2555118D02*
Y2562992D01*
X20669Y2559055D02*
X28543D01*
X24606Y2555118D02*
Y2562992D01*
X-28543Y2559055D02*
X-20669D01*
X-24606Y2555118D02*
Y2562992D01*
X-35433Y59055D02*
X-27559D01*
X-31496Y55118D02*
Y62992D01*
X-3937Y-29528D02*
X3937D01*
X0Y-33465D02*
Y-25591D01*
%TF.MD5,a2129a61b1fc7fc2cdc8a93c8567e2c1*%
M02*
