%TF.GenerationSoftware,Altium Limited,Altium Designer,23.3.1 (30)*%
G04 Layer_Physical_Order=2*
G04 Layer_Color=36540*
%FSLAX26Y26*%
%MOIN*%
%TF.SameCoordinates,8EB50123-24BD-4293-BAC2-458A60E0733E*%
%TF.FilePolarity,Positive*%
%TF.FileFunction,Copper,L2,Inr,Signal*%
%TF.Part,Single*%
G01*
G75*
%TA.AperFunction,Conductor*%
%ADD15C,0.009842*%
%TA.AperFunction,ViaPad*%
%ADD17C,0.196850*%
%ADD18C,0.019685*%
G36*
X80335Y2551605D02*
X80000Y2551113D01*
X79705Y2550550D01*
X79449Y2549916D01*
X79232Y2549211D01*
X79055Y2548436D01*
X78917Y2547590D01*
X78819Y2546672D01*
X78740Y2544626D01*
X68898D01*
X68878Y2545684D01*
X68721Y2547590D01*
X68583Y2548436D01*
X68406Y2549211D01*
X68189Y2549916D01*
X67933Y2550550D01*
X67638Y2551113D01*
X67303Y2551605D01*
X66929Y2552026D01*
X80709D01*
X80335Y2551605D01*
D02*
G37*
G36*
X395146Y2665281D02*
X408830Y2661614D01*
X421919Y2656193D01*
X434188Y2649109D01*
X445428Y2640485D01*
X455445Y2630467D01*
X464070Y2619227D01*
X471153Y2606959D01*
X476575Y2593869D01*
X480242Y2580185D01*
X482091Y2566139D01*
Y2559055D01*
Y1220472D01*
Y1213389D01*
X480242Y1199342D01*
X476575Y1185658D01*
X471154Y1172569D01*
X464070Y1160300D01*
X455445Y1149060D01*
X445428Y1139043D01*
X434188Y1130418D01*
X421919Y1123335D01*
X408830Y1117913D01*
X395146Y1114246D01*
X381099Y1112397D01*
X173228D01*
X173065Y1112364D01*
X172900Y1112392D01*
X165175Y1112139D01*
X164690Y1112026D01*
X164194Y1112058D01*
X148876Y1110042D01*
X148250Y1109829D01*
X147589Y1109786D01*
X145633Y1109261D01*
X4032D01*
X4032Y2301259D01*
X80205Y2377432D01*
X82163Y2380363D01*
X82851Y2383819D01*
Y2544140D01*
X82999Y2544462D01*
X83072Y2546363D01*
X83142Y2547020D01*
X83240Y2547618D01*
X83352Y2548110D01*
X83468Y2548489D01*
X83577Y2548758D01*
X83661Y2548918D01*
X83704Y2548981D01*
X83895Y2549197D01*
X83993Y2549479D01*
X86799Y2553679D01*
X87868Y2559055D01*
X86799Y2564432D01*
X83753Y2568990D01*
X79195Y2572035D01*
X73819Y2573105D01*
X68442Y2572035D01*
X63884Y2568990D01*
X60839Y2564432D01*
X59769Y2559055D01*
X60839Y2553679D01*
X63644Y2549480D01*
X63742Y2549197D01*
X63934Y2548982D01*
X63977Y2548918D01*
X64061Y2548758D01*
X64169Y2548489D01*
X64286Y2548110D01*
X64398Y2547618D01*
X64487Y2547071D01*
X64620Y2545470D01*
X64637Y2544547D01*
X64787Y2544202D01*
Y2387560D01*
X-11386Y2311386D01*
X-13344Y2308456D01*
X-14032Y2305000D01*
X-14032Y1109261D01*
X-145633D01*
X-147589Y1109785D01*
X-148250Y1109829D01*
X-148876Y1110042D01*
X-164194Y1112058D01*
X-164690Y1112026D01*
X-165175Y1112139D01*
X-172900Y1112392D01*
X-173065Y1112364D01*
X-173228Y1112397D01*
X-381099D01*
X-395145Y1114246D01*
X-408830Y1117913D01*
X-421919Y1123334D01*
X-434188Y1130418D01*
X-445428Y1139043D01*
X-455446Y1149060D01*
X-464070Y1160300D01*
X-471154Y1172569D01*
X-476575Y1185658D01*
X-480242Y1199342D01*
X-482091Y1213389D01*
Y1220472D01*
Y2559055D01*
Y2566138D01*
X-480242Y2580185D01*
X-476575Y2593869D01*
X-471154Y2606958D01*
X-464070Y2619227D01*
X-455446Y2630467D01*
X-445428Y2640485D01*
X-434188Y2649110D01*
X-421919Y2656193D01*
X-408830Y2661615D01*
X-395145Y2665281D01*
X-381100Y2667131D01*
X381100D01*
X395146Y2665281D01*
D02*
G37*
%LPC*%
G36*
X24606Y2567083D02*
X21534Y2566472D01*
X18929Y2564732D01*
X17189Y2562127D01*
X16578Y2559055D01*
X17189Y2555983D01*
X18929Y2553378D01*
X21534Y2551638D01*
X24606Y2551027D01*
X27679Y2551638D01*
X30283Y2553378D01*
X32023Y2555983D01*
X32635Y2559055D01*
X32023Y2562127D01*
X30283Y2564732D01*
X27679Y2566472D01*
X24606Y2567083D01*
D02*
G37*
G36*
X-24606D02*
X-27679Y2566472D01*
X-30283Y2564732D01*
X-32023Y2562127D01*
X-32635Y2559055D01*
X-32023Y2555983D01*
X-30283Y2553378D01*
X-27679Y2551638D01*
X-24606Y2551027D01*
X-21534Y2551638D01*
X-18929Y2553378D01*
X-17189Y2555983D01*
X-16578Y2559055D01*
X-17189Y2562127D01*
X-18929Y2564732D01*
X-21534Y2566472D01*
X-24606Y2567083D01*
D02*
G37*
%LPD*%
D15*
X0Y-29528D02*
X15748Y-13780D01*
Y121299D02*
X20433Y125984D01*
X15748Y-13780D02*
Y121299D01*
X-31496Y59055D02*
Y93504D01*
X-5000Y120000D01*
X73819Y2383819D02*
Y2559055D01*
X-5000Y2305000D02*
X-5000Y120000D01*
X-5000Y2305000D02*
X73819Y2383819D01*
D17*
X374016Y1220472D02*
D03*
X-374016D02*
D03*
X374016Y2559055D02*
D03*
X-374016D02*
D03*
D18*
X20433Y125984D02*
D03*
X-112716Y1746260D02*
D03*
Y2139961D02*
D03*
X379410Y1943110D02*
D03*
X182559Y2336811D02*
D03*
X-309567Y1352559D02*
D03*
X-407992Y2336811D02*
D03*
X-211142D02*
D03*
X-407992Y1549410D02*
D03*
X-309567Y1746260D02*
D03*
Y2139961D02*
D03*
X-211142Y1549410D02*
D03*
X-407992Y1943110D02*
D03*
X-112716Y2533662D02*
D03*
X84134Y1746260D02*
D03*
X-211142Y1155709D02*
D03*
Y1943110D02*
D03*
X379410Y2336811D02*
D03*
X84134Y1352559D02*
D03*
X280984Y1746260D02*
D03*
X182559Y1155709D02*
D03*
Y1549410D02*
D03*
Y1943110D02*
D03*
X84134Y2139961D02*
D03*
X-112716Y1352559D02*
D03*
X280984D02*
D03*
Y2139961D02*
D03*
X379410Y1549410D02*
D03*
X73819Y2559055D02*
D03*
X-31496Y59055D02*
D03*
X0Y-29528D02*
D03*
%TF.MD5,b413dc5bb4752489f50a0603ae35c1ce*%
M02*
