G04*
G04 #@! TF.GenerationSoftware,Altium Limited,Altium Designer,23.3.1 (30)*
G04*
G04 Layer_Color=128*
%FSLAX25Y25*%
%MOIN*%
G70*
G04*
G04 #@! TF.SameCoordinates,E44149EA-E104-4754-9592-5F3D4FB4DBB9*
G04*
G04*
G04 #@! TF.FilePolarity,Positive*
G04*
G01*
G75*
%ADD30C,0.00200*%
D30*
X31496Y122047D02*
X43307D01*
X37402Y116142D02*
Y127953D01*
X-43307Y122047D02*
X-31496D01*
X-37402Y116142D02*
Y127953D01*
X31496Y255906D02*
X43307D01*
X37402Y250000D02*
Y261811D01*
X-43307Y255906D02*
X-31496D01*
X-37402Y250000D02*
Y261811D01*
X2756Y5906D02*
X3543D01*
X3150Y5512D02*
Y6299D01*
X-394Y5906D02*
X394D01*
X0Y5512D02*
Y6299D01*
X1650Y12598D02*
X2437D01*
X2043Y12205D02*
Y12992D01*
X-11665Y174626D02*
X-10878D01*
X-11272Y174232D02*
Y175020D01*
X-11665Y213996D02*
X-10878D01*
X-11272Y213602D02*
Y214390D01*
X37547Y194311D02*
X38335D01*
X37941Y193917D02*
Y194705D01*
X17862Y233681D02*
X18650D01*
X18256Y233287D02*
Y234075D01*
X-31350Y135256D02*
X-30563D01*
X-30957Y134862D02*
Y135650D01*
X-41193Y233681D02*
X-40405D01*
X-40799Y233287D02*
Y234075D01*
X-21508Y233681D02*
X-20720D01*
X-21114Y233287D02*
Y234075D01*
X-41193Y154941D02*
X-40405D01*
X-40799Y154547D02*
Y155335D01*
X-31350Y174626D02*
X-30563D01*
X-30957Y174232D02*
Y175020D01*
X-31350Y213996D02*
X-30563D01*
X-30957Y213602D02*
Y214390D01*
X-21508Y154941D02*
X-20720D01*
X-21114Y154547D02*
Y155335D01*
X-41193Y194311D02*
X-40405D01*
X-40799Y193917D02*
Y194705D01*
X-11665Y253366D02*
X-10878D01*
X-11272Y252973D02*
Y253760D01*
X8020Y174626D02*
X8807D01*
X8413Y174232D02*
Y175020D01*
X-21508Y115571D02*
X-20720D01*
X-21114Y115177D02*
Y115965D01*
X-21508Y194311D02*
X-20720D01*
X-21114Y193917D02*
Y194705D01*
X37547Y233681D02*
X38335D01*
X37941Y233287D02*
Y234075D01*
X8020Y135256D02*
X8807D01*
X8413Y134862D02*
Y135650D01*
X27705Y174626D02*
X28492D01*
X28098Y174232D02*
Y175020D01*
X17862Y115571D02*
X18650D01*
X18256Y115177D02*
Y115965D01*
X17862Y154941D02*
X18650D01*
X18256Y154547D02*
Y155335D01*
X17862Y194311D02*
X18650D01*
X18256Y193917D02*
Y194705D01*
X8020Y213996D02*
X8807D01*
X8413Y213602D02*
Y214390D01*
X-11665Y135256D02*
X-10878D01*
X-11272Y134862D02*
Y135650D01*
X27705Y135256D02*
X28492D01*
X28098Y134862D02*
Y135650D01*
X27705Y213996D02*
X28492D01*
X28098Y213602D02*
Y214390D01*
X37547Y154941D02*
X38335D01*
X37941Y154547D02*
Y155335D01*
X6988Y255906D02*
X7776D01*
X7382Y255512D02*
Y256299D01*
X2067Y255906D02*
X2854D01*
X2461Y255512D02*
Y256299D01*
X-2854Y255906D02*
X-2067D01*
X-2461Y255512D02*
Y256299D01*
X-3543Y5906D02*
X-2756D01*
X-3150Y5512D02*
Y6299D01*
X-394Y-2953D02*
X394D01*
X0Y-3347D02*
Y-2559D01*
M02*
