G04*
G04 #@! TF.GenerationSoftware,Altium Limited,Altium Designer,23.3.1 (30)*
G04*
G04 Layer_Physical_Order=3*
G04 Layer_Color=16440176*
%FSLAX25Y25*%
%MOIN*%
G70*
G04*
G04 #@! TF.SameCoordinates,E44149EA-E104-4754-9592-5F3D4FB4DBB9*
G04*
G04*
G04 #@! TF.FilePolarity,Positive*
G04*
G01*
G75*
%ADD22C,0.00984*%
%ADD24C,0.19685*%
%ADD25C,0.01968*%
G36*
X7711Y134567D02*
X7668Y134604D01*
X7619Y134638D01*
X7563Y134667D01*
X7500Y134693D01*
X7429Y134715D01*
X7351Y134732D01*
X7267Y134746D01*
X7175Y134756D01*
X6971Y134764D01*
Y135748D01*
X7076Y135750D01*
X7267Y135766D01*
X7351Y135780D01*
X7429Y135797D01*
X7500Y135819D01*
X7563Y135845D01*
X7619Y135874D01*
X7668Y135907D01*
X7711Y135945D01*
Y134567D01*
D02*
G37*
G36*
X39515Y266528D02*
X40883Y266161D01*
X42192Y265619D01*
X43419Y264911D01*
X44543Y264049D01*
X45544Y263047D01*
X46407Y261923D01*
X47115Y260696D01*
X47657Y259387D01*
X48024Y258018D01*
X48209Y256614D01*
Y255906D01*
Y122047D01*
Y121339D01*
X48024Y119934D01*
X47657Y118566D01*
X47115Y117257D01*
X46407Y116030D01*
X45544Y114906D01*
X44543Y113904D01*
X43419Y113042D01*
X42192Y112334D01*
X40883Y111791D01*
X39515Y111425D01*
X38110Y111240D01*
X17323D01*
X17307Y111236D01*
X17290Y111239D01*
X16518Y111214D01*
X16469Y111203D01*
X16419Y111206D01*
X14888Y111004D01*
X14825Y110983D01*
X14759Y110979D01*
X14563Y110926D01*
X2946D01*
Y131169D01*
X6130Y134353D01*
X6922D01*
X6954Y134338D01*
X7144Y134331D01*
X7210Y134324D01*
X7270Y134314D01*
X7319Y134303D01*
X7357Y134291D01*
X7384Y134280D01*
X7400Y134272D01*
X7406Y134267D01*
X7428Y134248D01*
X7571Y134199D01*
X7711Y134141D01*
X7723Y134146D01*
X7736Y134142D01*
X7872Y134208D01*
X8012Y134266D01*
X8017Y134278D01*
X8029Y134284D01*
X8053Y134353D01*
X8413D01*
X8759Y134422D01*
X9052Y134617D01*
X9248Y134910D01*
X9317Y135256D01*
X9248Y135601D01*
X9052Y135895D01*
X8759Y136090D01*
X8413Y136159D01*
X8053D01*
X8029Y136228D01*
X8017Y136234D01*
X8012Y136246D01*
X7872Y136304D01*
X7736Y136370D01*
X7723Y136366D01*
X7711Y136371D01*
X7571Y136313D01*
X7428Y136264D01*
X7406Y136244D01*
X7400Y136240D01*
X7384Y136232D01*
X7357Y136221D01*
X7319Y136209D01*
X7270Y136198D01*
X7215Y136189D01*
X7055Y136176D01*
X6962Y136174D01*
X6928Y136159D01*
X5756D01*
X5756Y136159D01*
X5410Y136090D01*
X5117Y135895D01*
X1405Y132182D01*
X1403Y132180D01*
X903Y132331D01*
Y245399D01*
X5139Y249634D01*
X5334Y249927D01*
X5403Y250273D01*
X5403Y250273D01*
Y257500D01*
X5334Y257846D01*
X5139Y258139D01*
X3639Y259639D01*
X3346Y259834D01*
X3000Y259903D01*
X-1000D01*
X-1000Y259903D01*
X-1346Y259834D01*
X-1639Y259639D01*
X-2949Y258329D01*
X-3144Y258036D01*
X-3213Y257690D01*
Y257060D01*
X-3454Y256899D01*
X-3759Y256443D01*
X-3866Y255906D01*
X-3759Y255368D01*
X-3454Y254912D01*
X-2998Y254608D01*
X-2461Y254501D01*
X-1923Y254608D01*
X-1467Y254912D01*
X-1163Y255368D01*
X-1056Y255906D01*
X-1163Y256443D01*
X-1407Y256809D01*
Y257316D01*
X-626Y258097D01*
X2626D01*
X3012Y257711D01*
X2766Y257250D01*
X2461Y257311D01*
X1923Y257204D01*
X1467Y256899D01*
X1163Y256443D01*
X1056Y255906D01*
X1163Y255368D01*
X1467Y254912D01*
X1558Y254852D01*
Y250835D01*
X-2213Y247064D01*
X-2409Y246771D01*
X-2478Y246425D01*
Y110926D01*
X-14563D01*
X-14759Y110978D01*
X-14825Y110983D01*
X-14888Y111004D01*
X-16419Y111206D01*
X-16469Y111203D01*
X-16518Y111214D01*
X-17290Y111239D01*
X-17307Y111236D01*
X-17323Y111240D01*
X-38110D01*
X-39514Y111425D01*
X-40883Y111791D01*
X-42192Y112333D01*
X-43419Y113042D01*
X-44543Y113904D01*
X-45545Y114906D01*
X-46407Y116030D01*
X-47115Y117257D01*
X-47657Y118566D01*
X-48024Y119934D01*
X-48209Y121339D01*
Y122047D01*
Y255906D01*
Y256614D01*
X-48024Y258018D01*
X-47657Y259387D01*
X-47115Y260696D01*
X-46407Y261923D01*
X-45545Y263047D01*
X-44543Y264049D01*
X-43419Y264911D01*
X-42192Y265619D01*
X-40883Y266161D01*
X-39514Y266528D01*
X-38110Y266713D01*
X38110D01*
X39515Y266528D01*
D02*
G37*
%LPC*%
G36*
X7382Y256708D02*
X7075Y256647D01*
X6814Y256473D01*
X6640Y256213D01*
X6579Y255906D01*
X6640Y255598D01*
X6814Y255338D01*
X7075Y255164D01*
X7382Y255103D01*
X7689Y255164D01*
X7950Y255338D01*
X8124Y255598D01*
X8185Y255906D01*
X8124Y256213D01*
X7950Y256473D01*
X7689Y256647D01*
X7382Y256708D01*
D02*
G37*
%LPD*%
D22*
X0Y9055D02*
X3150Y5906D01*
X-1575Y7693D02*
Y246425D01*
Y7693D02*
X0Y6119D01*
Y5906D02*
Y6119D01*
X0Y245773D02*
X4500Y250273D01*
X0Y9055D02*
Y245773D01*
X-1575Y246425D02*
X2461Y250461D01*
X5756Y135256D02*
X8413D01*
X2043Y131543D02*
X5756Y135256D01*
X2043Y12598D02*
Y131543D01*
X4500Y250273D02*
Y257500D01*
X3000Y259000D02*
X4500Y257500D01*
X2461Y250461D02*
Y255906D01*
X-2461D02*
X-2310Y256056D01*
Y257690D01*
X-1000Y259000D01*
X3000D01*
D24*
X37402Y122047D02*
D03*
X-37402D02*
D03*
X37402Y255906D02*
D03*
X-37402D02*
D03*
D25*
X3150Y5906D02*
D03*
X0D02*
D03*
X2043Y12598D02*
D03*
X-11272Y174626D02*
D03*
Y213996D02*
D03*
X37941Y194311D02*
D03*
X18256Y233681D02*
D03*
X-30957Y135256D02*
D03*
X-40799Y233681D02*
D03*
X-21114D02*
D03*
X-40799Y154941D02*
D03*
X-30957Y174626D02*
D03*
Y213996D02*
D03*
X-21114Y154941D02*
D03*
X-40799Y194311D02*
D03*
X-11272Y253366D02*
D03*
X8413Y174626D02*
D03*
X-21114Y115571D02*
D03*
Y194311D02*
D03*
X37941Y233681D02*
D03*
X8413Y135256D02*
D03*
X28098Y174626D02*
D03*
X18256Y115571D02*
D03*
Y154941D02*
D03*
Y194311D02*
D03*
X8413Y213996D02*
D03*
X-11272Y135256D02*
D03*
X28098D02*
D03*
Y213996D02*
D03*
X37941Y154941D02*
D03*
X2461Y255906D02*
D03*
X-2461D02*
D03*
M02*
