G04*
G04 #@! TF.GenerationSoftware,Altium Limited,Altium Designer,23.3.1 (30)*
G04*
G04 Layer_Color=65535*
%FSLAX25Y25*%
%MOIN*%
G70*
G04*
G04 #@! TF.SameCoordinates,E44149EA-E104-4754-9592-5F3D4FB4DBB9*
G04*
G04*
G04 #@! TF.FilePolarity,Positive*
G04*
G01*
G75*
%ADD10C,0.00394*%
%ADD11C,0.00197*%
G36*
X19685Y159449D02*
X-19685D01*
Y171260D01*
X19685D01*
Y159449D01*
D02*
G37*
G36*
X-18098Y250558D02*
Y250554D01*
Y250543D01*
Y250529D01*
Y250507D01*
X-18102Y250478D01*
Y250448D01*
X-18109Y250379D01*
X-18116Y250299D01*
X-18131Y250216D01*
X-18153Y250139D01*
X-18178Y250066D01*
Y250063D01*
X-18182Y250059D01*
X-18193Y250037D01*
X-18211Y250008D01*
X-18237Y249968D01*
X-18273Y249928D01*
X-18313Y249884D01*
X-18364Y249841D01*
X-18422Y249804D01*
X-18429Y249801D01*
X-18451Y249790D01*
X-18484Y249775D01*
X-18531Y249761D01*
X-18590Y249742D01*
X-18655Y249728D01*
X-18728Y249717D01*
X-18808Y249713D01*
X-18841D01*
X-18863Y249717D01*
X-18892Y249721D01*
X-18921Y249724D01*
X-18997Y249739D01*
X-19077Y249761D01*
X-19161Y249793D01*
X-19205Y249815D01*
X-19245Y249841D01*
X-19281Y249870D01*
X-19318Y249903D01*
X-19321Y249906D01*
X-19325Y249910D01*
X-19332Y249924D01*
X-19343Y249939D01*
X-19358Y249957D01*
X-19372Y249983D01*
X-19387Y250012D01*
X-19405Y250044D01*
X-19420Y250081D01*
X-19434Y250125D01*
X-19449Y250168D01*
X-19463Y250219D01*
X-19471Y250274D01*
X-19481Y250336D01*
X-19485Y250398D01*
Y250467D01*
X-19183Y250510D01*
Y250507D01*
Y250500D01*
Y250485D01*
X-19179Y250463D01*
X-19176Y250441D01*
Y250416D01*
X-19165Y250354D01*
X-19154Y250288D01*
X-19132Y250223D01*
X-19110Y250165D01*
X-19096Y250139D01*
X-19077Y250117D01*
X-19074Y250114D01*
X-19059Y250103D01*
X-19037Y250084D01*
X-19008Y250066D01*
X-18968Y250044D01*
X-18925Y250030D01*
X-18870Y250015D01*
X-18812Y250012D01*
X-18790D01*
X-18768Y250015D01*
X-18735Y250019D01*
X-18702Y250026D01*
X-18666Y250034D01*
X-18630Y250048D01*
X-18593Y250066D01*
X-18590Y250070D01*
X-18579Y250077D01*
X-18564Y250092D01*
X-18542Y250106D01*
X-18524Y250132D01*
X-18502Y250157D01*
X-18484Y250186D01*
X-18470Y250223D01*
Y250226D01*
X-18462Y250241D01*
X-18459Y250267D01*
X-18451Y250299D01*
X-18444Y250343D01*
X-18440Y250398D01*
X-18433Y250463D01*
Y250539D01*
Y252276D01*
X-18098D01*
Y250558D01*
D02*
G37*
G36*
X-16515Y249757D02*
X-16824D01*
Y251726D01*
X-16828Y251723D01*
X-16846Y251708D01*
X-16868Y251686D01*
X-16904Y251661D01*
X-16944Y251628D01*
X-16995Y251591D01*
X-17054Y251552D01*
X-17119Y251511D01*
X-17123D01*
X-17126Y251508D01*
X-17148Y251493D01*
X-17185Y251475D01*
X-17228Y251453D01*
X-17279Y251428D01*
X-17334Y251402D01*
X-17389Y251377D01*
X-17443Y251355D01*
Y251653D01*
X-17439D01*
X-17432Y251661D01*
X-17418Y251664D01*
X-17399Y251675D01*
X-17378Y251686D01*
X-17352Y251701D01*
X-17290Y251737D01*
X-17217Y251777D01*
X-17145Y251828D01*
X-17068Y251886D01*
X-16992Y251948D01*
X-16988Y251952D01*
X-16984Y251956D01*
X-16973Y251966D01*
X-16959Y251977D01*
X-16926Y252014D01*
X-16883Y252057D01*
X-16839Y252108D01*
X-16792Y252167D01*
X-16751Y252225D01*
X-16715Y252287D01*
X-16515D01*
Y249757D01*
D02*
G37*
%LPC*%
G36*
X2931Y167939D02*
D01*
Y166524D01*
X2923Y166634D01*
X2909Y166743D01*
X2894Y166845D01*
X2865Y166940D01*
X2792Y167108D01*
X2719Y167253D01*
X2675Y167319D01*
X2639Y167370D01*
X2602Y167421D01*
X2566Y167457D01*
X2537Y167487D01*
X2522Y167516D01*
X2508Y167523D01*
X2500Y167530D01*
X2420Y167603D01*
X2325Y167669D01*
X2238Y167720D01*
X2136Y167764D01*
X1946Y167837D01*
X1757Y167888D01*
X1669Y167902D01*
X1589Y167917D01*
X1516Y167924D01*
X1451Y167931D01*
X1400Y167939D01*
X2931D01*
X-459D01*
X1327D01*
X1203Y167931D01*
X1086Y167924D01*
X860Y167888D01*
X671Y167829D01*
X583Y167800D01*
X503Y167764D01*
X430Y167735D01*
X372Y167698D01*
X313Y167669D01*
X270Y167647D01*
X233Y167618D01*
X211Y167603D01*
X197Y167596D01*
X189Y167589D01*
X109Y167516D01*
X36Y167443D01*
X-29Y167355D01*
X-88Y167261D01*
X-175Y167071D01*
X-248Y166889D01*
X-270Y166794D01*
X-292Y166714D01*
X-313Y166641D01*
X-321Y166575D01*
X-335Y166517D01*
Y166481D01*
X-343Y166452D01*
Y166444D01*
X620Y166349D01*
X634Y166495D01*
X663Y166619D01*
X693Y166728D01*
X729Y166809D01*
X758Y166874D01*
X787Y166918D01*
X809Y166947D01*
X817Y166955D01*
X889Y167013D01*
X970Y167057D01*
X1050Y167093D01*
X1130Y167115D01*
X1196Y167129D01*
X1254Y167137D01*
X1305D01*
X1414Y167129D01*
X1509Y167108D01*
X1589Y167078D01*
X1662Y167049D01*
X1713Y167020D01*
X1757Y166991D01*
X1779Y166969D01*
X1786Y166962D01*
X1844Y166889D01*
X1888Y166809D01*
X1917Y166728D01*
X1939Y166648D01*
X1954Y166575D01*
X1961Y166510D01*
Y166473D01*
Y166466D01*
Y166459D01*
X1954Y166349D01*
X1932Y166247D01*
X1895Y166145D01*
X1859Y166058D01*
X1822Y165978D01*
X1786Y165919D01*
X1764Y165883D01*
X1757Y165868D01*
X1728Y165824D01*
X1684Y165773D01*
X1626Y165708D01*
X1567Y165650D01*
X1436Y165511D01*
X1305Y165373D01*
X1174Y165241D01*
X1115Y165183D01*
X1057Y165139D01*
X1013Y165095D01*
X984Y165066D01*
X962Y165044D01*
X955Y165037D01*
X809Y164899D01*
X678Y164768D01*
X554Y164644D01*
X445Y164534D01*
X343Y164425D01*
X255Y164323D01*
X175Y164235D01*
X109Y164148D01*
X51Y164075D01*
X0Y164009D01*
X-44Y163958D01*
X-73Y163907D01*
X-102Y163878D01*
X-117Y163849D01*
X-131Y163834D01*
Y163827D01*
X-226Y163659D01*
X-299Y163484D01*
X-357Y163324D01*
X-401Y163178D01*
X-430Y163047D01*
X-437Y162996D01*
X-445Y162952D01*
X-452Y162916D01*
X-459Y162887D01*
Y162865D01*
X2931D01*
Y167939D01*
D02*
G37*
G36*
X-4768Y167844D02*
Y164556D01*
X-4775Y164695D01*
X-4789Y164826D01*
X-4811Y164950D01*
X-4841Y165066D01*
X-4870Y165168D01*
X-4913Y165270D01*
X-4950Y165365D01*
X-4994Y165445D01*
X-5037Y165518D01*
X-5074Y165584D01*
X-5118Y165642D01*
X-5147Y165686D01*
X-5176Y165723D01*
X-5198Y165752D01*
X-5212Y165766D01*
X-5220Y165773D01*
X-5307Y165854D01*
X-5395Y165927D01*
X-5489Y165992D01*
X-5584Y166051D01*
X-5672Y166094D01*
X-5766Y166131D01*
X-5934Y166189D01*
X-6014Y166211D01*
X-6087Y166226D01*
X-6153Y166233D01*
X-6204Y166240D01*
X-6247Y166247D01*
X-6313D01*
X-6437Y166240D01*
X-6561Y166218D01*
X-6670Y166196D01*
X-6772Y166167D01*
X-6853Y166131D01*
X-6918Y166109D01*
X-6962Y166087D01*
X-6969Y166080D01*
X-6977D01*
X-6823Y166940D01*
X-4994D01*
Y167844D01*
X-8165D01*
X-7552D01*
X-8048Y165212D01*
X-7268Y165103D01*
X-7203Y165168D01*
X-7137Y165227D01*
X-7071Y165278D01*
X-7006Y165322D01*
X-6882Y165387D01*
X-6765Y165431D01*
X-6663Y165453D01*
X-6590Y165467D01*
X-6561Y165475D01*
X-6517D01*
X-6401Y165467D01*
X-6291Y165438D01*
X-6196Y165402D01*
X-6116Y165358D01*
X-6058Y165307D01*
X-6007Y165270D01*
X-5978Y165241D01*
X-5971Y165234D01*
X-5898Y165139D01*
X-5847Y165030D01*
X-5810Y164913D01*
X-5788Y164797D01*
X-5766Y164695D01*
X-5759Y164614D01*
Y164578D01*
Y164556D01*
Y164541D01*
Y164534D01*
X-5766Y164359D01*
X-5788Y164206D01*
X-5825Y164082D01*
X-5861Y163980D01*
X-5905Y163893D01*
X-5934Y163834D01*
X-5963Y163805D01*
X-5971Y163791D01*
X-6051Y163710D01*
X-6138Y163645D01*
X-6226Y163601D01*
X-6306Y163572D01*
X-6379Y163557D01*
X-6437Y163550D01*
X-6474Y163543D01*
X-6488D01*
X-6583Y163550D01*
X-6678Y163572D01*
X-6758Y163601D01*
X-6823Y163637D01*
X-6882Y163674D01*
X-6926Y163703D01*
X-6955Y163725D01*
X-6962Y163732D01*
X-7028Y163812D01*
X-7086Y163893D01*
X-7130Y163980D01*
X-7159Y164060D01*
X-7181Y164133D01*
X-7195Y164199D01*
X-7203Y164235D01*
Y164250D01*
X-8165Y164148D01*
D01*
X-8143Y164031D01*
X-8121Y163922D01*
X-8048Y163725D01*
X-7968Y163550D01*
X-7924Y163477D01*
X-7873Y163404D01*
X-7829Y163346D01*
X-7793Y163295D01*
X-7749Y163251D01*
X-7720Y163207D01*
X-7691Y163178D01*
X-7669Y163156D01*
X-7655Y163149D01*
X-7647Y163142D01*
X-7560Y163076D01*
X-7472Y163018D01*
X-7378Y162967D01*
X-7283Y162930D01*
X-7086Y162857D01*
X-6911Y162814D01*
X-6823Y162799D01*
X-6751Y162792D01*
X-6678Y162785D01*
X-6619Y162777D01*
X-6568Y162770D01*
X-4768D01*
Y167844D01*
D02*
G37*
G36*
X-8828Y167910D02*
D01*
Y164323D01*
X-8835Y164483D01*
X-8865Y164629D01*
X-8908Y164753D01*
X-8952Y164870D01*
X-8996Y164957D01*
X-9040Y165023D01*
X-9069Y165066D01*
X-9076Y165081D01*
X-9178Y165198D01*
X-9287Y165292D01*
X-9411Y165373D01*
X-9521Y165431D01*
X-9623Y165482D01*
X-9710Y165518D01*
X-9739Y165526D01*
X-9761Y165533D01*
X-9776Y165540D01*
X-9783D01*
X-9667Y165606D01*
X-9565Y165672D01*
X-9477Y165752D01*
X-9404Y165817D01*
X-9353Y165883D01*
X-9309Y165934D01*
X-9280Y165970D01*
X-9273Y165985D01*
X-9207Y166102D01*
X-9156Y166211D01*
X-9127Y166320D01*
X-9098Y166422D01*
X-9083Y166510D01*
X-9076Y166575D01*
Y166619D01*
Y166626D01*
Y166634D01*
X-9083Y166750D01*
X-9098Y166867D01*
X-9127Y166962D01*
X-9156Y167049D01*
X-9185Y167122D01*
X-9215Y167181D01*
X-9229Y167210D01*
X-9236Y167224D01*
X-9295Y167319D01*
X-9360Y167399D01*
X-9426Y167472D01*
X-9484Y167538D01*
X-9543Y167581D01*
X-9586Y167618D01*
X-9616Y167640D01*
X-9623Y167647D01*
X-9710Y167705D01*
X-9805Y167749D01*
X-9893Y167786D01*
X-9973Y167815D01*
X-10046Y167837D01*
X-10097Y167851D01*
X-10133Y167858D01*
X-10148D01*
X-10272Y167873D01*
X-10410Y167888D01*
X-10556Y167895D01*
X-10702Y167902D01*
X-10833Y167910D01*
X-8828D01*
X-13049D01*
Y162865D01*
X-10862D01*
X-10738Y162872D01*
X-10520D01*
X-10432Y162879D01*
X-10294D01*
X-10242Y162887D01*
X-10170D01*
X-10140Y162894D01*
X-10111D01*
X-9965Y162916D01*
X-9834Y162952D01*
X-9718Y162989D01*
X-9616Y163032D01*
X-9535Y163069D01*
X-9477Y163105D01*
X-9441Y163127D01*
X-9426Y163135D01*
X-9324Y163215D01*
X-9244Y163302D01*
X-9164Y163382D01*
X-9105Y163470D01*
X-9054Y163543D01*
X-9018Y163601D01*
X-8996Y163637D01*
X-8989Y163652D01*
X-8937Y163776D01*
X-8894Y163893D01*
X-8865Y164009D01*
X-8850Y164111D01*
X-8835Y164199D01*
X-8828Y164265D01*
Y162865D01*
D01*
D01*
Y167910D01*
D02*
G37*
G36*
X7640D02*
D01*
Y163718D01*
X4826D01*
Y165088D01*
X7356D01*
Y165941D01*
X4826D01*
Y167057D01*
X7545D01*
Y167910D01*
X7640D01*
X3805D01*
Y162865D01*
X7640D01*
Y167910D01*
D02*
G37*
G36*
X13049Y167910D02*
D01*
Y162865D01*
X11022Y167910D01*
X13049D01*
X9944D01*
X7990Y162865D01*
D01*
X11188Y162865D01*
X9069D01*
X9484Y164009D01*
X11511D01*
X11948Y162865D01*
X13049D01*
Y167910D01*
D02*
G37*
G36*
X-984Y167939D02*
X-4257D01*
D01*
X-2624D01*
X-2756Y167931D01*
X-2880Y167917D01*
X-3004Y167888D01*
X-3113Y167858D01*
X-3215Y167815D01*
X-3310Y167771D01*
X-3390Y167727D01*
X-3470Y167676D01*
X-3536Y167625D01*
X-3601Y167581D01*
X-3652Y167538D01*
X-3689Y167494D01*
X-3725Y167465D01*
X-3747Y167436D01*
X-3762Y167421D01*
X-3769Y167414D01*
X-3856Y167290D01*
X-3929Y167144D01*
X-3995Y166991D01*
X-4053Y166831D01*
X-4097Y166663D01*
X-4141Y166488D01*
X-4170Y166320D01*
X-4199Y166153D01*
X-4214Y165992D01*
X-4228Y165846D01*
X-4243Y165708D01*
X-4250Y165591D01*
X-4257Y165497D01*
Y165358D01*
X-4250Y165095D01*
X-4236Y164855D01*
X-4214Y164629D01*
X-4185Y164425D01*
X-4155Y164243D01*
X-4119Y164075D01*
X-4075Y163929D01*
X-4031Y163798D01*
X-3995Y163689D01*
X-3951Y163586D01*
X-3915Y163506D01*
X-3878Y163441D01*
X-3856Y163397D01*
X-3835Y163361D01*
X-3820Y163339D01*
X-3813Y163331D01*
X-3725Y163229D01*
X-3630Y163149D01*
X-3536Y163069D01*
X-3434Y163011D01*
X-3339Y162952D01*
X-3237Y162908D01*
X-3142Y162872D01*
X-3047Y162843D01*
X-2960Y162814D01*
X-2880Y162799D01*
X-2807Y162785D01*
X-2748Y162777D01*
X-2697D01*
X-2654Y162770D01*
X-2624D01*
X-2493Y162777D01*
X-2369Y162792D01*
X-2245Y162821D01*
X-2136Y162850D01*
X-2034Y162887D01*
X-1939Y162930D01*
X-1859Y162981D01*
X-1779Y163032D01*
X-1713Y163076D01*
X-1647Y163127D01*
X-1596Y163171D01*
X-1553Y163207D01*
X-1524Y163237D01*
X-1502Y163266D01*
X-1487Y163280D01*
X-1480Y163288D01*
X-1392Y163412D01*
X-1319Y163557D01*
X-1247Y163710D01*
X-1196Y163878D01*
X-1144Y164046D01*
X-1108Y164213D01*
X-1072Y164388D01*
X-1043Y164556D01*
X-1028Y164716D01*
X-1013Y164862D01*
X-999Y165001D01*
X-991Y165117D01*
X-984Y165212D01*
Y162770D01*
D01*
Y167939D01*
D02*
G37*
%LPD*%
G36*
X2931Y163761D02*
X1006D01*
X1064Y163856D01*
X1130Y163936D01*
X1159Y163973D01*
X1181Y164002D01*
X1196Y164017D01*
X1203Y164024D01*
X1232Y164053D01*
X1261Y164090D01*
X1349Y164170D01*
X1443Y164265D01*
X1538Y164359D01*
X1633Y164447D01*
X1713Y164520D01*
X1742Y164549D01*
X1764Y164571D01*
X1779Y164578D01*
X1786Y164585D01*
X1946Y164738D01*
X2078Y164862D01*
X2187Y164979D01*
X2275Y165066D01*
X2340Y165139D01*
X2384Y165190D01*
X2413Y165227D01*
X2420Y165234D01*
X2515Y165358D01*
X2595Y165475D01*
X2661Y165584D01*
X2712Y165679D01*
X2756Y165759D01*
X2785Y165824D01*
X2799Y165861D01*
X2807Y165876D01*
X2850Y165992D01*
X2880Y166109D01*
X2901Y166218D01*
X2916Y166320D01*
X2923Y166401D01*
X2931Y166466D01*
Y163761D01*
D02*
G37*
G36*
X-4768Y162770D02*
X-6503D01*
X-6342Y162777D01*
X-6189Y162799D01*
X-6051Y162828D01*
X-5920Y162872D01*
X-5796Y162923D01*
X-5686Y162981D01*
X-5584Y163040D01*
X-5489Y163105D01*
X-5409Y163164D01*
X-5336Y163222D01*
X-5271Y163280D01*
X-5220Y163331D01*
X-5183Y163375D01*
X-5154Y163404D01*
X-5139Y163426D01*
X-5132Y163433D01*
X-5067Y163528D01*
X-5008Y163623D01*
X-4964Y163718D01*
X-4921Y163820D01*
X-4855Y164009D01*
X-4811Y164184D01*
X-4797Y164257D01*
X-4789Y164330D01*
X-4775Y164396D01*
Y164454D01*
X-4768Y164498D01*
Y162770D01*
D02*
G37*
G36*
X-10935Y167064D02*
X-10746D01*
X-10702Y167057D01*
X-10622D01*
X-10592Y167049D01*
X-10585D01*
X-10498Y167035D01*
X-10417Y167013D01*
X-10352Y166984D01*
X-10294Y166955D01*
X-10257Y166925D01*
X-10221Y166896D01*
X-10206Y166882D01*
X-10199Y166874D01*
X-10155Y166816D01*
X-10126Y166750D01*
X-10097Y166692D01*
X-10082Y166634D01*
X-10075Y166575D01*
X-10068Y166532D01*
Y166502D01*
Y166495D01*
X-10075Y166408D01*
X-10089Y166328D01*
X-10119Y166262D01*
X-10140Y166204D01*
X-10170Y166153D01*
X-10199Y166123D01*
X-10213Y166102D01*
X-10221Y166094D01*
X-10279Y166043D01*
X-10345Y166007D01*
X-10410Y165978D01*
X-10476Y165956D01*
X-10541Y165934D01*
X-10585Y165927D01*
X-10614Y165919D01*
X-10658D01*
X-10702Y165912D01*
X-10928D01*
X-11052Y165905D01*
X-12028D01*
Y167071D01*
X-11015D01*
X-10935Y167064D01*
D02*
G37*
G36*
X-10869Y165059D02*
X-10782Y165052D01*
X-10694D01*
X-10622Y165044D01*
X-10556Y165037D01*
X-10505Y165030D01*
X-10454Y165023D01*
X-10417Y165015D01*
X-10359Y165008D01*
X-10323Y164994D01*
X-10315D01*
X-10242Y164964D01*
X-10177Y164928D01*
X-10119Y164891D01*
X-10075Y164848D01*
X-10038Y164819D01*
X-10017Y164789D01*
X-10002Y164768D01*
X-9995Y164760D01*
X-9958Y164695D01*
X-9929Y164629D01*
X-9907Y164571D01*
X-9893Y164505D01*
X-9885Y164454D01*
X-9878Y164410D01*
Y164381D01*
Y164374D01*
X-9885Y164279D01*
X-9900Y164192D01*
X-9922Y164119D01*
X-9951Y164060D01*
X-9980Y164009D01*
X-10002Y163973D01*
X-10017Y163951D01*
X-10024Y163944D01*
X-10082Y163893D01*
X-10140Y163849D01*
X-10206Y163812D01*
X-10264Y163783D01*
X-10315Y163769D01*
X-10359Y163754D01*
X-10388Y163747D01*
X-10396D01*
X-10425Y163740D01*
X-10468D01*
X-10563Y163732D01*
X-10680Y163725D01*
X-10796D01*
X-10906Y163718D01*
X-12028D01*
Y165066D01*
X-10971D01*
X-10869Y165059D01*
D02*
G37*
G36*
X11183Y164862D02*
X9791D01*
X10476Y166736D01*
X11183Y164862D01*
D02*
G37*
G36*
X-984Y165351D02*
X-991Y165613D01*
X-1006Y165854D01*
X-1028Y166072D01*
X-1064Y166277D01*
X-1101Y166466D01*
X-1137Y166634D01*
X-1188Y166787D01*
X-1232Y166918D01*
X-1276Y167042D01*
X-1319Y167137D01*
X-1363Y167224D01*
X-1400Y167297D01*
X-1436Y167348D01*
X-1458Y167385D01*
X-1473Y167406D01*
X-1480Y167414D01*
X-1560Y167508D01*
X-1647Y167589D01*
X-1742Y167654D01*
X-1837Y167720D01*
X-1932Y167771D01*
X-2027Y167807D01*
X-2114Y167844D01*
X-2209Y167873D01*
X-2296Y167895D01*
X-2369Y167910D01*
X-2442Y167924D01*
X-2500Y167931D01*
X-2551Y167939D01*
X-984D01*
Y165351D01*
D02*
G37*
G36*
X-2559Y167129D02*
X-2500Y167122D01*
X-2449Y167100D01*
X-2406Y167078D01*
X-2369Y167057D01*
X-2340Y167042D01*
X-2325Y167027D01*
X-2318Y167020D01*
X-2275Y166969D01*
X-2231Y166903D01*
X-2194Y166831D01*
X-2158Y166758D01*
X-2136Y166685D01*
X-2114Y166626D01*
X-2107Y166590D01*
X-2100Y166583D01*
Y166575D01*
X-2085Y166510D01*
X-2070Y166430D01*
X-2056Y166335D01*
X-2041Y166240D01*
X-2027Y166043D01*
X-2019Y165839D01*
X-2012Y165744D01*
Y165650D01*
X-2005Y165569D01*
Y165497D01*
Y165438D01*
Y165387D01*
Y165358D01*
Y165351D01*
Y165190D01*
X-2012Y165037D01*
Y164899D01*
X-2019Y164775D01*
X-2027Y164658D01*
X-2034Y164556D01*
X-2049Y164461D01*
X-2056Y164381D01*
X-2063Y164308D01*
X-2078Y164250D01*
X-2085Y164199D01*
X-2092Y164155D01*
X-2100Y164126D01*
Y164097D01*
X-2107Y164090D01*
Y164082D01*
X-2136Y163980D01*
X-2172Y163900D01*
X-2209Y163827D01*
X-2238Y163776D01*
X-2267Y163732D01*
X-2296Y163703D01*
X-2311Y163689D01*
X-2318Y163681D01*
X-2369Y163645D01*
X-2420Y163616D01*
X-2471Y163601D01*
X-2522Y163586D01*
X-2559Y163579D01*
X-2595Y163572D01*
X-2624D01*
X-2690Y163579D01*
X-2748Y163586D01*
X-2799Y163608D01*
X-2843Y163630D01*
X-2880Y163645D01*
X-2909Y163667D01*
X-2923Y163674D01*
X-2931Y163681D01*
X-2974Y163732D01*
X-3018Y163798D01*
X-3054Y163871D01*
X-3091Y163944D01*
X-3113Y164009D01*
X-3135Y164068D01*
X-3142Y164104D01*
X-3149Y164119D01*
X-3164Y164192D01*
X-3178Y164272D01*
X-3193Y164359D01*
X-3200Y164454D01*
X-3215Y164658D01*
X-3222Y164862D01*
X-3229Y164957D01*
Y165052D01*
X-3237Y165132D01*
Y165205D01*
Y165263D01*
Y165314D01*
Y165343D01*
Y165351D01*
Y165511D01*
X-3229Y165664D01*
Y165795D01*
X-3222Y165927D01*
X-3215Y166036D01*
X-3208Y166145D01*
X-3200Y166233D01*
X-3186Y166320D01*
X-3178Y166393D01*
X-3171Y166452D01*
X-3164Y166502D01*
X-3157Y166546D01*
X-3149Y166575D01*
Y166605D01*
X-3142Y166612D01*
Y166619D01*
X-3113Y166721D01*
X-3076Y166809D01*
X-3047Y166874D01*
X-3011Y166933D01*
X-2982Y166969D01*
X-2960Y166998D01*
X-2945Y167013D01*
X-2938Y167020D01*
X-2887Y167057D01*
X-2829Y167086D01*
X-2778Y167108D01*
X-2726Y167122D01*
X-2690Y167129D01*
X-2654Y167137D01*
X-2624D01*
X-2559Y167129D01*
D02*
G37*
D10*
X-2468Y3500D02*
X-1469D01*
X-12008Y252756D02*
X11921D01*
Y263386D02*
Y265748D01*
X-12008D02*
X11921D01*
X-12008Y263386D02*
Y265748D01*
D11*
X-250Y10842D02*
X250D01*
X-250Y8843D02*
X250D01*
M02*
