%TF.GenerationSoftware,Altium Limited,Altium Designer,23.3.1 (30)*%
G04 Layer_Color=0*
%FSLAX26Y26*%
%MOIN*%
%TF.SameCoordinates,8EB50123-24BD-4293-BAC2-458A60E0733E*%
%TF.FilePolarity,Positive*%
%TF.FileFunction,Plated,1,4,PTH,Drill*%
%TF.Part,Single*%
G01*
G75*
%TA.AperFunction,OtherDrill,Pad Free-2 (374.016mil,1220.472mil)*%
%ADD31C,0.118110*%
%TA.AperFunction,OtherDrill,Pad Free-2 (-374.016mil,1220.472mil)*%
%ADD32C,0.118110*%
%TA.AperFunction,OtherDrill,Pad Free-2 (374.016mil,2559.055mil)*%
%ADD33C,0.118110*%
%TA.AperFunction,OtherDrill,Pad Free-2 (-374.016mil,2559.055mil)*%
%ADD34C,0.118110*%
%TA.AperFunction,ViaDrill,NotFilled*%
%ADD35C,0.007874*%
D31*
X374016Y1220472D02*
D03*
D32*
X-374016D02*
D03*
D33*
X374016Y2559055D02*
D03*
D34*
X-374016D02*
D03*
D35*
X31496Y59055D02*
D03*
X0D02*
D03*
X20433Y125984D02*
D03*
X-112716Y1746260D02*
D03*
Y2139961D02*
D03*
X379410Y1943110D02*
D03*
X182559Y2336811D02*
D03*
X-309567Y1352559D02*
D03*
X-407992Y2336811D02*
D03*
X-211142D02*
D03*
X-407992Y1549410D02*
D03*
X-309567Y1746260D02*
D03*
Y2139961D02*
D03*
X-211142Y1549410D02*
D03*
X-407992Y1943110D02*
D03*
X-112716Y2533662D02*
D03*
X84134Y1746260D02*
D03*
X-211142Y1155709D02*
D03*
Y1943110D02*
D03*
X379410Y2336811D02*
D03*
X84134Y1352559D02*
D03*
X280984Y1746260D02*
D03*
X182559Y1155709D02*
D03*
Y1549410D02*
D03*
Y1943110D02*
D03*
X84134Y2139961D02*
D03*
X-112716Y1352559D02*
D03*
X280984D02*
D03*
Y2139961D02*
D03*
X379410Y1549410D02*
D03*
X73819Y2559055D02*
D03*
X24606D02*
D03*
X-24606D02*
D03*
X-31496Y59055D02*
D03*
X0Y-29528D02*
D03*
%TF.MD5,96fcb3bbf60af55400f3c1be2fdf3321*%
M02*
