M48
;Layer_Color=9474304
;FILE_FORMAT=2:5
INCH,LZ
;TYPE=PLATED
T1F00S00C0.00787
T2F00S00C0.11811
%
T01
X0Y-0002953
Y0005906
X000315
X-000315
X0002043Y0012598
X0018256Y0115571
X0008413Y0135256
X-0011272
X-0030957
X-0021114Y0115571
X0028098Y0135256
X0037941Y0154941
Y0194311
Y0233681
X0018256
X0008413Y0213996
X-0011272
X-0030957
X-0040799Y0233681
X-0021114
X-0011272Y0253366
X-0002461Y0255906
X0002461
X0007382
X0028098Y0213996
X0018256Y0194311
X0008413Y0174626
X-0011272
X-0030957
X-0040799Y0154941
X-0021114
Y0194311
X-0040799
X0028098Y0174626
X0018256Y0154941
T02
X-0037402Y0122047
X0037402
X0037402Y0255906
X-0037402
M30
