G04*
G04 #@! TF.GenerationSoftware,Altium Limited,Altium Designer,23.3.1 (30)*
G04*
G04 Layer_Physical_Order=4*
G04 Layer_Color=16711680*
%FSLAX25Y25*%
%MOIN*%
G70*
G04*
G04 #@! TF.SameCoordinates,E44149EA-E104-4754-9592-5F3D4FB4DBB9*
G04*
G04*
G04 #@! TF.FilePolarity,Positive*
G04*
G01*
G75*
%ADD24C,0.19685*%
%ADD25C,0.01968*%
G36*
X39515Y266528D02*
X40883Y266161D01*
X42192Y265619D01*
X43419Y264911D01*
X44543Y264049D01*
X45544Y263047D01*
X46407Y261923D01*
X47115Y260696D01*
X47657Y259387D01*
X48024Y258018D01*
X48209Y256614D01*
Y255906D01*
Y122047D01*
Y121339D01*
X48024Y119934D01*
X47657Y118566D01*
X47115Y117257D01*
X46407Y116030D01*
X45544Y114906D01*
X44543Y113904D01*
X43419Y113042D01*
X42192Y112334D01*
X40883Y111791D01*
X39515Y111425D01*
X38110Y111240D01*
X17323D01*
X17307Y111236D01*
X17290Y111239D01*
X16518Y111214D01*
X16469Y111203D01*
X16419Y111206D01*
X14888Y111004D01*
X14825Y110983D01*
X14759Y110979D01*
X14563Y110926D01*
X-14563D01*
X-14759Y110978D01*
X-14825Y110983D01*
X-14888Y111004D01*
X-16419Y111206D01*
X-16469Y111203D01*
X-16518Y111214D01*
X-17290Y111239D01*
X-17307Y111236D01*
X-17323Y111240D01*
X-38110D01*
X-39514Y111425D01*
X-40883Y111791D01*
X-42192Y112333D01*
X-43419Y113042D01*
X-44543Y113904D01*
X-45545Y114906D01*
X-46407Y116030D01*
X-47115Y117257D01*
X-47657Y118566D01*
X-48024Y119934D01*
X-48209Y121339D01*
Y122047D01*
Y255906D01*
Y256614D01*
X-48024Y258018D01*
X-47657Y259387D01*
X-47115Y260696D01*
X-46407Y261923D01*
X-45545Y263047D01*
X-44543Y264049D01*
X-43419Y264911D01*
X-42192Y265619D01*
X-40883Y266161D01*
X-39514Y266528D01*
X-38110Y266713D01*
X38110D01*
X39515Y266528D01*
D02*
G37*
%LPC*%
G36*
X7382Y257311D02*
X6844Y257204D01*
X6388Y256899D01*
X6084Y256443D01*
X5977Y255906D01*
X6084Y255368D01*
X6388Y254912D01*
X6844Y254608D01*
X7382Y254501D01*
X7920Y254608D01*
X8375Y254912D01*
X8680Y255368D01*
X8787Y255906D01*
X8680Y256443D01*
X8375Y256899D01*
X7920Y257204D01*
X7382Y257311D01*
D02*
G37*
G36*
X2461D02*
X1923Y257204D01*
X1467Y256899D01*
X1163Y256443D01*
X1056Y255906D01*
X1163Y255368D01*
X1467Y254912D01*
X1923Y254608D01*
X2461Y254501D01*
X2998Y254608D01*
X3454Y254912D01*
X3759Y255368D01*
X3866Y255906D01*
X3759Y256443D01*
X3454Y256899D01*
X2998Y257204D01*
X2461Y257311D01*
D02*
G37*
G36*
X-2461D02*
X-2998Y257204D01*
X-3454Y256899D01*
X-3759Y256443D01*
X-3866Y255906D01*
X-3759Y255368D01*
X-3454Y254912D01*
X-2998Y254608D01*
X-2461Y254501D01*
X-1923Y254608D01*
X-1467Y254912D01*
X-1163Y255368D01*
X-1056Y255906D01*
X-1163Y256443D01*
X-1467Y256899D01*
X-1923Y257204D01*
X-2461Y257311D01*
D02*
G37*
%LPD*%
D24*
X37402Y122047D02*
D03*
X-37402D02*
D03*
X37402Y255906D02*
D03*
X-37402D02*
D03*
D25*
X3150Y5906D02*
D03*
X0D02*
D03*
X2043Y12598D02*
D03*
X-11272Y174626D02*
D03*
Y213996D02*
D03*
X37941Y194311D02*
D03*
X18256Y233681D02*
D03*
X-30957Y135256D02*
D03*
X-40799Y233681D02*
D03*
X-21114D02*
D03*
X-40799Y154941D02*
D03*
X-30957Y174626D02*
D03*
Y213996D02*
D03*
X-21114Y154941D02*
D03*
X-40799Y194311D02*
D03*
X-11272Y253366D02*
D03*
X8413Y174626D02*
D03*
X-21114Y115571D02*
D03*
Y194311D02*
D03*
X37941Y233681D02*
D03*
X8413Y135256D02*
D03*
X28098Y174626D02*
D03*
X18256Y115571D02*
D03*
Y154941D02*
D03*
Y194311D02*
D03*
X8413Y213996D02*
D03*
X-11272Y135256D02*
D03*
X28098D02*
D03*
Y213996D02*
D03*
X37941Y154941D02*
D03*
X7382Y255906D02*
D03*
X2461D02*
D03*
X-2461D02*
D03*
X-3150Y5906D02*
D03*
X0Y-2953D02*
D03*
M02*
