%TF.GenerationSoftware,Altium Limited,Altium Designer,23.3.1 (30)*%
G04 Layer_Color=2752767*
%FSLAX26Y26*%
%MOIN*%
%TF.SameCoordinates,8EB50123-24BD-4293-BAC2-458A60E0733E*%
%TF.FilePolarity,Positive*%
%TF.FileFunction,Drawing*%
%TF.Part,Single*%
G01*
G75*
%TA.AperFunction,NonConductor*%
%ADD37C,0.005000*%
%ADD38C,0.006667*%
D37*
X354016Y1200472D02*
Y1240472D01*
X394016D01*
Y1200472D01*
X354016D01*
X-394016D02*
Y1240472D01*
X-354016D01*
Y1200472D01*
X-394016D01*
X354016Y2539055D02*
Y2579055D01*
X394016D01*
Y2539055D01*
X354016D01*
X-394016D02*
Y2579055D01*
X-354016D01*
Y2539055D01*
X-394016D01*
D38*
X51496Y59055D02*
G03*
X51496Y59055I-20000J0D01*
G01*
X20000D02*
G03*
X20000Y59055I-20000J0D01*
G01*
X40433Y125984D02*
G03*
X40433Y125984I-20000J0D01*
G01*
X-92716Y1746260D02*
G03*
X-92716Y1746260I-20000J0D01*
G01*
Y2139961D02*
G03*
X-92716Y2139961I-20000J0D01*
G01*
X399410Y1943110D02*
G03*
X399410Y1943110I-20000J0D01*
G01*
X202559Y2336811D02*
G03*
X202559Y2336811I-20000J0D01*
G01*
X-289567Y1352559D02*
G03*
X-289567Y1352559I-20000J0D01*
G01*
X-387992Y2336811D02*
G03*
X-387992Y2336811I-20000J0D01*
G01*
X-191142D02*
G03*
X-191142Y2336811I-20000J0D01*
G01*
X-387992Y1549410D02*
G03*
X-387992Y1549410I-20000J0D01*
G01*
X-289567Y1746260D02*
G03*
X-289567Y1746260I-20000J0D01*
G01*
Y2139961D02*
G03*
X-289567Y2139961I-20000J0D01*
G01*
X-191142Y1549410D02*
G03*
X-191142Y1549410I-20000J0D01*
G01*
X-387992Y1943110D02*
G03*
X-387992Y1943110I-20000J0D01*
G01*
X-92716Y2533662D02*
G03*
X-92716Y2533662I-20000J0D01*
G01*
X104134Y1746260D02*
G03*
X104134Y1746260I-20000J0D01*
G01*
X-191142Y1155709D02*
G03*
X-191142Y1155709I-20000J0D01*
G01*
Y1943110D02*
G03*
X-191142Y1943110I-20000J0D01*
G01*
X399410Y2336811D02*
G03*
X399410Y2336811I-20000J0D01*
G01*
X104134Y1352559D02*
G03*
X104134Y1352559I-20000J0D01*
G01*
X300984Y1746260D02*
G03*
X300984Y1746260I-20000J0D01*
G01*
X202559Y1155709D02*
G03*
X202559Y1155709I-20000J0D01*
G01*
Y1549410D02*
G03*
X202559Y1549410I-20000J0D01*
G01*
Y1943110D02*
G03*
X202559Y1943110I-20000J0D01*
G01*
X104134Y2139961D02*
G03*
X104134Y2139961I-20000J0D01*
G01*
X-92716Y1352559D02*
G03*
X-92716Y1352559I-20000J0D01*
G01*
X300984D02*
G03*
X300984Y1352559I-20000J0D01*
G01*
Y2139961D02*
G03*
X300984Y2139961I-20000J0D01*
G01*
X399410Y1549410D02*
G03*
X399410Y1549410I-20000J0D01*
G01*
X93819Y2559055D02*
G03*
X93819Y2559055I-20000J0D01*
G01*
X44606D02*
G03*
X44606Y2559055I-20000J0D01*
G01*
X-4606D02*
G03*
X-4606Y2559055I-20000J0D01*
G01*
X-11496Y59055D02*
G03*
X-11496Y59055I-20000J0D01*
G01*
X20000Y-29528D02*
G03*
X20000Y-29528I-20000J0D01*
G01*
%TF.MD5,820eaba62ee95efc58e4ca0fb4f6e3ca*%
M02*
